<svg width="682" height="740" viewBox="0 0 682 740" fill="none" xmlns="http://www.w3.org/2000/svg">
<mask id="mask0_1_906" style="mask-type:alpha" maskUnits="userSpaceOnUse" x="5" y="5" width="671" height="730">
<path d="M5.81733 620.041C2.60451 653.576 27.1862 683.367 60.722 686.58L555.345 733.966C588.881 737.179 618.671 712.597 621.884 679.061L675.468 119.743C678.681 86.2069 654.1 56.4162 620.564 53.2034L125.941 5.81726C92.405 2.60445 62.6143 27.1861 59.4015 60.7219L5.81733 620.041Z" fill="#C4C4C4"/>
</mask>
<g mask="url(#mask0_1_906)">
<path d="M463.012 733.703C472.582 633.81 392.975 544.334 285.027 533.992C177.08 523.651 81.9328 596.385 72.3628 696.278C62.7928 796.171 142.4 885.647 250.347 895.989C358.294 906.33 453.442 833.596 463.012 733.703Z" stroke="white" stroke-opacity="0.2" stroke-width="2"/>
<path d="M604.296 747.238C620.796 575.01 483.551 420.835 297.575 403.018C111.598 385.201 -52.4222 510.514 -68.9221 682.742C-85.4219 854.971 51.8229 1009.15 237.799 1026.96C423.776 1044.78 587.796 919.467 604.296 747.238Z" stroke="white" stroke-opacity="0.15" stroke-width="2"/>
<path d="M752.152 761.403C775.904 513.476 578.341 291.592 310.706 265.951C43.0709 240.311 -193.026 420.65 -216.778 668.577C-240.53 916.505 -42.9672 1138.39 224.668 1164.03C492.303 1189.67 728.4 1009.33 752.152 761.403Z" stroke="white" stroke-opacity="0.1" stroke-width="2"/>
</g>
</svg>
