<svg width="841" height="983" viewBox="0 0 841 983" fill="none" xmlns="http://www.w3.org/2000/svg">
<mask id="mask0_50_1035" style="mask-type:alpha" maskUnits="userSpaceOnUse" x="29" y="74" width="741" height="887">
<path d="M45.6131 217.979C30.7814 234.338 25.949 257.436 32.9784 278.369L176.05 704.428C177.132 707.651 177.943 710.959 178.475 714.317L209.306 909.249C214.61 942.783 246.274 965.534 279.748 959.862L445.043 931.855C452.033 930.671 458.762 928.278 464.929 924.783L653.051 818.171C666.231 810.702 676.16 798.596 680.905 784.21L766.129 525.851C772.73 505.841 768.536 483.841 755.037 467.662L445.689 96.9129C433.129 81.8595 414.099 73.7606 394.543 75.1457L184.482 90.0236C168.803 91.1341 154.158 98.2543 143.6 109.899L45.6131 217.979Z" fill="#C4C4C4"/>
</mask>
<g mask="url(#mask0_50_1035)">
<path d="M242.336 697.113C327.944 682.333 384.539 595.445 368.563 502.909C352.587 410.373 270.135 347.49 184.527 362.27C98.9188 377.05 42.3234 463.938 58.2992 556.474C74.275 649.01 156.728 711.893 242.336 697.113Z" stroke="white" stroke-opacity="0.2" stroke-width="2"/>
<path d="M263.259 818.309C410.918 792.817 508.447 642.983 480.915 483.512C453.384 324.041 311.261 215.581 163.603 241.073C15.9441 266.566 -81.5853 416.4 -54.0535 575.871C-26.5217 735.342 115.601 843.802 263.259 818.309Z" stroke="white" stroke-opacity="0.15" stroke-width="2"/>
<path d="M285.157 945.143C497.752 908.44 638.119 692.732 598.494 463.212C558.869 233.693 354.301 77.5361 141.706 114.239C-70.8889 150.943 -211.256 366.651 -171.631 596.17C-132.005 825.689 72.5621 981.846 285.157 945.143Z" stroke="white" stroke-opacity="0.1" stroke-width="2"/>
</g>
</svg>
