<svg width="423" height="605" viewBox="0 0 423 605" fill="none" xmlns="http://www.w3.org/2000/svg">
<mask id="mask0_102_209" style="mask-type:alpha" maskUnits="userSpaceOnUse" x="19" y="20" width="554" height="565">
<rect x="591.993" y="423.01" width="439.484" height="463.982" rx="61" transform="rotate(155.579 591.993 423.01)" fill="#C4C4C4"/>
</mask>
<g mask="url(#mask0_102_209)">
<path d="M324.775 423.571C300.591 370.311 325.537 306.848 380.581 281.854C435.626 256.86 499.825 279.846 524.009 333.106C548.192 386.365 523.246 449.829 468.202 474.823C413.158 499.816 348.958 476.831 324.775 423.571Z" stroke="white" stroke-opacity="0.2" stroke-width="2"/>
<path d="M252.429 456.421C210.668 364.45 253.755 254.898 348.755 211.762C443.755 168.626 554.594 208.285 596.355 300.255C638.116 392.226 595.029 501.778 500.029 544.914C405.029 588.051 294.19 548.391 252.429 456.421Z" stroke="white" stroke-opacity="0.15" stroke-width="2"/>
<path d="M176.718 490.799C116.562 358.317 178.635 200.533 315.449 138.411C452.263 76.2878 611.911 133.396 672.066 265.878C732.221 398.359 670.149 556.143 533.335 618.266C396.521 680.389 236.873 623.28 176.718 490.799Z" stroke="white" stroke-opacity="0.1" stroke-width="2"/>
</g>
</svg>
