<svg width="1334" height="1662" viewBox="0 0 1334 1662" fill="none" xmlns="http://www.w3.org/2000/svg">
<g opacity="0.2">
<ellipse rx="7.62908" ry="11.8964" transform="matrix(-1 0 0 1 94.8187 1650.2)" fill="#E77E42"/>
<ellipse cx="1219.56" cy="232.829" rx="7.62908" ry="11.8964" fill="#1BEAFF"/>
<ellipse rx="7.62908" ry="11.8964" transform="matrix(-1 0 0 1 277.917 939.815)" fill="#E77E42"/>
<ellipse cx="781.436" cy="205.638" rx="5.44935" ry="8.49743" fill="white"/>
<ellipse rx="5.44935" ry="8.49743" transform="matrix(-1 0 0 1 1158.53 868.437)" fill="white"/>
<ellipse cx="1080.06" cy="178.446" rx="5.44935" ry="8.49743" fill="white"/>
<ellipse rx="5.44935" ry="8.49743" transform="matrix(-1 0 0 1 504.609 800.457)" fill="white"/>
<ellipse cx="1145.45" cy="508.146" rx="5.44935" ry="8.49743" fill="white"/>
<ellipse rx="5.44935" ry="8.49743" transform="matrix(-1 0 0 1 46.8644 1099.57)" fill="white"/>
<ellipse cx="981.972" cy="453.763" rx="7.62908" ry="11.8964" fill="#E77E42"/>
<ellipse cx="75.2009" cy="548.934" rx="7.62908" ry="11.8964" fill="#1BEAFF"/>
<ellipse cx="979.793" cy="732.478" rx="5.44935" ry="8.49743" fill="#1BEAFF"/>
<ellipse cx="494.801" cy="210.736" rx="2.17974" ry="3.39897" fill="white"/>
<ellipse rx="2.17974" ry="3.39897" transform="matrix(-1 0 0 1 1137.82 1101.27)" fill="white"/>
<ellipse cx="950.366" cy="3.39897" rx="2.17974" ry="3.39897" fill="white"/>
<ellipse rx="2.17974" ry="3.39897" transform="matrix(-1 0 0 1 1296.94 1362.99)" fill="white"/>
<ellipse rx="2.17974" ry="3.39897" transform="matrix(-1 0 0 1 1277.33 1193.04)" fill="white"/>
<ellipse cx="717.134" cy="754.571" rx="2.17974" ry="3.39897" fill="white"/>
<ellipse cx="749.83" cy="717.183" rx="2.17974" ry="3.39897" fill="white"/>
<ellipse cx="276.827" cy="431.669" rx="2.17974" ry="3.39897" fill="white"/>
<ellipse rx="2.17974" ry="3.39897" transform="matrix(-1 0 0 1 728.033 876.934)" fill="white"/>
<ellipse cx="1024.48" cy="615.214" rx="2.17974" ry="3.39897" fill="white"/>
<ellipse rx="2.17974" ry="3.39897" transform="matrix(-1 0 0 1 531.856 1291.61)" fill="white"/>
<ellipse rx="2.17974" ry="3.39897" transform="matrix(-1 0 0 1 725.853 1278.01)" fill="white"/>
<ellipse rx="2.17974" ry="3.39897" transform="matrix(-1 0 0 1 1070.25 1284.81)" fill="white"/>
<ellipse rx="2.17974" ry="3.39897" transform="matrix(-1 0 0 1 1310.02 1080.87)" fill="white"/>
<ellipse rx="2.17974" ry="3.39897" transform="matrix(-1 0 0 1 1331.82 1019.69)" fill="white"/>
<ellipse rx="2.17974" ry="3.39897" transform="matrix(-1 0 0 1 529.676 1118.26)" fill="white"/>
<ellipse rx="2.17974" ry="3.39897" transform="matrix(-1 0 0 1 998.32 1125.06)" fill="white"/>
<ellipse cx="281.186" cy="152.954" rx="2.17974" ry="3.39897" fill="white"/>
<ellipse cx="276.827" cy="628.81" rx="2.17974" ry="3.39897" fill="white"/>
<ellipse rx="2.17974" ry="3.39897" transform="matrix(-1 0 0 1 1033.2 1349.39)" fill="white"/>
<ellipse rx="2.17974" ry="3.39897" transform="matrix(-1 0 0 1 1207.58 934.717)" fill="white"/>
<ellipse cx="989.601" cy="118.964" rx="2.17974" ry="3.39897" fill="white"/>
<ellipse cx="1076.79" cy="336.498" rx="2.17974" ry="3.39897" fill="white"/>
<ellipse rx="2.17974" ry="3.39897" transform="matrix(-1 0 0 1 507.879 958.51)" fill="white"/>
<ellipse cx="1149.81" cy="674.696" rx="5.44935" ry="8.49743" fill="white"/>
<ellipse cx="706.235" cy="343.296" rx="2.17974" ry="3.39897" fill="white"/>
<ellipse rx="2.17974" ry="3.39897" transform="matrix(-1 0 0 1 983.062 910.924)" fill="white"/>
<ellipse cx="795.605" cy="486.053" rx="2.17974" ry="3.39897" fill="white"/>
<ellipse rx="2.17974" ry="3.39897" transform="matrix(-1 0 0 1 802.144 1108.06)" fill="white"/>
<ellipse cx="1257.71" cy="54.3833" rx="2.17974" ry="3.39897" fill="white"/>
<ellipse cx="1305.66" cy="295.71" rx="2.17974" ry="3.39897" fill="white"/>
<ellipse rx="2.17974" ry="3.39897" transform="matrix(-1 0 0 1 1000.5 1590.72)" fill="white"/>
<ellipse cx="1153.08" cy="197.14" rx="2.17974" ry="3.39897" fill="white"/>
<ellipse rx="2.17974" ry="3.39897" transform="matrix(-1 0 0 1 104.628 761.369)" fill="white"/>
<ellipse cx="1194.5" cy="557.431" rx="2.17974" ry="3.39897" fill="white"/>
<ellipse cx="577.631" cy="95.1709" rx="2.17974" ry="3.39897" fill="white"/>
<ellipse cx="555.834" cy="496.25" rx="2.17974" ry="3.39897" fill="white"/>
<ellipse cx="1124.74" cy="10.1968" rx="2.17974" ry="3.39897" fill="white"/>
<ellipse cx="1229.37" cy="438.467" rx="2.17974" ry="3.39897" fill="white"/>
<ellipse rx="2.17974" ry="3.39897" transform="matrix(-1 0 0 1 102.448 1060.48)" fill="white"/>
</g>
</svg>
