<svg width="1333" height="1452" viewBox="0 0 1333 1452" fill="none" xmlns="http://www.w3.org/2000/svg">
<g opacity="0.3">
<ellipse rx="7.62337" ry="6.54054" transform="matrix(-1 0 0 1 94.7477 907.266)" fill="#E77E42"/>
<ellipse cx="1218.65" cy="128.008" rx="7.62337" ry="6.54054" fill="#1BEAFF"/>
<ellipse rx="7.62337" ry="6.54054" transform="matrix(-1 0 0 1 277.708 516.703)" fill="#E77E42"/>
<ellipse cx="1166.38" cy="1264.19" rx="7.62337" ry="6.54054" fill="#E77E42"/>
<ellipse cx="780.851" cy="113.058" rx="5.44526" ry="4.67181" fill="white"/>
<ellipse rx="5.44526" ry="4.67181" transform="matrix(-1 0 0 1 1157.66 477.46)" fill="white"/>
<ellipse cx="286.421" cy="1224.95" rx="5.44526" ry="4.67181" fill="white"/>
<ellipse cx="1079.25" cy="98.1082" rx="5.44526" ry="4.67181" fill="white"/>
<ellipse rx="5.44526" ry="4.67181" transform="matrix(-1 0 0 1 504.231 440.085)" fill="white"/>
<ellipse cx="1144.59" cy="279.375" rx="5.44526" ry="4.67181" fill="white"/>
<ellipse rx="5.44526" ry="4.67181" transform="matrix(-1 0 0 1 46.8292 604.533)" fill="white"/>
<ellipse cx="981.237" cy="249.475" rx="7.62337" ry="6.54054" fill="#E77E42"/>
<ellipse rx="7.62337" ry="6.54054" transform="matrix(-1 0 0 1 558.684 1163.28)" fill="#E77E42"/>
<ellipse cx="75.1444" cy="301.799" rx="7.62337" ry="6.54054" fill="#1BEAFF"/>
<ellipse cx="62.076" cy="1404.35" rx="7.62337" ry="6.54054" fill="#1BEAFF"/>
<ellipse cx="979.059" cy="402.711" rx="5.44526" ry="4.67181" fill="#1BEAFF"/>
<ellipse cx="494.43" cy="115.861" rx="2.1781" ry="1.86873" fill="white"/>
<ellipse rx="2.1781" ry="1.86873" transform="matrix(-1 0 0 1 1136.97 605.467)" fill="white"/>
<ellipse cx="307.113" cy="1352.96" rx="2.1781" ry="1.86873" fill="white"/>
<ellipse cx="949.654" cy="1.86873" rx="2.1781" ry="1.86873" fill="white"/>
<ellipse rx="2.1781" ry="1.86873" transform="matrix(-1 0 0 1 1295.97 749.359)" fill="white"/>
<ellipse cx="1141.33" cy="1339.88" rx="2.1781" ry="1.86873" fill="white"/>
<ellipse rx="2.1781" ry="1.86873" transform="matrix(-1 0 0 1 1276.37 655.923)" fill="white"/>
<ellipse rx="2.1781" ry="1.86873" transform="matrix(-1 0 0 1 1043.31 1089.47)" fill="white"/>
<ellipse cx="716.597" cy="414.857" rx="2.1781" ry="1.86873" fill="white"/>
<ellipse rx="2.1781" ry="1.86873" transform="matrix(-1 0 0 1 980.147 1162.35)" fill="white"/>
<ellipse cx="749.268" cy="394.301" rx="2.1781" ry="1.86873" fill="white"/>
<ellipse rx="2.1781" ry="1.86873" transform="matrix(-1 0 0 1 947.475 1141.79)" fill="white"/>
<ellipse cx="276.62" cy="237.328" rx="2.1781" ry="1.86873" fill="white"/>
<ellipse rx="2.1781" ry="1.86873" transform="matrix(-1 0 0 1 1263.3 984.818)" fill="white"/>
<ellipse rx="2.1781" ry="1.86873" transform="matrix(-1 0 0 1 285.332 956.788)" fill="white"/>
<ellipse rx="2.1781" ry="1.86873" transform="matrix(-1 0 0 1 2.17834 1057.7)" fill="white"/>
<ellipse rx="2.1781" ry="1.86873" transform="matrix(-1 0 0 1 727.487 482.131)" fill="white"/>
<ellipse cx="1023.71" cy="338.24" rx="2.1781" ry="1.86873" fill="white"/>
<ellipse rx="2.1781" ry="1.86873" transform="matrix(-1 0 0 1 546.704 1085.73)" fill="white"/>
<ellipse rx="2.1781" ry="1.86873" transform="matrix(-1 0 0 1 531.458 710.116)" fill="white"/>
<ellipse rx="2.1781" ry="1.86873" transform="matrix(-1 0 0 1 725.309 702.641)" fill="white"/>
<ellipse cx="971.435" cy="1450.13" rx="2.1781" ry="1.86873" fill="white"/>
<ellipse rx="2.1781" ry="1.86873" transform="matrix(-1 0 0 1 1069.45 706.378)" fill="white"/>
<ellipse rx="2.1781" ry="1.86873" transform="matrix(-1 0 0 1 1309.04 594.255)" fill="white"/>
<ellipse rx="2.1781" ry="1.86873" transform="matrix(-1 0 0 1 1330.82 560.618)" fill="white"/>
<ellipse rx="2.1781" ry="1.86873" transform="matrix(-1 0 0 1 529.279 614.811)" fill="white"/>
<ellipse rx="2.1781" ry="1.86873" transform="matrix(-1 0 0 1 997.572 618.548)" fill="white"/>
<ellipse cx="280.975" cy="84.0927" rx="2.1781" ry="1.86873" fill="white"/>
<ellipse cx="276.62" cy="345.714" rx="2.1781" ry="1.86873" fill="white"/>
<ellipse rx="2.1781" ry="1.86873" transform="matrix(-1 0 0 1 1167.46 1093.2)" fill="white"/>
<ellipse rx="2.1781" ry="1.86873" transform="matrix(-1 0 0 1 1032.42 741.884)" fill="white"/>
<ellipse cx="304.935" cy="1450.13" rx="2.1781" ry="1.86873" fill="white"/>
<ellipse cx="298.401" cy="1311.85" rx="2.1781" ry="1.86873" fill="white"/>
<ellipse rx="2.1781" ry="1.86873" transform="matrix(-1 0 0 1 1206.67 513.9)" fill="white"/>
<ellipse cx="988.86" cy="65.4054" rx="2.1781" ry="1.86873" fill="white"/>
<ellipse cx="1075.98" cy="185.004" rx="2.1781" ry="1.86873" fill="white"/>
<ellipse rx="2.1781" ry="1.86873" transform="matrix(-1 0 0 1 540.17 945.575)" fill="white"/>
<ellipse rx="2.1781" ry="1.86873" transform="matrix(-1 0 0 1 507.498 526.981)" fill="white"/>
<ellipse cx="1062.91" cy="1274.47" rx="2.1781" ry="1.86873" fill="white"/>
<ellipse cx="1148.95" cy="370.942" rx="5.44526" ry="4.67181" fill="white"/>
<ellipse rx="5.44526" ry="4.67181" transform="matrix(-1 0 0 1 253.749 1110.96)" fill="white"/>
<ellipse cx="705.705" cy="188.741" rx="2.1781" ry="1.86873" fill="white"/>
<ellipse rx="2.1781" ry="1.86873" transform="matrix(-1 0 0 1 991.038 936.232)" fill="white"/>
<ellipse rx="2.1781" ry="1.86873" transform="matrix(-1 0 0 1 982.326 500.819)" fill="white"/>
<ellipse cx="795.008" cy="267.228" rx="2.1781" ry="1.86873" fill="white"/>
<ellipse rx="2.1781" ry="1.86873" transform="matrix(-1 0 0 1 788.474 1014.72)" fill="white"/>
<ellipse rx="2.1781" ry="1.86873" transform="matrix(-1 0 0 1 801.543 609.205)" fill="white"/>
<ellipse cx="781.94" cy="1356.69" rx="2.1781" ry="1.86873" fill="white"/>
<ellipse cx="1256.77" cy="29.8996" rx="2.1781" ry="1.86873" fill="white"/>
<ellipse cx="1304.68" cy="162.579" rx="2.1781" ry="1.86873" fill="white"/>
<ellipse cx="1278.55" cy="1252.05" rx="2.1781" ry="1.86873" fill="white"/>
<ellipse rx="2.1781" ry="1.86873" transform="matrix(-1 0 0 1 999.75 874.564)" fill="white"/>
<ellipse cx="1152.22" cy="108.386" rx="2.1781" ry="1.86873" fill="white"/>
<ellipse rx="2.1781" ry="1.86873" transform="matrix(-1 0 0 1 104.549 418.595)" fill="white"/>
<ellipse cx="1226.27" cy="1446.39" rx="2.1781" ry="1.86873" fill="white"/>
<ellipse cx="1193.6" cy="306.471" rx="2.1781" ry="1.86873" fill="white"/>
<ellipse cx="577.198" cy="52.3244" rx="2.1781" ry="1.86873" fill="white"/>
<ellipse cx="555.417" cy="272.834" rx="2.1781" ry="1.86873" fill="white"/>
<ellipse rx="2.1781" ry="1.86873" transform="matrix(-1 0 0 1 1015 1020.32)" fill="white"/>
<ellipse cx="1123.9" cy="5.60634" rx="2.1781" ry="1.86873" fill="white"/>
<ellipse cx="1228.45" cy="241.066" rx="2.1781" ry="1.86873" fill="white"/>
<ellipse rx="2.1781" ry="1.86873" transform="matrix(-1 0 0 1 326.715 1037.14)" fill="white"/>
<ellipse rx="2.1781" ry="1.86873" transform="matrix(-1 0 0 1 102.371 583.042)" fill="white"/>
</g>
</svg>
