<svg width="1314" height="1284" viewBox="0 0 1314 1284" fill="none" xmlns="http://www.w3.org/2000/svg">
<g opacity="0.2">
<ellipse rx="7.51471" ry="5.78378" transform="matrix(-1 0 0 1 93.3974 802.294)" fill="#E77E42"/>
<ellipse cx="1201.28" cy="113.197" rx="7.51471" ry="5.78378" fill="#1BEAFF"/>
<ellipse rx="7.51471" ry="5.78378" transform="matrix(-1 0 0 1 273.75 456.919)" fill="#E77E42"/>
<ellipse cx="1149.75" cy="1117.92" rx="7.51471" ry="5.78378" fill="#E77E42"/>
<ellipse cx="769.72" cy="99.977" rx="5.36765" ry="4.13127" fill="white"/>
<ellipse rx="5.36765" ry="4.13127" transform="matrix(-1 0 0 1 1141.16 422.216)" fill="white"/>
<ellipse cx="282.338" cy="1083.22" rx="5.36765" ry="4.13127" fill="white"/>
<ellipse cx="1063.87" cy="86.7568" rx="5.36765" ry="4.13127" fill="white"/>
<ellipse rx="5.36765" ry="4.13127" transform="matrix(-1 0 0 1 497.044 389.166)" fill="white"/>
<ellipse cx="1128.28" cy="247.05" rx="5.36765" ry="4.13127" fill="white"/>
<ellipse rx="5.36765" ry="4.13127" transform="matrix(-1 0 0 1 46.1616 534.587)" fill="white"/>
<ellipse cx="967.25" cy="220.61" rx="7.51471" ry="5.78378" fill="#E77E42"/>
<ellipse rx="7.51471" ry="5.78378" transform="matrix(-1 0 0 1 550.721 1028.69)" fill="#E77E42"/>
<ellipse cx="74.0733" cy="266.88" rx="7.51471" ry="5.78378" fill="#1BEAFF"/>
<ellipse cx="965.103" cy="356.116" rx="5.36765" ry="4.13127" fill="#1BEAFF"/>
<ellipse cx="487.382" cy="102.456" rx="2.14706" ry="1.65251" fill="white"/>
<ellipse rx="2.14706" ry="1.65251" transform="matrix(-1 0 0 1 1120.77 535.413)" fill="white"/>
<ellipse cx="302.735" cy="1196.42" rx="2.14706" ry="1.65251" fill="white"/>
<ellipse cx="936.118" cy="1.65251" rx="2.14706" ry="1.65251" fill="white"/>
<ellipse rx="2.14706" ry="1.65251" transform="matrix(-1 0 0 1 1277.5 662.656)" fill="white"/>
<ellipse cx="1125.06" cy="1184.85" rx="2.14706" ry="1.65251" fill="white"/>
<ellipse rx="2.14706" ry="1.65251" transform="matrix(-1 0 0 1 1258.18 580.031)" fill="white"/>
<ellipse rx="2.14706" ry="1.65251" transform="matrix(-1 0 0 1 1028.44 963.413)" fill="white"/>
<ellipse cx="706.382" cy="366.857" rx="2.14706" ry="1.65251" fill="white"/>
<ellipse rx="2.14706" ry="1.65251" transform="matrix(-1 0 0 1 966.176 1027.86)" fill="white"/>
<ellipse cx="738.588" cy="348.68" rx="2.14706" ry="1.65251" fill="white"/>
<ellipse rx="2.14706" ry="1.65251" transform="matrix(-1 0 0 1 933.97 1009.68)" fill="white"/>
<ellipse cx="272.676" cy="209.869" rx="2.14706" ry="1.65251" fill="white"/>
<ellipse rx="2.14706" ry="1.65251" transform="matrix(-1 0 0 1 1245.29 870.872)" fill="white"/>
<ellipse rx="2.14706" ry="1.65251" transform="matrix(-1 0 0 1 281.265 846.085)" fill="white"/>
<ellipse rx="2.14706" ry="1.65251" transform="matrix(-1 0 0 1 2.14689 935.32)" fill="white"/>
<ellipse rx="2.14706" ry="1.65251" transform="matrix(-1 0 0 1 717.118 426.347)" fill="white"/>
<ellipse cx="1009.12" cy="299.104" rx="2.14706" ry="1.65251" fill="white"/>
<ellipse rx="2.14706" ry="1.65251" transform="matrix(-1 0 0 1 538.912 960.108)" fill="white"/>
<ellipse rx="2.14706" ry="1.65251" transform="matrix(-1 0 0 1 523.882 627.954)" fill="white"/>
<ellipse rx="2.14706" ry="1.65251" transform="matrix(-1 0 0 1 714.97 621.343)" fill="white"/>
<ellipse cx="957.588" cy="1282.35" rx="2.14706" ry="1.65251" fill="white"/>
<ellipse rx="2.14706" ry="1.65251" transform="matrix(-1 0 0 1 1054.21 624.649)" fill="white"/>
<ellipse rx="2.14706" ry="1.65251" transform="matrix(-1 0 0 1 1290.38 525.498)" fill="white"/>
<ellipse rx="2.14706" ry="1.65251" transform="matrix(-1 0 0 1 1311.85 495.753)" fill="white"/>
<ellipse rx="2.14706" ry="1.65251" transform="matrix(-1 0 0 1 521.736 543.676)" fill="white"/>
<ellipse rx="2.14706" ry="1.65251" transform="matrix(-1 0 0 1 983.353 546.981)" fill="white"/>
<ellipse cx="276.97" cy="74.363" rx="2.14706" ry="1.65251" fill="white"/>
<ellipse cx="272.676" cy="305.714" rx="2.14706" ry="1.65251" fill="white"/>
<ellipse rx="2.14706" ry="1.65251" transform="matrix(-1 0 0 1 1150.82 966.718)" fill="white"/>
<ellipse rx="2.14706" ry="1.65251" transform="matrix(-1 0 0 1 1017.71 656.046)" fill="white"/>
<ellipse cx="300.588" cy="1282.35" rx="2.14706" ry="1.65251" fill="white"/>
<ellipse cx="294.147" cy="1160.06" rx="2.14706" ry="1.65251" fill="white"/>
<ellipse rx="2.14706" ry="1.65251" transform="matrix(-1 0 0 1 1189.47 454.44)" fill="white"/>
<ellipse cx="974.765" cy="57.8381" rx="2.14706" ry="1.65251" fill="white"/>
<ellipse cx="1060.65" cy="163.598" rx="2.14706" ry="1.65251" fill="white"/>
<ellipse rx="2.14706" ry="1.65251" transform="matrix(-1 0 0 1 532.471 836.17)" fill="white"/>
<ellipse rx="2.14706" ry="1.65251" transform="matrix(-1 0 0 1 500.265 466.007)" fill="white"/>
<ellipse cx="1047.76" cy="1127.01" rx="2.14706" ry="1.65251" fill="white"/>
<ellipse cx="1132.57" cy="328.023" rx="5.36765" ry="4.13127" fill="white"/>
<ellipse rx="5.36765" ry="4.13127" transform="matrix(-1 0 0 1 250.132 982.417)" fill="white"/>
<ellipse cx="695.647" cy="166.903" rx="2.14706" ry="1.65251" fill="white"/>
<ellipse rx="2.14706" ry="1.65251" transform="matrix(-1 0 0 1 976.912 827.907)" fill="white"/>
<ellipse rx="2.14706" ry="1.65251" transform="matrix(-1 0 0 1 968.324 442.873)" fill="white"/>
<ellipse cx="783.676" cy="236.309" rx="2.14706" ry="1.65251" fill="white"/>
<ellipse rx="2.14706" ry="1.65251" transform="matrix(-1 0 0 1 777.235 897.313)" fill="white"/>
<ellipse rx="2.14706" ry="1.65251" transform="matrix(-1 0 0 1 790.118 538.718)" fill="white"/>
<ellipse cx="770.794" cy="1199.72" rx="2.14706" ry="1.65251" fill="white"/>
<ellipse cx="1238.85" cy="26.4402" rx="2.14706" ry="1.65251" fill="white"/>
<ellipse cx="1286.09" cy="143.768" rx="2.14706" ry="1.65251" fill="white"/>
<ellipse cx="1260.32" cy="1107.18" rx="2.14706" ry="1.65251" fill="white"/>
<ellipse rx="2.14706" ry="1.65251" transform="matrix(-1 0 0 1 985.5 773.375)" fill="white"/>
<ellipse cx="1135.79" cy="95.8456" rx="2.14706" ry="1.65251" fill="white"/>
<ellipse rx="2.14706" ry="1.65251" transform="matrix(-1 0 0 1 103.059 370.162)" fill="white"/>
<ellipse cx="1208.79" cy="1279.04" rx="2.14706" ry="1.65251" fill="white"/>
<ellipse cx="1176.59" cy="271.012" rx="2.14706" ry="1.65251" fill="white"/>
<ellipse cx="568.97" cy="46.2702" rx="2.14706" ry="1.65251" fill="white"/>
<ellipse cx="547.5" cy="241.266" rx="2.14706" ry="1.65251" fill="white"/>
<ellipse rx="2.14706" ry="1.65251" transform="matrix(-1 0 0 1 1000.53 902.27)" fill="white"/>
<ellipse cx="1107.88" cy="4.95756" rx="2.14706" ry="1.65251" fill="white"/>
<ellipse cx="1210.94" cy="213.174" rx="2.14706" ry="1.65251" fill="white"/>
<ellipse rx="2.14706" ry="1.65251" transform="matrix(-1 0 0 1 322.059 917.143)" fill="white"/>
<ellipse rx="2.14706" ry="1.65251" transform="matrix(-1 0 0 1 100.912 515.583)" fill="white"/>
</g>
</svg>
