<svg width="1327" height="1690" viewBox="0 0 1327 1690" fill="none" xmlns="http://www.w3.org/2000/svg">
<g opacity="0.2">
<ellipse rx="7.76062" ry="7.84234" transform="matrix(-1 0 0 1 66.4532 1087.84)" fill="#E77E42"/>
<ellipse cx="1210.59" cy="153.486" rx="7.76062" ry="7.84234" fill="#1BEAFF"/>
<ellipse rx="7.76062" ry="7.84234" transform="matrix(-1 0 0 1 252.708 619.545)" fill="#E77E42"/>
<ellipse cx="1157.37" cy="1515.81" rx="7.76062" ry="7.84234" fill="#E77E42"/>
<ellipse cx="764.909" cy="135.561" rx="5.5433" ry="5.60167" fill="white"/>
<ellipse rx="5.5433" ry="5.60167" transform="matrix(-1 0 0 1 1148.51 572.491)" fill="white"/>
<ellipse cx="261.577" cy="1468.76" rx="5.5433" ry="5.60167" fill="white"/>
<ellipse cx="1068.68" cy="117.635" rx="5.5433" ry="5.60167" fill="white"/>
<ellipse rx="5.5433" ry="5.60167" transform="matrix(-1 0 0 1 483.309 527.677)" fill="white"/>
<ellipse cx="1135.2" cy="334.98" rx="5.5433" ry="5.60167" fill="white"/>
<ellipse rx="5.5433" ry="5.60167" transform="matrix(-1 0 0 1 17.6725 724.856)" fill="white"/>
<ellipse cx="968.903" cy="299.13" rx="7.76062" ry="7.84234" fill="#E77E42"/>
<ellipse rx="7.76062" ry="7.84234" transform="matrix(-1 0 0 1 538.742 1394.82)" fill="#E77E42"/>
<ellipse cx="46.4969" cy="361.868" rx="7.76062" ry="7.84234" fill="#1BEAFF"/>
<ellipse cx="33.1932" cy="1683.86" rx="7.76062" ry="7.84234" fill="#1BEAFF"/>
<ellipse cx="966.686" cy="482.864" rx="5.5433" ry="5.60167" fill="#1BEAFF"/>
<ellipse cx="473.332" cy="138.922" rx="2.21732" ry="2.24067" fill="white"/>
<ellipse rx="2.21732" ry="2.24067" transform="matrix(-1 0 0 1 1127.44 725.976)" fill="white"/>
<ellipse cx="282.642" cy="1622.24" rx="2.21732" ry="2.24067" fill="white"/>
<ellipse cx="936.752" cy="2.24067" rx="2.21732" ry="2.24067" fill="white"/>
<ellipse rx="2.21732" ry="2.24067" transform="matrix(-1 0 0 1 1289.31 898.508)" fill="white"/>
<ellipse cx="1131.88" cy="1606.56" rx="2.21732" ry="2.24067" fill="white"/>
<ellipse rx="2.21732" ry="2.24067" transform="matrix(-1 0 0 1 1269.35 786.475)" fill="white"/>
<ellipse rx="2.21732" ry="2.24067" transform="matrix(-1 0 0 1 1032.1 1306.31)" fill="white"/>
<ellipse cx="699.499" cy="497.428" rx="2.21732" ry="2.24067" fill="white"/>
<ellipse rx="2.21732" ry="2.24067" transform="matrix(-1 0 0 1 967.794 1393.7)" fill="white"/>
<ellipse cx="732.758" cy="472.781" rx="2.21732" ry="2.24067" fill="white"/>
<ellipse rx="2.21732" ry="2.24067" transform="matrix(-1 0 0 1 934.535 1369.05)" fill="white"/>
<ellipse cx="251.6" cy="284.565" rx="2.21732" ry="2.24067" fill="white"/>
<ellipse rx="2.21732" ry="2.24067" transform="matrix(-1 0 0 1 1256.05 1180.83)" fill="white"/>
<ellipse rx="2.21732" ry="2.24067" transform="matrix(-1 0 0 1 260.469 1147.22)" fill="white"/>
<ellipse rx="2.21732" ry="2.24067" transform="matrix(-1 0 0 1 710.584 578.092)" fill="white"/>
<ellipse cx="1012.14" cy="405.561" rx="2.21732" ry="2.24067" fill="white"/>
<ellipse rx="2.21732" ry="2.24067" transform="matrix(-1 0 0 1 526.547 1301.83)" fill="white"/>
<ellipse rx="2.21732" ry="2.24067" transform="matrix(-1 0 0 1 511.026 851.455)" fill="white"/>
<ellipse rx="2.21732" ry="2.24067" transform="matrix(-1 0 0 1 708.368 842.492)" fill="white"/>
<ellipse rx="2.21732" ry="2.24067" transform="matrix(-1 0 0 1 1058.7 846.973)" fill="white"/>
<ellipse rx="2.21732" ry="2.24067" transform="matrix(-1 0 0 1 1302.61 712.532)" fill="white"/>
<ellipse rx="2.21732" ry="2.24067" transform="matrix(-1 0 0 1 1324.78 672.2)" fill="white"/>
<ellipse rx="2.21732" ry="2.24067" transform="matrix(-1 0 0 1 508.809 737.18)" fill="white"/>
<ellipse rx="2.21732" ry="2.24067" transform="matrix(-1 0 0 1 985.533 741.661)" fill="white"/>
<ellipse cx="256.035" cy="100.83" rx="2.21732" ry="2.24067" fill="white"/>
<ellipse cx="251.6" cy="414.524" rx="2.21732" ry="2.24067" fill="white"/>
<ellipse rx="2.21732" ry="2.24067" transform="matrix(-1 0 0 1 1158.48 1310.79)" fill="white"/>
<ellipse rx="2.21732" ry="2.24067" transform="matrix(-1 0 0 1 1021.01 889.545)" fill="white"/>
<ellipse cx="273.773" cy="1572.95" rx="2.21732" ry="2.24067" fill="white"/>
<ellipse rx="2.21732" ry="2.24067" transform="matrix(-1 0 0 1 1198.4 616.184)" fill="white"/>
<ellipse cx="976.664" cy="78.4235" rx="2.21732" ry="2.24067" fill="white"/>
<ellipse cx="1065.36" cy="221.826" rx="2.21732" ry="2.24067" fill="white"/>
<ellipse rx="2.21732" ry="2.24067" transform="matrix(-1 0 0 1 519.896 1133.78)" fill="white"/>
<ellipse rx="2.21732" ry="2.24067" transform="matrix(-1 0 0 1 486.635 631.868)" fill="white"/>
<ellipse cx="1052.05" cy="1528.14" rx="2.21732" ry="2.24067" fill="white"/>
<ellipse cx="1139.64" cy="444.773" rx="5.5433" ry="5.60167" fill="white"/>
<ellipse rx="5.5433" ry="5.60167" transform="matrix(-1 0 0 1 228.318 1332.08)" fill="white"/>
<ellipse cx="688.412" cy="226.308" rx="2.21732" ry="2.24067" fill="white"/>
<ellipse rx="2.21732" ry="2.24067" transform="matrix(-1 0 0 1 978.88 1122.57)" fill="white"/>
<ellipse rx="2.21732" ry="2.24067" transform="matrix(-1 0 0 1 970.011 600.499)" fill="white"/>
<ellipse cx="779.322" cy="320.416" rx="2.21732" ry="2.24067" fill="white"/>
<ellipse rx="2.21732" ry="2.24067" transform="matrix(-1 0 0 1 772.669 1216.68)" fill="white"/>
<ellipse rx="2.21732" ry="2.24067" transform="matrix(-1 0 0 1 785.974 730.459)" fill="white"/>
<ellipse cx="766.018" cy="1626.73" rx="2.21732" ry="2.24067" fill="white"/>
<ellipse cx="1249.39" cy="35.8509" rx="2.21732" ry="2.24067" fill="white"/>
<ellipse cx="1298.17" cy="194.938" rx="2.21732" ry="2.24067" fill="white"/>
<ellipse cx="1271.57" cy="1501.25" rx="2.21732" ry="2.24067" fill="white"/>
<ellipse rx="2.21732" ry="2.24067" transform="matrix(-1 0 0 1 987.749 1048.63)" fill="white"/>
<ellipse cx="1142.96" cy="129.959" rx="2.21732" ry="2.24067" fill="white"/>
<ellipse rx="2.21732" ry="2.24067" transform="matrix(-1 0 0 1 76.4311 501.91)" fill="white"/>
<ellipse cx="1185.09" cy="367.47" rx="2.21732" ry="2.24067" fill="white"/>
<ellipse cx="557.59" cy="62.739" rx="2.21732" ry="2.24067" fill="white"/>
<ellipse cx="535.417" cy="327.138" rx="2.21732" ry="2.24067" fill="white"/>
<ellipse rx="2.21732" ry="2.24067" transform="matrix(-1 0 0 1 1003.27 1223.41)" fill="white"/>
<ellipse cx="1114.14" cy="6.72181" rx="2.21732" ry="2.24067" fill="white"/>
<ellipse cx="1220.57" cy="289.046" rx="2.21732" ry="2.24067" fill="white"/>
<ellipse rx="2.21732" ry="2.24067" transform="matrix(-1 0 0 1 302.598 1243.57)" fill="white"/>
<ellipse rx="2.21732" ry="2.24067" transform="matrix(-1 0 0 1 74.2143 699.088)" fill="white"/>
</g>
</svg>
