<svg width="1334" height="1171" viewBox="0 0 1334 1171" fill="none" xmlns="http://www.w3.org/2000/svg">
<g opacity="0.5">
<path d="M619.502 937.813C614.53 939.989 609.489 941.648 604.437 942.768C593.842 945.115 583.103 945.114 572.52 942.764C561.145 940.24 549.831 934.969 538.891 927.1C516.902 911.282 499.387 888.481 482.447 866.431C479.12 862.101 475.681 857.624 472.287 853.305C449.148 823.869 425.507 799.56 400.015 778.99C349.162 737.954 290.498 709.614 230.362 697.032C160.816 682.484 95.5744 688.626 46.655 714.328C17.9031 729.435 -12.4895 766.757 -14.9486 808.859C-16.4076 833.846 -7.32292 856.891 11.3235 875.499L11.1899 875.67C1.4119 865.911 -5.77055 854.981 -10.1563 843.182C-14.1795 832.359 -15.8654 820.796 -15.1655 808.814C-14.0528 789.756 -7.01505 770.217 5.18677 752.307C16.4625 735.759 31.149 722.193 46.5435 714.104C72.1453 700.655 102.082 692.541 135.524 689.99C165.839 687.679 197.752 689.967 230.376 696.792C290.547 709.379 349.245 737.735 400.127 778.795C425.634 799.381 449.288 823.703 472.441 853.154C475.837 857.472 479.277 861.951 482.602 866.282C499.528 888.317 517.032 911.102 538.989 926.895C560.226 942.172 582.224 947.43 604.369 942.523C635.037 935.729 664.235 909.095 682.469 871.276C708.746 816.778 714.957 751.471 720.965 688.315C722.018 677.245 723.106 665.799 724.283 654.691C727.334 625.848 732.058 588.136 741.567 552.22C751.287 515.508 764.52 485.87 782.022 461.61C792.734 446.76 805.528 434.315 820.048 424.622C833.459 415.667 848.784 408.77 865.595 404.118C894.432 396.14 928.478 394.351 969.678 398.646C1050.8 407.107 1135.31 423.486 1220.85 447.33C1302.15 469.993 1385.12 499.591 1467.44 535.298L1467.38 535.522C1296.74 461.503 1129.29 415.532 969.682 398.887C879.509 389.483 819.934 409.465 782.197 461.773C743.803 514.988 731.776 585.968 724.497 654.745C723.321 665.85 722.233 677.296 721.18 688.367C715.172 751.543 708.959 816.87 682.663 871.407C674.166 889.031 662.845 904.831 649.925 917.097C643.1 923.577 635.879 929.021 628.46 933.28C625.507 934.984 622.517 936.494 619.502 937.813Z" fill="white" fill-opacity="0.3"/>
<path d="M618.825 923.024C606.145 928.573 593.158 930.875 580.21 929.869C565.773 928.748 551.438 923.492 537.604 914.253C536.379 913.434 535.144 912.574 533.929 911.694C512.115 895.91 494.465 873.565 477.396 851.953C473.945 847.586 470.378 843.068 466.857 838.71C445.892 812.761 424.811 791.03 402.408 772.281C399.65 769.973 396.836 767.681 394.043 765.472C342.984 725.071 284.256 697.442 224.206 685.572C154.559 671.836 89.4965 678.826 41.0038 705.257C12.6702 720.733 -17.3973 758.306 -20.0471 800.176C-21.6337 825.249 -12.8832 848.494 5.25522 867.402L5.11781 867.57C-4.38934 857.66 -11.3508 846.606 -15.5694 834.718C-19.4438 823.8 -21.0242 812.164 -20.264 800.131C-19.0586 781.065 -12.0663 761.527 -0.0459082 743.632C11.0637 727.092 25.6 713.387 40.8876 705.038C66.2796 691.199 96.0724 682.671 129.437 679.691C159.658 676.993 191.547 678.892 224.217 685.336C284.302 697.212 343.063 724.859 394.152 765.281C396.946 767.493 399.763 769.786 402.522 772.096C424.94 790.858 446.033 812.6 467.008 838.563C470.531 842.92 474.098 847.438 477.55 851.807C494.61 873.404 512.247 895.734 534.03 911.496C535.241 912.372 536.477 913.232 537.699 914.05C566.29 933.151 594.347 933.735 618.885 922.998C619.02 922.939 619.152 922.881 619.287 922.822C619.132 922.887 618.979 922.957 618.825 923.024ZM623.99 920.575C646.2 909.217 665.232 888.615 678.721 864.454C707.757 812.201 716.632 747.236 725.216 684.411C725.568 681.822 725.923 679.237 726.277 676.653C727.056 670.979 727.982 664.26 728.957 657.469C733.335 627.012 739.123 591.269 748.857 557.119C759.213 520.781 772.56 491.338 789.66 467.105C800.171 452.225 812.609 439.539 826.63 429.402C839.621 420.009 854.404 412.492 870.562 407.062C898.479 397.682 931.325 394.062 970.978 395.996C1009.63 397.856 1042.22 401.266 1073.55 406.725C1117.94 414.482 1162.22 426.426 1199.68 437.084C1286.84 462.017 1375.92 494.649 1464.47 534.075L1464.42 534.297C1375.88 494.877 1286.8 462.247 1199.65 437.318C1162.2 426.66 1117.93 414.718 1073.55 406.965C1042.22 401.507 1009.64 398.099 970.998 396.24C884.616 392.027 827.048 414.596 789.837 467.27C751.231 521.973 738.281 594.164 729.173 657.537C728.196 664.329 727.27 671.044 726.492 676.72C726.137 679.303 725.784 681.889 725.431 684.478C716.844 747.324 707.966 812.311 678.91 864.603C671.689 877.534 663.039 889.082 653.195 898.924C644.03 908.081 634.226 915.348 623.99 920.575Z" fill="white" fill-opacity="0.3"/>
<path d="M618.77 908.308C617.245 908.975 615.712 909.6 614.173 910.179C601.216 915.065 587.997 916.78 574.882 915.27C560.539 913.62 546.322 908.1 532.628 898.861C531.41 898.037 530.177 897.173 528.966 896.291C507.339 880.55 489.56 858.662 472.371 837.496C468.788 833.084 465.082 828.522 461.424 824.122C440.105 798.447 418.859 777.036 396.468 758.666C393.698 756.396 390.873 754.139 388.066 751.962C336.803 712.198 278.01 685.282 218.047 674.122C148.301 661.197 83.4157 669.033 35.3478 696.194C8.30356 711.532 -22.1618 747.886 -25.145 791.456C-26.8687 816.629 -18.455 840.094 -0.81489 859.315L-0.957175 859.477C-10.1993 849.407 -16.938 838.224 -20.9904 826.239C-24.718 815.216 -26.1872 803.499 -25.3599 791.41C-24.0541 772.343 -17.106 752.819 -5.26712 734.945C5.67743 718.42 20.0617 704.582 35.2326 695.977C60.4178 681.749 90.0653 672.805 123.35 669.397C153.48 666.313 185.343 667.822 218.058 673.886C278.057 685.054 336.882 711.986 388.175 751.772C390.983 753.951 393.81 756.207 396.582 758.482C418.985 776.863 440.243 798.287 461.573 823.976C465.232 828.378 468.938 832.941 472.521 837.352C489.703 858.505 507.468 880.378 529.069 896.101C530.28 896.983 531.508 897.846 532.724 898.666C588.368 936.206 644.26 905.105 674.966 857.632C707.101 807.509 718.812 742.448 730.138 679.529L730.254 678.883C731.349 672.786 732.483 666.483 733.628 660.247C745.715 594.464 760.588 525.787 797.294 472.597C807.607 457.682 819.692 444.755 833.211 434.178C845.786 424.339 860.024 416.204 875.528 410.002C902.56 399.186 934.206 393.736 972.276 393.341C1012.26 392.874 1043.4 394.904 1073.23 399.927C1115.75 407.127 1159.73 420.49 1198.53 432.281C1285.06 458.821 1373.54 492.656 1461.5 532.842L1461.44 533.063C1373.48 492.881 1285.02 459.051 1198.5 432.511C1159.7 420.724 1115.73 407.362 1073.22 400.165C1043.4 395.143 1012.28 393.113 972.303 393.579C889.781 394.438 834.227 419.596 797.468 472.755C760.787 525.91 745.919 594.558 733.837 660.317C732.692 666.553 731.56 672.858 730.464 678.953L730.347 679.599C724.703 710.954 718.867 743.374 710.517 773.706C701.133 807.793 689.562 835.295 675.143 857.784C660.003 881.188 640.132 898.96 618.77 908.308Z" fill="white" fill-opacity="0.3"/>
<path d="M1458.47 531.821C1371.09 490.88 1283.24 455.849 1197.36 427.701C1193.72 426.526 1190.08 425.342 1186.43 424.155C1149.28 412.073 1110.86 399.579 1072.9 393.36C1036.1 387.377 1002.06 388.767 973.62 390.916C895.045 396.699 841.501 424.446 805.11 478.234C767.795 533.547 751.558 605.377 738.514 663.095C737.731 666.559 736.954 670.026 736.174 673.497C735.599 676.06 735.022 678.623 734.444 681.184C727.028 714.073 720.112 743.602 710.598 771.949C699.729 804.332 686.904 830.177 671.387 850.964C656.845 870.447 638.714 885.322 619.478 893.741C615.973 895.275 612.436 896.594 608.872 897.687C595.86 901.682 582.637 902.692 569.572 900.69C555.316 898.506 541.214 892.712 527.652 883.472C526.439 882.643 525.211 881.774 524.003 880.889C502.57 865.194 484.677 843.773 467.376 823.058C463.649 818.596 459.794 813.98 455.989 809.529C434.306 784.123 412.893 763.031 390.528 745.043C387.745 742.805 384.906 740.586 382.089 738.444C330.618 699.317 271.763 673.112 211.887 662.66C142.043 650.546 77.3392 659.232 29.6931 687.116C-2.84431 706.258 -27.4869 745.553 -30.2354 782.673C-32.1077 807.961 -24.0317 831.661 -6.8848 851.21L-7.03099 851.368C-16.0091 841.132 -22.5309 829.811 -26.4154 817.718C-29.9925 806.583 -31.3495 794.777 -30.4514 782.624C-29.0411 763.565 -22.1354 744.06 -10.4787 726.22C0.301846 709.719 14.5254 695.754 29.5759 686.9C54.5533 672.281 84.0546 662.924 117.259 659.088C147.297 655.618 179.139 656.739 211.897 662.419C271.809 672.876 330.696 699.097 382.198 738.248C385.018 740.392 387.858 742.613 390.641 744.851C413.02 762.849 434.443 783.953 456.137 809.369C459.943 813.824 463.797 818.437 467.525 822.901C484.817 843.604 502.699 865.011 524.105 880.688C525.312 881.571 526.537 882.438 527.748 883.266C586.081 923.013 641.49 890.614 671.214 850.795C706.676 803.285 721.317 738.372 734.235 681.098C734.812 678.534 735.386 675.972 735.964 673.411C736.742 669.941 737.521 666.473 738.304 663.009C745.751 630.063 753.276 597.921 763.434 566.892C775.115 531.208 788.691 502.156 804.935 478.074C815.053 463.118 826.781 449.951 839.797 438.942C851.961 428.65 865.656 419.899 880.502 412.929C906.683 400.638 937.132 393.358 973.582 390.673C1002.03 388.526 1036.09 387.135 1072.91 393.122C1110.88 399.342 1149.31 411.84 1186.47 423.924C1190.12 425.112 1193.77 426.295 1197.4 427.47C1283.29 455.62 1371.15 490.655 1458.54 531.601L1458.47 531.821Z" fill="white" fill-opacity="0.3"/>
<path d="M1455.5 530.584C1367.05 488.093 1279.81 451.858 1196.21 422.892C1191.2 421.16 1186.07 419.361 1181.12 417.623C1145.6 405.176 1108.87 392.303 1072.58 386.557C1036.37 380.883 1002.9 384.229 974.93 388.252C900.407 398.784 848.871 429.119 812.747 483.716C778.34 535.906 761.208 599.242 744.639 660.493L742.819 667.217C741.383 672.53 739.896 678.02 738.422 683.414C721.702 744.42 703.707 802.615 667.625 844.142C658.87 854.219 649.114 862.817 638.628 869.703C627.366 877.095 615.56 882.296 603.536 885.16C590.476 888.271 577.258 888.584 564.249 886.091C550.092 883.379 536.104 877.318 522.677 868.077C521.465 867.24 520.241 866.366 519.04 865.48C497.812 849.845 479.82 828.898 462.42 808.64C458.538 804.12 454.521 799.446 450.558 794.934C428.503 769.8 406.925 749.024 384.591 731.421C381.8 729.222 378.948 727.036 376.116 724.927C324.44 686.436 265.523 660.943 205.73 651.201C135.787 639.902 71.2611 649.434 24.0369 678.047C-7.96539 697.558 -32.3751 736.951 -35.3192 773.844C-37.3495 799.264 -29.6158 823.218 -12.9551 843.117L-13.1052 843.272C-21.8234 832.86 -28.1283 821.39 -31.8448 809.183C-35.2705 797.928 -36.5127 786.023 -35.536 773.798C-34.0145 754.753 -27.149 735.281 -15.6793 717.485C-5.06465 701.013 8.9983 686.933 23.9169 677.835C48.6874 662.827 78.0415 653.056 111.168 648.79C141.115 644.935 172.931 645.665 205.735 650.965C265.561 660.711 324.513 686.221 376.219 724.734C379.052 726.845 381.907 729.032 384.698 731.231C407.045 748.842 428.635 769.629 450.7 794.778C454.664 799.289 458.681 803.966 462.564 808.486C479.953 828.732 497.937 849.669 519.141 865.286C520.338 866.168 521.56 867.039 522.771 867.877C579.944 907.224 635 881.326 667.459 843.967C703.513 802.474 721.499 744.302 738.212 683.322C739.686 677.929 741.173 672.438 742.61 667.126L744.43 660.401C752.564 630.336 760.972 599.246 771.672 569.065C783.792 534.883 797.169 506.914 812.564 483.559C822.491 468.555 833.867 455.147 846.373 443.711C858.131 432.959 871.283 423.589 885.463 415.862C910.836 402.037 940.081 392.93 974.876 388.012C1002.86 383.988 1036.35 380.638 1072.58 386.319C1108.89 392.066 1145.63 404.941 1181.15 417.393C1186.11 419.131 1191.24 420.928 1196.25 422.662C1279.86 451.63 1367.1 487.867 1455.56 530.364L1455.5 530.584Z" fill="white" fill-opacity="0.3"/>
<path d="M1452.53 529.347C1364.25 485.877 1277.63 448.443 1195.06 418.085C1188.85 415.804 1182.46 413.404 1176.29 411.084C1142.24 398.294 1107.03 385.068 1072.26 379.758C1036.32 374.337 1003.56 379.664 976.244 385.592C905.892 400.644 856.367 433.568 820.385 489.202C789.038 537.877 770.955 595.332 753.465 650.896C751.625 656.743 749.721 662.788 747.855 668.654C745.665 675.544 743.982 680.786 742.399 685.648C733.916 711.678 723.494 741.936 710.503 768.995C696.736 797.668 681.481 820.019 663.866 837.326C654.603 846.427 644.475 854.043 633.759 859.96C622.254 866.314 610.289 870.58 598.198 872.636C585.098 874.864 571.886 874.48 558.926 871.497C544.873 868.263 531.003 861.931 517.702 852.685C516.5 851.845 515.28 850.968 514.078 850.077C493.071 834.511 474.994 814.046 457.51 794.256C453.455 789.666 449.263 784.92 445.125 780.34C422.688 755.469 400.946 735.013 378.651 717.8C375.848 715.636 372.985 713.487 370.139 711.411C318.259 673.557 259.277 648.775 199.57 639.742C129.531 629.256 65.1845 639.638 18.3822 668.974C-8.20779 685.759 -36.6943 721.947 -40.3962 764.954C-42.597 790.524 -35.2083 814.753 -19.027 835.019L-19.1801 835.167C-27.6421 824.57 -33.7293 812.942 -37.2752 800.607C-40.5477 789.221 -41.6711 777.21 -40.6113 764.903C-38.9736 745.882 -32.1462 726.454 -20.8653 708.713C-10.4136 692.278 3.48117 678.091 18.2611 668.76C42.8248 653.363 72.0336 643.176 105.079 638.482C134.933 634.242 166.725 634.584 199.574 639.503C259.314 648.541 318.33 673.337 370.241 711.213C373.086 713.289 375.953 715.442 378.758 717.608C401.063 734.83 422.817 755.297 445.265 780.179C449.406 784.761 453.598 789.506 457.654 794.096C475.127 813.878 493.196 834.33 514.18 849.879C515.38 850.768 516.598 851.643 517.798 852.481C565.573 885.697 620.121 879.96 663.711 837.133C703.186 798.35 724.127 740.978 742.193 685.539C743.777 680.677 745.457 675.435 747.648 668.546C749.513 662.679 751.418 656.634 753.257 650.787C761.867 623.434 770.769 595.149 781.432 567.646C793.488 536.544 806.171 510.831 820.205 489.042C829.948 473.978 840.966 460.33 852.958 448.478C864.316 437.252 876.925 427.266 890.433 418.794C915.029 403.371 943.077 392.432 976.177 385.349C1003.5 379.42 1036.29 374.086 1072.26 379.513C1107.06 384.827 1142.27 398.056 1176.33 410.85C1182.51 413.17 1188.89 415.57 1195.1 417.851C1277.67 448.214 1364.31 485.65 1452.59 529.122L1452.53 529.347Z" fill="white" fill-opacity="0.3"/>
<path d="M1449.56 528.111C1361.45 483.658 1275.44 445.021 1193.91 413.278C1186.97 410.579 1179.8 407.696 1172.87 404.911C1139.83 391.64 1105.68 377.918 1071.94 372.957C1036.07 367.756 1004.1 375.079 977.557 382.928C912.431 401.953 863.517 438.51 828.021 494.685C799.813 539.538 781.369 591.099 763.534 640.964C759.93 651.036 756.207 661.451 752.525 671.436C750.273 677.547 748.263 682.927 746.376 687.884C737.592 710.921 725.568 740.792 710.447 767.52C695.254 794.375 678.786 814.98 660.103 830.511C639.726 847.452 616.469 857.687 592.852 860.114C579.72 861.462 566.513 860.383 553.599 856.906C539.655 853.153 525.904 846.554 512.726 837.299C511.529 836.455 510.313 835.573 509.116 834.68C488.347 819.199 470.202 799.229 452.658 779.918C448.413 775.247 444.026 770.417 439.692 765.755C416.864 741.147 394.955 721.007 372.714 704.187C369.898 702.058 367.022 699.944 364.165 697.903C312.079 660.686 253.034 636.613 193.415 628.293C123.28 618.622 59.1129 629.853 12.7305 659.912C-18.6503 680.404 -42.036 719.026 -45.4612 756.013C-47.8448 781.752 -40.8019 806.274 -25.0938 826.93L-25.2518 827.072C-33.4608 816.279 -39.3333 804.482 -42.7067 792.011C-45.825 780.485 -46.8241 768.355 -45.6772 755.959C-43.9194 736.972 -37.1283 717.597 -26.0379 699.929C-15.7508 683.542 -2.02718 669.252 12.6046 659.698C36.9615 643.912 66.0259 633.311 98.9904 628.187C128.753 623.561 160.522 623.514 193.414 628.051C253.069 636.378 312.147 660.462 364.265 697.703C367.123 699.744 369.999 701.86 372.818 703.991C395.071 720.821 416.991 740.97 439.831 765.589C444.165 770.251 448.553 775.083 452.797 779.755C470.333 799.056 488.468 819.016 509.217 834.482C510.414 835.375 511.626 836.253 512.823 837.098C559.99 870.23 614.994 867.692 659.961 830.312C700.954 796.233 725.623 741.662 746.175 687.77C748.06 682.814 750.073 677.435 752.323 671.325C756.003 661.341 759.729 650.927 763.331 640.856C781.171 590.981 799.616 539.409 827.839 494.536C837.405 479.396 848.071 465.51 859.539 453.257C870.509 441.54 882.574 430.936 895.4 421.738C919.254 404.634 946.102 391.865 977.477 382.699C1004.04 374.844 1036.04 367.513 1071.94 372.721C1105.7 377.685 1139.87 391.412 1172.92 404.689C1179.85 407.474 1187.02 410.355 1193.96 413.054C1275.5 444.8 1361.52 483.439 1449.63 527.894L1449.56 528.111Z" fill="white" fill-opacity="0.3"/>
<path d="M1446.59 526.873C1358.66 481.428 1273.26 441.592 1192.76 408.471C1185.36 405.426 1177.68 402.137 1170.26 398.954C1137.97 385.122 1104.59 370.816 1071.62 366.156C1035.7 361.156 1004.57 370.483 978.867 380.267C918.189 403.112 871.344 442.332 835.658 500.169C810.684 540.849 792.509 586.455 774.931 630.56C768.888 645.725 763.179 660.051 757.195 674.215C754.762 679.98 752.526 685.182 750.353 690.116C736.326 721.936 723.628 746.06 710.39 766.037C693.782 791.099 676.103 809.959 656.342 823.691C648.675 829.018 640.676 833.501 632.468 837.092C617.917 843.459 602.707 847.034 587.504 847.583C559.99 848.577 533.158 839.937 507.749 821.904C506.55 821.048 505.34 820.163 504.152 819.271C483.64 803.89 465.456 784.434 447.871 765.615C443.415 760.847 438.81 755.919 434.258 751.158C411.027 726.807 388.951 706.988 366.775 690.563C363.947 688.469 361.059 686.39 358.19 684.384C305.899 647.803 246.79 624.443 187.256 616.831C117.027 607.976 53.0392 620.053 7.07673 650.836C-24.2001 671.948 -46.8084 709.69 -50.5164 746.99C-53.0952 772.916 -46.4017 797.757 -31.1627 818.828L-31.3246 818.966C-39.2816 807.963 -44.9396 795.986 -48.1397 783.367C-51.1011 771.686 -51.9739 759.43 -50.7305 746.935C-48.8476 727.993 -42.0924 708.688 -31.1944 691.104C-21.072 674.77 -7.52507 660.396 6.94996 650.625C31.0999 634.45 60.0191 623.433 92.9019 617.881C122.575 612.872 154.319 612.438 187.255 616.589C246.824 624.207 305.966 647.579 358.289 684.181C361.16 686.19 364.047 688.269 366.878 690.364C389.067 706.797 411.155 726.628 434.395 750.988C438.946 755.748 443.554 760.679 448.008 765.447C465.585 784.256 483.761 803.706 504.255 819.073C505.442 819.962 506.65 820.848 507.849 821.702C555.296 855.379 609.372 856.028 656.21 823.479C700.797 792.495 728.719 738.613 750.155 689.988C752.325 685.054 754.563 679.854 756.996 674.09C762.977 659.926 768.688 645.603 774.731 630.437C792.31 586.325 810.491 540.71 835.474 500.015C844.876 484.778 855.187 470.651 866.122 458.022C876.713 445.793 888.235 434.569 900.368 424.668C923.508 405.786 949.156 391.186 978.775 380.035C1004.5 370.242 1035.65 360.908 1071.62 365.914C1104.61 370.576 1138.01 384.889 1170.31 398.727C1177.74 401.909 1185.42 405.199 1192.81 408.242C1273.31 441.366 1358.72 481.207 1446.65 526.655L1446.59 526.873Z" fill="white" fill-opacity="0.3"/>
<path d="M1443.61 525.636C1354.62 478.538 1272.19 438.64 1191.61 403.662C1183.92 400.326 1176.26 396.833 1168.15 393.137C1136.45 378.685 1103.67 363.744 1071.29 359.356C1035.02 354.518 1003.55 366.567 980.179 377.605C924.184 403.799 879.409 445.685 843.296 505.657C821.676 541.746 804.43 581.272 787.752 619.498C778.986 639.589 770.706 658.561 761.864 676.999C759.241 682.475 756.774 687.498 754.328 692.352C739.152 722.415 725.171 745.356 710.326 764.553C692.309 787.855 673.419 804.968 652.578 816.873C641.869 822.989 630.613 827.645 619.123 830.712C606.957 833.959 594.517 835.419 582.152 835.052C554.744 834.238 528.039 824.638 502.775 806.515C501.58 805.653 500.374 804.764 499.19 803.871C478.965 788.615 460.769 769.686 443.172 751.381C438.477 746.497 433.622 741.447 428.827 736.569C405.181 712.475 382.941 692.973 360.837 676.947C357.995 674.889 355.095 672.845 352.217 670.872C299.721 634.927 240.549 612.279 181.101 605.376C126.277 599.111 75.4013 605.587 34.0644 623.675C22.3783 628.788 11.463 634.825 1.42548 641.768C-29.2448 663.15 -51.6107 700.886 -55.5572 737.908C-58.3416 764.04 -52.004 789.225 -37.2301 810.736L-37.3968 810.868C-45.1069 799.644 -50.5495 787.473 -53.5734 774.696C-56.3771 762.852 -57.117 750.455 -55.7742 737.852C-53.7613 718.966 -47.041 699.743 -36.3382 682.258C-26.2359 665.752 -13.222 651.679 1.2939 641.561C25.237 624.997 54.0119 613.567 86.814 607.585C116.393 602.188 148.115 601.363 181.096 605.133C240.578 612.04 299.784 634.7 352.312 670.666C355.192 672.638 358.095 674.683 360.938 676.744C383.053 692.778 405.304 712.29 428.962 736.394C433.757 741.272 438.614 746.322 443.31 751.208C460.899 769.505 479.087 788.427 499.296 803.671C500.479 804.562 501.684 805.452 502.876 806.312C550.119 840.199 604.639 843.967 652.463 816.651C700.854 789.009 732.218 735.628 754.138 692.21C756.584 687.355 759.048 682.333 761.672 676.86C770.514 658.427 778.792 639.453 787.556 619.366C804.237 581.135 821.485 541.601 843.113 505.5C861.705 474.624 882.059 449.145 905.339 427.602C927.79 406.827 952.239 390.397 980.079 377.375C995.934 369.885 1009.39 364.956 1022.42 361.862C1039.24 357.867 1055.23 356.967 1071.3 359.11C1103.7 363.501 1136.5 378.452 1168.22 392.91C1176.32 396.607 1183.98 400.097 1191.67 403.435C1272.26 438.414 1354.69 478.314 1443.69 525.416L1443.61 525.636Z" fill="white" fill-opacity="0.3"/>
<path d="M1440.64 524.399C1351.83 476.28 1270 435.216 1190.46 398.854C1182.59 395.256 1174.72 391.448 1166.39 387.416C1135.16 372.311 1102.86 356.687 1070.97 352.553C1034.5 347.9 1003.99 362.073 981.491 374.938C930.485 403.854 887.778 448.406 850.931 511.136C832.817 542.137 817.2 575.377 802.097 607.524C790.158 632.936 778.883 656.939 766.532 679.772C763.742 684.936 760.972 689.919 758.301 694.578C742.197 722.645 726.481 745.043 710.259 763.056C690.834 784.624 670.735 799.996 648.813 810.047C637.658 815.159 626.023 818.829 614.236 820.945C601.879 823.164 589.283 823.69 576.796 822.506C549.542 819.922 522.962 809.362 497.795 791.116C496.611 790.253 495.409 789.36 494.224 788.459C474.319 773.356 456.152 754.983 438.581 737.216C433.611 732.189 428.468 726.989 423.39 721.968C399.318 698.126 376.913 678.943 354.895 663.319C352.041 661.296 349.129 659.287 346.238 657.349C293.537 622.041 234.302 600.104 174.939 593.91C104.525 586.691 40.8924 600.464 -4.23221 632.691C-34.2808 654.31 -56.4026 692.013 -60.5908 728.738C-63.596 755.099 -57.6178 780.651 -43.3038 802.636L-43.4735 802.762C-50.9358 791.302 -56.1641 778.924 -59.01 765.972C-61.6513 753.949 -62.2576 741.402 -60.8068 728.679C-58.6618 709.865 -51.9753 690.738 -41.4703 673.366C-31.5344 656.936 -18.7038 642.8 -4.36476 632.482C19.3744 615.531 48.0011 603.683 80.7215 597.273C110.212 591.496 141.908 590.283 174.932 593.668C234.329 599.863 293.599 621.814 346.33 657.144C349.222 659.081 352.137 661.092 354.992 663.118C377.023 678.75 399.437 697.942 423.52 721.793C428.6 726.813 433.74 732.013 438.714 737.042C456.276 754.802 474.436 773.167 494.327 788.26C495.511 789.159 496.713 790.052 497.895 790.914C545.871 825.696 599.433 832.414 648.708 809.818C688.692 791.487 723.455 754.82 758.111 694.427C760.78 689.768 763.55 684.789 766.339 679.625C778.685 656.796 789.962 632.798 801.898 607.388C817.003 575.236 832.622 541.99 850.742 510.982C869.32 479.353 888.802 453.04 910.301 430.535C932.082 407.736 955.329 389.476 981.372 374.713C1003.9 361.832 1034.44 347.645 1070.97 352.306C1102.89 356.447 1135.2 372.076 1166.45 387.189C1174.78 391.222 1182.65 395.028 1190.52 398.624C1270.06 434.987 1351.9 476.054 1440.71 524.178L1440.64 524.399Z" fill="white" fill-opacity="0.3"/>
<path d="M1437.67 523.162C1349.04 474.017 1267.81 431.782 1189.32 394.046C1181.35 390.215 1173.34 386.115 1164.87 381.773C1134.03 365.98 1102.15 349.65 1070.65 345.751C1033.94 341.281 1004.42 357.577 982.805 372.274C936.566 403.482 897.091 449.349 858.571 516.62C844.155 541.921 830.904 568.556 818.088 594.313C802.523 625.597 787.821 655.147 771.203 682.552C768.21 687.493 765.208 692.292 762.278 696.811C745.025 723.414 727.988 744.594 710.193 761.56C700.226 771.063 689.891 779.31 679.475 786.074C668.364 793.288 656.782 799.058 645.052 803.227C621.251 811.684 596.486 813.95 571.446 809.964C544.403 805.658 517.951 794.139 492.824 775.722C491.64 774.848 490.442 773.95 489.264 773.054C469.727 758.141 451.637 740.359 434.145 723.164C428.849 717.959 423.374 712.576 417.961 707.376C393.448 683.783 370.877 664.918 348.958 649.7C346.091 647.709 343.165 645.736 340.265 643.834C287.358 609.161 228.06 587.936 168.785 582.455C98.2797 576.054 34.828 590.675 -9.88258 623.622C-57.6745 659.088 -86.3606 734.518 -49.3694 794.541L-49.544 794.661C-58.7979 779.646 -64.3758 763.306 -66.1262 746.09C-67.7251 730.368 -66.1277 714.214 -61.3768 698.081C-56.9601 683.08 -50.0468 668.773 -40.8316 655.556C-32.0669 642.986 -21.412 631.87 -10.019 623.416C13.5134 606.075 41.9957 593.814 74.6364 586.976C104.037 580.815 135.71 579.213 168.777 582.216C228.087 587.703 287.42 608.94 340.358 643.632C343.26 645.535 346.187 647.508 349.057 649.501C370.985 664.725 393.568 683.601 418.091 707.203C423.504 712.403 428.979 717.786 434.276 722.993C451.764 740.182 469.846 757.957 489.372 772.862C490.549 773.758 491.744 774.657 492.928 775.529C541.219 810.922 595.213 820.675 644.965 802.998C687.083 788.03 725.398 753.248 762.099 696.658C765.027 692.139 768.028 687.343 771.021 682.403C787.635 655.005 802.334 625.459 817.896 594.179C830.713 568.419 843.966 541.781 858.384 516.475C896.919 449.176 936.413 403.291 982.676 372.063C997.199 362.188 1009.88 355.513 1022.59 351.06C1038.83 345.365 1054.55 343.55 1070.65 345.511C1102.18 349.413 1134.08 365.754 1164.93 381.555C1173.41 385.895 1181.41 389.996 1189.38 393.826C1267.87 431.564 1349.11 473.8 1437.75 522.949L1437.67 523.162Z" fill="white" fill-opacity="0.3"/>
<path d="M1434.7 521.926C1346.26 471.742 1265.61 428.341 1188.17 389.238C1180.15 385.192 1172.07 380.819 1163.51 376.185C1133.01 359.684 1101.48 342.619 1070.33 338.949C1032.91 334.612 1003.21 354.369 984.115 369.608C932.215 410.773 895.386 469.795 866.209 522.104C855.743 540.953 845.628 560.495 835.844 579.393C816.218 617.304 797.681 653.112 775.875 685.332C772.668 690.072 769.433 694.685 766.258 699.045C747.843 724.284 729.484 744.244 710.13 760.061C688.19 777.992 665.032 790.221 641.292 796.407C616.904 802.762 591.603 803.102 566.094 797.417C539.34 791.455 513.017 778.978 487.852 760.332C486.675 759.455 485.48 758.553 484.304 757.651C465.196 742.98 447.257 725.838 429.907 709.259C424.222 703.826 418.343 698.21 412.531 692.784C387.217 669.11 365.13 651.095 343.023 636.08C340.143 634.124 337.208 632.188 334.294 630.32C281.178 596.286 221.816 575.774 162.625 570.999C92.0298 565.418 28.7558 580.886 -15.5387 614.554C-63.1432 650.966 -91.0849 725.216 -55.4397 786.448L-55.6173 786.561C-64.4605 771.369 -69.7564 754.924 -71.3592 737.685C-72.8256 721.889 -71.1918 705.703 -66.4988 689.579C-62.1231 674.542 -55.298 660.189 -46.2139 646.914C-37.5648 634.273 -27.0032 623.013 -15.6751 614.347C7.65228 596.617 35.9884 583.943 68.5465 576.675C97.8571 570.13 129.507 568.14 162.616 570.758C221.842 575.534 281.237 596.059 334.38 630.115C337.296 631.985 340.234 633.923 343.116 635.878C365.234 650.898 387.331 668.926 412.655 692.608C418.468 698.034 424.348 703.652 430.033 709.086C447.378 725.658 465.312 742.795 484.408 757.46C485.584 758.362 486.776 759.262 487.953 760.14C536.872 796.384 591.301 809.181 641.217 796.173C685.985 784.508 726.827 752.682 766.082 698.88C769.257 694.522 772.493 689.912 775.695 685.174C797.496 652.961 816.031 617.16 835.652 579.253C845.437 560.355 855.552 540.81 866.019 521.958C885.64 486.786 902.872 459.602 920.242 436.415C940.693 409.119 961.539 387.2 983.974 369.405C997.628 358.507 1010.29 350.738 1022.67 345.657C1038.62 339.114 1054.21 336.84 1070.33 338.709C1101.52 342.382 1133.07 359.458 1163.58 375.97C1172.14 380.602 1180.22 384.976 1188.23 389.018C1265.68 428.121 1346.33 471.526 1434.78 521.711L1434.7 521.926Z" fill="white" fill-opacity="0.3"/>
<path d="M1431.73 520.685C1343.47 469.458 1263.42 424.888 1187.02 384.426C1179.01 380.183 1170.89 375.55 1162.29 370.644C1132.09 353.413 1100.86 335.595 1070.01 332.145C1032.29 327.991 1003.67 350.012 985.428 366.939C940.306 408.584 908.199 464.332 873.847 527.584C867.664 539.019 861.476 550.736 855.491 562.071C832.475 605.659 808.677 650.729 780.544 688.109C777.128 692.653 773.658 697.083 770.232 701.275C750.911 724.899 730.667 744.17 710.061 758.555C686.718 774.851 662.315 785.289 637.526 789.586C612.626 793.901 586.791 792.313 560.736 784.865C534.369 777.328 508.172 763.897 482.872 744.944C481.7 744.061 480.51 743.155 479.338 742.251C460.749 727.892 443.053 711.457 425.941 695.563C419.775 689.836 413.4 683.915 407.095 678.198C381.304 654.768 359.056 637.06 337.081 622.468C334.196 620.552 331.245 618.649 328.315 616.812C274.997 583.406 215.575 563.604 156.467 559.542C85.7829 554.781 22.6895 571.095 -21.1938 605.483C-66.9423 641.527 -96.6201 714.361 -61.5119 778.352L-61.6924 778.458C-70.1259 763.087 -75.1388 746.54 -76.5941 729.276C-77.9308 713.404 -76.2577 697.188 -71.6245 681.074C-63.0743 651.347 -44.7441 623.72 -21.3341 605.278C1.78747 587.161 29.9783 574.071 62.4557 566.373C91.6774 559.447 123.301 557.067 156.453 559.3C215.594 563.364 275.052 583.18 328.401 616.599C331.334 618.437 334.285 620.341 337.173 622.258C359.159 636.859 381.416 654.574 407.216 678.013C413.522 683.733 419.898 689.653 426.064 695.38C443.173 711.27 460.865 727.701 479.444 742.054C480.614 742.958 481.803 743.863 482.975 744.745C533.592 782.665 587.014 798.087 637.465 789.346C684.181 781.251 728.791 751.563 770.06 701.103C773.484 696.911 776.952 692.485 780.367 687.944C808.489 650.577 832.285 605.513 855.296 561.933C861.28 550.598 867.468 538.881 873.653 527.445C888.69 499.757 906.316 467.834 925.209 439.352C944.974 409.561 964.62 385.813 985.275 366.751C998.257 354.705 1010.52 346.037 1022.76 340.256C1038.19 332.963 1054.09 330.157 1070 331.909C1083.82 333.454 1099.09 338.106 1116.67 346.131C1132.19 353.217 1147.53 361.971 1162.37 370.434C1170.96 375.338 1179.08 379.971 1187.09 384.212C1263.5 424.676 1343.54 469.247 1431.81 520.476L1431.73 520.685Z" fill="white" fill-opacity="0.3"/>
<path d="M1428.76 519.449C1340.68 467.172 1261.23 421.433 1185.87 379.621C1177.89 375.195 1169.77 370.315 1161.17 365.151C1131.23 347.172 1100.28 328.579 1069.69 325.348C1041.12 322.369 1013.99 335.104 986.739 364.279C948.588 404.958 921.344 456.998 892.501 512.097C888.909 518.958 885.197 526.05 881.486 533.074C880.035 535.829 878.584 538.589 877.134 541.346C849.594 593.714 821.118 647.866 785.216 690.892C781.587 695.244 777.885 699.49 774.21 703.511C753.711 725.929 732.107 743.942 709.999 757.048C685.242 771.721 659.594 780.375 633.769 782.766C608.424 785.111 582.054 781.593 555.391 772.311C529.548 763.314 503.478 748.929 477.904 729.552C476.736 728.665 475.551 727.754 474.382 726.846C456.445 712.908 439.136 697.278 422.395 682.165C415.616 676.044 408.604 669.715 401.669 663.602C375.382 640.414 352.975 623.012 331.149 608.845C328.249 606.963 325.289 605.096 322.346 603.294C268.819 570.529 209.331 551.437 150.309 548.086C79.5405 544.146 16.6229 561.308 -26.8474 596.414C-71.419 632.566 -100.844 705.779 -67.5796 770.259L-67.764 770.361C-75.7869 754.808 -80.5187 738.159 -81.8244 720.876C-83.0295 704.928 -81.3211 688.677 -76.7437 672.576C-68.2903 642.838 -50.1554 615.006 -26.9876 596.214C-4.07094 577.708 23.9727 564.203 56.3684 556.077C85.4992 548.765 117.101 545.996 150.295 547.844C209.351 551.199 268.875 570.3 322.426 603.084C325.369 604.886 328.335 606.755 331.235 608.638C353.072 622.814 375.489 640.219 401.785 663.417C408.722 669.528 415.733 675.86 422.513 681.981C439.249 697.091 456.556 712.716 474.486 726.65C475.656 727.557 476.838 728.467 478.005 729.355C530.007 768.753 583.851 787.136 633.721 782.52C682.95 777.963 730.161 751.317 774.046 703.324C777.717 699.305 781.418 695.062 785.046 690.714C820.937 647.703 849.408 593.561 876.94 541.202C878.391 538.442 879.841 535.685 881.292 532.93C885.003 525.906 888.716 518.814 892.308 511.955C921.158 456.845 948.409 404.791 986.578 364.094C998.889 350.912 1010.75 341.349 1022.85 334.853C1037.99 326.723 1053.74 323.445 1069.68 325.106C1083.38 326.553 1098.53 331.308 1115.98 339.644C1131.38 347 1146.57 356.12 1161.25 364.94C1169.85 370.101 1177.97 374.979 1185.95 379.404C1261.31 421.218 1340.77 466.958 1428.84 519.238L1428.76 519.449Z" fill="white" fill-opacity="0.3"/>
<path d="M1425.79 518.212C1344.76 469.039 1263.66 420.791 1184.72 374.812C1176.7 370.171 1168.51 365.001 1159.83 359.529C1131.61 341.728 1099.62 321.554 1069.37 318.547C1040.55 315.707 1013.95 329.795 988.049 361.613C957.227 399.378 935.172 444.728 911.82 492.74C904.507 507.775 896.946 523.325 889.121 538.557C875.48 565.182 860.545 593.574 843.785 620.814C825.837 649.989 808.204 673.819 789.881 693.672C786.031 697.843 782.097 701.905 778.182 705.743C756.521 726.973 733.556 743.709 709.925 755.488C683.765 768.524 656.877 775.409 630.001 775.943C580.278 776.714 527.429 755.929 472.924 714.162C471.761 713.27 470.581 712.354 469.415 711.445C452.336 698.093 435.634 683.431 419.482 669.251C411.879 662.577 404.018 655.674 396.233 649.015C369.434 626.059 346.865 608.968 325.209 595.23C322.294 593.381 319.322 591.549 316.37 589.784C262.641 557.648 203.09 539.27 144.154 536.628C73.2964 533.508 10.5604 551.519 -32.4997 587.343C-77.0052 624.484 -105.431 696.46 -73.648 762.165L-73.8364 762.258C-81.4495 746.52 -85.8964 729.768 -87.0564 712.467C-88.1291 696.439 -86.3843 680.156 -81.8666 664.071C-77.6109 648.917 -71.0492 634.424 -62.3656 620.992C-53.9341 607.954 -43.9352 596.565 -32.6447 587.143C-9.93204 568.249 17.9663 554.328 50.2793 545.772C79.3223 538.081 110.898 534.922 144.135 536.386C203.106 539.029 262.692 557.419 316.449 589.568C319.403 591.336 322.379 593.168 325.295 595.017C346.962 608.764 369.54 625.861 396.349 648.824C404.135 655.485 411.996 662.388 419.599 669.064C435.751 683.243 452.45 697.903 469.523 711.249C470.687 712.162 471.869 713.075 473.029 713.968C527.492 755.702 580.295 776.472 629.971 775.701C681.042 774.685 732.24 750.429 778.027 705.552C781.938 701.716 785.873 697.656 789.72 693.489C830.689 649.105 861.195 592.546 888.927 538.418C896.752 523.186 904.313 507.639 911.625 492.604C934.982 444.582 957.042 399.222 987.879 361.44C1013.82 329.572 1040.47 315.461 1069.36 318.306C1082.91 319.652 1097.9 324.498 1115.18 333.115C1130.42 340.714 1145.41 350.175 1159.92 359.321C1168.59 364.793 1176.79 369.961 1184.8 374.598C1263.74 420.579 1344.85 468.827 1425.87 518.002L1425.79 518.212Z" fill="white" fill-opacity="0.3"/>
<path d="M1422.82 516.974C1342.38 467.073 1261.89 417.625 1183.57 370.002C1175.68 365.217 1167.58 359.853 1159 354.174C1130.94 335.599 1099.13 314.545 1069.05 311.741C1039.96 309.046 1013.89 324.487 989.357 358.942C963.64 395.012 944.508 438.426 926.007 480.412C916.73 501.464 907.136 523.234 896.757 544.036C880.384 576.89 865.868 602.839 851.071 625.703C832.826 653.896 814.337 677.037 794.55 696.447C790.489 700.433 786.318 704.31 782.156 707.971C760.467 727.042 737.494 741.943 713.815 752.307C712.499 752.882 711.185 753.441 709.866 753.989C682.26 765.444 654.123 770.532 626.238 769.116C612.765 768.402 598.867 766.093 584.932 762.253C571.833 758.643 558.291 753.566 544.683 747.164C520.2 735.645 495.098 719.814 467.947 698.768C466.78 697.861 465.615 696.952 464.451 696.037C448.579 683.554 432.855 670.126 417.649 657.14C408.871 649.644 399.794 641.892 390.798 634.416C363.091 611.381 341.03 595.091 319.266 581.604C316.339 579.791 313.355 577.994 310.39 576.263C256.461 544.768 196.847 527.102 137.997 525.168C67.054 522.869 4.49671 541.729 -38.1532 578.27C-81.4959 615.465 -109.69 687.792 -79.7166 754.065L-79.908 754.151C-93.8692 723.283 -96.3164 689.191 -86.9859 655.564C-82.7683 640.365 -76.295 625.827 -67.7452 612.346C-59.4256 599.23 -49.5189 587.698 -38.2982 578.07C-15.7924 558.787 11.9616 544.452 44.192 535.467C73.1461 527.395 104.699 523.847 137.975 524.924C196.863 526.86 256.512 544.538 310.474 576.052C313.44 577.784 316.429 579.582 319.356 581.395C341.131 594.891 363.2 611.185 390.916 634.23C399.913 641.708 408.991 649.46 417.768 656.956C432.973 669.94 448.694 683.367 464.562 695.845C465.726 696.761 466.89 697.671 468.055 698.575C525.75 743.299 577.486 766.294 626.222 768.875C693.658 772.302 748.162 737.541 782.011 707.776C786.169 704.117 790.337 700.243 794.396 696.258C839.905 651.614 872.902 591.385 896.565 543.902C906.945 523.105 916.536 501.336 925.813 480.287C944.319 438.293 963.453 394.868 989.183 358.781C1000.16 343.363 1011.23 332.001 1023.02 324.05C1037.57 314.244 1053.05 310.022 1069.04 311.505C1082.51 312.76 1097.43 317.728 1114.64 326.691C1129.81 334.588 1144.7 344.442 1159.09 353.974C1167.67 359.651 1175.77 365.014 1183.66 369.795C1261.98 417.417 1342.47 466.866 1422.9 516.765L1422.82 516.974Z" fill="white" fill-opacity="0.3"/>
<path d="M1419.84 515.737L1182.43 365.196C1174.67 360.279 1166.68 354.734 1158.22 348.866C1130.31 329.497 1098.67 307.546 1068.73 304.943C1039.77 302.429 1013.51 319.7 990.67 356.281C968.712 391.447 952.608 432.482 937.033 472.167C926.881 498.036 916.383 524.783 904.398 549.525C868.375 623.891 830.795 674.948 786.135 710.206C767.608 724.831 748.174 736.615 728.159 745.374C722.092 748.029 715.975 750.403 709.812 752.497C680.744 762.372 651.359 765.669 622.479 762.296C595.711 759.169 568.515 750.119 539.343 734.625C516.048 722.254 491.781 705.97 462.976 683.38C447.773 671.459 432.57 658.813 417.868 646.584C384.595 618.91 350.189 590.294 313.335 567.986C256.805 533.772 194.045 515.004 131.837 513.713C60.8124 512.236 -1.56714 531.942 -43.8069 569.201C-84.7023 605.274 -115.283 675.976 -85.7864 745.972L-85.9808 746.052C-99.1647 714.765 -101.283 680.535 -92.1072 647.062C-83.8109 616.796 -66.7096 589.075 -43.9528 569.003C-21.6509 549.333 5.95776 534.583 38.1036 525.168C66.9678 516.713 98.4982 512.779 131.817 513.471C162.598 514.11 193.731 519.058 224.354 528.178C255.233 537.374 285.198 550.695 313.416 567.773C350.285 590.088 384.7 618.711 417.981 646.391C432.682 658.618 447.884 671.262 463.084 683.182C505.112 716.144 561.21 754.894 622.474 762.05C692.733 770.256 750.176 738.274 785.994 709.998C830.633 674.76 868.194 623.725 904.202 549.387C916.183 524.655 926.679 497.909 936.831 472.046C952.409 432.353 968.519 391.308 990.486 356.124C1013.36 319.481 1039.69 302.178 1068.72 304.7C1082.12 305.866 1096.98 310.96 1114.14 320.279C1129.24 328.483 1144.02 338.742 1158.32 348.662C1166.78 354.531 1174.77 360.072 1182.52 364.987L1419.93 515.528L1419.84 515.737Z" fill="white" fill-opacity="0.3"/>
<path d="M1411.5 499.829C1348.82 456.414 1296.25 421.932 1246.07 391.313C1221.7 376.434 1197.16 362.031 1173.13 348.505C1165.86 344.413 1158.47 339.914 1150.64 335.15C1130.96 323.175 1110.61 310.794 1090.39 303.846C1079.52 300.102 1069.83 298.257 1060.77 298.206C1032.89 297.947 1008.58 316.822 988.504 354.309C978.107 373.692 969.879 394.172 963.202 411.649C956.132 430.151 949.817 449.907 943.708 469.013C934.93 496.475 925.852 524.871 914.154 550.966C907.05 566.876 899.285 581.713 891.072 595.068C874.64 621.785 855.216 646.375 833.337 668.155C819.789 681.542 805.493 693.435 790.849 703.5C778.223 712.165 765.085 719.727 751.796 725.976C731.909 735.33 711.386 741.824 690.796 745.272C668.903 748.937 646.772 749.18 625.02 745.991C605.623 743.147 585.993 737.47 565.007 728.632C525.911 712.185 490.307 688.965 463.658 670.573C450.541 661.481 437.497 652.062 424.883 642.954C388.557 616.722 354.246 591.946 316.58 572.985C285.93 557.68 253.891 546.917 221.346 540.995C196.336 536.443 170.671 535.002 145.062 536.708C138.963 537.117 132.821 537.698 126.812 538.439C100.949 541.641 73.2466 548.479 44.4774 558.759C15.4526 569.079 -8.14579 581.465 -27.6591 596.63C-38.7015 605.178 -48.5807 615.333 -57.0281 626.81C-86.85 667.332 -95.5409 717.255 -80.2753 760.354L-80.5266 760.435C-84.5962 748.945 -87.0363 736.942 -87.7828 724.755C-88.4912 713.179 -87.6786 701.36 -85.3685 689.627C-81.0018 667.461 -71.2771 645.667 -57.2457 626.601C-48.7859 615.105 -38.8904 604.935 -27.8308 596.374C-8.29637 581.195 15.3202 568.797 44.3691 558.47C73.1537 548.183 100.871 541.344 126.752 538.14C132.768 537.398 138.912 536.816 145.015 536.408C170.643 534.699 196.33 536.142 221.36 540.698C253.928 546.624 285.993 557.396 316.66 572.713C354.35 591.685 388.668 616.468 425.006 642.706C437.619 651.815 450.661 661.231 463.775 670.323C490.412 688.707 525.999 711.915 565.072 728.35C586.035 737.18 605.645 742.852 625.02 745.692C667.591 751.932 710.2 745.206 751.665 725.696C764.942 719.453 778.071 711.895 790.686 703.238C805.318 693.177 819.604 681.294 833.141 667.918C855.007 646.151 874.421 621.577 890.841 594.875C899.049 581.531 906.809 566.702 913.907 550.805C925.598 524.724 934.674 496.334 943.449 468.881C949.559 449.772 955.873 430.011 962.947 411.501C969.627 394.015 977.861 373.527 988.266 354.131C997.203 337.44 1007.16 324.255 1017.86 314.937C1031 303.493 1045.43 297.762 1060.74 297.904C1069.83 297.957 1079.55 299.806 1090.44 303.557C1110.69 310.516 1131.05 322.906 1150.74 334.887C1158.57 339.65 1165.97 344.149 1173.23 348.238C1197.27 361.765 1221.81 376.169 1246.18 391.052C1296.37 421.674 1348.94 456.16 1411.63 499.578L1411.5 499.829Z" fill="white" fill-opacity="0.3"/>
<path d="M1403.16 483.915C1342.71 438.326 1288.66 401.69 1237.94 371.916C1213.19 357.362 1188.26 343.869 1163.84 331.812C1157.36 328.614 1150.85 325.192 1143.96 321.571C1123.32 310.729 1101.98 299.517 1081.3 294.346C1070.85 291.708 1061.53 290.765 1052.81 291.465C1019.39 294.139 998.218 326.039 986.338 352.33C977.904 370.92 971.391 390.617 964.915 410.842C959.247 428.545 954.668 446.925 949.819 466.382C942.625 495.263 935.184 525.127 923.911 552.401C917.247 568.647 909.416 583.598 900.636 596.84C884.283 621.509 864.325 643.841 839.627 665.115C825.803 677.019 810.977 687.679 795.557 696.794C782.538 704.465 769.078 711.061 755.546 716.392C735.418 724.332 714.622 729.532 693.734 731.849C671.797 734.282 649.53 733.553 627.555 729.683C608.303 726.294 588.519 720.293 567.075 711.34C528.146 695.119 491.721 674.19 464.338 657.768C454.202 651.688 444.141 645.511 434.41 639.534C395.656 615.735 359.051 593.253 319.827 577.982C290.513 566.569 260.069 559.393 229.346 556.655C206.1 554.583 182.858 555.58 158.294 559.7C152.626 560.653 146.925 561.771 141.35 563.022C116.876 568.541 92.0693 577.433 62.1824 588.48C40.6116 596.381 12.7414 607.563 -11.5175 624.056C-23.0257 631.822 -33.3777 641.095 -42.2909 651.613C-73.67 688.65 -85.81 734.676 -74.7664 774.737L-75.0758 774.805C-78.0052 764.182 -79.3694 753.103 -79.1371 741.875C-78.9139 731.176 -77.2378 720.278 -74.1598 709.477C-68.3078 688.957 -57.3747 668.855 -42.54 651.348C-33.6105 640.809 -23.2385 631.52 -11.711 623.739C12.5698 607.229 40.4622 596.039 62.0465 588.133C91.943 577.081 116.758 568.187 141.248 562.663C146.827 561.412 152.532 560.292 158.206 559.337C182.794 555.214 206.058 554.216 229.331 556.29C260.085 559.031 290.554 566.212 319.898 577.636C359.15 592.919 395.768 615.406 434.536 639.215C444.265 645.19 454.325 651.368 464.461 657.445C491.836 673.86 528.246 694.781 567.154 710.996C588.574 719.941 608.336 725.935 627.566 729.32C670.775 736.929 713.788 732.461 755.405 716.044C768.924 710.716 782.372 704.128 795.378 696.463C810.783 687.357 825.598 676.708 839.407 664.812C864.087 643.557 884.027 621.244 900.367 596.597C909.136 583.371 916.957 568.44 923.612 552.212C934.875 524.96 942.312 495.108 949.506 466.241C954.355 446.776 958.935 428.394 964.608 410.68C971.086 390.443 977.602 370.739 986.044 352.13C993.745 335.085 1002.68 321.338 1012.61 311.264C1024.64 299.05 1038.14 292.265 1052.75 291.096C1061.5 290.396 1070.86 291.34 1081.34 293.986C1102.05 299.168 1123.41 310.39 1144.07 321.241C1150.96 324.86 1157.47 328.279 1163.94 331.477C1188.37 343.538 1213.3 357.036 1238.07 371.595C1288.8 401.377 1342.85 438.019 1403.32 483.619L1403.16 483.915Z" fill="white" fill-opacity="0.3"/>
<path d="M1394.81 468.004C1335.74 419.634 1281.77 381.86 1229.81 352.524C1204.67 338.296 1179.35 325.714 1154.55 315.123C1149.25 312.858 1143.74 310.405 1138.41 308.034C1116.4 298.233 1093.65 288.1 1072.22 284.847C1062.15 283.286 1053.19 283.245 1044.85 284.723C1012.82 290.393 994.17 323.541 984.168 350.348C977.365 368.467 972.367 387.817 967.533 406.531L966.628 410.036C962.235 427.017 958.992 444.952 955.558 463.943C950.09 494.183 944.437 525.449 933.662 553.839C927.43 570.442 919.535 585.508 910.195 598.618C893.911 621.476 873.481 641.642 845.906 662.079C831.647 672.647 816.289 682.071 800.256 690.088C786.842 696.763 773.059 702.391 759.284 706.81C717.589 720.21 674.12 722.419 630.082 713.378C611.045 709.469 591.11 703.15 569.139 694.05C531.981 678.707 497.326 661.389 465.017 644.965C460.685 642.764 456.393 640.572 452.135 638.398C407.955 615.85 366.227 594.551 323.079 582.986C294.909 575.435 266.063 571.848 237.344 572.321C216.259 572.67 194.728 576.064 171.524 582.694C166.297 584.193 161.036 585.846 155.887 587.608C142.942 592.061 129.612 597.697 115.499 603.665C104.164 608.458 92.443 613.414 79.8832 618.207C55.5834 627.367 28.0442 637.75 4.61905 651.491C-7.46708 658.582 -18.2927 666.971 -27.5578 676.428C-60.4379 709.993 -76.0271 752.128 -69.2586 789.139L-69.6302 789.175C-71.4156 779.417 -71.7057 769.263 -70.4936 758.996C-69.335 749.178 -66.7993 739.196 -62.9573 729.33C-55.6084 710.46 -43.4609 692.055 -27.8336 676.102C-18.5484 666.622 -7.70075 658.215 4.4094 651.112C27.8585 637.358 55.4122 626.971 79.7217 617.807C92.2728 613.015 103.994 608.061 115.326 603.269C129.445 597.299 142.778 591.661 155.736 587.206C160.889 585.444 166.156 583.788 171.388 582.288C194.62 575.648 216.177 572.251 237.291 571.903C266.045 571.428 294.922 575.019 323.123 582.578C366.31 594.154 408.059 615.463 452.256 638.021C456.515 640.195 460.807 642.384 465.139 644.588C497.442 661.01 532.087 678.325 569.232 693.662C591.18 702.75 611.095 709.065 630.109 712.968C674.089 721.998 717.502 719.79 759.143 706.409C772.902 701.994 786.671 696.372 800.07 689.704C816.085 681.694 831.429 672.279 845.672 661.723C873.219 641.306 893.626 621.164 909.889 598.337C919.209 585.255 927.089 570.217 933.311 553.642C944.071 525.289 949.72 494.04 955.185 463.818C958.619 444.819 961.865 426.874 966.262 409.88L967.168 406.376C972.004 387.652 977.004 368.291 983.814 350.153C993.847 323.259 1012.56 290.007 1044.74 284.31C1053.13 282.826 1062.12 282.866 1072.23 284.435C1093.7 287.694 1116.48 297.838 1138.51 307.649C1143.84 310.021 1149.35 312.474 1154.65 314.738C1179.46 325.335 1204.79 337.924 1229.94 352.16C1281.92 381.508 1335.91 419.296 1395 467.681L1394.81 468.004Z" fill="white" fill-opacity="0.3"/>
<path d="M1386.46 452.089C1329.58 401.639 1274.14 361.614 1221.68 333.131C1196.16 319.231 1170.45 307.558 1145.27 298.434C1141.63 297.116 1137.89 295.733 1134.27 294.396C1110.38 285.562 1085.68 276.426 1063.15 275.348C1053.46 274.844 1044.88 275.705 1036.9 277.979C1006.3 286.703 990.16 321.069 982.005 348.364C976.914 365.249 973.446 383.067 970.092 400.299C969.513 403.281 968.932 406.258 968.345 409.228C965.12 425.539 963.102 443.067 960.965 461.622C957.332 493.168 953.574 525.787 943.422 555.278C937.459 572.596 929.72 587.354 919.761 600.4C898.931 627.688 873.914 645.36 852.193 659.05C837.5 668.307 821.612 676.499 804.963 683.391C791.162 689.066 777.053 693.723 763.032 697.235C721.465 707.664 677.588 707.611 632.619 697.077C613.909 692.696 593.824 686.052 571.212 676.767C548.388 667.426 526.903 658.229 506.124 649.335C492.003 643.289 478.664 637.579 465.71 632.169C416.744 611.719 372.457 594.279 326.344 587.991C299.334 584.309 272.084 584.307 245.352 587.986C226.192 590.622 206.939 596.248 184.764 605.685C179.983 607.729 175.161 609.917 170.432 612.191C163.258 615.661 155.964 619.545 148.245 623.658C133.431 631.549 116.637 640.495 97.5883 647.936C90.3337 650.768 82.8834 653.546 75.6766 656.231C57.1408 663.138 37.9746 670.28 20.7569 678.927C8.11348 685.278 -3.18681 692.787 -12.8254 701.244C-47.1367 731.354 -66.1721 769.599 -63.7476 803.55L-64.1796 803.532C-64.8152 794.642 -64.0302 785.415 -61.848 776.108C-59.7519 767.17 -56.3558 758.107 -51.7565 749.175C-42.8931 731.965 -29.5333 715.256 -13.1202 700.853C-3.45861 692.375 7.86563 684.848 20.5379 678.484C37.7738 669.827 56.9487 662.683 75.4941 655.772C82.699 653.088 90.1493 650.31 97.402 647.479C116.434 640.045 133.215 631.108 148.021 623.22C155.744 619.106 163.04 615.221 170.222 611.747C174.956 609.471 179.783 607.28 184.569 605.234C206.774 595.782 226.056 590.151 245.248 587.509C272.013 583.826 299.299 583.826 326.344 587.514C347.174 590.353 369.394 595.775 394.275 604.086C416.549 611.526 438.983 620.515 465.816 631.721C478.771 637.133 492.11 642.843 506.234 648.888C527.01 657.781 548.494 666.978 571.314 676.318C593.903 685.594 613.967 692.232 632.655 696.608C677.563 707.129 721.378 707.182 762.887 696.768C776.892 693.261 790.982 688.609 804.768 682.94C821.398 676.056 837.27 667.875 851.943 658.626C873.639 644.955 898.622 627.306 919.416 600.067C929.347 587.056 937.066 572.337 943.012 555.064C953.147 525.623 956.902 493.03 960.533 461.51C962.672 442.943 964.691 425.406 967.919 409.077C968.506 406.108 969.085 403.132 969.666 400.152C973.021 382.908 976.491 365.079 981.589 348.172C986.894 330.414 993.792 315.521 1002.09 303.906C1011.92 290.149 1023.58 281.271 1036.74 277.52C1044.76 275.235 1053.39 274.369 1063.11 274.874C1085.7 275.955 1110.44 285.103 1134.36 293.948C1137.97 295.284 1141.71 296.668 1145.35 297.984C1170.55 307.115 1196.28 318.801 1221.82 332.711C1249.68 347.836 1278.57 366.316 1307.68 387.639C1333.41 406.484 1359.99 428.05 1386.69 451.733L1386.46 452.089Z" fill="white" fill-opacity="0.3"/>
<path d="M1378.11 436.168C1322.62 382.954 1267.25 341.762 1213.56 313.736C1187.64 300.164 1161.54 289.401 1135.99 281.742C1134.77 281.377 1133.55 281.012 1132.34 280.646C1105.75 272.661 1078.26 264.403 1054.09 265.845C1044.73 266.403 1036.51 268.166 1028.96 271.23C999.858 283.055 986.189 318.621 979.848 346.372C976.084 362.63 973.862 379.618 971.713 396.045C971.182 400.108 970.632 404.308 970.071 408.41C967.931 424.036 967.061 441.119 966.142 459.206C964.469 492.105 962.74 526.123 953.186 556.709C947.659 574.405 939.856 589.277 929.331 602.178C908.596 627.592 883.024 643.073 858.479 656.016C843.345 663.996 826.922 670.951 809.669 676.688C795.482 681.36 781.052 685.048 766.778 687.653C725.521 695.202 681.237 692.887 635.158 680.769C616.705 675.918 597.045 669.152 573.291 659.475C528.182 641.172 495.219 628.802 466.415 619.366C409.126 600.599 368.217 592.711 329.629 592.988C303.795 593.174 278.142 596.758 253.378 603.64C236.197 608.416 219.122 616.133 198.02 628.666C193.699 631.241 189.316 633.964 184.994 636.763C180.916 639.417 176.816 642.208 172.472 645.162C156.437 656.071 138.261 668.436 115.302 677.658C103.201 682.519 90.5669 686.86 78.3498 691.059C64.4653 695.83 50.108 700.763 36.8986 706.36C23.6544 711.973 11.8795 718.601 1.91194 726.06C-33.7445 752.735 -56.2279 787.097 -58.2306 817.975L-58.7156 817.872C-58.1966 809.85 -56.3364 801.551 -53.188 793.206C-50.1497 785.148 -45.8959 777.008 -40.5451 769.008C-30.1518 753.466 -15.5757 738.453 1.6087 725.598C11.6051 718.121 23.4049 711.476 36.6798 705.85C49.9009 700.248 64.2658 695.312 78.1571 690.54C90.3703 686.343 102.999 682.005 115.09 677.147C138.008 667.941 156.164 655.589 172.182 644.694C176.527 641.737 180.632 638.946 184.711 636.289C189.039 633.488 193.425 630.763 197.749 628.184C218.885 615.633 235.988 607.902 253.206 603.117C278.005 596.225 303.695 592.636 329.566 592.45C368.205 592.171 409.157 600.068 466.497 618.851C495.312 628.29 528.285 640.664 573.405 658.973C597.143 668.641 616.781 675.4 635.214 680.247C681.229 692.346 725.449 694.659 766.644 687.121C780.899 684.52 795.311 680.834 809.479 676.17C826.712 670.439 843.113 663.494 858.23 655.525C882.737 642.601 908.267 627.149 928.954 601.794C939.441 588.942 947.216 574.12 952.724 556.486C962.256 525.965 963.985 491.983 965.655 459.12C966.576 441.021 967.445 423.926 969.588 408.277C970.15 404.176 970.701 399.976 971.231 395.914C973.381 379.473 975.606 362.474 979.375 346.188C983.513 328.077 989.392 312.611 996.848 300.218C1005.58 285.701 1016.32 275.78 1028.75 270.725C1036.34 267.642 1044.6 265.872 1054.01 265.31C1078.26 263.865 1105.79 272.133 1132.41 280.131C1133.63 280.497 1134.85 280.864 1136.06 281.227C1161.65 288.895 1187.78 299.671 1213.72 313.257C1267.46 341.309 1322.87 382.533 1378.4 435.784L1378.11 436.168Z" fill="white" fill-opacity="0.3"/>
<path d="M867.947 651.593C866.868 652.065 865.804 652.529 864.754 652.98C849.168 659.708 832.213 665.43 814.363 669.982C799.796 673.649 785.043 676.369 770.516 678.069C749.764 680.508 727.88 680.538 705.468 678.163C683.825 675.869 661.022 671.259 637.69 664.46C614.829 657.799 592.372 649.057 575.361 642.185C535.593 626.183 499.174 614.2 467.115 606.565C415.192 594.201 372.548 591.472 332.911 597.981C308.998 601.908 284.652 609.114 262.43 618.837C262.086 618.988 261.744 619.138 261.4 619.291C242.344 627.721 226.043 639.82 211.271 651.639C207.429 654.723 203.485 657.982 199.549 661.328C197.396 663.17 195.249 665.036 192.978 667.01C176.96 680.944 158.802 696.735 133.007 707.379C117.296 713.86 100.569 718.923 84.3908 723.817C73.9446 726.977 63.145 730.246 53.0303 733.791C39.1265 738.665 26.8827 744.411 16.6374 750.874C-20.2586 774.14 -46.1891 804.62 -52.7282 832.412L-53.253 832.197C-49.8983 817.944 -41.8545 803.354 -29.3466 788.831C-17.4002 774.963 -1.60487 761.652 16.3315 750.342C26.6047 743.865 38.8792 738.1 52.8157 733.217C62.9401 729.667 73.7465 726.399 84.1965 723.237C100.365 718.347 117.083 713.288 132.771 706.814C158.501 696.199 176.626 680.433 192.618 666.524C194.89 664.546 197.037 662.68 199.192 660.838C203.132 657.49 207.079 654.227 210.924 651.141C225.723 639.303 242.051 627.184 261.153 618.731C283.688 608.76 308.452 601.382 332.773 597.39C353.231 594.032 374.097 593.135 396.559 594.651C418.192 596.112 441.289 599.817 467.167 605.982C499.252 613.622 535.698 625.615 575.491 641.628C592.489 648.497 614.929 657.233 637.766 663.885C685.111 677.681 729.735 682.253 770.399 677.477C784.907 675.78 799.64 673.063 814.187 669.402C832.014 664.855 848.946 659.143 864.51 652.421C888.864 641.904 916.663 628.593 938.483 603.517C949.528 590.825 957.359 575.906 962.426 557.908C971.324 526.299 970.906 490.91 970.503 456.683C970.297 439.078 970.1 422.449 971.248 407.478C971.615 402.682 971.95 397.76 972.274 392.999C973.368 376.915 974.498 360.286 977.151 344.212C980.141 325.747 985 309.704 991.591 296.531C999.235 281.257 1009.04 270.292 1020.74 263.939C1027.96 260.018 1035.86 257.34 1044.89 255.754C1069.02 251.511 1097.39 257.457 1126.76 264.474C1152.37 270.592 1179.63 280.734 1205.6 293.807C1234.42 308.264 1263.82 327.152 1292.98 349.948C1318.96 370.257 1344.91 393.772 1370.1 419.842L1369.76 420.261C1315.66 364.275 1260.37 321.912 1205.43 294.354C1179.5 281.299 1152.28 271.17 1126.71 265.065C1097.39 258.061 1069.08 252.125 1045.03 256.351C1036.05 257.929 1028.2 260.592 1021.02 264.489C999.528 276.165 984.135 304.539 977.684 344.388C975.037 360.433 973.907 377.048 972.813 393.116C972.491 397.879 972.154 402.804 971.787 407.6C970.641 422.544 970.837 439.16 971.045 456.748C971.243 473.541 971.448 490.908 970.489 508.107C969.402 527.606 966.935 543.973 962.946 558.149C957.856 576.227 949.991 591.213 938.895 603.965C929.109 615.212 917.532 624.881 903.505 633.529C891.622 640.843 879.051 646.735 867.947 651.593Z" fill="white" fill-opacity="0.3"/>
<path d="M899.291 639.228C889.482 643.52 879.759 646.956 871.025 649.948C854.967 655.45 837.481 659.937 819.054 663.281C804.116 665.942 789.041 667.696 774.247 668.489C733.75 670.687 689.907 664.034 640.215 648.154C618.545 641.23 597.314 632.868 577.429 624.897C538.207 609.241 501.33 598.766 467.817 593.763C418.529 586.406 376.706 589.33 336.197 602.967C313.116 610.737 290.028 621.791 269.425 634.932C252.18 645.931 237.788 660.563 224.52 674.605C221.204 678.127 217.699 681.923 214.104 685.885C213.207 686.878 212.304 687.885 211.388 688.902C196.354 705.64 179.343 724.58 152.093 736.504C151.633 736.705 151.174 736.903 150.708 737.099C132.176 744.947 112 750.091 92.4851 755.064C84.7483 757.035 76.7485 759.076 69.1526 761.217C54.3173 765.404 41.952 770.133 31.3505 775.682C-7.20772 795.867 -35.8587 821.807 -47.2496 846.854L-47.7874 846.5C-42.1558 834.118 -31.9085 821.024 -18.1577 808.634C-4.63193 796.448 12.3826 784.844 31.0458 775.075C41.677 769.51 54.0731 764.767 68.9412 760.572C76.5448 758.427 84.5475 756.388 92.2853 754.413C111.781 749.443 131.938 744.305 150.436 736.472C178.4 724.634 195.687 705.383 210.938 688.402C211.852 687.385 212.757 686.378 213.653 685.383C217.251 681.416 220.757 677.619 224.077 674.096C237.366 660.028 251.787 645.373 269.078 634.344C289.713 621.182 312.839 610.11 335.958 602.326C356.032 595.567 376.219 591.517 397.67 589.942C419.763 588.32 442.708 589.352 467.819 593.103C501.375 598.114 538.298 608.6 577.561 624.271C597.438 632.24 618.656 640.597 640.306 647.513C689.931 663.372 733.709 670.016 774.141 667.821C788.911 667.028 803.967 665.277 818.884 662.62C837.286 659.282 854.748 654.803 870.781 649.306C897.763 640.058 925.95 629.038 948.004 605.229C959.607 592.699 967.496 577.681 972.117 559.319C980.352 526.608 977.549 488.131 975.077 454.182C973.832 437.101 972.658 420.967 972.896 406.671C972.981 401.513 973.017 396.205 973.051 391.073C973.157 375.014 973.267 358.41 974.915 342.225C976.777 323.397 980.616 306.777 986.324 292.827C992.882 276.805 1001.76 264.797 1012.72 257.14C1019.56 252.353 1027.1 248.77 1035.75 246.182C1059.92 238.954 1089.3 242.641 1117.45 247.703C1143.44 252.376 1171.11 261.588 1197.48 274.341C1226.77 288.461 1256.43 307.555 1285.62 331.087C1311.72 352.132 1337.35 376.622 1361.79 403.882L1361.4 404.321C1309.44 346.379 1252.69 301.641 1197.3 274.942C1170.98 262.213 1143.36 253.018 1117.42 248.355C1089.34 243.303 1060.03 239.624 1035.97 246.821C1027.37 249.394 1019.88 252.956 1013.07 257.71C992.849 271.848 979.507 301.913 975.508 342.37C973.861 358.521 973.753 375.109 973.647 391.151C973.614 396.286 973.578 401.594 973.493 406.757C973.255 421.021 974.429 437.139 975.67 454.202C978.145 488.204 980.952 526.743 972.691 559.563C968.043 578.026 960.111 593.127 948.443 605.729C938.315 616.662 926.198 625.73 911.392 633.445C907.394 635.545 903.336 637.458 899.291 639.228Z" fill="white" fill-opacity="0.3"/>
<path d="M919.723 633.203C919.582 633.265 919.444 633.325 919.303 633.387C905.424 639.412 890.942 643.373 877.296 646.915C860.738 651.213 842.721 654.462 823.745 656.576C808.441 658.233 793.042 659.016 777.981 658.905C738.06 658.632 695.09 650.035 642.747 631.846C623.898 625.299 604.845 617.704 586.419 610.364C584.114 609.444 581.808 608.527 579.503 607.61C540.143 592.022 502.805 583.055 468.529 580.961C421.594 578.096 379.386 586.923 339.493 607.948C317.619 619.478 296.168 634.216 277.459 650.569C262.698 663.473 251.234 678.83 237.777 697.565C235.054 701.372 232.157 705.463 228.664 710.439L228.47 710.718C221.747 720.355 214.127 731.277 204.573 741.227C193.601 752.654 181.766 761.021 168.416 766.825C147.593 775.864 124.379 780.603 101.93 785.182C96.4301 786.304 90.741 787.466 85.2791 788.654C69.6176 792.068 56.7915 795.943 46.0688 800.503C6.58716 817.295 -25.4315 839.461 -41.7773 861.314L-42.2945 860.813C-34.2884 850.108 -22.0673 838.915 -6.95405 828.445C8.18701 817.955 26.4228 808.057 45.7788 799.825C56.5323 795.251 69.3902 791.365 85.0854 787.945C90.5511 786.754 96.2403 785.593 101.742 784.47C124.164 779.895 147.348 775.163 168.121 766.146C168.214 766.106 168.308 766.065 168.4 766.024C198.076 753.039 214.631 729.311 227.941 710.233L228.137 709.953C231.631 704.974 234.528 700.883 237.254 697.075C250.733 678.308 262.217 662.924 277.025 649.98C295.765 633.598 317.251 618.836 339.162 607.287C358.685 596.999 378.192 589.794 398.806 585.261C421.018 580.376 443.812 578.733 468.489 580.241C502.83 582.339 540.231 591.318 579.655 606.932C581.961 607.849 584.268 608.768 586.572 609.688C604.991 617.027 624.038 624.618 642.871 631.161C695.147 649.329 738.056 657.915 777.91 658.188C792.951 658.299 808.326 657.516 823.61 655.862C842.56 653.751 860.55 650.506 877.081 646.214C906.693 638.53 935.131 629.744 957.548 606.964C969.712 594.6 977.657 579.486 981.831 560.755C989.372 526.92 984.078 486.926 979.408 451.636C977.222 435.115 975.155 419.509 974.569 405.892C974.344 400.652 974.057 395.256 973.778 390.037C972.909 373.718 972.01 356.847 972.704 340.264C973.452 321.059 976.27 303.859 981.076 289.146C986.557 272.375 994.508 259.329 1004.71 250.372C1011.04 244.818 1018.04 240.397 1026.1 236.87C1026.28 236.793 1026.45 236.717 1026.63 236.642C1051.75 225.831 1083.39 227.925 1108.15 230.957C1134.53 234.189 1162.61 242.467 1189.37 254.897C1219.15 268.681 1249.06 287.978 1278.28 312.253C1304.49 334.037 1329.8 359.503 1353.5 387.951L1353.05 388.409C1317.79 346.082 1260.73 288.679 1189.18 255.563C1162.49 243.159 1134.47 234.901 1108.16 231.676C1083.47 228.651 1051.93 226.561 1026.92 237.321C1018.69 240.857 1011.57 245.323 1005.15 250.961C986.246 267.558 974.953 299.315 973.352 340.382C972.659 356.926 973.556 373.78 974.425 390.08C974.704 395.301 974.991 400.7 975.217 405.942C975.802 419.525 977.864 435.112 980.05 451.614C984.729 486.967 990.033 527.038 982.462 561.004C978.261 579.86 970.262 595.076 958.014 607.522C947.633 618.068 935.102 626.474 919.723 633.203Z" fill="white" fill-opacity="0.3"/>
<path d="M936.509 629.651C933.524 630.957 930.424 632.179 927.201 633.32C913.095 638.316 898.51 641.167 883.563 643.882C866.236 647.031 848.203 648.991 828.434 649.874C812.773 650.526 797.054 650.342 781.713 649.323C742.804 646.762 700.726 636.341 645.277 615.538C631.507 610.373 617.539 604.747 604.03 599.305C596.677 596.344 589.075 593.279 581.575 590.32C541.809 574.689 504.016 567.233 469.244 568.158C423.3 569.378 381.937 584.019 342.79 612.919C322.107 628.189 302.294 646.611 285.493 666.194C271.997 681.925 262.164 700.026 251.754 719.19L251.034 720.515C249.41 723.515 247.772 726.554 246.113 729.628C245.158 731.401 244.196 733.185 243.226 734.983C237.189 746.235 230.552 758.122 221.698 768.91C211.417 781.435 199.783 790.475 186.126 796.548C163.388 806.653 137.413 810.602 112.293 814.413C108.707 814.956 104.998 815.521 101.407 816.087C84.5698 818.741 71.6645 821.676 60.7866 825.321C20.6458 838.773 -14.7464 857.158 -36.3172 875.765L-36.7875 875.125C-15.1602 856.469 20.3031 838.042 60.5142 824.568C71.422 820.912 84.361 817.971 101.23 815.311C104.824 814.746 108.533 814.181 112.12 813.638C136.933 809.872 162.581 805.978 185.074 796.135C185.317 796.029 185.559 795.923 185.802 795.814C214.82 782.912 229.233 759.459 242.614 734.523C243.585 732.725 244.547 730.941 245.501 729.169C247.16 726.092 248.797 723.056 250.421 720.053L251.141 718.728C261.57 699.532 271.419 681.4 284.959 665.617C301.789 645.997 321.637 627.543 342.356 612.247C381.602 583.274 423.076 568.595 469.145 567.371C504.004 566.447 541.885 573.918 581.739 589.583C589.239 592.545 596.843 595.606 604.197 598.57C617.701 604.011 631.665 609.635 645.427 614.797C700.81 635.577 742.83 645.983 781.671 648.541C796.99 649.557 812.686 649.743 828.325 649.089C848.065 648.208 866.072 646.252 883.373 643.107C909.636 638.334 942.323 632.397 967.081 608.678C979.811 596.485 987.81 581.274 991.534 562.175C998.357 527.192 990.441 485.651 983.46 449.003C980.426 433.081 977.561 418.043 976.235 405.102C975.717 400.06 975.138 394.865 974.576 389.84C972.693 372.987 970.747 355.561 970.484 338.293C970.132 318.691 971.926 300.913 975.817 285.453C980.225 267.934 987.251 253.852 996.698 243.596C1002.76 237.013 1009.56 231.615 1017.5 227.09C1028.12 221.031 1040.53 217.107 1055.44 215.087C1068.06 213.381 1082.25 213.089 1098.85 214.197C1125.61 215.984 1154.1 223.331 1181.25 235.441C1211.52 248.886 1241.69 268.39 1270.93 293.406C1297.25 315.933 1322.24 342.377 1345.2 372.007L1344.69 372.478C1296.22 309.923 1238.11 261.512 1181.06 236.166C1153.98 224.088 1125.57 216.763 1098.89 214.982C1063.14 212.595 1037.4 216.664 1017.87 227.799C1009.99 232.292 1003.24 237.653 997.216 244.188C974.739 268.587 970.654 308.874 971.185 338.371C971.448 355.596 973.391 373.002 975.272 389.834C975.833 394.862 976.414 400.06 976.932 405.104C978.255 418.006 981.117 433.027 984.147 448.928C991.144 485.656 999.076 527.284 992.221 562.426C988.467 581.676 980.405 597.009 967.574 609.3C958.877 617.631 948.65 624.339 936.509 629.651Z" fill="white" fill-opacity="0.3"/>
<path d="M951.446 627.462C931.103 636.364 908.858 638.78 889.828 640.847C871.924 642.794 853.375 643.552 833.12 643.168C817.11 642.821 801.069 641.669 785.442 639.74C738.608 633.983 691.613 616.869 647.805 599.23C638.861 595.629 629.768 591.862 620.977 588.218C608.77 583.158 596.147 577.927 583.649 573.031C543.35 557.307 505.1 551.358 469.964 555.348C424.512 560.512 383.99 580.966 346.086 617.882C326.569 636.888 308.395 658.995 293.528 681.812C282.06 699.408 274.28 718.692 266.045 739.108C265.461 740.554 264.876 742.006 264.287 743.46L263.968 744.251C261.968 749.218 259.898 754.352 257.785 759.521C252.738 771.946 246.93 785.054 238.687 796.733C229.119 810.29 217.72 819.951 203.834 826.27C179.461 837.363 150.913 840.199 123.308 842.94C121.373 843.132 119.446 843.324 117.53 843.518C99.338 845.354 86.3744 847.396 75.4988 850.135C35.0822 860.316 -3.68755 874.921 -30.8696 890.207L-31.2725 889.443C-4.04727 874.131 34.7792 859.503 75.2498 849.309C86.1562 846.562 99.1478 844.516 117.373 842.677C119.289 842.482 121.215 842.291 123.153 842.1C150.706 839.363 179.196 836.528 203.478 825.483C233.633 811.759 246.962 784.022 257.087 759.1C259.2 753.93 261.27 748.796 263.271 743.832L263.589 743.04C264.178 741.584 264.764 740.135 265.348 738.689C273.598 718.237 281.39 698.92 292.896 681.264C307.791 658.405 326 636.259 345.551 617.219C363.521 599.718 381.682 586.207 401.067 575.915C422.692 564.435 445.816 557.233 469.799 554.51C505.046 550.506 543.408 556.471 583.82 572.237C596.325 577.135 608.951 582.367 621.161 587.429C629.952 591.073 639.04 594.84 647.982 598.439C691.744 616.058 738.684 633.155 785.432 638.901C801.037 640.826 817.055 641.978 833.042 642.325C853.267 642.708 871.787 641.951 889.664 640.008C917.114 637.025 951.276 633.314 976.612 610.403C989.906 598.38 997.959 583.073 1001.23 563.606C1007.31 527.443 996.645 484.337 987.233 446.303C983.452 431.022 979.88 416.588 977.895 404.321C977.161 399.784 976.371 395.109 975.607 390.587C972.621 372.899 969.534 354.608 968.258 336.331C966.813 316.313 967.582 297.952 970.546 281.763C973.889 263.496 979.989 248.378 988.677 236.827C994.32 229.327 1000.76 223.022 1008.36 217.549C1018.6 210.177 1031.18 204.771 1045.74 201.479C1058.5 198.597 1073.23 197.238 1089.53 197.445C1116.67 197.789 1145.58 204.201 1173.13 215.989C1203.88 229.098 1234.3 248.804 1263.57 274.564C1290.01 297.834 1314.68 325.257 1336.9 356.069L1336.33 356.549C1289.25 291.26 1231.22 241.62 1172.93 216.773C1145.47 205.025 1116.66 198.633 1089.61 198.289C1054.55 197.845 1028.12 204.381 1008.82 218.276C1001.27 223.709 994.883 229.969 989.28 237.415C968.609 264.896 966.849 306.391 969.013 336.364C970.284 354.594 973.368 372.861 976.351 390.525C977.115 395.047 977.903 399.725 978.64 404.268C980.618 416.494 984.184 430.909 987.961 446.171C992.488 464.468 997.621 485.205 1000.73 505.392C1004.29 528.52 1004.7 547.643 1001.98 563.853C1000.4 573.226 997.642 581.825 993.772 589.411C989.609 597.57 984.011 604.863 977.13 611.084C969.258 618.205 960.541 623.483 951.446 627.462Z" fill="white" fill-opacity="0.3"/>
<path d="M965.219 626.205C958.494 629.148 951.111 631.463 942.997 633.184C927.016 636.576 910.586 637.231 896.089 637.813C877.817 638.545 858.205 638.09 837.803 636.462C821.458 635.119 805.094 632.999 789.167 630.153C743.463 622.014 699.25 603.946 650.33 582.921C645.983 581.052 641.562 579.14 637.286 577.289C620.451 570.006 603.044 562.475 585.721 555.743C544.812 539.895 506.108 535.454 470.682 542.541C425.995 551.48 385.18 578.498 349.378 622.843C331.007 645.599 314.47 671.387 301.557 697.424C291.834 717.028 285.836 737.75 279.486 759.689C278.842 761.919 278.193 764.155 277.54 766.402C275.916 771.998 274.16 778.011 272.342 784.055C268.545 796.763 263.595 811.515 255.674 824.551C246.807 839.145 235.642 849.431 221.543 855.991C195.734 868.003 164.755 869.471 134.795 870.892L133.654 870.946C118.986 871.644 103.569 872.61 90.2114 874.945C49.496 882.066 8.42898 892.61 -25.4215 904.635L-25.7473 903.77C8.13888 891.732 49.2425 881.178 89.9946 874.052C103.391 871.71 118.834 870.741 133.524 870.042L134.665 869.987C164.559 868.568 195.474 867.099 221.158 855.147C250.819 841.343 262.916 812.639 271.568 783.675C273.387 777.632 275.139 771.622 276.764 766.027C277.418 763.783 278.066 761.544 278.712 759.317C285.072 737.34 291.081 716.582 300.836 696.913C313.772 670.825 330.341 644.988 348.747 622.19C365.545 601.386 383.533 584.244 402.208 571.246C423.548 556.395 446.507 546.434 470.45 541.643C506.011 534.529 544.856 538.984 585.903 554.887C603.241 561.627 620.656 569.16 637.5 576.447C641.774 578.296 646.196 580.208 650.543 582.076C699.415 603.082 743.58 621.13 789.203 629.257C805.107 632.096 821.447 634.214 837.769 635.556C858.142 637.181 877.722 637.636 895.967 636.905C924.568 635.762 960.161 634.336 986.154 612.121C1000.02 600.272 1008.13 584.87 1010.94 565.032C1016.25 527.656 1002.1 481.008 990.739 443.524C986.312 428.924 982.13 415.135 979.57 403.542C978.762 399.888 977.917 396.129 977.098 392.493C972.844 373.605 968.447 354.07 966.049 334.369C962.255 303.738 961.713 260.779 980.67 230.066C985.905 221.586 991.978 214.371 999.234 208.013C1018.18 191.275 1045.43 182.084 1080.23 180.693C1107.75 179.593 1137.07 185.071 1165.01 196.536C1196.25 209.307 1226.94 229.218 1256.23 255.723C1269.66 267.879 1282.75 281.413 1295.15 295.946C1306.98 309.828 1318.24 324.695 1328.61 340.134L1327.98 340.619C1282.29 272.587 1224.34 221.717 1164.81 197.38C1136.97 185.958 1107.77 180.501 1080.35 181.595C1045.71 182.978 1018.6 192.114 999.78 208.746C992.576 215.058 986.55 222.217 981.354 230.634C962.526 261.134 963.076 303.869 966.851 334.35C969.241 354 973.635 373.506 977.881 392.371C978.7 396.007 979.548 399.768 980.355 403.425C982.908 414.978 987.082 428.749 991.503 443.327C997.222 462.189 1003.7 483.566 1007.98 504.55C1012.89 528.662 1014.12 548.526 1011.74 565.274C1010.38 574.829 1007.72 583.551 1003.84 591.194C999.646 599.429 993.878 606.721 986.691 612.861C980.385 618.254 973.271 622.682 965.219 626.205Z" fill="white" fill-opacity="0.3"/>
<path d="M990.486 625.43C981.303 629.449 970.81 631.961 958.791 633.045C941.786 634.579 924.156 633.069 908.604 631.737C888.95 630.054 868.277 627.128 847.163 623.045C830.172 619.734 813.165 615.672 796.613 610.98C755.859 599.434 717.031 580.432 675.923 560.313C669.203 557.024 662.254 553.625 655.381 550.3C631.225 538.623 610.837 529.199 589.865 521.168C547.62 505.024 508.007 503.593 472.125 516.913C427.036 533.65 387.949 572.624 355.951 632.75C340.056 662.621 326.436 696.673 317.601 728.637C310.946 752.717 308.128 776.992 305.145 802.691C304.776 805.875 304.405 809.07 304.025 812.272C303.352 817.983 302.449 825.515 301.44 833.113C297.218 865.148 288.632 899.985 256.955 915.435C255.965 915.914 254.963 916.374 253.955 916.815C228.763 927.838 197.918 927.376 165.882 925.807L163.879 925.703C147.986 924.868 132.973 924.082 119.611 924.574C69.2552 926.43 21.4666 930.308 -14.5407 933.48L-14.7202 932.457C21.2968 929.286 69.0979 925.405 119.472 923.549C132.87 923.055 147.9 923.844 163.814 924.678L165.815 924.783C199.024 926.409 230.953 926.85 256.506 914.489C287.832 899.209 296.339 864.647 300.53 832.852C301.539 825.259 302.44 817.733 303.114 812.024C303.493 808.82 303.863 805.628 304.233 802.444C307.221 776.705 310.042 752.39 316.719 728.234C325.57 696.204 339.218 662.083 355.144 632.153C369.926 604.374 386.533 580.745 404.501 561.918C425.117 540.316 447.742 524.846 471.743 515.935C507.81 502.545 547.622 503.981 590.065 520.199C611.068 528.244 631.476 537.678 655.654 549.364C662.529 552.688 669.479 556.09 676.201 559.378C717.269 579.477 756.058 598.46 796.733 609.982C813.263 614.67 830.244 618.724 847.21 622.031C868.295 626.11 888.936 629.032 908.561 630.711C939.369 633.35 977.711 636.634 1005.22 615.564C1020.26 604.047 1028.48 588.455 1030.34 567.899C1034.08 527.998 1013.46 477.967 996.896 437.766C991.491 424.65 986.385 412.259 982.906 401.997L982.826 401.763C975.038 378.784 966.985 355.023 961.609 330.455C956.893 309.037 954.581 288.938 954.735 270.711C954.911 250.162 958.242 231.941 964.636 216.551C968.913 206.254 974.254 197.225 980.962 188.948C999.055 166.516 1026.94 152.075 1061.59 147.19C1075.54 145.224 1090.1 145.12 1104.88 146.876C1119.73 148.644 1134.5 152.264 1148.76 157.63C1180.97 169.719 1212.18 190.043 1241.52 218.04C1267.89 243.203 1292.27 274.406 1312.02 308.27L1311.26 308.753C1269 236.273 1209.7 181.543 1148.57 158.598C1119.96 147.837 1089.96 144.243 1061.82 148.212C1027.36 153.07 999.649 167.412 981.683 189.689C975.027 197.902 969.73 206.859 965.484 217.074C953.547 245.808 952.518 284.971 962.505 330.329C967.867 354.834 975.91 378.561 983.686 401.508L983.766 401.742C987.231 411.966 992.329 424.339 997.726 437.438C1014.34 477.762 1035.02 527.944 1031.26 568.126C1030.36 578.038 1027.91 587.008 1023.97 594.785C1019.73 603.171 1013.61 610.454 1005.8 616.438C1001.15 619.999 996.059 622.992 990.486 625.43Z" fill="white" fill-opacity="0.3"/>
<path d="M271.35 946.704C260.085 951.633 246.69 954.421 230.541 955.212C214.495 955.998 197.729 954.726 182.002 953.237C179.151 952.96 176.318 952.678 173.505 952.398C159.5 951.003 146.272 949.686 134.316 949.383C86.6424 948.182 41.6416 948.045 -1.8771 947.916L-9.08837 947.893L-9.20088 946.808L-1.98961 946.831C41.533 946.964 86.5396 947.099 134.223 948.301C146.211 948.603 159.455 949.921 173.477 951.319C176.289 951.6 179.121 951.882 181.969 952.158C214.255 955.214 247.967 957.116 274.188 944.158C306.385 928.152 312.923 889.404 315.02 857.439C315.563 849.262 315.989 841.162 316.299 835.02C316.472 831.634 316.637 828.255 316.8 824.884C318.162 796.936 319.448 770.538 324.672 743.893C331.568 708.727 343.528 670.812 358.354 637.135C372.107 605.89 388.015 578.998 405.639 557.205C425.853 532.208 448.313 513.998 472.394 503.081C508.56 486.496 548.857 486.418 592.151 502.852C616.159 511.981 639.02 523.218 658.219 533.006C668.665 538.333 679.203 543.868 689.395 549.22C725.473 568.17 762.778 587.763 800.506 600.345C817.36 605.969 834.666 610.991 851.939 615.27C873.302 620.539 894.473 624.694 914.866 627.616C946.742 632.182 986.412 637.866 1014.76 617.283C1030.37 605.955 1038.64 590.269 1040.05 569.33C1042.91 528.077 1018.85 476.317 999.516 434.729C993.8 422.43 988.397 410.813 984.585 401.225C975.987 379.613 966.244 354.386 959.4 328.496C953.584 306.567 950.242 285.886 949.468 267.032C948.592 245.703 951.002 226.447 956.629 209.796C960.357 198.762 965.474 188.542 971.835 179.419C980.901 166.375 992.718 155.496 1006.96 147.087C1020.3 139.21 1035.55 133.61 1052.28 130.44C1066.39 127.767 1081.15 127.069 1096.14 128.368C1111.22 129.675 1126.2 132.975 1140.65 138.176C1157.3 144.158 1173.88 152.57 1189.93 163.179C1205.14 173.23 1220.03 185.349 1234.18 199.197C1260.64 225.105 1284.7 257.315 1303.72 292.338L1302.91 292.817C1262.04 217.607 1202.83 161.619 1140.45 139.207C1111.87 128.92 1080.66 126.187 1052.55 131.511C1017.8 138.096 990.167 154.913 972.63 180.146C966.319 189.196 961.245 199.335 957.545 210.281C946.942 241.655 947.878 281.364 960.331 328.307C967.153 354.128 976.882 379.31 985.466 400.888C989.266 410.441 994.658 422.041 1000.37 434.323C1009.91 454.84 1020.72 478.097 1028.87 501.585C1038.33 528.841 1042.3 551.068 1041.02 569.538C1040.34 579.634 1037.99 588.73 1034.03 596.569C1029.76 605.036 1023.48 612.319 1015.36 618.212C1011.26 621.187 1006.93 623.618 1002.43 625.586C975.49 637.377 942.3 632.62 914.857 628.689C894.434 625.761 873.231 621.602 851.838 616.324C834.541 612.039 817.211 607.009 800.332 601.378C762.526 588.77 725.182 569.157 689.07 550.189C678.881 544.838 668.346 539.305 657.905 533.981C638.731 524.204 615.903 512.982 591.939 503.871C548.878 487.524 508.816 487.601 472.85 504.088C416.264 529.742 379.833 590.903 359.237 637.696C344.442 671.306 332.504 709.142 325.624 744.236C320.416 770.802 319.131 797.159 317.77 825.063C317.606 828.434 317.44 831.814 317.268 835.202C316.957 841.347 316.531 849.452 315.99 857.637C315.109 871.056 313.18 890.873 306.619 907.965C303.432 916.265 299.335 923.485 294.443 929.426C288.987 936.05 282.332 941.343 274.666 945.153C273.581 945.695 272.475 946.211 271.35 946.704Z" fill="white" fill-opacity="0.3"/>
<path d="M288.738 976.592C277.46 981.527 264.002 984.106 247.75 984.462C230.924 984.833 213.217 982.75 198.116 980.661C193.474 980.015 188.826 979.334 184.33 978.675C171.762 976.835 159.889 975.095 149.017 974.191C109.972 970.94 71.3108 968.005 33.9195 965.165C21.5515 964.226 8.7638 963.255 -3.63529 962.303L-3.68658 961.159C8.71251 962.111 21.5002 963.082 33.8682 964.021C71.2595 966.861 109.926 969.797 148.974 973.049C159.875 973.956 171.761 975.696 184.344 977.54C188.838 978.2 193.486 978.879 198.124 979.526C229.441 983.852 265.095 987.337 291.864 973.826C324.712 957.196 329.236 916.03 329.51 882.024C329.582 873.312 329.534 864.617 329.483 858.016C329.458 854.628 329.427 851.245 329.396 847.87C329.115 817.518 328.848 788.85 332.627 759.554C337.542 721.451 347.82 679.745 361.564 642.118C380.773 589.877 415.708 521.121 473.045 490.233C509.473 470.506 550.25 468.915 594.24 485.51C614.007 492.972 634.529 502.577 660.785 516.656C674.054 523.771 687.43 531.309 700.364 538.596C734.017 557.557 768.813 577.165 804.284 590.719C821.47 597.288 839.096 603.277 856.672 608.52C877.95 614.855 899.654 620.242 921.178 624.533C954.193 631.017 995.284 639.09 1024.31 619.016C1040.25 608.08 1048.81 591.85 1049.76 570.778C1051.71 528.111 1022.88 472.327 1001.82 431.597C995.913 420.166 990.332 409.37 986.269 400.469C977.237 380.687 965.771 354.409 957.196 326.554C942.318 278.294 939.434 236.742 948.629 203.056C951.831 191.204 956.572 180.05 962.714 169.904C971.448 155.46 983.079 143.225 997.29 133.54C1010.68 124.417 1026.05 117.743 1042.97 113.703C1057.28 110.346 1072.23 109.067 1087.42 109.895C1102.75 110.733 1117.93 113.707 1132.53 118.732C1149.42 124.536 1166.19 132.918 1182.39 143.648C1197.73 153.818 1212.69 166.171 1226.84 180.369C1253.4 207.025 1277.12 240.24 1295.44 276.422L1294.56 276.891C1255.1 198.942 1195.97 141.693 1132.34 119.826C1103.49 109.899 1071.87 108.123 1043.3 114.825C1008.15 123.22 980.583 142.512 963.591 170.619C957.497 180.682 952.797 191.746 949.62 203.503C940.485 236.966 943.361 278.279 958.168 326.301C966.718 354.081 978.163 380.305 987.177 400.05C991.227 408.919 996.801 419.702 1002.7 431.118C1013.58 452.172 1025.92 476.038 1035.51 500.413C1046.66 528.797 1051.66 551.876 1050.79 570.971C1050.32 581.265 1048.08 590.489 1044.11 598.388C1039.81 606.951 1033.36 614.226 1024.92 620.012C1011.87 629.04 995.411 633.262 974.612 632.918C956.532 632.617 937.719 628.922 921.123 625.664C899.566 621.368 877.834 615.973 856.525 609.629C838.923 604.379 821.272 598.382 804.063 591.805C768.517 578.224 733.683 558.595 699.996 539.614C687.067 532.327 673.695 524.795 660.438 517.686C634.227 503.633 613.744 494.046 594.023 486.602C550.291 470.099 509.771 471.674 473.575 491.275C416.485 522.034 381.671 590.573 362.519 642.656C348.802 680.207 338.545 721.826 333.641 759.848C329.872 789.062 330.139 817.689 330.421 847.996C330.452 851.373 330.484 854.756 330.509 858.144C330.56 864.75 330.609 873.452 330.536 882.173C330.261 916.481 325.675 958.024 292.374 974.883C291.189 975.479 289.975 976.051 288.738 976.592Z" fill="white" fill-opacity="0.3"/>
<path d="M306.199 1006.45C275.382 1019.94 233.316 1011.84 196.023 1004.67C184.564 1002.46 173.74 1000.38 163.716 999L1.81678 976.713L1.82295 975.517L163.722 997.804C173.772 999.187 184.609 1001.27 196.083 1003.48C234.817 1010.93 278.721 1019.38 309.54 1003.5C343.005 986.255 345.534 942.663 344 906.615C343.499 894.825 342.785 882.917 342.095 871.4C340.211 839.904 338.26 807.335 340.577 775.215C342.417 749.711 346.458 722.04 352.264 695.197C358.632 665.749 366.952 637.647 376.988 611.676C388.054 583.042 400.963 557.713 415.354 536.395C431.272 512.816 448.982 494.221 467.993 481.121C506.079 454.88 549.253 450.519 596.316 468.164C635.426 482.825 673.178 505.597 709.688 527.619C741.467 546.789 774.327 566.608 808.05 581.086C847.003 597.806 887.183 611.384 927.477 621.437C961.427 629.91 1003.68 640.456 1033.84 620.732C1059.31 604.075 1065.75 575.498 1053.52 533.366C1043.11 497.529 1021.3 459.159 1003.78 428.33C997.808 417.823 992.169 407.899 987.943 399.699C964.647 354.495 949.733 315.289 942.349 279.846C937.742 257.731 936.121 236.931 937.531 218.023C939.105 196.902 944.505 177.506 953.579 160.376C961.43 145.555 971.953 132.682 984.859 122.111C997.144 112.049 1011.31 104.278 1026.97 99.0145C1057.77 88.6615 1092.38 88.7547 1124.4 99.2757C1141.52 104.899 1158.49 113.253 1174.82 124.105C1190.31 134.39 1205.33 146.979 1219.48 161.527C1246.13 188.932 1269.53 223.154 1287.13 260.492L1286.19 260.951C1248.69 181.441 1188.14 121.433 1124.21 100.434C1056.32 78.1317 984.954 103.636 954.525 161.08C924.381 217.984 935.613 295.873 988.863 399.197C993.074 407.371 998.708 417.282 1004.67 427.775C1022.23 458.672 1044.09 497.123 1054.54 533.123C1060.23 552.732 1061.89 569.769 1059.45 583.764C1058.08 591.633 1055.4 598.751 1051.46 604.916C1047.28 611.477 1041.56 617.155 1034.47 621.794C1031.57 623.69 1028.5 625.348 1025.26 626.765C1013.46 631.927 999.362 633.92 982.485 632.842C963.471 631.628 943.449 626.631 927.361 622.617C887.012 612.547 846.776 598.953 807.767 582.209C773.969 567.702 741.073 547.858 709.26 528.669C672.796 506.674 635.091 483.93 596.08 469.307C549.335 451.784 506.455 456.111 468.632 482.172C392.123 534.887 349.176 671.155 341.65 775.457C339.338 807.488 341.285 840.013 343.167 871.467C343.857 882.989 344.572 894.905 345.074 906.706C346.092 930.638 344.666 948.718 340.584 963.6C338.036 972.887 334.381 980.928 329.721 987.501C324.539 994.807 317.931 1000.56 310.08 1004.61C308.811 1005.26 307.515 1005.88 306.199 1006.45Z" fill="white" fill-opacity="0.3"/>
</g>
</svg>
