<svg width="1334" height="405" viewBox="0 0 1334 405" fill="none" xmlns="http://www.w3.org/2000/svg">
<path d="M5.62312 90.8945C-5.37017 72.3602 -33.9863 43.1242 -52 32.0226V409.732H1333V122.249C1324.52 127.53 1311.95 138.144 1305.07 145.835L1292.56 159.819L1280.28 148.572C1240.61 112.241 1181.6 112.369 1140.77 148.87L1128.37 159.954L1123.18 154.427C1115.35 146.093 1092.97 136.001 1078.22 134.161L1065.12 132.524L1062.45 122.054C1054.01 88.9706 1027.31 61.897 994.29 52.9579C972.333 47.014 945.348 49.1497 926.058 58.3583C907.333 67.2953 889.647 84.4424 880.544 102.48L873.525 116.384L867.419 106.754C847.659 75.5873 804.867 56.693 768.095 62.8976C749.797 65.9833 727.505 76.0246 717.464 85.7037C716.011 71.2271 712.759 43.5583 703 37.6232C671 8.12317 659 14.1232 629 17.6232C614.093 19.3623 583.33 38.9495 580.922 50.5657L579.597 56.9602L573.937 49.7241C570.823 45.746 562.392 38.1565 555.201 32.862C512.62 1.50988 447.607 10.0448 414.959 51.2747C407.773 60.3486 394.591 86.1256 394.589 91.1087C394.586 94.8792 394.591 94.8792 380.038 86.1146C372.958 81.8493 363.645 77.383 359.343 76.188C342.588 71.5318 320.895 74.2421 299.5 83.6649C296.828 84.8422 295.238 82.5672 292.37 73.4646C287.922 59.3502 278.731 44.4008 267.742 33.4097C226.684 -7.65457 155.733 -2.73105 121.671 43.5483C106.683 63.9137 102.222 77.7034 102.116 104.008L102.025 126.295L93.1675 124.261C76.2249 120.367 51.1421 125.677 36.1495 136.33C32.7398 138.756 29.6304 140.381 29.2395 139.944C28.8508 139.509 25.4852 131.848 21.7619 122.923C18.0408 113.997 10.7775 99.584 5.62312 90.8945Z" fill="url(#paint0_linear_66_414)"/>
<path d="M-106.222 172.566C-118.771 159.054 -151.437 137.741 -172 129.648V405H1409V195.423C1399.32 199.273 1384.97 207.011 1377.12 212.617L1362.84 222.812L1348.82 214.613C1303.53 188.127 1236.17 188.221 1189.56 214.83L1175.41 222.91L1169.48 218.881C1160.55 212.806 1135 205.449 1118.17 204.107L1103.21 202.914L1100.16 195.282C1090.53 171.163 1060.04 151.427 1022.36 144.91C997.292 140.577 966.49 142.134 944.469 148.847C923.095 155.362 902.905 167.862 892.514 181.011L884.502 191.148L877.532 184.127C854.975 161.407 806.128 147.633 764.152 152.156C743.264 154.405 717.818 161.726 706.356 168.782L706.342 168.694C704.661 157.997 698.1 116.255 686.991 111.94C676.717 93.3502 585.511 85.7629 567.132 106.108C558.57 115.585 553.239 134.698 550.491 143.166L548.979 147.828L542.518 142.552C538.963 139.652 529.338 134.12 521.13 130.26C472.522 107.404 398.31 113.626 361.041 143.683C352.838 150.298 337.791 169.089 337.788 172.722C337.786 175.471 337.791 175.471 321.178 169.081C313.096 165.972 302.465 162.716 297.555 161.845C278.429 158.45 253.666 160.426 229.243 167.295C226.193 168.154 224.378 166.495 221.103 159.859C216.026 149.57 205.534 138.672 192.99 130.659C146.122 100.723 65.1306 104.312 26.2483 138.05C9.13896 152.897 4.04677 162.949 3.92577 182.126L3.82242 198.373L-6.28891 196.89C-25.6292 194.051 -54.2616 197.922 -71.3759 205.689C-75.2682 207.457 -78.8176 208.642 -79.2638 208.323C-79.7075 208.006 -83.5493 202.421 -87.7996 195.914C-92.0473 189.407 -100.339 178.901 -106.222 172.566Z" fill="url(#paint1_linear_66_414)" fill-opacity="0.1"/>
<defs>
<linearGradient id="paint0_linear_66_414" x1="640.5" y1="-16.8768" x2="640.5" y2="409.732" gradientUnits="userSpaceOnUse">
<stop offset="0.130208" stop-color="white"/>
<stop offset="1" stop-color="#132F66" stop-opacity="0.15"/>
</linearGradient>
<linearGradient id="paint1_linear_66_414" x1="618.5" y1="94" x2="618.5" y2="405" gradientUnits="userSpaceOnUse">
<stop stop-color="#132F66" stop-opacity="0.9"/>
<stop offset="1" stop-color="#174585" stop-opacity="0.56"/>
</linearGradient>
</defs>
</svg>
