<svg width="1334" height="188" viewBox="0 0 1334 188" fill="none" xmlns="http://www.w3.org/2000/svg">
<path d="M-180.325 12.8384C-278.371 11.5054 -324.725 27.3055 -402 65.8477V703.669C-293.836 496.593 333.961 426.652 488.246 604.49C642.532 782.328 1398 703.669 1398 703.669L1378.49 65.8477C1378.49 65.8477 871.301 245.398 709.921 129.118C548.542 12.8384 55.5369 5.99951 55.5369 5.99951L-180.325 12.8384Z" fill="white" stroke="white"/>
<path d="M-196.325 18.0871C-294.371 16.7056 -340.725 33.0802 -418 73.024V734.039C-309.836 519.433 317.961 446.949 472.246 631.254C626.532 815.558 1382 734.039 1382 734.039L1362.49 73.024C1362.49 73.024 855.3 259.103 693.921 138.595C532.542 18.0871 39.5369 10.9995 39.5369 10.9995L-196.325 18.0871Z" fill="#132F66"/>
</svg>
