<svg width="1338" height="633" viewBox="0 0 1338 633" fill="none" xmlns="http://www.w3.org/2000/svg">
<g opacity="0.3">
<path d="M105.76 626.163C98.3884 626.163 91.2132 625.654 84.3174 624.638C69.8557 622.507 56.4947 618.13 44.6054 611.63C31.8262 604.646 20.6184 595.128 11.29 583.344C-7.4581 559.657 -16.8378 531.291 -25.9096 503.858C-27.692 498.471 -29.5343 492.901 -31.4051 487.496C-44.17 450.661 -60.3514 418.395 -80.8705 388.855C-121.803 329.928 -179.368 279.638 -247.345 243.422C-325.959 201.541 -410.482 180.678 -485.346 184.678C-529.347 187.031 -587.485 209.398 -613.468 247.598C-628.888 270.269 -630.132 295.428 -617.062 320.351L-617.321 320.456C-624.174 307.385 -627.16 294.281 -626.193 281.509C-625.306 269.792 -621.108 258.339 -613.714 247.467C-601.953 230.176 -582.557 214.85 -557.623 203.146C-534.583 192.332 -508.922 185.684 -485.363 184.425C-446.184 182.333 -404.516 186.975 -361.516 198.226C-322.537 208.425 -284.074 223.558 -247.196 243.204C-179.18 279.44 -121.581 329.758 -80.6253 388.72C-60.0948 418.28 -43.9048 450.563 -31.1313 487.419C-29.2577 492.823 -27.4154 498.396 -25.6358 503.782C-16.5726 531.196 -7.19856 559.542 11.5239 583.194C29.6303 606.07 54.1391 619.929 84.3659 624.383C126.225 630.552 177.057 617.649 220.337 589.864C282.707 549.827 325.992 491.549 367.854 435.193C375.192 425.314 382.778 415.1 390.29 405.236C409.791 379.624 436.202 346.435 467.589 316.867C499.673 286.645 532.275 264.44 567.262 248.982C588.676 239.52 611.371 233.145 634.716 230.035C656.279 227.161 679.103 226.983 702.554 229.501C742.779 233.822 786.116 246.028 835.042 266.813C931.378 307.744 1027.61 357.424 1121.07 414.478C1209.89 468.705 1297.01 530.067 1380 596.854L1379.81 597.039C1207.78 458.593 1024.45 347.566 834.917 267.039C727.835 221.544 642.827 215.876 567.39 249.205C490.644 283.111 437.032 344.301 390.527 405.374C383.018 415.235 375.432 425.45 368.094 435.328C326.22 491.705 282.92 550 220.508 590.065C200.339 603.013 177.65 613.112 154.895 619.269C142.875 622.522 130.925 624.648 119.375 625.591C114.772 625.975 110.229 626.163 105.76 626.163Z" fill="white" fill-opacity="0.5"/>
<path d="M112.967 612.117C94.168 612.117 76.7545 608.97 61.192 602.758C43.8384 595.831 28.8634 585.097 16.6803 570.858C15.6023 569.596 14.5328 568.292 13.5004 566.978C-5.04804 543.394 -14.8441 515.397 -24.3151 488.319C-26.2316 482.847 -28.2107 477.187 -30.2184 471.695C-42.1763 438.992 -56.5753 410.17 -74.2425 383.584C-76.4185 380.311 -78.6715 377.031 -80.9444 373.836C-122.479 315.415 -180.511 265.762 -248.767 230.244C-327.949 189.077 -412.712 169.077 -487.442 173.93C-531.124 176.796 -588.994 199.53 -615.088 237.436C-630.713 260.135 -632.481 285.344 -620.207 310.339L-620.469 310.44C-626.903 297.339 -629.547 284.21 -628.323 271.423C-627.2 259.678 -622.831 248.2 -615.333 237.306C-603.452 220.044 -584.114 204.701 -559.414 192.937C-536.585 182.063 -511.035 175.224 -487.468 173.679C-448.337 171.139 -406.623 175.337 -363.486 186.156C-324.413 195.956 -285.767 210.718 -248.625 230.028C-180.329 265.567 -122.265 315.25 -80.7048 373.703C-78.4319 376.9 -76.1761 380.183 -74.0001 383.458C-56.3215 410.062 -41.9139 438.9 -29.9504 471.619C-27.9398 477.112 -25.9607 482.772 -24.0442 488.247C-14.5761 515.306 -4.7885 543.284 13.7343 566.835C14.7638 568.144 15.8333 569.448 16.9084 570.707C42.0846 600.142 76.6776 612.117 113.056 612.117C113.255 612.117 113.452 612.117 113.652 612.117C113.424 612.114 113.196 612.117 112.967 612.117ZM120.727 611.941C154.547 610.414 189.446 598.986 219.384 581.985C283.965 545.162 330.378 488.289 375.267 433.289C377.115 431.022 378.963 428.76 380.811 426.498C384.869 421.533 389.68 415.654 394.591 409.728C416.621 383.152 443.283 352.231 473.989 324.399C506.66 294.783 539.3 272.807 573.77 257.211C594.951 247.638 617.335 240.895 640.301 237.168C661.578 233.715 684.065 232.739 707.128 234.266C746.972 236.907 789.812 246.918 838.1 264.875C885.178 282.354 923.878 298.808 959.888 316.657C1010.9 341.966 1059.49 371.127 1100.3 396.314C1195.17 455.038 1288.26 521.719 1376.97 594.507L1376.78 594.69C1288.07 521.912 1195 455.236 1100.14 396.519C1059.34 371.335 1010.75 342.179 959.751 316.877C923.749 299.034 885.061 282.585 837.991 265.11C732.801 225.993 648.882 223.553 573.901 257.436C496.08 292.642 440.66 354.583 394.822 409.879C389.908 415.805 385.1 421.681 381.042 426.649C379.194 428.908 377.346 431.173 375.498 433.44C330.595 488.457 284.164 545.35 219.538 582.201C203.514 591.299 186.462 598.527 168.855 603.68C152.466 608.473 136.31 611.244 120.727 611.941Z" fill="white" fill-opacity="0.5"/>
<path d="M120.914 598.392C118.653 598.392 116.405 598.349 114.175 598.261C95.393 597.532 78.011 593.742 62.514 586.994C45.5655 579.613 30.8813 568.681 18.8721 554.499C17.8055 553.236 16.7418 551.929 15.7151 550.615C-2.62516 527.146 -12.8291 499.522 -22.6936 472.811C-24.7498 467.244 -26.8773 461.486 -29.0333 455.898C-41.5814 423.306 -56.3597 394.714 -74.218 368.487C-76.4282 365.244 -78.7154 361.992 -81.0226 358.822C-123.159 300.91 -181.659 251.895 -250.194 217.073C-329.941 176.621 -414.943 157.481 -489.542 163.187C-531.544 166.45 -589.246 187.887 -616.68 227.24C-632.531 249.976 -634.838 275.253 -623.354 300.336L-623.619 300.429C-629.636 287.288 -631.932 274.129 -630.449 261.319C-629.086 249.537 -624.534 238.029 -616.923 227.109C-604.917 209.888 -585.641 194.54 -561.178 182.72C-538.562 171.794 -513.13 164.769 -489.568 162.939C-450.483 159.952 -408.723 163.703 -365.452 174.091C-326.282 183.495 -287.457 197.883 -250.052 216.857C-181.476 251.701 -122.945 300.745 -80.783 358.689C-78.4759 361.861 -76.1858 365.114 -73.9756 368.362C-56.1088 394.604 -41.3219 423.213 -28.7681 455.823C-26.6121 461.413 -24.4846 467.171 -22.4284 472.738C-12.5667 499.435 -2.37133 527.038 15.9461 550.479C16.9728 551.793 18.0308 553.098 19.0974 554.357C67.8955 611.982 154.375 605.795 218.431 574.103C285.706 540.526 335.702 484.718 384.052 430.75L384.548 430.195C389.231 424.964 394.073 419.557 398.893 414.218C449.75 357.891 505.649 300.005 580.282 265.434C601.235 255.749 623.311 248.637 645.892 244.296C666.896 240.258 689.041 238.485 711.71 239.027C751.234 239.97 793.578 247.789 841.164 262.932C891.174 278.789 928.807 293.364 963.189 310.195C1012.18 334.222 1059.63 364.585 1101.49 391.374C1194.71 451.339 1286.37 518.891 1373.95 592.147L1373.75 592.328C1286.18 519.079 1194.53 451.535 1101.32 391.574C1059.46 364.79 1012.02 334.433 963.049 310.413C928.682 293.588 891.06 279.017 841.067 263.165C737.918 230.342 655.095 231.132 580.413 265.653C505.829 300.201 449.953 358.062 399.115 414.368C394.296 419.707 389.453 425.117 384.771 430.346L384.274 430.9C360.179 457.794 335.265 485.604 308.361 510.444C278.126 538.359 248.754 559.252 218.567 574.317C186.986 589.94 152.584 598.392 120.914 598.392Z" fill="white" fill-opacity="0.5"/>
<path d="M1370.73 589.963C1284.3 516.242 1194.06 447.83 1102.52 386.629C1098.64 384.056 1094.76 381.47 1090.86 378.877C1051.2 352.489 1010.2 325.204 966.359 303.947C923.824 283.383 880.715 270.809 844.155 261.221C743.236 234.593 661.505 238.613 586.937 273.868C510.391 310.167 451.078 370.433 403.421 418.86C400.56 421.766 397.706 424.678 394.845 427.592C392.735 429.744 390.622 431.895 388.508 434.045C361.373 461.646 336.69 486.323 309.418 508.841C278.261 534.564 248.231 553.403 217.605 566.437C188.904 578.652 158.244 585.115 129.725 585.118C124.529 585.118 119.41 584.905 114.38 584.471C96.0137 582.888 79.011 578.442 63.8448 571.254C47.2955 563.412 32.9022 552.272 21.0584 538.143C20.0004 536.877 18.9452 535.568 17.9243 534.251C-0.199265 510.905 -10.7996 483.67 -21.0491 457.333C-23.2565 451.66 -25.5408 445.791 -27.8508 440.096C-40.9979 407.607 -56.1583 379.243 -74.1935 353.382C-76.4379 350.165 -78.7621 346.942 -81.1006 343.8C-123.841 286.397 -182.806 238.018 -251.619 203.892C-331.93 164.155 -417.169 145.88 -491.636 152.43C-542.545 156.997 -594.602 183.545 -618.233 216.988C-634.332 239.771 -637.186 265.128 -626.495 290.317L-626.763 290.405C-632.361 277.216 -634.312 264.017 -632.561 251.175C-630.949 239.35 -626.21 227.804 -618.475 216.855C-606.344 199.683 -587.131 184.335 -562.913 172.473C-540.514 161.501 -515.213 154.294 -491.665 152.182C-452.626 148.746 -410.823 152.054 -367.418 162.01C-328.154 171.019 -289.143 185.035 -251.476 203.671C-182.621 237.818 -123.625 286.224 -80.8582 343.662C-78.5169 346.806 -76.1926 350.032 -73.9482 353.249C-55.9016 379.125 -40.7355 407.504 -27.5799 440.008C-25.2699 445.706 -22.9856 451.572 -20.7782 457.247C-10.5344 483.57 0.060275 510.788 18.161 534.106C19.182 535.42 20.2343 536.726 21.2895 537.99C72.2321 598.765 158.817 591.174 217.483 566.209C287.476 536.42 341.036 481.945 388.295 433.879C390.408 431.727 392.518 429.576 394.631 427.426C397.489 424.512 400.346 421.601 403.207 418.694C430.411 391.053 457.275 364.191 486.809 339.438C520.772 310.972 553.482 289.452 586.806 273.647C607.539 263.844 629.302 256.363 651.492 251.415C672.231 246.788 694.036 244.22 716.303 243.779C755.573 243.001 797.424 248.629 844.24 260.98C880.812 270.573 923.941 283.152 966.499 303.729C1010.36 324.993 1051.37 352.286 1091.03 378.679C1094.93 381.272 1098.82 383.858 1102.7 386.431C1194.25 447.637 1284.5 516.056 1370.93 589.785L1370.73 589.963Z" fill="white" fill-opacity="0.5"/>
<path d="M1367.71 587.6C1280.79 511.999 1191.97 442.717 1103.71 381.683C1098.43 378.032 1093.02 374.267 1087.8 370.629C1050.38 344.567 1011.69 317.618 969.664 297.482C927.699 277.447 884.228 266.924 847.237 259.275C748.774 238.718 668.132 245.966 593.456 282.084C522.228 316.66 466.426 368.652 412.46 418.932L406.534 424.452C401.854 428.813 397.015 433.32 392.244 437.741C338.224 487.733 284.147 534.587 216.641 558.552C200.26 564.368 183.439 568.398 166.642 570.537C148.604 572.832 131.082 572.864 114.561 570.632C96.6176 568.207 79.9999 563.114 65.1702 555.492C49.0316 547.199 34.9263 535.856 23.2508 521.782C22.1985 520.508 21.1518 519.196 20.1394 517.882C2.23834 494.674 -8.74415 467.84 -19.3644 441.889C-21.7343 436.099 -24.1869 430.11 -26.6623 424.294C-40.4196 391.905 -55.9565 363.77 -74.1628 338.28C-76.4386 335.095 -78.797 331.897 -81.1726 328.78C-124.515 271.887 -183.945 224.145 -253.04 190.713C-333.918 151.696 -419.397 134.281 -493.736 141.682C-544.18 146.81 -596.001 173.544 -619.751 206.695C-636.118 229.537 -639.537 254.991 -629.641 280.308L-629.912 280.391C-635.091 267.145 -636.691 253.896 -634.669 241.015C-632.804 229.141 -627.867 217.549 -619.996 206.565C-607.733 189.451 -588.589 174.118 -564.627 162.221C-542.451 151.209 -517.287 143.828 -493.77 141.436C-454.777 137.554 -412.932 140.415 -369.389 149.94C-330.028 158.552 -290.838 172.195 -252.906 190.494C-183.771 223.944 -124.307 271.716 -80.9388 328.642C-78.5632 331.762 -76.2019 334.962 -73.9261 338.147C-55.7084 363.649 -40.163 391.8 -26.3999 424.206C-23.9245 430.022 -21.4719 436.013 -19.102 441.804C-8.48743 467.74 2.48932 494.562 20.3704 517.742C21.38 519.051 22.4266 520.36 23.4761 521.634C73.1924 581.564 155.799 579.881 216.529 558.321C283.982 534.376 338.035 487.54 392.032 437.571C396.804 433.149 401.643 428.643 406.323 424.282L412.249 418.762C438.74 394.082 466.129 368.56 495.877 344.818C529.569 317.929 561.441 297.337 593.313 281.863C613.835 271.937 635.29 264.087 657.078 258.535C677.563 253.314 699.029 249.948 720.88 248.531C759.979 245.996 801.328 249.432 847.299 259.029C884.308 266.683 927.802 277.209 969.795 297.261C1011.84 317.404 1050.55 344.361 1087.97 370.43C1093.2 374.069 1098.6 377.831 1103.88 381.485C1192.15 442.524 1280.98 511.811 1367.91 587.42L1367.71 587.6Z" fill="white" fill-opacity="0.5"/>
<path d="M1364.69 585.238C1278.51 508.796 1191.1 438.646 1104.9 376.74C1098.42 372.088 1091.77 367.25 1085.35 362.573C1049.95 336.792 1013.35 310.134 972.966 291.022C931.198 271.33 887.53 262.941 850.319 257.334C754.586 242.685 675.036 253.163 599.972 290.304C534.465 322.854 480.682 368.983 428.667 413.593C423.195 418.288 417.534 423.14 412.018 427.842C405.542 433.365 400.594 437.56 395.977 441.443C371.248 462.223 341.806 486.15 310.909 506.052C278.166 527.141 247.016 541.737 215.674 550.675C199.193 555.374 182.444 558.339 165.889 559.482C148.113 560.711 130.902 559.808 114.738 556.796C97.2249 553.534 80.9951 547.793 66.4934 539.735C50.7683 530.998 36.9568 519.452 25.441 505.423C24.4029 504.151 23.362 502.837 22.3524 501.518C4.68802 478.466 -6.66235 452.046 -17.642 426.496C-20.1887 420.57 -22.8209 414.443 -25.476 408.492C-39.8522 376.193 -55.7684 348.288 -74.1372 323.177C-76.4472 320.02 -78.8399 316.852 -81.2497 313.76C-125.194 257.376 -185.091 210.271 -254.466 177.534C-335.906 139.234 -421.624 122.684 -495.832 130.93C-538.057 135.725 -593.206 157.814 -621.228 196.35C-637.889 219.262 -641.887 244.832 -632.787 270.294L-633.058 270.369C-637.817 257.055 -639.061 243.749 -636.756 230.818C-634.629 218.883 -629.487 207.242 -621.468 196.215C-609.074 179.171 -590 163.863 -566.304 151.941C-544.351 140.897 -519.337 133.348 -495.866 130.682C-456.919 126.353 -415.028 128.769 -371.354 137.862C-331.899 146.078 -292.526 159.349 -254.332 177.313C-184.917 210.068 -124.986 257.201 -81.0159 313.617C-78.606 316.71 -76.2105 319.882 -73.9005 323.042C-55.5232 348.165 -39.5984 376.085 -25.2137 408.399C-22.5557 414.353 -19.9235 420.479 -17.3768 426.405C-6.40571 451.943 4.94185 478.348 22.5863 501.375C23.5958 502.692 24.6339 504.003 25.672 505.272C67.0324 555.665 138.029 572.548 215.585 550.431C285.821 530.404 343.115 485.516 395.78 441.257C400.397 437.375 405.342 433.179 411.819 427.657C417.334 422.955 422.995 418.102 428.468 413.407C454.074 391.446 480.551 368.737 508.793 347.473C540.728 323.426 570.51 304.652 599.836 290.081C620.161 280.025 641.301 271.806 662.676 265.657C682.921 259.831 704.048 255.671 725.468 253.286C764.47 248.947 805.326 250.189 850.368 257.08C887.599 262.693 931.298 271.084 973.1 290.793C1013.51 309.918 1050.12 336.584 1085.53 362.372C1091.95 367.05 1098.6 371.887 1105.08 376.539C1191.29 438.453 1278.7 508.608 1364.89 585.055L1364.69 585.238Z" fill="white" fill-opacity="0.5"/>
<path d="M1361.66 582.876C1276.24 505.589 1190.25 434.569 1106.08 371.795C1098.92 366.456 1091.57 360.851 1084.46 355.431C1050.58 329.615 1015.55 302.922 976.269 284.557C934.472 265.101 890.705 258.894 853.402 255.388C762.009 246.568 681.242 260.677 606.489 298.52C546.968 328.79 495.945 369.284 446.603 408.447C436.635 416.357 426.332 424.537 416.313 432.334C410.184 437.107 404.755 441.297 399.707 445.144C376.233 463.015 345.008 485.93 311.642 504.656C278.115 523.47 246.405 535.946 214.701 542.795C180.123 550.266 145.612 550.321 114.904 542.958C97.8295 538.863 81.9846 532.478 67.8081 523.979C52.5022 514.803 38.9844 503.056 27.6254 489.07C26.5959 487.796 25.5635 486.479 24.5597 485.16C7.14627 462.283 -4.55774 436.297 -15.8739 411.168C-18.6117 405.089 -21.4407 398.804 -24.2954 392.698C-39.3018 360.484 -55.5973 332.805 -74.1144 308.083C-76.4586 304.953 -78.8856 301.813 -81.3296 298.749C-125.876 242.874 -186.238 196.403 -255.892 164.365C-337.894 126.785 -423.851 111.099 -497.931 120.19C-548.135 126.484 -598.262 152.917 -622.663 185.96C-639.643 208.955 -644.231 234.658 -635.932 260.291L-636.206 260.358C-640.544 246.964 -641.428 233.587 -638.836 220.601C-636.44 208.599 -631.078 196.897 -622.902 185.823C-610.377 168.859 -591.378 153.587 -567.958 141.654C-546.236 130.587 -521.379 122.873 -497.971 119.939C-459.069 115.164 -417.132 117.135 -373.325 125.795C-333.773 133.614 -294.218 146.514 -255.76 164.14C-186.067 196.198 -125.67 242.693 -81.0957 298.603C-78.6517 301.668 -76.2248 304.81 -73.8777 307.942C-55.3521 332.68 -39.048 360.372 -24.033 392.6C-21.1783 398.707 -18.3493 404.994 -15.6115 411.073C-4.30103 436.189 7.39725 462.163 24.7936 485.017C25.7974 486.336 26.8269 487.648 27.8564 488.922C68.5068 538.988 138.329 559.036 214.633 542.552C284.195 527.522 344.603 486.762 399.518 444.956C404.563 441.109 409.996 436.921 416.122 432.149C426.138 424.352 436.444 416.174 446.409 408.264C495.763 369.094 546.794 328.59 606.343 298.307C626.489 288.108 647.322 279.523 668.263 272.787C688.291 266.347 709.079 261.389 730.045 258.051C769.039 251.844 809.398 250.894 853.428 255.142C890.756 258.651 934.56 264.86 976.4 284.338C1015.71 302.716 1050.75 329.42 1084.64 355.246C1091.75 360.665 1099.11 366.268 1106.27 371.607C1190.44 434.386 1276.43 505.411 1361.86 582.703L1361.66 582.876Z" fill="white" fill-opacity="0.5"/>
<path d="M1358.64 580.513C1273.97 502.373 1189.4 430.488 1107.27 366.852C1099.73 361.003 1091.96 354.811 1084.45 348.823C1051.81 322.789 1018.06 295.867 979.571 278.094C937.598 258.803 893.796 254.808 856.482 253.444C768.543 249.993 688.899 267.425 613.005 306.738C559.781 334.44 512.335 369.5 466.449 403.404C450.672 415.063 435.768 426.075 420.611 436.826C414.445 441.202 408.83 445.134 403.44 448.843C368.662 472.756 339.727 490.045 312.377 503.251C278.067 519.821 245.801 530.178 213.735 534.913C201.295 536.749 188.901 537.664 176.732 537.664C155.16 537.664 134.288 534.795 115.072 529.112C80.2964 518.827 51.6125 499.851 29.8158 472.708C28.7891 471.422 27.7652 470.105 26.7728 468.791C9.6246 446.112 -2.40733 420.587 -14.0429 395.9C-16.9917 389.645 -20.0375 383.18 -23.1089 376.893C-38.7571 344.755 -55.4347 317.306 -74.0859 292.978C-76.4643 289.876 -78.9254 286.763 -81.4037 283.726C-126.551 228.36 -187.381 182.527 -257.315 151.184C-339.879 114.326 -426.073 99.4995 -500.024 109.436C-550.437 116.35 -599.118 142.281 -624.04 175.5C-641.365 198.59 -646.561 224.446 -639.072 250.274L-639.349 250.337C-643.259 236.85 -643.778 223.392 -640.889 210.339C-638.214 198.256 -632.627 186.489 -624.277 175.362C-611.62 158.492 -592.704 143.269 -569.57 131.337C-548.081 120.252 -523.398 112.387 -500.067 109.187C-461.211 103.966 -419.229 105.491 -375.29 113.719C-335.641 121.145 -295.906 133.674 -257.183 150.958C-187.21 182.321 -126.346 228.18 -81.1699 283.578C-78.6916 286.618 -76.2304 289.73 -73.8491 292.835C-55.1866 317.176 -38.5004 344.64 -22.8466 376.79C-19.7752 383.077 -16.7265 389.545 -13.7805 395.8C-2.15069 420.474 9.87559 445.989 27.0095 468.648C28.002 469.959 29.0229 471.276 30.0496 472.56C70.7512 523.249 137.684 545.885 213.686 534.662C286.035 523.979 350.116 485.185 403.263 448.643C408.65 444.934 414.266 441.004 420.431 436.628C435.586 425.876 450.49 414.867 466.266 403.208C512.158 369.297 559.616 334.232 612.86 306.52C632.854 296.163 653.376 287.21 673.858 279.907C693.696 272.835 714.144 267.079 734.631 262.803C773.705 254.65 813.568 251.505 856.494 253.191C893.839 254.555 937.68 258.555 979.703 277.868C1018.22 295.654 1051.99 322.588 1084.64 348.632C1092.15 354.621 1099.91 360.813 1107.46 366.658C1189.59 430.3 1274.17 502.193 1358.84 580.338L1358.64 580.513Z" fill="white" fill-opacity="0.5"/>
<path d="M1355.61 578.151C1270.53 498.04 1189.69 427.306 1108.46 361.906C1100.71 355.667 1093.08 349.294 1085 342.548C1053.42 316.176 1020.77 288.908 982.874 271.631C940.376 252.348 894.652 250.743 859.566 251.501C775.63 253.076 697.11 273.833 619.523 314.959C572.972 339.755 529.991 369.53 488.426 398.328C466.581 413.463 445.947 427.755 424.906 441.32C418.661 445.35 412.857 449.022 407.171 452.545C371.919 474.353 342.032 490.018 313.108 501.845C278.002 516.2 245.18 524.438 212.766 527.031C196.111 528.363 179.57 528.112 163.602 526.286C146.697 524.353 130.424 520.643 115.238 515.264C81.5774 503.339 53.5751 483.52 32.0066 456.352C30.9884 455.063 29.9732 453.744 28.9864 452.43C12.1263 429.985 -0.20799 404.946 -12.1373 380.733C-15.32 374.273 -18.611 367.592 -21.922 361.096C-38.2261 329.028 -55.2801 301.808 -74.0596 277.881C-76.4751 274.806 -78.9705 271.722 -81.4773 268.712C-127.227 213.855 -188.522 168.659 -258.734 138.01C-323.54 109.84 -390.37 95.1412 -451.654 95.1412C-468.979 95.1412 -485.847 96.3149 -502.117 98.6898C-551.922 106.103 -600.298 132.127 -625.366 164.99C-643.059 188.188 -648.885 214.219 -642.214 240.268L-642.494 240.323C-645.976 226.731 -646.121 213.181 -642.927 200.052C-639.967 187.882 -634.138 176.037 -625.605 164.849C-612.817 148.084 -593.99 132.925 -571.152 121.005C-549.595 109.752 -525.739 101.95 -502.168 98.444C-463.358 92.7763 -421.33 93.8572 -377.257 101.652C-337.514 108.679 -297.594 120.834 -258.609 137.782C-188.356 168.448 -127.024 213.67 -81.2462 268.559C-78.7366 271.569 -76.2384 274.656 -73.8229 277.733C-55.0349 301.673 -37.9722 328.906 -21.6596 360.989C-18.3486 367.484 -15.0548 374.165 -11.8721 380.628C0.0515092 404.831 12.3801 429.859 29.226 452.287C30.2127 453.599 31.228 454.918 32.2432 456.204C72.577 507.006 138.364 532.726 212.743 526.778C288.006 520.756 356.097 483.831 407.011 452.335C412.698 448.811 418.498 445.14 424.744 441.112C445.782 427.552 466.412 413.257 488.255 398.125C529.826 369.325 572.812 339.541 619.38 314.739C659.326 293.565 698.525 278.134 739.221 267.561C778.468 257.364 817.835 252.027 859.566 251.245C883.373 250.731 902.797 251.624 920.695 254.051C943.804 257.186 964.186 262.861 983.011 271.403C1020.94 288.695 1053.61 315.978 1085.2 342.363C1093.28 349.109 1100.91 355.479 1108.66 361.718C1189.88 427.121 1270.73 497.86 1355.83 577.975L1355.61 578.151Z" fill="white" fill-opacity="0.5"/>
<path d="M1352.59 575.788C1268.28 494.8 1188.81 423.223 1109.65 356.96C1101.82 350.405 1094.09 343.651 1085.92 336.501C1055.28 309.712 1023.61 282.008 986.176 265.165C943.327 245.973 897.652 246.74 862.648 249.552C783.438 255.693 706.042 279.776 626.039 323.172C586.62 344.657 549.09 369.244 512.794 393.023C484.102 411.82 457.004 429.575 429.204 445.804C422.921 449.475 416.761 452.986 410.901 456.236C375.58 475.808 343.831 490.26 313.838 500.422C277.924 512.59 244.546 518.714 211.796 519.141C195.132 519.356 178.657 518.032 162.838 515.201C146.254 512.232 130.295 507.59 115.403 501.4C82.8976 487.89 55.574 467.228 34.1937 439.985C33.1898 438.699 32.1803 437.377 31.1964 436.056C14.6528 413.884 2.05041 389.374 -10.1384 365.673C-13.5863 358.967 -17.1539 352.03 -20.7387 345.286C-37.7101 313.279 -55.1435 286.289 -74.0341 262.77C-76.4839 259.723 -79.0135 256.666 -81.5545 253.685C-127.906 199.337 -189.668 154.777 -260.16 124.824C-343.845 89.4127 -430.521 76.3116 -504.216 87.933C-553.376 95.8202 -601.43 121.912 -626.638 154.401C-644.73 177.722 -651.204 203.949 -645.363 230.251L-645.642 230.299C-648.688 216.588 -648.454 202.933 -644.944 189.714C-641.684 177.443 -635.607 165.513 -626.874 154.258C-613.961 137.614 -595.227 122.529 -572.698 110.634C-551.389 99.3839 -527.727 91.449 -504.268 87.6847C-465.499 81.5731 -423.429 82.2051 -379.225 89.5681C-339.385 96.2039 -299.285 107.988 -260.038 124.595C-189.503 154.564 -127.706 199.151 -81.3292 253.532C-78.7853 256.513 -76.2529 259.573 -73.8032 262.622C-54.9011 286.154 -37.462 313.156 -20.4821 345.176C-16.8945 351.92 -13.3296 358.856 -9.87885 365.565C2.30427 389.257 14.9009 413.756 31.4331 435.913C32.4169 437.232 33.4265 438.553 34.4275 439.837C75.1862 491.77 138.175 519.848 211.79 518.885C271.522 518.107 334.742 498.13 410.747 456.018C416.604 452.768 422.761 449.259 429.044 445.588C456.835 429.362 483.934 411.612 512.62 392.815C548.922 369.033 586.458 344.441 625.887 322.951C666.224 301.07 704.793 284.509 743.797 272.313C783.313 259.959 822.181 252.428 862.623 249.293C897.663 246.477 943.393 245.712 986.308 264.935C1023.78 281.798 1055.47 309.514 1086.12 336.316C1094.29 343.466 1102.02 350.217 1109.84 356.77C1189.02 423.035 1268.49 494.616 1352.8 575.61L1352.59 575.788Z" fill="white" fill-opacity="0.5"/>
<path d="M1349.57 573.426C1266.05 491.557 1187.96 419.133 1110.84 352.017C1103.01 345.204 1095.28 338.124 1087.1 330.628C1057.33 303.36 1026.55 275.164 989.484 258.703C946.23 239.58 900.629 242.728 865.734 247.606C791.206 257.825 717.115 284.448 632.558 331.39C600.845 349.076 569.854 368.476 539.884 387.238C503.483 410.024 469.101 431.549 433.501 450.295C427.088 453.676 420.739 456.921 414.634 459.935C378.68 477.676 345.95 490.456 314.571 499.003C296.995 503.79 279.644 507.258 263 509.312C245.248 511.502 227.695 512.156 210.829 511.259C176.609 509.435 144.56 501.455 115.574 487.542C84.2691 472.515 57.6271 451.012 36.3893 423.627C35.3912 422.33 34.3902 421.006 33.412 419.692C17.222 397.846 4.3944 373.918 -8.00831 350.781C-11.7642 343.777 -15.6456 336.534 -19.5498 329.487C-37.2056 297.532 -55.0182 270.771 -74.0059 247.671C-76.4898 244.649 -79.0565 241.619 -81.6289 238.668C-128.582 184.826 -190.809 140.904 -261.581 111.65C-345.825 76.9637 -432.738 64.7254 -506.31 77.1869C-585.087 90.7369 -661.85 149.283 -648.503 220.242L-648.786 220.282C-652.125 202.532 -650.169 185.045 -642.973 168.302C-636.403 153.012 -625.62 138.622 -610.924 125.536C-597.261 113.368 -580.869 102.862 -562.206 94.3106C-544.456 86.1776 -525.146 80.1688 -506.367 76.9387C-467.644 70.3806 -425.528 70.5687 -381.19 77.5004C-341.253 83.7425 -300.971 95.1557 -261.461 111.424C-190.65 140.698 -128.385 184.646 -81.4036 238.517C-78.8284 241.471 -76.2617 244.501 -73.7749 247.525C-54.7787 270.635 -36.9575 297.411 -19.2931 329.379C-15.3889 336.426 -11.5075 343.669 -7.7516 350.676C4.64826 373.806 17.4702 397.723 33.6516 419.556C34.6269 420.871 35.625 422.195 36.6232 423.489C77.4418 476.118 139.316 507.198 210.846 511.01C271.402 514.233 338.016 497.458 414.494 459.72C420.597 456.705 426.942 453.463 433.356 450.082C468.947 431.341 503.323 409.818 539.719 387.035C569.692 368.271 600.686 348.868 632.404 331.18C716.996 284.218 791.121 257.584 865.688 247.357C889.136 244.079 908.549 243.031 926.786 244.062C950.1 245.379 970.648 250.093 989.61 258.477C1026.72 274.956 1057.52 303.17 1087.3 330.452C1095.48 337.946 1103.21 345.026 1111.04 351.837C1188.16 418.957 1266.25 491.384 1349.77 573.258L1349.57 573.426Z" fill="white" fill-opacity="0.5"/>
<path d="M1346.54 571.064C1263.82 488.302 1187.1 415.035 1112.03 347.072C1104.26 340.04 1096.58 332.675 1088.46 324.873C1059.5 297.083 1029.55 268.346 992.788 252.238C948.593 232.955 900.87 239.247 868.818 245.657C781.825 262.841 703.864 302.791 639.078 339.609C615.793 352.895 592.567 366.97 570.103 380.58C525.041 407.883 482.48 433.671 437.803 454.787C431.232 457.894 424.696 460.871 418.37 463.637C381.715 479.635 348.004 490.74 315.31 497.581C278.247 505.338 242.773 507.289 209.866 503.377C176.06 499.357 144.393 489.365 115.749 473.679C85.7044 457.227 59.7439 434.885 38.5832 407.271C37.5964 405.974 36.6011 404.648 35.6286 403.328C19.8407 381.884 6.85342 358.613 -5.70899 336.108C-9.82422 328.732 -14.082 321.108 -18.3598 313.688C-36.9681 281.331 -54.6411 255.558 -73.9738 232.571C-76.492 229.577 -79.09 226.577 -81.6995 223.651C-129.26 170.321 -191.955 127.036 -263.006 98.4738C-347.809 64.515 -434.961 53.1369 -508.408 66.4385C-587.467 80.9465 -662.662 138.697 -651.648 210.234L-651.93 210.266C-654.663 192.518 -652.298 175.049 -644.906 158.344C-638.13 143.038 -627.285 128.633 -612.666 115.532C-599.034 103.314 -582.727 92.7309 -564.196 84.0713C-546.552 75.8254 -527.279 69.6436 -508.465 66.1903C-469.785 59.1858 -427.626 58.93 -383.158 65.4279C-343.123 71.2762 -302.658 82.3183 -262.886 98.2456C-191.792 126.823 -129.063 170.133 -81.4799 223.495C-78.8704 226.424 -76.2695 229.426 -73.7485 232.421C-54.4044 255.418 -36.7257 281.206 -18.1088 313.575C-13.8311 320.996 -9.57322 328.622 -5.45799 335.998C7.10157 358.496 20.086 381.758 35.8625 403.193C36.835 404.512 37.8274 405.836 38.8142 407.133C79.9493 460.811 140.708 494.903 209.9 503.128C271.956 510.506 340.104 497.513 418.242 463.412C424.564 460.648 431.101 457.674 437.666 454.566C482.332 433.455 524.887 407.672 569.941 380.371C592.405 366.761 615.633 352.685 638.921 339.396C682.486 314.641 718.728 296.351 752.967 281.838C793.275 264.754 831.148 252.84 868.752 245.411C891.675 240.827 911.655 238.751 929.836 239.067C953.244 239.473 973.877 243.706 992.913 252.012C1029.72 268.14 1059.69 296.895 1088.66 324.702C1096.79 332.502 1104.47 339.867 1112.23 346.894C1187.31 414.859 1264.02 488.131 1346.76 570.896L1346.54 571.064Z" fill="white" fill-opacity="0.5"/>
<path d="M1343.52 568.698C1261.59 485.041 1186.26 410.929 1113.22 342.124C1105.56 334.909 1097.98 327.287 1089.95 319.217C1061.76 290.868 1032.6 261.554 996.093 245.772C951.413 226.534 903.818 235.38 871.903 243.708C793.084 264.1 722.78 302.926 645.597 347.824C631.677 355.952 617.598 364.341 603.98 372.456C551.609 403.664 497.458 435.933 442.1 459.276C435.376 462.115 428.645 464.826 422.1 467.333C385.197 481.458 349.515 491.153 316.043 496.151C278.125 501.814 242.077 501.591 208.893 495.491C175.56 489.365 144.278 477.36 115.914 459.81C87.21 442.049 61.9255 418.869 40.7648 390.914C39.7866 389.615 38.7999 388.286 37.8331 386.967C22.5215 366.024 9.45144 343.511 -3.18797 321.74C-7.74238 313.895 -12.4508 305.785 -17.182 297.893C-36.5176 265.569 -54.5584 240.017 -73.9567 217.476C-76.5034 214.517 -79.1386 211.542 -81.7851 208.638C-129.939 155.81 -193.096 113.162 -264.432 85.2972C-349.791 52.0656 -437.18 41.5502 -510.507 55.6895C-587.056 70.6112 -663.64 126.336 -654.797 200.222L-655.079 200.247C-657.204 182.499 -654.432 165.049 -646.843 148.382C-639.864 133.059 -628.953 118.642 -614.414 105.526C-587.59 81.3297 -549.74 63.0751 -510.57 55.4412C-471.936 47.9929 -429.731 47.2907 -385.128 53.3547C-344.997 58.8117 -304.352 69.4802 -264.318 85.0665C-192.942 112.946 -129.748 155.622 -81.5626 208.475C-78.9133 211.382 -76.2782 214.356 -73.7286 217.318C-54.3217 239.871 -36.2723 265.434 -16.931 297.77C-12.1998 305.665 -7.4886 313.775 -2.93419 321.62C9.70237 343.385 22.7696 365.893 38.0726 386.826C39.0365 388.145 40.0233 389.472 41.0015 390.771C83.3372 446.701 141.412 482.827 208.947 495.243C271.483 506.739 343.155 497.272 421.981 467.103C428.523 464.595 435.247 461.886 441.969 459.05C497.307 435.714 551.452 403.451 603.812 372.248C617.429 364.133 631.509 355.744 645.432 347.616C679.218 327.962 718.531 305.419 757.547 286.597C798.36 266.911 835.736 252.804 871.815 243.47C894.527 237.544 914.504 234.469 932.882 234.073C956.059 233.571 977.362 237.434 996.21 245.549C1012.57 252.619 1029.03 263.169 1046.53 277.805C1061.99 290.728 1076.31 305.128 1090.16 319.052C1098.18 327.119 1105.76 334.741 1113.42 341.953C1186.47 410.761 1261.8 484.876 1343.73 568.535L1343.52 568.698Z" fill="white" fill-opacity="0.5"/>
<path d="M1340.49 566.336C1259.37 481.776 1185.42 406.819 1114.41 337.181C1106.88 329.808 1099.44 321.956 1091.55 313.645C1064.09 284.707 1035.7 254.783 999.395 239.312C965.473 224.899 924.777 225.702 874.983 241.765C805.364 264.097 743.131 301.452 677.242 341.003C669.037 345.928 660.555 351.019 652.114 356.048C648.809 358.021 645.5 360 642.195 361.976C579.414 399.516 514.498 438.335 446.398 463.77C439.514 466.343 432.595 468.788 425.834 471.035C388.121 483.557 351.432 491.527 316.787 494.722C277.994 498.298 241.367 495.905 207.932 487.609C175.119 479.467 144.222 465.448 116.099 445.942C88.8415 427.035 64.2357 403.02 42.9637 374.558C41.9941 373.256 41.0159 371.925 40.0548 370.603C25.325 350.317 12.2977 328.712 -0.304596 307.819C-5.40656 299.358 -10.6853 290.608 -15.9869 282.091C-36.0697 249.79 -54.4756 224.458 -73.9195 202.374C-76.5033 199.44 -79.1698 196.496 -81.8505 193.619C-130.614 141.303 -194.239 99.2887 -265.855 72.1211C-351.767 39.6194 -439.399 29.9641 -512.603 44.941C-587.746 60.4421 -664.222 116.623 -657.939 190.213L-658.224 190.233C-659.739 172.483 -656.562 155.053 -648.776 138.429C-641.592 123.088 -630.618 108.653 -616.157 95.5269C-589.446 71.281 -551.728 52.7555 -512.669 44.6978C-474.077 36.8031 -431.83 35.6545 -387.096 41.2871C-346.868 46.3479 -306.038 56.6452 -265.741 71.8904C-194.085 99.0755 -130.42 141.112 -81.6366 193.456C-78.9559 196.333 -76.2837 199.282 -73.6999 202.216C-54.2474 224.313 -35.8302 249.652 -15.7417 281.966C-10.4373 290.482 -5.16127 299.235 -0.0564509 307.696C12.5402 328.584 25.5674 350.184 40.2916 370.463C41.2526 371.784 42.228 373.114 43.1976 374.415C86.4516 432.286 143.44 471.341 208.006 487.361C271.742 503.176 344.995 497.601 425.731 470.794C432.487 468.547 439.403 466.105 446.284 463.534C514.361 438.11 579.266 399.298 642.033 361.763C645.341 359.784 648.646 357.808 651.951 355.834C660.393 350.806 668.874 345.715 677.079 340.792C742.982 301.233 805.233 263.869 874.884 241.527C897.379 234.269 917.351 230.199 935.936 229.078C959.199 227.676 980.59 231.044 999.518 239.084C1015.78 246.013 1032.03 256.611 1049.21 271.485C1064.37 284.609 1078.3 299.287 1091.77 313.482C1099.66 321.79 1107.1 329.64 1114.62 337.01C1185.63 406.651 1259.59 481.611 1340.71 566.173L1340.49 566.336Z" fill="white" fill-opacity="0.5"/>
<path d="M1337.47 563.974C1263.43 485.177 1188.78 407.208 1115.59 332.236C1108.14 324.647 1100.76 316.494 1092.94 307.864C1067.52 279.791 1038.7 247.974 1002.7 232.849C968.379 218.462 927.612 220.742 878.064 239.816C819.15 262.422 767.016 295.661 711.818 330.851C694.533 341.871 676.658 353.269 658.628 364.263C627.158 383.496 593.115 403.847 557.43 422.383C519.212 442.235 484.297 457.24 450.688 468.259C443.627 470.574 436.52 472.753 429.559 474.732C391.047 485.674 353.36 491.901 317.543 493.24C277.894 494.719 240.689 490.175 206.957 479.722C144.667 460.181 90.2251 419.296 45.1459 358.199C44.1848 356.895 43.2152 355.561 42.2598 354.24C28.2771 334.849 15.4781 314.392 3.10104 294.608C-2.7253 285.296 -8.74842 275.666 -14.8086 266.294C-35.6557 234.001 -54.4322 208.892 -73.899 187.277C-76.5199 184.368 -79.2206 181.451 -81.9327 178.605C-131.29 126.792 -195.382 85.4178 -267.277 58.9449C-353.746 27.1704 -441.614 18.3804 -514.699 34.1924C-590.298 50.6414 -664.857 106.078 -661.084 180.205L-661.369 180.215C-662.273 162.459 -658.686 145.05 -650.709 128.468C-643.317 113.107 -632.281 98.6568 -617.901 85.5207C-604.355 73.1444 -588.299 62.323 -570.181 53.3549C-552.591 44.6502 -533.949 38.1197 -514.77 33.9467C-476.221 25.6081 -433.928 24.0131 -389.063 29.2118C-348.738 33.884 -307.728 43.8075 -267.169 58.7117C-195.231 85.1996 -131.102 126.599 -81.716 178.437C-79.0039 181.285 -76.2975 184.205 -73.6766 187.114C-54.2013 208.741 -35.4161 233.86 -14.5605 266.164C-8.50035 275.538 -2.47722 285.168 3.34912 294.482C15.7262 314.264 28.5224 334.718 42.4994 354.102C43.4519 355.426 44.4244 356.757 45.3826 358.062C90.4276 419.11 144.821 459.963 207.051 479.484C271.152 499.346 348.064 497.621 429.47 474.491C436.426 472.512 443.533 470.336 450.588 468.023C525.732 443.389 594.484 403.155 658.463 364.055C676.492 353.061 694.365 341.665 711.65 330.646C766.859 295.448 819.005 262.201 877.947 239.586C927.572 220.481 968.419 218.201 1002.82 232.621C1018.94 239.395 1034.95 250.013 1051.76 265.078C1066.59 278.362 1080.1 293.281 1093.17 307.706C1100.98 316.336 1108.36 324.486 1115.81 332.07C1189 407.045 1263.65 485.014 1337.69 563.813L1337.47 563.974Z" fill="white" fill-opacity="0.5"/>
<path d="M1334.45 561.611C1261.54 482.378 1188.31 403.541 1116.78 327.29C1109.57 319.618 1102.4 311.322 1094.82 302.54C1070.02 273.813 1041.91 241.251 1006 226.381C971.271 212.019 930.429 215.776 881.144 237.862C829.505 260.97 782.062 293.597 736.181 325.153C713.175 340.975 689.385 357.337 665.144 372.476C626.884 396.396 594.692 414.643 563.832 429.904C525.78 448.72 490.174 462.734 454.985 472.745C447.762 474.802 440.461 476.713 433.289 478.426C395.918 487.346 359.22 491.86 324.114 491.863C322.163 491.863 320.224 491.848 318.285 491.82C277.697 491.238 239.916 484.512 205.99 471.833C189.615 465.678 173.579 457.866 158.33 448.612C143.997 439.915 129.911 429.671 116.465 418.164C92.2725 397.465 69.6573 372.496 47.333 341.838C46.3747 340.519 45.4194 339.197 44.4697 337.871C31.5166 319.781 19.2622 300.872 7.41274 282.585C0.571143 272.029 -6.50146 261.113 -13.6254 250.487C-35.559 217.749 -54.1388 193.594 -73.8765 172.169C-76.5316 169.288 -79.2665 166.399 -82.0128 163.58C-131.969 112.282 -196.526 71.5442 -268.701 45.766C-355.722 14.7213 -443.83 6.79398 -516.795 23.4411C-590.977 40.4142 -665.439 96.2716 -664.227 170.191L-664.512 170.193C-665.077 135.763 -649.56 103.023 -619.641 75.5141C-606.118 63.0802 -590.147 52.1811 -572.169 43.1127C-554.676 34.2901 -536.071 27.5891 -516.866 23.1953C-478.363 14.4103 -436.025 12.3714 -391.028 17.1364C-350.606 21.4173 -309.414 30.9697 -268.595 45.5303C-196.375 71.326 -131.78 112.089 -81.7932 163.417C-79.0469 166.238 -76.3063 169.13 -73.6512 172.011C-53.905 193.448 -35.3165 217.612 -13.3772 250.362C-6.25331 260.99 0.82214 271.907 7.66088 282.462C19.5103 300.747 31.7619 319.654 44.7121 337.738C45.6618 339.064 46.6143 340.386 47.5726 341.703C95.0103 406.852 146.865 449.342 206.101 471.602C288.146 502.268 374.891 492.108 433.214 478.185C440.381 476.472 447.676 474.564 454.897 472.507C535.83 449.48 609.681 406.844 664.979 372.273C689.217 357.138 713.004 340.777 736.007 324.958C781.899 293.396 829.351 260.759 881.015 237.642C903.069 227.758 923.029 221.689 942.034 219.091C965.47 215.886 987.033 218.264 1006.12 226.158C1022.2 232.817 1038.06 243.52 1054.6 258.878C1069.17 272.411 1082.32 287.651 1095.05 302.392C1102.63 311.172 1109.79 319.465 1117 327.132C1188.52 403.383 1261.76 482.22 1334.67 561.453L1334.45 561.611Z" fill="white" fill-opacity="0.5"/>
<path d="M1331.43 559.249L1117.97 322.347C1111 314.61 1104.08 306.192 1096.75 297.281C1072.56 267.874 1045.15 234.545 1009.31 219.922C974.645 205.782 932.563 211.164 884.227 235.919C837.759 259.716 795.378 291.363 754.391 321.968C727.675 341.918 700.049 362.546 671.664 380.7C586.351 435.266 511.792 467.494 437.025 482.127C406.009 488.196 375.411 491.251 345.737 491.251C336.743 491.251 327.839 490.97 319.03 490.408C277.484 487.76 239.127 478.857 205.027 463.951C173.423 450.132 144.511 430.626 116.648 404.314C94.3979 383.303 73.0689 358.255 49.5268 325.485C37.1013 308.19 25.0693 290.222 13.4337 272.845C-12.9003 233.522 -40.1298 192.859 -73.8415 157.072C-125.551 102.183 -193.425 59.1381 -270.126 32.59C-357.698 2.27755 -446.045 -4.78957 -518.89 12.6927C-589.417 29.6182 -665.963 82.9903 -667.372 160.182L-667.657 160.177C-667.027 125.674 -651.025 92.9389 -621.383 65.5105C-594.581 40.7104 -558.209 21.8664 -518.965 12.4494C-480.504 3.22051 -438.12 0.735224 -392.995 5.06628C-352.476 8.95345 -311.101 18.1372 -270.021 32.3567C-232.068 45.4929 -196.023 62.7845 -162.885 83.7527C-129.47 104.896 -99.4369 129.508 -73.6248 156.907C-39.8988 192.706 -12.6607 233.379 13.679 272.712C25.3146 290.086 37.3465 308.052 49.7692 325.344C84.1169 373.159 132.821 432.096 205.155 463.72C288.11 499.986 376.999 493.611 436.962 481.877C511.692 467.253 586.217 435.038 671.496 380.492C699.869 362.345 727.492 341.718 754.206 321.773C795.201 291.162 837.594 259.508 884.085 235.698C932.503 210.901 974.677 205.514 1009.43 219.691C1025.47 226.239 1041.18 237.035 1057.46 252.702C1071.78 266.492 1084.59 282.069 1096.98 297.131C1104.31 306.041 1111.23 314.455 1118.2 322.189L1331.65 559.091L1331.43 559.249Z" fill="white" fill-opacity="0.5"/>
<path d="M1329.7 541.037C1275.35 475.076 1228.71 421.551 1182.94 372.595C1160.72 348.813 1138.03 325.405 1115.5 303.019C1108.68 296.248 1101.93 289.046 1094.78 281.419C1076.81 262.252 1058.23 242.432 1036.85 227.724C1025.37 219.811 1014.32 214.146 1003.07 210.405C968.523 198.806 927.993 206.475 882.605 233.201C859.115 247.012 837.726 262.728 819.902 276.281C801.031 290.628 782.417 306.45 764.413 321.751C738.538 343.744 711.782 366.486 683.018 386.017C665.516 397.937 647.775 408.588 630.285 417.676C595.293 435.858 557.734 450.84 518.652 462.205C494.505 469.15 470.242 474.399 446.54 477.804C426.112 480.728 405.647 482.416 385.71 482.82C355.871 483.427 326.799 481.112 299.301 475.933C270.064 470.426 242.396 461.636 217.065 449.804C194.479 439.254 173.144 425.969 151.844 409.189C112.151 377.947 80.4931 341.821 57.3474 313.838C45.9771 300.028 34.8748 285.944 24.1375 272.323C-6.77942 233.098 -35.9824 196.05 -72.526 163.049C-102.331 136.31 -136.336 113.235 -173.607 94.4615C-202.248 80.0338 -233.399 68.2344 -266.193 59.3892C-274.004 57.2851 -281.963 55.324 -289.843 53.566C-323.769 46.0098 -361.961 41.0894 -403.355 38.9402C-445.089 36.7232 -481.197 38.6417 -513.733 44.8111C-532.128 48.2719 -549.949 53.7014 -566.709 60.9466C-625.88 86.5267 -663.875 129.469 -668.347 175.819L-668.703 175.791C-667.511 163.435 -664.012 151.264 -658.305 139.613C-652.884 128.546 -645.438 117.872 -636.175 107.889C-618.673 89.0295 -594.706 72.6984 -566.866 60.6632C-550.08 53.4055 -532.231 47.9684 -513.808 44.5026C-481.237 38.3283 -445.101 36.4072 -403.332 38.6267C-361.915 40.7759 -323.703 45.7013 -289.755 53.2625C-281.866 55.023 -273.904 56.9842 -266.087 59.0908C-233.268 67.941 -202.091 79.7505 -173.427 94.1907C-136.131 112.977 -102.097 136.072 -72.2779 162.828C-35.7114 195.849 -6.50272 232.907 24.4256 272.143C35.16 285.763 46.2622 299.845 57.6297 313.653C80.7639 341.623 112.408 377.731 152.077 408.954C173.355 425.716 194.667 438.988 217.228 449.526C266.802 472.681 323.482 483.778 385.698 482.506C405.619 482.103 426.069 480.415 446.48 477.493C470.165 474.088 494.411 468.844 518.538 461.904C557.597 450.546 595.133 435.575 630.102 417.403C647.581 408.322 665.311 397.676 682.799 385.766C711.546 366.245 738.296 343.509 764.162 321.522C782.169 306.219 800.786 290.392 819.665 276.04C837.498 262.48 858.898 246.758 882.406 232.938C902.614 221.038 922.181 212.817 940.566 208.501C963.15 203.199 984.223 203.741 1003.19 210.111C1014.48 213.865 1025.56 219.546 1037.07 227.475C1058.48 242.207 1077.07 262.039 1095.05 281.219C1102.2 288.843 1108.95 296.045 1115.76 302.811C1138.31 325.199 1161 348.61 1183.22 372.397C1229 421.358 1275.64 474.888 1330 540.854L1329.7 541.037Z" fill="white" fill-opacity="0.5"/>
<path d="M1327.99 522.82C1277.59 455.742 1230.29 399.612 1183.39 351.223C1160.51 327.586 1136.84 304.865 1113.02 283.691C1106.7 278.074 1100.47 272.235 1093.86 266.056C1074.08 247.551 1053.63 228.416 1030.72 215.177C1019.15 208.463 1008.07 203.789 996.831 200.884C953.796 189.76 910.083 210.836 880.986 230.475C860.37 244.348 841.542 260.035 822.472 276.228C805.78 290.402 790.074 305.65 773.448 321.791C748.771 345.751 723.253 370.526 694.375 391.328C677.238 403.74 659.354 414.471 641.219 423.223C607.439 439.529 570.447 452.191 528.132 461.937C504.45 467.389 480.198 471.274 456.048 473.478C435.672 475.316 415.332 475.973 395.592 475.424C366.223 474.617 337.517 470.985 310.264 464.633C281.643 457.959 254.334 448.209 229.098 435.652C206.987 424.653 185.638 411.005 163.83 393.931C124.224 362.967 90.2951 328.639 65.1646 302.192C55.8618 292.401 46.7074 282.55 37.8524 273.02C2.58919 235.072 -30.7176 199.224 -71.2082 169.025C-101.469 146.454 -135.443 127.369 -172.181 112.302C-199.978 100.901 -229.44 92.3597 -262.248 86.1878C-269.82 84.7659 -277.523 83.4844 -285.14 82.3784C-318.598 77.5458 -354.306 75.7176 -397.509 73.8266C-428.651 72.3946 -469.418 71.4517 -508.583 76.9238C-527.131 79.4668 -545.061 83.8831 -561.878 90.0449C-621.088 111.745 -661.254 149.654 -669.325 191.455L-669.747 191.392C-667.608 180.308 -663.273 169.436 -656.871 159.076C-650.768 149.205 -642.748 139.741 -633.038 130.938C-614.583 114.216 -590.035 99.9534 -562.044 89.6963C-545.195 83.522 -527.231 79.0981 -508.651 76.5502C-469.45 71.0705 -428.651 72.016 -397.489 73.4479C-354.272 75.3389 -318.552 77.1671 -285.072 82.0022C-277.449 83.1107 -269.74 84.3922 -262.16 85.8142C-229.321 91.9935 -199.83 100.543 -172.001 111.956C-135.227 127.038 -101.224 146.138 -70.9316 168.731C-30.4124 198.953 2.90864 234.811 38.1832 272.775C47.0354 282.302 56.1898 292.153 65.4925 301.941C90.6173 328.379 124.532 362.694 164.115 393.643C185.898 410.699 207.224 424.332 229.309 435.318C278.931 460.008 334.884 473.373 395.606 475.043C415.329 475.59 435.649 474.935 456.005 473.097C480.132 470.895 504.364 467.015 528.023 461.566C570.305 451.83 607.265 439.178 641.016 422.887C659.129 414.145 676.99 403.429 694.107 391.03C722.959 370.245 748.466 345.48 773.134 321.532C789.766 305.384 805.474 290.134 822.178 275.952C841.257 259.749 860.093 244.057 880.729 230.169C899.591 217.436 918.197 208.278 936.029 202.941C957.652 196.471 978.151 195.656 996.957 200.516C1008.24 203.432 1019.36 208.122 1030.96 214.856C1053.91 228.12 1074.38 247.272 1094.18 265.793C1100.78 271.97 1107.02 277.805 1113.33 283.42C1137.16 304.602 1160.84 327.33 1183.72 350.974C1230.63 399.376 1277.94 455.517 1328.34 522.609L1327.99 522.82Z" fill="white" fill-opacity="0.5"/>
<path d="M1326.26 504.603C1279.1 435.499 1232.51 378.337 1183.83 329.853C1160.3 306.362 1135.64 284.33 1110.55 264.365C1105.19 260.097 1099.67 255.568 1094.33 251.189C1072.28 233.098 1049.49 214.391 1024.59 202.632C1012.91 197.075 1001.79 193.388 990.603 191.364C947.66 183.592 906.41 206.86 879.369 227.746C861.04 241.845 844.286 257.825 828.081 273.281L825.047 276.175C810.334 290.196 796.534 305.574 781.921 321.858C758.653 347.787 734.595 374.596 705.731 396.64C688.937 409.56 670.91 420.371 652.151 428.773C619.443 443.421 583.042 453.874 537.603 461.668C514.107 465.698 489.866 468.216 465.551 469.149C445.226 469.899 425.012 469.523 405.465 468.026C346.289 463.514 290.998 447.86 241.125 421.5C219.565 410.104 198.201 396.098 175.817 378.673C137.936 349.249 104.244 319.004 72.985 290.547C68.7927 286.733 64.6462 282.944 60.5309 279.184C17.8359 240.19 -22.4894 203.357 -69.8815 175.008C-100.821 156.5 -134.761 141.408 -170.754 130.148C-197.18 121.882 -225.818 116.269 -258.301 112.989C-265.621 112.254 -273.067 111.65 -280.434 111.193C-298.965 110.065 -318.62 109.882 -339.43 109.689C-356.145 109.533 -373.427 109.373 -391.665 108.718C-426.888 107.346 -466.808 105.794 -503.437 109.044C-522.337 110.722 -540.374 114.122 -557.052 119.153C-616.239 137.009 -658.578 169.89 -670.308 207.109L-670.79 206.991C-667.698 197.178 -662.531 187.605 -655.433 178.539C-648.645 169.87 -640.055 161.609 -629.903 153.987C-610.484 139.412 -585.348 127.223 -557.218 118.737C-540.503 113.694 -522.428 110.285 -503.491 108.605C-466.825 105.353 -426.885 106.907 -391.648 108.279C-373.421 108.931 -356.139 109.094 -339.43 109.25C-318.612 109.443 -298.951 109.626 -280.402 110.757C-273.03 111.216 -265.576 111.82 -258.249 112.555C-225.727 115.838 -197.054 121.458 -170.592 129.736C-134.556 141.009 -100.579 156.119 -69.6048 174.647C-22.17 203.021 18.1752 239.871 60.8874 278.883C65.0027 282.643 69.1521 286.43 73.3414 290.246C104.595 318.698 138.275 348.935 176.145 378.35C198.506 395.754 219.847 409.748 241.381 421.129C291.189 447.456 346.409 463.088 405.508 467.594C425.032 469.089 445.226 469.465 465.528 468.715C489.817 467.782 514.035 465.267 537.506 461.242C582.899 453.455 619.257 443.015 651.923 428.387C670.642 420.003 688.634 409.212 705.401 396.314C734.227 374.297 758.271 347.503 781.525 321.59C796.144 305.299 809.952 289.913 824.676 275.881L827.711 272.987C843.924 257.524 860.687 241.534 879.035 227.42C906.162 206.467 947.557 183.131 990.7 190.938C1001.94 192.972 1013.1 196.671 1024.83 202.251C1049.77 214.035 1072.6 232.761 1094.67 250.873C1100 255.252 1105.52 259.781 1110.88 264.047C1135.98 284.022 1160.65 306.066 1184.2 329.57C1232.9 378.074 1279.5 435.256 1326.68 504.382L1326.26 504.603Z" fill="white" fill-opacity="0.5"/>
<path d="M1324.54 486.383C1281.24 416.236 1234.05 356.381 1184.28 308.486C1160.09 285.143 1134.45 263.799 1108.09 245.045C1104.28 242.336 1100.38 239.525 1096.61 236.807C1071.69 218.848 1045.93 200.275 1018.48 190.093C1006.7 185.677 995.551 182.981 984.386 181.847C941.562 177.503 902.765 202.926 877.757 225.017C862.229 238.665 848.212 253.842 834.657 268.521C832.313 271.061 829.969 273.597 827.622 276.122C814.729 289.996 802.674 305.494 789.912 321.901C768.215 349.793 745.779 378.633 717.09 401.956C700.241 415.652 682.577 426.24 663.081 434.33C622.306 451.251 581.556 457.513 547.074 461.41C523.751 464.043 499.522 465.197 475.053 464.831C454.791 464.492 434.699 463.08 415.341 460.637C357.942 453.412 303.374 435.486 253.156 407.356C232.26 395.654 210.886 381.284 187.806 363.426C164.492 345.429 142.766 328.112 121.754 311.365C107.475 299.982 93.9856 289.231 80.8129 278.916C31.0195 239.924 -14.5903 205.642 -68.5445 180.999C-100.149 166.567 -134.054 155.462 -169.32 147.996C-194.596 142.644 -221.615 140.039 -254.346 139.79C-261.407 139.745 -268.599 139.818 -275.72 140.009C-286.537 140.317 -297.728 140.962 -309.572 141.646C-332.301 142.958 -358.067 144.445 -385.822 143.612C-396.391 143.294 -407.174 142.845 -417.603 142.409C-444.427 141.288 -472.164 140.129 -498.296 141.165C-517.486 141.927 -535.635 144.315 -552.233 148.262C-611.321 162.318 -655.829 190.173 -671.298 222.773L-671.826 222.58C-667.776 214.043 -661.776 205.772 -653.993 197.995C-646.518 190.527 -637.358 183.472 -626.772 177.029C-606.373 164.616 -580.652 154.501 -552.387 147.778C-535.749 143.82 -517.56 141.425 -498.327 140.663C-472.167 139.625 -444.419 140.786 -417.58 141.907C-407.154 142.343 -396.371 142.792 -385.805 143.111C-358.076 143.943 -332.329 142.459 -309.612 141.147C-297.762 140.462 -286.569 139.818 -275.74 139.509C-268.611 139.319 -261.412 139.246 -254.343 139.291C-221.566 139.537 -194.508 142.15 -169.189 147.51C-133.88 154.985 -99.9291 166.103 -68.2849 180.555C-43.913 191.685 -19.2159 205.787 7.21791 223.663C30.8826 239.666 53.9027 257.175 81.1893 278.542C94.362 288.86 107.851 299.611 122.133 310.994C143.143 327.739 164.868 345.056 188.177 363.049C211.234 380.89 232.586 395.245 253.455 406.934C303.605 435.027 358.096 452.928 415.415 460.143C434.751 462.584 454.816 463.993 475.056 464.331C499.496 464.698 523.7 463.547 546.994 460.913C581.433 457.024 622.129 450.769 662.833 433.879C682.274 425.811 699.893 415.25 716.696 401.59C745.337 378.307 767.756 349.489 789.436 321.62C802.206 305.203 814.267 289.697 827.174 275.809C829.521 273.283 831.863 270.748 834.207 268.21C847.77 253.521 861.796 238.334 877.344 224.669C893.614 210.296 910.306 199.239 926.955 191.806C946.676 183.001 966.017 179.485 984.44 181.356C995.659 182.494 1006.86 185.203 1018.69 189.636C1046.21 199.846 1072.01 218.442 1096.96 236.423C1100.73 239.141 1104.63 241.953 1108.43 244.659C1134.82 263.427 1160.47 284.792 1184.69 308.153C1211.11 333.585 1236.99 362.56 1261.6 394.275C1283.36 422.305 1304.69 453.217 1325.03 486.147L1324.54 486.383Z" fill="white" fill-opacity="0.5"/>
<path d="M1322.82 468.159C1282.74 396 1236.28 335.09 1184.73 287.117C1159.87 263.922 1133.26 243.267 1105.63 225.722C1104.31 224.887 1103 224.052 1101.68 223.214C1072.95 204.947 1043.24 186.058 1012.38 177.554C1000.43 174.259 989.238 172.551 978.181 172.33C935.529 171.482 899.156 199.029 876.156 222.284C862.621 235.889 850.606 250.801 838.988 265.221C836.116 268.787 833.144 272.474 830.212 276.065C819.042 289.743 808.658 305.294 797.667 321.76C777.673 351.712 757 382.681 728.458 407.268C711.946 421.493 694.139 432.161 674.019 439.885C634.382 455.1 594.133 459.095 556.546 461.147C533.369 462.411 509.148 462.195 484.557 460.507C464.36 459.078 444.397 456.633 425.218 453.242C369.772 443.461 315.929 423.263 265.192 393.207C244.872 381.171 224.094 366.862 199.805 348.173C153.642 312.752 119.362 287.804 88.6594 267.282C27.5926 226.467 -19.0153 202.454 -67.1802 186.991C-99.4261 176.638 -133.298 169.524 -167.859 165.842C-191.838 163.289 -217.285 163.517 -250.366 166.589C-257.145 167.226 -264.081 167.976 -270.982 168.821C-277.502 169.632 -284.124 170.559 -291.136 171.54C-317.028 175.164 -346.377 179.272 -379.966 178.504C-397.67 178.101 -415.754 176.995 -433.241 175.926C-453.116 174.712 -473.666 173.456 -493.15 173.285C-512.685 173.115 -530.946 174.489 -547.409 177.373C-606.3 187.683 -652.985 210.517 -672.289 238.452L-672.837 238.159C-667.823 230.901 -660.99 223.932 -652.529 217.444C-644.361 211.179 -634.636 205.333 -623.622 200.064C-602.228 189.827 -575.917 181.787 -547.535 176.819C-531.026 173.93 -512.725 172.551 -493.144 172.721C-473.643 172.892 -453.082 174.148 -433.198 175.364C-415.717 176.433 -397.642 177.539 -379.952 177.943C-346.422 178.707 -317.105 174.605 -291.242 170.986C-284.226 170.003 -277.598 169.077 -271.076 168.265C-264.166 167.42 -257.225 166.67 -250.44 166.03C-217.307 162.956 -191.818 162.725 -167.788 165.285C-133.178 168.972 -99.2579 176.097 -66.9663 186.464C-18.7358 201.948 27.9206 225.985 89.0415 266.836C119.756 287.365 154.047 312.321 200.221 347.752C224.493 366.425 245.249 380.72 265.546 392.743C316.214 422.757 369.978 442.927 425.341 452.693C444.494 456.078 464.434 458.519 484.602 459.948C509.165 461.633 533.355 461.849 556.503 460.588C594.033 458.539 634.213 454.554 673.76 439.374C693.806 431.68 711.55 421.046 728.005 406.872C756.484 382.338 777.137 351.401 797.108 321.482C808.108 305.005 818.497 289.442 829.685 275.744C832.617 272.155 835.588 268.468 838.46 264.902C850.087 250.47 862.111 235.548 875.668 221.92C890.678 206.743 906.414 194.738 922.439 186.236C941.209 176.277 959.972 171.415 978.192 171.773C989.312 171.994 1000.56 173.712 1012.57 177.022C1043.53 185.556 1073.28 204.471 1102.05 222.765C1103.37 223.603 1104.69 224.441 1106 225.273C1133.66 242.838 1160.31 263.518 1185.19 286.738C1236.79 334.754 1283.29 395.712 1323.39 467.92L1322.82 468.159Z" fill="white" fill-opacity="0.5"/>
<path d="M570.736 460.886C569.136 460.886 567.559 460.883 566.007 460.876C542.95 460.791 518.738 459.211 494.049 456.176C473.927 453.656 454.089 450.177 435.087 445.841C407.938 439.657 380.691 430.769 354.097 419.426C328.416 408.472 302.553 394.889 277.223 379.052C252.403 363.536 229.221 346.247 211.796 332.918C171.026 301.815 132.235 275.819 96.5009 255.648C38.6254 222.981 -12.9503 203.066 -65.8151 192.977C-97.7074 186.89 -131.924 183.68 -164.869 183.68C-165.379 183.68 -165.887 183.68 -166.397 183.683C-194.699 183.768 -221.569 188.393 -246.386 193.378C-252.845 194.685 -259.527 196.112 -266.246 197.624C-269.928 198.462 -273.615 199.324 -277.517 200.237C-305.034 206.685 -336.225 213.99 -374.118 213.391C-397.195 213.025 -420.765 210.923 -443.56 208.889C-458.279 207.575 -473.496 206.218 -488.012 205.398C-507.966 204.272 -526.329 204.633 -542.596 206.477C-601.174 213.107 -650.034 230.923 -673.303 254.136L-673.839 253.722C-661.904 241.817 -643.951 231.51 -620.481 223.084C-598.065 215.039 -571.163 209.08 -542.688 205.857C-526.378 204.012 -507.966 203.645 -487.966 204.776C-473.436 205.596 -458.21 206.956 -443.486 208.27C-420.705 210.304 -397.149 212.405 -374.103 212.769C-336.308 213.368 -305.171 206.073 -277.699 199.638C-273.795 198.722 -270.108 197.86 -266.423 197.022C-259.698 195.51 -253.011 194.08 -246.546 192.774C-221.686 187.781 -194.77 183.149 -166.4 183.061C-132.931 182.958 -98.1009 186.178 -65.6639 192.37C-38.3803 197.579 -11.9293 205.245 15.1946 215.808C41.3176 225.983 68.0395 238.843 96.8831 255.127C132.645 275.312 171.465 301.329 212.261 332.451C229.671 345.773 252.837 363.049 277.631 378.548C329.03 410.684 382.066 433.121 435.264 445.242C454.24 449.573 474.052 453.046 494.146 455.564C518.803 458.594 542.981 460.174 566.007 460.256C602.037 460.387 643.874 459.318 684.679 444.861C705.332 437.543 723.198 426.842 739.303 412.148C767.585 386.342 786.333 353.221 804.468 321.188C813.796 304.712 822.606 289.148 832.185 275.676C835.254 271.36 838.351 266.913 841.345 262.613C851.463 248.082 861.924 233.06 873.976 219.174C887.751 203.199 902.532 190.241 917.906 180.661C935.733 169.554 953.905 163.339 971.92 162.191C983.039 161.481 994.324 162.206 1006.42 164.408C1038.76 170.291 1070.82 187.384 1103.55 205.885C1132.09 222.015 1160.49 242.567 1185.68 265.321C1213.67 290.522 1239.97 320.087 1263.84 353.194C1285.11 382.688 1304.59 415.155 1321.74 449.693L1321.09 449.944C1284.25 375.772 1238.53 313.803 1185.17 265.76C1160.01 243.039 1131.66 222.517 1103.17 206.414C1070.49 187.946 1038.5 170.885 1006.28 165.022C994.244 162.833 983.022 162.113 971.972 162.818C938.87 164.932 904.268 185.08 874.544 219.555C862.514 233.416 852.062 248.426 841.953 262.941C838.958 267.244 835.858 271.693 832.79 276.009C823.227 289.457 814.424 305.008 805.107 321.469C796.209 337.186 787.009 353.439 776.451 369.063C764.482 386.776 752.501 401.011 739.819 412.585C723.643 427.343 705.697 438.092 684.947 445.445C666.646 451.93 646.977 456.216 624.815 458.554C606.047 460.522 587.196 460.886 570.736 460.886Z" fill="white" fill-opacity="0.5"/>
<path d="M616.469 462.142C601.927 462.142 587.959 461.38 575.462 460.608C552.484 459.188 528.284 456.241 503.535 451.848C483.498 448.239 463.786 443.73 444.947 438.441C393.359 423.988 342.428 399.93 289.244 364.898C266.05 349.623 244.185 333.186 223.783 317.663C183.503 287.104 143.32 262.327 104.344 244.014C47.0218 217.083 -6.61015 202.765 -64.44 198.958C-97.3903 196.789 -132.137 197.674 -164.928 201.516C-192.374 204.731 -218.249 212.491 -242.404 220.16C-248.447 222.088 -254.875 224.195 -261.506 226.419C-263.163 226.979 -264.834 227.548 -266.528 228.122C-294.348 237.582 -325.827 248.285 -366.226 248.285C-366.908 248.285 -367.586 248.283 -368.274 248.275C-395.606 248.032 -423.511 244.601 -450.501 241.281C-461.201 239.964 -472.266 238.605 -482.884 237.504C-503.623 235.357 -521.584 234.723 -537.796 235.57C-596.764 238.655 -646.538 251.134 -674.349 269.815L-674.825 269.266C-661.076 260.032 -641.196 252.014 -617.34 246.081C-593.875 240.245 -566.386 236.373 -537.845 234.881C-521.586 234.031 -503.58 234.665 -482.796 236.817C-472.167 237.918 -461.099 239.28 -450.396 240.594C-423.431 243.909 -395.552 247.337 -368.271 247.581C-327.03 247.952 -295.038 237.07 -266.816 227.473C-265.125 226.898 -263.451 226.329 -261.794 225.767C-255.158 223.54 -248.727 221.434 -242.678 219.505C-218.483 211.821 -192.56 204.052 -165.039 200.827C-132.197 196.98 -97.3932 196.092 -64.3887 198.264C-35.7304 200.15 -8.40679 204.604 19.1421 211.876C47.5152 219.367 75.5032 229.677 104.706 243.4C143.731 261.737 183.965 286.545 224.287 317.133C244.681 332.652 266.532 349.078 289.706 364.339C342.819 399.323 393.673 423.346 445.178 437.776C463.988 443.055 483.675 447.559 503.683 451.163C528.397 455.552 552.564 458.496 575.507 459.91C614.116 462.293 655.188 463.517 695.593 450.333C716.854 443.394 734.846 432.625 750.594 417.41C778.65 390.307 796.113 353.339 811.521 320.722C819.272 304.311 826.596 288.81 834.675 275.596C837.59 270.828 840.524 265.9 843.362 261.136C852.237 246.226 861.414 230.811 872.277 216.413C884.845 199.64 898.671 185.729 913.369 175.066C930.252 162.82 947.839 155.257 965.638 152.591C976.763 150.923 988.091 150.657 1000.26 151.771C1034.27 154.888 1068.82 170.291 1101.09 186.474C1130.89 201.416 1160.31 221.268 1186.17 243.884C1214.94 268.968 1241.44 298.829 1264.95 332.632C1285.96 362.862 1304.52 396.106 1320.09 431.446L1319.36 431.695C1286.26 356.574 1240.01 291.799 1185.62 244.371C1159.81 221.797 1130.45 201.983 1100.71 187.071C1068.51 170.926 1034.05 155.56 1000.19 152.455C988.085 151.347 976.829 151.613 965.775 153.268C932.91 158.191 899.94 180.749 872.936 216.789C862.093 231.157 852.927 246.557 844.061 261.452C841.223 266.219 838.289 271.147 835.371 275.919C827.309 289.103 819.994 304.589 812.248 320.983C796.814 353.65 779.323 390.679 751.176 417.871C735.339 433.169 717.247 443.998 695.867 450.977C677.313 457.031 657.298 460.537 634.675 461.688C628.557 462.015 622.466 462.142 616.469 462.142Z" fill="white" fill-opacity="0.5"/>
<path d="M645.172 464.858C644.964 464.858 644.759 464.858 644.551 464.858C624 464.813 603.823 462.601 584.916 460.339C561.972 457.595 537.786 453.279 513.023 447.516C493.077 442.824 473.491 437.279 454.811 431.04C405.286 414.521 356.499 389.008 301.273 350.746C281.384 336.97 261.812 322.136 242.881 307.794C240.514 305.998 238.145 304.205 235.775 302.412C195.287 271.861 153.71 248.3 112.201 232.385C55.3607 210.595 -1.9644 201.616 -63.0511 204.939C-96.5461 206.763 -131.262 211.746 -163.445 219.349C-188.838 225.351 -211.464 234.978 -238.409 246.941C-243.87 249.376 -249.702 252.004 -256.758 255.214L-257.151 255.395C-270.763 261.629 -286.191 268.694 -303.497 274.066C-323.371 280.235 -342.652 283.204 -362.424 283.169C-393.256 283.102 -424.72 278.056 -455.147 273.173C-462.601 271.977 -470.313 270.74 -477.756 269.622C-499.102 266.419 -517.172 264.802 -532.997 264.679C-591.266 264.227 -643.175 271.821 -675.412 285.509L-675.783 284.832C-659.992 278.126 -638.692 272.684 -614.186 269.093C-589.634 265.494 -561.555 263.708 -532.988 263.929C-517.117 264.052 -499.002 265.672 -477.611 268.882C-470.162 270.001 -462.45 271.237 -454.993 272.433C-424.603 277.308 -393.179 282.349 -362.422 282.417C-362.285 282.417 -362.145 282.417 -362.008 282.417C-318.012 282.417 -284.495 267.069 -257.545 254.728L-257.148 254.547C-250.09 251.335 -244.258 248.706 -238.794 246.271C-211.804 234.289 -189.137 224.644 -163.664 218.625C-131.427 211.006 -96.6545 206.015 -63.1025 204.189C-33.2094 202.564 -5.013 203.803 23.1034 207.981C53.4015 212.483 82.6586 220.24 112.543 231.698C154.132 247.643 195.78 271.242 236.334 301.843C238.703 303.636 241.073 305.431 243.44 307.227C262.362 321.564 281.929 336.393 301.801 350.159C356.956 388.374 405.671 413.851 455.113 430.343C473.767 436.575 493.325 442.109 513.243 446.797C537.971 452.552 562.124 456.861 585.03 459.599C626.059 464.51 666.228 467.915 706.524 455.837C728.392 449.282 746.507 438.445 761.899 422.706C789.704 394.275 804.893 354.879 818.297 320.117C824.571 303.844 830.497 288.471 837.182 275.553C839.754 270.582 842.335 265.441 844.831 260.468C852.633 244.92 860.701 228.844 870.594 213.687C881.982 196.109 894.852 181.243 908.843 169.501C924.794 156.119 941.791 147.211 959.364 143.028C970.261 140.435 981.38 139.171 993.329 139.171C993.589 139.171 993.849 139.171 994.111 139.173C1031.26 139.344 1069.49 154.185 1098.65 167.096C1129.71 180.851 1160.14 200.001 1186.67 222.477C1216.22 247.445 1242.93 277.599 1266.07 312.105C1286.83 343.069 1304.45 377.093 1318.45 413.237L1317.64 413.48C1296.81 359.701 1257.07 283.006 1186.07 223.021C1159.61 200.596 1129.25 181.491 1098.26 167.768C1069.19 154.893 1031.08 140.094 994.108 139.926C981.933 139.863 970.649 141.122 959.589 143.755C927.03 151.507 895.688 176.475 871.336 214.06C861.465 229.183 853.406 245.24 845.612 260.772C843.117 265.747 840.533 270.891 837.961 275.864C831.293 288.749 825.372 304.102 819.107 320.358C805.68 355.182 790.463 394.653 762.549 423.195C747.055 439.04 728.817 449.949 706.801 456.547C688.141 462.137 667.973 464.858 645.172 464.858Z" fill="white" fill-opacity="0.5"/>
<path d="M667.995 468.39C663.569 468.39 659.046 468.264 654.415 468.014C634.144 466.918 614.443 463.63 594.366 460.069C571.092 455.941 547.587 450.418 522.508 443.186C502.665 437.413 483.206 430.837 464.672 423.637C417.654 405.4 370.969 378.553 313.302 336.592C298.98 326.172 284.663 315.243 270.818 304.672C263.28 298.919 255.489 292.968 247.769 287.157C206.799 256.401 163.833 234.061 120.063 220.754C62.23 203.172 2.79173 199.952 -61.6545 210.911C-95.7027 216.702 -130.387 225.783 -161.954 237.171C-187.313 246.319 -209.403 259.167 -232.791 272.77L-234.408 273.71C-238.062 275.842 -241.755 278.004 -245.493 280.19C-247.647 281.452 -249.814 282.721 -252.001 284C-265.639 292.017 -280.369 300.381 -297.26 306.819C-316.873 314.292 -336.271 317.969 -356.57 318.059C-390.365 318.204 -424.835 311.298 -458.168 304.612C-462.925 303.656 -467.847 302.671 -472.624 301.735C-495.019 297.347 -512.675 294.821 -528.195 293.783C-585.466 289.954 -639.514 292.652 -676.486 301.189L-676.722 300.401C-639.654 291.842 -585.494 289.133 -528.124 292.97C-512.561 294.011 -494.86 296.544 -472.421 300.94C-467.641 301.878 -462.719 302.864 -457.959 303.819C-425.035 310.423 -391.001 317.246 -357.654 317.246C-357.295 317.246 -356.935 317.246 -356.573 317.244C-313.442 317.053 -282.739 301.088 -252.512 283.323C-250.325 282.044 -248.157 280.775 -246.004 279.513C-242.265 277.324 -238.575 275.165 -234.919 273.031L-233.302 272.09C-209.874 258.465 -187.746 245.595 -162.305 236.416C-130.681 225.005 -95.9366 215.909 -61.8284 210.109C2.78036 199.122 62.3784 202.352 120.368 219.982C164.247 233.324 207.312 255.714 248.373 286.538C256.093 292.351 263.887 298.3 271.425 304.055C285.265 314.623 299.578 325.55 313.892 335.963C371.491 377.876 418.11 404.685 465.046 422.892C483.554 430.08 502.984 436.648 522.799 442.411C547.841 449.633 571.312 455.148 594.551 459.269C629.829 465.526 673.733 473.315 717.455 461.318C739.933 455.151 758.168 444.247 773.2 427.981C800.738 398.187 813.505 356.284 824.773 319.315C829.667 303.255 834.29 288.085 839.685 275.496C841.787 270.59 843.895 265.517 845.931 260.609C852.764 244.15 859.831 227.132 868.905 210.946C879.141 192.551 891.053 176.729 904.311 163.919C919.335 149.403 935.744 139.154 953.084 133.454C964.212 129.795 975.616 127.54 987.95 126.559C1004.47 125.245 1022.05 126.65 1041.7 130.843C1058.33 134.394 1076.15 139.906 1096.19 147.698C1128.52 160.265 1159.97 178.715 1187.16 201.053C1217.5 225.903 1244.42 256.356 1267.18 291.561C1287.68 323.263 1304.37 358.067 1316.81 395.01L1315.92 395.241C1289.67 317.246 1243.71 248.494 1186.53 201.65C1159.41 179.372 1128.04 160.975 1095.82 148.445C1052.63 131.658 1018.39 124.959 988.033 127.372C975.782 128.345 964.457 130.585 953.406 134.216C912.154 147.776 885.135 183.623 869.735 211.305C860.684 227.45 853.625 244.449 846.801 260.888C844.762 265.798 842.654 270.874 840.552 275.782C835.174 288.333 830.557 303.486 825.668 319.526C814.378 356.575 801.582 398.566 773.919 428.495C758.767 444.889 740.387 455.881 717.729 462.097C702.371 466.311 685.993 468.39 667.995 468.39Z" fill="white" fill-opacity="0.5"/>
<path d="M687.771 472.437C657.613 472.437 628.618 465.623 603.812 459.795C580.476 454.313 556.982 447.461 531.989 438.852C512.257 432.006 492.924 424.397 474.529 416.234C419.389 391.792 370.231 356.71 325.326 322.437C316.157 315.441 306.895 308.228 297.94 301.254C285.506 291.568 272.647 281.554 259.762 271.904C218.179 240.845 173.824 219.721 127.932 209.12C68.5652 195.41 7.00794 197.945 -60.2559 216.874C-94.8888 226.62 -129.539 239.799 -160.461 254.986C-184.311 266.698 -204.491 281.484 -225.854 297.138C-227.369 298.247 -228.886 299.36 -230.412 300.474L-231.239 301.081C-236.432 304.89 -241.802 308.827 -247.246 312.78C-260.291 322.292 -274.655 332.13 -291.27 339.646C-310.557 348.371 -330.001 352.722 -350.72 352.948C-387.087 353.347 -424.152 344.356 -459.994 335.661C-462.507 335.052 -465.008 334.445 -467.498 333.846C-491.134 328.143 -508.376 324.762 -523.4 322.881C-579.233 315.894 -635.426 313.698 -677.571 316.855L-677.656 315.98C-635.443 312.815 -579.168 315.014 -523.26 322.011C-508.194 323.897 -490.914 327.285 -467.235 332.998C-464.746 333.597 -462.245 334.204 -459.729 334.816C-423.956 343.493 -386.961 352.461 -350.734 352.07C-305.741 351.579 -274.054 331.182 -247.885 312.103C-242.441 308.15 -237.071 304.213 -231.878 300.406L-231.051 299.799C-229.525 298.683 -228.008 297.572 -226.493 296.464C-205.093 280.782 -184.879 265.971 -160.949 254.219C-129.969 239.004 -95.2538 225.802 -60.561 216.039C-28.6716 207.066 1.28142 201.885 31.0063 200.2C64.1648 198.321 96.8584 201.037 128.183 208.273C174.221 218.906 218.707 240.09 260.407 271.235C273.3 280.89 286.162 290.906 298.599 300.594C307.553 307.568 316.81 314.778 325.976 321.773C370.836 356.008 419.934 391.052 474.974 415.449C493.343 423.599 512.647 431.198 532.351 438.034C557.307 446.631 580.764 453.473 604.066 458.947C639.846 467.354 684.374 477.816 728.373 466.807C751.461 461.029 769.816 450.057 784.489 433.264C811.741 402.069 821.939 357.588 830.937 318.34C834.553 302.57 837.967 287.676 842.176 275.445C843.733 270.921 845.296 266.247 846.807 261.725C852.722 244.04 858.839 225.75 867.204 208.212C876.304 188.985 887.258 172.202 899.761 158.336C913.866 142.69 929.688 131.098 946.788 123.883C957.893 119.199 969.334 115.951 981.774 113.952C998.532 111.261 1017.13 111.352 1037.04 114.221C1054.48 116.733 1073.55 121.471 1093.72 128.305C1127.3 139.683 1159.78 157.431 1187.64 179.63C1218.77 204.365 1245.9 235.112 1268.29 271.019C1288.51 303.458 1304.28 339.044 1315.16 376.788L1314.19 377.003C1291.15 297.028 1245.97 227.164 1186.97 180.282C1159.2 158.156 1126.83 140.465 1093.36 129.125C1049.98 114.426 1013.54 109.744 981.954 114.817C969.605 116.801 958.244 120.026 947.218 124.676C906.534 141.842 881.751 179.761 868.125 208.551C859.781 226.043 853.672 244.308 847.766 261.971C846.254 266.492 844.689 271.169 843.131 275.699C838.936 287.889 835.526 302.763 831.915 318.513C827.586 337.394 822.681 358.794 815.56 378.857C807.401 401.844 797.496 419.815 785.282 433.799C778.218 441.884 770.101 448.765 761.155 454.253C751.533 460.154 740.596 464.663 728.647 467.652C714.975 471.075 701.255 472.437 687.771 472.437Z" fill="white" fill-opacity="0.5"/>
<path d="M705.594 476.878C695.624 476.878 685.178 476.026 674.144 474.323C652.413 470.97 631.612 464.886 613.257 459.522C590.123 452.758 565.968 444.344 541.467 434.516C521.861 426.606 502.654 417.964 484.385 408.825C431.948 382.626 386.771 347.789 337.349 308.28C332.957 304.769 328.497 301.188 324.185 297.722C307.202 284.082 289.643 269.978 271.753 256.651C229.48 225.228 183.739 205.323 135.8 197.489C75.3291 187.605 9.83345 196.132 -58.8591 222.835C-94.108 236.538 -128.727 253.812 -158.971 272.794C-181.743 287.087 -200.488 303.937 -220.334 321.778C-222.35 323.591 -224.375 325.409 -226.411 327.235C-231.479 331.784 -236.937 336.667 -242.49 341.555C-254.134 351.839 -268.325 363.559 -285.279 372.469C-304.258 382.445 -323.751 387.473 -344.866 387.837C-383.52 388.507 -422.867 377.251 -460.919 366.367L-462.368 365.954C-480.999 360.627 -500.708 355.245 -518.601 351.977C-573.14 342.019 -629.98 335.104 -678.647 332.509L-678.581 331.571C-629.863 334.169 -572.971 341.088 -518.384 351.057C-500.44 354.335 -480.697 359.724 -462.037 365.058L-460.588 365.472C-422.619 376.331 -383.352 387.559 -344.886 386.894C-300.462 386.127 -269.782 364.328 -243.246 340.885C-237.693 336 -232.24 331.117 -227.173 326.57C-225.136 324.747 -223.112 322.926 -221.095 321.116C-201.215 303.245 -182.436 286.364 -159.589 272.024C-129.288 253.005 -94.6043 235.698 -59.2898 221.97C-27.061 209.444 4.65449 200.811 34.9697 196.317C69.6083 191.184 103.6 191.264 135.999 196.558C184.122 204.423 230.031 224.398 272.446 255.929C290.35 269.268 307.918 283.378 324.909 297.025C329.221 300.489 333.681 304.07 338.073 307.581C387.447 347.052 432.575 381.851 484.918 408.005C503.161 417.129 522.34 425.758 541.918 433.658C566.384 443.471 590.499 451.873 613.599 458.626C649.809 469.214 694.874 482.388 739.312 472.294C763.014 466.91 781.488 455.873 795.793 438.548C822.746 405.909 830.545 356.712 836.814 317.181C839.255 301.783 841.559 287.24 844.685 275.403C845.669 271.671 846.664 267.826 847.625 264.107C852.616 244.787 857.781 224.807 865.523 205.486C877.481 175.419 900.196 135.199 940.507 114.326C951.638 108.563 963.122 104.319 975.614 101.355C1008.3 93.4879 1047.21 96.0334 1091.27 108.916C1126.11 119.106 1159.61 136.152 1188.14 158.213C1220.05 182.83 1247.4 213.872 1269.41 250.485C1279.51 267.277 1288.43 285.213 1295.94 303.794C1303.11 321.542 1309.02 339.972 1313.52 358.573L1312.47 358.769C1292.66 276.807 1248.25 205.832 1187.43 158.918C1159.01 136.939 1125.64 119.958 1090.93 109.807C1047.08 96.9814 1008.37 94.4434 975.893 102.26C963.493 105.202 952.097 109.413 941.049 115.133C901.015 135.861 878.431 175.876 866.533 205.795C858.807 225.065 853.654 245.017 848.666 264.313C847.705 268.032 846.713 271.879 845.726 275.613C842.612 287.41 840.307 301.933 837.872 317.309C834.718 337.201 831.144 359.747 825.036 381.026C818.017 405.477 808.734 424.474 796.657 439.1C789.767 447.444 781.707 454.481 772.707 460.013C763.011 465.974 751.863 470.413 739.577 473.202C728.794 475.655 717.532 476.878 705.594 476.878Z" fill="white" fill-opacity="0.5"/>
<path d="M737.455 486.451C723.84 486.451 709.416 484.515 693.87 480.628C671.877 475.128 650.762 466.539 632.136 458.963C608.597 449.388 584.467 438.24 560.418 425.836C541.079 415.83 522.129 405.119 504.088 394.007C459.665 366.651 421.698 333.139 381.501 297.658C374.93 291.857 368.134 285.861 361.393 279.965C337.694 259.25 317.457 242.169 295.734 226.146C251.958 193.903 203.448 176.431 151.548 174.214C86.3314 171.427 16.4753 191.791 -56.0759 234.738C-92.1176 256.075 -127.606 282.232 -156.002 308.394C-177.394 328.103 -194.117 349.558 -211.821 372.271C-214.014 375.085 -216.216 377.909 -218.432 380.735C-222.379 385.779 -227.603 392.424 -232.996 399.088C-255.691 427.196 -285.342 456.134 -333.171 457.613C-334.662 457.656 -336.159 457.676 -337.654 457.676C-375.002 457.676 -413.131 444.678 -452.138 430.165L-454.574 429.252C-473.895 421.999 -492.147 415.151 -509.041 410.165C-572.709 391.376 -634.283 375.516 -680.814 363.8L-680.481 362.774C-633.938 374.496 -572.347 390.358 -508.657 409.154C-491.716 414.152 -473.445 421.011 -454.098 428.272L-451.665 429.184C-411.229 444.229 -371.739 457.649 -333.213 456.55C-285.915 455.086 -256.513 426.371 -233.986 398.473C-228.596 391.815 -223.377 385.174 -219.43 380.133C-217.214 377.304 -215.015 374.483 -212.822 371.669C-195.09 348.921 -178.341 327.431 -156.88 307.659C-128.427 281.442 -92.8677 255.232 -56.7547 233.853C-23.2368 214.011 10.2924 198.775 42.9005 188.566C80.3139 176.852 116.889 171.666 151.605 173.148C203.774 175.375 252.529 192.932 296.51 225.326C318.264 241.374 338.521 258.472 362.242 279.205C368.987 285.101 375.783 291.1 382.357 296.9C422.514 332.346 460.443 365.826 504.781 393.127C522.796 404.226 541.718 414.92 561.028 424.911C585.043 437.3 609.136 448.43 632.641 457.99C669.538 472.999 715.459 491.678 761.163 483.269C786.145 478.672 804.859 467.502 818.371 449.122C844.748 413.493 846.333 358.508 847.608 314.327C848.024 299.912 848.418 286.295 849.676 275.323L849.704 275.072C852.525 250.502 855.442 225.098 862.13 200.032C867.922 178.168 875.99 158.512 886.105 141.604C897.512 122.542 911.578 106.933 927.913 95.2087C938.842 87.3641 950.403 81.1321 963.256 76.1591C997.983 62.6442 1040.54 60.5577 1086.32 70.1302C1104.75 73.9822 1122.92 79.818 1140.35 87.472C1157.87 95.1711 1174.28 104.558 1189.1 115.367C1222.6 139.746 1250.36 171.385 1271.63 209.406C1290.74 243.581 1304.08 282.565 1310.22 322.142L1309.02 322.285C1295.89 237.579 1251.91 162.459 1188.33 116.187C1158.6 94.514 1123.23 78.9453 1086.05 71.1734C1040.52 61.6561 998.234 63.7201 963.75 77.1421C950.996 82.0776 939.529 88.2594 928.683 96.0413C898.186 117.932 875.582 153.978 863.313 200.28C856.643 225.281 853.731 250.65 850.913 275.185L850.885 275.436C849.63 286.367 849.236 299.965 848.82 314.36C847.539 358.676 845.948 413.826 819.386 449.706C812.872 458.569 804.936 465.922 795.804 471.56C785.957 477.639 774.387 481.93 761.411 484.32C753.682 485.739 745.717 486.451 737.455 486.451Z" fill="white" fill-opacity="0.5"/>
<path d="M-332.283 492.593C-348.984 492.593 -367.17 489.732 -387.695 483.888C-408.089 478.083 -428.257 470.067 -447.016 462.273C-450.413 460.854 -453.784 459.437 -457.132 458.03C-473.798 451.025 -489.54 444.41 -504.253 439.256C-562.919 418.714 -618.838 400.251 -672.917 382.4L-681.878 379.441L-681.427 378.385L-672.467 381.345C-618.384 399.201 -562.457 417.663 -503.78 438.21C-489.027 443.376 -473.265 450 -456.579 457.014C-453.233 458.421 -449.862 459.838 -446.469 461.255C-407.96 477.255 -367.048 492.761 -327.367 491.379C-278.589 489.594 -249.357 456.179 -229.343 427.271C-224.215 419.878 -219.276 412.51 -215.546 406.917C-213.487 403.835 -211.442 400.755 -209.403 397.683C-192.491 372.216 -176.518 348.161 -155.511 325.48C-127.783 295.546 -92.2572 265.116 -55.474 239.799C-21.3487 216.31 13.0875 197.752 46.8819 184.641C85.6443 169.602 123.505 161.797 159.413 161.444C213.444 160.736 263.628 177.083 308.551 210.023C333.453 228.305 355.78 248.082 374.34 265.018C384.439 274.234 394.537 283.681 404.305 292.817C438.878 325.161 474.629 358.603 514.723 385.691C532.632 397.794 551.432 409.52 570.593 420.542C594.307 434.152 618.388 446.647 642.172 457.676C679.349 474.915 725.614 496.37 772.097 488.756C797.681 484.565 816.511 473.33 829.667 454.408C855.693 417.164 853.937 359.168 852.522 312.567C852.106 298.786 851.709 285.768 852.185 275.288C853.255 251.661 854.866 224.203 860.447 197.308C865.15 174.52 872.251 153.902 881.554 136.032C892.077 115.816 905.561 98.8677 921.628 85.6563C932.274 76.9014 944.206 69.4706 957.088 63.5671C975.471 55.1157 996.098 49.8015 1018.4 47.7752C1039.29 45.8768 1061.31 46.8749 1083.86 50.7395C1102.87 53.9997 1121.61 59.3615 1139.56 66.6794C1157.61 74.0424 1174.45 83.2162 1189.59 93.9448C1207.05 106.298 1223.11 120.887 1237.31 137.306C1250.76 152.862 1262.68 170.211 1272.75 188.869C1291.58 223.776 1303.96 263.566 1308.57 303.93L1307.3 304.043C1297.4 217.364 1254.2 141.107 1188.79 94.825C1158.83 73.6036 1121.48 58.3408 1083.61 51.8479C1036.79 43.8203 993.241 48.2191 957.681 64.5678C944.902 70.4236 933.067 77.7967 922.504 86.4814C892.228 111.374 871.772 148.729 861.708 197.512C856.138 224.333 854.532 251.744 853.466 275.333C852.992 285.775 853.386 298.774 853.805 312.537C854.501 335.526 855.291 361.585 852.645 386.777C849.573 416.008 842.415 438.323 830.762 454.998C824.42 464.121 816.543 471.632 807.354 477.32C797.43 483.464 785.646 487.685 772.333 489.864C765.617 490.965 758.907 491.464 752.236 491.464C712.291 491.464 673.582 473.513 641.576 458.672C617.757 447.625 593.639 435.113 569.895 421.483C550.705 410.446 531.879 398.701 513.944 386.581C473.767 359.439 437.979 325.961 403.372 293.587C393.607 284.454 383.512 275.009 373.419 265.798C354.885 248.882 332.589 229.133 307.732 210.886C263.052 178.121 213.162 161.87 159.433 162.567C75.0554 163.4 -3.57595 205.504 -54.6812 240.682C-91.3902 265.948 -126.844 296.313 -154.513 326.187C-175.457 348.8 -191.408 372.818 -208.293 398.245C-210.332 401.317 -212.38 404.397 -214.439 407.481C-218.172 413.076 -223.114 420.45 -228.245 427.85C-236.647 439.986 -249.836 457.651 -267.307 470.893C-275.791 477.323 -284.82 482.376 -294.143 485.915C-304.538 489.859 -315.7 492.076 -327.313 492.5C-328.958 492.563 -330.615 492.593 -332.283 492.593Z" fill="white" fill-opacity="0.5"/>
<path d="M-326.922 527.507C-343.642 527.507 -361.791 524.425 -382.208 518.135C-403.346 511.625 -424.244 502.471 -441.897 494.373C-447.321 491.88 -452.734 489.353 -457.97 486.907C-472.606 480.073 -486.432 473.616 -499.468 468.344C-546.281 449.41 -592.789 430.925 -637.768 413.046C-652.646 407.133 -668.029 401.018 -682.939 395.08L-682.38 393.994C-667.47 399.933 -652.087 406.047 -637.209 411.96C-592.23 429.839 -545.716 448.327 -498.9 467.263C-485.83 472.55 -471.987 479.013 -457.334 485.857C-452.101 488.302 -446.688 490.827 -441.27 493.32C-404.658 510.108 -362.191 527.878 -321.526 526.205C-271.599 524.104 -243.556 487.617 -224.7 456.066C-219.866 447.983 -215.192 439.868 -211.661 433.701C-209.848 430.536 -208.045 427.373 -206.246 424.219C-190.07 395.842 -174.793 369.041 -154.139 343.303C-127.278 309.828 -91.7808 275.182 -54.1934 245.747C-1.84765 204.932 79.0565 155.146 167.219 149.747C223.286 146.221 274.89 161.353 320.591 194.728C341.125 209.73 361.43 227.034 386.435 250.841C399.072 262.871 411.611 275.34 423.737 287.395C455.287 318.761 487.907 351.195 524.664 378.267C542.471 391.386 561.142 404.143 580.159 416.186C603.184 430.754 627.257 444.612 651.703 457.377C689.253 476.866 735.987 501.124 783.028 494.258C808.82 490.571 828.31 478.947 840.961 459.712C866.627 420.783 861.12 357.093 857.096 310.59C855.967 297.539 854.9 285.213 854.692 275.27C854.225 253.171 854.264 224.032 858.762 194.602C866.525 143.605 885.561 103.74 915.343 76.1212C925.78 66.3908 937.752 57.9368 950.919 50.9926C969.65 41.1016 990.786 34.4483 1013.74 31.2206C1035.37 28.1811 1058.12 28.2288 1081.39 31.3636C1101.02 34.0671 1120.32 38.9674 1138.76 45.9242C1157.38 52.9512 1174.64 61.9042 1190.08 72.535C1207.93 84.8185 1224.24 99.4568 1238.55 116.046C1252.11 131.768 1263.99 149.363 1273.87 168.347C1292.4 203.989 1303.84 244.581 1306.93 285.735L1305.58 285.813C1298.92 197.155 1256.52 119.76 1189.25 73.4754C1158.75 52.4772 1120.37 37.9392 1081.18 32.5423C1032.87 26.0344 988.068 32.768 951.621 52.0158C938.56 58.9023 926.687 67.2886 916.332 76.9413C886.747 104.377 867.831 144.016 860.108 194.763C855.622 224.112 855.585 253.193 856.05 275.25C856.261 285.158 857.325 297.469 858.451 310.503C860.53 334.54 862.886 361.788 861.54 388.389C859.968 419.363 853.623 442.89 842.136 460.312C835.956 469.709 828.142 477.383 818.904 483.121C808.892 489.343 796.897 493.485 783.253 495.437C762.093 498.524 739.318 495.75 713.625 486.955C691.292 479.309 669.895 468.204 651.019 458.408C626.535 445.626 602.432 431.747 579.372 417.159C560.327 405.099 541.63 392.324 523.797 379.188C486.963 352.06 454.306 319.591 422.725 288.193C410.605 276.14 398.068 263.678 385.443 251.658C360.48 227.894 340.212 210.622 319.727 195.656C274.297 162.472 223.021 147.429 167.31 150.933C79.5272 156.312 -1.10898 205.945 -53.2979 246.638C-90.8112 276.012 -126.234 310.585 -153.039 343.99C-173.635 369.655 -188.889 396.419 -205.039 424.753C-206.839 427.91 -208.641 431.073 -210.455 434.237C-213.988 440.409 -218.665 448.532 -223.505 456.623C-242.527 488.455 -270.852 525.268 -321.466 527.397C-323.266 527.469 -325.088 527.507 -326.922 527.507Z" fill="white" fill-opacity="0.5"/>
<path d="M-321.452 562.424C-367.139 562.424 -415.076 537.749 -457.571 515.873C-470.63 509.152 -482.964 502.802 -494.685 497.433L-684 410.719L-683.341 409.608L-494.027 496.322C-482.274 501.704 -469.926 508.061 -456.85 514.793C-412.712 537.514 -362.682 563.267 -315.686 561.035C-264.658 558.615 -237.776 519.056 -220.058 484.866C-214.263 473.684 -208.667 462.306 -203.255 451.301C-188.451 421.207 -173.145 390.087 -152.774 361.124C-136.598 338.127 -116.504 314.009 -94.6646 291.381C-70.7061 266.555 -45.0537 243.779 -18.426 223.686C10.9339 201.534 40.7871 183.209 70.3009 169.223C102.946 153.755 135.106 143.656 165.895 139.204C227.572 130.289 283.668 143.819 332.62 179.422C373.302 209.008 407.878 245.592 441.316 280.973C470.422 311.769 500.517 343.612 534.597 370.832C573.961 402.27 616.565 431.284 661.228 457.062C698.858 478.782 745.691 505.817 793.959 499.74C834.723 494.609 858.294 470.624 866.011 426.411C872.576 388.803 866.33 344.191 861.314 308.346C859.603 296.13 857.988 284.592 857.196 275.235C852.821 223.653 855.61 181.073 865.72 145.062C872.028 122.595 881.337 102.567 893.386 85.536C906.844 66.5115 924.123 50.6518 944.742 38.3984C962.58 27.7978 982.683 20.0986 1004.5 15.5143C1025.26 11.1506 1047.12 9.68856 1069.48 11.1682C1113.44 14.0773 1156.44 28.2617 1190.56 51.1057C1208.8 63.3165 1225.36 78.0075 1239.78 94.7674C1253.45 110.652 1265.29 128.496 1274.97 147.806C1293.22 184.182 1303.69 225.579 1305.27 267.518L1303.84 267.561C1300.48 178.251 1257.81 97.7066 1189.69 52.1064C1117.36 3.67974 1014.67 -1.64944 945.535 39.4392C877.045 80.1416 848.612 157.241 858.613 275.142C859.403 284.469 861.017 295.992 862.725 308.193C867.753 344.116 874.013 388.823 867.417 426.601C863.823 447.178 856.602 463.715 845.957 475.755C839.968 482.524 832.75 488.056 824.499 492.194C815.718 496.598 805.511 499.555 794.158 500.984C789.518 501.569 784.798 501.862 779.999 501.862C762.508 501.862 743.877 497.972 723.464 490.093C700.466 481.215 678.273 468.405 660.441 458.113C615.718 432.297 573.054 403.246 533.633 371.762C499.476 344.484 469.349 312.604 440.212 281.775C406.817 246.44 372.284 209.9 331.705 180.391C283.081 145.03 227.37 131.588 166.117 140.443C42.2159 158.354 -85.416 267.736 -151.57 361.786C-171.887 390.669 -187.173 421.746 -201.957 451.8C-207.373 462.81 -212.971 474.195 -218.771 485.388C-230.535 508.087 -242.154 524.34 -255.335 536.533C-263.563 544.142 -272.489 550.141 -281.866 554.361C-292.292 559.054 -303.648 561.722 -315.62 562.291C-317.554 562.379 -319.502 562.424 -321.452 562.424Z" fill="white" fill-opacity="0.5"/>
</g>
</svg>
