<svg width="1334" height="1588" viewBox="0 0 1334 1588" fill="none" xmlns="http://www.w3.org/2000/svg">
<path d="M397.425 81.9152C175.574 -14.9312 -61.9628 122.268 -153 202.973V867.416L1705 835.776V-2C1434.41 240.804 674.739 202.973 397.425 81.9152Z" fill="#005999"/>
<path d="M349.425 637.499C127.574 540.653 -109.963 677.852 -201 758.557V1423L1657 1391.36V553.584C1386.41 796.387 626.739 758.557 349.425 637.499Z" fill="#005999"/>
<g opacity="0.3">
<ellipse rx="4.77533" ry="5.1982" transform="matrix(-1 0 0 1 170.35 1161.06)" fill="#E77E42"/>
<ellipse cx="874.371" cy="541.736" rx="4.77533" ry="5.1982" fill="#1BEAFF"/>
<ellipse rx="4.77533" ry="5.1982" transform="matrix(-1 0 0 1 284.959 850.658)" fill="#E77E42"/>
<ellipse cx="841.625" cy="1444.74" rx="4.77533" ry="5.1982" fill="#E77E42"/>
<ellipse cx="600.13" cy="529.855" rx="3.41095" ry="3.713" fill="white"/>
<ellipse rx="3.41095" ry="3.713" transform="matrix(-1 0 0 1 836.167 819.468)" fill="white"/>
<ellipse cx="290.415" cy="1413.55" rx="3.41095" ry="3.713" fill="white"/>
<ellipse cx="787.05" cy="517.973" rx="3.41095" ry="3.713" fill="white"/>
<ellipse rx="3.41095" ry="3.713" transform="matrix(-1 0 0 1 426.853 789.764)" fill="white"/>
<ellipse cx="827.981" cy="662.037" rx="3.41095" ry="3.713" fill="white"/>
<ellipse rx="3.41095" ry="3.713" transform="matrix(-1 0 0 1 140.333 920.462)" fill="white"/>
<ellipse cx="725.652" cy="638.274" rx="4.77533" ry="5.1982" fill="#E77E42"/>
<ellipse rx="4.77533" ry="5.1982" transform="matrix(-1 0 0 1 460.963 1364.54)" fill="#E77E42"/>
<ellipse cx="158.07" cy="679.86" rx="4.77533" ry="5.1982" fill="#1BEAFF"/>
<ellipse cx="149.885" cy="1556.13" rx="4.77533" ry="5.1982" fill="#1BEAFF"/>
<ellipse cx="724.288" cy="760.061" rx="3.41095" ry="3.713" fill="#1BEAFF"/>
<ellipse cx="420.714" cy="532.082" rx="1.36438" ry="1.4852" fill="white"/>
<ellipse rx="1.36438" ry="1.4852" transform="matrix(-1 0 0 1 823.206 921.205)" fill="white"/>
<ellipse cx="303.378" cy="1515.28" rx="1.36438" ry="1.4852" fill="white"/>
<ellipse cx="705.87" cy="441.485" rx="1.36438" ry="1.4852" fill="white"/>
<ellipse rx="1.36438" ry="1.4852" transform="matrix(-1 0 0 1 922.806 1035.56)" fill="white"/>
<ellipse cx="825.935" cy="1504.89" rx="1.36438" ry="1.4852" fill="white"/>
<ellipse rx="1.36438" ry="1.4852" transform="matrix(-1 0 0 1 910.526 961.305)" fill="white"/>
<ellipse rx="1.36438" ry="1.4852" transform="matrix(-1 0 0 1 764.538 1305.87)" fill="white"/>
<ellipse cx="559.88" cy="769.714" rx="1.36438" ry="1.4852" fill="white"/>
<ellipse rx="1.36438" ry="1.4852" transform="matrix(-1 0 0 1 724.972 1363.79)" fill="white"/>
<ellipse cx="580.347" cy="753.377" rx="1.36438" ry="1.4852" fill="white"/>
<ellipse rx="1.36438" ry="1.4852" transform="matrix(-1 0 0 1 704.505 1347.46)" fill="white"/>
<ellipse cx="284.276" cy="628.62" rx="1.36438" ry="1.4852" fill="white"/>
<ellipse rx="1.36438" ry="1.4852" transform="matrix(-1 0 0 1 902.341 1222.7)" fill="white"/>
<ellipse rx="1.36438" ry="1.4852" transform="matrix(-1 0 0 1 289.733 1200.42)" fill="white"/>
<ellipse rx="1.36438" ry="1.4852" transform="matrix(-1 0 0 1 112.364 1280.62)" fill="white"/>
<ellipse rx="1.36438" ry="1.4852" transform="matrix(-1 0 0 1 566.702 823.181)" fill="white"/>
<ellipse cx="752.259" cy="708.821" rx="1.36438" ry="1.4852" fill="white"/>
<ellipse rx="1.36438" ry="1.4852" transform="matrix(-1 0 0 1 453.46 1302.9)" fill="white"/>
<ellipse rx="1.36438" ry="1.4852" transform="matrix(-1 0 0 1 443.909 1004.38)" fill="white"/>
<ellipse rx="1.36438" ry="1.4852" transform="matrix(-1 0 0 1 565.339 998.435)" fill="white"/>
<ellipse rx="1.36438" ry="1.4852" transform="matrix(-1 0 0 1 780.911 1001.41)" fill="white"/>
<ellipse rx="1.36438" ry="1.4852" transform="matrix(-1 0 0 1 930.991 912.293)" fill="white"/>
<ellipse rx="1.36438" ry="1.4852" transform="matrix(-1 0 0 1 944.636 885.56)" fill="white"/>
<ellipse rx="1.36438" ry="1.4852" transform="matrix(-1 0 0 1 442.544 928.631)" fill="white"/>
<ellipse rx="1.36438" ry="1.4852" transform="matrix(-1 0 0 1 735.886 931.601)" fill="white"/>
<ellipse cx="287.005" cy="506.834" rx="1.36438" ry="1.4852" fill="white"/>
<ellipse cx="284.276" cy="714.762" rx="1.36438" ry="1.4852" fill="white"/>
<ellipse rx="1.36438" ry="1.4852" transform="matrix(-1 0 0 1 842.307 1308.84)" fill="white"/>
<ellipse rx="1.36438" ry="1.4852" transform="matrix(-1 0 0 1 757.716 1029.62)" fill="white"/>
<ellipse cx="297.921" cy="1482.61" rx="1.36438" ry="1.4852" fill="white"/>
<ellipse rx="1.36438" ry="1.4852" transform="matrix(-1 0 0 1 866.866 848.43)" fill="white"/>
<ellipse cx="730.429" cy="491.982" rx="1.36438" ry="1.4852" fill="white"/>
<ellipse cx="785.003" cy="587.035" rx="1.36438" ry="1.4852" fill="white"/>
<ellipse rx="1.36438" ry="1.4852" transform="matrix(-1 0 0 1 449.366 1191.51)" fill="white"/>
<ellipse rx="1.36438" ry="1.4852" transform="matrix(-1 0 0 1 428.899 858.826)" fill="white"/>
<ellipse cx="776.818" cy="1452.91" rx="1.36438" ry="1.4852" fill="white"/>
<ellipse cx="830.71" cy="734.812" rx="3.41095" ry="3.713" fill="white"/>
<ellipse rx="3.41095" ry="3.713" transform="matrix(-1 0 0 1 269.95 1322.95)" fill="white"/>
<ellipse cx="553.058" cy="590.005" rx="1.36438" ry="1.4852" fill="white"/>
<ellipse rx="1.36438" ry="1.4852" transform="matrix(-1 0 0 1 731.792 1184.09)" fill="white"/>
<ellipse rx="1.36438" ry="1.4852" transform="matrix(-1 0 0 1 726.335 838.033)" fill="white"/>
<ellipse cx="608.999" cy="652.384" rx="1.36438" ry="1.4852" fill="white"/>
<ellipse rx="1.36438" ry="1.4852" transform="matrix(-1 0 0 1 604.905 1246.46)" fill="white"/>
<ellipse rx="1.36438" ry="1.4852" transform="matrix(-1 0 0 1 613.091 924.175)" fill="white"/>
<ellipse cx="600.812" cy="1518.26" rx="1.36438" ry="1.4852" fill="white"/>
<ellipse cx="898.247" cy="463.763" rx="1.36438" ry="1.4852" fill="white"/>
<ellipse cx="928.263" cy="569.212" rx="1.36438" ry="1.4852" fill="white"/>
<ellipse cx="911.89" cy="1435.08" rx="1.36438" ry="1.4852" fill="white"/>
<ellipse rx="1.36438" ry="1.4852" transform="matrix(-1 0 0 1 737.251 1135.07)" fill="white"/>
<ellipse cx="832.757" cy="526.141" rx="1.36438" ry="1.4852" fill="white"/>
<ellipse rx="1.36438" ry="1.4852" transform="matrix(-1 0 0 1 176.491 772.685)" fill="white"/>
<ellipse cx="858.681" cy="683.573" rx="1.36438" ry="1.4852" fill="white"/>
<ellipse cx="472.56" cy="481.586" rx="1.36438" ry="1.4852" fill="white"/>
<ellipse cx="458.917" cy="656.839" rx="1.36438" ry="1.4852" fill="white"/>
<ellipse rx="1.36438" ry="1.4852" transform="matrix(-1 0 0 1 746.8 1250.92)" fill="white"/>
<ellipse cx="815.019" cy="444.456" rx="1.36438" ry="1.4852" fill="white"/>
<ellipse cx="880.509" cy="631.591" rx="1.36438" ry="1.4852" fill="white"/>
<ellipse rx="1.36438" ry="1.4852" transform="matrix(-1 0 0 1 315.657 1264.29)" fill="white"/>
<ellipse rx="1.36438" ry="1.4852" transform="matrix(-1 0 0 1 175.126 903.382)" fill="white"/>
</g>
<g opacity="0.4">
<path d="M249.19 790.978C243.149 788.608 237.417 785.924 232.061 782.954C220.83 776.724 211.154 769.183 203.302 760.541C194.862 751.254 188.446 740.593 184.23 728.856C175.756 705.265 176.322 681.216 176.868 657.957C176.974 653.39 177.085 648.667 177.124 644.059C177.379 612.641 173.505 583.514 165.283 555.013C148.882 498.159 116.338 442.362 71.1679 393.654C18.9286 337.326 -44.2671 294.682 -106.78 273.581C-143.522 261.179 -197.672 259.074 -230.076 279.046C-249.308 290.899 -257.645 309.155 -254.185 331.837L-254.428 331.832C-256.242 319.937 -254.877 309.26 -250.369 300.1C-246.234 291.698 -239.462 284.554 -230.239 278.87C-215.571 269.83 -195.219 264.701 -171.382 264.038C-149.355 263.427 -126.393 266.747 -106.72 273.387C-74.0058 284.432 -41.2099 301.27 -9.24493 323.436C19.7305 343.53 46.848 367.116 71.3529 393.54C116.55 442.276 149.113 498.104 165.523 554.991C173.749 583.511 177.625 612.654 177.371 644.089C177.334 648.699 177.223 653.423 177.114 657.99C176.567 681.23 176.003 705.263 184.465 728.82C192.648 751.604 208.701 769.759 232.175 782.779C264.684 800.811 310.092 807.585 353.641 800.897C416.399 791.26 468.823 761.963 519.523 733.632C528.409 728.666 537.597 723.531 546.622 718.632C570.054 705.91 601.351 689.791 635.674 677.957C670.757 665.861 703.933 659.878 737.101 659.663C757.402 659.531 777.854 662.101 797.89 667.3C816.396 672.101 835.151 679.306 853.636 688.713C885.343 704.849 917.306 727.832 951.353 758.973C1018.39 820.294 1082.8 888.07 1142.79 960.421C1199.8 1029.19 1253.35 1102.7 1301.92 1178.9L1301.71 1178.97C1201.01 1021.01 1083.08 879.744 951.185 759.1C876.669 690.94 808.655 659.408 737.141 659.87C664.386 660.338 602.652 688.475 546.776 718.811C537.754 723.708 528.566 728.844 519.68 733.81C468.965 762.151 416.524 791.457 353.723 801.101C333.429 804.218 311.898 804.412 291.46 801.662C280.663 800.209 270.252 797.945 260.513 794.931C256.63 793.736 252.852 792.415 249.19 790.978Z" fill="white" fill-opacity="0.5"/>
<path d="M259.182 782.879C243.776 776.835 230.422 768.903 219.476 759.294C207.27 748.579 198.121 735.806 192.279 721.33C191.763 720.048 191.266 718.737 190.802 717.431C182.463 693.98 182.58 670.071 182.695 646.948C182.716 642.274 182.741 637.441 182.694 632.723C182.408 604.63 178.992 578.628 172.248 553.235C171.417 550.109 170.525 546.952 169.592 543.852C152.55 487.18 119.438 431.706 73.8359 383.425C20.9237 327.444 -42.7193 285.363 -105.37 264.937C-142 253.019 -196.037 251.272 -228.447 270.99C-247.855 282.798 -256.637 300.922 -253.85 323.403L-254.094 323.393C-255.555 311.61 -253.902 301.025 -249.18 291.936C-244.843 283.589 -237.923 276.482 -228.61 270.815C-213.853 261.835 -193.542 256.675 -169.879 255.892C-148.008 255.168 -125.081 258.311 -105.318 264.742C-72.5131 275.439 -39.5507 291.962 -7.34804 313.852C21.8205 333.681 49.1955 357.051 74.0155 383.311C119.644 431.619 152.773 487.126 169.827 543.831C170.759 546.932 171.653 550.092 172.483 553.22C179.232 578.63 182.649 604.645 182.935 632.753C182.985 637.472 182.96 642.305 182.938 646.981C182.826 670.09 182.707 693.982 191.035 717.4C191.498 718.702 191.995 720.013 192.51 721.292C204.579 751.212 229.443 771.212 259.255 782.908C259.418 782.972 259.579 783.035 259.743 783.099C259.557 783.024 259.369 782.953 259.182 782.879ZM265.592 785.244C293.751 794.984 325.674 797.729 355.154 794.748C418.787 788.206 473.367 760.955 526.151 734.604C528.325 733.517 530.497 732.434 532.67 731.35C537.44 728.973 543.092 726.161 548.84 723.345C574.625 710.722 605.469 696.365 638.728 685.599C674.116 674.142 707.256 668.34 740.041 667.857C760.182 667.568 780.487 669.764 800.392 674.384C818.833 678.664 837.544 685.17 855.999 693.716C887.882 708.484 920.076 729.68 954.423 758.518C987.918 786.615 1014.84 811.257 1039.16 836.069C1073.6 871.236 1104.94 908.481 1131.06 940.276C1191.72 1014.32 1248.6 1093.69 1300.13 1176.18L1299.91 1176.26C1248.39 1093.77 1191.52 1014.41 1130.86 940.376C1104.75 908.585 1073.42 871.346 1038.99 836.188C1014.67 811.383 987.755 786.748 954.266 758.658C879.444 695.835 811.384 667.047 740.083 668.066C666.069 669.152 602.634 697.266 548.986 723.531C543.235 726.346 537.586 729.157 532.815 731.536C530.643 732.618 528.47 733.703 526.296 734.79C473.495 761.15 418.896 788.409 355.217 794.957C339.438 796.552 323.363 796.43 307.435 794.591C292.61 792.875 278.565 789.736 265.592 785.244Z" fill="white" fill-opacity="0.5"/>
<path d="M269.687 775.256C267.834 774.529 266.005 773.775 264.203 772.993C249.023 766.414 235.882 758.016 225.145 748.03C213.403 737.108 204.55 724.281 198.834 709.905C198.328 708.624 197.836 707.314 197.377 706.009C189.175 682.711 188.849 658.947 188.535 635.969C188.47 631.18 188.402 626.227 188.26 621.39C187.458 593.189 183.665 567.237 176.66 542.048C175.792 538.933 174.864 535.786 173.896 532.694C156.213 476.206 122.532 421.053 76.4981 373.199C22.9152 317.567 -41.1743 276.047 -103.966 256.295C-139.335 245.211 -192.856 242.557 -226.786 262.917C-246.389 274.68 -255.633 292.681 -253.518 314.973L-253.762 314.957C-254.871 303.278 -252.924 292.783 -247.983 283.761C-243.438 275.463 -236.36 268.392 -226.947 262.743C-212.098 253.833 -191.837 248.649 -168.352 247.749C-146.641 246.918 -123.756 249.885 -103.915 256.103C-71.0169 266.453 -37.8873 282.66 -5.44931 304.274C23.914 323.84 51.5449 346.99 76.6777 373.085C122.738 420.969 156.436 476.152 174.131 532.672C175.098 535.766 176.029 538.914 176.895 542.033C183.903 567.236 187.698 593.204 188.499 621.42C188.64 626.258 188.708 631.211 188.774 636.001C189.089 658.966 189.414 682.713 197.606 705.983C198.065 707.288 198.553 708.595 199.061 709.871C222.286 768.289 294.954 791.503 356.665 788.597C421.563 785.327 478.768 760.019 534.089 735.544L534.657 735.293C540.016 732.919 545.557 730.467 551.06 728.057C609.122 702.641 671.769 677.689 742.985 676.048C762.973 675.602 783.133 677.426 802.9 681.466C821.287 685.225 839.95 691.029 858.369 698.719C890.484 712.124 922.909 731.536 957.5 758.062C993.869 785.898 1020.47 808.805 1043.75 832.338C1076.9 865.903 1106.95 903.672 1133.47 936.995C1192.41 1011.43 1247.88 1090.99 1298.33 1173.46L1298.12 1173.53C1247.67 1091.07 1192.21 1011.51 1133.27 937.09C1106.76 903.772 1076.71 866.01 1043.57 832.455C1020.3 808.93 993.709 786.031 957.352 758.204C882.373 700.705 814.271 674.664 743.029 676.252C671.859 677.891 609.238 702.832 551.199 728.24C545.696 730.65 540.154 733.104 534.796 735.476L534.228 735.727C506.659 747.923 478.153 760.535 448.879 770.304C415.982 781.283 385.835 787.333 356.715 788.799C326.29 790.231 295.64 785.438 269.687 775.256Z" fill="white" fill-opacity="0.5"/>
<path d="M1296.33 1170.81C1246.95 1088.36 1192.9 1008.62 1135.69 933.807C1133.26 930.653 1130.83 927.487 1128.39 924.31C1103.57 891.996 1077.91 858.583 1048.16 828.725C1019.29 799.802 987.619 776.619 960.448 757.756C885.494 705.567 817.347 682.272 745.985 684.442C672.698 686.749 606.561 712.368 553.42 732.955C550.23 734.191 547.044 735.432 543.852 736.673C541.497 737.591 539.139 738.507 536.782 739.421C506.516 751.164 479.111 761.527 450.211 769.457C417.196 778.514 387.107 782.829 358.219 782.647C331.145 782.478 304.14 777.413 280.769 768.247C276.511 766.576 272.378 764.773 268.381 762.834C253.791 755.756 241.152 746.993 230.814 736.787C219.534 725.652 210.979 712.764 205.384 698.48C204.885 697.201 204.401 695.891 203.948 694.586C195.887 671.449 195.123 647.846 194.385 625.021C194.227 620.105 194.062 615.019 193.826 610.054C192.503 581.736 188.33 555.83 181.074 530.856C180.171 527.749 179.203 524.612 178.201 521.53C159.875 465.225 125.628 410.396 79.1651 362.968C24.9116 307.684 -39.6237 266.73 -102.554 247.646C-145.6 234.666 -195.983 237.616 -225.076 254.817C-244.896 266.535 -254.612 284.42 -253.178 306.535L-253.423 306.514C-254.174 294.934 -251.933 284.52 -246.762 275.56C-242.002 267.31 -234.759 260.273 -225.236 254.64C-210.299 245.808 -190.09 240.604 -166.793 239.594C-145.247 238.659 -122.416 241.449 -102.505 247.453C-69.5137 257.456 -36.2199 273.348 -3.54662 294.685C26.009 313.987 53.8999 336.922 79.3461 362.85C125.838 410.306 160.102 465.167 178.44 521.506C179.444 524.59 180.41 527.729 181.314 530.836C188.575 555.825 192.748 581.744 194.073 610.076C194.309 615.043 194.474 620.127 194.632 625.045C195.37 647.857 196.134 671.445 204.184 694.554C204.638 695.857 205.12 697.164 205.617 698.441C229.684 759.883 302.847 782.09 358.184 782.439C424.207 782.852 483.946 759.677 536.655 739.229C539.013 738.313 541.368 737.396 543.725 736.482C546.914 735.24 550.103 734 553.293 732.764C583.627 721.013 613.455 709.732 644.858 700.872C680.971 690.683 714.036 685.242 745.942 684.236C765.784 683.632 785.794 685.081 805.418 688.546C823.759 691.783 842.375 696.889 860.75 703.72C893.157 715.768 925.816 733.396 960.588 757.605C987.767 776.475 1019.45 799.668 1048.34 828.608C1078.1 858.478 1103.77 891.9 1128.59 924.22C1131.03 927.396 1133.46 930.562 1135.89 933.717C1193.11 1008.53 1247.16 1088.28 1296.55 1170.74L1296.33 1170.81Z" fill="white" fill-opacity="0.5"/>
<path d="M1294.54 1168.08C1245.31 1084.08 1192.67 1004.15 1138.1 930.522C1134.84 926.117 1131.5 921.589 1128.28 917.211C1105.2 885.856 1081.33 853.434 1052.75 824.993C1024.19 796.646 991.628 774.868 963.54 757.304C888.831 710.406 820.639 689.855 748.937 692.629C680.51 695.368 619.656 715.982 560.806 735.915L554.344 738.103C549.241 739.832 543.964 741.618 538.768 743.363C479.957 763.065 422.013 780.422 359.722 776.49C344.606 775.536 329.65 773.117 315.262 769.303C299.813 765.206 285.445 759.597 272.556 752.631C258.557 745.064 246.421 735.944 236.485 725.526C225.673 714.188 217.413 701.242 211.94 687.052C211.448 685.769 210.972 684.46 210.524 683.16C202.606 660.197 201.412 636.769 200.258 614.111C200.001 609.056 199.733 603.826 199.396 598.718C197.544 570.279 192.997 544.421 185.492 519.667C184.554 516.574 183.551 513.445 182.511 510.37C163.544 454.249 128.73 399.742 81.8343 352.739C26.9064 297.806 -38.0754 257.412 -101.147 239.001C-143.977 226.587 -194.22 229.75 -223.326 246.697C-243.383 258.372 -253.59 276.147 -252.845 298.101L-253.091 298.076C-253.482 286.588 -250.938 276.25 -245.535 267.349C-240.552 259.144 -233.135 252.136 -223.489 246.521C-208.462 237.774 -188.313 232.559 -165.216 231.44C-143.84 230.404 -121.071 233.021 -101.104 238.808C-68.0206 248.465 -34.5618 264.039 -1.65086 285.1C28.0995 304.14 56.2463 326.856 82.0076 352.62C128.931 399.649 163.764 454.189 182.743 510.342C183.782 513.42 184.787 516.551 185.725 519.645C193.235 544.412 197.785 570.283 199.637 598.737C199.974 603.846 200.241 609.077 200.498 614.132C201.652 636.777 202.845 660.194 210.755 683.131C211.201 684.426 211.678 685.733 212.167 687.015C235.475 747.437 303.659 772.746 359.698 776.283C421.939 780.213 479.859 762.861 538.644 743.168C543.84 741.424 549.117 739.638 554.221 737.909L560.683 735.721C589.571 725.937 619.44 715.817 650.724 707.776C686.156 698.669 718.265 693.647 748.885 692.42C768.589 691.657 788.454 692.734 807.924 695.621C826.23 698.335 844.8 702.741 863.118 708.715C895.896 719.405 928.782 735.246 963.662 757.142C991.764 774.715 1024.34 796.502 1052.92 824.872C1081.52 853.326 1105.39 885.757 1128.48 917.12C1131.7 921.498 1135.04 926.024 1138.3 930.431C1192.88 1004.07 1245.52 1084 1294.76 1168.01L1294.54 1168.08Z" fill="white" fill-opacity="0.5"/>
<path d="M1292.75 1165.36C1244.37 1080.97 1193.15 1000.86 1140.51 927.239C1136.56 921.706 1132.52 915.984 1128.62 910.451C1107.11 879.954 1084.87 848.418 1057.34 821.264C1028.84 793.235 995.492 772.976 966.63 756.855C892.44 715.216 824.203 697.411 751.886 700.819C688.736 703.895 631.243 720.81 575.641 737.166C569.79 738.888 563.74 740.666 557.852 742.38C550.938 744.392 545.663 745.913 540.75 747.307C514.441 754.766 483.353 763.043 452.244 767.867C419.278 772.978 389.504 773.786 361.221 770.338C346.348 768.524 331.76 765.338 317.861 760.864C302.937 756.06 289.095 749.858 276.725 742.428C263.323 734.378 251.693 724.904 242.153 714.267C231.808 702.733 223.849 689.731 218.493 675.626C218.012 674.35 217.541 673.04 217.098 671.738C209.328 648.966 207.712 625.726 206.147 603.25C205.784 598.038 205.41 592.648 204.965 587.382C202.58 558.811 197.654 533.002 189.906 508.477C188.932 505.393 187.892 502.275 186.817 499.207C167.208 443.271 131.826 389.086 84.4991 342.508C28.9021 287.926 -36.5276 248.097 -99.7381 230.355C-135.735 220.335 -187.354 218.985 -221.528 238.55C-241.846 250.183 -252.56 267.858 -252.51 289.664L-252.754 289.633C-252.781 278.23 -249.929 267.964 -244.279 259.116C-239.064 250.951 -231.464 243.971 -221.685 238.373C-206.57 229.72 -186.487 224.501 -163.6 223.278C-142.397 222.146 -119.703 224.591 -99.6939 230.159C-66.5179 239.471 -32.8919 254.729 0.251986 275.513C30.1948 294.289 58.5991 316.788 84.6732 342.387C132.028 388.991 167.43 443.207 187.05 499.177C188.126 502.244 189.166 505.367 190.14 508.452C197.891 532.99 202.819 558.812 205.207 587.397C205.653 592.667 206.028 598.056 206.391 603.269C207.953 625.732 209.57 648.96 217.331 671.707C217.775 673.008 218.245 674.314 218.726 675.589C237.961 726.252 291.23 761.596 361.219 770.129C424.601 777.858 484.61 762.993 540.643 747.106C545.556 745.712 550.828 744.191 557.742 742.178C563.63 740.464 569.681 738.686 575.531 736.964C602.904 728.912 631.207 720.585 660.536 713.897C693.701 706.333 723.568 701.986 751.838 700.61C771.42 699.687 791.135 700.39 810.44 702.702C828.725 704.891 847.248 708.598 865.495 713.715C898.718 723.037 931.837 737.092 966.744 756.683C995.621 772.814 1028.99 793.085 1057.51 821.138C1085.06 848.309 1107.31 879.853 1128.83 910.36C1132.73 915.893 1136.76 921.615 1140.72 927.148C1193.36 1000.77 1244.59 1080.9 1292.97 1165.29L1292.75 1165.36Z" fill="white" fill-opacity="0.5"/>
<path d="M1290.96 1162.64C1243.44 1077.86 1193.63 997.558 1142.93 923.953C1138.61 917.692 1134.22 911.172 1129.96 904.867C1109.71 874.833 1088.77 843.778 1061.92 817.532C1033.33 789.669 999.271 770.995 969.723 756.403C897.394 720.481 827.103 704.978 754.836 709.007C697.255 712.317 643.663 725.94 591.836 739.117C581.367 741.777 570.543 744.531 560.065 747.091C553.655 748.66 547.986 750.022 542.73 751.251C518.296 756.956 486.042 763.909 453.251 767.067C420.304 770.24 390.689 769.297 362.716 764.183C332.207 758.606 303.91 747.552 280.887 732.22C268.087 723.694 256.959 713.866 247.815 703.006C237.941 691.281 230.281 678.225 225.041 664.202C224.568 662.927 224.105 661.619 223.666 660.318C216.051 637.756 214.019 614.725 212.056 592.453C211.581 587.066 211.091 581.496 210.528 576.05C207.601 547.339 202.299 521.576 194.317 497.292C193.306 494.217 192.231 491.109 191.119 488.051C170.869 432.298 134.922 378.434 87.1619 332.285C30.8952 278.056 -34.9819 238.79 -98.333 221.716C-141.305 210.243 -190.072 213.728 -219.68 230.385C-240.284 241.977 -251.521 259.561 -252.177 281.236L-252.421 281.198C-252.079 269.871 -248.912 259.668 -243.011 250.872C-237.556 242.743 -229.758 235.789 -219.836 230.206C-204.638 221.655 -184.625 216.438 -161.963 215.119C-140.942 213.896 -118.329 216.167 -98.2928 221.517C-65.0244 230.483 -31.2318 245.426 2.14813 265.931C32.2856 284.445 60.9474 306.727 87.3351 332.16C135.122 378.337 171.09 432.23 191.353 488.018C192.464 491.076 193.539 494.186 194.551 497.264C202.537 521.562 207.842 547.337 210.771 576.062C211.334 581.508 211.823 587.079 212.299 592.467C214.261 614.727 216.292 637.748 223.899 660.287C224.338 661.588 224.8 662.891 225.273 664.167C244.021 714.36 295.406 751.673 362.731 763.981C424.108 775.2 485.468 764.396 542.631 751.051C547.884 749.821 553.554 748.462 559.963 746.892C570.438 744.331 581.263 741.58 591.73 738.918C643.569 725.74 697.171 712.112 754.779 708.802C774.255 707.716 793.824 708.048 812.944 709.785C831.231 711.449 849.707 714.455 867.86 718.721C901.62 726.654 934.97 738.924 969.816 756.229C999.384 770.831 1033.47 789.518 1062.09 817.413C1088.96 843.677 1109.91 874.744 1130.17 904.789C1134.42 911.094 1138.82 917.612 1143.13 923.874C1193.84 997.484 1243.66 1077.8 1291.18 1162.57L1290.96 1162.64Z" fill="white" fill-opacity="0.5"/>
<path d="M1289.17 1159.91C1242.52 1074.75 1194.13 994.26 1145.34 920.67C1140.86 913.908 1136.29 906.82 1131.88 899.966C1112.71 870.168 1092.88 839.354 1066.51 813.802C1037.73 786.004 1002.99 768.96 972.813 755.952C901.752 725.122 831.415 712.443 757.786 717.195C706.112 720.625 657.032 731.369 609.567 741.757C593.247 745.33 577.83 748.704 562.281 751.803C555.955 753.066 550.21 754.177 544.714 755.194C509.258 761.744 480.517 765.262 454.263 766.262C421.326 767.518 391.872 764.825 364.217 758.027C353.489 755.389 343.066 752.083 333.094 748.171C315.417 741.236 299.147 732.398 285.053 722.007C259.547 703.201 241.562 679.908 231.596 652.774C231.129 651.49 230.673 650.185 230.242 648.891C222.786 626.562 220.352 603.767 217.998 581.721C217.401 576.135 216.786 570.362 216.098 564.712C212.623 535.851 206.941 510.136 198.734 486.1C197.688 483.035 196.576 479.936 195.429 476.887C174.537 421.319 138.021 367.777 89.8306 322.053C32.8934 268.179 -33.4279 229.475 -96.9197 213.068C-140.243 201.988 -187.679 205.566 -217.766 222.186C-238.68 233.737 -250.459 251.239 -251.836 272.799L-252.081 272.756C-251.361 261.498 -247.872 251.353 -241.707 242.603C-236 234.503 -227.999 227.574 -217.919 222.007C-202.64 213.567 -182.71 208.361 -160.281 206.95C-139.447 205.639 -116.933 207.743 -96.8825 212.87C-63.5216 221.491 -29.5619 236.118 4.05108 256.345C34.3826 274.598 63.2996 296.663 90.0038 321.928C138.221 367.679 174.758 421.251 195.663 476.853C196.81 479.903 197.922 483.002 198.97 486.07C207.183 510.119 212.867 535.848 216.343 564.72C217.031 570.37 217.648 576.146 218.242 581.731C220.595 603.766 223.028 626.552 230.477 648.861C230.909 650.153 231.363 651.457 231.83 652.74C250.439 703.411 298.704 741.714 364.251 757.826C426.646 773.163 490.445 764.998 544.627 754.988C550.121 753.97 555.866 752.861 562.191 751.599C577.738 748.499 593.154 745.126 609.474 741.553C656.946 731.161 706.037 720.418 757.73 716.987C777.128 715.735 796.55 715.693 815.459 716.863C833.772 717.996 852.203 720.302 870.236 723.718C904.628 730.234 938.209 740.718 972.896 755.768C1003.1 768.786 1037.87 785.846 1066.68 813.676C1093.08 839.248 1112.91 870.076 1132.09 899.885C1136.51 906.74 1141.07 913.827 1145.55 920.587C1194.34 994.182 1242.74 1074.68 1289.39 1159.85L1289.17 1159.91Z" fill="white" fill-opacity="0.5"/>
<path d="M1287.38 1157.19C1240.96 1070.43 1195.29 991.993 1147.75 917.386C1143.21 910.268 1138.82 903.09 1134.16 895.49C1115.95 865.783 1097.13 835.066 1071.1 810.072C1041.88 782.111 1004.88 766.221 975.904 755.503C906.663 729.686 836.279 719.835 760.735 725.387C715.374 728.807 671.491 737.068 629.052 745.059C606.748 749.259 585.682 753.223 564.493 756.517C558.203 757.498 552.379 758.354 546.694 759.139C511.462 763.977 482.413 765.983 455.27 765.455C422.326 764.813 393.032 760.369 365.715 751.872C351.68 747.505 338.198 742.001 325.644 735.514C312.353 728.645 300.097 720.663 289.217 711.792C265.102 692.129 247.92 668.43 238.148 641.351C237.689 640.068 237.241 638.763 236.814 637.472C229.527 615.408 226.703 592.877 223.971 571.087C223.242 565.274 222.489 559.262 221.665 553.381C217.633 524.361 211.576 498.694 203.147 474.914C202.062 471.858 200.914 468.769 199.735 465.731C178.203 410.347 141.121 357.128 92.4988 311.829C47.587 270.106 -2.90302 237.722 -53.1233 218.02C-67.3208 212.45 -81.4857 207.897 -95.5093 204.428C-138.48 193.913 -185.693 197.658 -215.795 213.967C-237.042 225.48 -249.389 242.909 -251.501 264.369L-251.746 264.32C-250.645 253.122 -246.823 243.028 -240.386 234.32C-234.42 226.247 -226.197 219.338 -215.951 213.786C-200.594 205.465 -180.755 200.277 -158.573 198.781C-137.634 197.367 -115.815 199.251 -95.4799 204.229C-62.0265 212.504 -27.9002 226.817 5.94876 246.765C36.4734 264.753 65.651 286.6 92.668 311.7C141.317 357.025 178.423 410.274 199.969 465.692C201.15 468.73 202.3 471.823 203.384 474.881C211.816 498.673 217.877 524.351 221.911 553.385C222.735 559.266 223.491 565.279 224.219 571.094C226.949 592.874 229.772 615.397 237.052 637.443C237.479 638.732 237.928 640.037 238.385 641.317C256.66 691.954 303.088 732.175 365.77 751.676C429.199 771.408 495.739 765.918 546.624 758.931C552.309 758.147 558.131 757.289 564.42 756.311C585.605 753.019 606.67 749.052 628.971 744.853C671.416 736.863 715.305 728.598 760.682 725.177C799.576 722.319 836.187 723.479 872.612 728.722C907.741 733.779 941.553 742.477 975.979 755.313C995.638 762.586 1011.3 769.492 1025.26 777.046C1043.28 786.8 1058.33 797.561 1071.28 809.947C1097.33 834.963 1116.16 865.695 1134.38 895.418C1139.03 903.016 1143.43 910.193 1147.97 917.31C1195.5 991.92 1241.18 1070.37 1287.61 1157.13L1287.38 1157.19Z" fill="white" fill-opacity="0.5"/>
<path d="M1285.59 1154.46C1240.06 1067.31 1195.76 988.685 1150.16 914.099C1145.65 906.721 1141.29 899.23 1136.67 891.3C1119.36 861.587 1101.46 830.861 1075.68 806.339C1046.15 778.332 1008.5 764.217 978.998 755.048C912.3 734.137 841.87 727.113 763.686 733.571C725.133 736.829 687.226 742.995 650.565 748.959C621.584 753.673 594.213 758.127 566.711 761.223C560.494 761.925 554.425 762.548 548.677 763.074C514.039 766.232 483.817 766.741 456.282 764.634C423.313 762.111 394.179 755.921 367.216 745.709C353.498 740.511 340.382 734.233 328.243 727.048C315.517 719.515 303.789 710.942 293.385 701.565C270.678 681.097 254.298 656.992 244.702 629.918C244.254 628.641 243.811 627.336 243.389 626.04C236.282 604.281 233.084 582.055 229.99 560.562C229.116 554.481 228.21 548.19 227.234 542.037C222.637 512.847 216.202 487.23 207.564 463.718C206.442 460.671 205.259 457.591 204.044 454.563C181.87 399.362 144.219 346.465 95.1664 301.592C36.8898 248.431 -30.3283 210.851 -94.1 195.776C-136.68 185.82 -183.649 189.719 -213.757 205.706C-235.367 217.182 -248.302 234.548 -251.167 255.929L-251.41 255.875C-249.917 244.729 -245.753 234.679 -239.031 226.005C-232.79 217.954 -224.34 211.062 -213.909 205.524C-198.485 197.333 -178.745 192.17 -156.823 190.593C-136.088 189.102 -114.389 190.825 -94.0699 195.576C-60.5225 203.507 -26.2306 217.501 7.85141 237.172C38.5693 254.901 68.0021 276.53 95.3333 301.462C144.417 346.36 182.088 399.289 204.273 454.522C205.49 457.551 206.676 460.633 207.796 463.682C216.44 487.208 222.876 512.836 227.476 542.038C228.455 548.192 229.358 554.482 230.234 560.565C233.326 582.05 236.522 604.266 243.624 626.01C244.047 627.304 244.49 628.609 244.937 629.883C263.23 681.495 306.68 722.565 367.286 745.517C416.461 764.144 474.08 769.655 548.614 762.863C554.36 762.336 560.426 761.714 566.642 761.011C594.137 757.914 621.507 753.464 650.483 748.749C687.149 742.785 725.063 736.617 763.626 733.359C803.046 730.101 839.47 730.22 874.981 733.716C910.956 737.26 944.998 744.171 979.052 754.848C1008.59 764.025 1046.28 778.159 1075.86 806.21C1101.66 830.76 1119.57 861.501 1136.89 891.227C1141.51 899.157 1145.87 906.646 1150.38 914.021C1195.98 988.61 1240.28 1067.24 1285.81 1154.4L1285.59 1154.46Z" fill="white" fill-opacity="0.5"/>
<path d="M1283.8 1151.74C1239.17 1064.18 1196.25 985.377 1152.58 910.818C1148.14 903.249 1143.87 895.514 1139.34 887.325C1122.88 857.536 1105.86 826.732 1080.27 802.611C1050.39 774.525 1012.11 762.199 982.093 754.598C918.046 738.216 849.586 734.138 766.637 741.761C735.505 744.68 704.465 749.102 674.448 753.379C637.989 758.572 603.552 763.48 568.926 765.935C562.687 766.38 556.54 766.746 550.66 767.018C516.036 768.614 485.497 767.568 457.296 763.818C441.5 761.717 426.273 758.711 412.037 754.883C396.852 750.799 382.277 745.641 368.717 739.554C341.205 727.201 317.263 710.98 297.557 691.344C276.275 670.137 260.698 645.628 251.26 618.494C250.819 617.212 250.384 615.908 249.965 614.619C243.053 593.215 239.501 571.349 236.068 550.205C235.028 543.804 233.954 537.186 232.805 530.705C227.632 501.334 220.82 475.764 211.98 452.531C210.823 449.491 209.601 446.42 208.352 443.404C185.537 388.386 147.32 335.812 97.8348 291.367C38.8893 238.564 -28.7738 201.548 -92.6894 187.136C-161.187 171.857 -241.123 190.591 -250.828 247.498L-251.071 247.437C-248.644 233.202 -241.954 220.864 -231.187 210.762C-221.355 201.537 -208.333 194.333 -192.483 189.354C-177.747 184.724 -161.258 182.204 -143.476 181.863C-126.565 181.539 -108.993 183.291 -92.6639 186.933C-59.0241 194.519 -24.5656 208.198 9.75171 227.592C40.6636 245.06 70.354 266.474 97.9986 291.239C147.511 335.711 185.751 388.315 208.58 443.365C209.831 446.384 211.053 449.455 212.211 452.497C221.055 475.74 227.87 501.324 233.046 530.708C234.196 537.188 235.27 543.806 236.309 550.21C239.742 571.347 243.292 593.204 250.201 614.596C250.618 615.884 251.05 617.186 251.492 618.467C269.632 670.615 311.295 713.552 368.803 739.375C417.49 761.233 476.958 770.209 550.608 766.813C556.486 766.54 562.63 766.175 568.869 765.731C603.487 763.276 637.918 758.369 674.371 753.175C704.392 748.898 735.435 744.474 766.573 741.555C849.555 733.928 918.046 738.01 982.127 754.399C1002.3 759.507 1018.51 764.97 1033.15 771.598C1051.88 780.069 1067.34 790.171 1080.44 802.483C1106.06 826.632 1123.09 857.454 1139.56 887.26C1144.09 895.447 1148.36 903.181 1152.79 910.747C1196.47 985.312 1239.39 1064.12 1284.02 1151.68L1283.8 1151.74Z" fill="white" fill-opacity="0.5"/>
<path d="M1282.01 1149.02C1238.29 1061.05 1196.74 982.064 1154.99 907.533C1150.67 899.821 1146.52 891.892 1142.13 883.494C1126.48 853.577 1110.3 822.64 1084.86 798.878C1054.25 770.372 1013.32 759.695 985.186 754.144C908.899 738.918 833.39 743.478 769.59 749.951C746.643 752.317 723.516 755.286 701.148 758.156C656.278 763.915 613.899 769.354 571.144 770.649C564.856 770.84 558.633 770.946 552.645 770.964C517.954 771.042 487.097 768.438 458.315 763.001C425.687 756.837 396.049 746.879 370.22 733.399C343.687 719.55 320.643 701.961 301.733 681.12C281.898 659.262 267.124 634.349 257.816 607.071C257.384 605.792 256.955 604.488 256.541 603.197C249.842 582.221 245.968 560.79 242.221 540.064C240.994 533.272 239.722 526.25 238.376 519.372C232.539 489.397 225.554 464.604 216.398 441.344C215.206 438.314 213.949 435.255 212.662 432.246C189.201 377.412 150.416 325.16 100.5 281.139C40.8844 228.695 -27.2252 192.239 -91.2824 178.49C-160.29 163.832 -238.71 182.48 -250.494 239.065L-250.735 238.999C-247.811 224.96 -240.792 212.766 -229.875 202.756C-219.87 193.586 -206.791 186.391 -191.001 181.376C-176.275 176.699 -159.834 174.094 -142.129 173.63C-125.271 173.188 -107.679 174.8 -91.2569 178.288C-57.5223 185.529 -22.8996 198.893 11.6514 218.008C42.7573 235.215 72.7052 256.411 100.664 281.008C150.611 325.054 189.417 377.336 212.887 432.201C214.173 435.212 215.432 438.274 216.626 441.305C225.789 464.576 232.774 489.382 238.614 519.369C239.961 526.247 241.232 533.27 242.458 540.062C246.206 560.783 250.079 582.206 256.772 603.172C257.186 604.463 257.614 605.764 258.045 607.043C276.139 660.07 316.013 704.882 370.321 733.226C419.028 758.647 478.653 770.921 552.606 770.755C558.591 770.738 564.812 770.634 571.096 770.441C613.84 769.146 656.213 763.709 701.075 757.95C723.443 755.08 746.573 752.109 769.523 749.742C812.425 745.392 847.444 743.481 879.724 743.727C917.725 744.018 952.227 747.359 985.204 753.94C1005.32 757.911 1022.3 762.794 1037.11 768.873C1056.17 776.7 1071.85 786.472 1085.03 798.751C1110.5 822.544 1126.69 853.499 1142.35 883.434C1146.74 891.83 1150.89 899.759 1155.21 907.466C1196.96 982.001 1238.51 1060.99 1282.23 1148.96L1282.01 1149.02Z" fill="white" fill-opacity="0.5"/>
<path d="M1280.22 1146.29C1237.42 1057.92 1197.24 978.748 1157.4 904.247C1153.23 896.434 1149.23 888.346 1145 879.782C1130.14 849.696 1114.78 818.586 1089.45 795.147C1058.43 766.518 1016.86 757.775 988.281 753.691C917.759 743.472 848.852 749.66 772.542 758.139C758.77 759.691 744.792 761.385 731.272 763.024C679.277 769.328 625.514 775.847 573.36 775.359C567.023 775.302 560.719 775.149 554.626 774.904C520.277 773.513 488.215 769.231 459.332 762.176C426.611 754.185 397.136 742.431 371.717 727.24C346.184 711.981 324.041 693.022 305.903 670.89C287.547 648.492 273.57 623.176 264.361 595.644C263.938 594.366 263.516 593.063 263.107 591.774C256.652 571.322 252.491 550.427 248.466 530.221C247.016 522.94 245.517 515.412 243.935 508.039C237.493 477.854 230.142 453.107 220.803 430.157C219.577 427.144 218.283 424.091 216.959 421.087C192.866 366.434 153.516 314.506 103.164 270.91C42.8814 218.827 -25.6731 182.935 -89.8758 169.846C-156.947 156.3 -235.916 173 -250.162 230.63L-250.401 230.558C-246.979 216.714 -239.631 204.667 -228.564 194.747C-218.388 185.629 -205.252 178.446 -189.523 173.394C-160.502 164.077 -124.175 162.709 -89.855 169.641C-56.0286 176.539 -21.2387 189.586 13.5483 208.422C44.8475 225.37 75.0514 246.348 103.324 270.776C153.705 314.395 193.077 366.356 217.188 421.038C218.514 424.045 219.808 427.097 221.036 430.113C230.379 453.075 237.734 477.833 244.177 508.028C245.757 515.403 247.259 522.932 248.709 530.213C252.733 550.415 256.893 571.305 263.344 591.747C263.751 593.035 264.173 594.336 264.597 595.614C283.02 650.697 320.102 696.155 371.833 727.073C419.736 755.702 481.224 771.724 554.595 774.694C560.686 774.938 566.985 775.092 573.318 775.149C625.454 775.636 679.21 769.12 731.195 762.816C744.715 761.176 758.693 759.482 772.467 757.931C805.871 754.219 844.645 750.142 882.093 748.729C921.265 747.252 955.997 748.808 988.278 753.486C1008.61 756.393 1025.88 760.536 1041.05 766.15C1060.19 773.229 1076.53 782.942 1089.61 795.019C1100.96 805.519 1111.38 818.634 1121.47 835.115C1130.38 849.668 1137.92 864.949 1145.22 879.726C1149.45 888.287 1153.44 896.375 1157.62 904.185C1197.46 978.69 1237.64 1057.87 1280.44 1146.24L1280.22 1146.29Z" fill="white" fill-opacity="0.5"/>
<path d="M1278.43 1143.57C1236.55 1054.79 1197.75 975.429 1159.82 900.963C1155.8 893.078 1151.98 884.861 1147.93 876.163C1133.85 845.877 1119.29 814.56 1094.04 791.418C1070.43 769.825 1036.85 757.337 991.371 753.24C927.823 747.418 865.959 755.109 800.458 763.254C792.302 764.268 783.871 765.317 775.49 766.331C772.208 766.732 768.921 767.136 765.638 767.539C703.27 775.192 638.78 783.106 575.575 780.073C569.185 779.768 562.804 779.356 556.609 778.849C522.062 776.01 489.678 770.124 460.358 761.356C427.527 751.536 398.209 737.987 373.223 721.086C348.702 704.499 327.461 684.171 310.089 660.666C293.252 637.883 280.074 612.166 270.922 584.222C270.506 582.946 270.092 581.644 269.689 580.355C263.519 560.577 259.128 540.369 254.879 520.825C253.159 512.91 251.379 504.725 249.512 496.706C242.451 466.298 234.737 441.597 225.227 418.97C223.963 415.964 222.635 412.924 221.275 409.929C196.533 355.459 156.616 303.851 105.831 260.682C44.8831 208.962 -24.1203 173.63 -88.4661 161.202C-154.554 148.538 -233.566 165.61 -249.825 222.198L-250.065 222.121C-246.142 208.472 -238.468 196.569 -227.252 186.745C-216.903 177.68 -203.711 170.504 -188.041 165.42C-159.1 156.029 -122.801 154.418 -88.4491 161C-54.5279 167.553 -19.5731 180.283 15.4469 198.841C46.9408 215.527 77.4045 236.289 105.992 260.548C156.804 303.742 196.747 355.38 221.497 409.877C222.857 412.872 224.189 415.917 225.453 418.924C234.966 441.562 242.687 466.273 249.749 496.692C251.619 504.712 253.396 512.898 255.118 520.814C259.364 540.352 263.756 560.556 269.923 580.327C270.327 581.616 270.739 582.915 271.155 584.192C289.766 641.009 325.106 688.29 373.356 720.926C420.986 753.143 482.636 772.559 556.595 778.637C562.785 779.143 569.163 779.555 575.55 779.861C638.733 782.895 703.212 774.982 765.566 767.328C768.853 766.925 772.136 766.522 775.419 766.121C783.799 765.106 792.231 764.058 800.386 763.045C865.9 754.9 927.782 747.206 991.359 753.031C1011.9 754.881 1029.45 758.284 1045.01 763.428C1064.48 769.867 1081.03 779.242 1094.2 791.288C1105.51 801.653 1115.75 814.738 1125.5 831.291C1134.11 845.895 1141.25 861.257 1148.16 876.113C1152.21 884.809 1156.02 893.023 1160.04 900.905C1197.98 975.374 1236.78 1054.73 1278.66 1143.52L1278.43 1143.57Z" fill="white" fill-opacity="0.5"/>
<path d="M1276.64 1140.84C1238.88 1058.61 1200.39 976.799 1162.23 897.678C1158.33 889.656 1154.65 881.236 1150.75 872.325C1138.09 843.335 1123.73 810.478 1098.62 787.688C1074.69 765.987 1040.61 754.571 994.462 752.786C939.608 750.608 887.215 758.494 831.745 766.843C814.375 769.457 796.411 772.162 778.438 774.518C747.054 778.662 713.237 782.808 678.602 785.08C641.508 787.514 608.531 787.415 577.784 784.781C571.324 784.227 564.866 783.559 558.586 782.788C523.844 778.52 491.149 771.021 461.408 760.5C428.486 748.85 399.319 733.52 374.718 714.925C329.357 680.409 296.637 632.59 277.468 572.794C277.06 571.518 276.653 570.217 276.255 568.93C270.437 550.056 265.9 530.773 261.512 512.124C259.446 503.346 257.312 494.269 255.072 485.371C247.383 454.723 239.3 430.069 229.635 407.783C228.334 404.783 226.969 401.752 225.574 398.769C200.2 344.483 159.713 293.198 108.498 250.455C46.8823 199.095 -22.5668 164.329 -87.0574 152.558C-153.795 140.45 -231.02 157.587 -249.492 213.765L-249.728 213.681C-245.304 200.225 -237.3 188.469 -225.939 178.738C-215.413 169.724 -202.166 162.557 -186.561 157.44C-171.86 152.617 -155.555 149.755 -138.099 148.93C-121.152 148.13 -103.975 149.281 -87.0444 152.353C-53.0291 158.562 -17.907 170.976 17.3467 189.255C49.0331 205.684 79.7528 226.226 108.654 250.317C159.9 293.085 200.41 344.4 225.801 398.714C227.195 401.699 228.563 404.733 229.865 407.733C239.533 430.031 247.62 454.696 255.313 485.354C257.552 494.254 259.687 503.331 261.752 512.111C266.14 530.758 270.676 550.039 276.491 568.905C276.887 570.193 277.296 571.493 277.702 572.768C296.857 632.517 329.546 680.297 374.864 714.778C421.615 750.114 485.145 773.561 558.583 782.581C564.859 783.35 571.316 784.02 577.771 784.574C646.515 790.465 714.56 782.735 778.363 774.31C796.336 771.954 814.297 769.25 831.667 766.636C887.149 758.286 939.553 750.398 994.433 752.577C1040.66 754.364 1074.79 765.806 1098.79 787.557C1110.03 797.764 1120.06 810.785 1129.46 827.36C1137.74 841.976 1144.47 857.382 1150.98 872.279C1154.88 881.191 1158.56 889.607 1162.45 897.625C1200.62 976.748 1239.11 1058.56 1276.87 1140.8L1276.64 1140.84Z" fill="white" fill-opacity="0.5"/>
<path d="M1274.85 1138.12C1238.15 1055.93 1201.07 973.927 1164.64 894.393C1160.96 886.384 1157.5 877.931 1153.84 868.98C1141.88 839.706 1128.31 806.524 1103.21 783.954C1078.93 762.138 1044.37 751.794 997.554 752.327C948.516 752.86 900.146 761.801 853.368 770.45C829.913 774.786 805.658 779.269 781.389 782.703C743.077 788.139 711.389 791.32 681.661 792.715C645.004 794.434 611.75 793.378 580.001 789.489C573.483 788.692 566.944 787.761 560.568 786.726C527.349 781.326 495.963 772.875 467.194 761.591C465.595 760.964 464.01 760.329 462.429 759.685C429.338 746.206 400.333 729.072 376.221 708.763C364.592 698.935 353.723 687.987 343.919 676.223C334.703 665.166 326.141 653.041 318.469 640.187C304.665 617.06 293.396 591.276 284.02 561.365C283.619 560.079 283.22 558.792 282.828 557.503C277.475 539.925 272.934 521.964 268.543 504.595C266.007 494.568 263.387 484.2 260.64 474.03C252.19 442.704 243.991 418.819 234.049 396.587C232.711 393.597 231.31 390.576 229.88 387.603C203.865 333.504 162.812 282.543 111.166 240.225C48.8845 189.229 -21.0118 155.025 -85.6472 143.912C-151.375 132.649 -228.644 150.128 -249.154 205.329L-249.388 205.24C-239.835 179.528 -217.595 160.239 -185.075 149.46C-170.376 144.588 -154.118 141.641 -136.748 140.696C-119.846 139.778 -102.65 140.79 -85.6342 143.706C-51.5264 149.571 -16.2379 161.67 19.2496 179.669C51.1293 195.839 82.1065 216.165 111.321 240.084C162.999 282.43 204.075 333.422 230.107 387.552C231.537 390.527 232.942 393.552 234.279 396.543C244.225 418.787 252.429 442.68 260.88 474.017C263.626 484.188 266.249 494.558 268.783 504.583C273.174 521.951 277.714 539.909 283.065 557.482C283.458 558.771 283.854 560.057 284.256 561.342C304.178 624.901 334.312 673.078 376.379 708.628C434.692 757.743 508.733 778.098 560.578 786.523C566.949 787.557 573.482 788.487 579.998 789.284C653.019 798.228 725.941 790.356 781.313 782.499C805.578 779.068 829.83 774.584 853.283 770.249C900.071 761.6 948.451 752.654 997.513 752.122C1018.46 751.883 1036.58 753.8 1052.91 757.983C1073.05 763.141 1090.03 771.836 1103.37 783.827C1114.62 793.934 1124.5 806.968 1133.58 823.673C1141.58 838.391 1147.93 853.922 1154.07 868.944C1157.73 877.891 1161.18 886.342 1164.87 894.347C1201.3 973.881 1238.37 1055.88 1275.08 1138.07L1274.85 1138.12Z" fill="white" fill-opacity="0.5"/>
<path d="M1273.06 1135.4L1167.05 891.111C1163.59 883.133 1160.37 874.664 1156.95 865.701C1145.69 836.12 1132.92 802.592 1107.8 780.226C1083.51 758.599 1047.46 749.061 1000.65 751.877C955.645 754.584 911.708 764.425 869.217 773.942C841.521 780.146 812.881 786.56 784.34 790.896C698.555 803.93 628.08 803.858 562.554 790.672C535.371 785.201 509.408 777.629 485.091 768.089C477.72 765.197 470.506 762.127 463.45 758.878C430.175 743.558 401.332 724.625 377.724 702.609C355.845 682.202 337.827 658.444 322.648 629.975C310.527 607.242 300.335 581.812 290.575 549.944C285.424 533.126 280.791 515.934 276.311 499.308C266.17 461.684 255.685 422.778 238.469 385.404C212.061 328.079 168.962 274.34 113.83 229.997C50.8853 179.366 -19.4576 145.723 -84.2378 135.268C-146.956 125.145 -225.21 140.112 -248.82 196.897L-249.052 196.802C-238.498 171.42 -215.863 152.291 -183.593 141.482C-154.415 131.709 -119.127 129.43 -84.2278 135.064C-50.026 140.585 -14.5701 152.368 21.1487 170.087C53.2224 185.995 84.4564 206.107 113.985 229.858C141.265 251.799 165.772 276.209 186.829 302.411C208.061 328.832 225.513 356.737 238.695 385.351C255.918 422.739 266.408 461.655 276.551 499.288C281.031 515.912 285.665 533.102 290.815 549.918C305.053 596.415 327.82 655.775 377.897 702.479C435.326 756.04 510.023 779.889 562.575 790.466C628.068 803.647 698.511 803.718 784.263 790.688C812.793 786.354 841.429 779.939 869.122 773.738C911.622 764.219 955.57 754.376 1000.59 751.668C1047.49 748.846 1083.61 758.41 1107.97 780.094C1119.21 790.108 1128.95 803.165 1137.72 820.013C1145.45 834.843 1151.42 850.512 1157.19 865.664C1160.6 874.627 1163.83 883.091 1167.29 891.066L1273.29 1135.35L1273.06 1135.4Z" fill="white" fill-opacity="0.5"/>
<path d="M1276.95 1121.34C1251.59 1054.95 1228.95 1000.27 1205.68 949.256C1194.39 924.478 1182.6 899.826 1170.65 875.982C1167.03 868.77 1163.59 861.258 1159.95 853.305C1150.8 833.316 1141.34 812.646 1128.1 794.866C1121 785.309 1113.59 777.556 1105.46 771.163C1080.52 751.457 1045.08 744.113 1000.11 749.34C976.841 752.028 954.741 756.806 936.192 761.125C916.555 765.697 896.698 771.445 877.494 777.002C849.892 784.992 821.35 793.253 792.098 798.489C774.288 801.701 756.651 803.895 739.674 805.011C705.71 807.243 670.573 806.278 635.24 802.141C613.432 799.527 592.022 795.619 571.608 790.525C554.017 786.126 536.756 780.798 520.3 774.688C495.672 765.545 472.521 754.482 451.494 741.802C429.137 728.319 409.02 712.906 391.705 695.989C376.265 680.904 362.646 664.195 350.072 644.905C326.634 608.978 311.199 572.013 300.372 543.822C295.072 529.926 290.071 515.913 285.234 502.362C271.309 463.337 258.155 426.477 237.808 390.258C221.163 360.849 200.008 332.807 174.927 306.904C155.653 286.998 133.558 268.234 109.258 251.132C103.469 247.061 97.5168 243.048 91.571 239.211C65.9679 222.702 36.1018 206.775 2.80504 191.873C-30.7501 176.812 -60.8973 166.627 -89.355 160.741C-105.436 157.394 -121.619 155.691 -137.461 155.675C-193.391 155.62 -237.019 175.247 -254.167 208.178L-254.451 208.043C-249.88 199.264 -243.472 191.364 -235.406 184.559C-227.744 178.096 -218.537 172.575 -208.042 168.15C-188.214 159.793 -163.823 155.388 -137.508 155.414C-121.641 155.429 -105.431 157.136 -89.3261 160.489C-60.8388 166.382 -30.6675 176.574 2.91492 191.648C36.2303 206.557 66.1113 222.494 91.7317 239.015C97.6838 242.856 103.638 246.87 109.431 250.945C133.751 268.059 155.864 286.838 175.153 306.761C200.252 332.681 221.423 360.748 238.076 390.174C258.436 426.415 271.591 463.284 285.523 502.321C290.357 515.871 295.359 529.882 300.657 543.775C311.479 571.953 326.907 608.9 350.332 644.805C362.892 664.075 376.496 680.768 391.919 695.835C425.808 728.942 469.028 755.393 520.382 774.452C536.824 780.556 554.074 785.879 571.65 790.275C592.049 795.364 613.444 799.27 635.234 801.881C670.546 806.016 705.661 806.982 739.604 804.75C756.569 803.635 774.195 801.441 791.991 798.232C821.227 792.999 849.762 784.74 877.354 776.752C896.562 771.194 916.422 765.443 936.068 760.871C954.626 756.549 976.737 751.771 1000.02 749.08C1020.04 746.753 1038.47 746.948 1054.79 749.658C1074.84 752.988 1091.95 760.164 1105.64 770.986C1113.8 777.399 1121.23 785.173 1128.35 794.753C1141.62 812.56 1151.08 833.242 1160.24 853.245C1163.88 861.196 1167.31 868.707 1170.93 875.914C1182.89 899.761 1194.67 924.417 1205.96 949.199C1229.23 1000.22 1251.88 1054.91 1277.24 1121.3L1276.95 1121.34Z" fill="white" fill-opacity="0.5"/>
<path d="M1280.84 1107.28C1259.05 1041.34 1236.62 984.512 1212.26 933.552C1200.39 908.671 1187.6 884.213 1174.24 860.856C1170.7 854.659 1167.29 848.325 1163.67 841.619C1152.84 821.538 1141.65 800.774 1126.73 783.592C1119.2 774.895 1111.48 767.866 1103.11 762.1C1071.08 740.015 1029.13 741.59 999.574 746.798C978.644 750.457 958.652 756.036 938.313 761.913C920.511 767.057 903.206 773.314 884.886 779.937C857.693 789.77 829.575 799.937 799.858 806.079C782.205 809.773 764.428 811.98 747.02 812.64C714.595 813.871 680.598 811.368 643.086 804.99C622.093 801.419 601.089 796.503 580.658 790.374C563.425 785.186 546.567 779.135 530.549 772.381C506.718 762.341 484.25 750.419 463.765 736.947C442.252 722.798 422.709 706.788 405.681 689.364C390.762 674.1 377.237 657.116 364.333 637.445C340.884 601.752 323.066 565.39 310.166 537.7C305.39 527.449 300.754 517.202 296.27 507.289C278.412 467.813 261.546 430.524 237.15 395.114C218.917 368.649 196.628 343.575 170.906 320.592C151.443 303.202 129.784 287.396 104.694 272.272C98.9031 268.784 92.9636 265.357 87.0431 262.088C61.0309 247.749 32.3009 234.913 -2.55266 219.622C-27.6564 208.548 -60.7899 194.743 -94.4761 186.21C-110.416 182.132 -126.393 179.643 -141.967 178.805C-196.801 175.861 -240.744 191.057 -259.517 219.458L-259.845 219.276C-254.868 211.745 -248.153 205.077 -239.892 199.453C-232.02 194.096 -222.695 189.656 -212.177 186.251C-192.189 179.784 -167.923 177.1 -142.001 178.493C-126.398 179.332 -110.39 181.827 -94.4235 185.91C-60.7047 194.45 -27.5463 208.267 -2.42615 219.348C32.4391 234.643 61.1785 247.482 87.2086 261.831C93.133 265.104 99.0772 268.532 104.875 272.024C129.989 287.163 151.669 302.984 171.153 320.393C196.902 343.399 219.21 368.493 237.462 394.985C261.875 430.421 278.75 467.722 296.613 507.213C301.095 517.123 305.731 527.371 310.507 537.619C323.406 565.3 341.216 601.648 364.65 637.323C377.539 656.973 391.049 673.938 405.951 689.185C439.433 723.445 481.398 751.343 530.672 772.103C546.676 778.849 563.518 784.896 580.734 790.078C601.146 796.201 622.132 801.115 643.105 804.68C680.586 811.054 714.554 813.555 746.952 812.326C764.338 811.666 782.092 809.462 799.725 805.771C829.416 799.635 857.522 789.471 884.704 779.645C903.031 773.018 920.339 766.76 938.153 761.614C958.501 755.732 978.502 750.153 999.452 746.489C1018.61 743.111 1036.52 742.302 1052.69 744.077C1072.29 746.231 1089.33 752.217 1103.32 761.867C1111.72 767.655 1119.47 774.708 1127.02 783.431C1141.96 800.644 1153.17 821.427 1164 841.525C1167.62 848.227 1171.03 854.561 1174.57 860.754C1187.94 884.119 1200.73 908.585 1212.6 933.474C1236.97 984.446 1259.4 1041.28 1281.19 1107.24L1280.84 1107.28Z" fill="white" fill-opacity="0.5"/>
<path d="M1284.72 1093.22C1266.18 1026.81 1244.63 969.45 1218.84 917.849C1206.39 892.864 1192.59 868.601 1177.84 845.731C1174.69 840.842 1171.48 835.709 1168.38 830.746C1155.57 810.243 1142.33 789.043 1125.36 772.321C1117.4 764.444 1109.36 758.135 1100.78 753.038C1067.85 733.469 1027.28 737.462 999.043 744.255C979.921 748.817 961.543 755.28 943.768 761.531L940.439 762.701C924.304 768.368 908.521 775.335 891.81 782.711C865.199 794.457 837.685 806.602 807.62 813.668C790.098 817.849 772.181 820.071 754.364 820.269C723.3 820.616 690.429 816.664 650.926 807.836C630.499 803.27 609.902 797.344 589.705 790.219C572.831 784.241 556.375 777.463 540.793 770.069C493.612 747.7 452.856 718.316 419.654 682.737C405.301 667.355 391.869 650.102 378.594 629.985C356.111 595.988 337.3 562.73 319.961 531.58C317.636 527.403 315.34 523.261 313.061 519.15C289.417 476.509 267.086 436.233 236.496 399.977C216.526 376.306 193.103 354.204 166.883 334.283C147.633 319.658 125.797 306.29 100.133 293.415C94.3473 290.516 88.4211 287.674 82.5174 284.968C67.6597 278.173 51.6062 271.719 34.6091 264.885C20.957 259.396 6.8413 253.721 -7.91357 247.373C-36.3791 235.032 -68.6412 221.047 -99.6034 211.681C-115.579 206.849 -131.35 203.572 -146.48 201.94C-200.177 196.153 -244.438 206.922 -264.877 230.75L-265.237 230.507C-259.849 224.225 -252.83 218.788 -244.376 214.347C-236.292 210.101 -226.85 206.737 -216.313 204.35C-196.16 199.784 -172.016 198.828 -146.495 201.579C-131.33 203.213 -115.527 206.496 -99.5202 211.338C-68.5268 220.714 -36.2491 234.707 -7.77188 247.053C6.97437 253.396 21.0893 259.073 34.7367 264.56C51.7408 271.396 67.799 277.852 82.67 284.654C88.5777 287.364 94.5109 290.209 100.301 293.109C125.997 305.999 147.859 319.384 167.136 334.03C193.387 353.974 216.835 376.101 236.828 399.798C267.446 436.087 289.788 476.382 313.441 519.041C315.72 523.152 318.018 527.294 320.341 531.471C337.676 562.616 356.48 595.865 378.957 629.85C392.219 649.945 405.636 667.182 419.972 682.544C453.13 718.078 493.834 747.422 540.953 769.763C556.518 777.148 572.957 783.919 589.812 789.89C609.988 797.007 630.566 802.928 650.97 807.489C690.434 816.308 723.266 820.255 754.29 819.91C772.069 819.711 789.952 817.494 807.443 813.32C837.471 806.262 864.968 794.124 891.563 782.385C908.281 775.005 924.073 768.035 940.221 762.365L943.549 761.194C961.334 754.94 979.722 748.473 998.864 743.906C1027.19 737.09 1067.9 733.094 1100.98 752.753C1109.6 757.874 1117.67 764.206 1125.66 772.113C1142.67 788.871 1155.93 810.094 1168.75 830.62C1171.85 835.582 1175.05 840.715 1178.2 845.601C1192.96 868.483 1206.76 892.759 1219.22 917.757C1245.02 969.38 1266.58 1026.76 1285.13 1093.19L1284.72 1093.22Z" fill="white" fill-opacity="0.5"/>
<path d="M1288.61 1079.15C1273.53 1013.22 1252.27 953.664 1225.42 902.15C1212.39 877.062 1197.59 852.994 1181.44 830.613C1179.11 827.38 1176.73 824.042 1174.43 820.814C1159.24 799.487 1143.52 777.431 1124 761.058C1115.63 753.996 1107.27 748.412 1098.45 743.982C1064.62 726.994 1025.44 733.372 998.516 741.714C981.821 746.841 965.919 753.589 950.541 760.116C947.881 761.246 945.223 762.372 942.565 763.49C927.963 769.633 913.576 777.249 898.345 785.312C872.451 799.019 845.676 813.191 815.381 821.262C797.59 826.001 780.034 828.173 761.705 827.905C723.368 827.342 688.153 818.885 658.762 810.689C638.884 805.144 618.693 798.21 598.748 790.072C582.242 783.307 566.188 775.801 551.035 767.766C506.099 743.955 466.597 713.12 433.628 676.117C419.908 660.722 406.573 643.195 392.854 622.533C378.984 601.693 366.218 581.869 353.871 562.695C345.481 549.664 337.554 537.355 329.76 525.472C300.298 480.551 272.895 440.467 235.849 404.849C214.149 383.987 189.594 364.853 162.866 347.979C143.71 335.885 122.327 325.266 95.5772 314.56C89.8038 312.256 83.8887 309.998 77.9977 307.85C69.0436 304.601 59.6856 301.481 49.7808 298.181C30.7732 291.847 9.22553 284.666 -13.2762 275.126C-21.8446 271.492 -30.5503 267.692 -38.9698 264.016C-60.6258 254.561 -83.0186 244.785 -104.734 237.152C-120.682 231.548 -136.249 227.483 -150.999 225.074C-203.509 216.501 -248.086 222.847 -270.245 242.046L-270.621 241.734C-264.819 236.706 -257.496 232.502 -248.856 229.237C-240.558 226.102 -230.999 223.816 -220.45 222.442C-200.122 219.795 -176.102 220.565 -150.984 224.666C-136.199 227.08 -120.597 231.152 -104.614 236.77C-82.8743 244.41 -60.4729 254.192 -38.8052 263.651C-30.388 267.327 -21.6823 271.126 -13.1163 274.759C9.36443 284.291 30.895 291.468 49.8933 297.798C59.8028 301.1 69.1631 304.221 78.1265 307.473C84.0245 309.624 89.9443 311.884 95.7247 314.191C122.513 324.91 143.926 335.547 163.115 347.66C189.875 364.555 214.463 383.714 236.191 404.604C252.925 420.692 269.062 439.088 285.524 460.841C300.261 480.315 314.032 500.7 330.177 525.316C337.97 537.201 345.897 549.51 354.289 562.542C366.635 581.713 379.401 601.537 393.267 622.373C406.972 643.015 420.294 660.524 433.996 675.901C466.92 712.854 506.366 743.646 551.239 767.423C566.374 775.449 582.408 782.945 598.895 789.703C618.817 797.832 638.986 804.759 658.841 810.295C688.194 818.483 723.363 826.928 761.633 827.49C779.911 827.758 797.422 825.591 815.165 820.864C845.409 812.808 872.163 798.646 898.037 784.95C913.277 776.883 927.671 769.263 942.289 763.114C944.947 761.996 947.603 760.869 950.262 759.74C965.65 753.209 981.562 746.457 998.279 741.322C1015.79 735.896 1032.69 733.063 1048.49 732.904C1067.22 732.714 1084.09 736.325 1098.64 743.635C1107.5 748.086 1115.9 753.697 1124.3 760.788C1143.88 777.205 1159.61 799.287 1174.83 820.641C1177.13 823.87 1179.5 827.208 1181.83 830.437C1197.99 852.836 1212.8 876.926 1225.85 902.033C1240.11 929.386 1252.89 959.192 1263.83 990.621C1273.5 1018.4 1282 1048.18 1289.08 1079.13L1288.61 1079.15Z" fill="white" fill-opacity="0.5"/>
<path d="M1292.5 1065.09C1280.65 998.696 1260.3 938.594 1232.01 886.448C1218.39 861.258 1202.58 837.386 1185.05 815.494C1184.21 814.452 1183.38 813.41 1182.54 812.365C1164.31 789.583 1145.46 766.025 1122.64 749.799C1113.81 743.512 1105.13 738.649 1096.14 734.93C1061.43 720.59 1023.61 729.322 997.999 739.172C982.95 744.909 968.766 752.103 955.05 759.061C951.659 760.782 948.152 762.56 944.705 764.28C931.572 770.831 918.539 779.024 904.742 787.701C879.644 803.482 853.694 819.8 823.153 828.856C805.483 834.095 787.787 836.281 769.053 835.54C732.144 834.079 698 824.102 666.601 813.539C647.24 807.025 627.455 799.079 607.794 789.921C591.659 782.368 576.011 774.137 561.281 765.457C518.689 740.38 480.442 708.093 447.607 669.494C434.457 654.038 421.592 636.747 407.124 615.08C379.599 573.975 358.765 544.455 339.574 519.368C301.405 469.471 270.196 436.681 235.224 409.73C211.811 391.687 186.124 375.523 158.873 361.681C139.966 352.08 119.046 344.068 91.0427 335.711C85.3023 334.004 79.4006 332.33 73.4991 330.738C67.921 329.243 62.2245 327.802 56.1925 326.274C33.9205 320.638 8.67522 314.248 -18.627 302.881C-33.0178 296.89 -47.5152 290.256 -61.5351 283.842C-77.4687 276.552 -93.9438 269.014 -109.861 262.624C-125.82 256.217 -141.184 251.365 -155.514 248.211C-206.773 236.923 -251.672 238.846 -275.618 253.354L-275.981 252.96C-269.762 249.19 -262.135 246.219 -253.313 244.129C-244.798 242.109 -235.128 240.901 -224.57 240.535C-204.059 239.822 -180.159 242.319 -155.456 247.76C-141.086 250.925 -125.688 255.786 -109.692 262.207C-93.7609 268.603 -77.2765 276.145 -61.3366 283.439C-47.3214 289.851 -32.8311 296.482 -18.4519 302.469C8.80195 313.815 34.0201 320.198 56.2673 325.829C62.3024 327.356 68.0028 328.8 73.5839 330.295C79.4924 331.89 85.3988 333.565 91.1447 335.272C119.191 343.644 140.146 351.668 159.093 361.292C186.383 375.152 212.107 391.34 235.553 409.409C270.573 436.395 301.814 469.219 340.017 519.159C359.215 544.256 380.056 573.785 407.588 614.902C422.046 636.552 434.897 653.824 448.032 669.264C480.823 707.809 519.013 740.05 561.541 765.09C576.251 773.757 591.882 781.977 607.994 789.521C627.632 798.668 647.392 806.604 666.729 813.111C698.08 823.657 732.166 833.619 768.989 835.077C787.654 835.816 805.288 833.636 822.896 828.416C853.371 819.379 879.295 803.079 904.365 787.315C918.172 778.634 931.213 770.433 944.366 763.873C947.812 762.154 951.32 760.376 954.71 758.655C968.437 751.691 982.631 744.492 997.705 738.745C1014.42 732.316 1030.81 728.474 1046.41 727.321C1064.69 725.972 1081.48 728.398 1096.31 734.521C1105.36 738.26 1114.07 743.149 1122.95 749.465C1145.84 765.746 1164.72 789.337 1182.98 812.152C1183.81 813.197 1184.65 814.242 1185.48 815.281C1203.04 837.199 1218.86 861.099 1232.5 886.317C1260.81 938.508 1281.18 998.657 1293.04 1065.09L1292.5 1065.09Z" fill="white" fill-opacity="0.5"/>
<path d="M678.305 817.907C676.994 817.393 675.702 816.884 674.433 816.38C655.563 808.904 636.181 799.948 616.832 789.761C601.075 781.423 585.831 772.466 571.521 763.142C551.071 749.828 531.329 734.478 512.836 717.518C494.977 701.139 477.734 682.753 461.584 662.866C445.758 643.382 431.79 623.109 421.388 607.623C397.026 571.454 372.8 539.706 349.385 513.262C311.46 470.432 274.988 439.084 234.602 414.608C210.237 399.842 183.131 386.461 156.134 375.87C155.716 375.706 155.3 375.543 154.881 375.38C131.663 366.345 108.299 361.136 86.5114 356.854C80.838 355.746 74.9472 354.656 69.0013 353.618C65.7405 353.055 62.4678 352.509 59.0052 351.932C34.5796 347.866 6.89445 343.256 -23.9832 330.629C-42.7879 322.939 -61.4921 313.803 -79.5803 304.967C-91.2594 299.26 -103.335 293.362 -114.992 288.087C-131.017 280.837 -146.17 275.201 -160.036 271.339C-209.968 257.424 -255.191 254.926 -281.011 264.658L-281.33 264.179C-268.086 259.188 -250.376 257.317 -228.691 258.614C-207.982 259.855 -184.204 264.085 -159.931 270.85C-146.029 274.725 -130.834 280.372 -114.774 287.641C-103.105 292.92 -91.0231 298.823 -79.3393 304.531C-61.2628 313.363 -42.5704 322.494 -23.7906 330.173C7.00759 342.768 34.6454 347.369 59.03 351.429C62.4956 352.005 65.7684 352.551 69.0315 353.114C74.9821 354.155 80.8782 355.245 86.5564 356.355C108.381 360.644 131.785 365.863 155.059 374.918C182.516 385.602 210.122 399.187 234.902 414.207C255.745 426.84 275.191 441.029 294.345 457.581C312.793 473.524 330.95 491.651 349.85 512.998C373.284 539.463 397.527 571.234 421.905 607.427C432.297 622.902 446.255 643.16 462.065 662.624C494.836 702.977 531.771 736.665 571.84 762.755C586.131 772.067 601.356 781.012 617.09 789.339C636.414 799.512 655.768 808.457 674.613 815.92C704.101 827.6 738.696 840.258 776.34 842.656C795.394 843.869 813.148 841.678 830.619 835.961C861.303 825.918 886.301 807.385 910.481 789.463C922.918 780.244 934.665 771.536 946.434 764.626C950.204 762.412 954.035 760.111 957.74 757.884C970.259 750.363 983.201 742.587 997.117 736.165C1013.05 728.748 1028.93 723.891 1044.32 721.73C1062.16 719.225 1078.86 720.459 1093.96 725.399C1103.27 728.448 1112.31 732.613 1121.58 738.135C1146.38 752.895 1167.68 775.876 1189.11 800.116C1207.81 821.251 1225.1 845.621 1239.13 870.593C1254.73 898.277 1267.68 928.654 1277.61 960.877C1286.46 989.586 1292.98 1019.92 1296.99 1051.05L1296.38 1051.02C1287.77 984.182 1268.33 923.531 1238.58 870.755C1224.58 845.818 1207.31 821.485 1188.64 800.385C1167.24 776.187 1145.99 753.251 1121.29 738.544C1112.06 733.052 1103.08 728.911 1093.82 725.881C1066.08 716.806 1031.86 720.622 997.471 736.63C983.581 743.041 970.65 750.81 958.143 758.323C954.437 760.552 950.602 762.854 946.832 765.068C935.084 771.965 923.346 780.666 910.922 789.877C899.059 798.67 886.792 807.764 873.595 815.955C858.634 825.242 844.675 831.945 830.916 836.45C813.367 842.193 795.533 844.394 776.39 843.175C759.507 842.101 742.141 838.955 723.3 833.564C707.348 828.99 691.794 823.199 678.305 817.907Z" fill="white" fill-opacity="0.5"/>
<path d="M715.416 833.542C703.5 828.867 692.275 823.811 682.258 819.22C663.842 810.781 644.867 800.816 625.865 789.601C610.494 780.484 595.653 770.803 581.753 760.824C543.683 733.523 508.944 699.31 475.552 656.235C460.988 637.452 447.852 618.235 435.648 600.165C411.53 564.557 385.809 533.266 359.196 507.157C320.056 468.758 280.271 440.9 233.988 419.485C207.617 407.283 178.885 396.769 150.896 389.076C127.47 382.637 104.009 380.072 81.9832 377.993C76.47 377.48 70.5896 376.975 64.5089 376.493C62.9884 376.375 61.4533 376.26 59.8981 376.141C34.3486 374.212 5.43882 372.029 -27.6675 359.041C-28.226 358.822 -28.7815 358.602 -29.3425 358.375C-51.6698 349.408 -73.5396 337.893 -94.6913 326.754C-103.077 322.337 -111.749 317.772 -120.13 313.542C-136.5 305.283 -151.034 299.039 -164.566 294.455C-213.786 277.785 -258.205 271.036 -286.43 275.948L-286.66 275.387C-272.707 272.96 -254.084 273.406 -232.808 276.676C-211.882 279.892 -188.229 285.859 -164.406 293.928C-150.835 298.524 -136.263 304.784 -119.857 313.061C-111.467 317.295 -102.794 321.863 -94.4049 326.278C-73.2728 337.405 -51.4233 348.91 -29.1381 357.861C4.54965 371.394 33.9318 373.611 59.851 375.567C61.4039 375.685 62.9413 375.801 64.4625 375.917C70.5486 376.399 76.4314 376.905 81.9493 377.419C104.012 379.5 127.516 382.073 151.006 388.529C179.038 396.235 207.818 406.766 234.232 418.987C257.168 429.598 278.264 441.685 298.724 455.935C319.796 470.611 339.732 487.253 359.671 506.817C386.317 532.961 412.071 564.29 436.216 599.935C448.414 617.998 461.542 637.204 476.093 655.969C509.441 698.986 544.126 733.148 582.135 760.406C596.015 770.368 610.837 780.036 626.185 789.141C645.161 800.341 664.109 810.293 682.499 818.718C713.444 832.897 746.746 847.009 783.692 850.222C803.133 851.912 821.01 849.711 838.341 843.492C869.217 832.415 894.281 810.617 916.396 791.385C927.522 781.708 938.033 772.568 948.497 765.367C952.273 762.769 956.111 760.058 959.822 757.437C971.432 749.235 983.437 740.755 996.527 733.571C1011.71 725.175 1027.08 719.304 1042.23 716.123C1059.63 712.47 1076.24 712.516 1091.6 716.261C1101.2 718.601 1110.56 722.046 1120.21 726.784C1147.17 740.029 1171.01 762.558 1192.75 784.933C1212.82 805.592 1231.15 829.77 1245.76 854.854C1262.04 882.701 1275.07 913.365 1284.5 945.986C1292.93 975.159 1298.47 1005.77 1300.95 1036.99L1300.28 1036.94C1295 970.591 1275.95 907.692 1245.17 855.037C1230.59 830.002 1212.29 805.87 1192.26 785.252C1170.57 762.929 1146.8 740.457 1119.95 727.267C1110.36 722.555 1101.06 719.133 1091.52 716.807C1063.15 709.892 1029.57 716.019 996.958 734.062C983.893 741.23 971.902 749.703 960.303 757.896C956.591 760.519 952.753 763.23 948.974 765.831C938.532 773.015 928.032 782.146 916.916 791.812C894.765 811.073 869.66 832.907 838.684 844.021C821.256 850.273 803.28 852.487 783.729 850.788C766.763 849.312 749.342 845.478 730.468 839.058C725.36 837.333 720.331 835.47 715.416 833.542Z" fill="white" fill-opacity="0.5"/>
<path d="M738.148 844.783C737.978 844.716 737.81 844.65 737.639 844.584C720.811 837.943 704.92 829.817 690.084 822.061C672.081 812.65 653.516 801.674 634.9 789.44C619.92 779.548 605.482 769.14 591.99 758.508C556.21 730.337 523.652 695.735 489.526 649.609C477.235 633 465.512 615.709 454.171 598.988C452.753 596.895 451.333 594.804 449.912 592.712C425.621 557.042 398.403 526.205 369.017 501.06C328.777 466.628 284.412 441.541 233.387 424.367C205.408 414.95 175.51 407.485 146.924 402.777C124.37 399.063 103.027 398.928 77.467 399.136C72.2832 399.186 66.7395 399.26 60.0239 399.372L59.6488 399.379C46.6806 399.626 31.9822 399.904 16.2385 398.324C-1.84291 396.509 -18.5073 392.512 -34.6997 386.13C-59.9456 376.168 -84.2622 362.311 -107.775 348.908C-113.536 345.625 -119.496 342.229 -125.27 339.006C-141.831 329.769 -156.168 322.761 -169.101 317.582C-216.719 298.515 -261.467 287.457 -291.866 287.243L-291.973 286.622C-277.082 286.726 -258.044 289.538 -236.917 294.754C-215.751 299.978 -192.221 307.681 -168.876 317.029C-155.906 322.222 -141.532 329.247 -124.936 338.505C-119.157 341.729 -113.197 345.125 -107.434 348.409C-83.9489 361.794 -59.6636 375.635 -34.4785 385.573C-34.3663 385.617 -34.2518 385.662 -34.1396 385.706C1.91365 399.85 33.8455 399.245 59.5204 398.758L59.8977 398.751C66.6164 398.638 72.1602 398.564 77.3463 398.515C102.95 398.307 124.33 398.442 146.955 402.169C175.589 406.883 205.536 414.361 233.563 423.794C258.532 432.199 281.278 442.183 303.103 454.32C326.622 467.398 348.341 482.556 369.498 500.66C398.94 525.853 426.205 556.742 450.536 592.47C451.956 594.561 453.376 596.655 454.793 598.747C466.129 615.462 477.85 632.748 490.13 649.343C524.211 695.411 556.721 729.964 592.44 758.088C605.914 768.706 620.331 779.098 635.289 788.977C653.879 801.195 672.418 812.154 690.393 821.549C722.587 838.38 754.513 853.819 791.049 857.818C810.876 859.988 828.873 857.776 846.065 851.054C877.122 838.911 901.029 814.581 922.125 793.115C932 783.065 941.329 773.571 950.564 766.141C954.118 763.283 957.729 760.3 961.22 757.415C972.138 748.394 983.425 739.068 995.942 731.009C1010.39 721.636 1025.26 714.75 1040.14 710.541C1057.1 705.746 1073.62 704.606 1089.24 707.153C1098.93 708.734 1108.4 711.371 1118.2 715.213C1118.41 715.296 1118.62 715.38 1118.84 715.466C1149.23 727.535 1176.24 750.83 1196.38 769.777C1217.83 789.962 1237.2 813.947 1252.4 839.141C1269.35 867.155 1282.47 898.103 1291.39 931.126C1299.4 960.76 1303.94 991.656 1304.9 1022.96L1304.17 1022.88C1302.74 976.303 1292.48 906.657 1251.76 839.353C1236.59 814.218 1217.27 790.289 1195.87 770.152C1175.79 751.258 1148.86 728.032 1118.62 716.023C1108.66 712.062 1099.04 709.368 1089.21 707.765C1060.28 703.045 1027.33 711.483 996.441 731.524C983.953 739.564 972.678 748.88 961.772 757.891C958.28 760.778 954.667 763.762 951.112 766.622C941.9 774.033 932.582 783.514 922.718 793.554C901.585 815.06 877.633 839.435 846.455 851.625C829.149 858.393 811.03 860.619 791.069 858.434C774.152 856.58 756.833 852.114 738.148 844.783Z" fill="white" fill-opacity="0.5"/>
<path d="M755.824 854.739C752.197 853.316 748.527 851.769 744.805 850.094C728.512 842.765 713.324 833.993 697.908 824.898C680.036 814.355 662.38 802.704 643.933 789.278C629.351 778.618 615.318 767.486 602.225 756.189C568.999 727.55 538.552 692.635 503.501 642.981C494.796 630.65 486.243 617.943 477.972 605.654C473.469 598.965 468.815 592.047 464.179 585.257C439.553 549.279 410.842 518.901 378.844 494.962C336.566 463.332 288.795 441.836 232.795 429.244C203.208 422.591 172.144 418.174 142.962 416.47C119.52 415.101 97.6803 417.526 74.5573 420.094L72.9586 420.271C69.3448 420.677 65.6895 421.093 61.9895 421.513C59.8581 421.756 57.7128 422 55.5483 422.245C42.0403 423.806 27.5366 425.272 11.8217 424.615C-6.42405 423.852 -23.39 420.342 -40.0512 413.883C-67.7873 403.126 -94.0257 386.923 -119.396 371.249C-123.016 369.011 -126.763 366.698 -130.406 364.469C-147.482 354.015 -161.215 346.466 -173.631 340.706C-219.45 319.455 -264.526 304.08 -297.306 298.524L-297.271 297.864C-264.405 303.434 -219.234 318.838 -173.337 340.127C-160.886 345.902 -147.117 353.471 -130.008 363.944C-126.364 366.176 -122.617 368.49 -118.995 370.728C-93.9347 386.21 -68.0297 402.211 -40.7029 412.932C-40.4084 413.047 -40.114 413.163 -39.8164 413.277C-4.41582 427.002 25.3888 425.035 55.3269 421.579C57.4915 421.334 59.6368 421.09 61.7682 420.846C65.4689 420.425 69.1211 420.01 72.738 419.603L74.3367 419.426C97.4989 416.854 119.376 414.425 142.895 415.798C172.129 417.503 203.247 421.928 232.885 428.593C289.027 441.217 336.926 462.772 379.319 494.488C411.395 518.487 440.173 548.935 464.855 584.992C469.49 591.784 474.147 598.701 478.649 605.392C486.917 617.677 495.468 630.381 504.168 642.704C539.176 692.3 569.581 727.167 602.747 755.757C615.824 767.037 629.835 778.153 644.396 788.797C662.817 802.203 680.446 813.838 698.292 824.364C725.381 840.345 759.093 860.236 798.413 865.396C818.627 868.05 836.742 865.826 853.792 858.598C885.025 845.359 907.678 818.392 927.665 794.602C936.348 784.266 944.549 774.504 952.633 766.903C955.782 763.942 958.985 760.857 962.081 757.873C972.469 747.865 983.211 737.518 995.356 728.433C1009.09 718.084 1023.46 710.181 1038.05 704.945C1054.58 699.012 1071.01 696.687 1086.88 698.035C1097.06 698.899 1107.07 700.894 1117.46 704.132C1131.38 708.468 1145.38 715.161 1160.26 724.588C1172.85 732.566 1185.85 742.383 1200.01 754.605C1222.84 774.315 1243.25 798.108 1259.04 823.413C1276.67 851.593 1289.87 882.829 1298.28 916.251C1305.86 946.347 1309.41 977.522 1308.86 1008.91L1308.06 1008.8C1309.24 942.525 1291.58 876.771 1258.34 823.652C1242.6 798.416 1222.25 774.69 1199.48 755.038C1168.98 728.707 1142.87 712.731 1117.29 704.761C1106.97 701.544 1097.03 699.563 1086.92 698.703C1049.17 695.496 1016.6 713.391 995.931 728.966C983.817 738.028 973.088 748.363 962.713 758.359C959.614 761.344 956.41 764.431 953.26 767.394C945.201 774.972 937.01 784.724 928.338 795.046C908.308 818.888 885.607 845.911 854.231 859.21C837.046 866.495 818.786 868.736 798.41 866.062C784.599 864.249 770.573 860.525 755.824 854.739Z" fill="white" fill-opacity="0.5"/>
<path d="M770.852 864.098C746.138 854.403 724.36 840.029 705.728 827.732C688.199 816.165 670.939 803.531 652.962 789.112C638.784 777.692 625.155 765.835 612.455 753.868C574.379 718.018 544.301 676.2 517.472 636.351C511.994 628.215 506.502 619.889 501.192 611.839C493.82 600.659 486.196 589.1 478.444 577.802C453.403 541.403 423.2 511.48 388.677 488.866C344.015 459.614 292.833 441.704 232.205 434.115C200.989 430.208 168.761 428.84 139.003 430.161C116.051 431.177 95.213 435.654 73.1526 440.393C71.5892 440.728 70.0219 441.066 68.4477 441.402L67.5934 441.586C62.2295 442.741 56.6836 443.934 51.0724 445.114C37.6158 447.974 22.9822 450.651 7.18029 450.883C-11.1631 451.152 -28.3627 448.127 -45.4068 441.634C-75.3245 430.238 -103.083 411.655 -129.926 393.685C-131.808 392.426 -133.681 391.172 -135.546 389.927C-153.257 378.099 -166.403 370.049 -178.167 363.825C-221.889 340.694 -267.299 321 -302.754 309.792L-302.569 309.115C-267.056 320.34 -221.579 340.063 -177.8 363.224C-166.002 369.466 -152.827 377.534 -135.085 389.383C-133.219 390.627 -131.346 391.881 -129.463 393.144C-102.671 411.079 -74.9642 429.622 -45.1631 440.978C-8.14889 455.079 23.7511 450.142 50.7459 444.407C56.357 443.227 61.903 442.033 67.2662 440.88L68.1205 440.696C69.6954 440.359 71.2619 440.023 72.8253 439.688C94.9241 434.94 115.798 430.456 138.826 429.435C168.639 428.112 200.928 429.484 232.198 433.398C260.941 436.996 286.994 442.784 311.843 451.091C339.562 460.358 365.564 472.882 389.129 488.318C423.762 511.003 454.055 541.013 479.167 577.513C486.924 588.817 494.55 600.379 501.924 611.561C507.233 619.612 512.722 627.934 518.198 636.067C545.001 675.874 575.041 717.644 613.048 753.429C625.73 765.378 639.339 777.219 653.497 788.623C671.447 803.02 688.679 815.634 706.182 827.185C733.057 844.921 766.504 866.995 805.762 872.976C826.364 876.115 844.596 873.88 861.505 866.145C892.913 851.775 914.21 822.07 933 795.86C940.551 785.33 947.681 775.383 954.688 767.667C957.28 764.813 959.921 761.849 962.475 758.982C972.467 747.77 982.8 736.175 994.756 725.86C1007.81 714.528 1021.67 705.605 1035.94 699.343C1052.05 692.275 1068.39 688.767 1084.5 688.914C1094.97 689.011 1105.29 690.281 1116.06 692.798C1130.58 696.19 1145.79 702.235 1161.28 710.764C1174.84 718.234 1189.08 727.878 1203.63 739.43C1227.84 758.664 1249.29 782.265 1265.66 807.683C1283.97 836.03 1297.26 867.551 1305.16 901.374C1312.3 931.93 1314.87 963.388 1312.8 994.87L1311.95 994.719C1316.33 928.01 1299.63 861.681 1264.92 807.951C1248.6 782.616 1227.22 759.093 1203.1 739.923C1171.82 715.077 1143.32 699.889 1115.96 693.497C1105.26 690.998 1095.01 689.737 1084.63 689.64C1046.29 689.29 1014.95 709.439 995.412 726.407C983.486 736.695 973.167 748.274 963.189 759.472C960.635 762.339 957.991 765.304 955.398 768.162C948.413 775.853 941.292 785.785 933.751 796.303C924.711 808.912 914.466 823.203 902.795 835.79C889.421 850.212 876.077 860.354 862 866.796C853.859 870.52 845.206 873.014 836.278 874.206C826.677 875.488 816.403 875.316 805.741 873.691C793.541 871.834 781.902 868.433 770.852 864.098Z" fill="white" fill-opacity="0.5"/>
<path d="M784.166 873.121C775.996 869.916 767.683 865.925 759.137 861.115C742.304 851.643 727.028 840.444 713.547 830.566C696.557 818.113 679.21 804.108 661.991 788.944C648.225 776.776 634.999 764.193 622.687 751.543C587.337 715.258 560.45 674.903 531.443 629.718C528.865 625.703 526.252 621.614 523.726 617.657C513.777 602.083 503.491 585.98 492.708 570.347C467.207 533.456 435.514 503.991 398.508 482.77C351.828 456.001 295.676 441.267 231.616 438.984C198.744 437.813 165.35 439.492 135.044 443.844C112.225 447.121 91.9622 453.59 70.509 460.438C68.3292 461.135 66.141 461.832 63.9413 462.531C58.465 464.275 52.5716 466.141 46.5995 467.98C34.0656 471.863 19.0275 475.991 2.54186 477.147C-15.9131 478.443 -33.3494 475.905 -50.7585 469.386C-82.6294 457.456 -111.599 436.461 -139.616 416.157L-140.683 415.384C-154.401 405.445 -168.987 395.118 -182.699 386.942C-224.495 362.024 -269.063 338.624 -308.189 321.053L-307.862 320.379C-268.695 337.968 -224.086 361.388 -182.253 386.33C-168.502 394.529 -153.891 404.872 -140.151 414.826L-139.084 415.599C-111.128 435.858 -82.2157 456.807 -50.5006 468.681C-13.8735 482.393 17.6093 476.093 46.175 467.241C52.1463 465.403 58.0351 463.536 63.5107 461.793C65.7097 461.096 67.8986 460.397 70.0776 459.703C91.5676 452.842 111.867 446.363 134.761 443.075C165.124 438.713 198.582 437.03 231.515 438.204C261.569 439.277 290.071 443.072 316.22 449.486C346.099 456.815 373.931 467.802 398.942 482.144C436.089 503.447 467.9 533.017 493.486 570.034C504.277 585.681 514.569 601.791 524.523 617.373C527.049 621.328 529.662 625.417 532.24 629.432C561.219 674.574 588.077 714.885 623.362 751.107C635.658 763.737 648.864 776.301 662.61 788.453C679.805 803.595 697.123 817.578 714.088 830.012C740.681 849.504 773.778 873.76 813.13 880.562C834.12 884.189 852.47 881.944 869.232 873.697C900.814 858.16 921.517 824.188 938.153 796.89C944.633 786.257 950.752 776.214 956.757 768.442C958.649 765.991 960.583 763.46 962.452 761.011C972.162 748.29 982.207 735.135 994.172 723.298C1012.72 704.847 1043.03 682.326 1082.14 679.808C1092.94 679.113 1103.58 679.659 1114.68 681.477C1143.75 686.15 1174.9 700.548 1207.26 724.265C1232.85 743.022 1255.34 766.431 1272.3 791.962C1291.29 820.475 1304.67 852.283 1312.06 886.508C1315.45 902.207 1317.54 918.375 1318.29 934.566C1319 950.031 1318.49 965.599 1316.76 980.837L1315.85 980.646C1323.45 913.502 1307.71 846.597 1271.52 792.257C1254.62 766.821 1232.21 743.502 1206.72 724.816C1174.51 701.207 1143.53 686.882 1114.65 682.238C1103.63 680.433 1093.06 679.891 1082.35 680.581C1043.51 683.08 1013.36 705.491 994.91 723.851C982.973 735.656 972.946 748.794 963.245 761.499C961.376 763.947 959.443 766.481 957.549 768.933C951.565 776.679 945.452 786.707 938.983 797.325C930.612 811.061 921.125 826.63 909.929 840.445C897.065 856.32 883.931 867.422 869.779 874.384C861.706 878.356 853.055 880.983 844.07 882.191C834.39 883.494 823.963 883.202 813.084 881.32C803.534 879.672 793.949 876.959 784.166 873.121Z" fill="white" fill-opacity="0.5"/>
<path d="M807.491 890.463C796.334 886.086 785.076 880.013 773.468 872.133C757.045 860.984 742.24 847.827 729.181 836.221C712.676 821.553 696.145 805.53 680.046 788.601C667.109 774.964 654.695 760.929 643.144 746.89C614.698 712.324 593.334 675.268 570.715 636.036C567.018 629.622 563.193 622.991 559.383 616.452C545.989 593.473 534.374 574.301 521.234 555.437C494.74 517.455 460.07 488.904 418.183 470.574C365.551 447.542 302.382 440.184 230.434 448.705C194.692 452.939 158.001 460.926 127.121 471.196C103.857 478.933 83.912 489.466 62.7964 500.616C60.1807 501.998 57.555 503.384 54.917 504.767C50.2154 507.238 44.0008 510.486 37.6431 513.693C10.8684 527.24 -21.8477 539.165 -61.4724 524.886C-62.7071 524.438 -63.9398 523.971 -65.1644 523.491C-95.7701 511.484 -123.235 489.588 -150.979 466.286L-152.709 464.826C-166.433 453.237 -179.397 442.29 -191.792 433.162C-238.5 398.762 -284.345 367.206 -319.068 343.559L-318.496 342.906C-283.765 366.56 -237.907 398.123 -191.182 432.536C-178.754 441.689 -165.776 452.649 -152.034 464.252L-150.306 465.711C-121.546 489.866 -93.0885 512.513 -61.1981 524.084C-22.0125 538.203 10.4354 526.364 37.0109 512.92C43.3648 509.715 49.5733 506.469 54.2741 504C56.9129 502.615 59.5355 501.23 62.1512 499.848C83.3004 488.681 103.277 478.131 126.615 470.369C157.558 460.076 194.323 452.074 230.136 447.83C263.375 443.893 295.283 443.375 324.975 446.288C359.042 449.63 390.523 457.543 418.54 469.802C460.644 488.225 495.49 516.918 522.108 555.078C535.267 573.971 546.892 593.162 560.301 616.162C564.113 622.702 567.937 629.335 571.636 635.749C594.233 674.943 615.576 711.962 643.968 746.46C655.502 760.482 667.897 774.494 680.815 788.111C696.891 805.018 713.397 821.016 729.877 835.662C755.748 858.653 787.945 887.266 827.844 895.724C849.654 900.347 868.238 898.081 884.658 888.796C916.638 870.857 933.932 830.595 947.829 798.244C952.364 787.689 956.647 777.718 960.87 769.987L960.966 769.81C970.425 752.499 980.206 734.599 992.978 718.162C1004.08 703.813 1016.41 691.831 1029.62 682.545C1044.51 672.078 1060.58 665.026 1077.38 661.584C1088.62 659.281 1099.9 658.376 1111.88 658.821C1144.27 659.964 1179.75 672.098 1214.49 693.915C1228.47 702.695 1241.66 712.865 1253.71 724.142C1265.84 735.485 1276.55 747.719 1285.55 760.501C1305.91 789.346 1319.46 821.733 1325.82 856.762C1331.55 888.247 1331.14 921.444 1324.65 952.762L1323.63 952.482C1337.51 885.454 1323.32 815.611 1284.68 760.86C1266.62 735.232 1242.17 712.316 1213.96 694.599C1179.42 672.907 1144.17 660.842 1112 659.709C1100.11 659.268 1088.92 660.165 1077.77 662.449C1046.41 668.877 1017.4 688.338 993.875 718.727C981.136 735.121 971.37 752.996 961.924 770.283L961.828 770.459C957.619 778.162 953.341 788.118 948.813 798.658C934.872 831.107 917.525 871.49 885.32 889.556C877.404 894.033 868.761 896.934 859.638 898.179C849.8 899.521 839.07 898.983 827.742 896.583C820.995 895.151 814.261 893.119 807.491 890.463Z" fill="white" fill-opacity="0.5"/>
<path d="M-70.9212 551.109C-84.6068 545.74 -98.6776 537.771 -113.797 526.84C-128.821 515.979 -143.016 503.552 -156.122 491.741C-158.492 489.597 -160.843 487.462 -163.177 485.343C-174.797 474.791 -185.773 464.824 -196.33 456.273C-238.43 422.181 -278.883 390.513 -318.008 359.891L-324.49 354.816L-323.813 354.178L-317.331 359.253C-278.206 389.88 -237.746 421.55 -195.638 455.65C-185.052 464.223 -174.062 474.202 -162.428 484.767C-160.096 486.886 -157.746 489.02 -155.377 491.162C-128.475 515.406 -99.4584 540.057 -66.5391 551.789C-26.0472 566.147 7.62766 550.767 32.4382 535.766C38.7909 531.933 44.9819 528.057 49.6656 525.11C52.2496 523.486 54.8211 521.86 57.3857 520.237C78.6527 506.79 98.7401 494.088 122.552 484.023C153.983 470.742 191.948 459.599 229.455 452.652C264.253 446.205 297.871 443.515 329.379 444.658C365.519 445.968 398.815 452.353 428.344 463.634C472.827 480.48 509.196 508.735 536.426 547.602C551.515 569.164 564.059 591.007 574.341 609.532C579.936 619.612 585.463 629.864 590.81 639.778C609.733 674.876 629.301 711.167 654.278 744.143C665.434 758.875 677.428 773.614 689.924 787.947C705.397 805.662 721.497 822.669 737.779 838.494C763.23 863.228 794.902 894.011 835.208 903.309C857.393 908.426 876.092 906.149 892.377 896.348C924.539 877.098 939.971 833.529 952.368 798.519C956.035 788.167 959.497 778.386 962.936 770.768C970.686 753.593 979.994 733.75 992.391 715.602C1002.87 700.216 1014.69 687.211 1027.51 676.951C1042.02 665.344 1058 657.111 1075.01 652.48C1086.28 649.411 1098.22 647.737 1110.49 647.501C1128.01 647.144 1146.46 649.835 1165.33 655.503C1183 660.811 1200.76 668.631 1218.11 678.744C1232.74 687.274 1246.54 697.274 1259.11 708.47C1271.77 719.735 1282.9 731.951 1292.19 744.774C1302.9 759.547 1311.81 775.526 1318.67 792.265C1325.17 808.126 1329.9 824.824 1332.72 841.895C1337.99 873.831 1336.57 907.318 1328.6 938.73L1327.52 938.403C1344.63 870.947 1331.41 800.517 1291.27 745.168C1272.9 719.801 1246.73 696.476 1217.58 679.487C1181.55 658.481 1144.58 647.743 1110.69 648.434C1098.51 648.668 1086.67 650.33 1075.48 653.374C1043.43 662.099 1015.8 683.221 993.365 716.158C980.998 734.256 971.709 754.065 963.973 771.213C960.547 778.804 957.088 788.569 953.428 798.909C947.311 816.18 940.378 835.757 930.881 853.586C919.86 874.274 907.503 888.519 893.103 897.137C885.252 901.863 876.612 904.9 867.427 906.164C857.507 907.529 846.623 906.871 835.079 904.207C829.255 902.864 823.611 901.077 818.145 898.932C785.41 886.09 758.912 860.335 737.001 839.04C720.696 823.191 704.571 806.16 689.078 788.42C676.563 774.066 664.552 759.306 653.381 744.552C628.352 711.51 608.764 675.181 589.821 640.049C584.476 630.138 578.951 619.889 573.36 609.814C563.092 591.312 550.566 569.5 535.505 547.979C508.422 509.319 472.265 481.23 428.033 464.474C358.645 437.965 281.961 443.906 229.848 453.561C192.416 460.495 154.529 471.613 123.165 484.869C99.4234 494.903 79.3657 507.585 58.1314 521.011C55.5668 522.633 52.9929 524.258 50.4083 525.884C45.7215 528.832 39.5266 532.711 33.1695 536.549C22.7544 542.846 6.80677 551.705 -11.3618 555.907C-20.185 557.947 -29.054 558.792 -37.7231 558.418C-47.3891 558.002 -57.1811 556.057 -66.8208 552.638C-68.1875 552.156 -69.554 551.645 -70.9212 551.109Z" fill="white" fill-opacity="0.5"/>
<path d="M-76.6835 578.721C-90.3854 573.346 -104.362 565.226 -119.263 553.998C-134.691 542.375 -149.154 528.869 -161.264 517.189C-164.984 513.597 -168.685 509.982 -172.264 506.486C-182.27 496.713 -191.721 487.48 -200.87 479.38C-233.724 450.291 -266.459 421.632 -298.118 393.915C-308.59 384.747 -319.417 375.268 -329.908 366.071L-329.134 365.445C-318.643 374.642 -307.816 384.121 -297.344 393.289C-265.685 421.006 -232.946 449.669 -200.091 478.762C-190.918 486.883 -181.454 496.126 -171.437 505.911C-167.86 509.407 -164.159 513.02 -160.444 516.61C-135.325 540.828 -105.693 567.658 -71.8832 579.491C-30.3576 593.984 3.23639 575.944 27.8671 558.61C34.1796 554.171 40.3708 549.656 45.0579 546.218C47.465 544.455 49.8619 542.689 52.2543 540.928C73.7646 525.087 94.0805 510.126 118.492 497.68C150.243 481.494 189.41 467.216 228.775 457.474C283.544 444.038 364.326 433.131 438.143 457.47C485.115 472.881 523.001 500.692 550.743 540.131C563.206 557.857 574.812 577.216 588.377 602.907C595.233 615.89 601.882 629.168 608.312 642.005C625.042 675.406 642.338 709.943 664.585 741.834C675.361 757.286 686.95 772.749 699.03 787.792C713.662 805.997 729.357 824.012 745.677 841.336C770.779 867.859 802.019 900.871 842.566 910.903C864.774 916.461 884.127 914.107 900.089 903.911C932.447 883.297 946.462 834.3 956.692 798.524C959.563 788.484 962.274 779.001 964.996 771.561C971.042 755.024 979.551 733.43 991.798 713.054C1012.99 677.735 1040.19 654.294 1072.63 643.389C1084.01 639.53 1096.28 637.11 1109.09 636.194C1127.32 634.881 1146.58 636.743 1166.33 641.729C1184.93 646.428 1203.57 653.779 1221.72 663.582C1237.02 671.898 1251.41 681.736 1264.5 692.823C1277.71 704.02 1289.26 716.21 1298.82 729.056C1309.87 743.903 1318.98 760 1325.88 776.901C1332.41 792.918 1337.03 809.785 1339.6 827.037C1344.43 859.425 1341.99 893.2 1332.55 924.71L1331.42 924.333C1351.75 856.451 1339.52 785.431 1297.86 729.486C1278.98 704.111 1251.76 680.992 1221.21 664.391C1183.51 644.033 1144.84 634.623 1109.37 637.178C1096.66 638.085 1084.5 640.487 1073.2 644.316C1040.98 655.148 1013.94 678.459 992.854 713.605C980.64 733.926 972.15 755.478 966.115 771.982C963.405 779.397 960.696 788.868 957.827 798.895C952.539 817.387 946.543 838.349 937.701 857.641C927.403 880.103 915.36 895.508 900.878 904.734C893.08 909.715 884.444 912.893 875.205 914.178C865.19 915.573 854.155 914.788 842.408 911.849C824.169 907.335 806.312 897.957 787.816 883.175C771.739 870.326 757.435 855.212 744.816 841.88C728.471 824.531 712.756 806.491 698.102 788.26C686.004 773.195 674.399 757.711 663.607 742.238C641.313 710.281 623.997 675.706 607.25 642.271C600.824 629.437 594.176 616.166 587.326 603.195C573.783 577.548 562.198 558.225 549.765 540.542C522.19 501.33 484.546 473.692 437.873 458.379C364.372 434.147 283.855 445.026 229.25 458.422C189.963 468.143 150.878 482.391 119.195 498.544C94.8506 510.953 74.5643 525.895 53.0875 541.712C50.6943 543.475 48.2974 545.241 45.8904 547.004C41.1994 550.445 35.0037 554.964 28.6843 559.407C3.83641 576.896 -30.0838 595.087 -72.1806 580.394C-73.6765 579.869 -75.1808 579.311 -76.6835 578.721Z" fill="white" fill-opacity="0.5"/>
<path d="M-82.3593 606.371C-119.798 591.683 -151.904 557.976 -180.364 528.093C-189.11 518.911 -197.37 510.237 -205.414 502.487L-335.327 377.326L-334.464 376.714L-204.551 501.875C-196.485 509.644 -188.215 518.328 -179.458 527.523C-149.898 558.561 -116.391 593.741 -77.2297 607.195C-34.7093 621.805 -1.17283 601.114 23.2928 581.459C31.2947 575.03 39.1898 568.391 46.8266 561.972C67.7125 544.416 89.3081 526.261 114.427 511.334C134.372 499.482 157.855 488.058 182.334 478.3C209.189 467.594 236.837 458.953 264.502 452.614C295.006 445.627 324.801 441.637 353.055 440.754C384.307 439.779 413.599 442.63 440.125 449.227C493.261 462.445 535.295 490.511 565.052 532.649C589.784 567.666 607.475 605.909 624.585 642.894C639.478 675.087 654.878 708.374 674.887 739.514C697.999 775.481 724.472 810.691 753.573 844.164C778.092 872.368 808.606 907.47 849.928 918.482C884.826 927.782 911.119 917.575 930.304 887.271C946.624 861.496 954.484 826.408 960.8 798.216C962.952 788.608 964.985 779.533 967.058 772.34C978.478 732.685 993.15 702.008 1011.91 678.556C1023.62 663.924 1037.07 652.066 1051.9 643.312C1068.46 633.531 1087.23 627.326 1107.7 624.869C1125.4 622.744 1144.11 623.497 1163.32 627.111C1181.61 630.551 1199.95 636.495 1217.83 644.778C1253.01 661.069 1284.13 685.411 1305.44 713.319C1316.84 728.238 1326.13 744.455 1333.07 761.518C1339.65 777.691 1344.17 794.728 1346.48 812.161C1350.85 844.999 1347.4 879.064 1336.49 910.668L1335.31 910.242C1358.53 842.937 1346.99 769.494 1304.44 713.783C1259.25 654.619 1176.65 617.656 1108.04 625.896C1040.08 634.058 994.348 682.087 968.246 772.727C966.18 779.896 964.151 788.96 962.002 798.556C955.672 826.809 947.796 861.973 931.401 887.865C922.471 901.967 911.743 911.908 899.516 917.413C892.639 920.507 885.115 922.289 877.15 922.705C868.673 923.147 859.449 922.058 849.73 919.468C845.757 918.41 841.804 917.11 837.871 915.567C823.538 909.944 809.402 901.07 794.966 888.665C778.702 874.688 764.242 858.055 752.623 844.69C723.483 811.17 696.972 775.912 673.826 739.894C653.771 708.686 638.356 675.361 623.447 643.134C606.359 606.197 588.69 568 564.021 533.073C534.461 491.221 492.717 463.343 439.947 450.217C333.202 423.666 196.791 463.741 115.221 512.212C90.1695 527.097 68.6027 545.227 47.7448 562.759C40.1042 569.182 32.2045 575.824 24.1951 582.259C7.95185 595.308 -6.29729 603.625 -20.646 608.428C-29.6017 611.425 -38.6617 613.004 -47.5736 613.119C-57.4827 613.246 -67.565 611.574 -77.5414 608.147C-79.1514 607.591 -80.7608 606.998 -82.3593 606.371Z" fill="white" fill-opacity="0.5"/>
</g>
</svg>
