<svg width="1333" height="2074" viewBox="0 0 1333 2074" fill="none" xmlns="http://www.w3.org/2000/svg">
<g opacity="0.3">
<ellipse rx="7.62337" ry="9.34234" transform="matrix(-1 0 0 1 94.7477 1295.92)" fill="#E77E42"/>
<ellipse cx="1218.65" cy="182.843" rx="7.62337" ry="9.34234" fill="#1BEAFF"/>
<ellipse rx="7.62337" ry="9.34234" transform="matrix(-1 0 0 1 277.708 738.045)" fill="#E77E42"/>
<ellipse cx="1166.38" cy="1805.74" rx="7.62337" ry="9.34234" fill="#E77E42"/>
<ellipse cx="780.851" cy="161.489" rx="5.44526" ry="6.6731" fill="white"/>
<ellipse rx="5.44526" ry="6.6731" transform="matrix(-1 0 0 1 1157.66 681.991)" fill="white"/>
<ellipse cx="286.421" cy="1749.69" rx="5.44526" ry="6.6731" fill="white"/>
<ellipse cx="1079.25" cy="140.135" rx="5.44526" ry="6.6731" fill="white"/>
<ellipse rx="5.44526" ry="6.6731" transform="matrix(-1 0 0 1 504.231 628.606)" fill="white"/>
<ellipse cx="1144.59" cy="399.052" rx="5.44526" ry="6.6731" fill="white"/>
<ellipse rx="5.44526" ry="6.6731" transform="matrix(-1 0 0 1 46.8292 863.499)" fill="white"/>
<ellipse cx="981.236" cy="356.343" rx="7.62337" ry="9.34234" fill="#E77E42"/>
<ellipse rx="7.62337" ry="9.34234" transform="matrix(-1 0 0 1 558.684 1661.6)" fill="#E77E42"/>
<ellipse cx="75.1444" cy="431.083" rx="7.62337" ry="9.34234" fill="#1BEAFF"/>
<ellipse cx="62.076" cy="2005.93" rx="7.62337" ry="9.34234" fill="#1BEAFF"/>
<ellipse cx="979.058" cy="575.221" rx="5.44526" ry="6.6731" fill="#1BEAFF"/>
<ellipse cx="494.43" cy="165.493" rx="2.1781" ry="2.66924" fill="white"/>
<ellipse rx="2.1781" ry="2.66924" transform="matrix(-1 0 0 1 1136.97 864.834)" fill="white"/>
<ellipse cx="307.113" cy="1932.53" rx="2.1781" ry="2.66924" fill="white"/>
<ellipse cx="949.654" cy="2.66924" rx="2.1781" ry="2.66924" fill="white"/>
<ellipse rx="2.1781" ry="2.66924" transform="matrix(-1 0 0 1 1295.97 1070.37)" fill="white"/>
<ellipse cx="1141.33" cy="1913.85" rx="2.1781" ry="2.66924" fill="white"/>
<ellipse rx="2.1781" ry="2.66924" transform="matrix(-1 0 0 1 1276.37 936.903)" fill="white"/>
<ellipse rx="2.1781" ry="2.66924" transform="matrix(-1 0 0 1 1043.31 1556.17)" fill="white"/>
<ellipse cx="716.597" cy="592.572" rx="2.1781" ry="2.66924" fill="white"/>
<ellipse rx="2.1781" ry="2.66924" transform="matrix(-1 0 0 1 980.147 1660.27)" fill="white"/>
<ellipse cx="749.268" cy="563.21" rx="2.1781" ry="2.66924" fill="white"/>
<ellipse rx="2.1781" ry="2.66924" transform="matrix(-1 0 0 1 947.475 1630.91)" fill="white"/>
<ellipse cx="276.619" cy="338.993" rx="2.1781" ry="2.66924" fill="white"/>
<ellipse rx="2.1781" ry="2.66924" transform="matrix(-1 0 0 1 1263.3 1406.69)" fill="white"/>
<ellipse rx="2.1781" ry="2.66924" transform="matrix(-1 0 0 1 285.331 1366.65)" fill="white"/>
<ellipse rx="2.1781" ry="2.66924" transform="matrix(-1 0 0 1 2.1781 1510.79)" fill="white"/>
<ellipse rx="2.1781" ry="2.66924" transform="matrix(-1 0 0 1 727.487 688.664)" fill="white"/>
<ellipse cx="1023.71" cy="483.133" rx="2.1781" ry="2.66924" fill="white"/>
<ellipse rx="2.1781" ry="2.66924" transform="matrix(-1 0 0 1 546.704 1550.83)" fill="white"/>
<ellipse rx="2.1781" ry="2.66924" transform="matrix(-1 0 0 1 531.457 1014.31)" fill="white"/>
<ellipse rx="2.1781" ry="2.66924" transform="matrix(-1 0 0 1 725.309 1003.63)" fill="white"/>
<ellipse cx="971.435" cy="2071.33" rx="2.1781" ry="2.66924" fill="white"/>
<ellipse rx="2.1781" ry="2.66924" transform="matrix(-1 0 0 1 1069.45 1008.97)" fill="white"/>
<ellipse rx="2.1781" ry="2.66924" transform="matrix(-1 0 0 1 1309.04 848.818)" fill="white"/>
<ellipse rx="2.1781" ry="2.66924" transform="matrix(-1 0 0 1 1330.82 800.772)" fill="white"/>
<ellipse rx="2.1781" ry="2.66924" transform="matrix(-1 0 0 1 529.279 878.18)" fill="white"/>
<ellipse rx="2.1781" ry="2.66924" transform="matrix(-1 0 0 1 997.572 883.519)" fill="white"/>
<ellipse cx="280.975" cy="120.116" rx="2.1781" ry="2.66924" fill="white"/>
<ellipse cx="276.619" cy="493.81" rx="2.1781" ry="2.66924" fill="white"/>
<ellipse rx="2.1781" ry="2.66924" transform="matrix(-1 0 0 1 1167.46 1561.51)" fill="white"/>
<ellipse rx="2.1781" ry="2.66924" transform="matrix(-1 0 0 1 1032.42 1059.69)" fill="white"/>
<ellipse cx="304.935" cy="2071.33" rx="2.1781" ry="2.66924" fill="white"/>
<ellipse cx="298.401" cy="1873.81" rx="2.1781" ry="2.66924" fill="white"/>
<ellipse rx="2.1781" ry="2.66924" transform="matrix(-1 0 0 1 1206.67 734.041)" fill="white"/>
<ellipse cx="988.86" cy="93.4231" rx="2.1781" ry="2.66924" fill="white"/>
<ellipse cx="1075.98" cy="264.255" rx="2.1781" ry="2.66924" fill="white"/>
<ellipse rx="2.1781" ry="2.66924" transform="matrix(-1 0 0 1 540.17 1350.64)" fill="white"/>
<ellipse rx="2.1781" ry="2.66924" transform="matrix(-1 0 0 1 507.498 752.726)" fill="white"/>
<ellipse cx="1062.91" cy="1820.42" rx="2.1781" ry="2.66924" fill="white"/>
<ellipse cx="1148.95" cy="529.844" rx="5.44526" ry="6.6731" fill="white"/>
<ellipse rx="5.44526" ry="6.6731" transform="matrix(-1 0 0 1 253.749 1586.86)" fill="white"/>
<ellipse cx="705.706" cy="269.593" rx="2.1781" ry="2.66924" fill="white"/>
<ellipse rx="2.1781" ry="2.66924" transform="matrix(-1 0 0 1 991.038 1337.29)" fill="white"/>
<ellipse rx="2.1781" ry="2.66924" transform="matrix(-1 0 0 1 982.325 715.357)" fill="white"/>
<ellipse cx="795.008" cy="381.701" rx="2.1781" ry="2.66924" fill="white"/>
<ellipse rx="2.1781" ry="2.66924" transform="matrix(-1 0 0 1 788.474 1449.4)" fill="white"/>
<ellipse rx="2.1781" ry="2.66924" transform="matrix(-1 0 0 1 801.543 870.173)" fill="white"/>
<ellipse cx="781.939" cy="1937.87" rx="2.1781" ry="2.66924" fill="white"/>
<ellipse cx="1256.77" cy="42.7078" rx="2.1781" ry="2.66924" fill="white"/>
<ellipse cx="1304.68" cy="232.224" rx="2.1781" ry="2.66924" fill="white"/>
<ellipse cx="1278.55" cy="1788.39" rx="2.1781" ry="2.66924" fill="white"/>
<ellipse rx="2.1781" ry="2.66924" transform="matrix(-1 0 0 1 999.75 1249.2)" fill="white"/>
<ellipse cx="1152.22" cy="154.816" rx="2.1781" ry="2.66924" fill="white"/>
<ellipse rx="2.1781" ry="2.66924" transform="matrix(-1 0 0 1 104.549 597.91)" fill="white"/>
<ellipse cx="1226.27" cy="2065.99" rx="2.1781" ry="2.66924" fill="white"/>
<ellipse cx="1193.6" cy="437.756" rx="2.1781" ry="2.66924" fill="white"/>
<ellipse cx="577.198" cy="74.7386" rx="2.1781" ry="2.66924" fill="white"/>
<ellipse cx="555.417" cy="389.709" rx="2.1781" ry="2.66924" fill="white"/>
<ellipse rx="2.1781" ry="2.66924" transform="matrix(-1 0 0 1 1015 1457.41)" fill="white"/>
<ellipse cx="1123.9" cy="8.00811" rx="2.1781" ry="2.66924" fill="white"/>
<ellipse cx="1228.45" cy="344.332" rx="2.1781" ry="2.66924" fill="white"/>
<ellipse rx="2.1781" ry="2.66924" transform="matrix(-1 0 0 1 326.716 1481.43)" fill="white"/>
<ellipse rx="2.1781" ry="2.66924" transform="matrix(-1 0 0 1 102.371 832.803)" fill="white"/>
</g>
</svg>
