<svg width="1070" height="1333" viewBox="0 0 1070 1333" fill="none" xmlns="http://www.w3.org/2000/svg">
<g opacity="0.3">
<ellipse rx="6.11928" ry="6.0045" transform="matrix(-1 0 0 1 76.0541 832.911)" fill="#E77E42"/>
<ellipse cx="978.211" cy="117.517" rx="6.11928" ry="6.0045" fill="#1BEAFF"/>
<ellipse rx="6.11928" ry="6.0045" transform="matrix(-1 0 0 1 222.917 474.356)" fill="#E77E42"/>
<ellipse cx="936.25" cy="1160.58" rx="6.11928" ry="6.0045" fill="#E77E42"/>
<ellipse cx="626.789" cy="103.792" rx="4.37091" ry="4.28893" fill="white"/>
<ellipse rx="4.37091" ry="4.28893" transform="matrix(-1 0 0 1 929.257 438.329)" fill="white"/>
<ellipse cx="229.91" cy="1124.56" rx="4.37091" ry="4.28893" fill="white"/>
<ellipse cx="866.315" cy="90.0677" rx="4.37091" ry="4.28893" fill="white"/>
<ellipse rx="4.37091" ry="4.28893" transform="matrix(-1 0 0 1 404.747 404.017)" fill="white"/>
<ellipse cx="918.766" cy="256.478" rx="4.37091" ry="4.28893" fill="white"/>
<ellipse rx="4.37091" ry="4.28893" transform="matrix(-1 0 0 1 37.5898 554.988)" fill="white"/>
<ellipse cx="787.639" cy="229.029" rx="6.11928" ry="6.0045" fill="#E77E42"/>
<ellipse rx="6.11928" ry="6.0045" transform="matrix(-1 0 0 1 448.456 1067.94)" fill="#E77E42"/>
<ellipse cx="60.3185" cy="277.065" rx="6.11928" ry="6.0045" fill="#1BEAFF"/>
<ellipse cx="49.8285" cy="1289.25" rx="6.11928" ry="6.0045" fill="#1BEAFF"/>
<ellipse cx="785.89" cy="369.706" rx="4.37091" ry="4.28893" fill="#1BEAFF"/>
<ellipse cx="396.879" cy="106.365" rx="1.74837" ry="1.71557" fill="white"/>
<ellipse rx="1.74837" ry="1.71557" transform="matrix(-1 0 0 1 912.647 555.845)" fill="white"/>
<ellipse cx="246.52" cy="1242.07" rx="1.74837" ry="1.71557" fill="white"/>
<ellipse cx="762.287" cy="1.71557" rx="1.74837" ry="1.71557" fill="white"/>
<ellipse rx="1.74837" ry="1.71557" transform="matrix(-1 0 0 1 1040.28 687.945)" fill="white"/>
<ellipse cx="916.143" cy="1230.07" rx="1.74837" ry="1.71557" fill="white"/>
<ellipse rx="1.74837" ry="1.71557" transform="matrix(-1 0 0 1 1024.54 602.166)" fill="white"/>
<ellipse rx="1.74837" ry="1.71557" transform="matrix(-1 0 0 1 837.467 1000.18)" fill="white"/>
<ellipse cx="575.213" cy="380.857" rx="1.74837" ry="1.71557" fill="white"/>
<ellipse rx="1.74837" ry="1.71557" transform="matrix(-1 0 0 1 786.765 1067.09)" fill="white"/>
<ellipse cx="601.438" cy="361.986" rx="1.74837" ry="1.71557" fill="white"/>
<ellipse rx="1.74837" ry="1.71557" transform="matrix(-1 0 0 1 760.539 1048.21)" fill="white"/>
<ellipse cx="222.043" cy="217.878" rx="1.74837" ry="1.71557" fill="white"/>
<ellipse rx="1.74837" ry="1.71557" transform="matrix(-1 0 0 1 1014.05 904.107)" fill="white"/>
<ellipse rx="1.74837" ry="1.71557" transform="matrix(-1 0 0 1 229.036 878.373)" fill="white"/>
<ellipse rx="1.74837" ry="1.71557" transform="matrix(-1 0 0 1 1.74846 971.014)" fill="white"/>
<ellipse rx="1.74837" ry="1.71557" transform="matrix(-1 0 0 1 583.954 442.618)" fill="white"/>
<ellipse cx="821.732" cy="310.519" rx="1.74837" ry="1.71557" fill="white"/>
<ellipse rx="1.74837" ry="1.71557" transform="matrix(-1 0 0 1 438.84 996.748)" fill="white"/>
<ellipse rx="1.74837" ry="1.71557" transform="matrix(-1 0 0 1 426.601 651.918)" fill="white"/>
<ellipse rx="1.74837" ry="1.71557" transform="matrix(-1 0 0 1 582.206 645.055)" fill="white"/>
<ellipse cx="779.771" cy="1331.28" rx="1.74837" ry="1.71557" fill="white"/>
<ellipse rx="1.74837" ry="1.71557" transform="matrix(-1 0 0 1 858.448 648.486)" fill="white"/>
<ellipse rx="1.74837" ry="1.71557" transform="matrix(-1 0 0 1 1050.77 545.552)" fill="white"/>
<ellipse rx="1.74837" ry="1.71557" transform="matrix(-1 0 0 1 1068.25 514.672)" fill="white"/>
<ellipse rx="1.74837" ry="1.71557" transform="matrix(-1 0 0 1 424.853 564.424)" fill="white"/>
<ellipse rx="1.74837" ry="1.71557" transform="matrix(-1 0 0 1 800.752 567.854)" fill="white"/>
<ellipse cx="225.539" cy="77.2007" rx="1.74837" ry="1.71557" fill="white"/>
<ellipse cx="222.043" cy="317.381" rx="1.74837" ry="1.71557" fill="white"/>
<ellipse rx="1.74837" ry="1.71557" transform="matrix(-1 0 0 1 937.124 1003.61)" fill="white"/>
<ellipse rx="1.74837" ry="1.71557" transform="matrix(-1 0 0 1 828.725 681.082)" fill="white"/>
<ellipse cx="244.771" cy="1331.28" rx="1.74837" ry="1.71557" fill="white"/>
<ellipse cx="239.526" cy="1204.33" rx="1.74837" ry="1.71557" fill="white"/>
<ellipse rx="1.74837" ry="1.71557" transform="matrix(-1 0 0 1 968.595 471.783)" fill="white"/>
<ellipse cx="793.758" cy="60.0449" rx="1.74837" ry="1.71557" fill="white"/>
<ellipse cx="863.693" cy="169.842" rx="1.74837" ry="1.71557" fill="white"/>
<ellipse rx="1.74837" ry="1.71557" transform="matrix(-1 0 0 1 433.595 868.08)" fill="white"/>
<ellipse rx="1.74837" ry="1.71557" transform="matrix(-1 0 0 1 407.369 483.792)" fill="white"/>
<ellipse cx="853.202" cy="1170.02" rx="1.74837" ry="1.71557" fill="white"/>
<ellipse cx="922.263" cy="340.541" rx="4.37091" ry="4.28893" fill="white"/>
<ellipse rx="4.37091" ry="4.28893" transform="matrix(-1 0 0 1 203.685 1019.91)" fill="white"/>
<ellipse cx="566.47" cy="173.273" rx="1.74837" ry="1.71557" fill="white"/>
<ellipse rx="1.74837" ry="1.71557" transform="matrix(-1 0 0 1 795.507 859.502)" fill="white"/>
<ellipse rx="1.74837" ry="1.71557" transform="matrix(-1 0 0 1 788.513 459.773)" fill="white"/>
<ellipse cx="638.154" cy="245.327" rx="1.74837" ry="1.71557" fill="white"/>
<ellipse rx="1.74837" ry="1.71557" transform="matrix(-1 0 0 1 632.908 931.556)" fill="white"/>
<ellipse rx="1.74837" ry="1.71557" transform="matrix(-1 0 0 1 643.399 559.277)" fill="white"/>
<ellipse cx="627.663" cy="1245.51" rx="1.74837" ry="1.71557" fill="white"/>
<ellipse cx="1008.81" cy="27.4492" rx="1.74837" ry="1.71557" fill="white"/>
<ellipse cx="1047.27" cy="149.255" rx="1.74837" ry="1.71557" fill="white"/>
<ellipse cx="1026.29" cy="1149.43" rx="1.74837" ry="1.71557" fill="white"/>
<ellipse rx="1.74837" ry="1.71557" transform="matrix(-1 0 0 1 802.5 802.888)" fill="white"/>
<ellipse cx="924.886" cy="99.5032" rx="1.74837" ry="1.71557" fill="white"/>
<ellipse rx="1.74837" ry="1.71557" transform="matrix(-1 0 0 1 83.9216 384.288)" fill="white"/>
<ellipse cx="984.33" cy="1327.85" rx="1.74837" ry="1.71557" fill="white"/>
<ellipse cx="958.105" cy="281.354" rx="1.74837" ry="1.71557" fill="white"/>
<ellipse cx="463.317" cy="48.0361" rx="1.74837" ry="1.71557" fill="white"/>
<ellipse cx="445.834" cy="250.474" rx="1.74837" ry="1.71557" fill="white"/>
<ellipse rx="1.74837" ry="1.71557" transform="matrix(-1 0 0 1 814.738 936.703)" fill="white"/>
<ellipse cx="902.157" cy="5.14673" rx="1.74837" ry="1.71557" fill="white"/>
<ellipse cx="986.078" cy="221.309" rx="1.74837" ry="1.71557" fill="white"/>
<ellipse rx="1.74837" ry="1.71557" transform="matrix(-1 0 0 1 262.255 952.143)" fill="white"/>
<ellipse rx="1.74837" ry="1.71557" transform="matrix(-1 0 0 1 82.1733 535.259)" fill="white"/>
</g>
</svg>
