<svg width="1334" height="1353" viewBox="0 0 1334 1353" fill="none" xmlns="http://www.w3.org/2000/svg">
<g opacity="0.2">
<ellipse rx="7.62908" ry="6.09459" transform="matrix(-1 0 0 1 94.8187 845.407)" fill="#E77E42"/>
<ellipse cx="1219.56" cy="119.28" rx="7.62908" ry="6.09459" fill="#1BEAFF"/>
<ellipse rx="7.62908" ry="6.09459" transform="matrix(-1 0 0 1 277.917 481.473)" fill="#E77E42"/>
<ellipse cx="1167.25" cy="1178" rx="7.62908" ry="6.09459" fill="#E77E42"/>
<ellipse cx="781.437" cy="105.349" rx="5.44935" ry="4.35328" fill="white"/>
<ellipse rx="5.44935" ry="4.35328" transform="matrix(-1 0 0 1 1158.53 444.905)" fill="white"/>
<ellipse cx="286.636" cy="1141.43" rx="5.44935" ry="4.35328" fill="white"/>
<ellipse cx="1080.06" cy="91.4189" rx="5.44935" ry="4.35328" fill="white"/>
<ellipse rx="5.44935" ry="4.35328" transform="matrix(-1 0 0 1 504.609 410.079)" fill="white"/>
<ellipse cx="1145.45" cy="260.326" rx="5.44935" ry="4.35328" fill="white"/>
<ellipse rx="5.44935" ry="4.35328" transform="matrix(-1 0 0 1 46.8644 563.315)" fill="white"/>
<ellipse cx="981.972" cy="232.465" rx="7.62908" ry="6.09459" fill="#E77E42"/>
<ellipse rx="7.62908" ry="6.09459" transform="matrix(-1 0 0 1 559.103 1083.97)" fill="#E77E42"/>
<ellipse cx="75.2009" cy="281.222" rx="7.62908" ry="6.09459" fill="#1BEAFF"/>
<ellipse cx="979.793" cy="375.253" rx="5.44935" ry="4.35328" fill="#1BEAFF"/>
<ellipse cx="494.801" cy="107.961" rx="2.17974" ry="1.74131" fill="white"/>
<ellipse rx="2.17974" ry="1.74131" transform="matrix(-1 0 0 1 1137.82 564.185)" fill="white"/>
<ellipse cx="307.343" cy="1260.71" rx="2.17974" ry="1.74131" fill="white"/>
<ellipse cx="950.366" cy="1.74131" rx="2.17974" ry="1.74131" fill="white"/>
<ellipse rx="2.17974" ry="1.74131" transform="matrix(-1 0 0 1 1296.94 698.266)" fill="white"/>
<ellipse cx="1142.18" cy="1248.52" rx="2.17974" ry="1.74131" fill="white"/>
<ellipse rx="2.17974" ry="1.74131" transform="matrix(-1 0 0 1 1277.33 611.201)" fill="white"/>
<ellipse rx="2.17974" ry="1.74131" transform="matrix(-1 0 0 1 1044.1 1015.19)" fill="white"/>
<ellipse cx="717.134" cy="386.571" rx="2.17974" ry="1.74131" fill="white"/>
<ellipse rx="2.17974" ry="1.74131" transform="matrix(-1 0 0 1 980.882 1083.1)" fill="white"/>
<ellipse cx="749.83" cy="367.417" rx="2.17974" ry="1.74131" fill="white"/>
<ellipse rx="2.17974" ry="1.74131" transform="matrix(-1 0 0 1 948.186 1063.94)" fill="white"/>
<ellipse cx="276.827" cy="221.147" rx="2.17974" ry="1.74131" fill="white"/>
<ellipse rx="2.17974" ry="1.74131" transform="matrix(-1 0 0 1 1264.25 917.672)" fill="white"/>
<ellipse rx="2.17974" ry="1.74131" transform="matrix(-1 0 0 1 285.546 891.552)" fill="white"/>
<ellipse rx="2.17974" ry="1.74131" transform="matrix(-1 0 0 1 2.17964 985.583)" fill="white"/>
<ellipse rx="2.17974" ry="1.74131" transform="matrix(-1 0 0 1 728.033 449.259)" fill="white"/>
<ellipse cx="1024.48" cy="315.178" rx="2.17974" ry="1.74131" fill="white"/>
<ellipse rx="2.17974" ry="1.74131" transform="matrix(-1 0 0 1 547.114 1011.7)" fill="white"/>
<ellipse rx="2.17974" ry="1.74131" transform="matrix(-1 0 0 1 531.856 661.699)" fill="white"/>
<ellipse rx="2.17974" ry="1.74131" transform="matrix(-1 0 0 1 725.853 654.734)" fill="white"/>
<ellipse cx="972.164" cy="1351.26" rx="2.17974" ry="1.74131" fill="white"/>
<ellipse rx="2.17974" ry="1.74131" transform="matrix(-1 0 0 1 1070.25 658.216)" fill="white"/>
<ellipse rx="2.17974" ry="1.74131" transform="matrix(-1 0 0 1 1310.02 553.737)" fill="white"/>
<ellipse rx="2.17974" ry="1.74131" transform="matrix(-1 0 0 1 1331.82 522.394)" fill="white"/>
<ellipse rx="2.17974" ry="1.74131" transform="matrix(-1 0 0 1 529.676 572.892)" fill="white"/>
<ellipse rx="2.17974" ry="1.74131" transform="matrix(-1 0 0 1 998.32 576.374)" fill="white"/>
<ellipse cx="281.186" cy="78.3591" rx="2.17974" ry="1.74131" fill="white"/>
<ellipse cx="276.827" cy="322.143" rx="2.17974" ry="1.74131" fill="white"/>
<ellipse rx="2.17974" ry="1.74131" transform="matrix(-1 0 0 1 1168.34 1018.67)" fill="white"/>
<ellipse rx="2.17974" ry="1.74131" transform="matrix(-1 0 0 1 1033.2 691.301)" fill="white"/>
<ellipse cx="305.163" cy="1351.26" rx="2.17974" ry="1.74131" fill="white"/>
<ellipse cx="298.624" cy="1222.4" rx="2.17974" ry="1.74131" fill="white"/>
<ellipse rx="2.17974" ry="1.74131" transform="matrix(-1 0 0 1 1207.58 478.861)" fill="white"/>
<ellipse cx="989.602" cy="60.9459" rx="2.17974" ry="1.74131" fill="white"/>
<ellipse cx="1076.79" cy="172.39" rx="2.17974" ry="1.74131" fill="white"/>
<ellipse rx="2.17974" ry="1.74131" transform="matrix(-1 0 0 1 540.575 881.104)" fill="white"/>
<ellipse rx="2.17974" ry="1.74131" transform="matrix(-1 0 0 1 507.879 491.05)" fill="white"/>
<ellipse cx="1063.71" cy="1187.58" rx="2.17974" ry="1.74131" fill="white"/>
<ellipse cx="1149.81" cy="345.651" rx="5.44935" ry="4.35328" fill="white"/>
<ellipse rx="5.44935" ry="4.35328" transform="matrix(-1 0 0 1 253.939 1035.21)" fill="white"/>
<ellipse cx="706.235" cy="175.873" rx="2.17974" ry="1.74131" fill="white"/>
<ellipse rx="2.17974" ry="1.74131" transform="matrix(-1 0 0 1 991.781 872.398)" fill="white"/>
<ellipse rx="2.17974" ry="1.74131" transform="matrix(-1 0 0 1 983.062 466.672)" fill="white"/>
<ellipse cx="795.605" cy="249.008" rx="2.17974" ry="1.74131" fill="white"/>
<ellipse rx="2.17974" ry="1.74131" transform="matrix(-1 0 0 1 789.065 945.533)" fill="white"/>
<ellipse rx="2.17974" ry="1.74131" transform="matrix(-1 0 0 1 802.144 567.668)" fill="white"/>
<ellipse cx="782.526" cy="1264.19" rx="2.17974" ry="1.74131" fill="white"/>
<ellipse cx="1257.71" cy="27.861" rx="2.17974" ry="1.74131" fill="white"/>
<ellipse cx="1305.66" cy="151.494" rx="2.17974" ry="1.74131" fill="white"/>
<ellipse cx="1279.51" cy="1166.68" rx="2.17974" ry="1.74131" fill="white"/>
<ellipse rx="2.17974" ry="1.74131" transform="matrix(-1 0 0 1 1000.5 814.934)" fill="white"/>
<ellipse cx="1153.08" cy="100.996" rx="2.17974" ry="1.74131" fill="white"/>
<ellipse rx="2.17974" ry="1.74131" transform="matrix(-1 0 0 1 104.627 390.054)" fill="white"/>
<ellipse cx="1227.19" cy="1347.78" rx="2.17974" ry="1.74131" fill="white"/>
<ellipse cx="1194.5" cy="285.575" rx="2.17974" ry="1.74131" fill="white"/>
<ellipse cx="577.631" cy="48.7567" rx="2.17974" ry="1.74131" fill="white"/>
<ellipse cx="555.834" cy="254.232" rx="2.17974" ry="1.74131" fill="white"/>
<ellipse rx="2.17974" ry="1.74131" transform="matrix(-1 0 0 1 1015.76 950.757)" fill="white"/>
<ellipse cx="1124.74" cy="5.22398" rx="2.17974" ry="1.74131" fill="white"/>
<ellipse cx="1229.37" cy="224.629" rx="2.17974" ry="1.74131" fill="white"/>
<ellipse rx="2.17974" ry="1.74131" transform="matrix(-1 0 0 1 326.961 966.429)" fill="white"/>
<ellipse rx="2.17974" ry="1.74131" transform="matrix(-1 0 0 1 102.448 543.29)" fill="white"/>
</g>
</svg>
