<svg width="1563" height="623" viewBox="0 0 1563 623" fill="none" xmlns="http://www.w3.org/2000/svg">
<path d="M591.76 623.163C584.388 623.163 577.213 622.654 570.317 621.638C555.856 619.507 542.495 615.13 530.605 608.63C517.826 601.646 506.618 592.128 497.29 580.344C478.542 556.657 469.162 528.291 460.09 500.858C458.308 495.471 456.466 489.901 454.595 484.496C441.83 447.661 425.649 415.395 405.129 385.855C364.197 326.928 306.632 276.638 238.655 240.422C160.041 198.541 75.518 177.678 0.653992 181.678C-43.3473 184.031 -101.485 206.398 -127.468 244.598C-142.888 267.269 -144.132 292.428 -131.062 317.351L-131.321 317.456C-138.174 304.385 -141.16 291.281 -140.193 278.509C-139.306 266.792 -135.108 255.339 -127.714 244.467C-115.953 227.176 -96.5571 211.85 -71.6234 200.146C-48.5833 189.332 -22.9223 182.684 0.636871 181.425C39.8156 179.333 81.4841 183.975 124.484 195.226C163.463 205.425 201.926 220.558 238.804 240.204C306.82 276.44 364.419 326.758 405.375 385.72C425.905 415.28 442.095 447.563 454.869 484.419C456.742 489.823 458.585 495.396 460.364 500.782C469.427 528.196 478.801 556.542 497.524 580.194C515.63 603.07 540.139 616.929 570.366 621.383C612.225 627.552 663.057 614.649 706.337 586.864C768.707 546.827 811.992 488.549 853.854 432.193C861.192 422.314 868.778 412.1 876.29 402.236C895.791 376.624 922.202 343.435 953.589 313.867C985.673 283.645 1018.28 261.44 1053.26 245.982C1074.68 236.52 1097.37 230.145 1120.72 227.035C1142.28 224.161 1165.1 223.983 1188.55 226.501C1228.78 230.822 1272.12 243.028 1321.04 263.813C1417.38 304.744 1513.61 354.424 1607.07 411.478C1695.89 465.705 1783.01 527.067 1866 593.854L1865.81 594.039C1693.78 455.593 1510.45 344.566 1320.92 264.039C1213.84 218.544 1128.83 212.876 1053.39 246.205C976.644 280.111 923.032 341.301 876.527 402.374C869.018 412.235 861.432 422.45 854.094 432.328C812.22 488.705 768.92 547 706.508 587.065C686.339 600.013 663.65 610.112 640.895 616.269C628.875 619.522 616.925 621.648 605.375 622.591C600.772 622.975 596.229 623.163 591.76 623.163Z" fill="white" fill-opacity="0.5"/>
<path d="M598.967 609.117C580.168 609.117 562.755 605.97 547.192 599.758C529.838 592.831 514.863 582.097 502.68 567.858C501.602 566.596 500.533 565.292 499.5 563.978C480.952 540.394 471.156 512.397 461.685 485.319C459.768 479.847 457.789 474.187 455.782 468.695C443.824 435.992 429.425 407.17 411.757 380.584C409.581 377.311 407.329 374.031 405.056 370.836C363.521 312.415 305.489 262.762 237.233 227.244C158.051 186.077 73.2881 166.077 -1.44191 170.93C-45.1238 173.796 -102.994 196.53 -129.088 234.436C-144.713 257.135 -146.481 282.344 -134.207 307.339L-134.469 307.44C-140.903 294.339 -143.547 281.21 -142.323 268.423C-141.2 256.678 -136.831 245.2 -129.333 234.306C-117.452 217.044 -98.1141 201.701 -73.4141 189.937C-50.5851 179.063 -25.0353 172.224 -1.46758 170.679C37.6627 168.139 79.3768 172.337 122.514 183.156C161.587 192.956 200.233 207.718 237.375 227.028C305.671 262.567 363.735 312.25 405.295 370.703C407.568 373.9 409.824 377.183 412 380.458C429.679 407.062 444.086 435.9 456.05 468.619C458.06 474.112 460.039 479.772 461.956 485.247C471.424 512.306 481.211 540.284 499.734 563.835C500.764 565.144 501.833 566.448 502.908 567.707C528.085 597.142 562.678 609.117 599.056 609.117C599.255 609.117 599.452 609.117 599.652 609.117C599.424 609.114 599.195 609.117 598.967 609.117ZM606.727 608.941C640.547 607.414 675.446 595.986 705.384 578.985C769.965 542.162 816.378 485.289 861.267 430.289C863.115 428.022 864.963 425.76 866.811 423.498C870.869 418.533 875.68 412.654 880.591 406.728C902.621 380.152 929.283 349.231 959.989 321.399C992.66 291.783 1025.3 269.807 1059.77 254.211C1080.95 244.638 1103.33 237.895 1126.3 234.168C1147.58 230.715 1170.07 229.739 1193.13 231.266C1232.97 233.907 1275.81 243.918 1324.1 261.875C1371.18 279.354 1409.88 295.808 1445.89 313.657C1496.9 338.966 1545.49 368.127 1586.3 393.314C1681.17 452.038 1774.26 518.719 1862.97 591.507L1862.78 591.69C1774.07 518.912 1681 452.236 1586.14 393.519C1545.34 368.335 1496.75 339.179 1445.75 313.877C1409.75 296.034 1371.06 279.585 1323.99 262.11C1218.8 222.993 1134.88 220.553 1059.9 254.436C982.08 289.642 926.66 351.583 880.822 406.879C875.908 412.805 871.1 418.681 867.042 423.649C865.194 425.908 863.346 428.173 861.498 430.44C816.595 485.457 770.164 542.35 705.538 579.201C689.514 588.299 672.462 595.527 654.855 600.68C638.466 605.473 622.31 608.244 606.727 608.941Z" fill="white" fill-opacity="0.5"/>
<path d="M606.914 595.392C604.653 595.392 602.405 595.349 600.175 595.261C581.393 594.532 564.011 590.742 548.514 583.994C531.565 576.613 516.881 565.681 504.872 551.499C503.806 550.236 502.742 548.929 501.715 547.615C483.375 524.146 473.171 496.522 463.306 469.811C461.25 464.244 459.123 458.486 456.967 452.898C444.419 420.306 429.64 391.714 411.782 365.487C409.572 362.244 407.285 358.992 404.977 355.822C362.841 297.91 304.341 248.895 235.806 214.073C156.059 173.621 71.0568 154.481 -3.54196 160.187C-45.5441 163.45 -103.246 184.887 -130.68 224.24C-146.531 246.976 -148.838 272.253 -137.354 297.336L-137.619 297.429C-143.636 284.288 -145.932 271.129 -144.449 258.319C-143.086 246.537 -138.534 235.029 -130.923 224.109C-118.917 206.888 -99.6409 191.54 -75.1777 179.72C-52.5625 168.794 -27.1297 161.769 -3.56764 159.939C35.517 156.952 77.2767 160.703 120.548 171.091C159.718 180.495 198.543 194.883 235.948 213.857C304.524 248.701 363.055 297.745 405.217 355.689C407.524 358.861 409.814 362.114 412.024 365.362C429.891 391.604 444.678 420.213 457.232 452.823C459.388 458.413 461.515 464.171 463.572 469.738C473.433 496.435 483.629 524.038 501.946 547.479C502.973 548.793 504.031 550.098 505.097 551.357C553.896 608.982 640.375 602.795 704.431 571.103C771.706 537.526 821.702 481.719 870.052 427.75L870.548 427.195C875.231 421.964 880.073 416.557 884.893 411.218C935.75 354.891 991.649 297.005 1066.28 262.434C1087.23 252.749 1109.31 245.637 1131.89 241.296C1152.9 237.258 1175.04 235.485 1197.71 236.027C1237.23 236.97 1279.58 244.789 1327.16 259.932C1377.17 275.789 1414.81 290.364 1449.19 307.195C1498.18 331.222 1545.63 361.585 1587.49 388.374C1680.71 448.339 1772.37 515.891 1859.95 589.147L1859.75 589.328C1772.18 516.079 1680.53 448.535 1587.32 388.574C1545.46 361.79 1498.02 331.433 1449.05 307.413C1414.68 290.588 1377.06 276.017 1327.07 260.165C1223.92 227.342 1141.09 228.132 1066.41 262.653C991.829 297.201 935.953 355.062 885.115 411.368C880.296 416.707 875.453 422.117 870.771 427.346L870.274 427.9C846.179 454.794 821.265 482.604 794.361 507.444C764.126 535.359 734.754 556.252 704.567 571.317C672.986 586.94 638.584 595.392 606.914 595.392Z" fill="white" fill-opacity="0.5"/>
<path d="M1856.73 586.963C1770.3 513.242 1680.06 444.83 1588.52 383.629C1584.64 381.056 1580.76 378.47 1576.86 375.877C1537.2 349.489 1496.2 322.204 1452.36 300.947C1409.82 280.383 1366.72 267.809 1330.15 258.221C1229.24 231.593 1147.5 235.613 1072.94 270.868C996.391 307.167 937.078 367.433 889.421 415.86C886.56 418.766 883.706 421.678 880.845 424.592C878.735 426.744 876.622 428.895 874.508 431.045C847.373 458.646 822.69 483.323 795.418 505.841C764.261 531.564 734.231 550.403 703.605 563.437C674.904 575.652 644.244 582.115 615.725 582.118C610.529 582.118 605.41 581.905 600.38 581.471C582.014 579.888 565.011 575.442 549.845 568.254C533.296 560.412 518.902 549.272 507.058 535.143C506 533.877 504.945 532.568 503.924 531.251C485.801 507.905 475.2 480.67 464.951 454.333C462.744 448.66 460.459 442.791 458.149 437.096C445.002 404.607 429.842 376.243 411.807 350.382C409.562 347.165 407.238 343.942 404.899 340.8C362.159 283.397 303.194 235.018 234.381 200.892C154.07 161.155 68.8313 142.88 -5.63631 149.43C-56.5447 153.997 -108.602 180.545 -132.233 213.988C-148.332 236.771 -151.186 262.128 -140.495 287.317L-140.763 287.405C-146.361 274.216 -148.312 261.017 -146.561 248.175C-144.949 236.35 -140.21 224.804 -132.475 213.855C-120.344 196.683 -101.131 181.335 -76.9127 169.473C-54.5142 158.501 -29.2126 151.294 -5.66484 149.182C33.3742 145.746 75.1766 149.054 118.582 159.01C157.846 168.019 196.857 182.035 234.524 200.671C303.379 234.818 362.375 283.224 405.142 340.662C407.483 343.806 409.807 347.032 412.052 350.249C430.098 376.125 445.264 404.504 458.42 437.008C460.73 442.706 463.014 448.572 465.222 454.247C475.466 480.57 486.06 507.788 504.161 531.106C505.182 532.42 506.234 533.726 507.289 534.99C558.232 595.765 644.817 588.174 703.483 563.209C773.476 533.42 827.036 478.945 874.294 430.879C876.408 428.727 878.518 426.576 880.631 424.426C883.489 421.512 886.346 418.601 889.207 415.694C916.411 388.053 943.275 361.191 972.809 336.438C1006.77 307.972 1039.48 286.452 1072.81 270.647C1093.54 260.844 1115.3 253.363 1137.49 248.415C1158.23 243.788 1180.04 241.22 1202.3 240.779C1241.57 240.001 1283.42 245.629 1330.24 257.98C1366.81 267.573 1409.94 280.152 1452.5 300.729C1496.36 321.993 1537.37 349.286 1577.03 375.679C1580.93 378.272 1584.82 380.858 1588.7 383.431C1680.25 444.637 1770.5 513.056 1856.93 586.785L1856.73 586.963Z" fill="white" fill-opacity="0.5"/>
<path d="M1853.71 584.6C1766.79 508.999 1677.97 439.717 1589.71 378.683C1584.43 375.032 1579.02 371.267 1573.8 367.629C1536.38 341.567 1497.69 314.618 1455.66 294.482C1413.7 274.447 1370.23 263.924 1333.24 256.275C1234.77 235.718 1154.13 242.966 1079.46 279.084C1008.23 313.66 952.426 365.652 898.46 415.932L892.534 421.452C887.854 425.813 883.015 430.32 878.244 434.741C824.224 484.733 770.147 531.587 702.641 555.552C686.26 561.368 669.439 565.398 652.642 567.537C634.604 569.832 617.082 569.864 600.561 567.632C582.618 565.207 566 560.114 551.17 552.492C535.032 544.199 520.926 532.856 509.251 518.782C508.198 517.508 507.152 516.196 506.139 514.882C488.238 491.674 477.256 464.84 466.636 438.889C464.266 433.099 461.813 427.11 459.338 421.294C445.58 388.905 430.043 360.77 411.837 335.28C409.561 332.095 407.203 328.897 404.827 325.78C361.485 268.887 302.055 221.145 232.96 187.713C152.082 148.696 66.6033 131.281 -7.73598 138.682C-58.1796 143.81 -110.001 170.544 -133.751 203.695C-150.118 226.537 -153.537 251.991 -143.641 277.308L-143.912 277.391C-149.091 264.145 -150.691 250.896 -148.669 238.015C-146.804 226.141 -141.867 214.549 -133.996 203.565C-121.733 186.451 -102.589 171.118 -78.6273 159.221C-56.4513 148.209 -31.2866 140.828 -7.77019 138.436C31.2232 134.554 73.0684 137.415 116.611 146.94C155.972 155.552 195.162 169.195 233.094 187.494C302.229 220.944 361.693 268.716 405.061 325.642C407.437 328.762 409.798 331.962 412.074 335.147C430.292 360.649 445.837 388.8 459.6 421.206C462.075 427.022 464.528 433.013 466.898 438.804C477.513 464.74 488.489 491.562 506.37 514.742C507.38 516.051 508.427 517.36 509.476 518.634C559.192 578.564 641.799 576.881 702.529 555.321C769.982 531.376 824.036 484.54 878.032 434.571C882.804 430.149 887.643 425.643 892.323 421.282L898.249 415.762C924.74 391.082 952.129 365.56 981.877 341.818C1015.57 314.929 1047.44 294.337 1079.31 278.863C1099.84 268.937 1121.29 261.087 1143.08 255.535C1163.56 250.314 1185.03 246.948 1206.88 245.531C1245.98 242.996 1287.33 246.432 1333.3 256.029C1370.31 263.683 1413.8 274.209 1455.8 294.261C1497.84 314.404 1536.55 341.361 1573.97 367.43C1579.2 371.069 1584.6 374.831 1589.88 378.485C1678.15 439.524 1766.98 508.811 1853.91 584.42L1853.71 584.6Z" fill="white" fill-opacity="0.5"/>
<path d="M1850.69 582.238C1764.51 505.796 1677.1 435.646 1590.9 373.74C1584.42 369.088 1577.77 364.25 1571.35 359.573C1535.95 333.792 1499.35 307.134 1458.97 288.022C1417.2 268.33 1373.53 259.941 1336.32 254.334C1240.59 239.685 1161.04 250.163 1085.97 287.304C1020.47 319.854 966.682 365.983 914.667 410.593C909.195 415.288 903.534 420.14 898.018 424.842C891.542 430.365 886.594 434.56 881.977 438.443C857.248 459.223 827.806 483.15 796.909 503.052C764.167 524.141 733.016 538.737 701.674 547.675C685.193 552.374 668.444 555.339 651.889 556.482C634.113 557.711 616.903 556.808 600.738 553.796C583.225 550.534 566.995 544.793 552.493 536.735C536.768 527.998 522.957 516.452 511.441 502.423C510.403 501.151 509.362 499.837 508.352 498.518C490.688 475.466 479.338 449.046 468.358 423.496C465.811 417.57 463.179 411.443 460.524 405.492C446.148 373.193 430.232 345.288 411.863 320.177C409.553 317.02 407.16 313.852 404.75 310.76C360.806 254.376 300.909 207.271 231.534 174.534C150.094 136.234 64.376 119.684 -9.83209 127.93C-52.0566 132.725 -107.206 154.814 -135.228 193.35C-151.889 216.262 -155.887 241.832 -146.787 267.294L-147.058 267.369C-151.817 254.055 -153.061 240.749 -150.756 227.818C-148.629 215.883 -143.487 204.242 -135.468 193.215C-123.073 176.171 -104 160.863 -80.3042 148.941C-58.3507 137.897 -33.3371 130.348 -9.86632 127.682C29.0815 123.353 70.9723 125.769 114.646 134.862C154.101 143.078 193.474 156.349 231.669 174.313C301.083 207.068 361.014 254.201 404.984 310.617C407.394 313.71 409.79 316.882 412.1 320.042C430.477 345.165 446.402 373.085 460.786 405.399C463.444 411.353 466.077 417.479 468.623 423.405C479.594 448.943 490.942 475.348 508.586 498.375C509.596 499.692 510.634 501.003 511.672 502.272C553.032 552.665 624.029 569.548 701.586 547.431C771.821 527.404 829.115 482.516 881.78 438.257C886.397 434.375 891.342 430.179 897.819 424.657C903.334 419.955 908.995 415.102 914.468 410.407C940.075 388.446 966.551 365.737 994.793 344.473C1026.73 320.426 1056.51 301.652 1085.84 287.081C1106.16 277.025 1127.3 268.806 1148.68 262.657C1168.92 256.831 1190.05 252.671 1211.47 250.286C1250.47 245.947 1291.33 247.189 1336.37 254.08C1373.6 259.693 1417.3 268.084 1459.1 287.793C1499.51 306.918 1536.12 333.584 1571.53 359.372C1577.95 364.05 1584.6 368.887 1591.08 373.539C1677.29 435.453 1764.7 505.608 1850.89 582.055L1850.69 582.238Z" fill="white" fill-opacity="0.5"/>
<path d="M1847.66 579.876C1762.24 502.589 1676.25 431.569 1592.08 368.795C1584.92 363.456 1577.57 357.851 1570.46 352.431C1536.58 326.615 1501.55 299.922 1462.27 281.557C1420.47 262.101 1376.7 255.894 1339.4 252.388C1248.01 243.568 1167.24 257.677 1092.49 295.52C1032.97 325.79 981.945 366.284 932.603 405.447C922.635 413.357 912.332 421.537 902.313 429.334C896.184 434.107 890.755 438.297 885.707 442.144C862.233 460.015 831.008 482.93 797.642 501.656C764.115 520.47 732.405 532.946 700.701 539.795C666.123 547.266 631.612 547.321 600.904 539.958C583.83 535.863 567.985 529.478 553.808 520.979C538.502 511.803 524.984 500.056 513.625 486.07C512.596 484.796 511.564 483.479 510.56 482.16C493.146 459.283 481.442 433.297 470.126 408.168C467.388 402.089 464.559 395.804 461.705 389.698C446.698 357.484 430.403 329.805 411.886 305.083C409.541 301.953 407.114 298.813 404.67 295.749C360.124 239.874 299.762 193.403 230.108 161.365C148.106 123.785 62.1486 108.099 -11.9311 117.19C-62.1351 123.484 -112.262 149.917 -136.663 182.96C-153.643 205.955 -158.231 231.658 -149.932 257.291L-150.206 257.358C-154.544 243.964 -155.428 230.587 -152.836 217.601C-150.44 205.599 -145.078 193.897 -136.902 182.823C-124.377 165.859 -105.378 150.587 -81.9584 138.654C-60.2358 127.587 -35.3791 119.873 -11.9711 116.939C26.9311 112.164 68.8676 114.135 112.675 122.795C152.227 130.614 191.782 143.514 230.24 161.14C299.933 193.198 360.33 239.693 404.904 295.603C407.348 298.668 409.775 301.81 412.122 304.942C430.648 329.68 446.952 357.372 461.967 389.6C464.822 395.707 467.651 401.994 470.389 408.073C481.699 433.189 493.397 459.163 510.794 482.017C511.797 483.336 512.827 484.648 513.856 485.922C554.507 535.988 624.329 556.036 700.633 539.552C770.195 524.522 830.603 483.762 885.518 441.956C890.563 438.109 895.996 433.921 902.122 429.149C912.138 421.352 922.444 413.174 932.409 405.264C981.763 366.094 1032.79 325.59 1092.34 295.307C1112.49 285.108 1133.32 276.523 1154.26 269.787C1174.29 263.347 1195.08 258.389 1216.05 255.051C1255.04 248.844 1295.4 247.894 1339.43 252.142C1376.76 255.651 1420.56 261.86 1462.4 281.338C1501.71 299.716 1536.75 326.42 1570.64 352.245C1577.75 357.665 1585.11 363.268 1592.27 368.607C1676.44 431.386 1762.43 502.411 1847.86 579.703L1847.66 579.876Z" fill="white" fill-opacity="0.5"/>
<path d="M1844.64 577.513C1759.97 499.373 1675.4 427.488 1593.27 363.852C1585.73 358.003 1577.96 351.811 1570.45 345.823C1537.81 319.789 1504.06 292.867 1465.57 275.094C1423.6 255.803 1379.8 251.808 1342.48 250.444C1254.54 246.993 1174.9 264.425 1099.01 303.738C1045.78 331.44 998.335 366.5 952.449 400.404C936.672 412.063 921.768 423.075 906.611 433.826C900.445 438.202 894.83 442.134 889.44 445.843C854.662 469.756 825.727 487.045 798.377 500.251C764.067 516.821 731.801 527.178 699.735 531.913C687.295 533.749 674.901 534.664 662.732 534.664C641.16 534.664 620.288 531.795 601.072 526.112C566.296 515.827 537.612 496.851 515.816 469.708C514.789 468.422 513.765 467.105 512.773 465.791C495.625 443.112 483.593 417.587 471.957 392.9C469.008 386.645 465.963 380.18 462.891 373.893C447.243 341.755 430.565 314.306 411.914 289.978C409.536 286.876 407.075 283.763 404.596 280.726C359.449 225.36 298.619 179.527 228.685 148.184C146.121 111.326 59.927 96.4995 -14.0244 106.436C-64.4366 113.35 -113.118 139.281 -138.04 172.5C-155.365 195.59 -160.561 221.446 -153.072 247.274L-153.349 247.337C-157.259 233.85 -157.778 220.392 -154.889 207.339C-152.214 195.256 -146.627 183.489 -138.277 172.362C-125.62 155.492 -106.704 140.269 -83.5697 128.337C-62.081 117.252 -37.3982 109.387 -14.0672 106.187C24.7893 100.966 66.7714 102.491 110.71 110.719C150.359 118.145 190.094 130.674 228.817 147.958C298.79 179.321 359.654 225.18 404.83 280.578C407.308 283.618 409.77 286.73 412.151 289.835C430.813 314.176 447.5 341.64 463.153 373.79C466.225 380.077 469.273 386.545 472.219 392.8C483.849 417.474 495.876 442.989 513.01 465.648C514.002 466.959 515.023 468.276 516.05 469.56C556.751 520.249 623.684 542.885 699.686 531.662C772.035 520.979 836.116 482.185 889.263 445.643C894.65 441.934 900.266 438.004 906.431 433.628C921.586 422.876 936.49 411.867 952.266 400.208C998.158 366.297 1045.62 331.232 1098.86 303.52C1118.85 293.163 1139.38 284.21 1159.86 276.907C1179.7 269.835 1200.14 264.079 1220.63 259.803C1259.7 251.65 1299.57 248.505 1342.49 250.191C1379.84 251.555 1423.68 255.555 1465.7 274.868C1504.22 292.654 1537.99 319.588 1570.64 345.632C1578.15 351.621 1585.91 357.813 1593.46 363.659C1675.59 427.3 1760.17 499.193 1844.84 577.338L1844.64 577.513Z" fill="white" fill-opacity="0.5"/>
<path d="M1841.61 575.151C1756.53 495.04 1675.69 424.306 1594.46 358.906C1586.71 352.667 1579.08 346.294 1571 339.548C1539.42 313.176 1506.77 285.908 1468.87 268.631C1426.38 249.348 1380.65 247.743 1345.57 248.501C1261.63 250.076 1183.11 270.833 1105.52 311.959C1058.97 336.755 1015.99 366.53 974.426 395.328C952.581 410.463 931.947 424.755 910.906 438.32C904.661 442.35 898.857 446.022 893.171 449.545C857.919 471.353 828.031 487.018 799.108 498.845C764.002 513.2 731.18 521.438 698.766 524.031C682.111 525.363 665.57 525.112 649.602 523.286C632.697 521.353 616.424 517.643 601.238 512.264C567.577 500.339 539.575 480.52 518.007 453.352C516.988 452.063 515.973 450.744 514.986 449.43C498.126 426.985 485.792 401.946 473.863 377.733C470.68 371.273 467.389 364.592 464.078 358.096C447.774 326.028 430.72 298.808 411.94 274.881C409.525 271.806 407.03 268.722 404.523 265.712C358.773 210.855 297.478 165.659 227.266 135.01C162.46 106.84 95.6299 92.1412 34.3465 92.1412C17.0215 92.1412 0.152771 93.3149 -16.1171 95.6898C-65.9218 103.103 -114.298 129.127 -139.366 161.99C-157.059 185.188 -162.885 211.219 -156.214 237.268L-156.494 237.323C-159.976 223.731 -160.121 210.181 -156.927 197.052C-153.967 184.882 -148.138 173.037 -139.605 161.849C-126.817 145.084 -107.99 129.925 -85.1519 118.005C-63.5947 106.752 -39.739 98.95 -16.1684 95.444C22.6425 89.7763 64.6702 90.8572 108.743 98.6516C148.486 105.679 188.406 117.834 227.391 134.782C297.644 165.448 358.976 210.67 404.754 265.559C407.263 268.569 409.762 271.656 412.177 274.733C430.965 298.673 448.028 325.906 464.34 357.989C467.651 364.484 470.945 371.165 474.128 377.628C486.052 401.831 498.38 426.859 515.226 449.287C516.213 450.599 517.228 451.918 518.243 453.204C558.577 504.006 624.364 529.726 698.743 523.778C774.006 517.756 842.097 480.831 893.011 449.335C898.698 445.811 904.498 442.14 910.744 438.112C931.782 424.552 952.412 410.257 974.255 395.125C1015.83 366.325 1058.81 336.541 1105.38 311.739C1145.33 290.565 1184.52 275.134 1225.22 264.561C1264.47 254.364 1303.83 249.027 1345.57 248.245C1369.37 247.731 1388.8 248.624 1406.7 251.051C1429.8 254.186 1450.19 259.861 1469.01 268.403C1506.94 285.695 1539.61 312.978 1571.2 339.363C1579.28 346.109 1586.91 352.479 1594.66 358.718C1675.88 424.121 1756.73 494.86 1841.83 574.975L1841.61 575.151Z" fill="white" fill-opacity="0.5"/>
<path d="M1838.59 572.788C1754.28 491.799 1674.81 420.223 1595.65 353.96C1587.82 347.405 1580.09 340.651 1571.92 333.501C1541.28 306.712 1509.61 279.008 1472.18 262.165C1429.33 242.973 1383.65 243.74 1348.65 246.552C1269.44 252.693 1192.04 276.776 1112.04 320.172C1072.62 341.657 1035.09 366.244 998.794 390.023C970.102 408.82 943.004 426.575 915.204 442.804C908.921 446.475 902.761 449.986 896.901 453.236C861.58 472.808 829.831 487.26 799.838 497.422C763.924 509.59 730.546 515.714 697.796 516.141C681.132 516.356 664.657 515.032 648.838 512.201C632.254 509.232 616.295 504.59 601.403 498.4C568.898 484.89 541.574 464.228 520.194 436.985C519.19 435.699 518.18 434.377 517.196 433.056C500.653 410.884 488.05 386.374 475.862 362.673C472.414 355.967 468.846 349.03 465.261 342.286C448.29 310.279 430.857 283.289 411.966 259.77C409.516 256.723 406.987 253.666 404.445 250.685C358.094 196.337 296.332 151.777 225.84 121.824C142.155 86.4127 55.4785 73.3116 -18.2162 84.933C-67.3764 92.8202 -115.43 118.912 -140.638 151.401C-158.73 174.722 -165.204 200.949 -159.363 227.251L-159.642 227.299C-162.688 213.588 -162.454 199.933 -158.944 186.714C-155.684 174.443 -149.607 162.513 -140.874 151.258C-127.961 134.614 -109.227 119.529 -86.6977 107.634C-65.3887 96.3839 -41.7269 88.449 -18.2675 84.6847C20.5006 78.5731 62.5711 79.2051 106.775 86.5681C146.615 93.2039 186.715 104.988 225.962 121.595C296.497 151.564 358.294 196.151 404.671 250.532C407.215 253.513 409.747 256.573 412.197 259.622C431.099 283.154 448.538 310.156 465.518 342.176C469.106 348.92 472.67 355.856 476.121 362.565C488.304 386.257 500.901 410.756 517.433 432.913C518.417 434.232 519.427 435.553 520.427 436.837C561.186 488.77 624.175 516.848 697.79 515.885C757.522 515.107 820.742 495.13 896.747 453.018C902.604 449.768 908.761 446.259 915.044 442.588C942.835 426.362 969.934 408.612 998.62 389.815C1034.92 366.033 1072.46 341.441 1111.89 319.951C1152.22 298.07 1190.79 281.509 1229.8 269.313C1269.31 256.959 1308.18 249.428 1348.62 246.293C1383.66 243.477 1429.39 242.712 1472.31 261.935C1509.78 278.798 1541.47 306.514 1572.12 333.316C1580.29 340.466 1588.02 347.217 1595.84 353.77C1675.02 420.035 1754.49 491.616 1838.8 572.61L1838.59 572.788Z" fill="white" fill-opacity="0.5"/>
<path d="M1835.57 570.426C1752.05 488.557 1673.96 416.133 1596.84 349.017C1589.01 342.204 1581.28 335.124 1573.1 327.628C1543.33 300.36 1512.55 272.164 1475.48 255.703C1432.23 236.58 1386.63 239.728 1351.73 244.606C1277.21 254.825 1203.12 281.448 1118.56 328.39C1086.85 346.076 1055.85 365.476 1025.88 384.238C989.483 407.024 955.101 428.549 919.501 447.295C913.088 450.676 906.739 453.921 900.634 456.935C864.68 474.676 831.95 487.456 800.571 496.003C782.995 500.79 765.644 504.258 749 506.312C731.248 508.502 713.695 509.156 696.829 508.259C662.609 506.435 630.56 498.455 601.574 484.542C570.269 469.515 543.627 448.012 522.389 420.627C521.391 419.33 520.39 418.006 519.412 416.692C503.222 394.846 490.394 370.918 477.992 347.781C474.236 340.777 470.354 333.534 466.45 326.487C448.794 294.532 430.982 267.771 411.994 244.671C409.51 241.649 406.943 238.619 404.371 235.668C357.418 181.826 295.191 137.904 224.419 108.65C140.175 73.9637 53.2623 61.7254 -20.3098 74.1869C-99.0865 87.7369 -175.85 146.283 -162.503 217.242L-162.786 217.282C-166.125 199.532 -164.169 182.045 -156.973 165.302C-150.403 150.012 -139.62 135.622 -124.924 122.536C-111.261 110.368 -94.8686 99.8623 -76.2061 91.3106C-58.4562 83.1776 -39.1463 77.1688 -20.3668 73.9387C18.3556 67.3806 60.4718 67.5687 104.81 74.5004C144.747 80.7425 185.029 92.1557 224.539 108.424C295.35 137.698 357.615 181.646 404.596 235.517C407.172 238.471 409.738 241.501 412.225 244.525C431.221 267.635 449.042 294.411 466.707 326.379C470.611 333.426 474.492 340.669 478.248 347.676C490.648 370.806 503.47 394.723 519.652 416.556C520.627 417.871 521.625 419.195 522.623 420.489C563.442 473.118 625.316 504.198 696.846 508.01C757.402 511.233 824.016 494.458 900.494 456.72C906.597 453.705 912.942 450.463 919.356 447.082C954.947 428.341 989.323 406.818 1025.72 384.035C1055.69 365.271 1086.69 345.868 1118.4 328.18C1203 281.218 1277.12 254.584 1351.69 244.357C1375.14 241.079 1394.55 240.031 1412.79 241.062C1436.1 242.379 1456.65 247.093 1475.61 255.477C1512.72 271.956 1543.52 300.169 1573.3 327.452C1581.48 334.946 1589.21 342.026 1597.04 348.837C1674.16 415.957 1752.25 488.384 1835.77 570.258L1835.57 570.426Z" fill="white" fill-opacity="0.5"/>
<path d="M1832.54 568.064C1749.82 485.302 1673.1 412.035 1598.03 344.072C1590.26 337.04 1582.58 329.675 1574.46 321.873C1545.5 294.083 1515.55 265.346 1478.79 249.238C1434.59 229.955 1386.87 236.247 1354.82 242.657C1267.82 259.841 1189.86 299.791 1125.08 336.609C1101.79 349.895 1078.57 363.97 1056.1 377.58C1011.04 404.883 968.48 430.671 923.803 451.787C917.232 454.894 910.696 457.871 904.37 460.637C867.715 476.635 834.004 487.74 801.31 494.581C764.247 502.338 728.773 504.289 695.866 500.377C662.06 496.357 630.393 486.365 601.749 470.679C571.704 454.227 545.744 431.885 524.583 404.271C523.596 402.974 522.601 401.648 521.629 400.328C505.841 378.884 492.853 355.613 480.291 333.108C476.176 325.732 471.918 318.108 467.64 310.688C449.032 278.331 431.359 252.558 412.026 229.571C409.508 226.577 406.91 223.577 404.301 220.651C356.74 167.321 294.045 124.036 222.994 95.4738C138.191 61.515 51.0386 50.1369 -22.4081 63.4385C-101.467 77.9465 -176.662 135.697 -165.648 207.234L-165.93 207.266C-168.663 189.518 -166.298 172.049 -158.906 155.344C-152.13 140.038 -141.285 125.633 -126.666 112.532C-113.034 100.314 -96.7274 89.7309 -78.1961 81.0713C-60.5516 72.8254 -41.2788 66.6436 -22.4651 63.1903C16.2146 56.1858 58.3735 55.93 102.842 62.4279C142.877 68.2762 183.342 79.3183 223.114 95.2456C294.208 123.823 356.937 167.133 404.52 220.495C407.13 223.424 409.73 226.426 412.251 229.421C431.596 252.418 449.274 278.206 467.891 310.575C472.169 317.996 476.427 325.622 480.542 332.998C493.102 355.496 506.086 378.758 521.862 400.193C522.835 401.512 523.827 402.836 524.814 404.133C565.949 457.811 626.708 491.903 695.9 500.128C757.956 507.507 826.104 494.513 904.242 460.411C910.564 457.648 917.101 454.674 923.666 451.566C968.332 430.455 1010.89 404.672 1055.94 377.371C1078.4 363.761 1101.63 349.685 1124.92 336.396C1168.49 311.641 1204.73 293.351 1238.97 278.838C1279.28 261.754 1317.15 249.84 1354.75 242.411C1377.68 237.827 1397.66 235.751 1415.84 236.067C1439.24 236.473 1459.88 240.706 1478.91 249.012C1515.72 265.14 1545.69 293.895 1574.66 321.702C1582.79 329.502 1590.47 336.867 1598.23 343.894C1673.31 411.859 1750.02 485.131 1832.76 567.896L1832.54 568.064Z" fill="white" fill-opacity="0.5"/>
<path d="M1829.52 565.698C1747.59 482.041 1672.26 407.929 1599.22 339.124C1591.56 331.909 1583.98 324.287 1575.95 316.217C1547.76 287.868 1518.6 258.554 1482.09 242.772C1437.41 223.534 1389.82 232.38 1357.9 240.708C1279.08 261.1 1208.78 299.926 1131.6 344.824C1117.68 352.952 1103.6 361.341 1089.98 369.456C1037.61 400.664 983.458 432.933 928.1 456.276C921.376 459.115 914.645 461.826 908.1 464.333C871.197 478.458 835.515 488.153 802.043 493.151C764.125 498.814 728.077 498.591 694.893 492.491C661.56 486.365 630.279 474.36 601.914 456.81C573.21 439.049 547.925 415.869 526.765 387.914C525.787 386.615 524.8 385.286 523.833 383.967C508.521 363.024 495.451 340.511 482.812 318.74C478.258 310.895 473.549 302.785 468.818 294.893C449.482 262.569 431.442 237.017 412.043 214.476C409.497 211.517 406.861 208.542 404.215 205.638C356.061 152.81 292.904 110.162 221.568 82.2972C136.209 49.0656 48.8198 38.5502 -24.507 52.6895C-101.056 67.6112 -177.64 123.336 -168.797 197.222L-169.079 197.247C-171.204 179.499 -168.432 162.049 -160.843 145.382C-153.864 130.059 -142.953 115.642 -128.414 102.526C-101.59 78.3297 -63.74 60.0751 -24.5698 52.4412C14.0643 44.9929 56.2689 44.2907 100.872 50.3547C141.003 55.8117 181.648 66.4802 221.682 82.0665C293.058 109.946 356.252 152.622 404.437 205.475C407.087 208.382 409.722 211.356 412.271 214.318C431.678 236.871 449.728 262.434 469.069 294.77C473.8 302.665 478.511 310.775 483.066 318.62C495.702 340.385 508.77 362.893 524.073 383.826C525.037 385.145 526.023 386.472 527.001 387.771C569.337 443.701 627.412 479.827 694.947 492.243C757.483 503.739 829.155 494.272 907.981 464.103C914.523 461.595 921.247 458.886 927.969 456.05C983.307 432.714 1037.45 400.451 1089.81 369.248C1103.43 361.133 1117.51 352.744 1131.43 344.616C1165.22 324.962 1204.53 302.419 1243.55 283.597C1284.36 263.911 1321.74 249.804 1357.81 240.47C1380.53 234.544 1400.5 231.469 1418.88 231.073C1442.06 230.571 1463.36 234.434 1482.21 242.549C1498.57 249.619 1515.03 260.169 1532.53 274.805C1547.99 287.728 1562.31 302.128 1576.16 316.052C1584.18 324.119 1591.76 331.741 1599.42 338.953C1672.47 407.761 1747.8 481.876 1829.73 565.535L1829.52 565.698Z" fill="white" fill-opacity="0.5"/>
<path d="M1826.49 563.336C1745.37 478.776 1671.42 403.819 1600.41 334.181C1592.88 326.808 1585.44 318.956 1577.55 310.645C1550.09 281.707 1521.7 251.783 1485.4 236.312C1451.47 221.899 1410.78 222.702 1360.98 238.765C1291.36 261.097 1229.13 298.452 1163.24 338.003C1155.04 342.928 1146.56 348.019 1138.11 353.048C1134.81 355.021 1131.5 357 1128.2 358.976C1065.41 396.516 1000.5 435.335 932.398 460.77C925.514 463.343 918.595 465.788 911.834 468.035C874.121 480.557 837.432 488.527 802.787 491.722C763.994 495.298 727.367 492.905 693.932 484.609C661.119 476.466 630.222 462.448 602.099 442.942C574.841 424.035 550.236 400.02 528.964 371.558C527.994 370.256 527.016 368.925 526.055 367.603C511.325 347.317 498.298 325.712 485.695 304.819C480.593 296.358 475.315 287.608 470.013 279.091C449.93 246.79 431.524 221.458 412.081 199.374C409.497 196.44 406.83 193.496 404.149 190.619C355.386 138.303 291.761 96.2887 220.145 69.1211C134.233 36.6194 46.6012 26.9641 -26.603 41.941C-101.746 57.4421 -178.222 113.623 -171.939 187.213L-172.224 187.233C-173.739 169.483 -170.562 152.053 -162.776 135.429C-155.592 120.088 -144.618 105.653 -130.157 92.5269C-103.446 68.281 -65.7276 49.7555 -26.6686 41.6978C11.9227 33.8031 54.1701 32.6545 98.9042 38.2871C139.132 43.3479 179.962 53.6452 220.259 68.8904C291.915 96.0755 355.58 138.112 404.363 190.456C407.044 193.333 409.716 196.282 412.3 199.216C431.753 221.313 450.17 246.652 470.258 278.966C475.563 287.482 480.839 296.235 485.944 304.696C498.54 325.584 511.567 347.184 526.292 367.463C527.253 368.784 528.228 370.114 529.198 371.415C572.452 429.286 629.44 468.341 694.006 484.361C757.742 500.176 830.995 494.601 911.731 467.794C918.487 465.547 925.403 463.105 932.284 460.534C1000.36 435.11 1065.27 396.298 1128.03 358.763C1131.34 356.784 1134.65 354.808 1137.95 352.834C1146.39 347.806 1154.87 342.715 1163.08 337.792C1228.98 298.233 1291.23 260.869 1360.88 238.527C1383.38 231.269 1403.35 227.199 1421.94 226.078C1445.2 224.676 1466.59 228.044 1485.52 236.084C1501.78 243.013 1518.03 253.611 1535.21 268.485C1550.37 281.609 1564.3 296.287 1577.77 310.482C1585.66 318.79 1593.1 326.64 1600.62 334.01C1671.63 403.651 1745.59 478.611 1826.71 563.173L1826.49 563.336Z" fill="white" fill-opacity="0.5"/>
<path d="M1823.47 560.974C1749.43 482.177 1674.78 404.208 1601.59 329.236C1594.14 321.647 1586.76 313.494 1578.94 304.864C1553.52 276.791 1524.7 244.974 1488.7 229.849C1454.38 215.462 1413.61 217.742 1364.06 236.816C1305.15 259.422 1253.02 292.661 1197.82 327.851C1180.53 338.871 1162.66 350.269 1144.63 361.263C1113.16 380.496 1079.12 400.847 1043.43 419.383C1005.21 439.235 970.297 454.24 936.688 465.259C929.627 467.574 922.52 469.753 915.559 471.732C877.047 482.674 839.36 488.901 803.544 490.24C763.894 491.719 726.689 487.175 692.957 476.722C630.667 457.181 576.225 416.296 531.146 355.199C530.185 353.895 529.215 352.561 528.26 351.24C514.277 331.849 501.478 311.392 489.101 291.608C483.275 282.296 477.252 272.666 471.191 263.294C450.344 231.001 431.568 205.892 412.101 184.277C409.48 181.368 406.779 178.451 404.067 175.605C354.71 123.792 290.618 82.4178 218.723 55.9449C132.254 24.1704 44.3858 15.3804 -28.6986 31.1924C-104.298 47.6414 -178.857 103.078 -175.084 177.205L-175.369 177.215C-176.273 159.459 -172.686 142.05 -164.709 125.468C-157.317 110.107 -146.281 95.6568 -131.901 82.5207C-118.355 70.1444 -102.299 59.323 -84.1814 50.3549C-66.5912 41.6502 -47.9486 35.1197 -28.7699 30.9467C9.77859 22.6081 52.0716 21.0131 96.937 26.2118C137.262 30.884 178.272 40.8075 218.831 55.7117C290.769 82.1996 354.898 123.599 404.284 175.437C406.996 178.285 409.703 181.205 412.323 184.114C431.799 205.741 450.584 230.86 471.439 263.164C477.5 272.538 483.523 282.168 489.349 291.482C501.726 311.264 514.522 331.718 528.499 351.102C529.452 352.426 530.424 353.757 531.383 355.061C576.428 416.11 630.821 456.963 693.051 476.484C757.152 496.346 834.064 494.621 915.47 471.491C922.426 469.512 929.533 467.336 936.588 465.023C1011.73 440.389 1080.48 400.155 1144.46 361.055C1162.49 350.061 1180.36 338.665 1197.65 327.646C1252.86 292.448 1305 259.201 1363.95 236.586C1413.57 217.481 1454.42 215.201 1488.82 229.621C1504.94 236.395 1520.95 247.013 1537.76 262.078C1552.59 275.362 1566.1 290.281 1579.17 304.706C1586.98 313.336 1594.36 321.486 1601.81 329.07C1675 404.045 1749.65 482.014 1823.69 560.813L1823.47 560.974Z" fill="white" fill-opacity="0.5"/>
<path d="M1820.45 558.611C1747.54 479.378 1674.31 400.541 1602.78 324.29C1595.57 316.618 1588.4 308.322 1580.82 299.54C1556.02 270.812 1527.91 238.251 1492 223.381C1457.27 209.019 1416.43 212.776 1367.14 234.862C1315.51 257.97 1268.06 290.597 1222.18 322.153C1199.18 337.975 1175.39 354.337 1151.14 369.476C1112.88 393.396 1080.69 411.643 1049.83 426.904C1011.78 445.72 976.174 459.734 940.985 469.745C933.762 471.802 926.461 473.713 919.289 475.426C881.918 484.346 845.22 488.86 810.114 488.863C808.163 488.863 806.224 488.848 804.285 488.82C763.697 488.238 725.916 481.512 691.99 468.833C675.615 462.678 659.579 454.866 644.33 445.612C629.997 436.915 615.911 426.671 602.465 415.164C578.273 394.465 555.657 369.496 533.333 338.838C532.375 337.519 531.419 336.197 530.47 334.871C517.517 316.781 505.262 297.872 493.413 279.585C486.571 269.029 479.499 258.113 472.375 247.487C450.441 214.749 431.861 190.594 412.124 169.169C409.468 166.288 406.734 163.399 403.987 160.58C354.031 109.282 289.474 68.5442 217.299 42.766C130.278 11.7213 42.1698 3.79398 -30.7949 20.4411C-104.977 37.4142 -179.439 93.2716 -178.227 167.191L-178.512 167.193C-179.077 132.763 -163.56 100.023 -133.641 72.5141C-120.118 60.0802 -104.147 49.1811 -86.1693 40.1127C-68.6761 31.2901 -50.0706 24.5891 -30.8662 20.1953C7.63666 11.4103 49.9753 9.37143 94.9718 14.1364C135.394 18.4173 176.586 27.9697 217.405 42.5303C289.625 68.326 354.22 109.089 404.207 160.417C406.953 163.238 409.694 166.13 412.349 169.011C432.095 190.448 450.683 214.612 472.623 247.362C479.747 257.99 486.822 268.907 493.661 279.462C505.51 297.747 517.762 316.654 530.712 334.738C531.662 336.064 532.614 337.386 533.573 338.703C581.01 403.852 632.865 446.342 692.101 468.602C774.146 499.268 860.891 489.108 919.214 475.185C926.381 473.472 933.676 471.564 940.897 469.507C1021.83 446.48 1095.68 403.844 1150.98 369.273C1175.22 354.138 1199 337.777 1222.01 321.958C1267.9 290.396 1315.35 257.759 1367.02 234.642C1389.07 224.758 1409.03 218.689 1428.03 216.091C1451.47 212.886 1473.03 215.264 1492.12 223.158C1508.2 229.817 1524.06 240.52 1540.6 255.878C1555.17 269.411 1568.32 284.651 1581.05 299.392C1588.63 308.172 1595.79 316.465 1603 324.132C1674.52 400.383 1747.76 479.22 1820.67 558.453L1820.45 558.611Z" fill="white" fill-opacity="0.5"/>
<path d="M1817.43 556.249L1603.97 319.347C1597 311.61 1590.08 303.192 1582.75 294.281C1558.56 264.874 1531.15 231.545 1495.31 216.922C1460.65 202.782 1418.56 208.164 1370.23 232.919C1323.76 256.716 1281.38 288.363 1240.39 318.969C1213.67 338.918 1186.05 359.546 1157.66 377.7C1072.35 432.266 997.792 464.494 923.025 479.127C892.009 485.196 861.411 488.251 831.737 488.251C822.743 488.251 813.839 487.97 805.03 487.408C763.484 484.76 725.127 475.857 691.027 460.951C659.423 447.132 630.511 427.626 602.648 401.314C580.398 380.303 559.069 355.255 535.527 322.485C523.101 305.19 511.069 287.222 499.434 269.845C473.1 230.522 445.87 189.859 412.158 154.072C360.449 99.1829 292.575 56.1381 215.874 29.59C128.302 -0.722448 39.9545 -7.78957 -32.8904 9.69266C-103.417 26.6182 -179.963 79.9903 -181.372 157.182L-181.657 157.177C-181.027 122.674 -165.025 89.9389 -135.383 62.5105C-108.581 37.7104 -72.2089 18.8664 -32.9645 9.4494C5.49556 0.220506 47.8798 -2.26478 93.0047 2.06628C133.524 5.95345 174.899 15.1372 215.979 29.3567C253.932 42.4929 289.977 59.7845 323.115 80.7527C356.53 101.896 386.563 126.508 412.375 153.907C446.101 189.706 473.339 230.379 499.679 269.712C511.315 287.086 523.346 305.052 535.769 322.344C570.117 370.159 618.821 429.096 691.155 460.72C774.11 496.986 862.999 490.611 922.963 478.877C997.693 464.253 1072.22 432.038 1157.5 377.492C1185.87 359.345 1213.49 338.718 1240.21 318.773C1281.2 288.162 1323.59 256.508 1370.08 232.698C1418.5 207.901 1460.68 202.514 1495.43 216.691C1511.47 223.239 1527.18 234.035 1543.46 249.702C1557.78 263.492 1570.59 279.069 1582.98 294.131C1590.31 303.041 1597.23 311.455 1604.2 319.189L1817.65 556.091L1817.43 556.249Z" fill="white" fill-opacity="0.5"/>
<path d="M1815.7 538.037C1761.35 472.076 1714.71 418.551 1668.94 369.595C1646.72 345.813 1624.03 322.405 1601.5 300.02C1594.68 293.248 1587.93 286.046 1580.78 278.419C1562.81 259.252 1544.23 239.432 1522.85 224.724C1511.37 216.811 1500.32 211.146 1489.07 207.405C1454.52 195.806 1413.99 203.475 1368.61 230.201C1345.11 244.012 1323.73 259.728 1305.9 273.281C1287.03 287.628 1268.42 303.45 1250.41 318.751C1224.54 340.744 1197.78 363.486 1169.02 383.017C1151.52 394.937 1133.78 405.588 1116.28 414.676C1081.29 432.858 1043.73 447.84 1004.65 459.205C980.505 466.15 956.242 471.399 932.54 474.804C912.112 477.728 891.647 479.416 871.71 479.82C841.871 480.427 812.799 478.112 785.301 472.933C756.064 467.426 728.396 458.636 703.065 446.804C680.479 436.254 659.144 422.969 637.844 406.189C598.151 374.947 566.493 338.821 543.347 310.838C531.977 297.028 520.875 282.944 510.138 269.323C479.221 230.098 450.018 193.05 413.474 160.049C383.669 133.31 349.664 110.235 312.393 91.4615C283.752 77.0338 252.601 65.2344 219.807 56.3892C211.996 54.2851 204.037 52.324 196.157 50.566C162.231 43.0098 124.039 38.0894 82.6447 35.9402C40.9107 33.7232 4.80339 35.6417 -27.7334 41.8111C-46.1279 45.2719 -63.9491 50.7014 -80.7094 57.9466C-139.88 83.5267 -177.875 126.469 -182.347 172.819L-182.703 172.791C-181.511 160.435 -178.012 148.264 -172.305 136.613C-166.884 125.546 -159.438 114.872 -150.175 104.889C-132.673 86.0295 -108.706 69.6984 -80.8663 57.6632C-64.0803 50.4055 -46.2305 44.9684 -27.8076 41.5026C4.76346 35.3283 40.8993 33.4072 82.6675 35.6267C124.085 37.7759 162.297 42.7013 196.245 50.2625C204.134 52.023 212.096 53.9842 219.913 56.0908C252.732 64.941 283.909 76.7505 312.573 91.1907C349.869 109.977 383.903 133.072 413.722 159.828C450.289 192.849 479.497 229.908 510.426 269.143C521.16 282.763 532.262 296.845 543.63 310.653C566.764 338.623 598.408 374.731 638.077 405.954C659.355 422.716 680.667 435.988 703.228 446.526C752.802 469.681 809.482 480.778 871.698 479.506C891.619 479.103 912.069 477.415 932.48 474.493C956.165 471.088 980.411 465.844 1004.54 458.904C1043.6 447.546 1081.13 432.575 1116.1 414.403C1133.58 405.322 1151.31 394.676 1168.8 382.766C1197.55 363.245 1224.3 340.509 1250.16 318.522C1268.17 303.219 1286.79 287.392 1305.66 273.04C1323.5 259.48 1344.9 243.758 1368.41 229.938C1388.61 218.038 1408.18 209.817 1426.57 205.501C1449.15 200.199 1470.22 200.741 1489.19 207.111C1500.48 210.865 1511.56 216.546 1523.07 224.475C1544.48 239.207 1563.07 259.039 1581.05 278.219C1588.2 285.843 1594.95 293.045 1601.76 299.811C1624.31 322.199 1647 345.61 1669.22 369.397C1715 418.358 1761.64 471.888 1816 537.854L1815.7 538.037Z" fill="white" fill-opacity="0.5"/>
<path d="M1813.99 519.82C1763.59 452.742 1716.29 396.612 1669.39 348.223C1646.51 324.586 1622.84 301.865 1599.02 280.691C1592.7 275.074 1586.47 269.235 1579.86 263.056C1560.08 244.551 1539.63 225.416 1516.72 212.177C1505.15 205.463 1494.07 200.789 1482.83 197.884C1439.8 186.76 1396.08 207.836 1366.99 227.475C1346.37 241.348 1327.54 257.035 1308.47 273.228C1291.78 287.402 1276.07 302.65 1259.45 318.791C1234.77 342.751 1209.25 367.526 1180.37 388.328C1163.24 400.74 1145.35 411.471 1127.22 420.223C1093.44 436.529 1056.45 449.191 1014.13 458.937C990.45 464.389 966.198 468.274 942.048 470.478C921.672 472.316 901.332 472.973 881.592 472.424C852.223 471.617 823.517 467.985 796.264 461.633C767.643 454.959 740.334 445.209 715.098 432.652C692.987 421.653 671.638 408.005 649.83 390.931C610.224 359.967 576.295 325.639 551.165 299.192C541.862 289.401 532.707 279.55 523.852 270.02C488.589 232.072 455.282 196.224 414.792 166.025C384.531 143.454 350.557 124.369 313.819 109.302C286.022 97.9014 256.56 89.3597 223.752 83.1878C216.18 81.7659 208.477 80.4844 200.86 79.3784C167.402 74.5458 131.694 72.7176 88.4912 70.8266C57.349 69.3946 16.5817 68.4517 -22.5828 73.9238C-41.1312 76.4668 -59.0608 80.8831 -75.8782 87.0449C-135.088 108.745 -175.254 146.654 -183.325 188.455L-183.747 188.392C-181.608 177.308 -177.273 166.436 -170.871 156.076C-164.768 146.205 -156.748 136.741 -147.038 127.938C-128.583 111.216 -104.035 96.9534 -76.0436 86.6963C-59.1949 80.522 -41.231 76.0981 -22.6512 73.5502C16.5504 68.0705 57.349 69.016 88.5112 70.4479C131.728 72.3389 167.448 74.1671 200.928 79.0022C208.551 80.1107 216.26 81.3922 223.84 82.8142C256.679 88.9935 286.17 97.5428 313.999 108.956C350.773 124.038 384.776 143.138 415.068 165.731C455.588 195.953 488.909 231.811 524.183 269.775C533.035 279.302 542.19 289.153 551.492 298.941C576.617 325.379 610.532 359.694 650.115 390.643C671.898 407.699 693.224 421.332 715.309 432.318C764.931 457.008 820.884 470.373 881.606 472.043C901.329 472.59 921.649 471.935 942.005 470.097C966.132 467.895 990.364 464.015 1014.02 458.566C1056.3 448.83 1093.26 436.178 1127.02 419.887C1145.13 411.145 1162.99 400.429 1180.11 388.03C1208.96 367.245 1234.47 342.48 1259.13 318.532C1275.77 302.384 1291.47 287.134 1308.18 272.952C1327.26 256.749 1346.09 241.057 1366.73 227.169C1385.59 214.436 1404.2 205.278 1422.03 199.941C1443.65 193.471 1464.15 192.656 1482.96 197.516C1494.24 200.432 1505.36 205.122 1516.96 211.856C1539.91 225.12 1560.38 244.272 1580.18 262.793C1586.78 268.97 1593.02 274.805 1599.33 280.42C1623.16 301.602 1646.84 324.33 1669.72 347.974C1716.63 396.376 1763.94 452.517 1814.34 519.609L1813.99 519.82Z" fill="white" fill-opacity="0.5"/>
<path d="M1812.26 501.603C1765.1 432.499 1718.51 375.337 1669.83 326.853C1646.3 303.362 1621.64 281.33 1596.55 261.365C1591.19 257.097 1585.67 252.568 1580.33 248.189C1558.28 230.098 1535.49 211.391 1510.59 199.632C1498.91 194.075 1487.79 190.388 1476.6 188.364C1433.66 180.592 1392.41 203.86 1365.37 224.746C1347.04 238.845 1330.29 254.825 1314.08 270.281L1311.05 273.175C1296.33 287.196 1282.53 302.574 1267.92 318.858C1244.65 344.787 1220.59 371.596 1191.73 393.64C1174.94 406.56 1156.91 417.371 1138.15 425.773C1105.44 440.421 1069.04 450.874 1023.6 458.668C1000.11 462.698 975.866 465.216 951.551 466.149C931.226 466.899 911.012 466.523 891.465 465.026C832.289 460.514 776.998 444.86 727.125 418.5C705.565 407.104 684.201 393.098 661.817 375.673C623.936 346.249 590.244 316.004 558.985 287.547C554.793 283.733 550.646 279.944 546.531 276.184C503.836 237.19 463.511 200.357 416.119 172.008C385.179 153.5 351.239 138.408 315.246 127.148C288.82 118.882 260.182 113.269 227.699 109.989C220.379 109.254 212.933 108.65 205.566 108.193C187.035 107.065 167.38 106.882 146.57 106.689C129.855 106.533 112.573 106.373 94.3354 105.718C59.1122 104.346 19.192 102.794 -17.4372 106.044C-36.3365 107.722 -54.3744 111.122 -71.0521 116.153C-130.239 134.009 -172.578 166.89 -184.308 204.109L-184.79 203.991C-181.698 194.178 -176.531 184.605 -169.432 175.539C-162.645 166.87 -154.055 158.609 -143.903 150.987C-124.484 136.412 -99.3482 124.223 -71.2175 115.737C-54.5028 110.694 -36.4277 107.285 -17.4914 105.605C19.1749 102.353 59.1151 103.907 94.3526 105.279C112.579 105.931 129.861 106.094 146.57 106.25C167.389 106.443 187.049 106.626 205.598 107.757C212.97 108.216 220.424 108.82 227.751 109.555C260.273 112.838 288.946 118.458 315.408 126.736C351.444 138.009 385.421 153.119 416.395 171.647C463.83 200.021 504.175 236.871 546.888 275.883C551.003 279.643 555.152 283.43 559.341 287.246C590.595 315.698 624.275 345.935 662.145 375.35C684.506 392.754 705.847 406.748 727.381 418.129C777.189 444.456 832.409 460.088 891.508 464.594C911.032 466.089 931.226 466.465 951.528 465.715C975.818 464.782 1000.04 462.267 1023.51 458.242C1068.9 450.455 1105.26 440.015 1137.92 425.387C1156.64 417.003 1174.63 406.212 1191.4 393.314C1220.23 371.297 1244.27 344.503 1267.53 318.59C1282.14 302.299 1295.95 286.913 1310.68 272.881L1313.71 269.987C1329.92 254.524 1346.69 238.534 1365.04 224.42C1392.16 203.467 1433.56 180.131 1476.7 187.938C1487.94 189.972 1499.1 193.671 1510.83 199.251C1535.77 211.035 1558.6 229.761 1580.67 247.873C1586 252.252 1591.52 256.781 1596.88 261.047C1621.98 281.022 1646.65 303.066 1670.2 326.57C1718.9 375.074 1765.5 432.256 1812.68 501.382L1812.26 501.603Z" fill="white" fill-opacity="0.5"/>
<path d="M1810.54 483.383C1767.24 413.236 1720.05 353.381 1670.28 305.486C1646.09 282.143 1620.45 260.799 1594.09 242.045C1590.28 239.336 1586.38 236.525 1582.61 233.807C1557.69 215.848 1531.93 197.275 1504.48 187.093C1492.7 182.677 1481.55 179.981 1470.39 178.847C1427.56 174.503 1388.77 199.926 1363.76 222.017C1348.23 235.665 1334.21 250.842 1320.66 265.521C1318.31 268.061 1315.97 270.597 1313.62 273.122C1300.73 286.996 1288.67 302.494 1275.91 318.901C1254.22 346.793 1231.78 375.633 1203.09 398.956C1186.24 412.652 1168.58 423.24 1149.08 431.33C1108.31 448.251 1067.56 454.513 1033.07 458.41C1009.75 461.043 985.522 462.197 961.053 461.831C940.791 461.492 920.699 460.08 901.341 457.637C843.942 450.412 789.374 432.486 739.156 404.356C718.26 392.654 696.886 378.284 673.806 360.426C650.492 342.429 628.766 325.112 607.754 308.365C593.475 296.982 579.986 286.231 566.813 275.916C517.019 236.924 471.41 202.642 417.456 177.999C385.851 163.567 351.946 152.462 316.68 144.996C291.404 139.644 264.385 137.039 231.654 136.79C224.593 136.745 217.401 136.818 210.28 137.009C199.463 137.317 188.272 137.962 176.428 138.646C153.699 139.958 127.933 141.445 100.178 140.612C89.6093 140.294 78.8265 139.845 68.3973 139.409C41.5727 138.288 13.8356 137.129 -12.2959 138.165C-31.4861 138.927 -49.6353 141.315 -66.233 145.262C-125.321 159.318 -169.829 187.173 -185.298 219.773L-185.826 219.58C-181.776 211.043 -175.776 202.772 -167.993 194.995C-160.518 187.527 -151.358 180.472 -140.772 174.029C-120.373 161.616 -94.6517 151.501 -66.387 144.778C-49.7493 140.82 -31.5602 138.425 -12.3273 137.663C13.8327 136.625 41.5813 137.786 68.4201 138.907C78.8465 139.343 89.6293 139.792 100.195 140.111C127.924 140.943 153.671 139.459 176.388 138.147C188.238 137.462 199.431 136.818 210.26 136.509C217.389 136.319 224.588 136.246 231.657 136.291C264.434 136.537 291.492 139.15 316.811 144.51C352.12 151.985 386.071 163.103 417.715 177.555C442.087 188.685 466.784 202.787 493.218 220.663C516.883 236.666 539.903 254.175 567.189 275.542C580.362 285.86 593.851 296.611 608.133 307.994C629.143 324.739 650.868 342.056 674.177 360.049C697.234 377.89 718.586 392.245 739.455 403.934C789.605 432.027 844.096 449.928 901.415 457.143C920.751 459.584 940.816 460.993 961.056 461.331C985.496 461.698 1009.7 460.547 1032.99 457.913C1067.43 454.024 1108.13 447.769 1148.83 430.879C1168.27 422.811 1185.89 412.25 1202.7 398.59C1231.34 375.307 1253.76 346.489 1275.44 318.62C1288.21 302.203 1300.27 286.697 1313.17 272.809C1315.52 270.283 1317.86 267.748 1320.21 265.21C1333.77 250.521 1347.8 235.334 1363.34 221.669C1379.61 207.296 1396.31 196.239 1412.96 188.806C1432.68 180.001 1452.02 176.485 1470.44 178.356C1481.66 179.494 1492.86 182.203 1504.69 186.636C1532.21 196.846 1558.01 215.442 1582.96 233.423C1586.73 236.141 1590.63 238.953 1594.43 241.659C1620.82 260.427 1646.47 281.792 1670.69 305.153C1697.11 330.585 1722.99 359.56 1747.6 391.275C1769.36 419.305 1790.69 450.217 1811.03 483.147L1810.54 483.383Z" fill="white" fill-opacity="0.5"/>
<path d="M1808.82 465.159C1768.74 393 1722.28 332.09 1670.73 284.117C1645.87 260.922 1619.26 240.267 1591.63 222.722C1590.31 221.887 1589 221.052 1587.68 220.214C1558.95 201.947 1529.24 183.058 1498.38 174.554C1486.43 171.259 1475.24 169.551 1464.18 169.33C1421.53 168.482 1385.16 196.029 1362.16 219.284C1348.62 232.889 1336.61 247.801 1324.99 262.221C1322.12 265.787 1319.14 269.474 1316.21 273.065C1305.04 286.743 1294.66 302.294 1283.67 318.76C1263.67 348.712 1243 379.681 1214.46 404.268C1197.95 418.493 1180.14 429.161 1160.02 436.885C1120.38 452.1 1080.13 456.095 1042.55 458.147C1019.37 459.411 995.148 459.195 970.556 457.507C950.36 456.078 930.397 453.633 911.218 450.242C855.772 440.461 801.929 420.263 751.192 390.207C730.872 378.171 710.094 363.862 685.805 345.173C639.642 309.752 605.362 284.804 574.659 264.282C513.593 223.467 466.985 199.454 418.82 183.991C386.574 173.638 352.702 166.524 318.141 162.842C294.162 160.289 268.715 160.517 235.634 163.589C228.855 164.226 221.919 164.976 215.018 165.821C208.499 166.632 201.876 167.559 194.864 168.54C168.972 172.164 139.623 176.272 106.034 175.504C88.33 175.101 70.2463 173.995 52.7588 172.926C32.8842 171.712 12.3338 170.456 -7.1501 170.285C-26.6853 170.115 -44.9457 171.489 -61.4095 174.373C-120.3 184.683 -166.985 207.517 -186.289 235.452L-186.837 235.159C-181.823 227.901 -174.99 220.932 -166.529 214.444C-158.361 208.179 -148.636 202.333 -137.622 197.064C-116.228 186.827 -89.9166 178.787 -61.535 173.819C-45.0256 170.93 -26.7253 169.551 -7.14441 169.721C12.3566 169.892 32.9184 171.148 52.8015 172.364C70.2834 173.433 88.3584 174.539 106.048 174.943C139.578 175.707 168.895 171.605 194.758 167.986C201.774 167.003 208.402 166.077 214.924 165.265C221.834 164.42 228.775 163.67 235.56 163.03C268.693 159.956 294.182 159.725 318.212 162.285C352.822 165.972 386.742 173.097 419.034 183.464C467.264 198.948 513.921 222.985 575.042 263.836C605.756 284.365 640.047 309.321 686.221 344.752C710.493 363.425 731.249 377.72 751.546 389.743C802.214 419.757 855.978 439.927 911.341 449.693C930.494 453.078 950.434 455.519 970.602 456.948C995.165 458.633 1019.35 458.849 1042.5 457.588C1080.03 455.539 1120.21 451.554 1159.76 436.374C1179.81 428.68 1197.55 418.046 1214 403.872C1242.48 379.338 1263.14 348.401 1283.11 318.482C1294.11 302.005 1304.5 286.442 1315.68 272.744C1318.62 269.155 1321.59 265.468 1324.46 261.902C1336.09 247.47 1348.11 232.548 1361.67 218.92C1376.68 203.743 1392.41 191.738 1408.44 183.236C1427.21 173.277 1445.97 168.415 1464.19 168.773C1475.31 168.994 1486.56 170.712 1498.57 174.022C1529.53 182.556 1559.28 201.471 1588.05 219.765C1589.37 220.603 1590.69 221.441 1592 222.273C1619.66 239.838 1646.31 260.518 1671.19 283.738C1722.79 331.754 1769.29 392.712 1809.39 464.92L1808.82 465.159Z" fill="white" fill-opacity="0.5"/>
<path d="M1056.74 457.886C1055.14 457.886 1053.56 457.883 1052.01 457.876C1028.95 457.791 1004.74 456.211 980.049 453.176C959.927 450.656 940.089 447.177 921.087 442.841C893.938 436.657 866.691 427.769 840.097 416.426C814.417 405.472 788.553 391.889 763.223 376.052C738.403 360.536 715.221 343.247 697.796 329.918C657.026 298.815 618.235 272.819 582.501 252.648C524.625 219.981 473.05 200.066 420.185 189.977C388.293 183.89 354.076 180.68 321.132 180.68C320.621 180.68 320.113 180.68 319.603 180.683C291.301 180.768 264.431 185.393 239.614 190.378C233.155 191.685 226.473 193.112 219.754 194.624C216.072 195.462 212.385 196.324 208.483 197.237C180.966 203.685 149.775 210.99 111.882 210.391C88.8053 210.025 65.2347 207.923 42.4398 205.889C27.7214 204.575 12.5039 203.218 -2.01199 202.398C-21.9664 201.272 -40.3295 201.633 -56.5965 203.477C-115.174 210.107 -164.034 227.923 -187.303 251.136L-187.839 250.722C-175.904 238.817 -157.951 228.51 -134.481 220.084C-112.065 212.039 -85.1635 206.08 -56.6877 202.857C-40.378 201.012 -21.9664 200.645 -1.96635 201.776C12.5638 202.596 27.7899 203.956 42.514 205.27C65.2946 207.304 88.8509 209.405 111.897 209.769C149.692 210.368 180.829 203.073 208.301 196.638C212.205 195.722 215.892 194.86 219.577 194.022C226.302 192.51 232.989 191.08 239.454 189.774C264.314 184.781 291.23 180.149 319.6 180.061C353.069 179.958 387.899 183.178 420.336 189.37C447.62 194.579 474.071 202.245 501.195 212.808C527.318 222.983 554.039 235.843 582.883 252.127C618.645 272.312 657.465 298.329 698.261 329.451C715.671 342.773 738.837 360.049 763.631 375.548C815.03 407.684 868.066 430.121 921.264 442.242C940.24 446.573 960.052 450.046 980.146 452.564C1004.8 455.594 1028.98 457.174 1052.01 457.256C1088.04 457.387 1129.87 456.318 1170.68 441.861C1191.33 434.543 1209.2 423.842 1225.3 409.148C1253.58 383.342 1272.33 350.221 1290.47 318.188C1299.8 301.712 1308.61 286.148 1318.19 272.676C1321.25 268.36 1324.35 263.913 1327.35 259.613C1337.46 245.082 1347.92 230.06 1359.98 216.174C1373.75 200.199 1388.53 187.241 1403.91 177.661C1421.73 166.554 1439.9 160.339 1457.92 159.191C1469.04 158.481 1480.32 159.206 1492.42 161.408C1524.76 167.291 1556.82 184.384 1589.55 202.885C1618.09 219.015 1646.49 239.567 1671.68 262.321C1699.67 287.522 1725.97 317.087 1749.84 350.194C1771.11 379.688 1790.59 412.155 1807.74 446.693L1807.09 446.944C1770.25 372.772 1724.53 310.803 1671.17 262.76C1646.01 240.039 1617.66 219.517 1589.17 203.414C1556.49 184.946 1524.5 167.885 1492.28 162.022C1480.24 159.833 1469.02 159.113 1457.97 159.818C1424.87 161.932 1390.27 182.08 1360.54 216.555C1348.51 230.416 1338.06 245.426 1327.95 259.941C1324.96 264.244 1321.86 268.693 1318.79 273.009C1309.23 286.457 1300.42 302.008 1291.11 318.469C1282.21 334.186 1273.01 350.439 1262.45 366.063C1250.48 383.776 1238.5 398.011 1225.82 409.585C1209.64 424.343 1191.7 435.092 1170.95 442.445C1152.65 448.93 1132.98 453.216 1110.82 455.554C1092.05 457.522 1073.2 457.886 1056.74 457.886Z" fill="white" fill-opacity="0.5"/>
<path d="M1102.47 459.142C1087.93 459.142 1073.96 458.38 1061.46 457.608C1038.48 456.188 1014.28 453.241 989.535 448.848C969.498 445.239 949.786 440.73 930.947 435.441C879.359 420.988 828.428 396.93 775.244 361.898C752.05 346.623 730.185 330.186 709.783 314.663C669.503 284.104 629.32 259.327 590.344 241.014C533.022 214.083 479.39 199.765 421.56 195.958C388.61 193.789 353.863 194.674 321.072 198.516C293.626 201.731 267.751 209.491 243.596 217.16C237.553 219.088 231.125 221.195 224.494 223.419C222.837 223.979 221.166 224.548 219.472 225.122C191.652 234.582 160.173 245.285 119.774 245.285C119.092 245.285 118.414 245.283 117.726 245.275C90.3942 245.032 62.4888 241.601 35.4989 238.281C24.7987 236.964 13.7335 235.605 3.11607 234.504C-17.6226 232.357 -35.5836 231.723 -51.7964 232.57C-110.764 235.655 -160.538 248.134 -188.349 266.815L-188.825 266.266C-175.076 257.032 -155.196 249.014 -131.34 243.081C-107.875 237.245 -80.3862 233.373 -51.8448 231.881C-35.5864 231.031 -17.5798 231.665 3.20448 233.817C13.8333 234.918 24.9014 236.28 35.6044 237.594C62.5687 240.909 90.4484 244.337 117.729 244.581C158.97 244.952 190.962 234.07 219.184 224.473C220.875 223.898 222.549 223.329 224.206 222.767C230.842 220.54 237.273 218.434 243.322 216.505C267.517 208.821 293.44 201.052 320.961 197.827C353.803 193.98 388.607 193.092 421.611 195.264C450.27 197.15 477.593 201.604 505.142 208.876C533.515 216.367 561.503 226.677 590.706 240.4C629.731 258.737 669.965 283.545 710.287 314.133C730.681 329.652 752.532 346.078 775.706 361.339C828.819 396.323 879.673 420.346 931.178 434.776C949.988 440.055 969.675 444.559 989.683 448.163C1014.4 452.552 1038.56 455.496 1061.51 456.91C1100.12 459.293 1141.19 460.517 1181.59 447.333C1202.85 440.394 1220.85 429.625 1236.59 414.41C1264.65 387.307 1282.11 350.339 1297.52 317.722C1305.27 301.311 1312.6 285.81 1320.68 272.596C1323.59 267.828 1326.52 262.9 1329.36 258.136C1338.24 243.226 1347.41 227.811 1358.28 213.413C1370.84 196.64 1384.67 182.729 1399.37 172.066C1416.25 159.82 1433.84 152.257 1451.64 149.591C1462.76 147.923 1474.09 147.657 1486.26 148.771C1520.27 151.888 1554.82 167.291 1587.09 183.474C1616.89 198.416 1646.31 218.268 1672.17 240.884C1700.94 265.968 1727.44 295.829 1750.95 329.632C1771.96 359.862 1790.52 393.106 1806.09 428.446L1805.36 428.695C1772.26 353.574 1726.01 288.799 1671.62 241.371C1645.81 218.797 1616.45 198.983 1586.71 184.071C1554.51 167.926 1520.05 152.56 1486.19 149.455C1474.08 148.347 1462.83 148.613 1451.77 150.268C1418.91 155.191 1385.94 177.749 1358.94 213.789C1348.09 228.157 1338.93 243.557 1330.06 258.452C1327.22 263.219 1324.29 268.147 1321.37 272.919C1313.31 286.103 1305.99 301.589 1298.25 317.983C1282.81 350.65 1265.32 387.679 1237.18 414.871C1221.34 430.169 1203.25 440.998 1181.87 447.977C1163.31 454.031 1143.3 457.537 1120.67 458.688C1114.56 459.015 1108.47 459.142 1102.47 459.142Z" fill="white" fill-opacity="0.5"/>
<path d="M1131.17 461.858C1130.96 461.858 1130.76 461.858 1130.55 461.858C1110 461.813 1089.82 459.601 1070.92 457.339C1047.97 454.595 1023.79 450.279 999.023 444.516C979.077 439.824 959.491 434.279 940.811 428.04C891.286 411.521 842.499 386.008 787.273 347.746C767.384 333.97 747.812 319.136 728.881 304.794C726.514 302.998 724.145 301.205 721.775 299.412C681.287 268.861 639.71 245.3 598.201 229.385C541.361 207.595 484.036 198.616 422.949 201.939C389.454 203.763 354.738 208.746 322.555 216.349C297.162 222.351 274.536 231.978 247.591 243.941C242.13 246.376 236.298 249.004 229.242 252.214L228.849 252.395C215.237 258.629 199.809 265.694 182.503 271.066C162.629 277.235 143.348 280.204 123.576 280.169C92.7443 280.102 61.2797 275.056 30.8533 270.173C23.3986 268.977 15.6872 267.74 8.24384 266.622C-13.1023 263.419 -31.1716 261.802 -46.9966 261.679C-105.266 261.227 -157.175 268.821 -189.412 282.509L-189.783 281.832C-173.992 275.126 -152.692 269.684 -128.186 266.093C-103.634 262.494 -75.555 260.708 -46.988 260.929C-31.1174 261.052 -13.0025 262.672 8.38928 265.882C15.8383 267.001 23.5497 268.237 31.0073 269.433C61.3967 274.308 92.8213 279.349 123.578 279.417C123.715 279.417 123.855 279.417 123.992 279.417C167.988 279.417 201.505 264.069 228.455 251.728L228.852 251.547C235.91 248.335 241.742 245.706 247.206 243.271C274.196 231.289 296.863 221.644 322.336 215.625C354.573 208.006 389.345 203.015 422.898 201.189C452.791 199.564 480.987 200.803 509.103 204.981C539.401 209.483 568.659 217.24 598.543 228.698C640.132 244.643 681.78 268.242 722.334 298.843C724.703 300.636 727.073 302.431 729.44 304.227C748.362 318.564 767.929 333.393 787.801 347.159C842.956 385.374 891.671 410.851 941.113 427.343C959.768 433.575 979.326 439.109 999.243 443.797C1023.97 449.552 1048.12 453.861 1071.03 456.599C1112.06 461.51 1152.23 464.915 1192.52 452.837C1214.39 446.282 1232.51 435.445 1247.9 419.706C1275.7 391.275 1290.89 351.879 1304.3 317.117C1310.57 300.844 1316.5 285.471 1323.18 272.553C1325.75 267.582 1328.34 262.441 1330.83 257.468C1338.63 241.92 1346.7 225.844 1356.59 210.687C1367.98 193.109 1380.85 178.243 1394.84 166.501C1410.79 153.119 1427.79 144.211 1445.36 140.028C1456.26 137.435 1467.38 136.171 1479.33 136.171C1479.59 136.171 1479.85 136.171 1480.11 136.173C1517.26 136.344 1555.49 151.185 1584.65 164.096C1615.71 177.851 1646.14 197.001 1672.67 219.477C1702.22 244.445 1728.93 274.599 1752.07 309.105C1772.83 340.069 1790.45 374.093 1804.45 410.237L1803.64 410.48C1782.81 356.701 1743.07 280.006 1672.07 220.021C1645.61 197.596 1615.25 178.491 1584.26 164.768C1555.19 151.893 1517.08 137.094 1480.11 136.926C1467.93 136.863 1456.65 138.122 1445.59 140.755C1413.03 148.507 1381.69 173.475 1357.34 211.06C1347.47 226.183 1339.41 242.241 1331.61 257.772C1329.12 262.747 1326.53 267.891 1323.96 272.864C1317.29 285.749 1311.37 301.102 1305.11 317.358C1291.68 352.182 1276.46 391.653 1248.55 420.195C1233.05 436.04 1214.82 446.949 1192.8 453.547C1174.14 459.137 1153.97 461.858 1131.17 461.858Z" fill="white" fill-opacity="0.5"/>
<path d="M1154 465.39C1149.57 465.39 1145.05 465.264 1140.41 465.014C1120.14 463.918 1100.44 460.63 1080.37 457.069C1057.09 452.941 1033.59 447.418 1008.51 440.186C988.665 434.413 969.206 427.837 950.672 420.637C903.654 402.4 856.969 375.553 799.302 333.592C784.98 323.172 770.663 312.243 756.818 301.672C749.28 295.919 741.489 289.968 733.769 284.157C692.799 253.401 649.833 231.061 606.063 217.754C548.23 200.172 488.792 196.952 424.346 207.911C390.297 213.702 355.613 222.783 324.046 234.171C298.687 243.319 276.597 256.167 253.209 269.77L251.592 270.71C247.938 272.842 244.245 275.004 240.507 277.19C238.353 278.452 236.186 279.721 233.999 281C220.361 289.017 205.631 297.381 188.74 303.819C169.127 311.292 149.729 314.969 129.43 315.059C95.6352 315.204 61.1648 308.298 27.8324 301.612C23.0755 300.656 18.1532 299.671 13.3763 298.735C-9.01927 294.347 -26.6751 291.821 -42.1949 290.783C-99.4658 286.954 -153.514 289.652 -190.486 298.189L-190.722 297.401C-153.654 288.842 -99.4943 286.133 -42.1236 289.97C-26.561 291.011 -8.85957 293.544 13.5788 297.94C18.3585 298.878 23.2808 299.864 28.0406 300.819C60.9652 307.423 94.9992 314.246 128.346 314.246C128.705 314.246 129.065 314.246 129.427 314.244C172.558 314.053 203.261 298.088 233.488 280.323C235.675 279.044 237.843 277.775 239.996 276.513C243.735 274.324 247.425 272.165 251.081 270.031L252.698 269.09C276.126 255.465 298.254 242.595 323.695 233.416C355.319 222.005 390.063 212.909 424.172 207.109C488.78 196.122 548.378 199.352 606.368 216.982C650.247 230.324 693.312 252.714 734.373 283.538C742.093 289.351 749.887 295.3 757.425 301.055C771.265 311.623 785.578 322.55 799.892 332.963C857.491 374.876 904.11 401.685 951.046 419.892C969.554 427.08 988.984 433.648 1008.8 439.411C1033.84 446.633 1057.31 452.148 1080.55 456.269C1115.83 462.526 1159.73 470.315 1203.45 458.318C1225.93 452.151 1244.17 441.247 1259.2 424.981C1286.74 395.187 1299.51 353.284 1310.77 316.315C1315.67 300.255 1320.29 285.085 1325.69 272.496C1327.79 267.59 1329.89 262.517 1331.93 257.609C1338.76 241.15 1345.83 224.132 1354.91 207.946C1365.14 189.551 1377.05 173.729 1390.31 160.919C1405.33 146.403 1421.74 136.154 1439.08 130.454C1450.21 126.795 1461.62 124.54 1473.95 123.559C1490.47 122.245 1508.05 123.65 1527.7 127.843C1544.33 131.394 1562.15 136.906 1582.19 144.698C1614.52 157.265 1645.97 175.715 1673.16 198.053C1703.5 222.903 1730.42 253.356 1753.18 288.561C1773.68 320.263 1790.38 355.067 1802.81 392.01L1801.92 392.241C1775.67 314.246 1729.71 245.494 1672.53 198.65C1645.41 176.372 1614.04 157.975 1581.82 145.445C1538.63 128.658 1504.39 121.959 1474.03 124.372C1461.78 125.345 1450.46 127.585 1439.41 131.216C1398.15 144.776 1371.14 180.623 1355.74 208.305C1346.68 224.45 1339.63 241.449 1332.8 257.888C1330.76 262.798 1328.65 267.874 1326.55 272.782C1321.17 285.333 1316.56 300.486 1311.67 316.526C1300.38 353.575 1287.58 395.566 1259.92 425.495C1244.77 441.889 1226.39 452.881 1203.73 459.098C1188.37 463.311 1171.99 465.39 1154 465.39Z" fill="white" fill-opacity="0.5"/>
<path d="M1173.77 469.437C1143.61 469.437 1114.62 462.623 1089.81 456.795C1066.48 451.313 1042.98 444.461 1017.99 435.852C998.257 429.005 978.924 421.397 960.529 413.234C905.389 388.792 856.231 353.71 811.326 319.437C802.157 312.441 792.895 305.228 783.94 298.254C771.506 288.568 758.647 278.554 745.762 268.904C704.179 237.845 659.824 216.721 613.932 206.12C554.565 192.41 493.008 194.945 425.744 213.874C391.111 223.62 356.461 236.799 325.539 251.986C301.689 263.698 281.509 278.484 260.146 294.138C258.631 295.247 257.114 296.36 255.588 297.474L254.761 298.081C249.568 301.89 244.198 305.827 238.754 309.78C225.709 319.292 211.345 329.13 194.73 336.646C175.443 345.371 155.999 349.722 135.28 349.948C98.9132 350.347 61.8476 341.356 26.0056 332.661C23.4931 332.052 20.992 331.445 18.5023 330.846C-5.13383 325.143 -22.3761 321.762 -37.3997 319.881C-93.2333 312.894 -149.426 310.698 -191.571 313.855L-191.656 312.98C-149.443 309.815 -93.1677 312.014 -37.26 319.011C-22.1936 320.897 -4.91423 324.285 18.7647 329.998C21.2544 330.597 23.7554 331.204 26.2708 331.816C62.0444 340.493 99.0387 349.461 135.266 349.07C180.259 348.579 211.946 328.182 238.115 309.103C243.559 305.15 248.929 301.213 254.122 297.406L254.949 296.799C256.475 295.683 257.992 294.572 259.507 293.464C280.907 277.782 301.121 262.971 325.051 251.219C356.031 236.004 390.746 222.802 425.439 213.039C457.328 204.066 487.281 198.885 517.006 197.2C550.165 195.321 582.858 198.037 614.183 205.273C660.221 215.906 704.707 237.09 746.407 268.235C759.3 277.89 772.162 287.906 784.599 297.594C793.553 304.568 802.81 311.778 811.976 318.773C856.836 353.008 905.934 388.052 960.974 412.449C979.343 420.599 998.647 428.198 1018.35 435.034C1043.31 443.631 1066.76 450.473 1090.07 455.947C1125.85 464.354 1170.37 474.816 1214.37 463.807C1237.46 458.029 1255.82 447.057 1270.49 430.264C1297.74 399.069 1307.94 354.588 1316.94 315.34C1320.55 299.57 1323.97 284.676 1328.18 272.445C1329.73 267.921 1331.3 263.247 1332.81 258.725C1338.72 241.04 1344.84 222.75 1353.2 205.212C1362.3 185.985 1373.26 169.202 1385.76 155.336C1399.87 139.69 1415.69 128.098 1432.79 120.883C1443.89 116.199 1455.33 112.951 1467.77 110.952C1484.53 108.261 1503.13 108.352 1523.04 111.221C1540.48 113.733 1559.55 118.471 1579.72 125.305C1613.3 136.683 1645.78 154.431 1673.64 176.63C1704.77 201.365 1731.9 232.112 1754.29 268.019C1774.51 300.458 1790.28 336.044 1801.16 373.788L1800.19 374.003C1777.15 294.028 1731.97 224.164 1672.97 177.282C1645.2 155.156 1612.83 137.465 1579.36 126.125C1535.98 111.426 1499.54 106.744 1467.95 111.817C1455.61 113.801 1444.24 117.026 1433.22 121.676C1392.53 138.842 1367.75 176.761 1354.13 205.551C1345.78 223.043 1339.67 241.308 1333.77 258.971C1332.25 263.492 1330.69 268.169 1329.13 272.699C1324.94 284.889 1321.53 299.763 1317.92 315.513C1313.59 334.394 1308.68 355.794 1301.56 375.857C1293.4 398.844 1283.5 416.815 1271.28 430.799C1264.22 438.884 1256.1 445.765 1247.15 451.253C1237.53 457.154 1226.6 461.663 1214.65 464.652C1200.97 468.075 1187.25 469.437 1173.77 469.437Z" fill="white" fill-opacity="0.5"/>
<path d="M1191.59 473.878C1181.62 473.878 1171.18 473.026 1160.14 471.323C1138.41 467.97 1117.61 461.886 1099.26 456.522C1076.12 449.758 1051.97 441.344 1027.47 431.516C1007.86 423.606 988.654 414.964 970.385 405.825C917.948 379.626 872.771 344.789 823.349 305.28C818.957 301.769 814.497 298.188 810.185 294.722C793.202 281.082 775.643 266.978 757.753 253.651C715.48 222.228 669.74 202.323 621.8 194.489C561.329 184.605 495.833 193.132 427.141 219.835C391.892 233.538 357.273 250.812 327.029 269.794C304.257 284.087 285.512 300.937 265.666 318.778C263.65 320.591 261.625 322.409 259.589 324.235C254.521 328.784 249.063 333.667 243.51 338.555C231.866 348.839 217.675 360.559 200.721 369.469C181.742 379.445 162.249 384.473 141.134 384.837C102.48 385.507 63.1332 374.251 25.0809 363.367L23.6322 362.954C5.00101 357.627 -14.7081 352.245 -32.6007 348.977C-87.1395 339.019 -143.98 332.104 -192.647 329.509L-192.581 328.571C-143.863 331.169 -86.9712 338.088 -32.3839 348.057C-14.4401 351.335 5.30331 356.724 23.963 362.058L25.4117 362.472C63.3813 373.331 102.648 384.559 141.114 383.894C185.538 383.127 216.218 361.328 242.754 337.885C248.307 333 253.76 328.117 258.827 323.57C260.864 321.747 262.888 319.926 264.905 318.116C284.785 300.245 303.564 283.364 326.411 269.024C356.711 250.005 391.396 232.698 426.71 218.97C458.939 206.444 490.654 197.811 520.97 193.317C555.608 188.184 589.6 188.264 621.999 193.558C670.122 201.423 716.031 221.398 758.446 252.929C776.35 266.268 793.918 280.378 810.909 294.025C815.221 297.489 819.681 301.07 824.073 304.581C873.447 344.052 918.575 378.851 970.918 405.005C989.161 414.129 1008.34 422.758 1027.92 430.658C1052.38 440.471 1076.5 448.873 1099.6 455.626C1135.81 466.214 1180.87 479.388 1225.31 469.294C1249.01 463.91 1267.49 452.873 1281.79 435.548C1308.75 402.909 1316.55 353.712 1322.81 314.181C1325.26 298.783 1327.56 284.24 1330.68 272.403C1331.67 268.671 1332.66 264.826 1333.63 261.107C1338.62 241.787 1343.78 221.807 1351.52 202.486C1363.48 172.419 1386.2 132.199 1426.51 111.326C1437.64 105.563 1449.12 101.319 1461.61 98.3551C1494.3 90.4879 1533.21 93.0334 1577.27 105.916C1612.11 116.106 1645.61 133.152 1674.14 155.213C1706.05 179.83 1733.4 210.872 1755.41 247.485C1765.51 264.277 1774.43 282.213 1781.94 300.794C1789.11 318.542 1795.02 336.972 1799.52 355.573L1798.47 355.769C1778.66 273.807 1734.25 202.832 1673.43 155.918C1645.01 133.939 1611.64 116.958 1576.93 106.807C1533.08 93.9814 1494.37 91.4434 1461.89 99.2604C1449.49 102.202 1438.1 106.413 1427.05 112.133C1387.01 132.861 1364.43 172.876 1352.53 202.795C1344.81 222.065 1339.65 242.017 1334.67 261.313C1333.71 265.032 1332.71 268.879 1331.73 272.613C1328.61 284.41 1326.31 298.933 1323.87 314.309C1320.72 334.201 1317.14 356.747 1311.04 378.026C1304.02 402.477 1294.73 421.474 1282.66 436.1C1275.77 444.444 1267.71 451.481 1258.71 457.013C1249.01 462.974 1237.86 467.413 1225.58 470.202C1214.79 472.655 1203.53 473.878 1191.59 473.878Z" fill="white" fill-opacity="0.5"/>
<path d="M1223.46 483.451C1209.84 483.451 1195.42 481.515 1179.87 477.628C1157.88 472.128 1136.76 463.539 1118.14 455.963C1094.6 446.388 1070.47 435.24 1046.42 422.836C1027.08 412.83 1008.13 402.119 990.088 391.007C945.665 363.651 907.698 330.139 867.501 294.658C860.93 288.857 854.134 282.861 847.393 276.965C823.694 256.25 803.457 239.169 781.734 223.146C737.958 190.903 689.448 173.431 637.548 171.214C572.331 168.427 502.475 188.791 429.924 231.738C393.882 253.075 358.394 279.232 329.998 305.394C308.606 325.103 291.883 346.558 274.179 369.271C271.986 372.085 269.784 374.909 267.568 377.735C263.621 382.779 258.397 389.424 253.004 396.088C230.309 424.196 200.658 453.134 152.829 454.613C151.338 454.656 149.841 454.676 148.346 454.676C110.998 454.676 72.8692 441.678 33.8615 427.165L31.426 426.252C12.1047 418.999 -6.14711 412.151 -23.0415 407.165C-86.7091 388.376 -148.283 372.516 -194.814 360.8L-194.481 359.774C-147.938 371.496 -86.3469 387.358 -22.6565 406.154C-5.71649 411.152 12.5553 418.011 31.9023 425.272L34.3349 426.184C74.7714 441.229 114.261 454.649 152.787 453.55C200.085 452.086 229.487 423.371 252.014 395.473C257.404 388.815 262.623 382.174 266.57 377.133C268.786 374.305 270.985 371.483 273.178 368.669C290.91 345.921 307.659 324.431 329.12 304.659C357.573 278.442 393.132 252.232 429.245 230.853C462.763 211.011 496.292 195.775 528.901 185.566C566.314 173.852 602.889 168.666 637.605 170.148C689.774 172.375 738.529 189.932 782.51 222.326C804.264 238.374 824.521 255.472 848.242 276.205C854.987 282.101 861.783 288.1 868.357 293.9C908.514 329.346 946.443 362.826 990.781 390.127C1008.8 401.226 1027.72 411.92 1047.03 421.911C1071.04 434.3 1095.14 445.43 1118.64 454.99C1155.54 469.999 1201.46 488.678 1247.16 480.269C1272.14 475.672 1290.86 464.502 1304.37 446.122C1330.75 410.493 1332.33 355.508 1333.61 311.327C1334.02 296.912 1334.42 283.295 1335.68 272.323L1335.7 272.072C1338.52 247.502 1341.44 222.098 1348.13 197.032C1353.92 175.168 1361.99 155.512 1372.1 138.604C1383.51 119.542 1397.58 103.933 1413.91 92.2087C1424.84 84.3641 1436.4 78.1321 1449.26 73.1591C1483.98 59.6442 1526.54 57.5577 1572.32 67.1302C1590.75 70.9822 1608.92 76.818 1626.35 84.472C1643.87 92.1711 1660.28 101.558 1675.1 112.367C1708.6 136.746 1736.36 168.385 1757.63 206.406C1776.74 240.581 1790.08 279.565 1796.22 319.142L1795.02 319.285C1781.89 234.579 1737.91 159.459 1674.33 113.187C1644.6 91.514 1609.23 75.9453 1572.05 68.1734C1526.52 58.6561 1484.23 60.7201 1449.75 74.1421C1437 79.0776 1425.53 85.2594 1414.68 93.0413C1384.19 114.932 1361.58 150.978 1349.31 197.28C1342.64 222.281 1339.73 247.65 1336.91 272.185L1336.88 272.436C1335.63 283.367 1335.24 296.965 1334.82 311.36C1333.54 355.676 1331.95 410.826 1305.39 446.706C1298.87 455.569 1290.94 462.922 1281.8 468.56C1271.96 474.639 1260.39 478.93 1247.41 481.32C1239.68 482.739 1231.72 483.451 1223.46 483.451Z" fill="white" fill-opacity="0.5"/>
<path d="M153.717 489.593C137.016 489.593 118.83 486.732 98.3051 480.888C77.9115 475.083 57.7431 467.067 38.9837 459.273C35.5871 457.854 32.2162 456.437 28.8681 455.03C12.2019 448.025 -3.54033 441.41 -18.253 436.256C-76.9185 415.714 -132.838 397.251 -186.917 379.4L-195.878 376.441L-195.427 375.385L-186.467 378.345C-132.384 396.201 -76.4565 414.663 -17.7796 435.21C-3.02699 440.376 12.7352 447 29.4214 454.014C32.7666 455.421 36.1375 456.838 39.5312 458.255C78.0398 474.255 118.952 489.761 158.633 488.379C207.411 486.594 236.643 453.179 256.657 424.271C261.785 416.878 266.724 409.51 270.454 403.917C272.513 400.835 274.558 397.755 276.597 394.683C293.509 369.216 309.482 345.161 330.489 322.48C358.217 292.546 393.743 262.116 430.526 236.799C464.651 213.31 499.087 194.752 532.882 181.641C571.644 166.602 609.505 158.797 645.413 158.444C699.444 157.736 749.628 174.083 794.551 207.023C819.453 225.305 841.78 245.082 860.34 262.018C870.439 271.234 880.537 280.681 890.305 289.817C924.878 322.161 960.629 355.603 1000.72 382.691C1018.63 394.794 1037.43 406.52 1056.59 417.542C1080.31 431.152 1104.39 443.647 1128.17 454.676C1165.35 471.915 1211.61 493.37 1258.1 485.756C1283.68 481.565 1302.51 470.33 1315.67 451.408C1341.69 414.164 1339.94 356.168 1338.52 309.567C1338.11 295.786 1337.71 282.768 1338.19 272.288C1339.25 248.661 1340.87 221.203 1346.45 194.308C1351.15 171.52 1358.25 150.902 1367.55 133.032C1378.08 112.816 1391.56 95.8677 1407.63 82.6563C1418.27 73.9014 1430.21 66.4706 1443.09 60.5671C1461.47 52.1157 1482.1 46.8015 1504.4 44.7752C1525.29 42.8768 1547.31 43.8749 1569.86 47.7395C1588.87 50.9997 1607.61 56.3615 1625.56 63.6794C1643.61 71.0424 1660.45 80.2162 1675.59 90.9448C1693.05 103.298 1709.11 117.887 1723.31 134.306C1736.76 149.862 1748.68 167.211 1758.75 185.869C1777.58 220.776 1789.96 260.566 1794.57 300.93L1793.3 301.043C1783.4 214.364 1740.2 138.107 1674.79 91.825C1644.83 70.6036 1607.48 55.3408 1569.61 48.8479C1522.79 40.8203 1479.24 45.2191 1443.68 61.5678C1430.9 67.4236 1419.07 74.7967 1408.5 83.4814C1378.23 108.374 1357.77 145.729 1347.71 194.512C1342.14 221.333 1340.53 248.744 1339.47 272.333C1338.99 282.775 1339.39 295.774 1339.81 309.537C1340.5 332.526 1341.29 358.585 1338.64 383.777C1335.57 413.008 1328.41 435.323 1316.76 451.998C1310.42 461.121 1302.54 468.632 1293.35 474.32C1283.43 480.464 1271.65 484.685 1258.33 486.864C1251.62 487.965 1244.91 488.464 1238.24 488.464C1198.29 488.464 1159.58 470.513 1127.58 455.672C1103.76 444.625 1079.64 432.113 1055.89 418.483C1036.7 407.446 1017.88 395.701 999.944 383.581C959.767 356.439 923.979 322.961 889.372 290.587C879.607 281.454 869.512 272.009 859.419 262.798C840.885 245.882 818.589 226.133 793.732 207.886C749.052 175.121 699.162 158.87 645.433 159.567C561.055 160.4 482.424 202.504 431.319 237.682C394.61 262.948 359.156 293.313 331.487 323.187C310.543 345.8 294.592 369.818 277.707 395.245C275.668 398.317 273.62 401.397 271.561 404.481C267.828 410.076 262.886 417.45 257.755 424.85C249.353 436.986 236.164 454.651 218.693 467.893C210.209 474.323 201.18 479.376 191.857 482.915C181.462 486.859 170.3 489.076 158.687 489.5C157.042 489.563 155.385 489.593 153.717 489.593Z" fill="white" fill-opacity="0.5"/>
<path d="M159.078 524.507C142.358 524.507 124.209 521.425 103.792 515.135C82.6542 508.625 61.7558 499.471 44.1028 491.373C38.6786 488.88 33.2658 486.353 28.0298 483.907C13.3941 477.073 -0.431717 470.616 -13.4675 465.344C-60.2807 446.41 -106.789 427.925 -151.768 410.046C-166.646 404.133 -182.029 398.018 -196.939 392.08L-196.38 390.994C-181.47 396.933 -166.087 403.047 -151.209 408.96C-106.23 426.839 -59.716 445.327 -12.9 464.263C0.170029 469.55 14.0129 476.013 28.6657 482.857C33.8989 485.302 39.3117 487.827 44.7302 490.32C81.3423 507.108 123.809 524.878 164.474 523.205C214.401 521.104 242.444 484.617 261.3 453.066C266.134 444.983 270.808 436.868 274.339 430.701C276.152 427.536 277.955 424.373 279.754 421.219C295.93 392.842 311.207 366.041 331.861 340.303C358.722 306.828 394.219 272.182 431.807 242.747C484.152 201.932 565.057 152.146 653.219 146.747C709.286 143.221 760.891 158.353 806.591 191.728C827.125 206.73 847.43 224.034 872.435 247.841C885.072 259.871 897.611 272.34 909.737 284.395C941.287 315.761 973.907 348.195 1010.66 375.267C1028.47 388.386 1047.14 401.143 1066.16 413.186C1089.18 427.754 1113.26 441.612 1137.7 454.377C1175.25 473.866 1221.99 498.124 1269.03 491.258C1294.82 487.571 1314.31 475.947 1326.96 456.712C1352.63 417.783 1347.12 354.093 1343.1 307.59C1341.97 294.539 1340.9 282.213 1340.69 272.27C1340.22 250.171 1340.26 221.032 1344.76 191.602C1352.52 140.605 1371.56 100.74 1401.34 73.1212C1411.78 63.3908 1423.75 54.9368 1436.92 47.9926C1455.65 38.1016 1476.79 31.4483 1499.74 28.2206C1521.37 25.1811 1544.12 25.2288 1567.39 28.3636C1587.02 31.0671 1606.32 35.9674 1624.76 42.9242C1643.38 49.9512 1660.64 58.9042 1676.08 69.535C1693.93 81.8185 1710.24 96.4568 1724.55 113.046C1738.11 128.768 1749.99 146.363 1759.87 165.347C1778.4 200.989 1789.84 241.581 1792.93 282.735L1791.58 282.813C1784.92 194.155 1742.52 116.76 1675.25 70.4754C1644.75 49.4772 1606.37 34.9392 1567.18 29.5423C1518.87 23.0344 1474.07 29.768 1437.62 49.0158C1424.56 55.9023 1412.69 64.2886 1402.33 73.9413C1372.75 101.377 1353.83 141.016 1346.11 191.763C1341.62 221.112 1341.58 250.193 1342.05 272.25C1342.26 282.158 1343.32 294.469 1344.45 307.503C1346.53 331.54 1348.89 358.788 1347.54 385.389C1345.97 416.363 1339.62 439.89 1328.14 457.312C1321.96 466.709 1314.14 474.383 1304.9 480.121C1294.89 486.343 1282.9 490.485 1269.25 492.437C1248.09 495.524 1225.32 492.75 1199.63 483.955C1177.29 476.309 1155.89 465.204 1137.02 455.408C1112.54 442.626 1088.43 428.747 1065.37 414.159C1046.33 402.099 1027.63 389.324 1009.8 376.188C972.963 349.06 940.306 316.591 908.725 285.193C896.605 273.14 884.068 260.678 871.443 248.658C846.48 224.894 826.212 207.622 805.727 192.656C760.297 159.472 709.021 144.429 653.31 147.933C565.527 153.312 484.891 202.945 432.702 243.638C395.189 273.012 359.766 307.585 332.961 340.99C312.365 366.655 297.111 393.419 280.961 421.753C279.161 424.91 277.359 428.073 275.545 431.237C272.012 437.409 267.335 445.532 262.495 453.623C243.473 485.455 215.148 522.268 164.534 524.397C162.734 524.469 160.912 524.507 159.078 524.507Z" fill="white" fill-opacity="0.5"/>
<path d="M164.548 559.424C118.861 559.424 70.924 534.749 28.4286 512.873C15.3699 506.152 3.03571 499.802 -8.68541 494.433L-198 407.719L-197.341 406.608L-8.02664 493.322C3.72585 498.704 16.0744 505.061 29.1501 511.793C73.2882 534.514 123.318 560.267 170.314 558.035C221.342 555.615 248.224 516.056 265.942 481.866C271.737 470.684 277.333 459.306 282.745 448.301C297.549 418.207 312.855 387.087 333.226 358.124C349.402 335.127 369.496 311.009 391.335 288.381C415.294 263.555 440.946 240.779 467.574 220.686C496.934 198.534 526.787 180.209 556.301 166.223C588.946 150.755 621.106 140.656 651.895 136.204C713.572 127.289 769.668 140.819 818.62 176.422C859.302 206.008 893.878 242.592 927.316 277.973C956.422 308.769 986.517 340.612 1020.6 367.832C1059.96 399.27 1102.56 428.284 1147.23 454.062C1184.86 475.782 1231.69 502.817 1279.96 496.74C1320.72 491.609 1344.29 467.624 1352.01 423.411C1358.58 385.803 1352.33 341.191 1347.31 305.346C1345.6 293.13 1343.99 281.592 1343.2 272.235C1338.82 220.653 1341.61 178.073 1351.72 142.062C1358.03 119.595 1367.34 99.5669 1379.39 82.536C1392.84 63.5115 1410.12 47.6518 1430.74 35.3984C1448.58 24.7978 1468.68 17.0986 1490.5 12.5143C1511.26 8.15063 1533.12 6.68856 1555.48 8.16819C1599.44 11.0773 1642.44 25.2617 1676.56 48.1057C1694.8 60.3165 1711.36 75.0075 1725.78 91.7674C1739.45 107.652 1751.29 125.496 1760.97 144.806C1779.22 181.182 1789.69 222.579 1791.27 264.518L1789.84 264.561C1786.48 175.251 1743.81 94.7066 1675.69 49.1064C1603.36 0.679739 1500.67 -4.64944 1431.53 36.4392C1363.04 77.1416 1334.61 154.241 1344.61 272.142C1345.4 281.469 1347.02 292.992 1348.73 305.193C1353.75 341.116 1360.01 385.823 1353.42 423.601C1349.82 444.178 1342.6 460.715 1331.96 472.755C1325.97 479.524 1318.75 485.056 1310.5 489.194C1301.72 493.598 1291.51 496.555 1280.16 497.984C1275.52 498.569 1270.8 498.862 1266 498.862C1248.51 498.862 1229.88 494.972 1209.46 487.093C1186.47 478.215 1164.27 465.405 1146.44 455.113C1101.72 429.297 1059.05 400.246 1019.63 368.762C985.476 341.484 955.349 309.604 926.212 278.775C892.817 243.44 858.284 206.9 817.705 177.391C769.081 142.03 713.37 128.588 652.117 137.443C528.216 155.354 400.584 264.736 334.43 358.786C314.113 387.669 298.827 418.746 284.043 448.8C278.627 459.81 273.029 471.195 267.229 482.388C255.465 505.087 243.846 521.34 230.665 533.533C222.437 541.142 213.511 547.141 204.134 551.361C193.708 556.054 182.352 558.722 170.38 559.291C168.446 559.379 166.498 559.424 164.548 559.424Z" fill="white" fill-opacity="0.5"/>
</svg>
