<svg width="898" height="1036" viewBox="0 0 898 1036" fill="none" xmlns="http://www.w3.org/2000/svg">
<g opacity="0.3">
<ellipse rx="5.26716" ry="4.66667" transform="matrix(-1 0 0 1 65.4633 647.333)" fill="#E77E42"/>
<ellipse cx="841.993" cy="91.3334" rx="5.26716" ry="4.66667" fill="#1BEAFF"/>
<ellipse rx="5.26716" ry="4.66667" transform="matrix(-1 0 0 1 191.875 368.667)" fill="#E77E42"/>
<ellipse cx="805.875" cy="902" rx="5.26716" ry="4.66667" fill="#E77E42"/>
<ellipse cx="539.507" cy="80.6666" rx="3.76225" ry="3.33333" fill="white"/>
<ellipse rx="3.76225" ry="3.33333" transform="matrix(-1 0 0 1 799.855 340.667)" fill="white"/>
<ellipse cx="197.895" cy="874" rx="3.76225" ry="3.33333" fill="white"/>
<ellipse cx="745.679" cy="70" rx="3.76225" ry="3.33333" fill="white"/>
<ellipse rx="3.76225" ry="3.33333" transform="matrix(-1 0 0 1 348.385 314)" fill="white"/>
<ellipse cx="790.826" cy="199.333" rx="3.76225" ry="3.33333" fill="white"/>
<ellipse rx="3.76225" ry="3.33333" transform="matrix(-1 0 0 1 32.3554 431.333)" fill="white"/>
<ellipse cx="677.958" cy="178" rx="5.26716" ry="4.66667" fill="#E77E42"/>
<ellipse rx="5.26716" ry="4.66667" transform="matrix(-1 0 0 1 386.007 830)" fill="#E77E42"/>
<ellipse cx="51.919" cy="215.333" rx="5.26716" ry="4.66667" fill="#1BEAFF"/>
<ellipse cx="42.8897" cy="1002" rx="5.26716" ry="4.66667" fill="#1BEAFF"/>
<ellipse cx="676.453" cy="287.333" rx="3.76225" ry="3.33333" fill="#1BEAFF"/>
<ellipse cx="341.613" cy="82.6666" rx="1.5049" ry="1.33333" fill="white"/>
<ellipse rx="1.5049" ry="1.33333" transform="matrix(-1 0 0 1 785.559 432)" fill="white"/>
<ellipse cx="212.191" cy="965.333" rx="1.5049" ry="1.33333" fill="white"/>
<ellipse cx="656.137" cy="1.33333" rx="1.5049" ry="1.33333" fill="white"/>
<ellipse rx="1.5049" ry="1.33333" transform="matrix(-1 0 0 1 895.417 534.667)" fill="white"/>
<ellipse cx="788.569" cy="956" rx="1.5049" ry="1.33333" fill="white"/>
<ellipse rx="1.5049" ry="1.33333" transform="matrix(-1 0 0 1 881.873 468)" fill="white"/>
<ellipse rx="1.5049" ry="1.33333" transform="matrix(-1 0 0 1 720.848 777.333)" fill="white"/>
<ellipse cx="495.113" cy="296" rx="1.5049" ry="1.33333" fill="white"/>
<ellipse rx="1.5049" ry="1.33333" transform="matrix(-1 0 0 1 677.206 829.333)" fill="white"/>
<ellipse cx="517.686" cy="281.333" rx="1.5049" ry="1.33333" fill="white"/>
<ellipse rx="1.5049" ry="1.33333" transform="matrix(-1 0 0 1 654.632 814.667)" fill="white"/>
<ellipse cx="191.123" cy="169.333" rx="1.5049" ry="1.33333" fill="white"/>
<ellipse rx="1.5049" ry="1.33333" transform="matrix(-1 0 0 1 872.843 702.667)" fill="white"/>
<ellipse rx="1.5049" ry="1.33333" transform="matrix(-1 0 0 1 197.142 682.667)" fill="white"/>
<ellipse rx="1.5049" ry="1.33333" transform="matrix(-1 0 0 1 1.50486 754.667)" fill="white"/>
<ellipse rx="1.5049" ry="1.33333" transform="matrix(-1 0 0 1 502.637 344)" fill="white"/>
<ellipse cx="707.304" cy="241.333" rx="1.5049" ry="1.33333" fill="white"/>
<ellipse rx="1.5049" ry="1.33333" transform="matrix(-1 0 0 1 377.73 774.667)" fill="white"/>
<ellipse rx="1.5049" ry="1.33333" transform="matrix(-1 0 0 1 367.196 506.667)" fill="white"/>
<ellipse rx="1.5049" ry="1.33333" transform="matrix(-1 0 0 1 501.132 501.333)" fill="white"/>
<ellipse cx="671.186" cy="1034.67" rx="1.5049" ry="1.33333" fill="white"/>
<ellipse rx="1.5049" ry="1.33333" transform="matrix(-1 0 0 1 738.907 504)" fill="white"/>
<ellipse rx="1.5049" ry="1.33333" transform="matrix(-1 0 0 1 365.691 438.667)" fill="white"/>
<ellipse rx="1.5049" ry="1.33333" transform="matrix(-1 0 0 1 689.245 441.333)" fill="white"/>
<ellipse cx="194.132" cy="60" rx="1.5049" ry="1.33333" fill="white"/>
<ellipse cx="191.123" cy="246.667" rx="1.5049" ry="1.33333" fill="white"/>
<ellipse rx="1.5049" ry="1.33333" transform="matrix(-1 0 0 1 806.627 780)" fill="white"/>
<ellipse rx="1.5049" ry="1.33333" transform="matrix(-1 0 0 1 713.323 529.333)" fill="white"/>
<ellipse cx="210.686" cy="1034.67" rx="1.5049" ry="1.33333" fill="white"/>
<ellipse cx="206.172" cy="936" rx="1.5049" ry="1.33333" fill="white"/>
<ellipse rx="1.5049" ry="1.33333" transform="matrix(-1 0 0 1 833.716 366.667)" fill="white"/>
<ellipse cx="683.226" cy="46.6666" rx="1.5049" ry="1.33333" fill="white"/>
<ellipse cx="743.422" cy="132" rx="1.5049" ry="1.33333" fill="white"/>
<ellipse rx="1.5049" ry="1.33333" transform="matrix(-1 0 0 1 373.216 674.667)" fill="white"/>
<ellipse rx="1.5049" ry="1.33333" transform="matrix(-1 0 0 1 350.642 376)" fill="white"/>
<ellipse cx="734.392" cy="909.333" rx="1.5049" ry="1.33333" fill="white"/>
<ellipse cx="793.836" cy="264.667" rx="3.76225" ry="3.33333" fill="white"/>
<ellipse rx="3.76225" ry="3.33333" transform="matrix(-1 0 0 1 175.321 792.667)" fill="white"/>
<ellipse cx="487.588" cy="134.667" rx="1.5049" ry="1.33333" fill="white"/>
<ellipse rx="1.5049" ry="1.33333" transform="matrix(-1 0 0 1 684.73 668)" fill="white"/>
<ellipse rx="1.5049" ry="1.33333" transform="matrix(-1 0 0 1 678.711 357.333)" fill="white"/>
<ellipse cx="549.289" cy="190.667" rx="1.5049" ry="1.33333" fill="white"/>
<ellipse rx="1.5049" ry="1.33333" transform="matrix(-1 0 0 1 544.774 724)" fill="white"/>
<ellipse rx="1.5049" ry="1.33333" transform="matrix(-1 0 0 1 553.804 434.667)" fill="white"/>
<ellipse cx="540.26" cy="968" rx="1.5049" ry="1.33333" fill="white"/>
<ellipse cx="868.328" cy="21.3333" rx="1.5049" ry="1.33333" fill="white"/>
<ellipse cx="883.377" cy="893.333" rx="1.5049" ry="1.33333" fill="white"/>
<ellipse rx="1.5049" ry="1.33333" transform="matrix(-1 0 0 1 690.75 624)" fill="white"/>
<ellipse cx="796.093" cy="77.3333" rx="1.5049" ry="1.33333" fill="white"/>
<ellipse rx="1.5049" ry="1.33333" transform="matrix(-1 0 0 1 72.2353 298.667)" fill="white"/>
<ellipse cx="847.26" cy="1032" rx="1.5049" ry="1.33333" fill="white"/>
<ellipse cx="824.686" cy="218.667" rx="1.5049" ry="1.33333" fill="white"/>
<ellipse cx="398.799" cy="37.3333" rx="1.5049" ry="1.33333" fill="white"/>
<ellipse cx="383.75" cy="194.667" rx="1.5049" ry="1.33333" fill="white"/>
<ellipse rx="1.5049" ry="1.33333" transform="matrix(-1 0 0 1 701.284 728)" fill="white"/>
<ellipse cx="776.529" cy="4.00002" rx="1.5049" ry="1.33333" fill="white"/>
<ellipse cx="848.765" cy="172" rx="1.5049" ry="1.33333" fill="white"/>
<ellipse rx="1.5049" ry="1.33333" transform="matrix(-1 0 0 1 225.735 740)" fill="white"/>
<ellipse rx="1.5049" ry="1.33333" transform="matrix(-1 0 0 1 70.7304 416)" fill="white"/>
</g>
</svg>
