<svg width="1332" height="151" viewBox="0 0 1332 151" fill="none" xmlns="http://www.w3.org/2000/svg">
<path d="M-270.233 9.55543C-397.193 8.47264 -457.218 21.3075 -557.281 52.6167V570.74C-417.219 402.525 395.719 345.71 595.504 490.173C795.29 634.637 1773.55 570.74 1773.55 570.74L1748.29 52.6167C1748.29 52.6167 1091.52 198.471 882.552 104.013C673.581 9.55544 35.1862 4 35.1862 4L-270.233 9.55543Z" fill="white" stroke="white"/>
<path d="M-290.952 13.819C-417.912 12.6968 -477.937 25.9984 -578 58.4461V595.41C-437.938 421.078 375 362.197 574.785 511.914C774.571 661.631 1752.83 595.41 1752.83 595.41L1727.57 58.4461C1727.57 58.4461 1070.8 209.604 861.833 111.711C652.862 13.819 14.4673 8.06152 14.4673 8.06152L-290.952 13.819Z" fill="#132F66"/>
</svg>
