<svg width="1070" height="1413" viewBox="0 0 1070 1413" fill="none" xmlns="http://www.w3.org/2000/svg">
<g opacity="0.3">
<ellipse rx="6.11928" ry="6.36486" transform="matrix(-1 0 0 1 76.0541 882.898)" fill="#E77E42"/>
<ellipse cx="978.211" cy="124.569" rx="6.11928" ry="6.36486" fill="#1BEAFF"/>
<ellipse rx="6.11928" ry="6.36486" transform="matrix(-1 0 0 1 222.917 502.824)" fill="#E77E42"/>
<ellipse cx="936.25" cy="1230.24" rx="6.11928" ry="6.36486" fill="#E77E42"/>
<ellipse cx="626.789" cy="110.021" rx="4.37091" ry="4.54633" fill="white"/>
<ellipse rx="4.37091" ry="4.54633" transform="matrix(-1 0 0 1 929.257 464.635)" fill="white"/>
<ellipse cx="229.91" cy="1192.05" rx="4.37091" ry="4.54633" fill="white"/>
<ellipse cx="866.315" cy="95.4732" rx="4.37091" ry="4.54633" fill="white"/>
<ellipse rx="4.37091" ry="4.54633" transform="matrix(-1 0 0 1 404.747 428.264)" fill="white"/>
<ellipse cx="918.766" cy="271.871" rx="4.37091" ry="4.54633" fill="white"/>
<ellipse rx="4.37091" ry="4.54633" transform="matrix(-1 0 0 1 37.5898 588.295)" fill="white"/>
<ellipse cx="787.639" cy="242.774" rx="6.11928" ry="6.36486" fill="#E77E42"/>
<ellipse rx="6.11928" ry="6.36486" transform="matrix(-1 0 0 1 448.456 1132.04)" fill="#E77E42"/>
<ellipse cx="60.3185" cy="293.693" rx="6.11928" ry="6.36486" fill="#1BEAFF"/>
<ellipse cx="49.8285" cy="1366.63" rx="6.11928" ry="6.36486" fill="#1BEAFF"/>
<ellipse cx="785.89" cy="391.894" rx="4.37091" ry="4.54633" fill="#1BEAFF"/>
<ellipse cx="396.879" cy="112.749" rx="1.74837" ry="1.81853" fill="white"/>
<ellipse rx="1.74837" ry="1.81853" transform="matrix(-1 0 0 1 912.647 589.205)" fill="white"/>
<ellipse cx="246.52" cy="1316.62" rx="1.74837" ry="1.81853" fill="white"/>
<ellipse cx="762.287" cy="1.81853" rx="1.74837" ry="1.81853" fill="white"/>
<ellipse rx="1.74837" ry="1.81853" transform="matrix(-1 0 0 1 1040.28 729.232)" fill="white"/>
<ellipse cx="916.143" cy="1303.89" rx="1.74837" ry="1.81853" fill="white"/>
<ellipse rx="1.74837" ry="1.81853" transform="matrix(-1 0 0 1 1024.54 638.305)" fill="white"/>
<ellipse rx="1.74837" ry="1.81853" transform="matrix(-1 0 0 1 837.467 1060.2)" fill="white"/>
<ellipse cx="575.213" cy="403.714" rx="1.74837" ry="1.81853" fill="white"/>
<ellipse rx="1.74837" ry="1.81853" transform="matrix(-1 0 0 1 786.765 1131.13)" fill="white"/>
<ellipse cx="601.438" cy="383.71" rx="1.74837" ry="1.81853" fill="white"/>
<ellipse rx="1.74837" ry="1.81853" transform="matrix(-1 0 0 1 760.539 1111.12)" fill="white"/>
<ellipse cx="222.043" cy="230.954" rx="1.74837" ry="1.81853" fill="white"/>
<ellipse rx="1.74837" ry="1.81853" transform="matrix(-1 0 0 1 1014.05 958.367)" fill="white"/>
<ellipse rx="1.74837" ry="1.81853" transform="matrix(-1 0 0 1 229.036 931.089)" fill="white"/>
<ellipse rx="1.74837" ry="1.81853" transform="matrix(-1 0 0 1 1.74846 1029.29)" fill="white"/>
<ellipse rx="1.74837" ry="1.81853" transform="matrix(-1 0 0 1 583.954 469.181)" fill="white"/>
<ellipse cx="821.732" cy="329.154" rx="1.74837" ry="1.81853" fill="white"/>
<ellipse rx="1.74837" ry="1.81853" transform="matrix(-1 0 0 1 438.84 1056.57)" fill="white"/>
<ellipse rx="1.74837" ry="1.81853" transform="matrix(-1 0 0 1 426.601 691.043)" fill="white"/>
<ellipse rx="1.74837" ry="1.81853" transform="matrix(-1 0 0 1 582.206 683.768)" fill="white"/>
<ellipse cx="779.771" cy="1411.18" rx="1.74837" ry="1.81853" fill="white"/>
<ellipse rx="1.74837" ry="1.81853" transform="matrix(-1 0 0 1 858.448 687.405)" fill="white"/>
<ellipse rx="1.74837" ry="1.81853" transform="matrix(-1 0 0 1 1050.77 578.293)" fill="white"/>
<ellipse rx="1.74837" ry="1.81853" transform="matrix(-1 0 0 1 1068.25 545.56)" fill="white"/>
<ellipse rx="1.74837" ry="1.81853" transform="matrix(-1 0 0 1 424.853 598.297)" fill="white"/>
<ellipse rx="1.74837" ry="1.81853" transform="matrix(-1 0 0 1 800.752 601.934)" fill="white"/>
<ellipse cx="225.539" cy="81.8339" rx="1.74837" ry="1.81853" fill="white"/>
<ellipse cx="222.043" cy="336.429" rx="1.74837" ry="1.81853" fill="white"/>
<ellipse rx="1.74837" ry="1.81853" transform="matrix(-1 0 0 1 937.124 1063.84)" fill="white"/>
<ellipse rx="1.74837" ry="1.81853" transform="matrix(-1 0 0 1 828.725 721.957)" fill="white"/>
<ellipse cx="244.771" cy="1411.18" rx="1.74837" ry="1.81853" fill="white"/>
<ellipse cx="239.526" cy="1276.61" rx="1.74837" ry="1.81853" fill="white"/>
<ellipse rx="1.74837" ry="1.81853" transform="matrix(-1 0 0 1 968.595 500.097)" fill="white"/>
<ellipse cx="793.758" cy="63.6485" rx="1.74837" ry="1.81853" fill="white"/>
<ellipse cx="863.693" cy="180.035" rx="1.74837" ry="1.81853" fill="white"/>
<ellipse rx="1.74837" ry="1.81853" transform="matrix(-1 0 0 1 433.595 920.177)" fill="white"/>
<ellipse rx="1.74837" ry="1.81853" transform="matrix(-1 0 0 1 407.369 512.826)" fill="white"/>
<ellipse cx="853.202" cy="1240.24" rx="1.74837" ry="1.81853" fill="white"/>
<ellipse cx="922.263" cy="360.979" rx="4.37091" ry="4.54633" fill="white"/>
<ellipse rx="4.37091" ry="4.54633" transform="matrix(-1 0 0 1 203.685 1081.12)" fill="white"/>
<ellipse cx="566.47" cy="183.672" rx="1.74837" ry="1.81853" fill="white"/>
<ellipse rx="1.74837" ry="1.81853" transform="matrix(-1 0 0 1 795.507 911.085)" fill="white"/>
<ellipse rx="1.74837" ry="1.81853" transform="matrix(-1 0 0 1 788.513 487.367)" fill="white"/>
<ellipse cx="638.154" cy="260.05" rx="1.74837" ry="1.81853" fill="white"/>
<ellipse rx="1.74837" ry="1.81853" transform="matrix(-1 0 0 1 632.908 987.463)" fill="white"/>
<ellipse rx="1.74837" ry="1.81853" transform="matrix(-1 0 0 1 643.399 592.842)" fill="white"/>
<ellipse cx="627.663" cy="1320.26" rx="1.74837" ry="1.81853" fill="white"/>
<ellipse cx="1008.81" cy="29.0966" rx="1.74837" ry="1.81853" fill="white"/>
<ellipse cx="1047.27" cy="158.212" rx="1.74837" ry="1.81853" fill="white"/>
<ellipse cx="1026.29" cy="1218.42" rx="1.74837" ry="1.81853" fill="white"/>
<ellipse rx="1.74837" ry="1.81853" transform="matrix(-1 0 0 1 802.5 851.074)" fill="white"/>
<ellipse cx="924.886" cy="105.475" rx="1.74837" ry="1.81853" fill="white"/>
<ellipse rx="1.74837" ry="1.81853" transform="matrix(-1 0 0 1 83.9216 407.351)" fill="white"/>
<ellipse cx="984.33" cy="1407.54" rx="1.74837" ry="1.81853" fill="white"/>
<ellipse cx="958.105" cy="298.239" rx="1.74837" ry="1.81853" fill="white"/>
<ellipse cx="463.317" cy="50.919" rx="1.74837" ry="1.81853" fill="white"/>
<ellipse cx="445.833" cy="265.506" rx="1.74837" ry="1.81853" fill="white"/>
<ellipse rx="1.74837" ry="1.81853" transform="matrix(-1 0 0 1 814.738 992.919)" fill="white"/>
<ellipse cx="902.157" cy="5.45562" rx="1.74837" ry="1.81853" fill="white"/>
<ellipse cx="986.078" cy="234.591" rx="1.74837" ry="1.81853" fill="white"/>
<ellipse rx="1.74837" ry="1.81853" transform="matrix(-1 0 0 1 262.255 1009.29)" fill="white"/>
<ellipse rx="1.74837" ry="1.81853" transform="matrix(-1 0 0 1 82.1733 567.382)" fill="white"/>
</g>
</svg>
