<svg width="1334" height="413" viewBox="0 0 1334 413" fill="none" xmlns="http://www.w3.org/2000/svg">
<path d="M53.6231 98.8945C42.6298 80.3602 14.0137 51.1242 -4 40.0226V417.732H1381V130.249C1372.52 135.53 1359.95 146.144 1353.07 153.835L1340.56 167.819L1328.28 156.572C1288.61 120.241 1229.6 120.369 1188.77 156.87L1176.37 167.954L1171.18 162.427C1163.35 154.093 1140.97 144.001 1126.22 142.161L1113.12 140.524L1110.45 130.054C1102.01 96.9706 1075.31 69.897 1042.29 60.9579C1020.33 55.014 993.348 57.1497 974.058 66.3583C955.333 75.2953 937.647 92.4424 928.544 110.48L921.525 124.384L915.419 114.754C895.659 83.5873 852.867 64.693 816.095 70.8976C797.797 73.9833 775.505 84.0246 765.464 93.7037C764.011 79.2271 760.759 51.5583 751 45.6232C719 16.1232 707 22.1232 677 25.6232C662.093 27.3623 631.33 46.9495 628.922 58.5657L627.597 64.9602L621.937 57.7241C618.823 53.746 610.392 46.1565 603.201 40.862C560.62 9.50988 495.607 18.0448 462.959 59.2747C455.773 68.3486 442.591 94.1256 442.589 99.1087C442.586 102.879 442.591 102.879 428.038 94.1146C420.958 89.8493 411.645 85.383 407.343 84.188C390.588 79.5318 368.895 82.2421 347.5 91.6649C344.828 92.8422 343.238 90.5672 340.37 81.4646C335.922 67.3502 326.731 52.4008 315.742 41.4097C274.684 0.345428 203.733 5.26895 169.671 51.5483C154.683 71.9137 150.222 85.7034 150.116 112.008L150.025 134.295L141.168 132.261C124.225 128.367 99.1421 133.677 84.1495 144.33C80.7398 146.756 77.6304 148.381 77.2395 147.944C76.8508 147.509 73.4852 139.848 69.7619 130.923C66.0408 121.997 58.7775 107.584 53.6231 98.8945Z" fill="#132F66"/>
<path d="M53.6231 98.8945C42.6298 80.3602 14.0137 51.1242 -4 40.0226V417.732H1381V130.249C1372.52 135.53 1359.95 146.144 1353.07 153.835L1340.56 167.819L1328.28 156.572C1288.61 120.241 1229.6 120.369 1188.77 156.87L1176.37 167.954L1171.18 162.427C1163.35 154.093 1140.97 144.001 1126.22 142.161L1113.12 140.524L1110.45 130.054C1102.01 96.9706 1075.31 69.897 1042.29 60.9579C1020.33 55.014 993.348 57.1497 974.058 66.3583C955.333 75.2953 937.647 92.4424 928.544 110.48L921.525 124.384L915.419 114.754C895.659 83.5873 852.867 64.693 816.095 70.8976C797.797 73.9833 775.505 84.0246 765.464 93.7037C764.011 79.2271 760.759 51.5583 751 45.6232C719 16.1232 707 22.1232 677 25.6232C662.093 27.3623 631.33 46.9495 628.922 58.5657L627.597 64.9602L621.937 57.7241C618.823 53.746 610.392 46.1565 603.201 40.862C560.62 9.50988 495.607 18.0448 462.959 59.2747C455.773 68.3486 442.591 94.1256 442.589 99.1087C442.586 102.879 442.591 102.879 428.038 94.1146C420.958 89.8493 411.645 85.383 407.343 84.188C390.588 79.5318 368.895 82.2421 347.5 91.6649C344.828 92.8422 343.238 90.5672 340.37 81.4646C335.922 67.3502 326.731 52.4008 315.742 41.4097C274.684 0.345428 203.733 5.26895 169.671 51.5483C154.683 71.9137 150.222 85.7034 150.116 112.008L150.025 134.295L141.168 132.261C124.225 128.367 99.1421 133.677 84.1495 144.33C80.7398 146.756 77.6304 148.381 77.2395 147.944C76.8508 147.509 73.4852 139.848 69.7619 130.923C66.0408 121.997 58.7775 107.584 53.6231 98.8945Z" fill="url(#paint0_linear_51_2490)"/>
<path d="M-58.2223 180.566C-70.7713 167.054 -103.437 145.741 -124 137.648V413H1457V203.423C1447.32 207.273 1432.97 215.011 1425.12 220.617L1410.84 230.812L1396.82 222.613C1351.53 196.127 1284.17 196.221 1237.56 222.83L1223.41 230.91L1217.48 226.881C1208.55 220.806 1183 213.449 1166.17 212.107L1151.21 210.914L1148.16 203.282C1138.53 179.163 1108.04 159.427 1070.36 152.91C1045.29 148.577 1014.49 150.134 992.469 156.847C971.095 163.362 950.905 175.862 940.514 189.011L932.502 199.148L925.532 192.127C902.975 169.407 854.128 155.633 812.152 160.156C791.264 162.405 765.818 169.726 754.356 176.782L754.342 176.694C752.661 165.997 746.1 124.255 734.991 119.94C724.717 101.35 633.511 93.7629 615.132 114.108C606.57 123.585 601.239 142.698 598.491 151.166L596.979 155.828L590.518 150.552C586.963 147.652 577.338 142.12 569.13 138.26C520.522 115.404 446.31 121.626 409.041 151.683C400.838 158.298 385.791 177.089 385.788 180.722C385.786 183.471 385.791 183.471 369.178 177.081C361.096 173.972 350.465 170.716 345.555 169.845C326.429 166.45 301.666 168.426 277.243 175.295C274.193 176.154 272.378 174.495 269.103 167.859C264.026 157.57 253.534 146.672 240.99 138.659C194.122 108.723 113.131 112.312 74.2483 146.05C57.139 160.897 52.0468 170.949 51.9258 190.126L51.8224 206.373L41.7111 204.89C22.3708 202.051 -6.26156 205.922 -23.3759 213.689C-27.2682 215.457 -30.8176 216.642 -31.2638 216.323C-31.7075 216.006 -35.5493 210.421 -39.7996 203.914C-44.0473 197.407 -52.3385 186.901 -58.2223 180.566Z" fill="url(#paint1_linear_51_2490)" fill-opacity="0.1"/>
<defs>
<linearGradient id="paint0_linear_51_2490" x1="688.5" y1="-8.87683" x2="688.5" y2="417.732" gradientUnits="userSpaceOnUse">
<stop offset="0.130208" stop-color="white"/>
<stop offset="1" stop-color="#132F66" stop-opacity="0.15"/>
</linearGradient>
<linearGradient id="paint1_linear_51_2490" x1="666.5" y1="102" x2="666.5" y2="413" gradientUnits="userSpaceOnUse">
<stop stop-color="#132F66" stop-opacity="0.9"/>
<stop offset="1" stop-color="#174585" stop-opacity="0.56"/>
</linearGradient>
</defs>
</svg>
