<svg width="415" height="759" viewBox="0 0 415 759" fill="none" xmlns="http://www.w3.org/2000/svg">
<mask id="mask0_906_1334" style="mask-type:alpha" maskUnits="userSpaceOnUse" x="-180" y="43" width="559" height="648">
<path d="M-160.914 549.551C-176.251 534.691 -182.699 512.891 -177.916 492.079L-99.0326 148.896C-94.8495 130.697 -82.5611 115.417 -65.6834 107.427L56.5091 49.5811C75.6774 40.5069 98.1831 42.0396 115.944 53.629L350.821 206.89C372.239 220.865 382.665 246.717 376.936 271.641L302.106 597.193C296.722 620.613 278.09 638.691 254.518 643.364L21.372 689.584C1.73515 693.477 -18.562 687.487 -32.9388 673.556L-160.914 549.551Z" fill="#005999"/>
</mask>
<g mask="url(#mask0_906_1334)">
<path d="M52.8185 235.476C109.825 248.579 145.124 306.922 131.582 365.839C118.04 424.755 60.8082 461.829 3.80155 448.726C-53.2051 435.622 -88.5043 377.28 -74.9619 318.363C-61.4195 259.447 -4.18812 222.373 52.8185 235.476Z" stroke="white" stroke-opacity="0.2" stroke-width="2"/>
<path d="M70.6176 158.041C169.058 180.668 229.977 281.4 206.605 383.083C183.232 484.767 84.4429 548.789 -13.9976 526.162C-112.438 503.534 -173.357 402.802 -149.985 301.119C-126.612 199.436 -27.8229 135.413 70.6176 158.041Z" stroke="white" stroke-opacity="0.15" stroke-width="2"/>
<path d="M89.2446 77.0033C231.046 109.597 318.776 254.691 285.116 401.13C251.456 547.569 109.177 639.793 -32.6246 607.199C-174.426 574.605 -262.156 429.511 -228.496 283.072C-194.836 136.634 -52.5568 44.4093 89.2446 77.0033Z" stroke="white" stroke-opacity="0.1" stroke-width="2"/>
</g>
</svg>
