<svg width="925" height="1386" viewBox="0 0 925 1386" fill="none" xmlns="http://www.w3.org/2000/svg">
<mask id="mask0_42_338" style="mask-type:alpha" maskUnits="userSpaceOnUse" x="126" y="98" width="975" height="1178">
<path d="M967.661 1245.99C999.469 1244.21 1024.55 1218.25 1025.23 1186.4L1039.13 539.441C1039.21 536.042 1039.56 532.656 1040.2 529.316L1099.25 219.913C1105.62 186.564 1083.53 154.436 1050.11 148.437L779.879 99.9292C772.902 98.6767 765.76 98.65 758.774 99.8502L435.721 155.348C420.791 157.913 407.35 165.942 398.013 177.871L139.903 507.654C126.916 524.247 123.412 546.367 130.636 566.161L375.003 1235.81C384.219 1261.06 408.88 1277.31 435.72 1275.8L967.661 1245.99Z" fill="#C4C4C4"/>
</mask>
<g mask="url(#mask0_42_338)">
<path d="M945.437 518.784C821.507 496.936 701.808 587.6 678.207 721.475C654.607 855.349 736.088 981.479 860.018 1003.33C983.948 1025.17 1103.65 934.509 1127.25 800.635C1150.85 666.761 1069.37 540.631 945.437 518.784Z" stroke="white" stroke-opacity="0.2" stroke-width="2"/>
<path d="M976.298 343.721C762.739 306.073 556.565 462.307 515.92 692.866C475.275 923.425 615.598 1140.74 829.157 1178.39C1042.72 1216.04 1248.89 1059.8 1289.54 829.245C1330.18 598.686 1189.86 381.369 976.298 343.721Z" stroke="white" stroke-opacity="0.15" stroke-width="2"/>
<path d="M1008.59 160.516C701.238 106.333 404.565 331.185 346.083 662.926C287.602 994.666 489.502 1307.41 796.859 1361.59C1104.22 1415.78 1400.89 1190.93 1459.37 859.185C1517.85 527.444 1315.95 214.699 1008.59 160.516Z" stroke="white" stroke-opacity="0.1" stroke-width="2"/>
</g>
</svg>
