<svg width="440" height="923" viewBox="0 0 440 923" fill="none" xmlns="http://www.w3.org/2000/svg">
<mask id="mask0_29_334" style="mask-type:alpha" maskUnits="userSpaceOnUse" x="-224" y="12" width="652" height="899">
<rect x="-236" y="809.691" width="830.805" height="502.623" rx="61" transform="rotate(-77.055 -236 809.691)" fill="#005999"/>
</mask>
<g mask="url(#mask0_29_334)">
<path d="M53.7321 296.416C110.739 309.52 146.038 367.862 132.496 426.779C118.953 485.695 61.7218 522.769 4.71512 509.666C-52.2915 496.563 -87.5907 438.22 -74.0483 379.303C-60.5059 320.387 -3.27455 283.313 53.7321 296.416Z" stroke="white" stroke-opacity="0.2" stroke-width="2"/>
<path d="M71.5312 218.981C169.972 241.608 230.891 342.34 207.518 444.024C184.146 545.707 85.3565 609.729 -13.084 587.102C-111.525 564.475 -172.444 463.742 -149.071 362.059C-125.698 260.376 -26.9093 196.354 71.5312 218.981Z" stroke="white" stroke-opacity="0.15" stroke-width="2"/>
<path d="M90.1579 137.943C231.959 170.538 319.69 315.631 286.03 462.07C252.37 608.509 110.09 700.733 -31.7113 668.139C-173.513 635.545 -261.243 490.451 -227.583 344.012C-193.923 197.574 -51.6435 105.349 90.1579 137.943Z" stroke="white" stroke-opacity="0.1" stroke-width="2"/>
</g>
</svg>
