<svg width="450" height="418" viewBox="0 0 450 418" fill="none" xmlns="http://www.w3.org/2000/svg">
<g opacity="0.2">
<ellipse cx="405.392" cy="36.8507" rx="2.97386" ry="1.88288" fill="#1BEAFF"/>
<ellipse rx="2.97386" ry="1.88288" transform="matrix(-1 0 0 1 38.3333 148.748)" fill="#E77E42"/>
<ellipse cx="385" cy="363.934" rx="2.97386" ry="1.88288" fill="#E77E42"/>
<ellipse cx="234.608" cy="32.547" rx="2.12418" ry="1.34492" fill="white"/>
<ellipse rx="2.12418" ry="1.34492" transform="matrix(-1 0 0 1 381.601 137.45)" fill="white"/>
<ellipse cx="41.7321" cy="352.637" rx="2.12418" ry="1.34492" fill="white"/>
<ellipse cx="351.013" cy="28.2432" rx="2.12418" ry="1.34492" fill="white"/>
<ellipse rx="2.12418" ry="1.34492" transform="matrix(-1 0 0 1 126.699 126.691)" fill="white"/>
<ellipse cx="376.503" cy="80.426" rx="2.12418" ry="1.34492" fill="white"/>
<ellipse cx="312.778" cy="71.8185" rx="2.97386" ry="1.88288" fill="#E77E42"/>
<ellipse rx="2.97386" ry="1.88288" transform="matrix(-1 0 0 1 147.941 334.884)" fill="#E77E42"/>
<ellipse cx="311.928" cy="115.932" rx="2.12418" ry="1.34492" fill="#1BEAFF"/>
<ellipse cx="122.876" cy="33.3539" rx="0.849673" ry="0.537967" fill="white"/>
<ellipse rx="0.849673" ry="0.537967" transform="matrix(-1 0 0 1 373.529 174.301)" fill="white"/>
<ellipse cx="49.8038" cy="389.488" rx="0.849673" ry="0.537967" fill="white"/>
<ellipse cx="300.458" cy="0.537967" rx="0.849673" ry="0.537967" fill="white"/>
<ellipse rx="0.849673" ry="0.537967" transform="matrix(-1 0 0 1 435.556 215.725)" fill="white"/>
<ellipse cx="375.229" cy="385.722" rx="0.849673" ry="0.537967" fill="white"/>
<ellipse rx="0.849673" ry="0.537967" transform="matrix(-1 0 0 1 427.909 188.826)" fill="white"/>
<ellipse rx="0.849673" ry="0.537967" transform="matrix(-1 0 0 1 336.994 313.634)" fill="white"/>
<ellipse cx="209.543" cy="119.429" rx="0.849673" ry="0.537967" fill="white"/>
<ellipse rx="0.849673" ry="0.537967" transform="matrix(-1 0 0 1 312.353 334.615)" fill="white"/>
<ellipse cx="222.288" cy="113.511" rx="0.849673" ry="0.537967" fill="white"/>
<ellipse rx="0.849673" ry="0.537967" transform="matrix(-1 0 0 1 299.608 328.698)" fill="white"/>
<ellipse cx="37.9088" cy="68.3217" rx="0.849673" ry="0.537967" fill="white"/>
<ellipse rx="0.849673" ry="0.537967" transform="matrix(-1 0 0 1 422.81 283.508)" fill="white"/>
<ellipse rx="0.849673" ry="0.537967" transform="matrix(-1 0 0 1 41.3071 275.439)" fill="white"/>
<ellipse rx="0.849673" ry="0.537967" transform="matrix(-1 0 0 1 213.791 138.795)" fill="white"/>
<ellipse cx="329.346" cy="97.3719" rx="0.849673" ry="0.537967" fill="white"/>
<ellipse rx="0.849673" ry="0.537967" transform="matrix(-1 0 0 1 143.268 312.559)" fill="white"/>
<ellipse rx="0.849673" ry="0.537967" transform="matrix(-1 0 0 1 137.32 204.427)" fill="white"/>
<ellipse rx="0.849673" ry="0.537967" transform="matrix(-1 0 0 1 212.941 202.275)" fill="white"/>
<ellipse cx="308.954" cy="417.462" rx="0.849673" ry="0.537967" fill="white"/>
<ellipse rx="0.849673" ry="0.537967" transform="matrix(-1 0 0 1 347.189 203.351)" fill="white"/>
<ellipse rx="0.849673" ry="0.537967" transform="matrix(-1 0 0 1 440.654 171.073)" fill="white"/>
<ellipse rx="0.849673" ry="0.537967" transform="matrix(-1 0 0 1 449.15 161.39)" fill="white"/>
<ellipse rx="0.849673" ry="0.537967" transform="matrix(-1 0 0 1 136.471 176.991)" fill="white"/>
<ellipse rx="0.849673" ry="0.537967" transform="matrix(-1 0 0 1 319.15 178.067)" fill="white"/>
<ellipse cx="39.608" cy="24.2085" rx="0.849673" ry="0.537967" fill="white"/>
<ellipse cx="37.9088" cy="99.5238" rx="0.849673" ry="0.537967" fill="white"/>
<ellipse rx="0.849673" ry="0.537967" transform="matrix(-1 0 0 1 385.425 314.71)" fill="white"/>
<ellipse rx="0.849673" ry="0.537967" transform="matrix(-1 0 0 1 332.745 213.573)" fill="white"/>
<ellipse cx="48.9542" cy="417.462" rx="0.849673" ry="0.537967" fill="white"/>
<ellipse cx="46.4053" cy="377.653" rx="0.849673" ry="0.537967" fill="white"/>
<ellipse rx="0.849673" ry="0.537967" transform="matrix(-1 0 0 1 400.719 147.941)" fill="white"/>
<ellipse cx="315.752" cy="18.8288" rx="0.849673" ry="0.537967" fill="white"/>
<ellipse cx="349.738" cy="53.2587" rx="0.849673" ry="0.537967" fill="white"/>
<ellipse rx="0.849673" ry="0.537967" transform="matrix(-1 0 0 1 140.719 272.211)" fill="white"/>
<ellipse rx="0.849673" ry="0.537967" transform="matrix(-1 0 0 1 127.974 151.707)" fill="white"/>
<ellipse cx="344.641" cy="366.893" rx="0.849673" ry="0.537967" fill="white"/>
<ellipse cx="378.203" cy="106.786" rx="2.12418" ry="1.34492" fill="white"/>
<ellipse rx="2.12418" ry="1.34492" transform="matrix(-1 0 0 1 28.9871 319.821)" fill="white"/>
<ellipse cx="205.294" cy="54.3346" rx="0.849673" ry="0.537967" fill="white"/>
<ellipse rx="0.849673" ry="0.537967" transform="matrix(-1 0 0 1 316.601 269.521)" fill="white"/>
<ellipse rx="0.849673" ry="0.537967" transform="matrix(-1 0 0 1 313.203 144.175)" fill="white"/>
<ellipse cx="240.131" cy="76.9292" rx="0.849673" ry="0.537967" fill="white"/>
<ellipse rx="0.849673" ry="0.537967" transform="matrix(-1 0 0 1 237.582 292.116)" fill="white"/>
<ellipse rx="0.849673" ry="0.537967" transform="matrix(-1 0 0 1 242.68 175.377)" fill="white"/>
<ellipse cx="235.033" cy="390.564" rx="0.849673" ry="0.537967" fill="white"/>
<ellipse cx="420.261" cy="8.60746" rx="0.849673" ry="0.537967" fill="white"/>
<ellipse cx="438.954" cy="46.8031" rx="0.849673" ry="0.537967" fill="white"/>
<ellipse cx="428.758" cy="360.438" rx="0.849673" ry="0.537967" fill="white"/>
<ellipse rx="0.849673" ry="0.537967" transform="matrix(-1 0 0 1 320 251.768)" fill="white"/>
<ellipse cx="379.477" cy="31.2021" rx="0.849673" ry="0.537967" fill="white"/>
<ellipse cx="408.366" cy="416.386" rx="0.849673" ry="0.537967" fill="white"/>
<ellipse cx="395.621" cy="88.2265" rx="0.849673" ry="0.537967" fill="white"/>
<ellipse cx="155.164" cy="15.0631" rx="0.849673" ry="0.537967" fill="white"/>
<ellipse cx="146.667" cy="78.5431" rx="0.849673" ry="0.537967" fill="white"/>
<ellipse rx="0.849673" ry="0.537967" transform="matrix(-1 0 0 1 325.948 293.73)" fill="white"/>
<ellipse cx="368.431" cy="1.6139" rx="0.849673" ry="0.537967" fill="white"/>
<ellipse cx="409.215" cy="69.3977" rx="0.849673" ry="0.537967" fill="white"/>
<ellipse rx="0.849673" ry="0.537967" transform="matrix(-1 0 0 1 57.4511 298.571)" fill="white"/>
</g>
</svg>
