<svg width="1334" height="321" viewBox="0 0 1334 321" fill="none" xmlns="http://www.w3.org/2000/svg">
<path d="M47.6231 97.8945C36.6298 79.3602 8.01371 50.1242 -10 39.0226V416.732H1375V129.249C1366.52 134.53 1353.95 145.144 1347.07 152.835L1334.56 166.819L1322.28 155.572C1282.61 119.241 1223.6 119.369 1182.77 155.87L1170.37 166.954L1165.18 161.427C1157.35 153.093 1134.97 143.001 1120.22 141.161L1107.12 139.524L1104.45 129.054C1096.01 95.9706 1069.31 68.897 1036.29 59.9579C1014.33 54.014 987.348 56.1497 968.058 65.3583C949.333 74.2953 931.647 91.4424 922.544 109.48L915.525 123.384L909.419 113.754C889.659 82.5873 846.867 63.693 810.095 69.8976C791.797 72.9833 769.505 83.0246 759.464 92.7037C758.011 78.2271 754.759 50.5583 745 44.6232C713 15.1232 701 21.1232 671 24.6232C656.093 26.3623 625.33 45.9495 622.922 57.5657L621.597 63.9602L615.937 56.7241C612.823 52.746 604.392 45.1565 597.201 39.862C554.62 8.50988 489.607 17.0448 456.959 58.2747C449.773 67.3486 436.591 93.1256 436.589 98.1087C436.586 101.879 436.591 101.879 422.038 93.1146C414.958 88.8493 405.645 84.383 401.343 83.188C384.588 78.5318 362.895 81.2421 341.5 90.6649C338.828 91.8422 337.238 89.5672 334.37 80.4646C329.922 66.3502 320.731 51.4008 309.742 40.4097C268.684 -0.654572 197.733 4.26895 163.671 50.5483C148.683 70.9137 144.222 84.7034 144.116 111.008L144.025 133.295L135.168 131.261C118.225 127.367 93.1421 132.677 78.1495 143.33C74.7398 145.756 71.6304 147.381 71.2395 146.944C70.8508 146.509 67.4852 138.848 63.7619 129.923C60.0408 120.997 52.7775 106.584 47.6231 97.8945Z" fill="#132F66"/>
<path d="M54.6231 97.8945C43.6298 79.3602 15.0137 50.1242 -3 39.0226V416.732H1382V129.249C1373.52 134.53 1360.95 145.144 1354.07 152.835L1341.56 166.819L1329.28 155.572C1289.61 119.241 1230.6 119.369 1189.77 155.87L1177.37 166.954L1172.18 161.427C1164.35 153.093 1141.97 143.001 1127.22 141.161L1114.12 139.524L1111.45 129.054C1103.01 95.9706 1076.31 68.897 1043.29 59.9579C1021.33 54.014 994.348 56.1497 975.058 65.3583C956.333 74.2953 938.647 91.4424 929.544 109.48L922.525 123.384L916.419 113.754C896.659 82.5873 853.867 63.693 817.095 69.8976C798.797 72.9833 776.505 83.0246 766.464 92.7037C765.011 78.2271 761.759 50.5583 752 44.6232C720 15.1232 708 21.1232 678 24.6232C663.093 26.3623 632.33 45.9495 629.922 57.5657L628.597 63.9602L622.937 56.7241C619.823 52.746 611.392 45.1565 604.201 39.862C561.62 8.50988 496.607 17.0448 463.959 58.2747C456.773 67.3486 443.591 93.1256 443.589 98.1087C443.586 101.879 443.591 101.879 429.038 93.1146C421.958 88.8493 412.645 84.383 408.343 83.188C391.588 78.5318 369.895 81.2421 348.5 90.6649C345.828 91.8422 344.238 89.5672 341.37 80.4646C336.922 66.3502 327.731 51.4008 316.742 40.4097C275.684 -0.654572 204.733 4.26895 170.671 50.5483C155.683 70.9137 151.222 84.7034 151.116 111.008L151.025 133.295L142.168 131.261C125.225 127.367 100.142 132.677 85.1495 143.33C81.7398 145.756 78.6304 147.381 78.2395 146.944C77.8508 146.509 74.4852 138.848 70.7619 129.923C67.0408 120.997 59.7775 106.584 54.6231 97.8945Z" fill="url(#paint0_linear_40_435)"/>
<path d="M-57.2223 179.566C-69.7713 166.054 -102.437 144.741 -123 136.648V412H1458V202.423C1448.32 206.273 1433.97 214.011 1426.12 219.617L1411.84 229.812L1397.82 221.613C1352.53 195.127 1285.17 195.221 1238.56 221.83L1224.41 229.91L1218.48 225.881C1209.55 219.806 1184 212.449 1167.17 211.107L1152.21 209.914L1149.16 202.282C1139.53 178.163 1109.04 158.427 1071.36 151.91C1046.29 147.577 1015.49 149.134 993.469 155.847C972.095 162.362 951.905 174.862 941.514 188.011L933.502 198.148L926.532 191.127C903.975 168.407 855.128 154.633 813.152 159.156C792.264 161.405 766.818 168.726 755.356 175.782L755.342 175.694C753.661 164.997 747.1 123.255 735.991 118.94C725.717 100.35 634.511 92.7629 616.132 113.108C607.57 122.585 602.239 141.698 599.491 150.166L597.979 154.828L591.518 149.552C587.963 146.652 578.338 141.12 570.13 137.26C521.522 114.404 447.31 120.626 410.041 150.683C401.838 157.298 386.791 176.089 386.788 179.722C386.786 182.471 386.791 182.471 370.178 176.081C362.096 172.972 351.465 169.716 346.555 168.845C327.429 165.45 302.666 167.426 278.243 174.295C275.193 175.154 273.378 173.495 270.103 166.859C265.026 156.57 254.534 145.672 241.99 137.659C195.122 107.723 114.131 111.312 75.2483 145.05C58.139 159.897 53.0468 169.949 52.9258 189.126L52.8224 205.373L42.7111 203.89C23.3708 201.051 -5.26156 204.922 -22.3759 212.689C-26.2682 214.457 -29.8176 215.642 -30.2638 215.323C-30.7075 215.006 -34.5493 209.421 -38.7996 202.914C-43.0473 196.407 -51.3385 185.901 -57.2223 179.566Z" fill="url(#paint1_linear_40_435)" fill-opacity="0.1"/>
<defs>
<linearGradient id="paint0_linear_40_435" x1="689.5" y1="-9.87683" x2="689.5" y2="416.732" gradientUnits="userSpaceOnUse">
<stop offset="0.130208" stop-color="white"/>
<stop offset="1" stop-color="#132F66" stop-opacity="0.15"/>
</linearGradient>
<linearGradient id="paint1_linear_40_435" x1="667.5" y1="101" x2="667.5" y2="412" gradientUnits="userSpaceOnUse">
<stop stop-color="#132F66" stop-opacity="0.9"/>
<stop offset="1" stop-color="#174585" stop-opacity="0.56"/>
</linearGradient>
</defs>
</svg>
