<svg width="50" height="50" viewBox="0 0 50 50" fill="none" xmlns="http://www.w3.org/2000/svg">
<circle cx="25" cy="25" r="25" fill="#223FA3"/>
<path d="M34.75 26.9305V33.8251H30.7141V27.3509C30.7141 25.7534 30.1256 24.6603 28.6962 24.6603C27.6031 24.6603 26.9305 25.417 26.6783 26.0897C26.5942 26.3419 26.5101 26.6782 26.5101 27.0987V33.8251H22.4742C22.4742 33.8251 22.5583 22.8946 22.4742 21.8016H26.5101V23.4832C27.0146 22.6424 28.0235 21.4652 30.1256 21.4652C32.7321 21.4652 34.75 23.2309 34.75 26.9305ZM18.2702 16C16.9249 16 16 16.9249 16 18.102C16 19.2791 16.8408 20.204 18.1861 20.204C19.6155 20.204 20.4563 19.2791 20.4563 18.102C20.5404 16.8408 19.6995 16 18.2702 16ZM16.2522 33.8251H20.2881V21.8016H16.2522V33.8251Z" fill="white"/>
</svg>
