<svg width="930" height="1455" viewBox="0 0 930 1455" fill="none" xmlns="http://www.w3.org/2000/svg">
<g opacity="0.5">
<mask id="mask0_946_3478" style="mask-type:alpha" maskUnits="userSpaceOnUse" x="149" y="20" width="1098" height="1317">
<path d="M1214.1 1076.05C1242.13 1060.91 1253.79 1026.75 1240.86 997.631L981.484 413.331C978.024 405.539 976.237 397.107 976.237 388.581L976.237 81.4381C976.237 41.0415 937.68 11.802 898.781 22.6998L556.373 118.628C549.774 120.476 543.534 123.424 537.915 127.347L268.837 315.168C256.415 323.839 247.664 336.822 244.287 351.589L150.929 759.831C146.231 780.372 152.467 801.882 167.423 816.726L673.375 1318.88C692.455 1337.81 721.683 1342.03 745.335 1329.25L1214.1 1076.05Z" fill="#C4C4C4"/>
</mask>
<g mask="url(#mask0_946_3478)">
<path d="M884.723 427.332C763.267 460.263 693.489 593.225 729.062 724.427C764.635 855.628 892.02 935.132 1013.48 902.201C1134.93 869.27 1204.71 736.309 1169.14 605.107C1133.56 473.905 1006.18 394.402 884.723 427.332Z" stroke="white" stroke-opacity="0.2" stroke-width="2"/>
<path d="M838.205 255.765C628.91 312.512 508.75 541.595 570.015 767.55C631.279 993.506 850.699 1130.52 1059.99 1073.77C1269.29 1017.02 1389.45 787.94 1328.19 561.984C1266.92 336.028 1047.5 199.018 838.205 255.765Z" stroke="white" stroke-opacity="0.15" stroke-width="2"/>
<path d="M789.523 76.2173C488.302 157.889 315.418 487.562 403.569 812.68C491.719 1137.8 807.455 1334.99 1108.68 1253.32C1409.9 1171.65 1582.78 841.972 1494.63 516.855C1406.48 191.738 1090.74 -5.45406 789.523 76.2173Z" stroke="white" stroke-opacity="0.1" stroke-width="2"/>
</g>
</g>
</svg>
