<svg width="1334" height="2180" viewBox="0 0 1334 2180" fill="none" xmlns="http://www.w3.org/2000/svg">
<g opacity="0.2">
<ellipse rx="7.76062" ry="9.81982" transform="matrix(-1 0 0 1 96.4537 1362.15)" fill="#E77E42"/>
<ellipse cx="1240.59" cy="192.188" rx="7.76062" ry="9.81982" fill="#1BEAFF"/>
<ellipse rx="7.76062" ry="9.81982" transform="matrix(-1 0 0 1 282.708 775.766)" fill="#E77E42"/>
<ellipse cx="1187.37" cy="1898.03" rx="7.76062" ry="9.81982" fill="#E77E42"/>
<ellipse cx="794.909" cy="169.743" rx="5.5433" ry="7.01416" fill="white"/>
<ellipse rx="5.5433" ry="7.01416" transform="matrix(-1 0 0 1 1178.51 716.847)" fill="white"/>
<ellipse cx="291.577" cy="1839.11" rx="5.5433" ry="7.01416" fill="white"/>
<ellipse cx="1098.68" cy="147.297" rx="5.5433" ry="7.01416" fill="white"/>
<ellipse rx="5.5433" ry="7.01416" transform="matrix(-1 0 0 1 513.31 660.733)" fill="white"/>
<ellipse cx="1165.2" cy="419.447" rx="5.5433" ry="7.01416" fill="white"/>
<ellipse rx="5.5433" ry="7.01416" transform="matrix(-1 0 0 1 47.6725 907.632)" fill="white"/>
<ellipse cx="998.903" cy="374.557" rx="7.76062" ry="9.81982" fill="#E77E42"/>
<ellipse rx="7.76062" ry="9.81982" transform="matrix(-1 0 0 1 568.742 1746.53)" fill="#E77E42"/>
<ellipse cx="76.4974" cy="453.114" rx="7.76062" ry="9.81982" fill="#1BEAFF"/>
<ellipse cx="63.1937" cy="2108.46" rx="7.76062" ry="9.81982" fill="#1BEAFF"/>
<ellipse cx="996.685" cy="604.62" rx="5.5433" ry="7.01416" fill="#1BEAFF"/>
<ellipse cx="503.332" cy="173.952" rx="2.21732" ry="2.80566" fill="white"/>
<ellipse rx="2.21732" ry="2.80566" transform="matrix(-1 0 0 1 1157.44 909.034)" fill="white"/>
<ellipse cx="312.642" cy="2031.3" rx="2.21732" ry="2.80566" fill="white"/>
<ellipse cx="966.752" cy="2.80566" rx="2.21732" ry="2.80566" fill="white"/>
<ellipse rx="2.21732" ry="2.80566" transform="matrix(-1 0 0 1 1319.31 1125.07)" fill="white"/>
<ellipse cx="1161.88" cy="2011.66" rx="2.21732" ry="2.80566" fill="white"/>
<ellipse rx="2.21732" ry="2.80566" transform="matrix(-1 0 0 1 1299.35 984.787)" fill="white"/>
<ellipse rx="2.21732" ry="2.80566" transform="matrix(-1 0 0 1 1062.1 1635.7)" fill="white"/>
<ellipse cx="729.499" cy="622.857" rx="2.21732" ry="2.80566" fill="white"/>
<ellipse rx="2.21732" ry="2.80566" transform="matrix(-1 0 0 1 997.794 1745.12)" fill="white"/>
<ellipse cx="762.758" cy="591.995" rx="2.21732" ry="2.80566" fill="white"/>
<ellipse rx="2.21732" ry="2.80566" transform="matrix(-1 0 0 1 964.534 1714.26)" fill="white"/>
<ellipse cx="281.6" cy="356.319" rx="2.21732" ry="2.80566" fill="white"/>
<ellipse rx="2.21732" ry="2.80566" transform="matrix(-1 0 0 1 1286.05 1478.58)" fill="white"/>
<ellipse rx="2.21732" ry="2.80566" transform="matrix(-1 0 0 1 290.469 1436.5)" fill="white"/>
<ellipse rx="2.21732" ry="2.80566" transform="matrix(-1 0 0 1 2.21725 1588.01)" fill="white"/>
<ellipse rx="2.21732" ry="2.80566" transform="matrix(-1 0 0 1 740.585 723.861)" fill="white"/>
<ellipse cx="1042.14" cy="507.825" rx="2.21732" ry="2.80566" fill="white"/>
<ellipse rx="2.21732" ry="2.80566" transform="matrix(-1 0 0 1 556.547 1630.09)" fill="white"/>
<ellipse rx="2.21732" ry="2.80566" transform="matrix(-1 0 0 1 541.026 1066.15)" fill="white"/>
<ellipse rx="2.21732" ry="2.80566" transform="matrix(-1 0 0 1 738.368 1054.93)" fill="white"/>
<ellipse cx="988.925" cy="2177.19" rx="2.21732" ry="2.80566" fill="white"/>
<ellipse rx="2.21732" ry="2.80566" transform="matrix(-1 0 0 1 1088.7 1060.54)" fill="white"/>
<ellipse rx="2.21732" ry="2.80566" transform="matrix(-1 0 0 1 1332.61 892.2)" fill="white"/>
<ellipse rx="2.21732" ry="2.80566" transform="matrix(-1 0 0 1 538.809 923.063)" fill="white"/>
<ellipse rx="2.21732" ry="2.80566" transform="matrix(-1 0 0 1 1015.53 928.674)" fill="white"/>
<ellipse cx="286.034" cy="126.254" rx="2.21732" ry="2.80566" fill="white"/>
<ellipse cx="281.6" cy="519.048" rx="2.21732" ry="2.80566" fill="white"/>
<ellipse rx="2.21732" ry="2.80566" transform="matrix(-1 0 0 1 1188.48 1641.31)" fill="white"/>
<ellipse rx="2.21732" ry="2.80566" transform="matrix(-1 0 0 1 1051.01 1113.85)" fill="white"/>
<ellipse cx="310.425" cy="2177.19" rx="2.21732" ry="2.80566" fill="white"/>
<ellipse cx="303.773" cy="1969.58" rx="2.21732" ry="2.80566" fill="white"/>
<ellipse rx="2.21732" ry="2.80566" transform="matrix(-1 0 0 1 1228.4 771.558)" fill="white"/>
<ellipse cx="1006.66" cy="98.1982" rx="2.21732" ry="2.80566" fill="white"/>
<ellipse cx="1095.36" cy="277.76" rx="2.21732" ry="2.80566" fill="white"/>
<ellipse rx="2.21732" ry="2.80566" transform="matrix(-1 0 0 1 549.895 1419.67)" fill="white"/>
<ellipse rx="2.21732" ry="2.80566" transform="matrix(-1 0 0 1 516.636 791.196)" fill="white"/>
<ellipse cx="1082.05" cy="1913.46" rx="2.21732" ry="2.80566" fill="white"/>
<ellipse cx="1169.64" cy="556.925" rx="5.5433" ry="7.01416" fill="white"/>
<ellipse rx="5.5433" ry="7.01416" transform="matrix(-1 0 0 1 258.318 1667.97)" fill="white"/>
<ellipse cx="718.412" cy="283.372" rx="2.21732" ry="2.80566" fill="white"/>
<ellipse rx="2.21732" ry="2.80566" transform="matrix(-1 0 0 1 1008.88 1405.64)" fill="white"/>
<ellipse rx="2.21732" ry="2.80566" transform="matrix(-1 0 0 1 1000.01 751.917)" fill="white"/>
<ellipse cx="809.322" cy="401.21" rx="2.21732" ry="2.80566" fill="white"/>
<ellipse rx="2.21732" ry="2.80566" transform="matrix(-1 0 0 1 802.67 1523.47)" fill="white"/>
<ellipse rx="2.21732" ry="2.80566" transform="matrix(-1 0 0 1 815.974 914.647)" fill="white"/>
<ellipse cx="796.018" cy="2036.91" rx="2.21732" ry="2.80566" fill="white"/>
<ellipse cx="1279.39" cy="44.8909" rx="2.21732" ry="2.80566" fill="white"/>
<ellipse cx="1328.17" cy="244.092" rx="2.21732" ry="2.80566" fill="white"/>
<ellipse cx="1301.57" cy="1879.79" rx="2.21732" ry="2.80566" fill="white"/>
<ellipse rx="2.21732" ry="2.80566" transform="matrix(-1 0 0 1 1017.75 1313.05)" fill="white"/>
<ellipse cx="1172.96" cy="162.729" rx="2.21732" ry="2.80566" fill="white"/>
<ellipse rx="2.21732" ry="2.80566" transform="matrix(-1 0 0 1 106.432 628.469)" fill="white"/>
<ellipse cx="1248.35" cy="2171.58" rx="2.21732" ry="2.80566" fill="white"/>
<ellipse cx="1215.09" cy="460.129" rx="2.21732" ry="2.80566" fill="white"/>
<ellipse cx="587.59" cy="78.5588" rx="2.21732" ry="2.80566" fill="white"/>
<ellipse cx="565.417" cy="409.627" rx="2.21732" ry="2.80566" fill="white"/>
<ellipse rx="2.21732" ry="2.80566" transform="matrix(-1 0 0 1 1033.27 1531.89)" fill="white"/>
<ellipse cx="1144.14" cy="8.41675" rx="2.21732" ry="2.80566" fill="white"/>
<ellipse cx="1250.57" cy="361.93" rx="2.21732" ry="2.80566" fill="white"/>
<ellipse rx="2.21732" ry="2.80566" transform="matrix(-1 0 0 1 332.598 1557.14)" fill="white"/>
<ellipse rx="2.21732" ry="2.80566" transform="matrix(-1 0 0 1 104.214 875.366)" fill="white"/>
</g>
</svg>
