<svg width="377" height="508" viewBox="0 0 377 508" fill="none" xmlns="http://www.w3.org/2000/svg">
<mask id="mask0_1_912" style="mask-type:alpha" maskUnits="userSpaceOnUse" x="19" y="20" width="443" height="469">
<rect x="481.129" y="364.718" width="346.46" height="400.111" rx="61" transform="rotate(155.579 481.129 364.718)" fill="#C4C4C4"/>
</mask>
<g mask="url(#mask0_1_912)">
<path d="M325.018 384.975C300.834 331.715 325.78 268.252 380.825 243.258C435.869 218.264 500.068 241.25 524.252 294.51C548.435 347.769 523.49 411.233 468.445 436.227C413.401 461.22 349.202 438.235 325.018 384.975Z" stroke="white" stroke-opacity="0.2" stroke-width="2"/>
<path d="M252.672 417.825C210.911 325.854 253.999 216.303 348.999 173.166C443.998 130.03 554.837 169.689 596.598 261.659C638.359 353.63 595.272 463.182 500.272 506.318C405.272 549.455 294.433 509.795 252.672 417.825Z" stroke="white" stroke-opacity="0.15" stroke-width="2"/>
<path d="M176.961 452.203C116.806 319.721 178.878 161.937 315.692 99.8145C452.506 37.6918 612.154 94.8001 672.309 227.282C732.465 359.763 670.392 517.547 533.578 579.67C396.764 641.793 237.117 584.684 176.961 452.203Z" stroke="white" stroke-opacity="0.1" stroke-width="2"/>
</g>
</svg>
