<svg width="875" height="1521" viewBox="0 0 875 1521" fill="none" xmlns="http://www.w3.org/2000/svg">
<mask id="mask0_50_1029" style="mask-type:alpha" maskUnits="userSpaceOnUse" x="208" y="58" width="1120" height="1298">
<path d="M1302.32 1035.62C1328.28 1017.16 1335.67 981.83 1319.28 954.511L986.339 399.629C984.59 396.713 983.088 393.657 981.848 390.492L866.965 97.2018C854.582 65.5894 818.772 50.1704 787.297 62.8992L532.771 165.833C526.2 168.491 520.141 172.274 514.869 177.012L271.061 396.103C259.794 406.228 252.697 420.184 251.152 435.254L208.443 851.851C206.294 872.812 215.115 893.398 231.774 906.3L795.363 1342.77C816.616 1359.23 846.14 1359.84 868.052 1344.27L1302.32 1035.62Z" fill="#C4C4C4"/>
</mask>
<g mask="url(#mask0_50_1029)">
<path d="M896.043 432.071C779.529 479.614 726.543 620.115 777.901 745.978C829.26 871.842 965.415 935.163 1081.93 887.619C1198.44 840.076 1251.43 699.576 1200.07 573.712C1148.71 447.849 1012.56 384.528 896.043 432.071Z" stroke="white" stroke-opacity="0.2" stroke-width="2"/>
<path d="M828.884 267.484C628.104 349.412 536.875 591.475 625.325 808.237C713.775 1025 948.309 1134.14 1149.09 1052.21C1349.87 970.279 1441.1 728.216 1352.65 511.454C1264.2 294.691 1029.66 185.556 828.884 267.484Z" stroke="white" stroke-opacity="0.15" stroke-width="2"/>
<path d="M758.6 95.2414C469.635 213.153 338.385 561.502 465.651 873.392C592.917 1185.28 930.407 1342.36 1219.37 1224.45C1508.34 1106.54 1639.59 758.189 1512.32 446.299C1385.05 134.41 1047.56 -22.6705 758.6 95.2414Z" stroke="white" stroke-opacity="0.1" stroke-width="2"/>
</g>
</svg>
