<svg width="1334" height="1288" viewBox="0 0 1334 1288" fill="none" xmlns="http://www.w3.org/2000/svg">
<g opacity="0.5">
<ellipse rx="7.76062" ry="5.8018" transform="matrix(-1 0 0 1 87.2892 804.792)" fill="#E77E42"/>
<ellipse cx="1231.43" cy="113.55" rx="7.76062" ry="5.8018" fill="#1BEAFF"/>
<ellipse rx="7.76062" ry="5.8018" transform="matrix(-1 0 0 1 273.544 458.342)" fill="#E77E42"/>
<ellipse cx="1178.21" cy="1121.41" rx="7.76062" ry="5.8018" fill="#E77E42"/>
<ellipse cx="785.745" cy="100.288" rx="5.5433" ry="4.14414" fill="white"/>
<ellipse rx="5.5433" ry="4.14414" transform="matrix(-1 0 0 1 1169.34 423.532)" fill="white"/>
<ellipse cx="282.413" cy="1086.59" rx="5.5433" ry="4.14414" fill="white"/>
<ellipse cx="1089.52" cy="87.0267" rx="5.5433" ry="4.14414" fill="white"/>
<ellipse rx="5.5433" ry="4.14414" transform="matrix(-1 0 0 1 504.145 390.378)" fill="white"/>
<ellipse cx="1156.04" cy="247.82" rx="5.5433" ry="4.14414" fill="white"/>
<ellipse rx="5.5433" ry="4.14414" transform="matrix(-1 0 0 1 38.5085 536.252)" fill="white"/>
<ellipse cx="989.739" cy="221.298" rx="7.76062" ry="5.8018" fill="#E77E42"/>
<ellipse rx="7.76062" ry="5.8018" transform="matrix(-1 0 0 1 559.578 1031.89)" fill="#E77E42"/>
<ellipse cx="67.3339" cy="267.711" rx="7.76062" ry="5.8018" fill="#1BEAFF"/>
<ellipse cx="54.0302" cy="1245.73" rx="7.76062" ry="5.8018" fill="#1BEAFF"/>
<ellipse cx="987.522" cy="357.225" rx="5.5433" ry="4.14414" fill="#1BEAFF"/>
<ellipse cx="494.168" cy="102.775" rx="2.21732" ry="1.65766" fill="white"/>
<ellipse rx="2.21732" ry="1.65766" transform="matrix(-1 0 0 1 1148.28 537.081)" fill="white"/>
<ellipse cx="303.478" cy="1200.14" rx="2.21732" ry="1.65766" fill="white"/>
<ellipse cx="957.587" cy="1.65766" rx="2.21732" ry="1.65766" fill="white"/>
<ellipse rx="2.21732" ry="1.65766" transform="matrix(-1 0 0 1 1310.14 664.721)" fill="white"/>
<ellipse cx="1152.71" cy="1188.54" rx="2.21732" ry="1.65766" fill="white"/>
<ellipse rx="2.21732" ry="1.65766" transform="matrix(-1 0 0 1 1290.19 581.837)" fill="white"/>
<ellipse rx="2.21732" ry="1.65766" transform="matrix(-1 0 0 1 1052.93 966.414)" fill="white"/>
<ellipse cx="720.335" cy="368" rx="2.21732" ry="1.65766" fill="white"/>
<ellipse rx="2.21732" ry="1.65766" transform="matrix(-1 0 0 1 988.63 1031.06)" fill="white"/>
<ellipse cx="753.594" cy="349.766" rx="2.21732" ry="1.65766" fill="white"/>
<ellipse rx="2.21732" ry="1.65766" transform="matrix(-1 0 0 1 955.371 1012.83)" fill="white"/>
<ellipse cx="272.436" cy="210.522" rx="2.21732" ry="1.65766" fill="white"/>
<ellipse rx="2.21732" ry="1.65766" transform="matrix(-1 0 0 1 1276.88 873.586)" fill="white"/>
<ellipse rx="2.21732" ry="1.65766" transform="matrix(-1 0 0 1 281.305 848.721)" fill="white"/>
<ellipse rx="2.21732" ry="1.65766" transform="matrix(-1 0 0 1 731.421 427.675)" fill="white"/>
<ellipse cx="1032.98" cy="300.036" rx="2.21732" ry="1.65766" fill="white"/>
<ellipse rx="2.21732" ry="1.65766" transform="matrix(-1 0 0 1 547.383 963.099)" fill="white"/>
<ellipse rx="2.21732" ry="1.65766" transform="matrix(-1 0 0 1 531.862 629.91)" fill="white"/>
<ellipse rx="2.21732" ry="1.65766" transform="matrix(-1 0 0 1 729.204 623.279)" fill="white"/>
<ellipse cx="979.761" cy="1286.34" rx="2.21732" ry="1.65766" fill="white"/>
<ellipse rx="2.21732" ry="1.65766" transform="matrix(-1 0 0 1 1079.54 626.595)" fill="white"/>
<ellipse rx="2.21732" ry="1.65766" transform="matrix(-1 0 0 1 1323.45 527.135)" fill="white"/>
<ellipse rx="2.21732" ry="1.65766" transform="matrix(-1 0 0 1 529.645 545.369)" fill="white"/>
<ellipse rx="2.21732" ry="1.65766" transform="matrix(-1 0 0 1 1006.37 548.685)" fill="white"/>
<ellipse cx="276.871" cy="74.5944" rx="2.21732" ry="1.65766" fill="white"/>
<ellipse cx="272.436" cy="306.667" rx="2.21732" ry="1.65766" fill="white"/>
<ellipse rx="2.21732" ry="1.65766" transform="matrix(-1 0 0 1 1179.32 969.73)" fill="white"/>
<ellipse rx="2.21732" ry="1.65766" transform="matrix(-1 0 0 1 1041.85 658.09)" fill="white"/>
<ellipse cx="301.261" cy="1286.34" rx="2.21732" ry="1.65766" fill="white"/>
<ellipse cx="294.609" cy="1163.68" rx="2.21732" ry="1.65766" fill="white"/>
<ellipse rx="2.21732" ry="1.65766" transform="matrix(-1 0 0 1 1219.23 455.856)" fill="white"/>
<ellipse cx="997.5" cy="58.0183" rx="2.21732" ry="1.65766" fill="white"/>
<ellipse cx="1086.19" cy="164.108" rx="2.21732" ry="1.65766" fill="white"/>
<ellipse rx="2.21732" ry="1.65766" transform="matrix(-1 0 0 1 540.732 838.775)" fill="white"/>
<ellipse rx="2.21732" ry="1.65766" transform="matrix(-1 0 0 1 507.471 467.459)" fill="white"/>
<ellipse cx="1072.89" cy="1130.52" rx="2.21732" ry="1.65766" fill="white"/>
<ellipse cx="1160.47" cy="329.045" rx="5.5433" ry="4.14414" fill="white"/>
<ellipse rx="5.5433" ry="4.14414" transform="matrix(-1 0 0 1 249.154 985.478)" fill="white"/>
<ellipse cx="709.248" cy="167.424" rx="2.21732" ry="1.65766" fill="white"/>
<ellipse rx="2.21732" ry="1.65766" transform="matrix(-1 0 0 1 999.717 830.486)" fill="white"/>
<ellipse rx="2.21732" ry="1.65766" transform="matrix(-1 0 0 1 990.848 444.252)" fill="white"/>
<ellipse cx="800.158" cy="237.045" rx="2.21732" ry="1.65766" fill="white"/>
<ellipse rx="2.21732" ry="1.65766" transform="matrix(-1 0 0 1 793.505 900.108)" fill="white"/>
<ellipse rx="2.21732" ry="1.65766" transform="matrix(-1 0 0 1 806.81 540.397)" fill="white"/>
<ellipse cx="786.854" cy="1203.46" rx="2.21732" ry="1.65766" fill="white"/>
<ellipse cx="1270.23" cy="26.5229" rx="2.21732" ry="1.65766" fill="white"/>
<ellipse cx="1319.01" cy="144.216" rx="2.21732" ry="1.65766" fill="white"/>
<ellipse cx="1292.4" cy="1110.63" rx="2.21732" ry="1.65766" fill="white"/>
<ellipse rx="2.21732" ry="1.65766" transform="matrix(-1 0 0 1 1008.59 775.784)" fill="white"/>
<ellipse cx="1163.8" cy="96.1442" rx="2.21732" ry="1.65766" fill="white"/>
<ellipse rx="2.21732" ry="1.65766" transform="matrix(-1 0 0 1 97.2671 371.315)" fill="white"/>
<ellipse cx="1239.19" cy="1283.03" rx="2.21732" ry="1.65766" fill="white"/>
<ellipse cx="1205.93" cy="271.856" rx="2.21732" ry="1.65766" fill="white"/>
<ellipse cx="578.426" cy="46.4145" rx="2.21732" ry="1.65766" fill="white"/>
<ellipse cx="556.253" cy="242.018" rx="2.21732" ry="1.65766" fill="white"/>
<ellipse rx="2.21732" ry="1.65766" transform="matrix(-1 0 0 1 1024.11 905.081)" fill="white"/>
<ellipse cx="1134.97" cy="4.97284" rx="2.21732" ry="1.65766" fill="white"/>
<ellipse cx="1241.4" cy="213.837" rx="2.21732" ry="1.65766" fill="white"/>
<ellipse rx="2.21732" ry="1.65766" transform="matrix(-1 0 0 1 323.434 920)" fill="white"/>
<ellipse rx="2.21732" ry="1.65766" transform="matrix(-1 0 0 1 95.0503 517.189)" fill="white"/>
</g>
</svg>
