<svg width="1334" height="2667" viewBox="0 0 1334 2667" fill="none" xmlns="http://www.w3.org/2000/svg">
<g opacity="0.5">
<ellipse rx="7.76062" ry="12.0135" transform="matrix(-1 0 0 1 87.2892 1666.45)" fill="#E77E42"/>
<ellipse cx="1231.43" cy="235.122" rx="7.76062" ry="12.0135" fill="#1BEAFF"/>
<ellipse rx="7.76062" ry="12.0135" transform="matrix(-1 0 0 1 273.544 949.067)" fill="#E77E42"/>
<ellipse cx="1178.21" cy="2322.04" rx="7.76062" ry="12.0135" fill="#E77E42"/>
<ellipse cx="785.745" cy="207.662" rx="5.5433" ry="8.58108" fill="white"/>
<ellipse rx="5.5433" ry="8.58108" transform="matrix(-1 0 0 1 1169.34 876.986)" fill="white"/>
<ellipse cx="282.413" cy="2249.96" rx="5.5433" ry="8.58108" fill="white"/>
<ellipse cx="1089.52" cy="180.202" rx="5.5433" ry="8.58108" fill="white"/>
<ellipse rx="5.5433" ry="8.58108" transform="matrix(-1 0 0 1 504.145 808.337)" fill="white"/>
<ellipse cx="1156.04" cy="513.148" rx="5.5433" ry="8.58108" fill="white"/>
<ellipse rx="5.5433" ry="8.58108" transform="matrix(-1 0 0 1 38.5085 1110.39)" fill="white"/>
<ellipse cx="989.739" cy="458.23" rx="7.76062" ry="12.0135" fill="#E77E42"/>
<ellipse rx="7.76062" ry="12.0135" transform="matrix(-1 0 0 1 559.578 2136.69)" fill="#E77E42"/>
<ellipse cx="67.3339" cy="554.337" rx="7.76062" ry="12.0135" fill="#1BEAFF"/>
<ellipse cx="54.0302" cy="2579.47" rx="7.76062" ry="12.0135" fill="#1BEAFF"/>
<ellipse cx="987.522" cy="739.689" rx="5.5433" ry="8.58108" fill="#1BEAFF"/>
<ellipse cx="494.168" cy="212.812" rx="2.21732" ry="3.43243" fill="white"/>
<ellipse rx="2.21732" ry="3.43243" transform="matrix(-1 0 0 1 1148.28 1112.11)" fill="white"/>
<ellipse cx="303.478" cy="2485.08" rx="2.21732" ry="3.43243" fill="white"/>
<ellipse cx="957.587" cy="3.43243" rx="2.21732" ry="3.43243" fill="white"/>
<ellipse rx="2.21732" ry="3.43243" transform="matrix(-1 0 0 1 1310.14 1376.41)" fill="white"/>
<ellipse cx="1152.71" cy="2461.05" rx="2.21732" ry="3.43243" fill="white"/>
<ellipse rx="2.21732" ry="3.43243" transform="matrix(-1 0 0 1 1290.19 1204.78)" fill="white"/>
<ellipse rx="2.21732" ry="3.43243" transform="matrix(-1 0 0 1 1052.93 2001.11)" fill="white"/>
<ellipse cx="720.335" cy="761.999" rx="2.21732" ry="3.43243" fill="white"/>
<ellipse rx="2.21732" ry="3.43243" transform="matrix(-1 0 0 1 988.63 2134.97)" fill="white"/>
<ellipse cx="753.594" cy="724.243" rx="2.21732" ry="3.43243" fill="white"/>
<ellipse rx="2.21732" ry="3.43243" transform="matrix(-1 0 0 1 955.371 2097.22)" fill="white"/>
<ellipse cx="272.436" cy="435.918" rx="2.21732" ry="3.43243" fill="white"/>
<ellipse rx="2.21732" ry="3.43243" transform="matrix(-1 0 0 1 1276.88 1808.89)" fill="white"/>
<ellipse rx="2.21732" ry="3.43243" transform="matrix(-1 0 0 1 281.305 1757.41)" fill="white"/>
<ellipse rx="2.21732" ry="3.43243" transform="matrix(-1 0 0 1 731.421 885.567)" fill="white"/>
<ellipse cx="1032.98" cy="621.271" rx="2.21732" ry="3.43243" fill="white"/>
<ellipse rx="2.21732" ry="3.43243" transform="matrix(-1 0 0 1 547.383 1994.24)" fill="white"/>
<ellipse rx="2.21732" ry="3.43243" transform="matrix(-1 0 0 1 531.862 1304.33)" fill="white"/>
<ellipse rx="2.21732" ry="3.43243" transform="matrix(-1 0 0 1 729.204 1290.59)" fill="white"/>
<ellipse cx="979.761" cy="2663.57" rx="2.21732" ry="3.43243" fill="white"/>
<ellipse rx="2.21732" ry="3.43243" transform="matrix(-1 0 0 1 1079.54 1297.46)" fill="white"/>
<ellipse rx="2.21732" ry="3.43243" transform="matrix(-1 0 0 1 1323.45 1091.51)" fill="white"/>
<ellipse rx="2.21732" ry="3.43243" transform="matrix(-1 0 0 1 529.645 1129.27)" fill="white"/>
<ellipse rx="2.21732" ry="3.43243" transform="matrix(-1 0 0 1 1006.37 1136.14)" fill="white"/>
<ellipse cx="276.871" cy="154.459" rx="2.21732" ry="3.43243" fill="white"/>
<ellipse cx="272.436" cy="635" rx="2.21732" ry="3.43243" fill="white"/>
<ellipse rx="2.21732" ry="3.43243" transform="matrix(-1 0 0 1 1179.32 2007.97)" fill="white"/>
<ellipse rx="2.21732" ry="3.43243" transform="matrix(-1 0 0 1 1041.85 1362.68)" fill="white"/>
<ellipse cx="301.261" cy="2663.57" rx="2.21732" ry="3.43243" fill="white"/>
<ellipse cx="294.609" cy="2409.57" rx="2.21732" ry="3.43243" fill="white"/>
<ellipse rx="2.21732" ry="3.43243" transform="matrix(-1 0 0 1 1219.23 943.919)" fill="white"/>
<ellipse cx="997.5" cy="120.135" rx="2.21732" ry="3.43243" fill="white"/>
<ellipse cx="1086.19" cy="339.81" rx="2.21732" ry="3.43243" fill="white"/>
<ellipse rx="2.21732" ry="3.43243" transform="matrix(-1 0 0 1 540.732 1736.81)" fill="white"/>
<ellipse rx="2.21732" ry="3.43243" transform="matrix(-1 0 0 1 507.471 967.945)" fill="white"/>
<ellipse cx="1072.89" cy="2340.92" rx="2.21732" ry="3.43243" fill="white"/>
<ellipse cx="1160.47" cy="681.338" rx="5.5433" ry="8.58108" fill="white"/>
<ellipse rx="5.5433" ry="8.58108" transform="matrix(-1 0 0 1 249.154 2040.58)" fill="white"/>
<ellipse cx="709.248" cy="346.676" rx="2.21732" ry="3.43243" fill="white"/>
<ellipse rx="2.21732" ry="3.43243" transform="matrix(-1 0 0 1 999.717 1719.65)" fill="white"/>
<ellipse rx="2.21732" ry="3.43243" transform="matrix(-1 0 0 1 990.848 919.891)" fill="white"/>
<ellipse cx="800.158" cy="490.839" rx="2.21732" ry="3.43243" fill="white"/>
<ellipse rx="2.21732" ry="3.43243" transform="matrix(-1 0 0 1 793.505 1863.81)" fill="white"/>
<ellipse rx="2.21732" ry="3.43243" transform="matrix(-1 0 0 1 806.81 1118.97)" fill="white"/>
<ellipse cx="786.854" cy="2491.95" rx="2.21732" ry="3.43243" fill="white"/>
<ellipse cx="1270.23" cy="54.9193" rx="2.21732" ry="3.43243" fill="white"/>
<ellipse cx="1319.01" cy="298.621" rx="2.21732" ry="3.43243" fill="white"/>
<ellipse cx="1292.4" cy="2299.73" rx="2.21732" ry="3.43243" fill="white"/>
<ellipse rx="2.21732" ry="3.43243" transform="matrix(-1 0 0 1 1008.59 1606.38)" fill="white"/>
<ellipse cx="1163.8" cy="199.081" rx="2.21732" ry="3.43243" fill="white"/>
<ellipse rx="2.21732" ry="3.43243" transform="matrix(-1 0 0 1 97.2671 768.865)" fill="white"/>
<ellipse cx="1239.19" cy="2656.7" rx="2.21732" ry="3.43243" fill="white"/>
<ellipse cx="1205.93" cy="562.919" rx="2.21732" ry="3.43243" fill="white"/>
<ellipse cx="578.426" cy="96.1085" rx="2.21732" ry="3.43243" fill="white"/>
<ellipse cx="556.253" cy="501.136" rx="2.21732" ry="3.43243" fill="white"/>
<ellipse rx="2.21732" ry="3.43243" transform="matrix(-1 0 0 1 1024.11 1874.11)" fill="white"/>
<ellipse cx="1134.97" cy="10.2969" rx="2.21732" ry="3.43243" fill="white"/>
<ellipse cx="1241.4" cy="442.783" rx="2.21732" ry="3.43243" fill="white"/>
<ellipse rx="2.21732" ry="3.43243" transform="matrix(-1 0 0 1 323.434 1905)" fill="white"/>
<ellipse rx="2.21732" ry="3.43243" transform="matrix(-1 0 0 1 95.0503 1070.92)" fill="white"/>
</g>
</svg>
