<svg width="1140" height="1419" viewBox="0 0 1140 1419" fill="none" xmlns="http://www.w3.org/2000/svg">
<g opacity="0.5">
<ellipse cx="1058.97" cy="886.646" rx="6.51961" ry="6.39189" fill="#E77E42"/>
<ellipse rx="6.51961" ry="6.39189" transform="matrix(-1 0 0 1 97.7941 125.098)" fill="#1BEAFF"/>
<ellipse cx="902.5" cy="504.959" rx="6.51961" ry="6.39189" fill="#E77E42"/>
<ellipse rx="6.51961" ry="6.39189" transform="matrix(-1 0 0 1 142.5 1235.46)" fill="#E77E42"/>
<ellipse rx="4.65686" ry="4.56564" transform="matrix(-1 0 0 1 472.206 110.488)" fill="white"/>
<ellipse cx="149.951" cy="466.608" rx="4.65686" ry="4.56564" fill="white"/>
<ellipse rx="4.65686" ry="4.56564" transform="matrix(-1 0 0 1 895.049 1197.11)" fill="white"/>
<ellipse rx="4.65686" ry="4.56564" transform="matrix(-1 0 0 1 217.01 95.8781)" fill="white"/>
<ellipse cx="708.775" cy="430.083" rx="4.65686" ry="4.56564" fill="white"/>
<ellipse rx="4.65686" ry="4.56564" transform="matrix(-1 0 0 1 161.128 273.025)" fill="white"/>
<ellipse cx="1099.95" cy="590.793" rx="4.65686" ry="4.56564" fill="white"/>
<ellipse rx="6.51961" ry="6.39189" transform="matrix(-1 0 0 1 300.833 243.805)" fill="#E77E42"/>
<ellipse cx="662.206" cy="1136.84" rx="6.51961" ry="6.39189" fill="#E77E42"/>
<ellipse rx="6.51961" ry="6.39189" transform="matrix(-1 0 0 1 1075.74 294.94)" fill="#1BEAFF"/>
<ellipse rx="6.51961" ry="6.39189" transform="matrix(-1 0 0 1 1086.91 1372.43)" fill="#1BEAFF"/>
<ellipse rx="4.65686" ry="4.56564" transform="matrix(-1 0 0 1 302.696 393.558)" fill="#1BEAFF"/>
<ellipse rx="1.86275" ry="1.82625" transform="matrix(-1 0 0 1 717.157 113.228)" fill="white"/>
<ellipse cx="167.647" cy="591.706" rx="1.86275" ry="1.82625" fill="white"/>
<ellipse rx="1.86275" ry="1.82625" transform="matrix(-1 0 0 1 877.353 1322.21)" fill="white"/>
<ellipse rx="1.86275" ry="1.82625" transform="matrix(-1 0 0 1 327.843 1.82625)" fill="white"/>
<ellipse cx="31.6665" cy="732.328" rx="1.86275" ry="1.82625" fill="white"/>
<ellipse rx="1.86275" ry="1.82625" transform="matrix(-1 0 0 1 163.922 1309.42)" fill="white"/>
<ellipse cx="48.4316" cy="641.015" rx="1.86275" ry="1.82625" fill="white"/>
<ellipse cx="247.745" cy="1064.71" rx="1.86275" ry="1.82625" fill="white"/>
<ellipse rx="1.86275" ry="1.82625" transform="matrix(-1 0 0 1 527.157 405.428)" fill="white"/>
<ellipse cx="301.765" cy="1135.93" rx="1.86275" ry="1.82625" fill="white"/>
<ellipse rx="1.86275" ry="1.82625" transform="matrix(-1 0 0 1 499.216 385.34)" fill="white"/>
<ellipse cx="329.706" cy="1115.84" rx="1.86275" ry="1.82625" fill="white"/>
<ellipse rx="1.86275" ry="1.82625" transform="matrix(-1 0 0 1 903.431 231.934)" fill="white"/>
<ellipse cx="59.6079" cy="962.437" rx="1.86275" ry="1.82625" fill="white"/>
<ellipse cx="895.98" cy="935.043" rx="1.86275" ry="1.82625" fill="white"/>
<ellipse cx="1138.14" cy="1033.66" rx="1.86275" ry="1.82625" fill="white"/>
<ellipse cx="517.843" cy="471.173" rx="1.86275" ry="1.82625" fill="white"/>
<ellipse rx="1.86275" ry="1.82625" transform="matrix(-1 0 0 1 264.51 330.552)" fill="white"/>
<ellipse cx="672.451" cy="1061.05" rx="1.86275" ry="1.82625" fill="white"/>
<ellipse cx="685.49" cy="693.977" rx="1.86275" ry="1.82625" fill="white"/>
<ellipse cx="519.706" cy="686.672" rx="1.86275" ry="1.82625" fill="white"/>
<ellipse rx="1.86275" ry="1.82625" transform="matrix(-1 0 0 1 309.216 1417.17)" fill="white"/>
<ellipse cx="225.392" cy="690.324" rx="1.86275" ry="1.82625" fill="white"/>
<ellipse cx="20.4902" cy="580.749" rx="1.86275" ry="1.82625" fill="white"/>
<ellipse cx="1.86275" cy="547.876" rx="1.86275" ry="1.82625" fill="white"/>
<ellipse cx="687.353" cy="600.838" rx="1.86275" ry="1.82625" fill="white"/>
<ellipse cx="286.863" cy="604.49" rx="1.86275" ry="1.82625" fill="white"/>
<ellipse rx="1.86275" ry="1.82625" transform="matrix(-1 0 0 1 899.706 82.1812)" fill="white"/>
<ellipse rx="1.86275" ry="1.82625" transform="matrix(-1 0 0 1 903.431 337.858)" fill="white"/>
<ellipse cx="141.569" cy="1068.36" rx="1.86275" ry="1.82625" fill="white"/>
<ellipse cx="257.059" cy="725.023" rx="1.86275" ry="1.82625" fill="white"/>
<ellipse rx="1.86275" ry="1.82625" transform="matrix(-1 0 0 1 879.216 1417.17)" fill="white"/>
<ellipse rx="1.86275" ry="1.82625" transform="matrix(-1 0 0 1 884.804 1282.03)" fill="white"/>
<ellipse cx="108.039" cy="502.22" rx="1.86275" ry="1.82625" fill="white"/>
<ellipse rx="1.86275" ry="1.82625" transform="matrix(-1 0 0 1 294.314 63.919)" fill="white"/>
<ellipse rx="1.86275" ry="1.82625" transform="matrix(-1 0 0 1 219.804 180.799)" fill="white"/>
<ellipse cx="678.039" cy="924.085" rx="1.86275" ry="1.82625" fill="white"/>
<ellipse cx="705.98" cy="515.003" rx="1.86275" ry="1.82625" fill="white"/>
<ellipse rx="1.86275" ry="1.82625" transform="matrix(-1 0 0 1 230.981 1245.51)" fill="white"/>
<ellipse rx="4.65686" ry="4.56564" transform="matrix(-1 0 0 1 157.402 362.512)" fill="white"/>
<ellipse cx="922.99" cy="1085.71" rx="4.65686" ry="4.56564" fill="white"/>
<ellipse rx="1.86275" ry="1.82625" transform="matrix(-1 0 0 1 536.471 184.452)" fill="white"/>
<ellipse cx="292.451" cy="914.953" rx="1.86275" ry="1.82625" fill="white"/>
<ellipse cx="299.902" cy="489.436" rx="1.86275" ry="1.82625" fill="white"/>
<ellipse rx="1.86275" ry="1.82625" transform="matrix(-1 0 0 1 460.098 261.155)" fill="white"/>
<ellipse cx="465.686" cy="991.656" rx="1.86275" ry="1.82625" fill="white"/>
<ellipse cx="454.51" cy="595.359" rx="1.86275" ry="1.82625" fill="white"/>
<ellipse rx="1.86275" ry="1.82625" transform="matrix(-1 0 0 1 471.274 1325.86)" fill="white"/>
<ellipse rx="1.86275" ry="1.82625" transform="matrix(-1 0 0 1 65.1963 29.2203)" fill="white"/>
<ellipse rx="1.86275" ry="1.82625" transform="matrix(-1 0 0 1 24.2156 158.884)" fill="white"/>
<ellipse rx="1.86275" ry="1.82625" transform="matrix(-1 0 0 1 46.5687 1223.59)" fill="white"/>
<ellipse cx="285" cy="854.687" rx="1.86275" ry="1.82625" fill="white"/>
<ellipse rx="1.86275" ry="1.82625" transform="matrix(-1 0 0 1 154.607 105.923)" fill="white"/>
<ellipse cx="1050.59" cy="409.081" rx="1.86275" ry="1.82625" fill="white"/>
<ellipse rx="1.86275" ry="1.82625" transform="matrix(-1 0 0 1 91.2747 1413.52)" fill="white"/>
<ellipse rx="1.86275" ry="1.82625" transform="matrix(-1 0 0 1 119.216 299.506)" fill="white"/>
<ellipse rx="1.86275" ry="1.82625" transform="matrix(-1 0 0 1 646.372 51.1353)" fill="white"/>
<ellipse rx="1.86275" ry="1.82625" transform="matrix(-1 0 0 1 665 266.633)" fill="white"/>
<ellipse cx="271.961" cy="997.135" rx="1.86275" ry="1.82625" fill="white"/>
<ellipse rx="1.86275" ry="1.82625" transform="matrix(-1 0 0 1 178.824 5.4786)" fill="white"/>
<ellipse rx="1.86275" ry="1.82625" transform="matrix(-1 0 0 1 89.4119 235.587)" fill="white"/>
<ellipse cx="860.588" cy="1013.57" rx="1.86275" ry="1.82625" fill="white"/>
<ellipse cx="1052.45" cy="569.791" rx="1.86275" ry="1.82625" fill="white"/>
</g>
</svg>
