<svg width="1334" height="857" viewBox="0 0 1334 857" fill="none" xmlns="http://www.w3.org/2000/svg">
<g opacity="0.5">
<ellipse cx="1240.59" cy="125.098" rx="7.76062" ry="6.39189" fill="#1BEAFF"/>
<ellipse rx="7.76062" ry="6.39189" transform="matrix(-1 0 0 1 282.708 504.96)" fill="#E77E42"/>
<ellipse cx="794.909" cy="110.489" rx="5.5433" ry="4.56564" fill="white"/>
<ellipse rx="5.5433" ry="4.56564" transform="matrix(-1 0 0 1 1178.51 466.608)" fill="white"/>
<ellipse cx="1098.68" cy="95.8781" rx="5.5433" ry="4.56564" fill="white"/>
<ellipse rx="5.5433" ry="4.56564" transform="matrix(-1 0 0 1 513.31 430.083)" fill="white"/>
<ellipse cx="1165.2" cy="273.025" rx="5.5433" ry="4.56564" fill="white"/>
<ellipse rx="5.5433" ry="4.56564" transform="matrix(-1 0 0 1 47.6725 590.793)" fill="white"/>
<ellipse cx="998.903" cy="243.805" rx="7.76062" ry="6.39189" fill="#E77E42"/>
<ellipse cx="76.4974" cy="294.94" rx="7.76062" ry="6.39189" fill="#1BEAFF"/>
<ellipse cx="996.685" cy="393.558" rx="5.5433" ry="4.56564" fill="#1BEAFF"/>
<ellipse cx="503.332" cy="113.228" rx="2.21732" ry="1.82625" fill="white"/>
<ellipse rx="2.21732" ry="1.82625" transform="matrix(-1 0 0 1 1157.44 591.706)" fill="white"/>
<ellipse cx="966.752" cy="1.82625" rx="2.21732" ry="1.82625" fill="white"/>
<ellipse rx="2.21732" ry="1.82625" transform="matrix(-1 0 0 1 1319.31 732.328)" fill="white"/>
<ellipse rx="2.21732" ry="1.82625" transform="matrix(-1 0 0 1 1299.35 641.015)" fill="white"/>
<ellipse cx="729.499" cy="405.428" rx="2.21732" ry="1.82625" fill="white"/>
<ellipse cx="762.758" cy="385.34" rx="2.21732" ry="1.82625" fill="white"/>
<ellipse cx="281.6" cy="231.934" rx="2.21732" ry="1.82625" fill="white"/>
<ellipse rx="2.21732" ry="1.82625" transform="matrix(-1 0 0 1 740.585 471.173)" fill="white"/>
<ellipse cx="1042.14" cy="330.552" rx="2.21732" ry="1.82625" fill="white"/>
<ellipse rx="2.21732" ry="1.82625" transform="matrix(-1 0 0 1 541.026 693.977)" fill="white"/>
<ellipse rx="2.21732" ry="1.82625" transform="matrix(-1 0 0 1 738.368 686.672)" fill="white"/>
<ellipse rx="2.21732" ry="1.82625" transform="matrix(-1 0 0 1 1088.7 690.324)" fill="white"/>
<ellipse rx="2.21732" ry="1.82625" transform="matrix(-1 0 0 1 1332.61 580.749)" fill="white"/>
<ellipse rx="2.21732" ry="1.82625" transform="matrix(-1 0 0 1 538.809 600.838)" fill="white"/>
<ellipse rx="2.21732" ry="1.82625" transform="matrix(-1 0 0 1 1015.53 604.49)" fill="white"/>
<ellipse cx="286.034" cy="82.1812" rx="2.21732" ry="1.82625" fill="white"/>
<ellipse cx="281.6" cy="337.857" rx="2.21732" ry="1.82625" fill="white"/>
<ellipse rx="2.21732" ry="1.82625" transform="matrix(-1 0 0 1 1051.01 725.023)" fill="white"/>
<ellipse rx="2.21732" ry="1.82625" transform="matrix(-1 0 0 1 1228.4 502.22)" fill="white"/>
<ellipse cx="1006.66" cy="63.919" rx="2.21732" ry="1.82625" fill="white"/>
<ellipse cx="1095.36" cy="180.799" rx="2.21732" ry="1.82625" fill="white"/>
<ellipse rx="2.21732" ry="1.82625" transform="matrix(-1 0 0 1 516.636 515.004)" fill="white"/>
<ellipse cx="1169.64" cy="362.512" rx="5.5433" ry="4.56564" fill="white"/>
<ellipse cx="718.412" cy="184.452" rx="2.21732" ry="1.82625" fill="white"/>
<ellipse rx="2.21732" ry="1.82625" transform="matrix(-1 0 0 1 1000.01 489.436)" fill="white"/>
<ellipse cx="809.322" cy="261.155" rx="2.21732" ry="1.82625" fill="white"/>
<ellipse rx="2.21732" ry="1.82625" transform="matrix(-1 0 0 1 815.974 595.359)" fill="white"/>
<ellipse cx="1279.39" cy="29.2201" rx="2.21732" ry="1.82625" fill="white"/>
<ellipse cx="1328.17" cy="158.884" rx="2.21732" ry="1.82625" fill="white"/>
<ellipse rx="2.21732" ry="1.82625" transform="matrix(-1 0 0 1 1017.75 854.687)" fill="white"/>
<ellipse cx="1172.96" cy="105.923" rx="2.21732" ry="1.82625" fill="white"/>
<ellipse rx="2.21732" ry="1.82625" transform="matrix(-1 0 0 1 106.432 409.081)" fill="white"/>
<ellipse cx="1215.09" cy="299.506" rx="2.21732" ry="1.82625" fill="white"/>
<ellipse cx="587.59" cy="51.1351" rx="2.21732" ry="1.82625" fill="white"/>
<ellipse cx="565.417" cy="266.633" rx="2.21732" ry="1.82625" fill="white"/>
<ellipse cx="1144.14" cy="5.4786" rx="2.21732" ry="1.82625" fill="white"/>
<ellipse cx="1250.57" cy="235.587" rx="2.21732" ry="1.82625" fill="white"/>
<ellipse rx="2.21732" ry="1.82625" transform="matrix(-1 0 0 1 104.214 569.791)" fill="white"/>
</g>
</svg>
