<svg width="1335" height="520" viewBox="0 0 1335 520" fill="none" xmlns="http://www.w3.org/2000/svg">
<g opacity="0.4">
<path d="M493.132 570.433C487.925 570.433 482.856 569.971 477.985 569.051C467.769 567.119 458.331 563.152 449.933 557.26C440.905 550.929 432.988 542.302 426.399 531.621C413.155 510.151 406.529 484.439 400.121 459.573C398.862 454.69 397.561 449.641 396.239 444.743C387.222 411.354 375.791 382.108 361.297 355.332C332.382 301.92 291.719 256.336 243.7 223.509C188.168 185.547 128.461 166.637 75.5771 170.262C44.4948 172.395 3.42646 192.669 -14.928 227.294C-25.8206 247.843 -26.6989 270.648 -17.4663 293.238L-17.6496 293.334C-22.4906 281.486 -24.5998 269.609 -23.9168 258.032C-23.2903 247.411 -20.3249 237.03 -15.1012 227.176C-6.79328 211.502 6.90759 197.611 24.5207 187.002C40.7961 177.2 58.9229 171.174 75.565 170.033C103.241 168.137 132.675 172.345 163.05 182.542C190.585 191.787 217.755 205.503 243.805 223.311C291.852 256.156 332.539 301.765 361.47 355.209C375.973 382.003 387.409 411.266 396.432 444.672C397.756 449.571 399.057 454.622 400.314 459.505C406.717 484.353 413.338 510.046 426.564 531.484C439.354 552.22 456.667 564.782 478.019 568.819C507.589 574.411 543.496 562.715 574.068 537.531C618.126 501.24 648.703 448.416 678.274 397.333C683.458 388.38 688.816 379.121 694.123 370.181C707.898 346.965 726.555 316.882 748.727 290.081C771.39 262.687 794.42 242.56 819.135 228.549C834.262 219.972 850.294 214.194 866.785 211.375C882.016 208.77 898.139 208.609 914.704 210.891C943.119 214.807 973.732 225.871 1008.29 244.711C1076.34 281.811 1144.32 326.843 1210.34 378.557C1273.09 427.71 1334.63 483.33 1393.25 543.866L1393.11 544.035C1271.59 418.544 1142.09 317.907 1008.21 244.915C932.563 203.678 872.514 198.541 819.225 228.751C765.012 259.484 727.141 314.947 694.29 370.306C688.985 379.244 683.627 388.502 678.443 397.456C648.864 448.557 618.277 501.397 574.189 537.713C559.942 549.449 543.915 558.603 527.841 564.184C519.349 567.132 510.909 569.06 502.75 569.914C499.498 570.262 496.289 570.433 493.132 570.433Z" fill="white" fill-opacity="0.3"/>
<path d="M498.226 557.701C484.946 557.701 472.645 554.849 461.652 549.218C449.394 542.939 438.815 533.21 430.209 520.303C429.448 519.16 428.692 517.978 427.963 516.787C414.86 495.41 407.94 470.032 401.25 445.489C399.896 440.529 398.498 435.398 397.08 430.42C388.633 400.778 378.462 374.652 365.982 350.555C364.445 347.588 362.853 344.615 361.248 341.719C331.908 288.765 290.914 243.759 242.698 211.564C186.764 174.25 126.888 156.122 74.0994 160.52C43.2427 163.118 2.36373 183.725 -16.0693 218.084C-27.1069 238.658 -28.3559 261.508 -19.6854 284.165L-19.8707 284.255C-24.4155 272.38 -26.283 260.48 -25.4187 248.89C-24.625 238.244 -21.5388 227.84 -16.2425 217.965C-7.84998 202.319 5.81061 188.412 23.2585 177.749C39.3849 167.892 57.4331 161.693 74.0813 160.293C101.723 157.99 131.189 161.795 161.661 171.602C189.262 180.485 216.561 193.865 242.799 211.369C291.043 243.582 332.059 288.615 361.417 341.598C363.022 344.497 364.616 347.472 366.153 350.441C378.641 374.555 388.819 400.694 397.269 430.352C398.69 435.33 400.088 440.461 401.442 445.423C408.13 469.95 415.044 495.31 428.128 516.657C428.855 517.844 429.611 519.026 430.37 520.167C448.155 546.847 472.591 557.701 498.288 557.701C498.429 557.701 498.568 557.701 498.71 557.701C498.548 557.699 498.387 557.701 498.226 557.701ZM503.708 557.542C527.598 556.158 552.25 545.799 573.398 530.389C619.018 497.012 651.804 445.462 683.513 395.609C684.818 393.554 686.124 391.503 687.429 389.453C690.296 384.952 693.695 379.624 697.164 374.252C712.726 350.164 731.56 322.136 753.25 296.908C776.329 270.064 799.385 250.144 823.735 236.008C838.697 227.331 854.509 221.218 870.732 217.84C885.763 214.71 901.647 213.826 917.939 215.21C946.084 217.604 976.346 226.678 1010.46 242.954C1043.71 258.798 1071.05 273.713 1096.49 289.891C1132.52 312.831 1166.85 339.264 1195.67 362.093C1262.69 415.322 1328.45 475.763 1391.11 541.739L1390.98 541.905C1328.32 475.938 1262.57 415.501 1195.56 362.28C1166.74 339.452 1132.42 313.025 1096.39 290.091C1070.96 273.917 1043.63 259.007 1010.38 243.168C936.074 207.711 876.794 205.499 823.828 236.212C768.855 268.123 729.706 324.268 697.327 374.389C693.856 379.76 690.459 385.086 687.593 389.589C686.287 391.638 684.982 393.69 683.676 395.745C651.957 445.614 619.159 497.183 573.507 530.585C562.188 538.832 550.143 545.383 537.705 550.054C526.127 554.398 514.715 556.91 503.708 557.542Z" fill="white" fill-opacity="0.3"/>
<path d="M503.837 545.261C502.24 545.261 500.652 545.222 499.077 545.142C485.809 544.481 473.53 541.046 462.583 534.929C450.611 528.239 440.238 518.33 431.755 505.476C431.002 504.33 430.25 503.146 429.525 501.954C416.569 480.682 409.361 455.643 402.393 431.432C400.941 426.385 399.438 421.166 397.915 416.102C389.051 386.56 378.612 360.643 365.997 336.87C364.435 333.931 362.82 330.983 361.19 328.11C331.425 275.618 290.101 231.189 241.687 199.626C185.355 162.96 125.31 145.611 72.6135 150.782C42.9434 153.74 2.18323 173.171 -17.1966 208.841C-28.3934 229.45 -30.0232 252.361 -21.9106 275.097L-22.098 275.181C-26.3486 263.27 -27.9704 251.343 -26.9228 239.731C-25.9599 229.052 -22.7446 218.62 -17.3678 208.723C-8.88664 193.113 4.7296 179.201 22.0103 168.488C37.9856 158.584 55.9512 152.217 72.5953 150.557C100.205 147.85 129.703 151.251 160.27 160.666C187.94 169.19 215.366 182.232 241.788 199.43C290.23 231.014 331.576 275.468 361.359 327.989C362.989 330.865 364.606 333.813 366.168 336.757C378.789 360.543 389.234 386.475 398.102 416.033C399.625 421.1 401.128 426.319 402.58 431.366C409.547 455.564 416.749 480.584 429.688 501.832C430.413 503.023 431.161 504.205 431.914 505.346C466.385 557.579 527.474 551.971 572.722 523.245C620.245 492.81 655.562 442.225 689.716 393.306L690.067 392.804C693.375 388.062 696.796 383.161 700.2 378.322C736.125 327.266 775.612 274.797 828.333 243.462C843.134 234.683 858.728 228.236 874.679 224.301C889.516 220.641 905.159 219.034 921.173 219.525C949.092 220.38 979.004 227.468 1012.62 241.193C1047.95 255.566 1074.53 268.778 1098.82 284.033C1133.42 305.812 1166.94 333.333 1196.51 357.615C1262.36 411.969 1327.11 473.199 1388.97 539.6L1388.84 539.764C1326.98 473.369 1262.23 412.146 1196.39 357.797C1166.83 333.52 1133.31 306.003 1098.72 284.231C1074.44 268.98 1047.86 255.773 1012.55 241.404C939.686 211.653 881.18 212.369 828.425 243.659C775.739 274.974 736.268 327.421 700.357 378.458C696.953 383.298 693.532 388.201 690.224 392.94L689.874 393.443C672.853 417.82 655.254 443.027 636.249 465.543C614.891 490.846 594.143 509.783 572.819 523.438C550.51 537.6 526.209 545.261 503.837 545.261Z" fill="white" fill-opacity="0.3"/>
<path d="M1386.7 537.621C1325.65 470.799 1261.9 408.789 1197.24 353.315C1194.5 350.982 1191.76 348.639 1189 346.288C1160.99 322.37 1132.03 297.638 1101.06 278.37C1071.01 259.731 1040.56 248.333 1014.73 239.643C943.444 215.506 885.709 219.15 833.035 251.106C778.963 284.008 737.065 338.634 703.4 382.529C701.379 385.164 699.363 387.803 697.342 390.444C695.851 392.395 694.358 394.345 692.866 396.293C673.697 421.312 656.262 443.68 636.997 464.09C614.988 487.406 593.775 504.482 572.141 516.296C551.866 527.369 530.208 533.226 510.063 533.229C506.392 533.229 502.776 533.035 499.222 532.642C486.249 531.208 474.238 527.178 463.525 520.663C451.834 513.554 441.667 503.457 433.301 490.65C432.553 489.502 431.808 488.316 431.087 487.122C418.284 465.961 410.796 441.275 403.556 417.402C401.997 412.26 400.383 406.941 398.751 401.778C389.464 372.33 378.755 346.62 366.015 323.179C364.43 320.263 362.788 317.342 361.136 314.493C330.944 262.463 289.291 218.611 240.683 187.678C183.951 151.66 123.739 135.095 71.1352 141.033C35.1737 145.172 -1.59969 169.236 -18.2921 199.548C-29.6642 220.2 -31.6808 243.184 -24.1283 266.016L-24.3176 266.095C-28.2722 254.141 -29.6501 242.177 -28.4132 230.536C-27.275 219.818 -23.9268 209.353 -18.4634 199.428C-9.89356 183.864 3.67838 169.952 20.7858 159.2C36.608 149.255 54.481 142.722 71.115 140.808C98.692 137.693 128.221 140.692 158.882 149.716C186.619 157.881 214.175 170.586 240.783 187.478C289.422 218.429 331.097 262.306 361.307 314.368C362.961 317.219 364.603 320.142 366.188 323.059C378.936 346.513 389.65 372.236 398.943 401.699C400.574 406.863 402.188 412.18 403.747 417.325C410.984 441.184 418.468 465.854 431.254 486.99C431.975 488.181 432.718 489.366 433.464 490.511C469.449 545.599 530.613 538.718 572.054 516.089C621.497 489.088 659.332 439.711 692.715 396.143C694.207 394.193 695.698 392.242 697.191 390.294C699.209 387.653 701.228 385.014 703.249 382.379C722.465 357.324 741.442 332.976 762.305 310.54C786.296 284.738 809.403 265.232 832.942 250.906C847.588 242.02 862.961 235.239 878.636 230.755C893.286 226.561 908.689 224.233 924.419 223.833C952.159 223.128 981.722 228.229 1014.79 239.424C1040.63 248.119 1071.09 259.521 1101.16 278.173C1132.14 297.447 1161.11 322.186 1189.13 346.109C1191.88 348.459 1194.62 350.803 1197.36 353.135C1262.03 408.614 1325.79 470.63 1386.85 537.459L1386.7 537.621Z" fill="white" fill-opacity="0.3"/>
<path d="M1384.57 535.479C1323.17 466.952 1260.42 404.154 1198.08 348.832C1194.35 345.522 1190.53 342.11 1186.84 338.812C1160.41 315.189 1133.08 290.761 1103.39 272.51C1073.75 254.35 1043.04 244.812 1016.91 237.878C947.355 219.245 890.39 225.815 837.639 258.553C787.324 289.893 747.905 337.02 709.784 382.595L705.598 387.598C702.292 391.551 698.874 395.636 695.503 399.644C657.344 444.957 619.144 487.427 571.458 509.149C559.887 514.42 548.005 518.073 536.139 520.012C523.397 522.092 511.02 522.122 499.35 520.099C486.674 517.901 474.936 513.284 464.46 506.376C453.06 498.858 443.096 488.577 434.848 475.82C434.105 474.665 433.366 473.476 432.651 472.285C420.005 451.249 412.247 426.926 404.745 403.404C403.071 398.155 401.339 392.726 399.59 387.455C389.872 358.097 378.897 332.594 366.036 309.49C364.428 306.603 362.762 303.705 361.084 300.879C330.467 249.31 288.486 206.036 239.678 175.732C182.546 140.366 122.164 124.582 69.6511 131.29C34.018 135.938 -2.58816 160.17 -19.3652 190.219C-30.9267 210.923 -33.3421 233.996 -26.3516 256.943L-26.543 257.019C-30.2014 245.012 -31.3316 233.003 -29.9033 221.328C-28.5858 210.564 -25.0986 200.058 -19.5385 190.101C-10.876 174.589 2.64763 160.691 19.5738 149.907C35.2388 139.925 53.0151 133.236 69.6269 131.067C97.1717 127.548 126.731 130.142 157.489 138.775C185.294 146.581 212.977 158.947 239.773 175.535C288.609 205.854 330.614 249.156 361.249 300.754C362.927 303.582 364.595 306.483 366.203 309.37C379.072 332.485 390.053 358.002 399.775 387.375C401.524 392.647 403.256 398.078 404.931 403.326C412.429 426.835 420.183 451.147 432.814 472.158C433.527 473.344 434.266 474.531 435.008 475.686C470.127 530.007 528.48 528.482 571.38 508.94C619.027 487.236 657.211 444.782 695.354 399.489C698.725 395.482 702.143 391.397 705.449 387.444L709.635 382.44C728.348 360.07 747.696 336.936 768.71 315.416C792.509 291.043 815.024 272.378 837.538 258.353C852.035 249.356 867.19 242.241 882.581 237.208C897.052 232.475 912.215 229.425 927.651 228.14C955.27 225.842 984.479 228.956 1016.95 237.656C1043.1 244.593 1073.82 254.134 1103.48 272.31C1133.19 290.568 1160.52 315.002 1186.96 338.632C1190.65 341.93 1194.47 345.34 1198.2 348.652C1260.55 403.979 1323.3 466.782 1384.71 535.315L1384.57 535.479Z" fill="white" fill-opacity="0.3"/>
<path d="M1382.43 533.338C1321.56 464.049 1259.82 400.464 1198.92 344.351C1194.34 340.134 1189.65 335.749 1185.11 331.51C1160.11 308.142 1134.25 283.978 1105.72 266.654C1076.22 248.805 1045.37 241.202 1019.09 236.119C951.461 222.841 895.268 232.339 842.243 266.004C795.969 295.508 757.977 337.32 721.234 377.755C717.368 382.011 713.369 386.409 709.473 390.671C704.898 395.677 701.403 399.48 698.141 402.999C680.673 421.834 659.875 443.522 638.05 461.562C614.921 480.677 592.916 493.907 570.776 502.009C559.134 506.269 547.303 508.956 535.608 509.992C523.052 511.106 510.894 510.288 499.476 507.558C487.104 504.6 475.64 499.397 465.396 492.093C454.287 484.173 444.531 473.708 436.396 460.992C435.663 459.839 434.928 458.648 434.215 457.452C421.737 436.557 413.719 412.61 405.963 389.451C404.164 384.079 402.304 378.526 400.429 373.132C390.274 343.856 379.03 318.562 366.055 295.801C364.423 292.939 362.733 290.068 361.03 287.265C329.988 236.158 287.677 193.461 238.672 163.787C181.142 129.071 120.591 114.07 68.1712 121.545C38.3439 125.891 -0.613184 145.913 -20.408 180.842C-32.177 201.61 -35.0013 224.787 -28.573 247.867L-28.7643 247.935C-32.1266 235.867 -33.0049 223.805 -31.3772 212.085C-29.8744 201.267 -26.2421 190.715 -20.5773 180.72C-11.8221 165.271 1.65115 151.396 18.3899 140.589C33.8978 130.578 51.5673 123.736 68.147 121.319C95.6595 117.396 125.251 119.585 156.102 127.828C183.973 135.274 211.786 147.304 238.766 163.587C287.8 193.277 330.136 235.998 361.196 287.136C362.898 289.938 364.59 292.814 366.222 295.678C379.204 318.451 390.453 343.758 400.614 373.048C402.492 378.444 404.351 383.997 406.15 389.369C413.9 412.516 421.916 436.451 434.38 457.323C435.093 458.516 435.826 459.705 436.56 460.855C465.776 506.532 515.928 521.835 570.714 501.788C620.328 483.635 660.8 442.947 698.002 402.831C701.264 399.312 704.757 395.509 709.332 390.503C713.228 386.241 717.227 381.842 721.093 377.587C739.181 357.681 757.884 337.097 777.834 317.823C800.393 296.026 821.431 279.009 842.146 265.802C856.504 256.686 871.438 249.237 886.537 243.664C900.838 238.383 915.762 234.612 930.893 232.45C958.444 228.517 987.304 229.643 1019.12 235.889C1045.42 240.977 1076.29 248.583 1105.82 266.447C1134.36 283.783 1160.23 307.953 1185.24 331.328C1189.78 335.568 1194.47 339.953 1199.05 344.169C1259.95 400.289 1321.7 463.879 1382.58 533.172L1382.43 533.338Z" fill="white" fill-opacity="0.3"/>
<path d="M1380.3 531.197C1319.95 461.142 1259.21 396.768 1199.76 339.869C1194.7 335.029 1189.5 329.949 1184.48 325.036C1160.55 301.636 1135.8 277.441 1108.06 260.794C1078.53 243.159 1047.61 237.533 1021.26 234.355C956.705 226.361 899.651 239.149 846.846 273.451C804.8 300.889 768.758 337.593 733.903 373.091C726.862 380.261 719.583 387.676 712.506 394.743C708.177 399.069 704.341 402.867 700.776 406.354C684.194 422.553 662.137 443.323 638.567 460.297C614.884 477.35 592.484 488.659 570.089 494.867C545.662 501.639 521.285 501.689 499.592 495.015C487.531 491.303 476.338 485.515 466.324 477.811C455.512 469.494 445.963 458.846 437.939 446.169C437.212 445.014 436.483 443.821 435.773 442.625C423.473 421.889 415.205 398.335 407.211 375.558C405.277 370.047 403.279 364.351 401.262 358.816C390.662 329.617 379.151 304.528 366.07 282.119C364.415 279.282 362.7 276.436 360.974 273.658C329.507 223.012 286.867 180.89 237.664 151.851C179.738 117.787 119.018 103.569 66.6881 111.809C31.2242 117.515 -4.18529 141.474 -21.4217 171.425C-33.4162 192.268 -36.6576 215.565 -30.7953 238.799L-30.9887 238.861C-34.0528 226.72 -34.6773 214.595 -32.8461 202.824C-31.1539 191.945 -27.3666 181.338 -21.5909 171.3C-12.743 155.924 0.677796 142.081 17.2212 131.265C32.5659 121.234 50.1246 114.241 66.6599 111.582C94.1402 107.254 123.764 109.04 154.709 116.889C182.649 123.977 210.591 135.67 237.757 151.646C286.988 180.704 329.652 222.849 361.139 273.526C362.865 276.304 364.58 279.153 366.238 281.992C379.324 304.414 390.841 329.515 401.448 358.727C403.464 364.262 405.463 369.961 407.397 375.471C415.386 398.237 423.65 421.78 435.939 442.495C436.648 443.691 437.375 444.88 438.102 446.035C466.817 491.416 516.139 509.588 570.04 494.646C619.179 481.023 661.851 444.077 700.643 406.184C704.206 402.697 708.044 398.901 712.371 394.575C719.446 387.508 726.727 380.095 733.766 372.925C768.629 337.421 804.677 300.707 846.743 273.258C860.974 264.013 875.69 256.232 890.483 250.127C904.631 244.289 919.315 239.795 934.126 236.769C961.67 231.143 990.18 230.282 1021.28 234.133C1047.65 237.313 1078.59 242.941 1108.15 260.597C1135.92 277.254 1160.67 301.459 1184.61 324.868C1189.64 329.781 1194.83 334.859 1199.89 339.698C1259.34 396.602 1320.09 460.981 1380.44 531.04L1380.3 531.197Z" fill="white" fill-opacity="0.3"/>
<path d="M1378.16 529.055C1318.35 458.228 1258.61 393.07 1200.6 335.388C1195.27 330.087 1189.78 324.475 1184.48 319.046C1161.42 295.449 1137.58 271.046 1110.39 254.936C1080.74 237.451 1049.8 233.83 1023.44 232.593C961.32 229.466 905.06 245.266 851.449 280.9C813.852 306.01 780.336 337.789 747.922 368.52C736.778 379.088 726.25 389.069 715.543 398.814C711.187 402.781 707.221 406.345 703.413 409.707C678.846 431.382 658.406 447.053 639.087 459.023C614.85 474.042 592.058 483.43 569.406 487.722C560.619 489.386 551.863 490.216 543.267 490.216C528.03 490.216 513.285 487.615 499.711 482.464C475.146 473.142 454.884 455.941 439.487 431.339C438.761 430.172 438.038 428.979 437.337 427.788C425.224 407.232 416.724 384.095 408.505 361.718C406.422 356.049 404.27 350.189 402.101 344.49C391.047 315.359 379.266 290.48 366.091 268.428C364.411 265.616 362.672 262.795 360.922 260.042C329.029 209.857 286.059 168.313 236.659 139.903C178.336 106.494 117.449 93.0552 65.2097 102.061C29.5987 108.329 -4.78945 131.833 -22.3945 161.943C-34.6328 182.872 -38.3033 206.309 -33.0131 229.72L-33.2085 229.777C-35.9704 217.552 -36.3371 205.354 -34.2964 193.522C-32.4067 182.57 -28.4603 171.904 -22.5617 161.818C-13.6212 146.527 -0.258743 132.729 16.0832 121.913C31.2627 111.866 48.6985 104.737 65.1795 101.836C92.6275 97.1037 122.284 98.4858 153.322 105.944C181.33 112.675 209.398 124.032 236.752 139.698C286.18 168.126 329.175 209.694 361.087 259.908C362.837 262.663 364.576 265.484 366.258 268.298C379.441 290.361 391.228 315.255 402.286 344.397C404.456 350.096 406.609 355.958 408.69 361.627C416.906 383.993 425.401 407.12 437.504 427.658C438.205 428.847 438.927 430.041 439.652 431.204C468.403 477.15 515.684 497.667 569.372 487.495C620.479 477.811 665.745 442.648 703.288 409.525C707.094 406.163 711.06 402.601 715.416 398.635C726.121 388.889 736.649 378.91 747.793 368.342C780.211 337.605 813.735 305.821 851.347 280.703C865.471 271.315 879.967 263.199 894.436 256.58C908.449 250.17 922.893 244.953 937.365 241.077C964.966 233.687 993.126 230.836 1023.45 232.364C1049.83 233.6 1080.8 237.226 1110.48 254.732C1137.69 270.853 1161.55 295.267 1184.61 318.874C1189.92 324.302 1195.4 329.914 1200.73 335.213C1258.75 392.899 1318.49 458.064 1378.3 528.896L1378.16 529.055Z" fill="white" fill-opacity="0.3"/>
<path d="M1376.02 526.914C1315.92 454.3 1258.81 390.185 1201.44 330.905C1195.96 325.25 1190.57 319.474 1184.86 313.359C1162.56 289.454 1139.49 264.738 1112.72 249.078C1082.7 231.6 1050.4 230.145 1025.62 230.832C966.325 232.259 910.859 251.074 856.052 288.352C823.168 310.827 792.807 337.816 763.445 363.919C748.014 377.637 733.439 390.592 718.576 402.887C714.164 406.54 710.064 409.868 706.047 413.062C681.145 432.83 660.033 447.028 639.602 457.748C614.803 470.76 591.617 478.227 568.72 480.577C556.955 481.784 545.271 481.557 533.992 479.902C522.049 478.15 510.554 474.788 499.827 469.912C476.049 459.103 456.269 441.138 441.033 416.513C440.314 415.344 439.596 414.149 438.899 412.958C426.989 392.613 418.277 369.918 409.85 347.97C407.601 342.114 405.277 336.059 402.938 330.171C391.421 301.104 379.374 276.431 366.108 254.743C364.402 251.956 362.639 249.16 360.868 246.432C328.551 196.709 285.253 155.742 235.655 127.962C189.876 102.427 142.668 89.1044 99.3773 89.1044C87.139 89.1044 75.223 90.1682 63.7301 92.3209C28.5482 99.0404 -5.6244 122.629 -23.3322 152.417C-35.8304 173.443 -39.9461 197.039 -35.2341 220.65L-35.4315 220.7C-37.8913 208.38 -37.994 196.098 -35.7377 184.198C-33.6466 173.166 -29.5289 162.43 -23.5014 152.289C-14.4682 137.093 -1.16825 123.352 14.9642 112.548C30.1921 102.348 47.0436 95.276 63.6938 92.0981C91.1096 86.9608 120.798 87.9405 151.931 95.0055C180.005 101.375 208.205 112.393 235.743 127.755C285.369 155.551 328.694 196.541 361.031 246.294C362.804 249.022 364.569 251.82 366.275 254.609C379.547 276.309 391.6 300.993 403.123 330.073C405.462 335.961 407.789 342.017 410.037 347.875C418.46 369.813 427.169 392.499 439.069 412.828C439.766 414.017 440.483 415.213 441.2 416.379C469.692 462.426 516.163 485.74 568.704 480.348C621.87 474.89 669.969 441.42 705.934 412.871C709.951 409.677 714.049 406.35 718.461 402.699C733.322 390.408 747.895 377.451 763.324 363.734C792.69 337.629 823.055 310.633 855.951 288.152C884.168 268.959 911.858 254.973 940.606 245.389C968.33 236.146 996.138 231.309 1025.62 230.6C1042.43 230.134 1056.16 230.943 1068.8 233.143C1085.12 235.985 1099.52 241.129 1112.82 248.871C1139.61 264.545 1162.69 289.275 1185.01 313.191C1190.71 319.306 1196.1 325.079 1201.57 330.735C1258.95 390.017 1316.07 454.136 1376.17 526.755L1376.02 526.914Z" fill="white" fill-opacity="0.3"/>
<path d="M1373.89 524.772C1314.33 451.362 1258.2 386.484 1202.27 326.422C1196.74 320.48 1191.29 314.359 1185.51 307.878C1163.87 283.596 1141.5 258.484 1115.06 243.218C1084.79 225.821 1052.52 226.517 1027.8 229.065C971.842 234.632 917.169 256.461 860.656 295.796C832.811 315.27 806.299 337.556 780.66 359.11C760.392 376.148 741.25 392.242 721.612 406.951C717.174 410.279 712.823 413.462 708.683 416.408C683.733 434.148 661.305 447.248 640.118 456.459C614.749 467.488 591.171 473.039 568.036 473.426C556.265 473.621 544.627 472.421 533.453 469.854C521.738 467.163 510.465 462.955 499.945 457.345C476.983 445.1 457.682 426.371 442.579 401.678C441.87 400.511 441.157 399.314 440.462 398.116C428.775 378.018 419.873 355.803 411.263 334.319C408.827 328.241 406.307 321.953 403.775 315.841C391.786 286.828 379.471 262.364 366.127 241.047C364.397 238.285 362.61 235.514 360.815 232.811C328.073 183.549 284.444 143.16 234.648 116.009C175.534 83.9118 114.306 72.0368 62.2484 82.5706C27.5218 89.7197 -6.42318 113.37 -24.2297 142.819C-37.0099 163.957 -41.5829 187.73 -37.4571 211.57L-37.6545 211.614C-39.8061 199.186 -39.6409 186.809 -37.161 174.827C-34.8583 163.704 -30.5654 152.891 -24.3969 142.689C-15.275 127.602 -2.04156 113.929 13.8733 103.147C28.9259 92.9499 45.6405 85.7576 62.2121 82.3456C89.5977 76.8059 119.316 77.3787 150.541 84.0527C178.685 90.0675 207.011 100.749 234.735 115.802C284.561 142.966 328.214 183.381 360.974 232.672C362.771 235.375 364.56 238.148 366.29 240.913C379.643 262.242 391.962 286.717 403.956 315.741C406.49 321.853 409.009 328.141 411.446 334.221C420.052 355.696 428.95 377.903 440.629 397.986C441.324 399.182 442.037 400.38 442.744 401.543C471.536 448.616 516.031 474.067 568.032 473.194C610.227 472.489 654.885 454.381 708.574 416.21C712.712 413.264 717.061 410.084 721.499 406.756C741.131 392.048 760.273 375.959 780.537 358.922C806.181 337.365 832.696 315.075 860.549 295.596C889.042 275.762 916.287 260.75 943.84 249.696C971.753 238.498 999.209 231.672 1027.78 228.831C1052.53 226.278 1084.83 225.585 1115.15 243.008C1141.62 258.293 1164 283.416 1185.65 307.71C1191.43 314.19 1196.88 320.31 1202.41 326.249C1258.34 386.313 1314.48 451.196 1374.03 524.61L1373.89 524.772Z" fill="white" fill-opacity="0.3"/>
<path d="M1371.75 522.63C1312.75 448.423 1257.59 382.776 1203.12 321.942C1197.59 315.766 1192.13 309.349 1186.35 302.554C1165.32 277.838 1143.57 252.281 1117.39 237.36C1086.84 220.027 1054.63 222.88 1029.98 227.301C977.33 236.564 924.992 260.696 865.261 303.245C842.86 319.275 820.968 336.861 799.797 353.866C774.083 374.52 749.796 394.031 724.649 411.023C720.118 414.087 715.634 417.028 711.32 419.761C685.923 435.841 662.802 447.425 640.636 455.172C628.221 459.512 615.964 462.655 604.207 464.517C591.667 466.502 579.268 467.095 567.354 466.281C543.181 464.628 520.542 457.395 500.066 444.784C477.952 431.163 459.133 411.673 444.13 386.85C443.425 385.675 442.718 384.474 442.027 383.283C430.591 363.482 421.529 341.793 412.768 320.821C410.115 314.472 407.373 307.907 404.615 301.52C392.143 272.555 379.56 248.298 366.148 227.36C364.393 224.621 362.58 221.875 360.763 219.199C327.595 170.397 283.638 130.585 233.645 104.068C174.136 72.6279 112.741 61.5349 60.77 72.8302C5.12242 85.1122 -49.1029 138.179 -39.6748 202.498L-39.8743 202.535C-42.2333 186.445 -40.8513 170.595 -35.7686 155.419C-31.1271 141.559 -23.5102 128.516 -13.1293 116.655C-3.47762 105.625 8.10192 96.1029 21.2851 88.3514C33.8235 80.9795 47.464 75.533 60.7297 72.6052C88.0831 66.6609 117.834 66.8314 149.154 73.1144C177.365 78.7723 205.821 89.1175 233.73 103.863C283.751 130.398 327.734 170.233 360.922 219.063C362.741 221.741 364.554 224.487 366.311 227.228C379.73 248.175 392.318 272.446 404.796 301.422C407.554 307.81 410.296 314.374 412.949 320.726C421.709 341.691 430.766 363.37 442.196 383.16C442.885 384.352 443.59 385.552 444.296 386.725C473.13 434.429 516.837 462.601 567.366 466.056C610.142 468.977 657.198 453.772 711.222 419.565C715.533 416.833 720.015 413.894 724.546 410.829C749.687 393.842 773.971 374.334 799.68 353.682C820.853 336.674 842.747 319.087 865.153 303.054C924.908 260.487 977.27 236.346 1029.94 227.076C1046.51 224.105 1060.22 223.155 1073.1 224.089C1089.57 225.282 1104.09 229.556 1117.48 237.155C1143.69 252.092 1165.45 277.665 1186.49 302.395C1192.27 309.187 1197.73 315.604 1203.26 321.778C1257.74 382.617 1312.9 448.266 1371.9 522.478L1371.75 522.63Z" fill="white" fill-opacity="0.3"/>
<path d="M1369.62 520.49C1311.18 445.473 1256.99 379.063 1203.96 317.46C1198.47 311.086 1193.05 304.41 1187.3 297.338C1166.85 272.149 1145.69 246.101 1119.72 231.5C1088.51 214.022 1054.79 219.725 1032.15 225.535C970.702 241.111 915.63 277.322 869.866 310.695C853.417 322.738 837.011 335.495 821.142 347.832C789.311 372.579 759.246 395.954 727.686 415.094C723.044 417.911 718.427 420.609 713.959 423.116C688.066 437.617 664.252 447.683 641.157 453.884C614.977 460.915 589.918 462.683 566.672 459.137C542.792 455.493 520.422 446.437 500.188 432.218C478.965 417.306 460.627 397.055 445.679 372.025C444.982 370.85 444.279 369.647 443.592 368.451C432.439 349.014 423.265 327.921 414.391 307.521C411.484 300.836 408.476 293.926 405.455 287.199C392.31 257.871 379.826 234.51 366.169 213.674C364.39 210.96 362.555 208.241 360.712 205.588C327.115 157.249 282.828 118.014 232.637 92.1254C172.733 61.3445 111.169 51.0311 59.2865 63.088C3.43949 76.2383 -49.6778 128.585 -41.8977 193.427L-42.0971 193.456C-44.0271 177.369 -42.357 161.534 -37.1353 146.393C-32.3488 132.52 -24.6875 119.462 -14.361 107.587C-4.73149 96.5126 6.78764 86.9199 19.8781 79.0706C32.342 71.5964 45.9563 65.9931 59.2462 62.863C86.5694 56.514 116.35 56.2821 147.763 62.1719C176.043 67.4729 204.627 77.4817 232.722 91.9186C282.942 117.821 327.254 157.079 360.867 205.447C362.71 208.102 364.547 210.823 366.328 213.537C379.993 234.382 392.481 257.757 405.632 287.097C408.654 293.823 411.661 300.736 414.568 307.421C423.44 327.814 432.613 348.9 443.757 368.329C444.444 369.524 445.145 370.725 445.842 371.9C474.9 420.555 517.819 451.456 566.696 458.912C610.532 465.6 658.672 453.822 713.868 422.912C718.334 420.407 722.952 417.711 727.589 414.894C759.141 395.759 789.202 372.389 821.027 347.643C836.896 335.306 853.304 322.547 869.755 310.502C900.529 288.063 926.13 271.485 950.317 258.33C978.79 242.845 1005.54 232.046 1032.11 225.312C1048.3 221.157 1062.41 219.275 1075.26 219.561C1091.79 219.93 1106.37 223.767 1119.81 231.295C1145.82 245.914 1166.98 271.978 1187.45 297.183C1193.19 304.253 1198.61 310.929 1204.1 317.298C1257.14 378.903 1311.33 445.318 1369.77 520.337L1369.62 520.49Z" fill="white" fill-opacity="0.3"/>
<path d="M1367.48 518.345C1309.61 442.517 1256.39 375.34 1204.8 312.974C1199.39 306.434 1194.03 299.526 1188.36 292.211C1168.44 266.515 1147.85 239.944 1122.06 225.639C1090.5 208.201 1056.88 216.219 1034.33 223.768C978.655 242.251 928.993 277.444 874.472 318.141C864.639 325.508 854.693 333.112 845.074 340.468C808.079 368.755 769.826 398.004 730.722 419.162C725.972 421.736 721.218 424.193 716.594 426.466C690.526 439.269 665.32 448.057 641.676 452.587C614.89 457.72 589.427 457.518 565.986 451.989C542.44 446.436 520.342 435.554 500.306 419.647C480.029 403.548 462.168 382.537 447.22 357.198C446.529 356.021 445.832 354.816 445.15 353.62C434.334 334.637 425.101 314.231 416.172 294.498C412.955 287.387 409.629 280.036 406.287 272.882C392.629 243.583 379.885 220.422 366.182 199.991C364.383 197.308 362.521 194.612 360.652 191.98C326.636 144.096 282.022 105.438 231.631 80.1812C171.334 50.0595 109.602 40.5281 57.8044 53.3443C3.73016 66.8696 -50.3682 117.379 -44.1212 184.351L-44.3206 184.374C-45.8214 168.287 -43.8633 152.47 -38.5026 137.363C-33.573 123.474 -25.8654 110.405 -15.5953 98.5166C3.35343 76.5851 30.0904 60.0387 57.7601 53.1192C85.051 46.3679 114.864 45.7314 146.371 51.2279C174.72 56.1743 203.431 65.8444 231.711 79.9721C282.131 105.243 326.771 143.925 360.809 191.832C362.68 194.467 364.542 197.163 366.343 199.847C380.052 220.29 392.802 243.46 406.464 272.771C409.807 279.927 413.134 287.278 416.352 294.388C425.278 314.117 434.509 334.519 445.319 353.493C446 354.689 446.697 355.891 447.388 357.069C477.293 407.765 518.318 440.51 566.024 451.764C610.199 462.184 660.828 453.603 716.51 426.257C721.131 423.984 725.881 421.529 730.63 418.958C769.72 397.806 807.968 368.562 844.955 340.279C854.574 332.923 864.52 325.319 874.355 317.952C898.221 300.137 925.991 279.704 953.552 262.644C982.382 244.799 1008.78 232.013 1034.27 223.552C1050.31 218.181 1064.43 215.394 1077.41 215.034C1093.78 214.58 1108.83 218.081 1122.14 225.437C1133.7 231.845 1145.32 241.408 1157.69 254.674C1168.61 266.388 1178.73 279.44 1188.51 292.061C1194.18 299.373 1199.53 306.282 1204.94 312.819C1256.54 375.188 1309.75 442.367 1367.63 518.197L1367.48 518.345Z" fill="white" fill-opacity="0.3"/>
<path d="M1365.34 516.205C1308.04 439.558 1255.8 371.615 1205.63 308.494C1200.32 301.811 1195.06 294.694 1189.49 287.161C1170.09 260.93 1150.04 233.807 1124.39 219.784C1100.43 206.72 1071.68 207.447 1036.51 222.007C987.329 242.25 943.368 276.108 896.824 311.958C891.028 316.423 885.037 321.037 879.074 325.595C876.739 327.384 874.402 329.178 872.067 330.969C827.719 364.996 781.863 400.182 733.757 423.237C728.894 425.569 724.007 427.785 719.231 429.822C692.59 441.172 666.673 448.396 642.201 451.292C614.797 454.534 588.924 452.365 565.306 444.845C542.126 437.464 520.301 424.757 500.436 407.077C481.181 389.939 463.799 368.172 448.773 342.373C448.088 341.194 447.397 339.987 446.718 338.789C436.313 320.401 427.111 300.818 418.208 281.88C414.604 274.21 410.875 266.279 407.13 258.56C392.944 229.281 379.942 206.32 366.207 186.302C364.382 183.643 362.498 180.974 360.605 178.367C326.158 130.946 281.214 92.864 230.625 68.2388C169.937 38.7786 108.034 30.0269 56.3228 43.6023C3.24176 57.6527 -50.7801 108.576 -46.3421 175.28L-46.5435 175.298C-47.6132 159.209 -45.369 143.41 -39.8693 128.341C-34.7947 114.436 -27.0428 101.352 -16.8271 89.4543C2.04109 67.4773 28.6854 50.6855 56.2765 43.3818C83.5372 36.2259 113.381 35.1847 144.981 40.2903C173.398 44.8775 202.24 54.2111 230.705 68.0297C281.322 92.6708 326.295 130.774 360.756 178.219C362.649 180.826 364.537 183.5 366.362 186.159C380.103 206.188 393.113 229.156 407.304 258.446C411.051 266.166 414.778 274.099 418.384 281.769C427.282 300.702 436.484 320.281 446.885 338.661C447.564 339.859 448.253 341.064 448.938 342.244C479.493 394.699 519.749 430.099 565.358 444.62C610.381 458.955 662.126 453.902 719.158 429.604C723.93 427.567 728.816 425.353 733.677 423.023C781.766 399.978 827.615 364.798 871.953 330.776C874.29 328.982 876.624 327.191 878.959 325.402C884.922 320.844 890.913 316.23 896.709 311.768C943.263 275.911 987.237 242.043 1036.44 221.791C1052.33 215.213 1066.44 211.523 1079.56 210.507C1096 209.236 1111.11 212.289 1124.48 219.577C1135.96 225.858 1147.45 235.464 1159.58 248.946C1170.29 260.842 1180.13 274.147 1189.65 287.013C1195.22 294.544 1200.48 301.659 1205.79 308.34C1255.95 371.463 1308.19 439.408 1365.5 516.057L1365.34 516.205Z" fill="white" fill-opacity="0.3"/>
<path d="M1363.21 514.063C1310.91 442.641 1258.17 371.968 1206.48 304.012C1201.21 297.133 1196 289.743 1190.47 281.921C1172.51 256.475 1152.16 227.636 1126.73 213.926C1102.48 200.885 1073.69 202.951 1038.69 220.241C997.069 240.731 960.241 270.86 921.25 302.757C909.039 312.745 896.412 323.077 883.677 333.042C861.446 350.475 837.399 368.922 812.191 385.723C785.194 403.717 760.53 417.318 736.789 427.306C731.801 429.404 726.78 431.379 721.863 433.173C694.659 443.091 668.036 448.735 642.736 449.949C614.728 451.29 588.446 447.171 564.618 437.697C520.617 419.984 482.159 382.925 450.315 327.546C449.636 326.364 448.951 325.154 448.277 323.956C438.399 306.38 429.358 287.838 420.615 269.905C416.499 261.465 412.245 252.736 407.964 244.241C393.237 214.97 379.974 192.211 366.222 172.618C364.371 169.981 362.463 167.338 360.548 164.758C325.682 117.794 280.407 80.2914 229.621 56.2958C168.54 27.4948 106.47 19.5274 54.8435 33.8597C1.44014 48.7694 -51.2279 99.0177 -48.5627 166.208L-48.7641 166.217C-49.4027 150.123 -46.8684 134.343 -41.2338 119.313C-36.0121 105.389 -28.2159 92.2914 -18.0586 80.3846C-8.48951 69.1665 2.85234 59.3578 15.6507 51.229C28.0764 43.3388 41.2454 37.4195 54.7931 33.6369C82.0236 26.0787 111.899 24.6329 143.592 29.3452C172.077 33.5801 201.047 42.575 229.697 56.0844C280.514 80.0936 325.815 117.619 360.701 164.605C362.616 167.188 364.528 169.834 366.38 172.47C380.137 192.074 393.407 214.842 408.139 244.123C412.42 252.62 416.675 261.349 420.79 269.791C429.533 287.722 438.573 306.262 448.446 323.831C449.119 325.032 449.806 326.239 450.483 327.421C482.302 382.756 520.725 419.786 564.685 437.481C609.965 455.484 664.295 453.92 721.8 432.955C726.714 431.161 731.734 429.188 736.718 427.092C789.799 404.763 838.366 368.295 883.56 332.854C896.296 322.888 908.921 312.559 921.131 302.571C960.13 270.667 996.966 240.531 1038.6 220.032C1073.66 202.715 1102.51 200.649 1126.81 213.719C1138.2 219.859 1149.51 229.484 1161.39 243.139C1171.86 255.18 1181.4 268.703 1190.63 281.778C1196.15 289.6 1201.37 296.988 1206.63 303.862C1258.33 371.82 1311.06 442.493 1363.36 513.918L1363.21 514.063Z" fill="white" fill-opacity="0.3"/>
<path d="M1361.08 511.922C1309.57 440.103 1257.84 368.644 1207.32 299.528C1202.22 292.575 1197.16 285.055 1191.8 277.095C1174.29 251.055 1154.43 221.541 1129.06 208.063C1104.53 195.045 1075.68 198.45 1040.86 218.47C1004.39 239.415 970.871 268.988 938.461 297.592C922.21 311.933 905.405 326.763 888.281 340.486C861.254 362.168 838.514 378.707 816.715 392.539C789.835 409.595 764.683 422.297 739.826 431.372C734.723 433.236 729.566 434.968 724.499 436.521C698.101 444.606 672.178 448.698 647.379 448.7C646.001 448.7 644.631 448.687 643.261 448.662C614.59 448.134 587.902 442.038 563.937 430.545C552.369 424.966 541.041 417.885 530.27 409.497C520.145 401.614 510.195 392.328 500.696 381.899C483.607 363.136 467.632 340.504 451.862 312.715C451.185 311.519 450.51 310.321 449.839 309.119C440.689 292.723 432.033 275.583 423.662 259.007C418.83 249.439 413.834 239.544 408.801 229.913C393.307 200.239 380.183 178.344 366.24 158.924C364.365 156.312 362.433 153.693 360.493 151.138C325.204 104.641 279.601 67.7155 228.617 44.3497C167.145 16.2102 104.906 9.0247 53.3643 24.114C0.962184 39.4987 -51.6374 90.1289 -50.7812 157.13L-50.9827 157.133C-51.3815 125.924 -40.4204 96.2483 -19.2859 71.314C-9.733 60.0436 1.54842 50.1644 14.2481 41.9447C26.6052 33.9477 39.7481 27.8738 53.314 23.8912C80.5122 15.9283 110.42 14.0802 142.205 18.3992C170.759 22.2795 199.857 30.938 228.692 44.136C279.708 67.5178 325.337 104.466 360.648 150.991C362.588 153.548 364.524 156.169 366.399 158.781C380.348 178.212 393.479 200.114 408.976 229.799C414.009 239.433 419.007 249.328 423.838 258.896C432.208 275.469 440.863 292.607 450.011 308.998C450.681 310.201 451.354 311.399 452.031 312.592C485.541 371.645 522.171 410.159 564.015 430.335C621.971 458.132 683.248 448.923 724.447 436.302C729.509 434.75 734.663 433.02 739.763 431.156C796.934 410.284 849.103 371.638 888.164 340.302C905.286 326.584 922.089 311.753 938.338 297.414C970.756 268.807 1004.28 239.224 1040.77 218.27C1056.35 209.311 1070.45 203.81 1083.87 201.455C1100.43 198.55 1115.66 200.705 1129.15 207.861C1140.51 213.896 1151.71 223.598 1163.39 237.519C1173.68 249.785 1182.98 263.599 1191.96 276.96C1197.32 284.919 1202.38 292.436 1207.47 299.385C1258 368.501 1309.73 439.96 1361.23 511.778L1361.08 511.922Z" fill="white" fill-opacity="0.3"/>
<path d="M1358.94 509.781L1208.16 295.048C1203.23 288.036 1198.34 280.405 1193.16 272.328C1176.08 245.673 1156.71 215.463 1131.39 202.208C1106.91 189.392 1077.18 194.27 1043.04 216.708C1010.21 238.278 980.276 266.963 951.323 294.705C932.451 312.788 912.936 331.485 892.885 347.94C832.62 397.4 779.952 426.612 727.137 439.876C705.227 445.377 683.613 448.146 662.652 448.146C656.298 448.146 650.009 447.891 643.786 447.382C614.438 444.982 587.342 436.912 563.255 423.4C540.929 410.875 520.506 393.194 500.824 369.344C485.107 350.3 470.04 327.595 453.41 297.892C444.632 282.216 436.133 265.929 427.914 250.178C409.312 214.535 390.077 177.678 366.263 145.24C329.735 95.4872 281.789 56.4706 227.608 32.4068C165.748 4.9311 103.34 -1.47468 51.8823 14.3716C2.06278 29.7131 -52.0094 78.0906 -53.0046 148.059L-53.2061 148.054C-52.7608 116.78 -41.4573 87.1083 -20.5182 62.2467C-1.58554 39.7673 24.1079 22.6868 51.8299 14.1511C78.998 5.78581 108.938 3.5331 140.814 7.45886C169.437 10.9823 198.664 19.3066 227.683 32.1954C254.492 44.1023 279.954 59.7758 303.363 78.7817C326.967 97.9467 348.182 120.256 366.416 145.09C390.24 177.539 409.481 214.406 428.087 250.058C436.306 265.806 444.806 282.091 453.581 297.765C477.844 341.105 512.248 394.527 563.345 423.191C621.944 456.063 684.735 450.285 727.093 439.649C779.882 426.394 832.526 397.193 892.766 347.752C912.809 331.303 932.322 312.606 951.192 294.528C980.151 266.781 1010.1 238.09 1042.94 216.508C1077.14 194.031 1106.93 189.148 1131.48 201.999C1142.81 207.934 1153.91 217.72 1165.41 231.92C1175.52 244.42 1184.58 258.539 1193.33 272.192C1198.5 280.268 1203.39 287.895 1208.32 294.905L1359.1 509.637L1358.94 509.781Z" fill="white" fill-opacity="0.3"/>
<path d="M1357.72 493.273C1319.33 433.484 1286.38 384.968 1254.05 340.594C1238.36 319.037 1222.33 297.82 1206.41 277.529C1201.59 271.392 1196.82 264.863 1191.77 257.951C1179.08 240.577 1165.96 222.612 1150.85 209.28C1142.74 202.108 1134.94 196.973 1126.99 193.581C1102.59 183.068 1073.96 190.019 1041.89 214.244C1025.3 226.763 1010.19 241.009 997.601 253.293C984.27 266.298 971.121 280.639 958.404 294.508C940.126 314.443 921.225 335.056 900.907 352.76C888.544 363.564 876.011 373.218 863.656 381.456C838.938 397.937 812.406 411.516 784.799 421.818C767.742 428.113 750.602 432.871 733.859 435.958C719.429 438.608 704.973 440.138 690.889 440.504C669.811 441.054 649.275 438.956 629.851 434.262C609.198 429.27 589.653 421.302 571.76 410.578C555.804 401.014 540.734 388.973 525.687 373.764C497.649 345.445 475.285 312.7 458.935 287.336C450.904 274.817 443.061 262.051 435.476 249.706C413.637 214.151 393.008 180.57 367.193 150.657C346.139 126.421 322.118 105.505 295.79 88.4883C275.558 75.4108 253.553 64.7156 230.388 56.6981C224.87 54.791 219.248 53.0133 213.682 51.4198C189.717 44.5708 162.738 40.1108 133.497 38.1627C104.016 36.1533 78.5102 37.8922 55.5264 43.4842C42.5326 46.6212 29.9437 51.5426 18.1043 58.1098C-23.6933 81.2961 -50.533 120.219 -53.6918 162.232L-53.9436 162.207C-53.1015 151.007 -50.6297 139.976 -46.5986 129.414C-42.7689 119.383 -37.509 109.708 -30.9658 100.659C-18.6026 83.5647 -1.6724 68.7618 17.9935 57.8529C29.8511 51.2744 42.4601 46.3461 55.474 43.2046C78.482 37.6081 104.008 35.8669 133.513 37.8786C162.77 39.8267 189.763 44.2912 213.744 51.1448C219.316 52.7406 224.941 54.5182 230.463 56.4276C253.646 64.4496 275.669 75.154 295.917 88.2429C322.263 105.271 346.305 126.205 367.369 150.457C393.199 180.388 413.832 213.978 435.68 249.542C443.262 261.888 451.105 274.651 459.135 287.168C475.477 312.52 497.83 345.249 525.852 373.55C540.883 388.744 555.937 400.774 571.874 410.325C606.893 431.313 646.932 441.372 690.881 440.22C704.953 439.854 719.399 438.324 733.817 435.676C750.548 432.589 767.675 427.836 784.718 421.546C812.309 411.251 838.825 397.68 863.527 381.208C875.874 372.977 888.399 363.328 900.752 352.532C921.058 334.838 939.955 314.23 958.226 294.301C970.946 280.43 984.097 266.084 997.433 253.075C1010.03 240.784 1025.15 226.533 1041.75 214.006C1056.03 203.22 1069.85 195.768 1082.84 191.856C1098.79 187.051 1113.68 187.542 1127.08 193.315C1135.05 196.718 1142.88 201.867 1151.01 209.055C1166.13 222.407 1179.27 240.384 1191.97 257.769C1197.02 264.679 1201.79 271.208 1206.6 277.341C1222.52 297.633 1238.55 318.853 1254.25 340.414C1286.58 384.793 1319.53 433.314 1357.93 493.107L1357.72 493.273Z" fill="white" fill-opacity="0.3"/>
<path d="M1356.51 476.761C1320.91 415.96 1287.5 365.082 1254.37 321.222C1238.21 299.797 1221.49 279.202 1204.66 260.01C1200.2 254.918 1195.79 249.626 1191.13 244.025C1177.15 227.251 1162.71 209.907 1146.52 197.907C1138.35 191.822 1130.52 187.585 1122.58 184.952C1092.18 174.869 1061.31 193.972 1040.75 211.773C1026.19 224.349 1012.89 238.567 999.417 253.245C987.626 266.093 976.532 279.914 964.787 294.544C947.355 316.262 929.329 338.718 908.93 357.574C896.825 368.824 884.191 378.551 871.381 386.484C847.519 401.264 821.388 412.742 791.496 421.575C774.768 426.517 757.636 430.038 740.577 432.036C726.183 433.703 711.816 434.298 697.871 433.8C677.125 433.068 656.847 429.777 637.596 424.019C617.378 417.97 598.087 409.132 580.26 397.75C564.642 387.78 549.561 375.409 534.155 359.934C506.178 331.867 482.211 300.752 464.459 276.779C457.887 267.905 451.42 258.976 445.165 250.338C420.256 215.94 396.728 183.447 368.125 156.074C346.749 135.616 322.75 118.317 296.799 104.66C277.163 94.3257 256.351 86.5833 233.176 80.9891C227.827 79.7002 222.386 78.5386 217.005 77.5361C193.37 73.1557 168.146 71.4986 137.628 69.7846C115.629 68.4867 86.8315 67.632 59.1658 72.592C46.0633 74.897 33.3979 78.9 21.5182 84.4852C-20.3077 104.155 -48.6804 138.516 -54.3815 176.405L-54.6797 176.348C-53.1688 166.301 -50.1067 156.447 -45.5841 147.056C-41.273 138.109 -35.6081 129.53 -28.7486 121.551C-15.7125 106.394 1.62864 93.4665 21.4013 84.1692C33.3032 78.5727 45.9928 74.5628 59.1175 72.2533C86.8093 67.2864 115.629 68.1434 137.642 69.4414C168.17 71.1554 193.403 72.8125 217.053 77.1952C222.438 78.1999 227.883 79.3615 233.238 80.6504C256.435 86.2515 277.268 94.0007 296.926 104.346C322.903 118.017 346.922 135.329 368.321 155.808C396.943 183.202 420.481 215.704 445.399 250.115C451.652 258.751 458.119 267.68 464.69 276.552C482.438 300.515 506.395 331.619 534.357 359.672C549.744 375.132 564.809 387.489 580.409 397.448C615.462 419.827 654.987 431.941 697.881 433.455C711.814 433.95 726.167 433.357 740.547 431.691C757.59 429.695 774.707 426.178 791.42 421.239C821.287 412.414 847.396 400.946 871.238 386.18C884.032 378.255 896.649 368.542 908.741 357.304C929.122 338.464 947.14 316.016 964.566 294.31C976.314 279.673 987.41 265.85 999.209 252.995C1012.69 238.308 1025.99 224.085 1040.57 211.496C1053.89 199.955 1067.04 191.654 1079.63 186.816C1094.91 180.952 1109.39 180.213 1122.67 184.618C1130.64 187.262 1138.5 191.513 1146.69 197.616C1162.9 209.639 1177.36 226.999 1191.35 243.786C1196.01 249.385 1200.42 254.675 1204.88 259.764C1221.71 278.964 1238.44 299.565 1254.6 320.997C1287.74 364.869 1321.16 415.756 1356.76 476.57L1356.51 476.761Z" fill="white" fill-opacity="0.3"/>
<path d="M1355.29 460.248C1321.97 397.611 1289.06 345.799 1254.68 301.852C1238.05 280.559 1220.64 260.589 1202.91 242.493C1199.12 238.624 1195.22 234.518 1191.45 230.55C1175.88 214.151 1159.78 197.195 1142.19 186.537C1133.94 181.499 1126.08 178.158 1118.18 176.323C1087.85 169.279 1058.71 190.369 1039.61 209.3C1026.66 222.08 1014.82 236.564 1003.38 250.574L1001.23 253.197C990.84 265.906 981.092 279.845 970.769 294.605C954.332 318.107 937.338 342.407 916.949 362.389C905.085 374.1 892.351 383.9 879.1 391.515C855.995 404.792 830.281 414.267 798.184 421.332C781.586 424.985 764.462 427.267 747.286 428.113C732.929 428.792 718.65 428.451 704.842 427.094C663.041 423.005 623.983 408.816 588.752 384.923C573.523 374.593 558.432 361.898 542.62 346.104C515.86 319.433 492.061 292.018 469.979 266.225C467.018 262.767 464.089 259.332 461.182 255.925C431.022 220.579 402.537 187.193 369.059 161.498C347.203 144.722 323.228 131.042 297.803 120.835C279.136 113.343 258.906 108.255 235.961 105.282C230.789 104.616 225.529 104.068 220.326 103.655C207.235 102.632 193.351 102.466 178.651 102.291C166.844 102.15 154.636 102.004 141.753 101.411C116.871 100.168 88.6719 98.7605 62.7971 101.706C49.4468 103.227 36.7049 106.31 24.9238 110.87C-16.8859 127.055 -46.7937 156.858 -55.0795 190.594L-55.4199 190.487C-53.2362 181.592 -49.5858 172.916 -44.5716 164.698C-39.777 156.84 -33.7093 149.352 -26.5375 142.444C-12.8205 129.232 4.9356 118.185 24.807 110.492C36.6142 105.921 49.3823 102.832 62.7589 101.309C88.6598 98.3604 116.873 99.7698 141.765 101.013C154.64 101.604 166.848 101.752 178.651 101.893C193.357 102.068 207.245 102.234 220.348 103.259C225.556 103.675 230.822 104.223 235.997 104.889C258.971 107.865 279.225 112.959 297.918 120.462C323.373 130.68 347.375 144.376 369.255 161.17C402.762 186.889 431.262 220.291 461.434 255.652C464.341 259.06 467.272 262.492 470.231 265.952C492.309 291.741 516.1 319.148 542.851 345.81C558.647 361.586 573.722 374.27 588.934 384.586C624.118 408.45 663.125 422.618 704.872 426.703C718.664 428.058 732.929 428.399 747.27 427.719C764.428 426.874 781.536 424.594 798.115 420.945C830.181 413.887 855.864 404.424 878.938 391.165C892.162 383.565 904.872 373.784 916.715 362.093C937.078 342.137 954.063 317.85 970.489 294.362C980.816 279.595 990.57 265.649 1000.97 252.931L1003.11 250.308C1014.57 236.292 1026.41 221.798 1039.37 209.004C1058.53 190.012 1087.77 168.86 1118.25 175.937C1126.19 177.78 1134.07 181.133 1142.36 186.191C1159.98 196.873 1176.1 213.846 1191.69 230.263C1195.46 234.232 1199.36 238.337 1203.15 242.204C1220.88 260.31 1238.3 280.291 1254.94 301.595C1289.34 345.56 1322.26 397.391 1355.59 460.048L1355.29 460.248Z" fill="white" fill-opacity="0.3"/>
<path d="M1354.07 443.734C1323.49 380.151 1290.15 325.897 1255 282.484C1237.9 261.326 1219.8 241.979 1201.17 224.98C1198.48 222.525 1195.73 219.977 1193.06 217.513C1175.46 201.235 1157.26 184.4 1137.88 175.171C1129.55 171.168 1121.68 168.724 1113.79 167.696C1083.54 163.759 1056.13 186.802 1038.47 206.827C1027.5 219.197 1017.6 232.954 1008.02 246.259C1006.37 248.562 1004.71 250.86 1003.05 253.149C993.945 265.724 985.43 279.773 976.415 294.644C961.088 319.926 945.24 346.067 924.974 367.208C913.072 379.621 900.594 389.219 886.822 396.552C858.018 411.889 829.233 417.565 804.875 421.098C788.4 423.484 771.285 424.53 754 424.198C739.687 423.891 725.494 422.611 711.819 420.397C671.273 413.848 632.727 397.6 597.253 372.102C582.492 361.495 567.393 348.47 551.09 332.283C534.621 315.97 519.274 300.274 504.431 285.094C494.344 274.776 484.815 265.031 475.51 255.682C440.336 220.338 408.118 189.264 370.005 166.928C347.68 153.846 323.729 143.78 298.817 137.013C280.962 132.162 261.877 129.8 238.756 129.575C233.768 129.535 228.687 129.6 223.657 129.773C216.016 130.053 208.111 130.637 199.744 131.258C183.688 132.446 165.487 133.794 145.882 133.04C138.416 132.751 130.799 132.344 123.432 131.949C104.483 130.933 84.8894 129.882 66.4302 130.821C52.8744 131.512 40.0538 133.676 28.3292 137.254C-13.41 149.995 -44.8509 175.243 -55.7777 204.792L-56.1504 204.617C-53.2897 196.879 -49.0512 189.382 -43.5535 182.333C-38.2734 175.564 -31.8027 169.169 -24.3247 163.33C-9.91475 152.078 8.25437 142.91 28.2205 136.815C39.9733 133.228 52.822 131.058 66.408 130.367C84.8874 129.425 104.489 130.478 123.448 131.494C130.813 131.89 138.43 132.296 145.894 132.585C165.481 133.34 183.668 131.994 199.716 130.805C208.086 130.185 215.993 129.6 223.643 129.321C228.679 129.148 233.764 129.082 238.758 129.123C261.911 129.346 281.025 131.714 298.91 136.572C323.852 143.349 347.835 153.425 370.188 166.526C387.404 176.614 404.85 189.396 423.523 205.599C440.24 220.104 456.501 235.975 475.776 255.343C485.081 264.695 494.61 274.44 504.699 284.758C519.54 299.936 534.887 315.632 551.351 331.942C567.639 348.113 582.722 361.125 597.464 371.72C632.89 397.184 671.382 413.41 711.872 419.95C725.53 422.161 739.705 423.439 754.002 423.746C771.266 424.078 788.364 423.034 804.819 420.647C829.146 417.122 857.894 411.452 886.647 396.143C900.38 388.83 912.826 379.258 924.696 366.876C944.928 345.772 960.764 319.651 976.078 294.389C985.1 279.509 993.619 265.454 1002.74 252.865C1004.39 250.576 1006.05 248.278 1007.7 245.977C1017.29 232.663 1027.19 218.897 1038.18 206.511C1049.67 193.483 1061.46 183.461 1073.22 176.723C1087.15 168.742 1100.81 165.555 1113.83 167.251C1121.75 168.283 1129.67 170.738 1138.03 174.757C1157.46 184.011 1175.69 200.866 1193.31 217.165C1195.98 219.629 1198.73 222.177 1201.42 224.63C1220.05 241.642 1238.18 261.008 1255.28 282.182C1273.95 305.234 1292.23 331.498 1309.62 360.245C1324.98 385.652 1340.06 413.671 1354.42 443.52L1354.07 443.734Z" fill="white" fill-opacity="0.3"/>
<path d="M1352.86 427.215C1324.55 361.809 1291.73 306.598 1255.31 263.115C1237.75 242.09 1218.96 223.369 1199.44 207.465C1198.51 206.709 1197.58 205.952 1196.65 205.192C1176.35 188.635 1155.36 171.513 1133.57 163.805C1125.12 160.818 1117.22 159.27 1109.41 159.07C1079.28 158.301 1053.59 183.27 1037.34 204.349C1027.78 216.681 1019.29 230.197 1011.08 243.268C1009.05 246.5 1006.96 249.842 1004.88 253.097C996.993 265.495 989.658 279.591 981.894 294.516C967.77 321.665 953.167 349.736 933.006 372.022C921.341 384.916 908.763 394.586 894.55 401.587C866.55 415.378 838.119 418.999 811.567 420.859C795.195 422.005 778.086 421.809 760.714 420.279C746.447 418.984 732.346 416.767 718.798 413.694C679.631 404.829 641.597 386.52 605.756 359.277C591.402 348.368 576.725 335.397 559.567 318.457C526.957 286.351 502.743 263.738 481.054 245.136C437.917 208.141 404.993 186.375 370.97 172.359C348.191 162.975 324.265 156.526 299.851 153.189C282.912 150.875 264.937 151.082 241.568 153.867C236.779 154.444 231.88 155.124 227.005 155.89C222.4 156.624 217.722 157.465 212.768 158.354C194.478 161.639 173.747 165.362 150.019 164.666C137.513 164.3 124.739 163.298 112.386 162.33C98.3465 161.229 83.8298 160.09 70.0664 159.936C56.2669 159.781 43.3678 161.027 31.7379 163.641C-9.86234 172.986 -42.8403 193.683 -56.4767 219.004L-56.8635 218.738C-53.322 212.16 -48.4951 205.842 -42.518 199.962C-36.7484 194.283 -29.8788 188.985 -22.0986 184.209C-6.98558 174.93 11.6005 167.642 31.6492 163.139C43.3114 160.52 56.2386 159.27 70.0705 159.424C83.8459 159.579 98.3707 160.718 112.416 161.82C124.765 162.789 137.533 163.791 150.029 164.157C173.714 164.85 194.424 161.132 212.694 157.851C217.649 156.96 222.331 156.122 226.938 155.385C231.82 154.619 236.723 153.939 241.516 153.36C264.921 150.573 282.926 150.364 299.901 152.685C324.349 156.026 348.31 162.484 371.121 171.881C405.191 185.916 438.149 207.704 481.324 244.732C503.021 263.34 527.244 285.96 559.861 318.075C577.007 335.001 591.668 347.959 606.006 358.856C641.798 386.061 679.776 404.344 718.884 413.196C732.414 416.265 746.5 418.477 760.747 419.772C778.098 421.3 795.185 421.495 811.537 420.352C838.048 418.495 866.431 414.883 894.367 401.123C908.527 394.149 921.061 384.511 932.685 371.663C952.802 349.425 967.392 321.383 981.5 294.264C989.27 279.329 996.609 265.222 1004.51 252.806C1006.58 249.553 1008.68 246.212 1010.71 242.979C1018.92 229.897 1027.42 216.372 1036.99 204.019C1047.6 190.262 1058.71 179.381 1070.03 171.675C1083.29 162.648 1096.55 158.24 1109.42 158.565C1117.27 158.765 1125.21 160.322 1133.7 163.323C1155.57 171.058 1176.59 188.203 1196.91 204.785C1197.84 205.545 1198.77 206.304 1199.7 207.059C1219.24 222.98 1238.06 241.724 1255.64 262.772C1292.09 306.294 1324.93 361.547 1353.26 426.999L1352.86 427.215Z" fill="white" fill-opacity="0.3"/>
<path d="M821.591 420.622C820.46 420.622 819.346 420.62 818.25 420.613C801.963 420.536 784.86 419.104 767.42 416.353C753.205 414.069 739.192 410.916 725.769 406.986C706.591 401.38 687.344 393.324 668.558 383.042C650.417 373.113 632.148 360.802 614.254 346.447C596.722 332.383 580.346 316.711 568.037 304.63C539.237 276.438 511.835 252.874 486.593 234.591C445.71 204.981 409.277 186.93 371.934 177.785C349.405 172.268 325.235 169.358 301.963 169.358C301.602 169.358 301.244 169.358 300.883 169.36C280.891 169.438 261.91 173.629 244.379 178.148C239.816 179.333 235.096 180.626 230.35 181.997C227.749 182.756 225.145 183.538 222.389 184.365C202.95 190.21 180.917 196.831 154.15 196.288C137.849 195.956 121.199 194.051 105.096 192.208C94.6993 191.017 83.9497 189.787 73.6957 189.044C59.6 188.023 46.6284 188.35 35.1375 190.021C-6.24111 196.031 -40.7562 212.18 -57.1928 233.22L-57.5715 232.845C-49.1407 222.055 -36.4592 212.712 -19.8795 205.074C-4.04526 197.782 14.9579 192.381 35.073 189.46C46.5942 187.787 59.6 187.455 73.728 188.48C83.992 189.223 94.7476 190.455 105.149 191.646C121.241 193.49 137.881 195.395 154.16 195.724C180.859 196.268 202.854 189.655 222.26 183.822C225.018 182.992 227.622 182.21 230.225 181.451C234.976 180.081 239.7 178.785 244.267 177.601C261.827 173.075 280.841 168.876 300.881 168.797C324.524 168.703 349.127 171.622 372.041 177.235C391.314 181.956 409.999 188.905 429.159 198.48C447.612 207.702 466.488 219.359 486.863 234.118C512.125 252.415 539.547 275.997 568.365 304.207C580.664 316.282 597.028 331.942 614.543 345.99C650.851 375.118 688.315 395.456 725.894 406.442C739.299 410.368 753.294 413.516 767.488 415.799C784.906 418.545 801.985 419.977 818.25 420.052C843.702 420.17 873.255 419.202 902.079 406.097C916.669 399.464 929.29 389.764 940.666 376.446C960.644 353.055 973.888 323.033 986.698 293.998C993.288 279.063 999.511 264.956 1006.28 252.745C1008.45 248.832 1010.63 244.802 1012.75 240.904C1019.9 227.733 1027.29 214.117 1035.8 201.53C1045.53 187.05 1055.97 175.305 1066.83 166.621C1079.42 156.553 1092.26 150.92 1104.99 149.879C1112.84 149.236 1120.81 149.893 1129.36 151.889C1152.2 157.222 1174.85 172.715 1197.97 189.485C1218.13 204.106 1238.19 222.734 1255.99 243.359C1275.76 266.202 1294.33 293 1311.2 323.008C1326.22 349.743 1339.98 379.171 1352.1 410.477L1351.64 410.705C1325.62 343.473 1293.31 287.303 1255.63 243.756C1237.85 223.162 1217.82 204.56 1197.7 189.964C1174.62 173.225 1152.02 157.76 1129.25 152.446C1120.76 150.461 1112.83 149.809 1105.02 150.448C1081.64 152.364 1057.2 170.626 1036.2 201.876C1027.7 214.439 1020.32 228.044 1013.18 241.201C1011.06 245.102 1008.87 249.135 1006.7 253.047C999.95 265.236 993.731 279.331 987.149 294.253C980.864 308.498 974.365 323.231 966.907 337.393C958.452 353.448 949.989 366.351 941.031 376.841C929.604 390.219 916.927 399.962 902.269 406.626C889.342 412.505 875.447 416.39 859.792 418.508C846.535 420.293 833.218 420.622 821.591 420.622Z" fill="white" fill-opacity="0.3"/>
<path d="M853.896 421.761C843.624 421.761 833.756 421.07 824.929 420.37C808.698 419.084 791.602 416.413 774.12 412.43C759.966 409.159 746.041 405.072 732.733 400.278C696.292 387.177 660.315 365.371 622.746 333.617C606.361 319.771 590.916 304.873 576.504 290.802C548.051 263.104 519.666 240.645 492.133 224.046C451.641 199.634 413.756 186.657 372.905 183.206C349.629 181.24 325.084 182.042 301.921 185.525C282.533 188.439 264.255 195.472 247.192 202.424C242.923 204.172 238.382 206.081 233.698 208.097C232.528 208.604 231.347 209.12 230.151 209.641C210.499 218.215 188.262 227.917 159.725 227.917C159.243 227.917 158.764 227.915 158.278 227.908C138.971 227.688 119.259 224.578 100.193 221.568C92.6344 220.375 84.818 219.143 77.3179 218.145C62.6681 216.199 49.9806 215.624 38.5279 216.392C-3.12665 219.188 -38.2864 230.5 -57.9321 247.432L-58.2686 246.935C-48.5565 238.565 -34.5131 231.297 -17.6615 225.919C-1.0859 220.629 18.3322 217.12 38.4937 215.767C49.9786 214.997 62.6984 215.572 77.3803 217.522C84.8885 218.52 92.7069 219.754 100.267 220.945C119.315 223.951 139.009 227.058 158.28 227.278C187.412 227.615 210.011 217.752 229.947 209.052C231.142 208.532 232.324 208.016 233.495 207.506C238.183 205.488 242.725 203.578 246.998 201.83C264.09 194.865 282.402 187.823 301.842 184.9C325.041 181.413 349.627 180.608 372.941 182.577C393.185 184.286 412.487 188.323 431.947 194.915C451.99 201.705 471.76 211.05 492.389 223.489C519.956 240.11 548.377 262.597 576.861 290.322C591.267 304.389 606.702 319.278 623.072 333.11C660.591 364.821 696.514 386.596 732.897 399.675C746.184 404.46 760.091 408.543 774.225 411.809C791.683 415.787 808.754 418.456 824.961 419.738C852.234 421.898 881.247 423.007 909.789 411.057C924.808 404.767 937.517 395.006 948.641 381.215C968.46 356.649 980.796 323.14 991.68 293.575C997.156 278.7 1002.33 264.649 1008.04 252.672C1010.09 248.351 1012.17 243.884 1014.17 239.565C1020.44 226.051 1026.92 212.078 1034.6 199.028C1043.48 183.825 1053.24 171.215 1063.63 161.55C1075.55 150.45 1087.97 143.594 1100.55 141.178C1108.41 139.666 1116.41 139.425 1125.01 140.434C1149.03 143.26 1173.44 157.222 1196.23 171.89C1217.28 185.434 1238.06 203.428 1256.33 223.928C1276.65 246.664 1295.37 273.731 1311.98 304.371C1326.82 331.771 1339.93 361.904 1350.93 393.938L1350.42 394.163C1327.03 326.072 1294.36 267.359 1255.94 224.369C1237.71 203.908 1216.97 185.948 1195.96 172.432C1173.22 157.797 1148.87 143.869 1124.95 141.055C1116.4 140.05 1108.45 140.291 1100.64 141.792C1077.43 146.254 1054.14 166.701 1035.06 199.369C1027.4 212.391 1020.93 226.351 1014.67 239.851C1012.66 244.173 1010.59 248.639 1008.53 252.965C1002.83 264.915 997.665 278.952 992.194 293.812C981.291 323.422 968.936 356.985 949.052 381.633C937.866 395.5 925.086 405.315 909.983 411.641C896.876 417.129 882.738 420.307 866.757 421.35C862.435 421.645 858.132 421.761 853.896 421.761Z" fill="white" fill-opacity="0.3"/>
<path d="M874.172 424.223C874.025 424.223 873.88 424.223 873.733 424.223C859.216 424.182 844.963 422.177 831.607 420.127C815.4 417.64 798.315 413.728 780.823 408.504C766.733 404.251 752.897 399.225 739.702 393.569C704.717 378.596 670.255 355.471 631.243 320.789C617.194 308.303 603.368 294.857 589.996 281.857C588.323 280.229 586.649 278.604 584.975 276.979C556.375 249.287 527.005 227.93 497.683 213.505C457.532 193.753 417.037 185.615 373.886 188.627C350.225 190.28 325.702 194.797 302.968 201.689C285.031 207.129 269.048 215.855 250.014 226.698C246.156 228.906 242.037 231.288 237.053 234.198L236.775 234.361C227.159 240.012 216.261 246.416 204.036 251.285C189.997 256.877 176.377 259.568 162.41 259.537C140.631 259.475 118.404 254.902 96.9114 250.476C91.6454 249.391 86.1981 248.271 80.9401 247.257C65.8613 244.354 53.0972 242.888 41.9185 242.776C0.757508 242.367 -35.9111 249.25 -58.6834 261.657L-58.9453 261.044C-47.7908 254.965 -32.7442 250.032 -15.4333 246.777C1.90982 243.515 21.745 241.897 41.9246 242.097C53.1355 242.208 65.9318 243.677 81.0429 246.586C86.3048 247.6 91.7521 248.721 97.0202 249.805C118.487 254.224 140.685 258.793 162.412 258.855C162.509 258.855 162.607 258.855 162.704 258.855C193.782 258.855 217.459 244.943 236.497 233.757L236.777 233.593C241.763 230.681 245.882 228.299 249.742 226.091C268.808 215.23 284.819 206.488 302.813 201.032C325.586 194.126 350.149 189.603 373.85 187.948C394.966 186.475 414.884 187.598 434.745 191.385C456.148 195.465 476.815 202.496 497.925 212.882C527.303 227.335 556.723 248.725 585.37 276.463C587.044 278.088 588.718 279.715 590.39 281.343C603.757 294.339 617.579 307.78 631.616 320.257C670.577 354.896 704.989 377.989 739.915 392.937C753.092 398.586 766.908 403.603 780.978 407.851C798.446 413.068 815.507 416.974 831.688 419.456C860.671 423.907 889.045 426.994 917.511 416.046C932.958 410.104 945.755 400.282 956.627 386.015C976.269 360.245 986.998 324.535 996.467 293.027C1000.9 278.276 1005.08 264.342 1009.81 252.633C1011.62 248.128 1013.45 243.468 1015.21 238.96C1020.72 224.866 1026.42 210.295 1033.41 196.556C1041.45 180.624 1050.54 167.148 1060.43 156.505C1071.7 144.376 1083.7 136.301 1096.12 132.51C1103.81 130.159 1111.67 129.014 1120.11 129.014C1120.29 129.014 1120.48 129.014 1120.66 129.016C1146.9 129.171 1173.91 142.623 1194.5 154.325C1216.44 166.794 1237.95 184.152 1256.68 204.524C1277.56 227.155 1296.43 254.488 1312.77 285.764C1327.43 313.831 1339.88 344.671 1349.77 377.432L1349.2 377.652C1334.49 328.907 1306.41 259.389 1256.26 205.017C1237.57 184.69 1216.12 167.373 1194.23 154.935C1173.7 143.264 1146.77 129.85 1120.66 129.698C1112.06 129.641 1104.09 130.782 1096.27 133.169C1073.27 140.195 1051.14 162.827 1033.93 196.895C1026.96 210.602 1021.27 225.157 1015.76 239.235C1014 243.745 1012.17 248.407 1010.36 252.915C1005.65 264.594 1001.46 278.511 997.039 293.245C987.554 324.81 976.805 360.588 957.087 386.459C946.142 400.821 933.259 410.709 917.706 416.69C904.525 421.756 890.278 424.223 874.172 424.223Z" fill="white" fill-opacity="0.3"/>
<path d="M890.293 427.424C887.167 427.424 883.972 427.31 880.7 427.083C866.381 426.089 852.464 423.109 838.282 419.881C821.841 416.14 805.238 411.134 787.522 404.579C773.505 399.346 759.759 393.385 746.667 386.859C713.453 370.329 680.475 345.995 639.739 307.96C629.622 298.515 619.509 288.608 609.729 279.027C604.404 273.812 598.901 268.418 593.447 263.151C564.506 235.273 534.155 215.024 503.236 202.962C462.383 187.025 420.396 184.106 374.872 194.04C350.82 199.289 326.32 207.52 304.021 217.843C286.107 226.135 270.503 237.78 253.982 250.11L252.839 250.963C250.259 252.895 247.65 254.854 245.009 256.836C243.488 257.98 241.957 259.13 240.412 260.289C230.778 267.557 220.373 275.138 208.441 280.973C194.587 287.747 180.884 291.079 166.545 291.161C142.672 291.293 118.323 285.033 94.7767 278.973C91.4165 278.106 87.9394 277.213 84.565 276.365C68.7449 272.387 56.2729 270.098 45.3098 269.157C4.85382 265.686 -33.3257 268.132 -59.4422 275.87L-59.6094 275.156C-33.4244 267.398 4.83368 264.943 45.3601 268.42C56.3535 269.364 68.8577 271.66 84.7081 275.645C88.0844 276.495 91.5615 277.388 94.9238 278.254C118.182 284.239 142.223 290.425 165.779 290.425C166.033 290.425 166.287 290.425 166.543 290.422C197.01 290.25 218.699 275.779 240.051 259.676C241.596 258.516 243.127 257.366 244.648 256.223C247.289 254.238 249.896 252.281 252.479 250.347L253.621 249.494C270.17 237.144 285.801 225.478 303.773 217.158C326.112 206.815 350.655 198.571 374.749 193.313C420.388 183.354 462.488 186.282 503.452 202.262C534.448 214.356 564.869 234.65 593.874 262.59C599.328 267.859 604.833 273.251 610.158 278.468C619.934 288.047 630.045 297.951 640.156 307.389C680.844 345.381 713.776 369.681 746.931 386.184C760.005 392.699 773.73 398.652 787.727 403.876C805.417 410.423 821.997 415.421 838.413 419.156C863.333 424.828 894.347 431.888 925.231 421.014C941.11 415.424 953.991 405.54 964.61 390.796C984.062 363.791 993.081 325.809 1001.04 292.3C1004.5 277.743 1007.76 263.992 1011.57 252.581C1013.06 248.135 1014.55 243.536 1015.99 239.088C1020.81 224.169 1025.81 208.743 1032.22 194.072C1039.45 177.398 1047.86 163.057 1057.23 151.446C1067.84 138.289 1079.43 128.998 1091.68 123.831C1099.54 120.515 1107.6 118.471 1116.31 117.582C1127.98 116.391 1140.4 117.664 1154.28 121.465C1166.02 124.684 1178.61 129.68 1192.77 136.743C1215.6 148.134 1237.82 164.857 1257.03 185.104C1278.46 207.629 1297.48 235.232 1313.56 267.143C1328.03 295.878 1339.83 327.425 1348.61 360.911L1347.98 361.12C1329.44 290.425 1296.98 228.106 1256.58 185.645C1237.43 165.453 1215.27 148.777 1192.5 137.42C1162 122.204 1137.81 116.132 1116.37 118.319C1107.71 119.201 1099.71 121.231 1091.91 124.522C1062.77 136.813 1043.68 169.306 1032.8 194.397C1026.41 209.032 1021.42 224.439 1016.6 239.34C1015.16 243.791 1013.67 248.392 1012.19 252.84C1008.39 264.217 1005.13 277.952 1001.67 292.491C993.698 326.072 984.658 364.134 965.117 391.262C954.414 406.122 941.43 416.085 925.425 421.72C914.577 425.539 903.007 427.424 890.293 427.424Z" fill="white" fill-opacity="0.3"/>
<path d="M904.263 431.092C882.959 431.092 862.477 424.916 844.955 419.633C828.47 414.664 811.874 408.454 794.219 400.65C780.28 394.445 766.623 387.548 753.63 380.149C714.679 357.994 679.954 326.195 648.233 295.13C641.756 288.788 635.213 282.25 628.888 275.929C620.104 267.15 611.021 258.073 601.919 249.326C572.545 221.173 541.213 202.026 508.795 192.417C466.858 179.99 423.375 182.288 375.86 199.446C351.395 208.279 326.918 220.225 305.075 233.991C288.227 244.607 273.972 258.009 258.882 272.198C257.812 273.203 256.74 274.212 255.662 275.222L255.078 275.772C251.41 279.225 247.616 282.794 243.77 286.376C234.556 294.998 224.409 303.916 212.672 310.728C199.048 318.637 185.313 322.581 170.677 322.785C144.988 323.147 118.805 314.997 93.486 307.116C91.7112 306.564 89.9444 306.014 88.1857 305.471C71.4893 300.301 59.3094 297.237 48.6968 295.532C9.25617 289.199 -30.4383 287.208 -60.2091 290.07L-60.2695 289.277C-30.4503 286.408 9.30251 288.401 48.7955 294.744C59.4383 296.453 71.6444 299.524 88.3711 304.702C90.1298 305.246 91.8965 305.796 93.6733 306.35C118.944 314.215 145.076 322.344 170.667 321.99C202.45 321.544 224.834 303.057 243.319 285.762C247.165 282.18 250.958 278.611 254.627 275.16L255.211 274.61C256.289 273.599 257.361 272.592 258.43 271.587C273.547 257.373 287.826 243.947 304.73 233.295C326.614 219.504 351.137 207.538 375.644 198.689C398.171 190.555 419.329 185.859 440.327 184.331C463.75 182.629 486.845 185.091 508.972 191.649C541.493 201.287 572.918 220.488 602.374 248.719C611.482 257.47 620.568 266.549 629.353 275.331C635.679 281.652 642.218 288.188 648.692 294.528C680.381 325.559 715.063 357.324 753.944 379.437C766.92 386.825 780.556 393.713 794.474 399.909C812.104 407.702 828.673 413.903 845.134 418.865C870.408 426.485 901.863 435.968 932.944 425.989C949.253 420.752 962.219 410.807 972.584 395.586C991.835 367.31 999.039 326.991 1005.39 291.416C1007.95 277.122 1010.36 263.622 1013.33 252.535C1014.43 248.435 1015.54 244.197 1016.61 240.099C1020.78 224.069 1025.1 207.49 1031.01 191.594C1037.44 174.166 1045.18 158.954 1054.01 146.385C1063.98 132.203 1075.15 121.697 1087.23 115.157C1095.08 110.91 1103.16 107.967 1111.95 106.155C1123.78 103.716 1136.92 103.798 1150.99 106.398C1163.3 108.676 1176.78 112.97 1191.02 119.164C1214.75 129.478 1237.69 145.565 1257.37 165.687C1279.36 188.107 1298.52 215.976 1314.34 248.523C1328.62 277.927 1339.76 310.183 1347.44 344.394L1346.76 344.59C1330.49 272.098 1298.57 208.772 1256.9 166.278C1237.28 146.222 1214.41 130.187 1190.77 119.908C1160.13 106.585 1134.38 102.341 1112.07 106.939C1103.35 108.737 1095.32 111.661 1087.54 115.875C1058.8 131.435 1041.29 165.805 1031.66 191.901C1025.77 207.756 1021.45 224.312 1017.28 240.322C1016.21 244.42 1015.11 248.66 1014.01 252.765C1011.05 263.815 1008.64 277.297 1006.09 291.572C1003.03 308.687 999.562 328.084 994.532 346.269C988.769 367.105 981.772 383.395 973.144 396.07C968.154 403.399 962.42 409.636 956.101 414.61C949.304 419.959 941.578 424.046 933.137 426.755C923.479 429.858 913.787 431.092 904.263 431.092Z" fill="white" fill-opacity="0.3"/>
<path d="M916.853 435.118C909.811 435.118 902.431 434.345 894.637 432.802C879.286 429.763 864.592 424.248 851.627 419.386C835.285 413.255 818.222 405.629 800.915 396.72C787.065 389.55 773.497 381.717 760.592 373.434C723.55 349.686 691.638 318.109 656.726 282.298C653.624 279.116 650.473 275.869 647.427 272.728C635.431 260.364 623.027 247.58 610.39 235.5C580.528 207.018 548.217 188.975 514.353 181.874C471.637 172.916 425.371 180.644 376.847 204.849C351.947 217.27 327.492 232.927 306.128 250.133C290.042 263.087 276.801 278.361 262.781 294.532C261.357 296.176 259.927 297.824 258.488 299.479C254.909 303.602 251.053 308.028 247.131 312.458C238.905 321.781 228.881 332.403 216.904 340.48C203.498 349.522 189.728 354.08 174.813 354.41C147.508 355.017 119.713 344.815 92.8331 334.949L91.8097 334.574C78.6487 329.746 64.7263 324.868 52.0871 321.906C13.5611 312.879 -26.5907 306.612 -60.9687 304.259L-60.9224 303.409C-26.5081 305.764 13.6799 312.036 52.2402 321.071C64.9157 324.042 78.8623 328.927 92.0434 333.762L93.0668 334.137C119.888 343.98 147.627 354.157 174.799 353.555C206.179 352.859 227.851 333.101 246.597 311.851C250.519 307.423 254.371 302.997 257.951 298.876C259.389 297.224 260.819 295.573 262.244 293.932C276.287 277.733 289.553 262.433 305.691 249.435C327.096 232.195 351.596 216.508 376.542 204.065C399.309 192.71 421.712 184.886 443.127 180.812C467.595 176.159 491.607 176.232 514.494 181.031C548.487 188.159 580.917 206.265 610.879 234.846C623.527 246.937 635.936 259.725 647.939 272.096C650.985 275.235 654.136 278.481 657.238 281.664C692.116 317.441 723.994 348.984 760.969 372.69C773.856 380.96 787.403 388.782 801.233 395.943C818.516 404.837 835.551 412.453 851.868 418.574C877.447 428.171 909.281 440.112 940.671 430.963C957.414 426.082 970.464 416.078 980.569 400.375C999.608 370.79 1005.12 326.197 1009.55 290.365C1011.27 276.408 1012.9 263.226 1015.11 252.497C1015.8 249.114 1016.5 245.63 1017.18 242.258C1020.71 224.746 1024.36 206.636 1029.83 189.123C1038.27 161.87 1054.32 125.413 1082.79 106.494C1090.66 101.27 1098.77 97.4237 1107.59 94.7368C1130.68 87.6059 1158.17 89.9132 1189.29 101.59C1213.9 110.826 1237.57 126.277 1257.72 146.274C1280.26 168.587 1299.58 196.725 1315.13 229.911C1322.26 245.132 1328.57 261.389 1333.87 278.231C1338.93 294.318 1343.11 311.024 1346.29 327.884L1345.55 328.061C1331.55 253.77 1300.19 189.437 1257.22 146.913C1237.14 126.991 1213.57 111.599 1189.05 102.397C1158.07 90.7724 1130.73 88.472 1107.79 95.5574C1099.03 98.2239 1090.98 102.041 1083.18 107.226C1054.9 126.013 1038.94 162.284 1030.54 189.403C1025.08 206.87 1021.44 224.955 1017.92 242.445C1017.24 245.816 1016.54 249.303 1015.84 252.688C1013.64 263.381 1012.01 276.545 1010.29 290.481C1008.07 308.512 1005.54 328.948 1001.23 348.236C996.268 370.399 989.711 387.618 981.18 400.875C976.312 408.438 970.619 414.817 964.261 419.831C957.412 425.235 949.537 429.258 940.859 431.786C933.242 434.009 925.286 435.118 916.853 435.118Z" fill="white" fill-opacity="0.3"/>
<path d="M939.36 443.796C929.742 443.796 919.553 442.041 908.572 438.517C893.036 433.532 878.12 425.747 864.963 418.879C848.335 410.2 831.29 400.096 814.301 388.853C800.641 379.783 787.254 370.074 774.51 360.002C743.13 335.206 716.31 304.83 687.915 272.669C683.274 267.412 678.473 261.976 673.711 256.632C656.97 237.856 642.675 222.373 627.33 207.85C596.407 178.624 562.14 162.787 525.477 160.777C479.409 158.252 430.063 176.71 378.813 215.638C353.353 234.978 328.284 258.687 308.225 282.401C293.114 300.266 281.301 319.712 268.795 340.301C267.246 342.851 265.691 345.411 264.125 347.972C261.337 352.544 257.646 358.568 253.837 364.607C237.805 390.085 216.86 416.315 183.074 417.656C182.021 417.695 180.963 417.713 179.908 417.713C153.525 417.713 126.591 405.931 99.0359 392.777L97.3155 391.949C83.667 385.375 70.774 379.167 58.8399 374.648C13.8653 357.618 -29.6306 343.242 -62.4998 332.622L-62.264 331.692C-29.3868 342.317 14.1212 356.695 59.1118 373.732C71.0782 378.262 83.9853 384.479 97.6519 391.06L99.3703 391.888C127.934 405.524 155.83 417.688 183.044 416.693C216.455 415.365 237.225 389.337 253.138 364.051C256.945 358.015 260.632 351.996 263.42 347.427C264.985 344.863 266.539 342.305 268.088 339.755C280.614 319.135 292.446 299.656 307.605 281.735C327.704 257.971 352.823 234.214 378.333 214.835C402.01 196.85 425.695 183.041 448.729 173.787C475.158 163.169 500.995 158.468 525.518 159.811C562.369 161.83 596.81 177.744 627.878 207.107C643.245 221.653 657.554 237.151 674.311 255.943C679.076 261.288 683.876 266.725 688.52 271.983C716.886 304.112 743.68 334.458 775 359.204C787.726 369.265 801.092 378.958 814.732 388.014C831.697 399.244 848.716 409.332 865.32 417.997C891.384 431.602 923.822 448.533 956.107 440.911C973.754 436.744 986.973 426.619 996.518 409.959C1015.15 377.665 1016.27 327.825 1017.17 287.779C1017.47 274.713 1017.74 262.37 1018.63 252.425L1018.65 252.197C1020.64 229.927 1022.71 206.9 1027.43 184.18C1031.52 164.362 1037.22 146.545 1044.37 131.219C1052.42 113.941 1062.36 99.7928 1073.9 89.1658C1081.62 82.0553 1089.79 76.4065 1098.86 71.8988C1123.4 59.6487 1153.46 57.7574 1185.8 66.4341C1198.81 69.9257 1211.65 75.2153 1223.96 82.153C1236.34 89.1317 1247.93 97.6401 1258.4 107.437C1282.06 129.535 1301.68 158.213 1316.7 192.677C1330.2 223.653 1339.62 258.989 1343.96 294.862L1343.11 294.992C1333.84 218.213 1302.77 150.123 1257.86 108.181C1236.85 88.5361 1211.87 74.4243 1185.6 67.3798C1153.44 58.7531 1123.57 60.6239 1099.21 72.7899C1090.2 77.2635 1082.1 82.8668 1074.44 89.9205C1052.9 109.763 1036.93 142.435 1028.27 184.405C1023.55 207.066 1021.5 230.061 1019.51 252.3L1019.49 252.527C1018.6 262.436 1018.32 274.761 1018.03 287.809C1017.12 327.978 1016 377.967 997.235 410.489C992.634 418.522 987.028 425.187 980.577 430.297C973.621 435.808 965.448 439.697 956.282 441.863C950.823 443.15 945.196 443.796 939.36 443.796Z" fill="white" fill-opacity="0.3"/>
<path d="M183.701 449.362C171.904 449.362 159.057 446.769 144.559 441.472C130.153 436.21 115.906 428.945 102.654 421.88C100.255 420.593 97.8737 419.309 95.5087 418.034C83.7357 411.685 72.6155 405.688 62.2225 401.017C20.7814 382.397 -18.7196 365.662 -56.9213 349.482L-63.251 346.799L-62.9327 345.842L-56.603 348.525C-18.3993 364.71 21.1078 381.445 62.5569 400.069C72.9781 404.751 84.1124 410.755 95.8995 417.113C98.2625 418.388 100.644 419.673 103.041 420.957C130.243 435.46 159.144 449.515 187.174 448.262C221.631 446.644 242.28 416.356 256.418 390.153C260.04 383.452 263.529 376.773 266.164 371.704C267.619 368.91 269.063 366.119 270.503 363.334C282.45 340.25 293.733 318.446 308.572 297.888C328.16 270.755 353.255 243.173 379.238 220.225C403.344 198.935 427.67 182.113 451.542 170.229C478.923 156.597 505.668 149.523 531.033 149.202C569.201 148.561 604.651 163.378 636.384 193.236C653.975 209.807 669.746 227.733 682.857 243.084C689.991 251.438 697.124 260.001 704.024 268.282C728.446 297.599 753.7 327.912 782.023 352.464C794.674 363.434 807.954 374.064 821.49 384.054C838.24 396.391 855.251 407.716 872.052 417.713C898.314 433.339 930.996 452.786 963.831 445.884C981.903 442.086 995.205 431.902 1004.5 414.751C1022.88 380.992 1021.64 328.423 1020.64 286.183C1020.35 273.692 1020.07 261.892 1020.4 252.393C1021.16 230.977 1022.3 206.088 1026.24 181.711C1029.56 161.055 1034.58 142.367 1041.15 126.168C1048.58 107.844 1058.11 92.4822 1069.46 80.5072C1076.98 72.5716 1085.41 65.8362 1094.51 60.4852C1107.49 52.8246 1122.06 48.0078 1137.82 46.171C1152.57 44.4503 1168.13 45.355 1184.06 48.8579C1197.49 51.813 1210.72 56.6731 1223.4 63.3062C1236.16 69.9802 1248.05 78.2954 1258.75 88.02C1271.08 99.2176 1282.42 112.441 1292.45 127.323C1301.96 141.423 1310.38 157.149 1317.49 174.062C1330.79 205.702 1339.54 241.768 1342.8 278.354L1341.89 278.457C1334.9 199.889 1304.39 130.769 1258.18 88.8179C1237.02 69.5824 1210.63 55.7479 1183.88 49.8627C1150.81 42.5863 1120.05 46.5734 1094.93 61.3922C1085.9 66.7 1077.54 73.3831 1070.08 81.2551C1048.69 103.819 1034.24 137.677 1027.13 181.895C1023.2 206.206 1022.06 231.052 1021.31 252.434C1020.97 261.899 1021.25 273.681 1021.55 286.156C1022.04 306.994 1022.6 330.614 1020.73 353.448C1018.56 379.944 1013.5 400.171 1005.27 415.285C1000.79 423.555 995.227 430.363 988.736 435.519C981.726 441.088 973.402 444.914 963.998 446.889C959.254 447.887 954.513 448.339 949.801 448.339C921.584 448.339 894.24 432.068 871.631 418.616C854.806 408.602 837.769 397.261 820.996 384.907C807.44 374.903 794.142 364.257 781.473 353.271C753.092 328.669 727.811 298.324 703.365 268.98C696.467 260.701 689.336 252.14 682.206 243.791C669.114 228.458 653.364 210.557 635.806 194.018C604.244 164.319 569.001 149.589 531.048 150.221C471.443 150.975 415.899 189.139 379.798 221.025C353.867 243.927 328.822 271.451 309.277 298.529C294.482 319.026 283.215 340.796 271.287 363.844C269.847 366.628 268.4 369.42 266.946 372.216C264.309 377.287 260.818 383.97 257.193 390.678C251.259 401.678 241.941 417.69 229.6 429.693C223.607 435.521 217.229 440.101 210.643 443.309C203.301 446.885 195.416 448.894 187.212 449.278C186.05 449.335 184.88 449.362 183.701 449.362Z" fill="white" fill-opacity="0.3"/>
<path d="M187.489 481.009C175.678 481.009 162.857 478.215 148.435 472.514C133.503 466.613 118.741 458.316 106.271 450.976C102.439 448.717 98.6154 446.425 94.9168 444.209C84.5782 438.015 74.8117 432.161 65.6032 427.383C32.5346 410.221 -0.318463 393.465 -32.0917 377.26C-42.6016 371.9 -53.468 366.358 -64 360.975L-63.6052 359.99C-53.0732 365.373 -42.2067 370.915 -31.6969 376.275C0.0763786 392.481 32.9335 409.239 66.0041 426.403C75.2367 431.195 85.0153 437.053 95.366 443.257C99.0627 445.473 102.886 447.762 106.714 450.021C132.577 465.238 162.575 481.346 191.3 479.829C226.569 477.925 246.378 444.852 259.698 416.254C263.112 408.927 266.414 401.571 268.908 395.981C270.19 393.113 271.463 390.246 272.734 387.387C284.16 361.666 294.952 337.372 309.542 314.043C328.516 283.701 353.591 252.297 380.143 225.617C417.12 188.621 474.27 143.494 536.548 138.6C576.153 135.404 612.606 149.12 644.889 179.372C659.394 192.97 673.738 208.654 691.401 230.234C700.327 241.138 709.185 252.44 717.751 263.367C740.038 291.798 763.08 321.197 789.046 345.735C801.624 357.626 814.814 369.19 828.247 380.106C844.512 393.311 861.517 405.872 878.785 417.442C905.311 435.107 938.323 457.096 971.553 450.872C989.772 447.53 1003.54 436.994 1012.48 419.559C1030.61 384.272 1026.72 326.543 1023.87 284.392C1023.08 272.562 1022.32 261.39 1022.18 252.377C1021.85 232.345 1021.87 205.934 1025.05 179.258C1030.53 133.033 1043.98 96.8989 1065.02 71.8645C1072.39 63.0446 1080.85 55.3818 1090.15 49.0874C1103.38 40.122 1118.31 34.0913 1134.53 31.1658C1149.8 28.4107 1165.88 28.4539 1182.31 31.2953C1196.18 33.7458 1209.81 38.1876 1222.84 44.4933C1235.99 50.8627 1248.19 58.9779 1259.1 68.6139C1271.7 79.7478 1283.22 93.0163 1293.33 108.053C1302.91 122.304 1311.3 138.252 1318.28 155.46C1331.37 187.766 1339.45 224.56 1341.64 261.862L1340.68 261.933C1335.97 181.572 1306.02 111.42 1258.51 69.4663C1236.96 50.4331 1209.85 37.2556 1182.17 32.3637C1148.04 26.4649 1116.39 32.5683 1090.65 50.0149C1081.42 56.257 1073.03 63.8584 1065.72 72.6078C1044.82 97.4763 1031.46 133.406 1026 179.403C1022.83 206.006 1022.81 232.366 1023.13 252.358C1023.28 261.34 1024.04 272.499 1024.83 284.312C1026.3 306.101 1027.96 330.798 1027.01 354.91C1025.9 382.986 1021.42 404.31 1013.31 420.102C1008.94 428.62 1003.42 435.575 996.896 440.776C989.823 446.416 981.349 450.171 971.712 451.94C956.764 454.738 940.676 452.224 922.527 444.252C906.751 437.321 891.636 427.256 878.302 418.377C861.007 406.79 843.98 394.211 827.691 380.988C814.238 370.056 801.03 358.477 788.433 346.57C762.414 321.981 739.345 292.55 717.036 264.09C708.474 253.165 699.618 241.87 690.7 230.975C673.067 209.434 658.749 193.779 644.279 180.213C612.187 150.134 575.966 136.5 536.612 139.675C474.603 144.551 417.642 189.539 380.776 226.424C354.276 253.049 329.254 284.387 310.319 314.666C295.77 337.929 284.994 362.189 273.586 387.871C272.315 390.733 271.042 393.599 269.76 396.468C267.264 402.062 263.961 409.425 260.542 416.758C247.105 445.611 227.097 478.979 191.343 480.909C190.071 480.975 188.784 481.009 187.489 481.009Z" fill="white" fill-opacity="0.3"/>
</g>
</svg>
