<svg width="1349" height="318" viewBox="0 0 1349 318" fill="none" xmlns="http://www.w3.org/2000/svg">
<path d="M168.146 30.284C93.8159 33.3007 59.0671 42.6945 1.43087 64.2718L16.6801 373.57C93.6946 269.111 567.758 211.74 688.925 292.215C810.093 372.689 1380.7 306.32 1380.7 306.32L1350.66 -2.24907C1350.66 -2.24907 970.613 103.769 845.542 53.4109C720.471 3.05288 346.715 18.1556 346.715 18.1556L168.146 30.284Z" fill="#132F66"/>
<path d="M168.146 30.2841C93.8159 33.3008 59.0671 42.6945 1.43087 64.2718L16.6801 373.57C93.6946 269.112 567.758 211.74 688.925 292.215C810.093 372.689 1380.7 306.32 1380.7 306.32L1350.66 -2.24901C1350.66 -2.24901 970.613 103.769 845.542 53.411C720.471 3.05294 346.715 18.1557 346.715 18.1557L168.146 30.2841Z" fill="url(#paint0_linear_41_568)"/>
<defs>
<linearGradient id="paint0_linear_41_568" x1="682.008" y1="1.62486" x2="667.5" y2="270" gradientUnits="userSpaceOnUse">
<stop stop-color="#324ECC" stop-opacity="0.71"/>
<stop offset="1" stop-color="#132F66" stop-opacity="0"/>
</linearGradient>
</defs>
</svg>
