<svg width="2064" height="624" viewBox="0 0 2064 624" fill="none" xmlns="http://www.w3.org/2000/svg">
<path d="M789.76 623.163C782.388 623.163 775.213 622.654 768.317 621.638C753.856 619.507 740.495 615.13 728.605 608.63C715.826 601.646 704.618 592.128 695.29 580.344C676.542 556.657 667.162 528.291 658.09 500.858C656.308 495.471 654.466 489.901 652.595 484.496C639.83 447.661 623.649 415.395 603.129 385.855C562.197 326.928 504.632 276.638 436.655 240.422C358.041 198.541 273.518 177.678 198.654 181.678C154.653 184.031 96.5149 206.398 70.5316 244.598C55.1117 267.269 53.8683 292.428 66.9383 317.351L66.6788 317.456C59.8258 304.385 56.8399 291.281 57.8067 278.509C58.6936 266.792 62.8915 255.339 70.2864 244.467C82.0474 227.176 101.443 211.85 126.377 200.146C149.417 189.332 175.078 182.684 198.637 181.425C237.816 179.333 279.484 183.975 322.484 195.226C361.463 205.425 399.926 220.558 436.804 240.204C504.82 276.44 562.419 326.758 603.375 385.72C623.905 415.28 640.095 447.563 652.869 484.419C654.742 489.823 656.585 495.396 658.364 500.782C667.427 528.196 676.801 556.542 695.524 580.194C713.63 603.07 738.139 616.929 768.366 621.383C810.225 627.552 861.057 614.649 904.337 586.864C966.707 546.827 1009.99 488.549 1051.85 432.193C1059.19 422.314 1066.78 412.1 1074.29 402.236C1093.79 376.624 1120.2 343.435 1151.59 313.867C1183.67 283.645 1216.28 261.44 1251.26 245.982C1272.68 236.52 1295.37 230.145 1318.72 227.035C1340.28 224.161 1363.1 223.983 1386.55 226.501C1426.78 230.822 1470.12 243.028 1519.04 263.813C1615.38 304.744 1711.61 354.424 1805.07 411.478C1893.89 465.705 1981.01 527.067 2064 593.854L2063.81 594.039C1891.78 455.593 1708.45 344.566 1518.92 264.039C1411.84 218.544 1326.83 212.876 1251.39 246.205C1174.64 280.111 1121.03 341.301 1074.53 402.374C1067.02 412.235 1059.43 422.45 1052.09 432.328C1010.22 488.705 966.92 547 904.508 587.065C884.339 600.013 861.65 610.112 838.895 616.269C826.875 619.522 814.925 621.648 803.375 622.591C798.772 622.975 794.229 623.163 789.76 623.163Z" fill="white" fill-opacity="0.5"/>
<path d="M796.967 609.117C778.168 609.117 760.755 605.97 745.192 599.758C727.838 592.831 712.863 582.097 700.68 567.858C699.602 566.596 698.533 565.292 697.5 563.978C678.952 540.394 669.156 512.397 659.685 485.319C657.768 479.847 655.789 474.187 653.782 468.695C641.824 435.992 627.425 407.17 609.757 380.584C607.581 377.311 605.329 374.031 603.056 370.836C561.521 312.415 503.489 262.762 435.233 227.244C356.051 186.077 271.288 166.077 196.558 170.93C152.876 173.796 95.0064 196.53 68.912 234.436C53.2867 257.135 51.5185 282.344 63.7929 307.339L63.5305 307.44C57.0967 294.339 54.4531 281.21 55.6765 268.423C56.8002 256.678 61.1692 245.2 68.6667 234.306C80.5475 217.044 99.8859 201.701 124.586 189.937C147.415 179.063 172.965 172.224 196.532 170.679C235.663 168.139 277.377 172.337 320.514 183.156C359.587 192.956 398.233 207.718 435.375 227.028C503.671 262.567 561.735 312.25 603.295 370.703C605.568 373.9 607.824 377.183 610 380.458C627.679 407.062 642.086 435.9 654.05 468.619C656.06 474.112 658.039 479.772 659.956 485.247C669.424 512.306 679.211 540.284 697.734 563.835C698.764 565.144 699.833 566.448 700.908 567.707C726.085 597.142 760.678 609.117 797.056 609.117C797.255 609.117 797.452 609.117 797.652 609.117C797.424 609.114 797.196 609.117 796.967 609.117ZM804.727 608.941C838.547 607.414 873.446 595.986 903.384 578.985C967.965 542.162 1014.38 485.289 1059.27 430.289C1061.11 428.022 1062.96 425.76 1064.81 423.498C1068.87 418.533 1073.68 412.654 1078.59 406.728C1100.62 380.152 1127.28 349.231 1157.99 321.399C1190.66 291.783 1223.3 269.807 1257.77 254.211C1278.95 244.638 1301.33 237.895 1324.3 234.168C1345.58 230.715 1368.07 229.739 1391.13 231.266C1430.97 233.907 1473.81 243.918 1522.1 261.875C1569.18 279.354 1607.88 295.808 1643.89 313.657C1694.9 338.966 1743.49 368.127 1784.3 393.314C1879.17 452.038 1972.26 518.719 2060.97 591.507L2060.78 591.69C1972.07 518.912 1879 452.236 1784.14 393.519C1743.34 368.335 1694.75 339.179 1643.75 313.877C1607.75 296.034 1569.06 279.585 1521.99 262.11C1416.8 222.993 1332.88 220.553 1257.9 254.436C1180.08 289.642 1124.66 351.583 1078.82 406.879C1073.91 412.805 1069.1 418.681 1065.04 423.649C1063.19 425.908 1061.35 428.173 1059.5 430.44C1014.6 485.457 968.164 542.35 903.538 579.201C887.514 588.299 870.462 595.527 852.855 600.68C836.466 605.473 820.31 608.244 804.727 608.941Z" fill="white" fill-opacity="0.5"/>
<path d="M804.914 595.392C802.653 595.392 800.405 595.349 798.175 595.261C779.393 594.532 762.011 590.742 746.514 583.994C729.565 576.613 714.881 565.681 702.872 551.499C701.806 550.236 700.742 548.929 699.715 547.615C681.375 524.146 671.171 496.522 661.306 469.811C659.25 464.244 657.123 458.486 654.967 452.898C642.419 420.306 627.64 391.714 609.782 365.487C607.572 362.244 605.285 358.992 602.977 355.822C560.841 297.91 502.341 248.895 433.806 214.073C354.059 173.621 269.057 154.481 194.458 160.187C152.456 163.45 94.7544 184.887 67.3196 224.24C51.469 246.976 49.1618 272.253 60.6462 297.336L60.381 297.429C54.3636 284.288 52.0679 271.129 53.5508 258.319C54.914 246.537 59.4656 235.029 67.0772 224.109C79.0835 206.888 98.3591 191.54 122.822 179.72C145.438 168.794 170.87 161.769 194.432 159.939C233.517 156.952 275.277 160.703 318.548 171.091C357.718 180.495 396.543 194.883 433.948 213.857C502.524 248.701 561.055 297.745 603.217 355.689C605.524 358.861 607.814 362.114 610.024 365.362C627.891 391.604 642.678 420.213 655.232 452.823C657.388 458.413 659.515 464.171 661.572 469.738C671.433 496.435 681.629 524.038 699.946 547.479C700.973 548.793 702.031 550.098 703.097 551.357C751.895 608.982 838.375 602.795 902.431 571.103C969.706 537.526 1019.7 481.718 1068.05 427.75L1068.55 427.195C1073.23 421.964 1078.07 416.557 1082.89 411.218C1133.75 354.891 1189.65 297.005 1264.28 262.434C1285.23 252.749 1307.31 245.637 1329.89 241.296C1350.9 237.258 1373.04 235.485 1395.71 236.027C1435.23 236.97 1477.58 244.789 1525.16 259.932C1575.17 275.789 1612.81 290.364 1647.19 307.195C1696.18 331.222 1743.63 361.585 1785.49 388.374C1878.71 448.339 1970.37 515.891 2057.95 589.147L2057.75 589.328C1970.18 516.079 1878.53 448.535 1785.32 388.574C1743.46 361.79 1696.02 331.433 1647.05 307.413C1612.68 290.588 1575.06 276.017 1525.07 260.165C1421.92 227.342 1339.09 228.132 1264.41 262.653C1189.83 297.201 1133.95 355.062 1083.12 411.368C1078.3 416.707 1073.45 422.117 1068.77 427.346L1068.27 427.9C1044.18 454.794 1019.27 482.604 992.361 507.444C962.126 535.359 932.754 556.252 902.567 571.317C870.986 586.94 836.584 595.392 804.914 595.392Z" fill="white" fill-opacity="0.5"/>
<path d="M2054.73 586.963C1968.3 513.242 1878.06 444.83 1786.52 383.629C1782.64 381.056 1778.76 378.47 1774.86 375.877C1735.2 349.489 1694.2 322.204 1650.36 300.947C1607.82 280.383 1564.72 267.809 1528.15 258.221C1427.24 231.593 1345.5 235.613 1270.94 270.868C1194.39 307.167 1135.08 367.433 1087.42 415.86C1084.56 418.766 1081.71 421.678 1078.85 424.592C1076.73 426.744 1074.62 428.895 1072.51 431.045C1045.37 458.646 1020.69 483.323 993.418 505.841C962.261 531.564 932.231 550.403 901.605 563.437C872.904 575.652 842.244 582.115 813.725 582.118C808.529 582.118 803.41 581.905 798.38 581.471C780.014 579.888 763.011 575.442 747.845 568.254C731.296 560.412 716.902 549.272 705.058 535.143C704 533.877 702.945 532.568 701.924 531.251C683.801 507.905 673.2 480.67 662.951 454.333C660.744 448.66 658.459 442.791 656.149 437.096C643.002 404.607 627.842 376.243 609.807 350.382C607.562 347.165 605.238 343.942 602.899 340.8C560.159 283.397 501.194 235.018 432.381 200.892C352.07 161.155 266.831 142.88 192.364 149.43C141.455 153.997 89.3975 180.545 65.7671 213.988C49.6684 236.771 46.8136 262.128 57.5052 287.317L57.2372 287.405C51.639 274.216 49.6883 261.017 51.4393 248.175C53.0506 236.35 57.7904 224.804 65.5246 213.855C77.6564 196.683 96.8694 181.335 121.087 169.473C143.486 158.501 168.787 151.294 192.335 149.182C231.374 145.746 273.177 149.054 316.582 159.01C355.846 168.019 394.857 182.035 432.524 200.671C501.379 234.818 560.375 283.224 603.142 340.662C605.483 343.806 607.807 347.032 610.052 350.249C628.098 376.125 643.264 404.504 656.42 437.008C658.73 442.706 661.014 448.572 663.222 454.247C673.466 480.57 684.06 507.788 702.161 531.106C703.182 532.42 704.234 533.726 705.289 534.99C756.232 595.765 842.817 588.174 901.483 563.209C971.476 533.42 1025.04 478.945 1072.29 430.879C1074.41 428.727 1076.52 426.576 1078.63 424.426C1081.49 421.512 1084.35 418.601 1087.21 415.694C1114.41 388.053 1141.28 361.191 1170.81 336.438C1204.77 307.972 1237.48 286.452 1270.81 270.647C1291.54 260.844 1313.3 253.363 1335.49 248.415C1356.23 243.788 1378.04 241.22 1400.3 240.779C1439.57 240.001 1481.42 245.629 1528.24 257.98C1564.81 267.573 1607.94 280.152 1650.5 300.729C1694.36 321.993 1735.37 349.286 1775.03 375.679C1778.93 378.272 1782.82 380.858 1786.7 383.431C1878.25 444.637 1968.5 513.056 2054.93 586.785L2054.73 586.963Z" fill="white" fill-opacity="0.5"/>
<path d="M2051.71 584.6C1964.79 508.999 1875.97 439.717 1787.71 378.683C1782.43 375.032 1777.02 371.267 1771.8 367.629C1734.38 341.567 1695.69 314.618 1653.66 294.482C1611.7 274.447 1568.23 263.924 1531.24 256.275C1432.77 235.718 1352.13 242.966 1277.46 279.084C1206.23 313.66 1150.43 365.652 1096.46 415.932L1090.53 421.452C1085.85 425.813 1081.01 430.32 1076.24 434.741C1022.22 484.733 968.147 531.587 900.641 555.552C884.26 561.368 867.439 565.398 850.642 567.537C832.604 569.832 815.082 569.864 798.561 567.632C780.618 565.207 764 560.114 749.17 552.492C733.032 544.199 718.926 532.856 707.251 518.782C706.199 517.508 705.152 516.196 704.139 514.882C686.238 491.674 675.256 464.84 664.636 438.889C662.266 433.099 659.813 427.11 657.338 421.294C643.58 388.905 628.043 360.77 609.837 335.28C607.561 332.095 605.203 328.897 602.827 325.78C559.485 268.887 500.055 221.145 430.96 187.713C350.082 148.696 264.603 131.281 190.264 138.682C139.82 143.81 87.9994 170.544 64.2492 203.695C47.8824 226.537 44.4631 251.991 54.359 277.308L54.088 277.391C48.9091 264.145 47.3092 250.896 49.3312 238.015C51.1963 226.141 56.1328 214.549 64.0039 203.565C76.2669 186.451 95.4114 171.118 119.373 159.221C141.549 148.209 166.713 140.828 190.23 138.436C229.223 134.554 271.068 137.415 314.611 146.94C353.972 155.552 393.162 169.195 431.094 187.494C500.229 220.944 559.693 268.716 603.061 325.642C605.437 328.762 607.798 331.962 610.074 335.147C628.292 360.649 643.837 388.8 657.6 421.206C660.075 427.022 662.528 433.013 664.898 438.804C675.513 464.74 686.489 491.562 704.37 514.742C705.38 516.051 706.427 517.36 707.476 518.634C757.192 578.564 839.799 576.881 900.529 555.321C967.982 531.376 1022.04 484.54 1076.03 434.571C1080.8 430.149 1085.64 425.643 1090.32 421.282L1096.25 415.762C1122.74 391.082 1150.13 365.56 1179.88 341.818C1213.57 314.929 1245.44 294.337 1277.31 278.863C1297.84 268.937 1319.29 261.087 1341.08 255.535C1361.56 250.314 1383.03 246.948 1404.88 245.531C1443.98 242.996 1485.33 246.432 1531.3 256.029C1568.31 263.683 1611.8 274.209 1653.8 294.261C1695.84 314.404 1734.55 341.361 1771.97 367.43C1777.2 371.069 1782.6 374.831 1787.88 378.485C1876.15 439.524 1964.98 508.811 2051.91 584.42L2051.71 584.6Z" fill="white" fill-opacity="0.5"/>
<path d="M2048.69 582.238C1962.51 505.796 1875.1 435.646 1788.9 373.74C1782.42 369.088 1775.77 364.25 1769.35 359.573C1733.95 333.792 1697.35 307.134 1656.97 288.022C1615.2 268.33 1571.53 259.941 1534.32 254.334C1438.59 239.685 1359.04 250.163 1283.97 287.304C1218.47 319.854 1164.68 365.983 1112.67 410.593C1107.19 415.288 1101.53 420.14 1096.02 424.842C1089.54 430.365 1084.59 434.56 1079.98 438.443C1055.25 459.223 1025.81 483.15 994.909 503.052C962.167 524.141 931.016 538.737 899.674 547.675C883.193 552.374 866.444 555.339 849.889 556.482C832.113 557.711 814.903 556.808 798.738 553.796C781.225 550.534 764.995 544.793 750.493 536.735C734.768 527.998 720.957 516.452 709.441 502.423C708.403 501.151 707.362 499.837 706.352 498.518C688.688 475.466 677.338 449.046 666.358 423.496C663.811 417.57 661.179 411.443 658.524 405.492C644.148 373.193 628.232 345.288 609.863 320.177C607.553 317.02 605.16 313.852 602.75 310.76C558.806 254.376 498.909 207.271 429.534 174.534C348.094 136.234 262.376 119.684 188.168 127.93C145.943 132.725 90.7943 154.814 62.7719 193.35C46.1114 216.262 42.1131 241.832 51.2134 267.294L50.9424 267.369C46.1827 254.055 44.9393 240.749 47.2436 227.818C49.3711 215.883 54.513 204.242 62.5324 193.215C74.9265 176.171 93.9997 160.863 117.696 148.941C139.649 137.897 164.663 130.348 188.134 127.682C227.081 123.353 268.972 125.769 312.646 134.862C352.101 143.078 391.474 156.349 429.669 174.313C499.083 207.068 559.014 254.201 602.984 310.617C605.394 313.71 607.79 316.882 610.1 320.042C628.477 345.165 644.402 373.085 658.786 405.399C661.444 411.353 664.077 417.479 666.623 423.405C677.594 448.943 688.942 475.348 706.586 498.375C707.596 499.692 708.634 501.003 709.672 502.272C751.032 552.665 822.029 569.548 899.585 547.431C969.821 527.404 1027.11 482.516 1079.78 438.257C1084.4 434.375 1089.34 430.179 1095.82 424.657C1101.33 419.955 1107 415.102 1112.47 410.407C1138.07 388.446 1164.55 365.737 1192.79 344.473C1224.73 320.426 1254.51 301.652 1283.84 287.081C1304.16 277.025 1325.3 268.806 1346.68 262.657C1366.92 256.831 1388.05 252.671 1409.47 250.286C1448.47 245.947 1489.33 247.189 1534.37 254.08C1571.6 259.693 1615.3 268.084 1657.1 287.793C1697.51 306.918 1734.12 333.584 1769.53 359.372C1775.95 364.05 1782.6 368.887 1789.08 373.539C1875.29 435.453 1962.7 505.608 2048.89 582.055L2048.69 582.238Z" fill="white" fill-opacity="0.5"/>
<path d="M2045.66 579.876C1960.24 502.589 1874.25 431.569 1790.08 368.795C1782.92 363.456 1775.57 357.851 1768.46 352.431C1734.58 326.615 1699.55 299.922 1660.27 281.557C1618.47 262.101 1574.7 255.894 1537.4 252.388C1446.01 243.568 1365.24 257.677 1290.49 295.52C1230.97 325.79 1179.95 366.284 1130.6 405.447C1120.64 413.357 1110.33 421.537 1100.31 429.334C1094.18 434.107 1088.75 438.297 1083.71 442.144C1060.23 460.015 1029.01 482.93 995.642 501.656C962.115 520.47 930.405 532.946 898.701 539.795C864.123 547.266 829.612 547.321 798.904 539.958C781.83 535.863 765.985 529.478 751.808 520.979C736.502 511.803 722.984 500.056 711.625 486.07C710.596 484.796 709.564 483.479 708.56 482.16C691.146 459.283 679.442 433.297 668.126 408.168C665.388 402.089 662.559 395.804 659.705 389.698C644.698 357.484 628.403 329.805 609.886 305.083C607.541 301.953 605.114 298.813 602.67 295.749C558.124 239.874 497.762 193.403 428.108 161.365C346.106 123.785 260.149 108.099 186.069 117.19C135.865 123.484 85.7378 149.917 61.3374 182.96C44.3574 205.955 39.7688 231.658 48.0677 257.291L47.7939 257.358C43.4563 243.964 42.5722 230.587 45.1645 217.601C47.56 205.599 52.9216 193.897 61.0978 182.823C73.6232 165.859 92.6222 150.587 116.042 138.654C137.764 127.587 162.621 119.873 186.029 116.939C224.931 112.164 266.868 114.135 310.675 122.795C350.227 130.614 389.782 143.514 428.24 161.14C497.933 193.198 558.33 239.693 602.904 295.603C605.348 298.668 607.775 301.81 610.122 304.942C628.648 329.68 644.952 357.372 659.967 389.6C662.822 395.707 665.651 401.994 668.389 408.073C679.699 433.189 691.397 459.163 708.794 482.017C709.797 483.336 710.827 484.648 711.856 485.922C752.507 535.988 822.329 556.036 898.633 539.552C968.195 524.522 1028.6 483.762 1083.52 441.956C1088.56 438.109 1094 433.921 1100.12 429.149C1110.14 421.352 1120.44 413.174 1130.41 405.264C1179.76 366.094 1230.79 325.59 1290.34 295.307C1310.49 285.108 1331.32 276.523 1352.26 269.787C1372.29 263.347 1393.08 258.389 1414.05 255.051C1453.04 248.844 1493.4 247.894 1537.43 252.142C1574.76 255.651 1618.56 261.86 1660.4 281.338C1699.71 299.716 1734.75 326.42 1768.64 352.246C1775.75 357.665 1783.11 363.268 1790.27 368.607C1874.44 431.386 1960.43 502.411 2045.86 579.703L2045.66 579.876Z" fill="white" fill-opacity="0.5"/>
<path d="M2042.64 577.513C1957.97 499.373 1873.4 427.488 1791.27 363.852C1783.73 358.003 1775.96 351.811 1768.45 345.823C1735.81 319.789 1702.06 292.867 1663.57 275.094C1621.6 255.803 1577.8 251.808 1540.48 250.444C1452.54 246.993 1372.9 264.425 1297.01 303.738C1243.78 331.44 1196.34 366.5 1150.45 400.404C1134.67 412.063 1119.77 423.075 1104.61 433.826C1098.45 438.202 1092.83 442.134 1087.44 445.843C1052.66 469.756 1023.73 487.045 996.377 500.251C962.067 516.821 929.801 527.178 897.735 531.913C885.295 533.749 872.901 534.664 860.732 534.664C839.16 534.664 818.288 531.795 799.072 526.112C764.296 515.827 735.612 496.851 713.816 469.708C712.789 468.422 711.765 467.105 710.773 465.791C693.625 443.112 681.593 417.587 669.957 392.9C667.008 386.645 663.962 380.18 660.891 373.893C645.243 341.755 628.565 314.306 609.914 289.978C607.536 286.876 605.075 283.763 602.596 280.726C557.449 225.36 496.619 179.527 426.685 148.184C344.121 111.326 257.927 96.4995 183.976 106.436C133.563 113.35 84.8822 139.281 59.9599 172.5C42.6349 195.59 37.4388 221.446 44.9278 247.274L44.6511 247.337C40.7413 233.85 40.2222 220.392 43.1111 207.339C45.7862 195.256 51.373 183.489 59.7232 172.362C72.3797 155.492 91.2961 140.269 114.43 128.337C135.919 117.252 160.602 109.387 183.933 106.187C222.789 100.966 264.771 102.491 308.71 110.719C348.359 118.145 388.094 130.674 426.817 147.958C496.79 179.321 557.654 225.18 602.83 280.578C605.308 283.618 607.77 286.73 610.151 289.835C628.813 314.176 645.5 341.64 661.153 373.79C664.225 380.077 667.273 386.545 670.219 392.8C681.849 417.474 693.876 442.989 711.01 465.648C712.002 466.959 713.023 468.276 714.05 469.56C754.751 520.249 821.684 542.885 897.686 531.662C970.035 520.979 1034.12 482.185 1087.26 445.643C1092.65 441.934 1098.27 438.004 1104.43 433.628C1119.59 422.876 1134.49 411.867 1150.27 400.208C1196.16 366.297 1243.62 331.232 1296.86 303.52C1316.85 293.163 1337.38 284.21 1357.86 276.907C1377.7 269.835 1398.14 264.079 1418.63 259.803C1457.7 251.65 1497.57 248.505 1540.49 250.191C1577.84 251.555 1621.68 255.555 1663.7 274.868C1702.22 292.654 1735.99 319.588 1768.64 345.632C1776.15 351.621 1783.91 357.813 1791.46 363.658C1873.59 427.3 1958.17 499.193 2042.84 577.338L2042.64 577.513Z" fill="white" fill-opacity="0.5"/>
<path d="M2039.61 575.151C1954.53 495.04 1873.69 424.306 1792.46 358.906C1784.71 352.667 1777.08 346.294 1769 339.548C1737.42 313.176 1704.77 285.908 1666.87 268.631C1624.38 249.348 1578.65 247.743 1543.57 248.501C1459.63 250.076 1381.11 270.833 1303.52 311.959C1256.97 336.755 1213.99 366.53 1172.43 395.328C1150.58 410.463 1129.95 424.755 1108.91 438.32C1102.66 442.35 1096.86 446.022 1091.17 449.545C1055.92 471.353 1026.03 487.018 997.108 498.845C962.002 513.2 929.18 521.438 896.766 524.031C880.111 525.363 863.57 525.112 847.602 523.286C830.697 521.353 814.424 517.643 799.238 512.264C765.577 500.339 737.575 480.52 716.007 453.352C714.988 452.063 713.973 450.744 712.986 449.43C696.126 426.985 683.792 401.946 671.863 377.733C668.68 371.273 665.389 364.592 662.078 358.096C645.774 326.028 628.72 298.808 609.94 274.881C607.525 271.806 605.03 268.722 602.523 265.712C556.773 210.855 495.478 165.659 425.266 135.01C360.46 106.84 293.63 92.1412 232.346 92.1412C215.021 92.1412 198.153 93.3149 181.883 95.6898C132.078 103.103 83.7022 129.127 58.6344 161.99C40.9415 185.188 35.1151 211.219 41.7856 237.268L41.5061 237.323C38.024 223.731 37.8786 210.181 41.0727 197.052C44.0329 184.882 49.8621 173.037 58.3948 161.849C71.1825 145.084 90.0105 129.925 112.848 118.005C134.405 106.752 158.261 98.95 181.832 95.444C220.642 89.7763 262.67 90.8572 306.743 98.6516C346.486 105.679 386.406 117.834 425.391 134.782C495.644 165.448 556.976 210.67 602.754 265.559C605.263 268.569 607.762 271.656 610.177 274.733C628.965 298.673 646.028 325.906 662.34 357.989C665.651 364.484 668.945 371.165 672.128 377.628C684.052 401.831 696.38 426.859 713.226 449.287C714.213 450.599 715.228 451.918 716.243 453.204C756.577 504.006 822.364 529.726 896.743 523.778C972.006 517.756 1040.1 480.831 1091.01 449.335C1096.7 445.811 1102.5 442.14 1108.74 438.112C1129.78 424.552 1150.41 410.257 1172.25 395.125C1213.83 366.325 1256.81 336.541 1303.38 311.739C1343.33 290.565 1382.52 275.134 1423.22 264.561C1462.47 254.364 1501.83 249.027 1543.57 248.245C1567.37 247.731 1586.8 248.624 1604.7 251.051C1627.8 254.186 1648.19 259.861 1667.01 268.403C1704.94 285.695 1737.61 312.978 1769.2 339.363C1777.28 346.109 1784.91 352.479 1792.66 358.718C1873.88 424.121 1954.73 494.86 2039.83 574.975L2039.61 575.151Z" fill="white" fill-opacity="0.5"/>
<path d="M2036.59 572.788C1952.28 491.8 1872.81 420.223 1793.65 353.96C1785.82 347.405 1778.09 340.651 1769.92 333.501C1739.28 306.712 1707.61 279.008 1670.18 262.165C1627.33 242.973 1581.65 243.74 1546.65 246.552C1467.44 252.693 1390.04 276.776 1310.04 320.172C1270.62 341.657 1233.09 366.244 1196.79 390.023C1168.1 408.82 1141 426.575 1113.2 442.804C1106.92 446.475 1100.76 449.986 1094.9 453.236C1059.58 472.808 1027.83 487.26 997.838 497.422C961.924 509.59 928.546 515.714 895.796 516.141C879.132 516.356 862.657 515.032 846.838 512.201C830.254 509.232 814.295 504.59 799.403 498.4C766.898 484.89 739.574 464.228 718.194 436.985C717.19 435.699 716.18 434.377 715.196 433.056C698.653 410.884 686.05 386.374 673.862 362.673C670.414 355.967 666.846 349.03 663.261 342.286C646.29 310.279 628.857 283.289 609.966 259.77C607.516 256.723 604.987 253.666 602.446 250.685C556.094 196.337 494.332 151.777 423.84 121.824C340.155 86.4127 253.479 73.3116 179.784 84.933C130.624 92.8202 82.5698 118.912 57.3623 151.401C39.2702 174.722 32.7965 200.949 38.6371 227.251L38.3576 227.299C35.3118 213.588 35.5457 199.933 39.0563 186.714C42.316 174.443 48.3933 162.513 57.1256 151.258C70.0388 134.614 88.7726 119.529 111.302 107.634C132.611 96.3839 156.273 88.449 179.732 84.6847C218.501 78.5731 260.571 79.2051 304.775 86.5681C344.615 93.2039 384.715 104.988 423.962 121.595C494.497 151.564 556.294 196.151 602.671 250.532C605.215 253.513 607.747 256.573 610.197 259.622C629.099 283.154 646.538 310.156 663.518 342.176C667.106 348.92 670.67 355.856 674.121 362.565C686.304 386.257 698.901 410.756 715.433 432.913C716.417 434.232 717.426 435.553 718.428 436.837C759.186 488.77 822.175 516.848 895.79 515.885C955.522 515.107 1018.74 495.13 1094.75 453.018C1100.6 449.768 1106.76 446.259 1113.04 442.588C1140.84 426.362 1167.93 408.612 1196.62 389.815C1232.92 366.033 1270.46 341.441 1309.89 319.951C1350.22 298.07 1388.79 281.509 1427.8 269.313C1467.31 256.959 1506.18 249.428 1546.62 246.293C1581.66 243.477 1627.39 242.712 1670.31 261.935C1707.78 278.798 1739.47 306.514 1770.12 333.316C1778.29 340.466 1786.02 347.217 1793.84 353.77C1873.02 420.035 1952.49 491.616 2036.8 572.61L2036.59 572.788Z" fill="white" fill-opacity="0.5"/>
<path d="M2033.57 570.426C1950.05 488.557 1871.96 416.133 1794.84 349.017C1787.01 342.204 1779.28 335.124 1771.1 327.628C1741.33 300.36 1710.55 272.164 1673.48 255.703C1630.23 236.58 1584.63 239.728 1549.73 244.606C1475.21 254.825 1401.12 281.448 1316.56 328.39C1284.85 346.076 1253.85 365.476 1223.88 384.238C1187.48 407.024 1153.1 428.549 1117.5 447.295C1111.09 450.676 1104.74 453.921 1098.63 456.935C1062.68 474.676 1029.95 487.456 998.571 496.003C980.995 500.79 963.644 504.258 947 506.312C929.248 508.502 911.695 509.156 894.829 508.259C860.609 506.435 828.56 498.455 799.574 484.542C768.269 469.515 741.627 448.012 720.389 420.627C719.391 419.33 718.39 418.006 717.412 416.692C701.222 394.846 688.394 370.918 675.992 347.781C672.236 340.777 668.354 333.534 664.45 326.487C646.794 294.532 628.982 267.771 609.994 244.671C607.51 241.649 604.943 238.619 602.371 235.668C555.418 181.826 493.191 137.904 422.419 108.65C338.175 73.9637 251.262 61.7254 177.69 74.1869C98.9135 87.7369 22.1501 146.283 35.4968 217.242L35.2145 217.282C31.875 199.532 33.8313 182.045 41.0266 165.302C47.5972 150.012 58.3801 135.622 73.0757 122.536C86.7389 110.368 103.131 99.8623 121.794 91.3106C139.544 83.1776 158.854 77.1688 177.633 73.9387C216.356 67.3806 258.472 67.5687 302.81 74.5004C342.747 80.7425 383.029 92.1557 422.539 108.424C493.35 137.698 555.615 181.646 602.596 235.517C605.172 238.471 607.738 241.501 610.225 244.525C629.221 267.635 647.043 294.411 664.707 326.379C668.611 333.426 672.493 340.669 676.248 347.676C688.648 370.806 701.47 394.723 717.652 416.556C718.627 417.871 719.625 419.195 720.623 420.489C761.442 473.118 823.316 504.198 894.846 508.01C955.402 511.233 1022.02 494.458 1098.49 456.72C1104.6 453.705 1110.94 450.463 1117.36 447.082C1152.95 428.341 1187.32 406.818 1223.72 384.035C1253.69 365.271 1284.69 345.868 1316.4 328.18C1401 281.218 1475.12 254.584 1549.69 244.357C1573.14 241.079 1592.55 240.031 1610.79 241.062C1634.1 242.379 1654.65 247.093 1673.61 255.477C1710.72 271.956 1741.52 300.17 1771.3 327.452C1779.48 334.946 1787.21 342.026 1795.04 348.837C1872.16 415.957 1950.25 488.384 2033.77 570.258L2033.57 570.426Z" fill="white" fill-opacity="0.5"/>
<path d="M2030.54 568.064C1947.82 485.302 1871.1 412.035 1796.03 344.072C1788.26 337.04 1780.58 329.675 1772.46 321.873C1743.5 294.083 1713.55 265.346 1676.79 249.238C1632.59 229.955 1584.87 236.247 1552.82 242.657C1465.82 259.841 1387.86 299.791 1323.08 336.609C1299.79 349.895 1276.57 363.97 1254.1 377.58C1209.04 404.883 1166.48 430.671 1121.8 451.787C1115.23 454.894 1108.7 457.871 1102.37 460.637C1065.72 476.635 1032 487.74 999.31 494.581C962.247 502.338 926.773 504.289 893.866 500.377C860.06 496.357 828.393 486.365 799.749 470.679C769.704 454.227 743.744 431.885 722.583 404.271C721.596 402.974 720.601 401.648 719.629 400.328C703.841 378.884 690.853 355.613 678.291 333.108C674.176 325.732 669.918 318.108 665.64 310.688C647.032 278.331 629.359 252.558 610.026 229.571C607.508 226.577 604.91 223.577 602.301 220.651C554.74 167.321 492.045 124.036 420.994 95.4738C336.191 61.515 249.039 50.1369 175.592 63.4385C96.5328 77.9465 21.338 135.697 32.3519 207.234L32.0695 207.266C29.3375 189.518 31.7016 172.049 39.0937 155.344C45.8697 140.038 56.7152 125.633 71.3338 112.532C84.9657 100.314 101.273 89.7309 119.804 81.0713C137.448 72.8254 156.721 66.6436 175.535 63.1903C214.215 56.1858 256.374 55.93 300.842 62.4279C340.877 68.2762 381.342 79.3183 421.114 95.2456C492.208 123.823 554.937 167.133 602.52 220.495C605.13 223.424 607.73 226.426 610.251 229.421C629.596 252.418 647.274 278.206 665.891 310.575C670.169 317.996 674.427 325.622 678.542 332.998C691.102 355.496 704.086 378.758 719.862 400.193C720.835 401.512 721.827 402.836 722.814 404.133C763.949 457.811 824.708 491.903 893.9 500.128C955.956 507.506 1024.1 494.513 1102.24 460.412C1108.56 457.648 1115.1 454.674 1121.67 451.566C1166.33 430.455 1208.89 404.672 1253.94 377.371C1276.4 363.761 1299.63 349.685 1322.92 336.396C1366.49 311.641 1402.73 293.351 1436.97 278.838C1477.27 261.754 1515.15 249.84 1552.75 242.411C1575.68 237.827 1595.66 235.751 1613.84 236.067C1637.24 236.473 1657.88 240.706 1676.91 249.012C1713.72 265.14 1743.69 293.895 1772.66 321.702C1780.79 329.502 1788.47 336.867 1796.23 343.894C1871.31 411.859 1948.02 485.131 2030.76 567.896L2030.54 568.064Z" fill="white" fill-opacity="0.5"/>
<path d="M2027.52 565.698C1945.59 482.041 1870.26 407.929 1797.22 339.124C1789.56 331.909 1781.98 324.287 1773.95 316.217C1745.76 287.868 1716.6 258.554 1680.09 242.772C1635.41 223.534 1587.82 232.38 1555.9 240.708C1477.08 261.1 1406.78 299.926 1329.6 344.824C1315.68 352.952 1301.6 361.341 1287.98 369.456C1235.61 400.664 1181.46 432.933 1126.1 456.276C1119.38 459.115 1112.65 461.826 1106.1 464.333C1069.2 478.458 1033.51 488.153 1000.04 493.151C962.125 498.814 926.077 498.591 892.893 492.491C859.56 486.365 828.278 474.36 799.914 456.81C771.21 439.049 745.926 415.869 724.765 387.914C723.787 386.615 722.8 385.286 721.833 383.967C706.522 363.024 693.451 340.511 680.812 318.74C676.258 310.895 671.549 302.785 666.818 294.893C647.482 262.569 629.442 237.017 610.043 214.476C607.497 211.517 604.861 208.542 602.215 205.638C554.061 152.81 490.904 110.162 419.568 82.2972C334.209 49.0656 246.82 38.5502 173.493 52.6895C96.9435 67.6112 20.3598 123.336 29.2034 197.222L28.9211 197.247C26.7965 179.499 29.5685 162.049 37.1573 145.382C44.1357 130.059 55.0469 115.642 69.5857 102.526C96.4102 78.3297 134.26 60.0751 173.43 52.4412C212.064 44.9929 254.269 44.2907 298.872 50.3547C339.003 55.8117 379.648 66.4802 419.682 82.0665C491.058 109.946 554.252 152.622 602.437 205.475C605.087 208.382 607.722 211.356 610.271 214.318C629.678 236.871 647.728 262.434 667.069 294.77C671.8 302.665 676.511 310.775 681.066 318.62C693.702 340.385 706.77 362.893 722.073 383.826C723.037 385.145 724.023 386.472 725.001 387.771C767.337 443.701 825.412 479.827 892.947 492.243C955.483 503.739 1027.16 494.272 1105.98 464.103C1112.52 461.595 1119.25 458.886 1125.97 456.05C1181.31 432.714 1235.45 400.451 1287.81 369.248C1301.43 361.133 1315.51 352.744 1329.43 344.616C1363.22 324.962 1402.53 302.419 1441.55 283.597C1482.36 263.911 1519.74 249.804 1555.81 240.47C1578.53 234.544 1598.5 231.469 1616.88 231.073C1640.06 230.571 1661.36 234.434 1680.21 242.549C1696.57 249.619 1713.03 260.169 1730.53 274.805C1745.99 287.728 1760.31 302.128 1774.16 316.052C1782.18 324.119 1789.76 331.741 1797.42 338.953C1870.47 407.761 1945.8 481.876 2027.73 565.535L2027.52 565.698Z" fill="white" fill-opacity="0.5"/>
<path d="M2024.49 563.336C1943.37 478.776 1869.42 403.819 1798.41 334.181C1790.88 326.808 1783.44 318.956 1775.55 310.645C1748.09 281.707 1719.7 251.783 1683.4 236.312C1649.47 221.899 1608.78 222.702 1558.98 238.765C1489.36 261.097 1427.13 298.452 1361.24 338.003C1353.04 342.928 1344.56 348.019 1336.11 353.048C1332.81 355.021 1329.5 357 1326.2 358.976C1263.41 396.516 1198.5 435.335 1130.4 460.77C1123.51 463.343 1116.6 465.788 1109.83 468.035C1072.12 480.557 1035.43 488.527 1000.79 491.722C961.994 495.298 925.367 492.905 891.932 484.609C859.119 476.467 828.222 462.448 800.099 442.942C772.841 424.035 748.236 400.02 726.964 371.558C725.994 370.256 725.016 368.925 724.055 367.603C709.325 347.317 696.298 325.712 683.695 304.819C678.593 296.358 673.315 287.608 668.013 279.091C647.93 246.79 629.524 221.458 610.08 199.374C607.497 196.44 604.83 193.496 602.149 190.619C553.386 138.303 489.761 96.2887 418.145 69.1211C332.233 36.6194 244.601 26.9641 171.397 41.941C96.2535 57.4421 19.7782 113.623 26.0608 187.213L25.7757 187.233C24.2613 169.483 27.4383 152.053 35.2238 135.429C42.4077 120.088 53.3816 105.653 67.8433 92.5269C94.5538 68.281 132.272 49.7555 171.331 41.6978C209.923 33.8031 252.17 32.6545 296.904 38.2871C337.132 43.3479 377.962 53.6452 418.259 68.8904C489.915 96.0755 553.58 138.112 602.363 190.456C605.044 193.333 607.716 196.282 610.3 199.216C629.753 221.313 648.17 246.652 668.258 278.966C673.563 287.482 678.839 296.235 683.944 304.696C696.54 325.584 709.567 347.184 724.292 367.463C725.253 368.784 726.228 370.114 727.198 371.415C770.452 429.286 827.44 468.341 892.006 484.361C955.742 500.176 1028.99 494.601 1109.73 467.794C1116.49 465.547 1123.4 463.105 1130.28 460.534C1198.36 435.11 1263.27 396.298 1326.03 358.763C1329.34 356.784 1332.65 354.808 1335.95 352.834C1344.39 347.806 1352.87 342.715 1361.08 337.792C1426.98 298.233 1489.23 260.869 1558.88 238.527C1581.38 231.269 1601.35 227.199 1619.94 226.078C1643.2 224.676 1664.59 228.044 1683.52 236.084C1699.78 243.013 1716.03 253.611 1733.21 268.485C1748.37 281.609 1762.3 296.287 1775.77 310.482C1783.66 318.79 1791.1 326.64 1798.62 334.01C1869.63 403.651 1943.59 478.611 2024.71 563.173L2024.49 563.336Z" fill="white" fill-opacity="0.5"/>
<path d="M2021.47 560.974C1947.43 482.177 1872.78 404.208 1799.59 329.236C1792.14 321.647 1784.76 313.494 1776.94 304.864C1751.52 276.791 1722.7 244.974 1686.7 229.849C1652.38 215.462 1611.61 217.742 1562.06 236.816C1503.15 259.422 1451.02 292.661 1395.82 327.851C1378.53 338.871 1360.66 350.269 1342.63 361.263C1311.16 380.496 1277.12 400.847 1241.43 419.383C1203.21 439.235 1168.3 454.24 1134.69 465.259C1127.63 467.574 1120.52 469.753 1113.56 471.732C1075.05 482.674 1037.36 488.901 1001.54 490.24C961.894 491.719 924.689 487.175 890.957 476.722C828.667 457.181 774.225 416.296 729.146 355.199C728.185 353.895 727.215 352.561 726.26 351.24C712.277 331.849 699.478 311.392 687.101 291.608C681.275 282.296 675.252 272.666 669.191 263.294C648.344 231.001 629.568 205.892 610.101 184.277C607.48 181.368 604.779 178.451 602.067 175.605C552.71 123.792 488.618 82.4178 416.723 55.9449C330.254 24.1704 242.386 15.3804 169.301 31.1924C93.7016 47.6414 19.1428 103.078 22.9158 177.205L22.6306 177.215C21.7266 159.459 25.3142 142.05 33.2908 125.468C40.6828 110.107 51.7195 95.6568 66.0985 82.5207C79.6448 70.1444 95.7008 59.323 113.819 50.3549C131.409 41.6502 150.051 35.1197 169.23 30.9467C207.779 22.6081 250.072 21.0131 294.937 26.2118C335.262 30.884 376.272 40.8075 416.831 55.7117C488.769 82.1996 552.898 123.599 602.284 175.437C604.996 178.285 607.703 181.205 610.323 184.114C629.799 205.741 648.584 230.86 669.439 263.164C675.5 272.538 681.523 282.168 687.349 291.482C699.726 311.264 712.522 331.718 726.499 351.102C727.452 352.426 728.424 353.757 729.383 355.062C774.428 416.11 828.821 456.963 891.051 476.484C955.152 496.346 1032.06 494.621 1113.47 471.491C1120.43 469.512 1127.53 467.336 1134.59 465.023C1209.73 440.389 1278.48 400.155 1342.46 361.055C1360.49 350.061 1378.36 338.665 1395.65 327.646C1450.86 292.448 1503 259.201 1561.95 236.586C1611.57 217.481 1652.42 215.201 1686.82 229.621C1702.94 236.395 1718.95 247.013 1735.76 262.078C1750.59 275.362 1764.1 290.281 1777.17 304.706C1784.98 313.336 1792.36 321.486 1799.81 329.07C1873 404.045 1947.65 482.014 2021.69 560.813L2021.47 560.974Z" fill="white" fill-opacity="0.5"/>
<path d="M2018.45 558.611C1945.54 479.378 1872.31 400.541 1800.78 324.29C1793.57 316.618 1786.4 308.322 1778.82 299.54C1754.02 270.813 1725.91 238.251 1690 223.381C1655.27 209.019 1614.43 212.776 1565.14 234.862C1513.51 257.97 1466.06 290.597 1420.18 322.153C1397.18 337.975 1373.39 354.337 1349.14 369.476C1310.88 393.396 1278.69 411.643 1247.83 426.904C1209.78 445.72 1174.17 459.734 1138.99 469.745C1131.76 471.802 1124.46 473.713 1117.29 475.426C1079.92 484.346 1043.22 488.86 1008.11 488.863C1006.16 488.863 1004.22 488.848 1002.28 488.82C961.697 488.238 923.916 481.512 889.99 468.833C873.615 462.678 857.579 454.866 842.33 445.612C827.997 436.915 813.911 426.671 800.465 415.164C776.273 394.465 753.657 369.496 731.333 338.838C730.375 337.519 729.419 336.197 728.47 334.871C715.517 316.781 703.262 297.872 691.413 279.585C684.571 269.029 677.499 258.113 670.375 247.487C648.441 214.749 629.861 190.594 610.124 169.169C607.468 166.288 604.734 163.399 601.987 160.58C552.031 109.282 487.474 68.5442 415.299 42.766C328.278 11.7213 240.17 3.79398 167.205 20.4411C93.0227 37.4142 18.5608 93.2716 19.7728 167.191L19.4877 167.193C18.923 132.763 34.4399 100.023 64.3587 72.5141C77.8822 60.0802 93.8526 49.1811 111.831 40.1127C129.324 31.2901 147.929 24.5891 167.134 20.1953C205.637 11.4103 247.975 9.37143 292.972 14.1364C333.394 18.4173 374.586 27.9697 415.405 42.5303C487.625 68.326 552.22 109.089 602.207 160.417C604.953 163.238 607.694 166.13 610.349 169.011C630.095 190.448 648.683 214.612 670.623 247.362C677.747 257.99 684.822 268.907 691.661 279.462C703.51 297.747 715.762 316.654 728.712 334.738C729.662 336.064 730.614 337.386 731.573 338.703C779.01 403.852 830.865 446.342 890.101 468.602C972.146 499.268 1058.89 489.108 1117.21 475.185C1124.38 473.472 1131.68 471.564 1138.9 469.507C1219.83 446.48 1293.68 403.844 1348.98 369.273C1373.22 354.138 1397 337.777 1420.01 321.958C1465.9 290.396 1513.35 257.759 1565.02 234.642C1587.07 224.758 1607.03 218.689 1626.03 216.091C1649.47 212.886 1671.03 215.264 1690.12 223.158C1706.2 229.817 1722.06 240.52 1738.6 255.878C1753.17 269.411 1766.32 284.651 1779.05 299.392C1786.63 308.172 1793.79 316.465 1801 324.132C1872.52 400.383 1945.76 479.22 2018.67 558.453L2018.45 558.611Z" fill="white" fill-opacity="0.5"/>
<path d="M2015.43 556.249L1801.97 319.347C1795 311.61 1788.08 303.192 1780.75 294.281C1756.56 264.874 1729.15 231.545 1693.31 216.922C1658.65 202.782 1616.56 208.164 1568.23 232.919C1521.76 256.716 1479.38 288.363 1438.39 318.968C1411.67 338.918 1384.05 359.546 1355.66 377.7C1270.35 432.266 1195.79 464.494 1121.03 479.127C1090.01 485.196 1059.41 488.251 1029.74 488.251C1020.74 488.251 1011.84 487.97 1003.03 487.408C961.484 484.76 923.127 475.857 889.027 460.951C857.423 447.132 828.511 427.626 800.648 401.314C778.398 380.303 757.069 355.255 733.527 322.485C721.101 305.19 709.069 287.222 697.434 269.845C671.1 230.522 643.87 189.859 610.158 154.072C558.449 99.1829 490.575 56.1381 413.874 29.59C326.302 -0.722448 237.955 -7.78957 165.11 9.69266C94.5833 26.6182 18.0367 79.9903 16.6278 157.182L16.3427 157.177C16.9729 122.674 32.9747 89.9389 62.6168 62.5105C89.4186 37.7104 125.791 18.8664 165.035 9.4494C203.496 0.220506 245.88 -2.26478 291.005 2.06628C331.524 5.95345 372.899 15.1372 413.979 29.3567C451.932 42.4929 487.977 59.7845 521.115 80.7527C554.53 101.896 584.563 126.508 610.375 153.907C644.101 189.706 671.339 230.379 697.679 269.712C709.315 287.086 721.347 305.052 733.769 322.344C768.117 370.159 816.821 429.096 889.155 460.72C972.11 496.986 1061 490.611 1120.96 478.877C1195.69 464.253 1270.22 432.038 1355.5 377.492C1383.87 359.345 1411.49 338.718 1438.21 318.773C1479.2 288.162 1521.59 256.508 1568.08 232.698C1616.5 207.901 1658.68 202.514 1693.43 216.691C1709.47 223.239 1725.18 234.035 1741.46 249.702C1755.78 263.492 1768.59 279.069 1780.98 294.131C1788.31 303.041 1795.23 311.455 1802.2 319.189L2015.65 556.091L2015.43 556.249Z" fill="white" fill-opacity="0.5"/>
<path d="M2013.7 538.037C1959.35 472.076 1912.71 418.551 1866.94 369.595C1844.72 345.813 1822.03 322.405 1799.5 300.019C1792.68 293.248 1785.93 286.046 1778.78 278.419C1760.81 259.252 1742.23 239.432 1720.85 224.724C1709.37 216.811 1698.32 211.146 1687.07 207.405C1652.52 195.806 1611.99 203.475 1566.61 230.201C1543.11 244.012 1521.73 259.728 1503.9 273.281C1485.03 287.628 1466.42 303.45 1448.41 318.751C1422.54 340.744 1395.78 363.486 1367.02 383.017C1349.52 394.937 1331.78 405.588 1314.28 414.676C1279.29 432.858 1241.73 447.84 1202.65 459.205C1178.51 466.15 1154.24 471.399 1130.54 474.804C1110.11 477.728 1089.65 479.416 1069.71 479.82C1039.87 480.427 1010.8 478.112 983.301 472.933C954.064 467.426 926.396 458.636 901.065 446.804C878.479 436.254 857.144 422.969 835.844 406.189C796.151 374.947 764.493 338.821 741.347 310.838C729.977 297.028 718.875 282.944 708.138 269.323C677.221 230.098 648.018 193.05 611.474 160.049C581.669 133.31 547.664 110.235 510.393 91.4615C481.752 77.0338 450.601 65.2344 417.807 56.3892C409.996 54.2851 402.037 52.324 394.157 50.566C360.231 43.0098 322.039 38.0894 280.645 35.9402C238.911 33.7232 202.803 35.6417 170.267 41.8111C151.872 45.2719 134.051 50.7014 117.291 57.9466C58.1203 83.5267 20.1251 126.469 15.6534 172.819L15.2969 172.791C16.4889 160.435 19.9882 148.264 25.6948 136.613C31.1161 125.546 38.5623 114.872 47.8251 104.889C65.327 86.0295 89.2939 69.6984 117.134 57.6632C133.92 50.4055 151.769 44.9684 170.192 41.5026C202.763 35.3283 238.899 33.4072 280.668 35.6267C322.085 37.7759 360.297 42.7013 394.245 50.2625C402.134 52.023 410.096 53.9842 417.913 56.0908C450.732 64.941 481.909 76.7505 510.573 91.1907C547.869 109.977 581.903 133.072 611.722 159.828C648.289 192.849 677.497 229.907 708.426 269.143C719.16 282.763 730.262 296.845 741.63 310.653C764.764 338.623 796.408 374.731 836.077 405.954C857.355 422.716 878.667 435.988 901.228 446.526C950.802 469.681 1007.48 480.778 1069.7 479.506C1089.62 479.103 1110.07 477.415 1130.48 474.493C1154.16 471.088 1178.41 465.844 1202.54 458.904C1241.6 447.546 1279.13 432.575 1314.1 414.403C1331.58 405.322 1349.31 394.676 1366.8 382.766C1395.55 363.245 1422.3 340.509 1448.16 318.522C1466.17 303.219 1484.79 287.392 1503.66 273.04C1521.5 259.48 1542.9 243.758 1566.41 229.938C1586.61 218.038 1606.18 209.817 1624.57 205.501C1647.15 200.199 1668.22 200.741 1687.19 207.111C1698.48 210.865 1709.56 216.546 1721.07 224.475C1742.48 239.207 1761.07 259.039 1779.05 278.219C1786.2 285.843 1792.95 293.045 1799.76 299.811C1822.31 322.199 1845 345.61 1867.22 369.397C1913 418.358 1959.64 471.888 2014 537.854L2013.7 538.037Z" fill="white" fill-opacity="0.5"/>
<path d="M2011.99 519.82C1961.59 452.742 1914.29 396.612 1867.39 348.223C1844.51 324.586 1820.84 301.865 1797.02 280.691C1790.7 275.074 1784.47 269.235 1777.86 263.056C1758.08 244.551 1737.63 225.416 1714.72 212.177C1703.15 205.463 1692.07 200.789 1680.83 197.884C1637.8 186.76 1594.08 207.836 1564.99 227.475C1544.37 241.348 1525.54 257.035 1506.47 273.228C1489.78 287.402 1474.07 302.65 1457.45 318.791C1432.77 342.751 1407.25 367.526 1378.37 388.328C1361.24 400.74 1343.35 411.471 1325.22 420.223C1291.44 436.529 1254.45 449.191 1212.13 458.937C1188.45 464.389 1164.2 468.274 1140.05 470.478C1119.67 472.316 1099.33 472.973 1079.59 472.424C1050.22 471.617 1021.52 467.985 994.264 461.633C965.643 454.959 938.334 445.209 913.098 432.652C890.987 421.653 869.638 408.005 847.83 390.931C808.224 359.967 774.295 325.639 749.165 299.192C739.862 289.401 730.707 279.55 721.852 270.02C686.589 232.072 653.282 196.224 612.792 166.025C582.531 143.454 548.557 124.369 511.819 109.302C484.022 97.9014 454.56 89.3597 421.752 83.1878C414.18 81.7659 406.477 80.4844 398.86 79.3784C365.402 74.5458 329.694 72.7176 286.491 70.8266C255.349 69.3946 214.582 68.4517 175.417 73.9238C156.869 76.4668 138.939 80.8831 122.122 87.0449C62.9116 108.745 22.7461 146.654 14.6754 188.455L14.2533 188.392C16.3922 177.308 20.727 166.436 27.1294 156.076C33.2324 146.205 41.2518 136.741 50.9623 127.938C69.4167 111.216 93.9654 96.9534 121.956 86.6963C138.805 80.522 156.769 76.0981 175.349 73.5502C214.55 68.0705 255.349 69.016 286.511 70.4479C329.728 72.3389 365.448 74.1671 398.928 79.0022C406.551 80.1107 414.26 81.3922 421.84 82.8142C454.679 88.9935 484.17 97.5428 511.999 108.956C548.773 124.038 582.776 143.138 613.068 165.731C653.588 195.953 686.909 231.811 722.183 269.775C731.035 279.302 740.19 289.153 749.493 298.941C774.617 325.379 808.532 359.694 848.115 390.643C869.898 407.699 891.224 421.332 913.309 432.318C962.931 457.008 1018.88 470.373 1079.61 472.043C1099.33 472.59 1119.65 471.935 1140.01 470.097C1164.13 467.895 1188.36 464.015 1212.02 458.566C1254.3 448.83 1291.26 436.178 1325.02 419.887C1343.13 411.145 1360.99 400.429 1378.11 388.03C1406.96 367.245 1432.47 342.48 1457.13 318.532C1473.77 302.384 1489.47 287.134 1506.18 272.952C1525.26 256.749 1544.09 241.057 1564.73 227.169C1583.59 214.436 1602.2 205.278 1620.03 199.941C1641.65 193.471 1662.15 192.656 1680.96 197.516C1692.24 200.432 1703.36 205.122 1714.96 211.856C1737.91 225.12 1758.38 244.272 1778.18 262.793C1784.78 268.97 1791.02 274.805 1797.33 280.42C1821.16 301.602 1844.84 324.33 1867.72 347.974C1914.63 396.376 1961.94 452.517 2012.34 519.609L2011.99 519.82Z" fill="white" fill-opacity="0.5"/>
<path d="M2010.26 501.603C1963.1 432.499 1916.51 375.337 1867.83 326.853C1844.3 303.362 1819.64 281.33 1794.55 261.365C1789.19 257.097 1783.67 252.568 1778.33 248.189C1756.28 230.098 1733.49 211.391 1708.59 199.632C1696.91 194.075 1685.79 190.388 1674.6 188.364C1631.66 180.592 1590.41 203.86 1563.37 224.746C1545.04 238.845 1528.29 254.825 1512.08 270.281L1509.05 273.175C1494.33 287.196 1480.53 302.574 1465.92 318.858C1442.65 344.787 1418.59 371.596 1389.73 393.64C1372.94 406.56 1354.91 417.371 1336.15 425.773C1303.44 440.421 1267.04 450.874 1221.6 458.668C1198.11 462.698 1173.87 465.216 1149.55 466.149C1129.23 466.899 1109.01 466.523 1089.47 465.026C1030.29 460.514 974.998 444.86 925.125 418.5C903.565 407.104 882.201 393.098 859.817 375.673C821.936 346.249 788.244 316.004 756.985 287.547C752.793 283.733 748.646 279.944 744.531 276.184C701.836 237.19 661.511 200.357 614.119 172.008C583.179 153.5 549.239 138.408 513.246 127.148C486.82 118.882 458.182 113.269 425.7 109.989C418.379 109.254 410.933 108.65 403.566 108.193C385.035 107.065 365.38 106.882 344.57 106.689C327.855 106.533 310.573 106.373 292.335 105.718C257.112 104.346 217.192 102.794 180.563 106.044C161.664 107.722 143.626 111.122 126.948 116.153C67.7606 134.009 25.4219 166.89 13.6923 204.109L13.2103 203.991C16.3017 194.178 21.4693 184.605 28.5675 175.539C35.355 166.87 43.9447 158.609 54.0973 150.987C73.5156 136.412 98.6518 124.223 126.783 115.737C143.497 110.694 161.572 107.285 180.509 105.605C217.175 102.353 257.115 103.907 292.353 105.279C310.579 105.931 327.861 106.094 344.57 106.25C365.389 106.443 385.049 106.626 403.598 107.757C410.97 108.216 418.424 108.82 425.751 109.555C458.273 112.838 486.946 118.458 513.408 126.736C549.444 138.009 583.421 153.119 614.395 171.647C661.83 200.021 702.175 236.871 744.887 275.883C749.003 279.643 753.152 283.43 757.342 287.246C788.595 315.698 822.275 345.935 860.145 375.35C882.506 392.754 903.847 406.748 925.381 418.129C975.189 444.456 1030.41 460.088 1089.51 464.594C1109.03 466.089 1129.23 466.465 1149.53 465.715C1173.82 464.782 1198.04 462.267 1221.51 458.242C1266.9 450.455 1303.26 440.015 1335.92 425.387C1354.64 417.003 1372.63 406.212 1389.4 393.314C1418.23 371.297 1442.27 344.503 1465.52 318.59C1480.14 302.299 1493.95 286.913 1508.68 272.881L1511.71 269.987C1527.92 254.524 1544.69 238.534 1563.04 224.42C1590.16 203.467 1631.56 180.131 1674.7 187.938C1685.94 189.972 1697.1 193.671 1708.83 199.251C1733.77 211.035 1756.6 229.761 1778.67 247.873C1784 252.252 1789.52 256.781 1794.88 261.047C1819.98 281.022 1844.65 303.066 1868.2 326.57C1916.9 375.074 1963.5 432.256 2010.68 501.382L2010.26 501.603Z" fill="white" fill-opacity="0.5"/>
<path d="M2008.54 483.383C1965.24 413.236 1918.05 353.381 1868.28 305.486C1844.09 282.143 1818.45 260.799 1792.09 242.045C1788.28 239.336 1784.38 236.525 1780.61 233.807C1755.69 215.848 1729.93 197.275 1702.48 187.093C1690.7 182.677 1679.55 179.981 1668.39 178.847C1625.56 174.503 1586.77 199.926 1561.76 222.017C1546.23 235.665 1532.21 250.842 1518.66 265.521C1516.31 268.061 1513.97 270.597 1511.62 273.122C1498.73 286.996 1486.67 302.494 1473.91 318.901C1452.22 346.793 1429.78 375.633 1401.09 398.956C1384.24 412.652 1366.58 423.24 1347.08 431.33C1306.31 448.251 1265.56 454.513 1231.07 458.41C1207.75 461.043 1183.52 462.197 1159.05 461.831C1138.79 461.492 1118.7 460.08 1099.34 457.637C1041.94 450.412 987.374 432.486 937.156 404.356C916.26 392.654 894.886 378.284 871.806 360.426C848.492 342.429 826.766 325.112 805.754 308.365C791.475 296.982 777.986 286.231 764.813 275.916C715.019 236.924 669.41 202.642 615.456 177.999C583.851 163.567 549.946 152.462 514.68 144.996C489.404 139.644 462.385 137.039 429.654 136.79C422.593 136.745 415.401 136.818 408.28 137.009C397.463 137.317 386.272 137.962 374.428 138.646C351.699 139.958 325.933 141.445 298.178 140.612C287.609 140.294 276.826 139.845 266.397 139.409C239.573 138.288 211.836 137.129 185.704 138.165C166.514 138.927 148.365 141.315 131.767 145.262C72.6794 159.318 28.1705 187.173 12.7021 219.773L12.1745 219.58C16.2241 211.043 22.2244 202.772 30.0071 194.995C37.4819 187.527 46.642 180.472 57.2281 174.029C77.6274 161.616 103.348 151.501 131.613 144.778C148.251 140.82 166.44 138.425 185.673 137.663C211.833 136.625 239.581 137.786 266.42 138.907C276.846 139.343 287.629 139.792 298.195 140.111C325.924 140.943 351.671 139.459 374.388 138.147C386.238 137.462 397.431 136.818 408.26 136.509C415.389 136.319 422.588 136.246 429.657 136.291C462.434 136.537 489.492 139.15 514.811 144.51C550.12 151.985 584.071 163.103 615.715 177.555C640.087 188.685 664.784 202.787 691.218 220.663C714.883 236.666 737.903 254.175 765.189 275.542C778.362 285.86 791.851 296.611 806.133 307.994C827.143 324.739 848.868 342.056 872.177 360.049C895.234 377.89 916.586 392.245 937.455 403.934C987.605 432.027 1042.1 449.928 1099.42 457.143C1118.75 459.584 1138.82 460.993 1159.06 461.331C1183.5 461.698 1207.7 460.547 1230.99 457.913C1265.43 454.024 1306.13 447.769 1346.83 430.879C1366.27 422.811 1383.89 412.25 1400.7 398.59C1429.34 375.307 1451.76 346.489 1473.44 318.62C1486.21 302.203 1498.27 286.697 1511.17 272.809C1513.52 270.283 1515.86 267.748 1518.21 265.21C1531.77 250.521 1545.8 235.334 1561.34 221.669C1577.61 207.296 1594.31 196.239 1610.95 188.806C1630.68 180.001 1650.02 176.485 1668.44 178.356C1679.66 179.494 1690.86 182.203 1702.69 186.636C1730.21 196.846 1756.01 215.442 1780.96 233.423C1784.73 236.141 1788.63 238.953 1792.43 241.659C1818.82 260.427 1844.47 281.792 1868.69 305.153C1895.11 330.585 1920.99 359.56 1945.6 391.275C1967.36 419.305 1988.69 450.217 2009.03 483.147L2008.54 483.383Z" fill="white" fill-opacity="0.5"/>
<path d="M2006.82 465.159C1966.74 393 1920.28 332.09 1868.73 284.117C1843.87 260.922 1817.26 240.267 1789.63 222.722C1788.31 221.887 1787 221.052 1785.68 220.214C1756.95 201.947 1727.24 183.058 1696.38 174.554C1684.43 171.259 1673.24 169.551 1662.18 169.33C1619.53 168.482 1583.16 196.029 1560.16 219.284C1546.62 232.889 1534.61 247.801 1522.99 262.221C1520.12 265.787 1517.14 269.474 1514.21 273.065C1503.04 286.743 1492.66 302.294 1481.67 318.76C1461.67 348.712 1441 379.681 1412.46 404.268C1395.95 418.493 1378.14 429.161 1358.02 436.885C1318.38 452.1 1278.13 456.095 1240.55 458.147C1217.37 459.411 1193.15 459.195 1168.56 457.507C1148.36 456.078 1128.4 453.633 1109.22 450.242C1053.77 440.461 999.929 420.263 949.192 390.207C928.872 378.171 908.094 363.862 883.805 345.173C837.642 309.752 803.362 284.804 772.659 264.282C711.593 223.467 664.985 199.454 616.82 183.991C584.574 173.638 550.702 166.524 516.141 162.842C492.162 160.289 466.715 160.517 433.634 163.589C426.855 164.226 419.919 164.976 413.018 165.821C406.498 166.632 399.876 167.559 392.864 168.54C366.972 172.164 337.623 176.272 304.034 175.504C286.33 175.101 268.246 173.995 250.759 172.926C230.884 171.712 210.334 170.456 190.85 170.285C171.315 170.115 153.054 171.489 136.591 174.373C77.6998 184.683 31.0149 207.517 11.7107 235.452L11.1631 235.159C16.1767 227.901 23.0098 220.932 31.4712 214.444C39.6389 208.179 49.3637 202.333 60.3776 197.064C81.7722 186.827 108.083 178.787 136.465 173.819C152.974 170.93 171.275 169.551 190.856 169.721C210.357 169.892 230.918 171.148 250.802 172.364C268.283 173.433 286.358 174.539 304.048 174.943C337.578 175.707 366.895 171.605 392.758 167.986C399.774 167.003 406.402 166.077 412.924 165.265C419.834 164.42 426.775 163.67 433.56 163.03C466.693 159.956 492.182 159.725 516.212 162.285C550.822 165.972 584.742 173.097 617.034 183.464C665.264 198.948 711.921 222.985 773.041 263.836C803.756 284.365 838.047 309.321 884.221 344.752C908.493 363.425 929.249 377.72 949.546 389.743C1000.21 419.757 1053.98 439.927 1109.34 449.693C1128.49 453.078 1148.43 455.519 1168.6 456.948C1193.17 458.633 1217.35 458.849 1240.5 457.588C1278.03 455.539 1318.21 451.554 1357.76 436.374C1377.81 428.68 1395.55 418.046 1412 403.872C1440.48 379.338 1461.14 348.401 1481.11 318.482C1492.11 302.005 1502.5 286.442 1513.68 272.744C1516.62 269.155 1519.59 265.468 1522.46 261.902C1534.09 247.47 1546.11 232.548 1559.67 218.92C1574.68 203.743 1590.41 191.738 1606.44 183.236C1625.21 173.277 1643.97 168.415 1662.19 168.773C1673.31 168.994 1684.56 170.712 1696.57 174.022C1727.53 182.556 1757.28 201.471 1786.05 219.765C1787.37 220.603 1788.69 221.441 1790 222.273C1817.66 239.838 1844.31 260.518 1869.19 283.738C1920.79 331.754 1967.29 392.712 2007.39 464.92L2006.82 465.159Z" fill="white" fill-opacity="0.5"/>
<path d="M1254.74 457.886C1253.14 457.886 1251.56 457.883 1250.01 457.876C1226.95 457.791 1202.74 456.211 1178.05 453.176C1157.93 450.656 1138.09 447.177 1119.09 442.841C1091.94 436.657 1064.69 427.769 1038.1 416.426C1012.42 405.472 986.553 391.889 961.223 376.052C936.403 360.536 913.221 343.247 895.796 329.918C855.026 298.815 816.235 272.819 780.501 252.648C722.625 219.981 671.05 200.066 618.185 189.977C586.293 183.89 552.076 180.68 519.131 180.68C518.621 180.68 518.113 180.68 517.603 180.683C489.301 180.768 462.431 185.393 437.614 190.378C431.155 191.685 424.473 193.112 417.754 194.624C414.072 195.462 410.385 196.324 406.483 197.237C378.966 203.685 347.775 210.99 309.882 210.391C286.805 210.025 263.235 207.923 240.44 205.889C225.721 204.575 210.504 203.218 195.988 202.398C176.034 201.272 157.671 201.633 141.404 203.477C82.8265 210.107 33.9657 227.923 10.6974 251.136L10.1613 250.722C22.0963 238.817 40.0487 228.51 63.5195 220.084C85.935 212.039 112.837 206.08 141.312 202.857C157.622 201.012 176.034 200.645 196.034 201.776C210.564 202.596 225.79 203.956 240.514 205.27C263.295 207.304 286.851 209.405 309.897 209.769C347.692 210.368 378.829 203.073 406.301 196.638C410.205 195.722 413.892 194.86 417.577 194.022C424.302 192.51 430.989 191.08 437.454 189.774C462.314 184.781 489.23 180.149 517.6 180.061C551.069 179.958 585.899 183.178 618.336 189.37C645.62 194.579 672.071 202.245 699.195 212.808C725.318 222.983 752.039 235.843 780.883 252.127C816.645 272.312 855.465 298.329 896.261 329.451C913.671 342.773 936.837 360.049 961.631 375.548C1013.03 407.684 1066.07 430.121 1119.26 442.242C1138.24 446.573 1158.05 450.046 1178.15 452.564C1202.8 455.594 1226.98 457.174 1250.01 457.256C1286.04 457.387 1327.87 456.318 1368.68 441.861C1389.33 434.543 1407.2 423.842 1423.3 409.148C1451.58 383.342 1470.33 350.221 1488.47 318.188C1497.8 301.712 1506.61 286.148 1516.19 272.676C1519.25 268.36 1522.35 263.913 1525.35 259.613C1535.46 245.082 1545.92 230.06 1557.98 216.174C1571.75 200.199 1586.53 187.241 1601.91 177.661C1619.73 166.554 1637.9 160.339 1655.92 159.191C1667.04 158.481 1678.32 159.206 1690.42 161.408C1722.76 167.291 1754.82 184.384 1787.55 202.885C1816.09 219.015 1844.49 239.567 1869.68 262.321C1897.67 287.522 1923.97 317.087 1947.84 350.194C1969.11 379.688 1988.59 412.155 2005.74 446.693L2005.09 446.944C1968.25 372.772 1922.53 310.803 1869.17 262.76C1844.01 240.039 1815.66 219.517 1787.17 203.414C1754.49 184.946 1722.5 167.885 1690.28 162.022C1678.24 159.833 1667.02 159.113 1655.97 159.818C1622.87 161.932 1588.27 182.08 1558.54 216.555C1546.51 230.416 1536.06 245.426 1525.95 259.941C1522.96 264.244 1519.86 268.693 1516.79 273.009C1507.23 286.457 1498.42 302.008 1489.11 318.469C1480.21 334.186 1471.01 350.439 1460.45 366.063C1448.48 383.776 1436.5 398.011 1423.82 409.585C1407.64 424.343 1389.7 435.092 1368.95 442.445C1350.65 448.93 1330.98 453.216 1308.82 455.554C1290.05 457.522 1271.2 457.886 1254.74 457.886Z" fill="white" fill-opacity="0.5"/>
<path d="M1300.47 459.142C1285.93 459.142 1271.96 458.38 1259.46 457.608C1236.48 456.188 1212.28 453.241 1187.54 448.848C1167.5 445.239 1147.79 440.73 1128.95 435.441C1077.36 420.988 1026.43 396.93 973.244 361.898C950.05 346.623 928.185 330.186 907.783 314.663C867.503 284.104 827.32 259.327 788.344 241.014C731.022 214.083 677.39 199.765 619.56 195.958C586.61 193.789 551.863 194.674 519.072 198.516C491.626 201.731 465.751 209.491 441.596 217.16C435.553 219.088 429.125 221.195 422.494 223.419C420.837 223.979 419.166 224.548 417.472 225.122C389.652 234.582 358.173 245.285 317.774 245.285C317.092 245.285 316.414 245.283 315.726 245.275C288.394 245.032 260.489 241.601 233.499 238.281C222.799 236.964 211.734 235.605 201.116 234.504C180.377 232.357 162.416 231.723 146.204 232.57C87.2359 235.655 37.4625 248.134 9.6512 266.815L9.17493 266.266C22.9237 257.032 42.804 249.014 66.6598 243.081C90.1248 237.245 117.614 233.373 146.155 231.881C162.414 231.031 180.42 231.665 201.204 233.817C211.833 234.918 222.901 236.28 233.604 237.594C260.569 240.909 288.448 244.337 315.729 244.581C356.97 244.952 388.962 234.07 417.184 224.473C418.875 223.898 420.549 223.329 422.206 222.767C428.842 220.54 435.273 218.434 441.322 216.505C465.517 208.821 491.44 201.052 518.961 197.827C551.803 193.98 586.607 193.092 619.611 195.264C648.27 197.15 675.593 201.604 703.142 208.876C731.515 216.367 759.503 226.677 788.706 240.4C827.731 258.737 867.965 283.545 908.287 314.133C928.681 329.652 950.532 346.078 973.706 361.339C1026.82 396.323 1077.67 420.346 1129.18 434.776C1147.99 440.055 1167.67 444.559 1187.68 448.163C1212.4 452.552 1236.56 455.496 1259.51 456.91C1298.12 459.293 1339.19 460.517 1379.59 447.333C1400.85 440.394 1418.85 429.625 1434.59 414.41C1462.65 387.307 1480.11 350.339 1495.52 317.722C1503.27 301.311 1510.6 285.81 1518.68 272.596C1521.59 267.828 1524.52 262.9 1527.36 258.136C1536.24 243.226 1545.41 227.811 1556.28 213.413C1568.84 196.64 1582.67 182.729 1597.37 172.066C1614.25 159.82 1631.84 152.257 1649.64 149.591C1660.76 147.923 1672.09 147.657 1684.26 148.771C1718.27 151.888 1752.82 167.291 1785.09 183.474C1814.89 198.416 1844.31 218.268 1870.17 240.884C1898.94 265.968 1925.44 295.829 1948.95 329.632C1969.96 359.862 1988.52 393.106 2004.09 428.446L2003.36 428.695C1970.26 353.574 1924.01 288.799 1869.62 241.371C1843.81 218.797 1814.45 198.983 1784.71 184.071C1752.51 167.926 1718.05 152.56 1684.19 149.455C1672.08 148.347 1660.83 148.613 1649.77 150.268C1616.91 155.191 1583.94 177.749 1556.94 213.789C1546.09 228.157 1536.93 243.557 1528.06 258.452C1525.22 263.219 1522.29 268.147 1519.37 272.919C1511.31 286.103 1503.99 301.589 1496.25 317.983C1480.81 350.65 1463.32 387.679 1435.18 414.871C1419.34 430.169 1401.25 440.998 1379.87 447.977C1361.31 454.031 1341.3 457.537 1318.67 458.688C1312.56 459.015 1306.47 459.142 1300.47 459.142Z" fill="white" fill-opacity="0.5"/>
<path d="M1329.17 461.858C1328.96 461.858 1328.76 461.858 1328.55 461.858C1308 461.813 1287.82 459.601 1268.92 457.339C1245.97 454.595 1221.79 450.279 1197.02 444.516C1177.08 439.824 1157.49 434.279 1138.81 428.04C1089.29 411.521 1040.5 386.008 985.273 347.746C965.384 333.97 945.812 319.136 926.881 304.794C924.514 302.998 922.145 301.205 919.775 299.412C879.287 268.861 837.71 245.3 796.201 229.385C739.361 207.595 682.036 198.616 620.949 201.939C587.454 203.763 552.738 208.746 520.555 216.349C495.162 222.351 472.536 231.978 445.591 243.941C440.13 246.376 434.298 249.004 427.242 252.214L426.849 252.395C413.237 258.629 397.809 265.694 380.503 271.066C360.629 277.235 341.348 280.204 321.576 280.169C290.744 280.102 259.28 275.056 228.853 270.173C221.399 268.977 213.687 267.74 206.244 266.622C184.898 263.419 166.828 261.802 151.003 261.679C92.7344 261.227 40.825 268.821 8.58761 282.509L8.21686 281.832C24.0076 275.126 45.3081 269.684 69.814 266.093C94.3656 262.494 122.445 260.708 151.012 260.929C166.883 261.052 184.998 262.672 206.389 265.882C213.838 267.001 221.55 268.237 229.007 269.433C259.397 274.308 290.821 279.349 321.578 279.417C321.715 279.417 321.855 279.417 321.992 279.417C365.988 279.417 399.505 264.069 426.455 251.728L426.852 251.547C433.91 248.335 439.742 245.706 445.206 243.271C472.196 231.289 494.863 221.644 520.336 215.625C552.573 208.006 587.345 203.015 620.898 201.189C650.791 199.564 678.987 200.803 707.103 204.981C737.402 209.483 766.659 217.24 796.543 228.698C838.132 244.643 879.78 268.242 920.334 298.843C922.703 300.636 925.073 302.431 927.44 304.227C946.362 318.564 965.929 333.393 985.801 347.159C1040.96 385.374 1089.67 410.851 1139.11 427.343C1157.77 433.575 1177.33 439.109 1197.24 443.797C1221.97 449.552 1246.12 453.861 1269.03 456.599C1310.06 461.51 1350.23 464.915 1390.52 452.837C1412.39 446.282 1430.51 435.445 1445.9 419.706C1473.7 391.275 1488.89 351.879 1502.3 317.117C1508.57 300.844 1514.5 285.471 1521.18 272.553C1523.75 267.582 1526.34 262.441 1528.83 257.468C1536.63 241.92 1544.7 225.844 1554.59 210.687C1565.98 193.109 1578.85 178.243 1592.84 166.501C1608.79 153.119 1625.79 144.211 1643.36 140.028C1654.26 137.435 1665.38 136.171 1677.33 136.171C1677.59 136.171 1677.85 136.171 1678.11 136.173C1715.26 136.344 1753.49 151.185 1782.65 164.096C1813.71 177.851 1844.14 197.001 1870.67 219.477C1900.22 244.445 1926.93 274.599 1950.07 309.105C1970.83 340.069 1988.45 374.093 2002.45 410.237L2001.64 410.48C1980.81 356.701 1941.07 280.006 1870.07 220.021C1843.61 197.596 1813.25 178.491 1782.26 164.768C1753.19 151.893 1715.08 137.094 1678.11 136.926C1665.93 136.863 1654.65 138.122 1643.59 140.755C1611.03 148.507 1579.69 173.475 1555.34 211.06C1545.47 226.183 1537.41 242.24 1529.61 257.772C1527.12 262.747 1524.53 267.891 1521.96 272.864C1515.29 285.749 1509.37 301.102 1503.11 317.358C1489.68 352.182 1474.46 391.653 1446.55 420.195C1431.05 436.04 1412.82 446.949 1390.8 453.547C1372.14 459.137 1351.97 461.858 1329.17 461.858Z" fill="white" fill-opacity="0.5"/>
<path d="M1352 465.39C1347.57 465.39 1343.05 465.264 1338.41 465.014C1318.14 463.918 1298.44 460.63 1278.37 457.069C1255.09 452.941 1231.59 447.418 1206.51 440.186C1186.66 434.413 1167.21 427.837 1148.67 420.637C1101.65 402.4 1054.97 375.553 997.302 333.592C982.98 323.172 968.663 312.243 954.818 301.672C947.28 295.919 939.489 289.968 931.769 284.157C890.799 253.401 847.833 231.061 804.063 217.754C746.23 200.172 686.792 196.952 622.346 207.911C588.297 213.702 553.613 222.783 522.046 234.171C496.687 243.319 474.597 256.167 451.209 269.77L449.592 270.71C445.938 272.842 442.245 275.004 438.507 277.19C436.353 278.452 434.186 279.721 431.999 281C418.361 289.017 403.631 297.381 386.74 303.819C367.127 311.292 347.729 314.969 327.43 315.059C293.635 315.204 259.165 308.298 225.832 301.612C221.075 300.656 216.153 299.671 211.376 298.735C188.981 294.347 171.325 291.821 155.805 290.783C98.5342 286.954 44.4859 289.652 7.51444 298.189L7.27771 297.401C44.3461 288.842 98.5057 286.133 155.876 289.97C171.439 291.011 189.14 293.544 211.579 297.94C216.359 298.878 221.281 299.864 226.041 300.819C258.965 307.423 292.999 314.246 326.346 314.246C326.705 314.246 327.065 314.246 327.427 314.244C370.558 314.053 401.261 298.088 431.488 280.323C433.675 279.044 435.843 277.775 437.996 276.513C441.735 274.324 445.425 272.165 449.081 270.031L450.698 269.09C474.126 255.465 496.254 242.595 521.695 233.416C553.319 222.005 588.063 212.909 622.172 207.109C686.78 196.122 746.378 199.352 804.368 216.982C848.247 230.324 891.312 252.714 932.373 283.538C940.093 289.351 947.887 295.3 955.425 301.055C969.265 311.623 983.578 322.55 997.892 332.963C1055.49 374.876 1102.11 401.685 1149.05 419.892C1167.55 427.08 1186.98 433.648 1206.8 439.411C1231.84 446.633 1255.31 452.148 1278.55 456.269C1313.83 462.526 1357.73 470.315 1401.45 458.318C1423.93 452.151 1442.17 441.247 1457.2 424.981C1484.74 395.187 1497.51 353.284 1508.77 316.315C1513.67 300.255 1518.29 285.085 1523.69 272.496C1525.79 267.59 1527.89 262.517 1529.93 257.609C1536.76 241.15 1543.83 224.132 1552.91 207.946C1563.14 189.551 1575.05 173.729 1588.31 160.919C1603.33 146.403 1619.74 136.154 1637.08 130.454C1648.21 126.795 1659.62 124.54 1671.95 123.559C1688.47 122.245 1706.05 123.65 1725.7 127.843C1742.33 131.394 1760.15 136.906 1780.19 144.698C1812.52 157.265 1843.97 175.715 1871.16 198.053C1901.5 222.903 1928.42 253.356 1951.18 288.561C1971.68 320.263 1988.37 355.067 2000.81 392.01L1999.92 392.241C1973.67 314.246 1927.71 245.494 1870.53 198.65C1843.41 176.372 1812.04 157.975 1779.82 145.445C1736.63 128.658 1702.39 121.959 1672.03 124.372C1659.78 125.345 1648.46 127.585 1637.41 131.216C1596.15 144.776 1569.14 180.623 1553.74 208.305C1544.68 224.45 1537.63 241.449 1530.8 257.888C1528.76 262.798 1526.65 267.874 1524.55 272.782C1519.17 285.333 1514.56 300.486 1509.67 316.526C1498.38 353.575 1485.58 395.566 1457.92 425.495C1442.77 441.889 1424.39 452.881 1401.73 459.097C1386.37 463.311 1369.99 465.39 1352 465.39Z" fill="white" fill-opacity="0.5"/>
<path d="M1371.77 469.437C1341.61 469.437 1312.62 462.623 1287.81 456.795C1264.48 451.313 1240.98 444.461 1215.99 435.852C1196.26 429.006 1176.92 421.397 1158.53 413.234C1103.39 388.792 1054.23 353.71 1009.33 319.437C1000.16 312.441 990.895 305.228 981.94 298.254C969.506 288.568 956.647 278.554 943.762 268.904C902.179 237.845 857.824 216.721 811.932 206.12C752.565 192.41 691.008 194.945 623.744 213.874C589.111 223.62 554.461 236.799 523.539 251.986C499.689 263.698 479.509 278.484 458.146 294.138C456.631 295.247 455.114 296.36 453.588 297.474L452.761 298.081C447.568 301.89 442.198 305.827 436.754 309.78C423.709 319.292 409.345 329.13 392.73 336.646C373.443 345.371 353.999 349.722 333.28 349.948C296.913 350.347 259.848 341.356 224.006 332.661C221.493 332.052 218.992 331.445 216.502 330.846C192.866 325.143 175.624 321.762 160.6 319.881C104.767 312.894 48.5738 310.698 6.4291 313.855L6.34357 312.98C48.5567 309.815 104.832 312.014 160.74 319.011C175.806 320.897 193.086 324.285 216.765 329.998C219.254 330.597 221.755 331.204 224.271 331.816C260.044 340.493 297.039 349.461 333.266 349.07C378.259 348.579 409.946 328.182 436.115 309.103C441.559 305.15 446.929 301.213 452.122 297.406L452.949 296.799C454.475 295.683 455.992 294.572 457.507 293.464C478.907 277.782 499.121 262.971 523.051 251.219C554.031 236.004 588.746 222.802 623.439 213.039C655.328 204.066 685.281 198.885 715.006 197.2C748.165 195.321 780.858 198.037 812.183 205.273C858.221 215.906 902.707 237.09 944.407 268.235C957.3 277.89 970.162 287.906 982.599 297.594C991.553 304.568 1000.81 311.778 1009.98 318.773C1054.84 353.008 1103.93 388.052 1158.97 412.449C1177.34 420.599 1196.65 428.198 1216.35 435.034C1241.31 443.631 1264.76 450.473 1288.07 455.947C1323.85 464.354 1368.37 474.816 1412.37 463.807C1435.46 458.029 1453.82 447.057 1468.49 430.264C1495.74 399.069 1505.94 354.588 1514.94 315.34C1518.55 299.57 1521.97 284.676 1526.18 272.445C1527.73 267.921 1529.3 263.247 1530.81 258.725C1536.72 241.04 1542.84 222.75 1551.2 205.212C1560.3 185.985 1571.26 169.202 1583.76 155.336C1597.87 139.69 1613.69 128.098 1630.79 120.883C1641.89 116.199 1653.33 112.951 1665.77 110.952C1682.53 108.261 1701.13 108.352 1721.04 111.221C1738.48 113.733 1757.55 118.471 1777.72 125.305C1811.3 136.683 1843.78 154.431 1871.64 176.63C1902.77 201.365 1929.9 232.112 1952.29 268.019C1972.51 300.458 1988.28 336.044 1999.16 373.788L1998.19 374.003C1975.15 294.028 1929.97 224.164 1870.97 177.282C1843.2 155.156 1810.83 137.465 1777.36 126.125C1733.98 111.426 1697.54 106.744 1665.95 111.817C1653.61 113.801 1642.24 117.026 1631.22 121.676C1590.53 138.842 1565.75 176.761 1552.13 205.551C1543.78 223.043 1537.67 241.308 1531.77 258.971C1530.25 263.492 1528.69 268.169 1527.13 272.699C1522.94 284.889 1519.53 299.763 1515.92 315.513C1511.59 334.394 1506.68 355.794 1499.56 375.857C1491.4 398.844 1481.5 416.815 1469.28 430.799C1462.22 438.884 1454.1 445.765 1445.15 451.253C1435.53 457.154 1424.6 461.663 1412.65 464.652C1398.97 468.075 1385.25 469.437 1371.77 469.437Z" fill="white" fill-opacity="0.5"/>
<path d="M1389.59 473.878C1379.62 473.878 1369.18 473.026 1358.14 471.323C1336.41 467.97 1315.61 461.886 1297.26 456.522C1274.12 449.758 1249.97 441.344 1225.47 431.516C1205.86 423.606 1186.65 414.964 1168.38 405.825C1115.95 379.626 1070.77 344.789 1021.35 305.28C1016.96 301.769 1012.5 298.188 1008.18 294.722C991.202 281.082 973.643 266.978 955.753 253.651C913.48 222.228 867.739 202.323 819.8 194.489C759.329 184.605 693.833 193.132 625.141 219.835C589.892 233.538 555.273 250.812 525.029 269.794C502.257 284.087 483.512 300.937 463.666 318.778C461.65 320.591 459.625 322.409 457.589 324.235C452.521 328.784 447.063 333.667 441.51 338.555C429.866 348.839 415.675 360.559 398.721 369.469C379.742 379.445 360.249 384.473 339.134 384.837C300.48 385.507 261.133 374.251 223.081 363.367L221.632 362.954C203.001 357.627 183.292 352.245 165.399 348.977C110.86 339.019 54.0202 332.104 5.35333 329.509L5.41892 328.571C54.1371 331.169 111.029 338.088 165.616 348.057C183.56 351.335 203.303 356.724 221.963 362.058L223.412 362.472C261.381 373.331 300.648 384.559 339.114 383.894C383.538 383.127 414.218 361.328 440.754 337.885C446.307 333 451.76 328.117 456.827 323.57C458.864 321.747 460.888 319.926 462.905 318.116C482.785 300.245 501.564 283.364 524.411 269.024C554.712 250.005 589.396 232.698 624.71 218.97C656.939 206.444 688.654 197.811 718.97 193.317C753.608 188.184 787.6 188.264 819.999 193.558C868.122 201.423 914.031 221.398 956.446 252.929C974.35 266.268 991.918 280.378 1008.91 294.025C1013.22 297.489 1017.68 301.07 1022.07 304.581C1071.45 344.052 1116.58 378.851 1168.92 405.005C1187.16 414.129 1206.34 422.758 1225.92 430.658C1250.38 440.471 1274.5 448.873 1297.6 455.626C1333.81 466.214 1378.87 479.388 1423.31 469.294C1447.01 463.91 1465.49 452.873 1479.79 435.548C1506.75 402.909 1514.55 353.712 1520.81 314.181C1523.26 298.783 1525.56 284.24 1528.68 272.403C1529.67 268.671 1530.66 264.826 1531.63 261.107C1536.62 241.787 1541.78 221.807 1549.52 202.486C1561.48 172.419 1584.2 132.199 1624.51 111.326C1635.64 105.563 1647.12 101.319 1659.61 98.3551C1692.3 90.4879 1731.21 93.0334 1775.27 105.916C1810.11 116.106 1843.61 133.152 1872.14 155.213C1904.05 179.83 1931.4 210.872 1953.41 247.485C1963.51 264.277 1972.43 282.213 1979.94 300.794C1987.11 318.542 1993.02 336.972 1997.52 355.573L1996.47 355.769C1976.66 273.807 1932.25 202.832 1871.43 155.918C1843.01 133.939 1809.64 116.958 1774.93 106.807C1731.08 93.9814 1692.37 91.4434 1659.89 99.2604C1647.49 102.202 1636.1 106.413 1625.05 112.133C1585.01 132.861 1562.43 172.876 1550.53 202.795C1542.81 222.065 1537.65 242.017 1532.67 261.313C1531.71 265.032 1530.71 268.879 1529.73 272.613C1526.61 284.41 1524.31 298.933 1521.87 314.309C1518.72 334.201 1515.14 356.747 1509.04 378.026C1502.02 402.477 1492.73 421.474 1480.66 436.1C1473.77 444.444 1465.71 451.481 1456.71 457.013C1447.01 462.974 1435.86 467.413 1423.58 470.202C1412.79 472.655 1401.53 473.878 1389.59 473.878Z" fill="white" fill-opacity="0.5"/>
<path d="M1421.46 483.451C1407.84 483.451 1393.42 481.515 1377.87 477.628C1355.88 472.128 1334.76 463.539 1316.14 455.963C1292.6 446.388 1268.47 435.24 1244.42 422.836C1225.08 412.83 1206.13 402.119 1188.09 391.007C1143.66 363.651 1105.7 330.139 1065.5 294.658C1058.93 288.857 1052.13 282.861 1045.39 276.965C1021.69 256.25 1001.46 239.169 979.734 223.146C935.958 190.903 887.448 173.431 835.548 171.214C770.331 168.427 700.475 188.791 627.924 231.738C591.882 253.075 556.394 279.232 527.998 305.394C506.606 325.103 489.883 346.558 472.179 369.271C469.986 372.085 467.784 374.909 465.568 377.735C461.621 382.779 456.397 389.424 451.004 396.088C428.309 424.196 398.658 453.134 350.829 454.613C349.338 454.656 347.841 454.676 346.346 454.676C308.998 454.676 270.869 441.678 231.862 427.165L229.426 426.252C210.105 418.999 191.853 412.151 174.959 407.165C111.291 388.376 49.7165 372.516 3.18567 360.8L3.51935 359.774C50.0616 371.496 111.653 387.358 175.343 406.154C192.284 411.152 210.555 418.011 229.902 425.272L232.335 426.184C272.771 441.229 312.261 454.649 350.787 453.55C398.085 452.086 427.487 423.371 450.014 395.473C455.404 388.815 460.623 382.174 464.57 377.133C466.786 374.304 468.985 371.483 471.178 368.669C488.91 345.921 505.659 324.431 527.12 304.659C555.573 278.442 591.132 252.232 627.245 230.853C660.763 211.011 694.292 195.775 726.9 185.566C764.314 173.852 800.889 168.666 835.605 170.148C887.774 172.375 936.529 189.932 980.51 222.326C1002.26 238.374 1022.52 255.472 1046.24 276.205C1052.99 282.101 1059.78 288.1 1066.36 293.9C1106.51 329.346 1144.44 362.826 1188.78 390.127C1206.8 401.226 1225.72 411.92 1245.03 421.911C1269.04 434.3 1293.14 445.43 1316.64 454.99C1353.54 469.999 1399.46 488.678 1445.16 480.269C1470.14 475.672 1488.86 464.502 1502.37 446.122C1528.75 410.493 1530.33 355.508 1531.61 311.327C1532.02 296.912 1532.42 283.295 1533.68 272.323L1533.7 272.072C1536.52 247.502 1539.44 222.098 1546.13 197.032C1551.92 175.168 1559.99 155.512 1570.11 138.604C1581.51 119.542 1595.58 103.933 1611.91 92.2087C1622.84 84.3641 1634.4 78.1321 1647.26 73.1591C1681.98 59.6442 1724.54 57.5577 1770.32 67.1302C1788.75 70.9822 1806.92 76.818 1824.35 84.472C1841.87 92.1711 1858.28 101.558 1873.1 112.367C1906.6 136.746 1934.36 168.385 1955.63 206.406C1974.74 240.581 1988.08 279.565 1994.22 319.142L1993.02 319.285C1979.89 234.579 1935.91 159.459 1872.33 113.187C1842.6 91.514 1807.23 75.9453 1770.05 68.1734C1724.52 58.6561 1682.23 60.7201 1647.75 74.1421C1635 79.0776 1623.53 85.2594 1612.68 93.0413C1582.19 114.932 1559.58 150.978 1547.31 197.28C1540.64 222.281 1537.73 247.65 1534.91 272.185L1534.88 272.436C1533.63 283.367 1533.24 296.965 1532.82 311.36C1531.54 355.676 1529.95 410.826 1503.39 446.706C1496.87 455.569 1488.94 462.922 1479.8 468.56C1469.96 474.639 1458.39 478.93 1445.41 481.32C1437.68 482.739 1429.72 483.451 1421.46 483.451Z" fill="white" fill-opacity="0.5"/>
<path d="M351.717 489.593C335.016 489.593 316.83 486.732 296.305 480.888C275.911 475.083 255.743 467.067 236.984 459.273C233.587 457.854 230.216 456.437 226.868 455.03C210.202 448.025 194.46 441.41 179.747 436.256C121.081 415.714 65.1624 397.251 11.0827 379.4L2.12213 376.441L2.57271 375.385L11.5332 378.345C65.6158 396.201 121.543 414.663 180.22 435.21C194.973 440.376 210.735 447 227.421 454.014C230.767 455.421 234.138 456.838 237.531 458.255C276.04 474.255 316.952 489.761 356.633 488.379C405.411 486.594 434.643 453.179 454.657 424.271C459.785 416.878 464.724 409.51 468.454 403.917C470.513 400.835 472.558 397.755 474.597 394.683C491.509 369.216 507.482 345.161 528.489 322.48C556.217 292.546 591.743 262.116 628.526 236.799C662.651 213.31 697.087 194.752 730.882 181.641C769.644 166.602 807.505 158.797 843.413 158.444C897.444 157.736 947.628 174.083 992.551 207.023C1017.45 225.305 1039.78 245.082 1058.34 262.018C1068.44 271.234 1078.54 280.681 1088.3 289.817C1122.88 322.161 1158.63 355.603 1198.72 382.691C1216.63 394.794 1235.43 406.52 1254.59 417.542C1278.31 431.152 1302.39 443.647 1326.17 454.676C1363.35 471.915 1409.61 493.37 1456.1 485.756C1481.68 481.565 1500.51 470.33 1513.67 451.408C1539.69 414.164 1537.94 356.168 1536.52 309.567C1536.11 295.786 1535.71 282.768 1536.19 272.288C1537.25 248.661 1538.87 221.203 1544.45 194.308C1549.15 171.52 1556.25 150.902 1565.55 133.032C1576.08 112.816 1589.56 95.8677 1605.63 82.6563C1616.27 73.9014 1628.21 66.4706 1641.09 60.5671C1659.47 52.1157 1680.1 46.8015 1702.4 44.7752C1723.29 42.8768 1745.31 43.8749 1767.86 47.7395C1786.87 50.9997 1805.61 56.3615 1823.56 63.6794C1841.61 71.0424 1858.45 80.2162 1873.59 90.9448C1891.05 103.298 1907.11 117.887 1921.31 134.306C1934.76 149.862 1946.68 167.211 1956.75 185.869C1975.58 220.776 1987.96 260.566 1992.57 300.93L1991.3 301.043C1981.4 214.364 1938.2 138.107 1872.79 91.825C1842.83 70.6036 1805.48 55.3408 1767.61 48.8479C1720.79 40.8203 1677.24 45.2191 1641.68 61.5678C1628.9 67.4236 1617.07 74.7967 1606.5 83.4814C1576.23 108.374 1555.77 145.729 1545.71 194.512C1540.14 221.333 1538.53 248.744 1537.47 272.333C1536.99 282.775 1537.39 295.774 1537.81 309.537C1538.5 332.526 1539.29 358.585 1536.64 383.777C1533.57 413.008 1526.41 435.323 1514.76 451.998C1508.42 461.121 1500.54 468.632 1491.35 474.32C1481.43 480.464 1469.65 484.685 1456.33 486.864C1449.62 487.965 1442.91 488.464 1436.24 488.464C1396.29 488.464 1357.58 470.513 1325.58 455.672C1301.76 444.625 1277.64 432.113 1253.89 418.483C1234.7 407.446 1215.88 395.701 1197.94 383.581C1157.77 356.439 1121.98 322.961 1087.37 290.587C1077.61 281.454 1067.51 272.009 1057.42 262.798C1038.88 245.882 1016.59 226.133 991.732 207.886C947.052 175.121 897.162 158.87 843.433 159.567C759.055 160.4 680.424 202.504 629.319 237.682C592.61 262.948 557.156 293.313 529.487 323.187C508.543 345.8 492.592 369.818 475.707 395.245C473.668 398.317 471.62 401.397 469.561 404.481C465.828 410.076 460.886 417.45 455.755 424.85C447.353 436.986 434.164 454.651 416.693 467.893C408.209 474.323 399.18 479.376 389.857 482.915C379.462 486.859 368.3 489.076 356.687 489.5C355.042 489.563 353.385 489.593 351.717 489.593Z" fill="white" fill-opacity="0.5"/>
<path d="M357.078 524.507C340.358 524.507 322.209 521.425 301.792 515.135C280.654 508.625 259.756 499.471 242.103 491.373C236.679 488.88 231.266 486.353 226.03 483.907C211.394 477.073 197.568 470.616 184.532 465.344C137.719 446.41 91.2113 427.925 46.2319 410.046C31.3537 404.133 15.9708 398.018 1.06134 392.08L1.62029 390.994C16.5298 396.933 31.9127 403.047 46.7908 408.96C91.7702 426.839 138.284 445.327 185.1 464.263C198.17 469.55 212.013 476.013 226.666 482.857C231.899 485.302 237.312 487.827 242.73 490.32C279.342 507.108 321.809 524.878 362.474 523.205C412.401 521.104 440.444 484.617 459.3 453.066C464.134 444.983 468.808 436.868 472.339 430.701C474.152 427.536 475.955 424.373 477.754 421.219C493.93 392.842 509.207 366.041 529.861 340.303C556.722 306.828 592.219 272.182 629.807 242.747C682.152 201.932 763.057 152.146 851.219 146.747C907.286 143.221 958.89 158.353 1004.59 191.728C1025.12 206.73 1045.43 224.034 1070.44 247.841C1083.07 259.871 1095.61 272.34 1107.74 284.395C1139.29 315.761 1171.91 348.195 1208.66 375.267C1226.47 388.386 1245.14 401.143 1264.16 413.186C1287.18 427.754 1311.26 441.612 1335.7 454.377C1373.25 473.866 1419.99 498.124 1467.03 491.258C1492.82 487.571 1512.31 475.947 1524.96 456.712C1550.63 417.783 1545.12 354.093 1541.1 307.59C1539.97 294.539 1538.9 282.213 1538.69 272.27C1538.22 250.171 1538.26 221.032 1542.76 191.602C1550.52 140.605 1569.56 100.74 1599.34 73.1212C1609.78 63.3908 1621.75 54.9368 1634.92 47.9926C1653.65 38.1016 1674.79 31.4483 1697.74 28.2206C1719.37 25.1811 1742.12 25.2288 1765.39 28.3636C1785.02 31.0671 1804.32 35.9674 1822.76 42.9242C1841.38 49.9512 1858.64 58.9042 1874.08 69.535C1891.93 81.8185 1908.24 96.4568 1922.55 113.046C1936.11 128.768 1947.99 146.363 1957.87 165.347C1976.4 200.989 1987.84 241.581 1990.93 282.735L1989.58 282.813C1982.92 194.155 1940.52 116.76 1873.25 70.4754C1842.75 49.4772 1804.37 34.9392 1765.18 29.5423C1716.87 23.0344 1672.07 29.768 1635.62 49.0158C1622.56 55.9023 1610.69 64.2886 1600.33 73.9413C1570.75 101.377 1551.83 141.016 1544.11 191.763C1539.62 221.112 1539.58 250.193 1540.05 272.25C1540.26 282.158 1541.32 294.469 1542.45 307.503C1544.53 331.54 1546.89 358.788 1545.54 385.389C1543.97 416.363 1537.62 439.89 1526.14 457.312C1519.96 466.709 1512.14 474.383 1502.9 480.121C1492.89 486.343 1480.9 490.485 1467.25 492.437C1446.09 495.524 1423.32 492.75 1397.63 483.955C1375.29 476.309 1353.89 465.204 1335.02 455.408C1310.54 442.626 1286.43 428.747 1263.37 414.159C1244.33 402.099 1225.63 389.324 1207.8 376.188C1170.96 349.06 1138.31 316.591 1106.72 285.193C1094.6 273.14 1082.07 260.678 1069.44 248.658C1044.48 224.894 1024.21 207.622 1003.73 192.656C958.297 159.472 907.021 144.429 851.31 147.933C763.527 153.312 682.891 202.945 630.702 243.638C593.189 273.012 557.766 307.585 530.961 340.99C510.365 366.655 495.111 393.419 478.961 421.753C477.161 424.91 475.359 428.073 473.545 431.237C470.012 437.409 465.335 445.532 460.495 453.623C441.473 485.455 413.148 522.268 362.534 524.397C360.734 524.469 358.912 524.507 357.078 524.507Z" fill="white" fill-opacity="0.5"/>
<path d="M362.548 559.424C316.861 559.424 268.924 534.749 226.429 512.873C213.37 506.152 201.036 499.802 189.315 494.433L0 407.719L0.658795 406.608L189.973 493.322C201.726 498.704 214.074 505.061 227.15 511.793C271.288 534.514 321.318 560.267 368.314 558.035C419.342 555.615 446.224 516.056 463.942 481.866C469.737 470.684 475.333 459.306 480.745 448.301C495.549 418.207 510.855 387.087 531.226 358.124C547.402 335.127 567.496 311.009 589.335 288.381C613.294 263.555 638.946 240.779 665.574 220.686C694.934 198.534 724.787 180.209 754.301 166.223C786.946 150.755 819.106 140.656 849.895 136.204C911.572 127.289 967.668 140.819 1016.62 176.422C1057.3 206.008 1091.88 242.592 1125.32 277.973C1154.42 308.769 1184.52 340.612 1218.6 367.832C1257.96 399.27 1300.56 428.284 1345.23 454.062C1382.86 475.782 1429.69 502.817 1477.96 496.74C1518.72 491.609 1542.29 467.624 1550.01 423.411C1556.58 385.803 1550.33 341.191 1545.31 305.346C1543.6 293.13 1541.99 281.592 1541.2 272.235C1536.82 220.653 1539.61 178.073 1549.72 142.062C1556.03 119.595 1565.34 99.5669 1577.39 82.536C1590.84 63.5115 1608.12 47.6518 1628.74 35.3984C1646.58 24.7978 1666.68 17.0986 1688.5 12.5143C1709.26 8.15063 1731.12 6.68856 1753.48 8.16819C1797.44 11.0773 1840.44 25.2617 1874.56 48.1057C1892.8 60.3165 1909.36 75.0075 1923.78 91.7674C1937.45 107.652 1949.29 125.496 1958.97 144.806C1977.22 181.182 1987.69 222.579 1989.27 264.518L1987.84 264.561C1984.48 175.251 1941.81 94.7066 1873.69 49.1064C1801.36 0.679739 1698.67 -4.64944 1629.53 36.4392C1561.04 77.1416 1532.61 154.241 1542.61 272.142C1543.4 281.469 1545.02 292.992 1546.73 305.193C1551.75 341.116 1558.01 385.823 1551.42 423.601C1547.82 444.178 1540.6 460.715 1529.96 472.755C1523.97 479.524 1516.75 485.056 1508.5 489.194C1499.72 493.598 1489.51 496.555 1478.16 497.984C1473.52 498.569 1468.8 498.862 1464 498.862C1446.51 498.862 1427.88 494.972 1407.46 487.093C1384.47 478.215 1362.27 465.405 1344.44 455.113C1299.72 429.297 1257.05 400.246 1217.63 368.762C1183.48 341.484 1153.35 309.604 1124.21 278.775C1090.82 243.44 1056.28 206.9 1015.7 177.391C967.081 142.03 911.37 128.588 850.117 137.443C726.216 155.354 598.584 264.736 532.43 358.786C512.113 387.669 496.827 418.746 482.043 448.8C476.627 459.81 471.029 471.195 465.229 482.388C453.465 505.087 441.846 521.34 428.665 533.533C420.437 541.142 411.511 547.141 402.134 551.361C391.708 556.054 380.352 558.722 368.38 559.291C366.446 559.379 364.498 559.424 362.548 559.424Z" fill="white" fill-opacity="0.5"/>
</svg>
