<svg width="1360" height="1345" viewBox="0 0 1360 1345" fill="none" xmlns="http://www.w3.org/2000/svg">
<g opacity="0.5">
<path d="M327.121 733.899C321.799 730.185 316.851 726.238 312.336 722.101C302.868 713.424 295.218 703.834 289.598 693.599C283.557 682.599 279.804 670.736 278.441 658.34C275.704 633.423 281.863 610.169 287.819 587.679C288.988 583.263 290.197 578.696 291.31 574.223C298.885 543.732 301.912 514.504 300.564 484.872C297.876 425.76 279.244 363.912 246.68 306.012C209.02 239.053 157.513 182.846 101.646 147.746C68.8094 127.117 16.6445 112.44 -19.5249 124.303C-40.9904 131.344 -53.356 147.152 -55.2813 170.016L-55.5167 169.954C-54.5058 157.964 -50.6883 147.9 -44.1684 140.044C-38.1874 132.837 -29.9363 127.471 -19.6425 124.095C-3.27032 118.724 17.7168 118.484 41.0513 123.399C62.613 127.942 84.1679 136.526 101.749 147.572C130.985 165.942 158.949 189.965 184.863 218.975C208.352 245.274 229.22 274.534 246.886 305.944C279.47 363.878 298.114 425.761 300.803 484.907C302.15 514.558 299.121 543.802 291.543 574.311C290.432 578.785 289.222 583.353 288.051 587.768C282.098 610.24 275.944 633.478 278.679 658.359C281.322 682.423 292.698 703.822 312.488 721.958C339.894 747.075 382.47 764.253 426.378 767.907C489.653 773.173 547.464 756.911 603.373 741.187C613.173 738.431 623.305 735.58 633.224 732.921C658.976 726.015 693.171 717.64 729.307 714.138C766.243 710.559 799.9 712.478 832.203 720.006C851.975 724.613 871.264 731.881 889.534 741.61C906.41 750.595 922.967 761.976 938.749 775.434C965.817 798.521 991.538 828.325 1017.38 866.548C1068.27 941.814 1115.09 1022.74 1156.55 1107.09C1195.96 1187.26 1230.88 1271.23 1260.34 1356.66L1260.12 1356.68C1199.04 1179.59 1117.31 1014.71 1017.19 866.633C960.626 782.972 901.843 736.447 832.194 720.216C761.336 703.703 694.742 716.664 633.332 733.131C623.416 735.789 613.284 738.64 603.484 741.396C547.558 757.128 489.728 773.394 426.41 768.124C405.949 766.422 384.966 761.589 365.733 754.148C355.573 750.217 345.978 745.587 337.21 740.384C333.712 738.316 330.347 736.15 327.121 733.899Z" fill="white" fill-opacity="0.5"/>
<path d="M338.726 728.355C325.155 718.884 314.019 708.056 305.616 696.159C296.246 682.892 290.329 668.337 288.025 652.899C287.821 651.532 287.644 650.141 287.498 648.763C284.858 624.014 290.548 600.791 296.053 578.333C297.164 573.793 298.316 569.098 299.37 564.5C305.644 537.114 308.388 511.034 307.752 484.768C307.673 481.534 307.542 478.256 307.358 475.024C304.004 415.94 284.744 354.273 251.66 296.687C213.264 229.909 161.191 174.145 105.033 139.669C72.1924 119.537 20.0541 105.235 -16.0618 116.85C-37.6881 123.805 -50.4553 139.381 -52.9883 161.892L-53.2234 161.825C-51.8961 150.027 -47.8202 140.119 -41.1081 132.383C-34.9437 125.277 -26.5576 119.98 -16.1794 116.641C0.265504 111.351 21.2195 111.07 44.4126 115.829C65.8493 120.226 87.4108 128.629 105.128 139.493C134.534 157.545 162.734 181.301 188.942 210.099C212.682 236.184 233.851 265.294 251.862 296.618C284.965 354.237 304.234 415.94 307.591 475.058C307.774 478.292 307.906 481.572 307.984 484.808C308.62 511.091 305.876 537.186 299.597 564.585C298.545 569.186 297.394 573.88 296.282 578.422C290.783 600.867 285.095 624.072 287.731 648.787C287.878 650.161 288.056 651.552 288.258 652.915C293.015 684.825 312.529 710.073 338.79 728.399C338.934 728.5 339.076 728.599 339.221 728.699C339.057 728.583 338.891 728.47 338.726 728.355ZM344.408 732.149C369.519 748.188 399.921 758.304 429.283 762.28C492.687 770.76 552.117 756.991 609.592 743.678C611.959 743.128 614.324 742.581 616.69 742.035C621.883 740.835 628.035 739.419 634.281 738.022C662.299 731.761 695.641 724.994 730.494 722.282C767.578 719.395 801.157 721.482 833.15 728.659C852.804 733.076 872.037 739.947 890.315 749.082C907.249 757.545 923.927 768.236 939.879 780.852C967.438 802.648 993.801 830.768 1020.47 866.823C1046.49 901.956 1066.93 932.199 1084.79 961.998C1110.08 1004.23 1131.86 1047.76 1149.84 1084.76C1191.56 1170.91 1228.36 1261.36 1259.23 1353.6L1259 1353.62C1228.14 1261.4 1191.34 1170.96 1149.63 1084.82C1131.66 1047.81 1109.87 1004.29 1084.59 962.074C1066.73 932.282 1046.3 902.048 1020.29 866.922C962.183 788.38 902.715 744.512 833.142 728.873C760.916 712.666 692.675 725.208 634.38 738.237C628.131 739.632 621.982 741.048 616.788 742.249C614.424 742.794 612.057 743.343 609.69 743.893C552.197 757.21 492.746 770.983 429.296 762.499C413.58 760.369 397.977 756.501 382.917 750.998C368.901 745.872 355.975 739.543 344.408 732.149Z" fill="white" fill-opacity="0.5"/>
<path d="M350.719 723.392C349.087 722.253 347.484 721.093 345.914 719.912C332.688 709.974 321.867 698.742 313.756 686.527C304.885 673.169 299.268 658.631 297.063 643.317C296.869 641.954 296.697 640.565 296.555 639.189C294.013 614.621 299.238 591.436 304.293 569.019C305.346 564.347 306.435 559.514 307.425 554.778C313.223 527.167 315.588 501.046 314.651 474.918C314.534 471.687 314.365 468.41 314.145 465.177C310.124 406.123 290.236 344.636 256.633 287.365C217.504 220.769 164.866 165.446 108.413 131.594C76.6051 112.566 25.1793 97.5016 -12.5638 109.387C-34.3699 116.254 -47.5571 131.602 -50.7003 153.772L-50.934 153.699C-49.2879 142.084 -44.9471 132.332 -38.0375 124.712C-31.6829 117.702 -23.1513 112.478 -12.6793 109.18C3.83785 103.979 24.7488 103.664 47.7962 108.266C69.1025 112.522 90.6642 120.745 108.508 131.419C138.084 149.157 166.52 172.644 193.022 201.227C217.012 227.102 238.481 256.059 256.835 287.296C290.456 344.601 310.354 406.122 314.378 465.211C314.598 468.445 314.768 471.724 314.883 474.958C315.819 501.101 313.453 527.237 307.651 554.862C306.659 559.6 305.571 564.433 304.517 569.105C299.468 591.511 294.245 614.678 296.783 639.217C296.925 640.593 297.095 641.978 297.291 643.337C306.251 705.561 371.5 745.084 432.187 756.651C496.057 768.608 557.587 757.34 617.091 746.444L617.702 746.332C623.467 745.274 629.428 744.181 635.341 743.122C697.729 731.948 764.468 722.296 834.103 737.311C853.643 741.54 872.822 748.015 891.101 756.554C908.104 764.498 924.899 774.495 941.017 786.269C969.119 806.795 996.122 833.234 1023.57 867.097C1052.45 902.647 1072.97 931.126 1090.12 959.44C1114.53 999.812 1134.94 1043.55 1152.95 1082.14C1192.91 1168.26 1228.29 1258.57 1258.12 1350.53L1257.89 1350.55C1228.07 1258.59 1192.69 1168.3 1152.74 1082.18C1134.73 1043.6 1114.32 999.872 1089.92 959.512C1072.78 931.209 1052.26 902.739 1023.4 867.2C963.895 793.798 903.745 752.592 834.098 737.52C764.508 722.514 697.797 732.162 635.433 743.332C629.52 744.392 623.558 745.486 617.794 746.542L617.183 746.654C587.53 752.084 556.869 757.699 526.124 760.371C491.573 763.374 460.847 762.226 432.188 756.859C402.268 751.156 373.581 739.346 350.719 723.392Z" fill="white" fill-opacity="0.5"/>
<path d="M1256.79 1347.49C1228 1255.79 1194.04 1165.65 1155.86 1079.56C1154.23 1075.92 1152.6 1072.27 1150.97 1068.62C1134.38 1031.41 1117.21 992.928 1095.25 956.956C1073.92 922.096 1048.53 892.167 1026.51 867.486C965.796 799.254 904.963 760.708 835.063 746.173C763.259 731.323 692.971 740.81 636.493 748.435C633.103 748.893 629.715 749.357 626.322 749.819C623.818 750.162 621.311 750.502 618.806 750.842C586.636 755.202 557.569 758.887 527.617 759.857C493.401 760.965 463.135 758.143 435.085 751.228C408.798 744.749 383.719 733.525 363.13 719.161C359.379 716.543 355.781 713.825 352.347 711.007C339.811 700.722 329.563 689.252 321.891 676.917C313.519 663.458 308.206 648.931 306.097 633.735C305.91 632.375 305.745 630.988 305.609 629.614C303.167 605.234 307.929 582.104 312.535 559.737C313.528 554.92 314.553 549.936 315.482 545.052C320.801 517.207 322.785 491.042 321.554 465.064C321.4 461.832 321.191 458.556 320.936 455.326C316.247 396.299 295.733 334.994 261.614 278.038C221.751 211.624 168.548 156.748 111.804 123.513C72.9723 100.851 23.291 91.9678 -9.0114 101.908C-31.0183 108.681 -44.6374 123.806 -48.4009 145.646L-48.6345 145.568C-46.664 134.133 -42.0558 124.529 -34.9377 117.022C-28.3847 110.11 -19.7 104.955 -9.12582 101.699C7.45909 96.5946 28.3247 96.2477 51.2145 100.699C72.385 104.816 93.9354 112.853 111.897 123.336C141.645 140.758 170.314 163.977 197.109 192.346C221.348 218.01 243.12 246.817 261.817 277.965C295.958 334.956 316.482 396.295 321.173 455.358C321.43 458.591 321.638 461.869 321.792 465.101C323.024 491.095 321.037 517.272 315.717 545.131C314.788 550.017 313.763 554.999 312.77 559.818C308.166 582.172 303.408 605.288 305.846 629.638C305.984 631.011 306.148 632.394 306.333 633.751C315.406 699.113 381.371 737.772 435.101 751.017C499.206 766.819 562.703 758.216 618.727 750.626C621.234 750.285 623.738 749.943 626.243 749.603C629.634 749.139 633.024 748.677 636.414 748.219C668.652 743.868 700.289 739.855 732.892 738.564C770.386 737.078 803.808 739.499 835.069 745.963C854.504 750.004 873.624 756.08 891.899 764.026C908.979 771.451 925.89 780.758 942.166 791.687C970.869 810.962 998.516 835.72 1026.68 867.372C1048.71 892.061 1074.11 922.004 1095.45 956.884C1117.43 992.871 1134.59 1031.36 1151.19 1068.58C1152.82 1072.23 1154.45 1075.88 1156.07 1079.51C1194.26 1165.61 1228.23 1255.77 1257.02 1347.47L1256.79 1347.49Z" fill="white" fill-opacity="0.5"/>
<path d="M1255.69 1344.42C1227.4 1251.25 1194.86 1161.25 1158.97 1076.92C1156.82 1071.88 1154.64 1066.7 1152.52 1061.69C1137.39 1025.82 1121.75 988.721 1100.59 954.398C1079.42 920.171 1052.84 891.399 1029.62 867.768C967.913 804.739 906.395 768.849 836.024 754.823C768.845 741.527 704.862 747.379 642.986 753.036L636.192 753.657C630.825 754.148 625.277 754.654 619.818 755.138C558.034 760.58 497.639 763.944 437.983 745.592C423.507 741.139 409.528 735.298 396.427 728.233C382.359 720.645 369.695 711.84 358.787 702.06C346.939 691.436 337.264 679.738 330.033 667.289C322.163 653.742 317.151 639.227 315.138 624.152C314.959 622.79 314.801 621.406 314.669 620.038C312.325 595.86 316.628 572.8 320.791 550.498C321.72 545.522 322.679 540.375 323.543 535.329C328.375 507.242 329.984 481.037 328.46 455.215C328.269 451.988 328.024 448.711 327.73 445.479C322.375 386.482 301.235 325.358 266.595 268.713C225.995 202.484 172.226 148.049 115.188 115.434C76.4357 93.373 26.8407 84.7305 -5.41557 94.4209C-27.6423 101.096 -41.7136 116.001 -46.1098 137.523L-46.3431 137.441C-44.0437 126.179 -39.1594 116.719 -31.8286 109.324C-25.0695 102.507 -16.2222 97.4221 -5.53319 94.2122C11.1201 89.211 31.9295 88.8395 54.65 93.1387C75.6782 97.1169 97.2087 104.973 115.275 115.256C145.194 132.364 174.097 155.312 201.188 183.469C225.677 208.922 247.75 237.576 266.791 268.638C301.452 325.315 322.603 386.475 327.962 445.506C328.255 448.741 328.501 452.021 328.692 455.247C330.218 481.083 328.609 507.302 323.772 535.404C322.908 540.449 321.948 545.598 321.019 550.575C316.859 572.864 312.558 595.913 314.9 620.062C315.032 621.426 315.191 622.808 315.368 624.169C323.94 688.361 384.34 728.875 438.008 745.385C497.616 763.723 557.986 760.359 619.743 754.92C625.203 754.436 630.751 753.93 636.117 753.439L642.911 752.819C673.284 750.043 704.69 747.169 736.987 746.646C773.565 746.054 805.96 748.659 836.021 754.608C855.361 758.462 874.426 764.142 892.686 771.491C909.854 778.4 926.884 787.015 943.304 797.097C972.685 815.137 1000.97 838.211 1029.78 867.639C1053.01 891.282 1079.61 920.067 1100.78 954.32C1121.95 988.659 1137.6 1025.76 1152.74 1061.65C1154.85 1066.66 1157.04 1071.83 1159.19 1076.88C1195.08 1161.22 1227.62 1251.22 1255.91 1344.4L1255.69 1344.42Z" fill="white" fill-opacity="0.5"/>
<path d="M1254.58 1341.36C1227.22 1248.01 1196.1 1158.16 1162.08 1074.29C1159.52 1067.99 1156.93 1061.48 1154.43 1055.19C1140.63 1020.52 1126.35 984.667 1105.91 951.841C1084.74 917.938 1057.04 890.46 1032.73 868.052C970.3 810.258 908.098 777.028 836.981 763.476C774.855 751.738 715.002 754.776 657.119 757.713C651.028 758.022 644.73 758.34 638.605 758.633C631.412 758.978 625.928 759.226 620.825 759.436C593.502 760.553 561.341 761.35 529.965 758.786C496.716 756.067 467.575 749.909 440.876 739.959C426.836 734.726 413.394 728.225 400.922 720.633C387.53 712.481 375.517 703.221 365.221 693.111C354.066 682.157 344.966 670.232 338.17 657.663C330.801 644.034 326.094 629.534 324.175 614.569C324.005 613.216 323.853 611.833 323.726 610.463C321.482 586.507 325.331 563.531 329.051 541.311C329.914 536.157 330.806 530.829 331.602 525.604C335.947 497.264 337.177 471.019 335.363 445.363C335.134 442.137 334.851 438.862 334.521 435.628C328.499 376.661 306.731 315.718 271.573 259.386C230.24 193.343 175.904 139.352 118.576 107.355C85.9084 89.2164 36.0279 75.8636 -1.7666 86.9189C-24.2374 93.4922 -38.7792 108.181 -43.8161 129.397L-44.046 129.31C-41.4131 118.215 -36.2452 108.897 -28.6877 101.611C-21.7117 94.8869 -12.6934 89.8729 -1.87783 86.7098C14.8382 81.8206 35.5847 81.4295 58.1251 85.5788C79.0076 89.4236 100.506 97.0935 118.664 107.176C148.753 123.968 177.893 146.649 205.275 174.589C230.013 199.831 252.386 228.335 271.77 259.31C306.949 315.673 328.729 376.651 334.755 435.653C335.085 438.887 335.368 442.166 335.595 445.393C337.41 471.062 336.179 497.322 331.834 525.675C331.039 530.903 330.146 536.231 329.284 541.385C325.563 563.593 321.718 586.558 323.96 610.487C324.088 611.856 324.24 613.236 324.411 614.588C331.298 668.34 374.855 715.133 440.923 739.755C500.754 762.055 562.575 761.595 620.768 759.216C625.871 759.006 631.353 758.756 638.545 758.412C644.67 758.119 650.969 757.801 657.06 757.491C685.555 756.045 715.02 754.549 745.1 754.887C779.115 755.266 809.172 758.006 836.984 763.261C856.24 766.931 875.247 772.212 893.481 778.963C910.751 785.356 927.899 793.281 944.449 802.514C974.582 819.327 1003.51 840.719 1032.88 867.911C1057.2 890.333 1084.92 917.828 1106.12 951.76C1126.57 984.607 1140.84 1020.47 1154.65 1055.15C1157.16 1061.44 1159.75 1067.95 1162.3 1074.25C1196.32 1158.13 1227.44 1247.99 1254.81 1341.34L1254.58 1341.36Z" fill="white" fill-opacity="0.5"/>
<path d="M1253.47 1338.29C1227.04 1244.77 1197.33 1155.06 1165.19 1071.66C1162.46 1064.57 1159.7 1057.2 1157.04 1050.08C1144.35 1016.15 1131.23 981.065 1111.25 949.282C1089.94 915.518 1061.18 889.416 1035.85 868.335C973.89 816.533 909.153 785.063 837.94 772.125C781.174 761.914 725.883 762.662 672.412 763.387C661.611 763.532 650.444 763.685 639.658 763.731C633.058 763.761 627.228 763.763 621.831 763.733C596.739 763.582 563.754 762.82 531.131 758.243C498.352 753.644 469.774 745.819 443.765 734.322C415.398 721.783 390.46 704.434 371.648 684.155C361.189 672.879 352.661 660.726 346.302 648.033C339.435 634.329 335.031 619.846 333.207 604.988C333.044 603.637 332.899 602.257 332.776 600.89C330.633 577.174 334.029 554.304 337.314 532.189C338.109 526.839 338.931 521.309 339.654 515.882C343.505 487.281 344.358 460.991 342.26 435.514C341.994 432.289 341.673 429.016 341.306 425.783C334.618 366.845 312.225 306.082 276.546 250.066C234.479 184.21 179.578 130.662 121.956 99.2819C82.8452 78.1032 34.6103 70.1175 1.93379 79.4098C-20.8053 85.8763 -35.8338 100.354 -41.527 121.278L-41.7555 121.184C-38.7813 110.25 -33.322 101.067 -25.5315 93.8904C-18.3311 87.257 -9.12673 82.3143 1.82374 79.1991C18.5979 74.4284 39.2748 74.0229 61.6201 78.0262C82.3461 81.74 103.806 89.2227 122.042 99.098C152.301 115.576 181.677 137.989 209.353 165.714C234.342 190.746 257.016 219.099 276.744 249.985C312.442 306.034 334.848 366.83 341.541 425.805C341.908 429.038 342.228 432.314 342.494 435.542C344.592 461.033 343.739 487.335 339.888 515.95C339.165 521.377 338.342 526.909 337.547 532.259C334.263 554.363 330.869 577.222 333.01 600.914C333.133 602.282 333.278 603.657 333.441 605.008C339.964 658.189 381.23 706.458 443.827 734.129C500.894 759.354 563.082 763.16 621.781 763.516C627.176 763.544 633.007 763.545 639.605 763.514C650.389 763.466 661.557 763.316 672.356 763.169C725.839 762.445 781.14 761.695 837.932 771.913C857.124 775.399 876.076 780.286 894.264 786.435C911.658 792.318 928.924 799.551 945.581 807.933C976.559 823.521 1006.13 843.232 1035.98 868.187C1061.32 889.283 1090.11 915.406 1111.44 949.206C1131.44 981.011 1144.56 1016.11 1157.26 1050.05C1159.92 1057.17 1162.68 1064.54 1165.41 1071.63C1197.56 1155.04 1227.26 1244.76 1253.7 1338.28L1253.47 1338.29Z" fill="white" fill-opacity="0.5"/>
<path d="M1252.37 1335.22C1226.87 1241.53 1198.58 1151.97 1168.3 1069.03C1165.52 1061.41 1162.74 1053.45 1160.05 1045.76C1148.35 1012.31 1136.26 977.722 1116.58 946.724C1095.07 912.979 1065.27 888.304 1038.95 868.616C977.045 822.062 911.605 793.328 838.898 780.776C787.849 772.059 737.617 771.059 689.038 770.089C672.335 769.758 656.556 769.443 640.713 768.83C634.268 768.582 628.422 768.322 622.84 768.03C586.834 766.13 558.065 762.847 532.302 757.696C499.981 751.235 471.967 741.747 446.661 728.686C436.844 723.619 427.479 717.973 418.695 711.843C403.123 700.976 389.363 688.587 378.081 675.195C357.665 650.959 345.609 624.114 342.246 595.404C342.091 594.046 341.952 592.67 341.835 591.312C339.793 567.86 342.742 545.126 345.596 523.138C346.318 517.567 347.066 511.81 347.715 506.156C351.068 477.28 351.54 450.949 349.166 425.662C348.863 422.437 348.505 419.165 348.1 415.932C340.745 357.024 317.725 296.442 281.527 240.739C238.726 175.071 183.261 121.966 125.347 91.2027C85.8035 70.3237 38.841 62.7388 5.70773 71.8829C-17.3239 78.2377 -32.8607 92.5094 -39.2277 113.153L-39.4559 113.055C-36.1306 102.275 -30.3712 93.2236 -22.3357 86.1523C-14.897 79.6073 -5.50032 74.7355 5.59974 71.6735C22.4263 67.0295 43.0207 66.6152 65.1601 70.4749C85.7253 74.0593 107.128 81.3562 125.43 91.019C155.86 107.183 185.471 129.327 213.439 156.836C238.677 181.66 261.65 209.861 281.725 240.658C317.942 296.394 340.976 357.009 348.336 415.954C348.74 419.187 349.098 422.46 349.402 425.688C351.779 450.989 351.306 477.334 347.951 506.221C347.302 511.875 346.555 517.635 345.831 523.205C342.979 545.181 340.03 567.906 342.071 591.338C342.189 592.695 342.326 594.069 342.482 595.425C348.759 649.039 386.759 697.542 446.74 728.498C503.838 757.965 567.781 764.906 622.804 767.81C628.383 768.101 634.228 768.363 640.674 768.61C656.515 769.222 672.292 769.538 688.995 769.87C737.582 770.837 787.825 771.84 838.893 780.56C858.048 783.867 876.943 788.356 895.058 793.904C912.602 799.278 929.987 805.819 946.725 813.347C978.648 827.704 1008.86 845.731 1039.08 868.456C1065.42 888.16 1095.24 912.859 1116.77 946.643C1136.47 977.665 1148.57 1012.27 1160.27 1045.73C1162.96 1053.42 1165.74 1061.38 1168.53 1069C1198.81 1151.94 1227.09 1241.51 1252.6 1335.21L1252.37 1335.22Z" fill="white" fill-opacity="0.5"/>
<path d="M1251.26 1332.16C1226.36 1236.97 1200.24 1150.04 1171.42 1066.4C1168.66 1058.42 1166.06 1050.41 1163.31 1041.94C1152.53 1008.8 1141.39 974.542 1121.91 944.167C1100.02 910.163 1067.74 886.081 1042.07 868.9C980.756 827.646 914.611 801.65 839.855 789.429C794.949 782.175 750.349 779.973 707.216 777.845C684.548 776.727 663.138 775.669 641.765 773.93C635.42 773.416 629.557 772.891 623.846 772.328C588.457 768.815 559.741 763.991 533.471 757.146C501.584 748.838 474.135 737.685 449.554 723.05C436.924 715.53 425.098 707.033 414.403 697.797C403.08 688.018 393.024 677.397 384.513 666.234C365.65 641.488 354.469 614.435 351.283 585.824C351.135 584.469 351.004 583.096 350.89 581.74C348.95 558.586 351.459 536.017 353.885 514.191C354.532 508.368 355.201 502.346 355.772 496.435C358.62 467.275 358.716 440.904 356.066 415.814C355.724 412.589 355.328 409.317 354.891 406.088C346.869 347.209 323.223 286.809 286.507 231.419C252.566 180.372 211.021 137.105 166.781 106.233C154.275 97.5053 141.562 89.7743 128.735 83.1296C89.4019 62.8826 42.6174 55.512 9.54148 64.3502C-13.8049 70.5901 -29.8767 84.659 -36.9351 105.035L-37.162 104.93C-33.4799 94.2971 -27.4085 85.3729 -19.1184 78.4063C-11.4338 71.9476 -1.82671 67.1471 9.43255 64.1378C26.3058 59.6286 46.8078 59.2107 68.7274 62.9292C89.4186 66.4384 110.196 73.3595 128.81 82.9432C159.41 98.7921 189.257 120.67 217.52 147.963C243.007 172.574 266.284 200.624 286.702 231.333C323.438 286.755 347.1 347.19 355.127 406.105C355.567 409.335 355.963 412.61 356.304 415.837C358.955 440.939 358.859 467.323 356.011 496.497C355.44 502.408 354.772 508.431 354.124 514.256C351.699 536.072 349.191 558.632 351.128 581.768C351.243 583.122 351.374 584.495 351.521 585.846C357.481 639.349 393.248 689.29 449.653 722.873C506.729 756.854 572.715 767.035 623.826 772.11C629.538 772.673 635.399 773.197 641.743 773.712C663.111 775.453 684.52 776.508 707.185 777.626C750.323 779.756 794.93 781.956 839.853 789.213C878.341 795.505 913.672 805.172 947.87 818.767C980.85 831.877 1011.7 848.222 1042.18 868.733C1059.6 880.39 1073.22 890.759 1085.03 901.361C1100.29 915.049 1112.41 929.024 1122.11 944.087C1141.61 974.489 1152.75 1008.77 1163.54 1041.92C1166.29 1050.39 1168.9 1058.4 1171.64 1066.38C1200.47 1150.02 1226.59 1236.95 1251.5 1332.15L1251.26 1332.16Z" fill="white" fill-opacity="0.5"/>
<path d="M1250.16 1329.09C1226.21 1233.72 1201.47 1146.93 1174.53 1063.77C1171.86 1055.54 1169.37 1047.24 1166.72 1038.45C1156.82 1005.52 1146.58 971.464 1127.24 941.606C1105.05 907.484 1071.73 884.976 1045.18 869.18C985.2 833.289 918.35 810.031 840.816 798.076C802.567 792.253 764.267 789.407 727.226 786.656C697.945 784.48 670.29 782.427 642.824 779.023C636.615 778.256 630.568 777.447 624.856 776.617C590.437 771.609 560.93 765.055 534.646 756.584C503.174 746.441 476.287 733.627 452.45 717.407C440.323 709.153 429.033 699.989 418.904 690.171C408.286 679.877 398.881 668.805 390.952 657.26C373.645 632.061 363.338 604.8 360.322 576.234C360.184 574.888 360.057 573.516 359.95 572.157C358.113 549.341 360.188 526.983 362.193 505.36C362.76 499.243 363.347 492.915 363.833 486.704C366.171 457.247 365.889 430.835 362.972 405.956C362.593 402.732 362.16 399.461 361.685 396.233C352.997 337.383 328.723 277.163 291.489 222.087C247.219 156.799 190.62 104.578 132.123 75.0453C93.0392 55.4326 46.4565 48.2686 13.45 56.7923C-10.2406 62.9114 -26.8689 76.782 -34.6418 96.9051L-34.8653 96.7954C-30.8145 86.3053 -24.4213 77.5035 -15.8615 70.6373C-7.91499 64.2639 1.91007 59.5327 13.3443 56.5797C30.2532 52.2124 50.653 51.7963 72.3388 55.3759C92.8498 58.7618 113.548 65.4984 132.199 74.8573C162.971 90.3947 193.053 112.001 221.607 139.078C247.343 163.482 270.919 191.381 291.681 221.999C328.939 277.107 353.226 337.362 361.917 396.246C362.394 399.476 362.828 402.75 363.206 405.976C366.126 430.869 366.406 457.292 364.069 486.761C363.584 492.973 362.996 499.3 362.429 505.421C360.425 527.034 358.351 549.382 360.186 572.183C360.295 573.541 360.421 574.912 360.558 576.255C366.31 630.711 398.982 680.782 452.563 717.237C496.037 746.819 550.781 765.617 624.844 776.397C630.554 777.225 636.598 778.035 642.807 778.802C670.266 782.203 697.919 784.259 727.195 786.432C764.241 789.184 802.548 792.03 840.807 797.855C879.9 803.882 915.292 812.493 949.008 824.176C983.165 836.012 1014.66 850.673 1045.28 868.998C1071.86 884.81 1105.22 907.347 1127.44 941.522C1146.8 971.413 1157.04 1005.48 1166.95 1038.43C1169.59 1047.22 1172.09 1055.52 1174.76 1063.74C1201.71 1146.91 1226.45 1233.7 1250.39 1329.08L1250.16 1329.09Z" fill="white" fill-opacity="0.5"/>
<path d="M1249.05 1326.02C1226.08 1230.47 1202.72 1143.83 1177.64 1061.14C1175.1 1052.74 1172.74 1044.23 1170.25 1035.21C1161.19 1002.4 1151.82 968.475 1132.57 939.052C1110.06 904.772 1075.71 883.856 1048.29 869.463C989.836 838.595 924.215 818.662 841.776 806.729C810.821 802.305 779.606 799.366 749.419 796.524C712.755 793.071 678.123 789.811 643.879 784.122C637.708 783.1 631.646 782.021 625.864 780.915C591.823 774.391 562.37 766.251 535.822 756.026C520.952 750.3 506.846 743.825 493.895 736.782C480.081 729.269 467.111 720.854 455.345 711.772C431.474 693.342 411.975 671.985 397.392 648.295C381.643 622.709 372.212 595.242 369.364 566.655C369.234 565.306 369.115 563.936 369.008 562.585C367.278 540.16 368.925 518.068 370.518 496.707C371 490.239 371.499 483.553 371.893 476.983C373.713 447.216 373.053 420.762 369.875 396.108C369.46 392.883 368.988 389.611 368.476 386.387C359.123 327.565 334.223 267.527 296.468 212.767C251.464 147.671 194.301 95.8942 135.51 66.9718C72.465 36.1386 -9.63637 35.7112 -32.3466 88.7859L-32.5688 88.6699C-26.8884 75.3928 -17.505 64.9556 -4.67922 57.644C7.03381 50.9662 21.3772 46.9985 37.9507 45.8536C53.3606 44.7882 69.9828 46.1838 87.3532 49.9991C103.874 53.6282 120.552 59.4306 135.582 66.7809C166.524 82.0038 196.842 103.343 225.689 130.206C251.674 154.402 275.551 182.15 296.658 212.679C334.432 267.473 359.348 327.546 368.707 386.402C369.22 389.629 369.692 392.901 370.108 396.129C373.287 420.794 373.947 447.262 372.127 477.042C371.734 483.612 371.234 490.298 370.752 496.767C369.16 518.122 367.514 540.204 369.243 562.617C369.348 563.967 369.465 565.335 369.595 566.683C375.072 621.624 405.571 673.094 455.471 711.618C497.717 744.228 553.451 766.828 625.862 780.703C631.642 781.809 637.7 782.887 643.871 783.91C678.107 789.597 712.733 792.856 749.392 796.308C779.582 799.15 810.801 802.089 841.761 806.513C924.233 818.451 989.884 838.395 1048.38 869.278C1066.8 878.949 1081.29 888.043 1093.98 897.904C1110.21 910.509 1122.9 923.939 1132.76 938.968C1152.04 968.424 1161.41 1002.37 1170.48 1035.19C1172.97 1044.21 1175.32 1052.73 1177.87 1061.12C1202.95 1143.82 1226.3 1230.46 1249.28 1326.02L1249.05 1326.02Z" fill="white" fill-opacity="0.5"/>
<path d="M1247.95 1322.96C1225.95 1227.22 1203.97 1140.72 1180.75 1058.51C1178.35 1050 1176.17 1041.32 1173.86 1032.13C1165.62 999.39 1157.1 965.532 1137.9 936.492C1114.79 901.633 1077.47 881.703 1051.41 869.744C980.777 837.145 906.287 823.967 842.737 815.381C819.871 812.33 796.689 809.823 774.269 807.397C729.294 802.531 686.814 797.936 644.937 789.223C638.777 787.942 632.702 786.594 626.875 785.214C593.122 777.199 563.724 767.47 537.004 755.47C506.713 741.866 480.215 725.27 458.243 706.137C435.671 686.482 417.365 664.003 403.838 639.327C389.648 613.445 381.092 585.774 378.403 557.076C378.282 555.732 378.168 554.364 378.067 553.013C376.445 531.052 377.677 509.309 378.867 488.28C379.258 481.389 379.659 474.264 379.954 467.262C381.269 436.752 380.259 411.014 376.781 386.26C376.328 383.036 375.82 379.768 375.27 376.542C365.246 317.748 339.717 257.89 301.445 203.441C255.706 138.539 197.978 87.2036 138.894 58.8933C75.2092 28.5436 -5.39748 28.387 -30.0547 80.6634L-30.2734 80.5424C-24.1557 67.573 -14.4859 57.3526 -1.53519 50.1647C10.3329 43.5806 24.7285 39.6346 41.2533 38.4411C56.6633 37.3272 73.2592 38.6289 90.5841 42.3076C107.08 45.8099 123.811 51.4806 138.966 58.7024C170.082 73.6121 200.632 94.6828 229.772 121.329C256.007 145.316 280.185 172.913 301.636 203.353C339.932 257.833 365.474 317.724 375.5 376.551C376.048 379.779 376.557 383.05 377.012 386.276C380.494 411.042 381.501 436.793 380.186 467.315C379.892 474.317 379.489 481.443 379.098 488.334C377.91 509.357 376.679 531.093 378.298 553.042C378.398 554.393 378.511 555.758 378.633 557.102C383.86 612.887 412.181 665.764 458.381 705.992C499.815 742.073 554.933 767.915 626.885 785.002C632.709 786.382 638.783 787.732 644.939 789.01C686.805 797.72 729.278 802.316 774.246 807.179C796.667 809.605 819.852 812.112 842.721 815.163C885.454 820.939 919.953 827.248 951.285 835.017C988.171 844.163 1020.94 855.459 1051.47 869.55C1070.11 878.103 1085.48 886.812 1098.46 896.177C1115.17 908.234 1128.14 921.393 1138.1 936.408C1157.32 965.486 1165.84 999.363 1174.08 1032.12C1176.4 1041.31 1178.58 1049.99 1180.98 1058.49C1204.2 1140.71 1226.18 1227.22 1248.18 1322.96L1247.95 1322.96Z" fill="white" fill-opacity="0.5"/>
<path d="M1246.84 1319.89C1225.83 1223.97 1205.23 1137.61 1183.87 1055.87C1181.63 1047.3 1179.63 1038.51 1177.51 1029.19C1170.08 996.47 1162.4 962.635 1143.24 933.934C1119.75 898.86 1081.36 880.662 1054.52 870.025C988.331 843.639 919.881 833.585 843.698 824.032C829.944 822.329 815.957 820.716 802.427 819.157C750.395 813.159 696.596 806.959 645.993 794.32C639.845 792.787 633.75 791.167 627.882 789.508C594.804 780.144 564.626 768.502 538.185 754.905C508.231 739.503 482.31 721.198 461.135 700.497C439.865 679.704 422.755 656.103 410.279 630.351C397.653 604.29 389.967 576.411 387.433 547.491C387.319 546.15 387.213 544.785 387.116 543.436C385.609 522.042 386.436 500.753 387.236 480.165C387.524 472.746 387.821 465.077 388.004 457.538C388.779 426.684 387.403 400.905 383.674 376.409C383.185 373.193 382.638 369.923 382.051 366.693C371.37 307.928 345.218 248.254 306.422 194.116C259.95 129.409 201.658 78.5178 142.279 50.8149C80.2167 21.9997 -0.468941 19.8199 -27.764 72.5379L-27.9792 72.4121C-21.423 59.7486 -11.4679 49.7468 1.60763 42.6826C13.6299 36.189 28.0785 32.2679 44.5525 31.0243C74.9459 28.7325 110.59 35.8755 142.347 50.6211C173.631 65.2179 204.418 86.02 233.853 112.45C260.336 136.231 284.814 163.674 306.61 194.023C345.427 248.19 371.594 307.901 382.286 366.698C382.874 369.931 383.421 373.202 383.911 376.421C387.64 400.929 389.018 426.719 388.241 457.584C388.058 465.125 387.762 472.796 387.474 480.214C386.675 500.797 385.848 522.082 387.353 543.465C387.448 544.812 387.556 546.176 387.67 547.517C392.737 605.378 418.194 658.231 461.287 700.362C501.191 739.374 557.246 769.295 627.901 789.297C633.767 790.955 639.856 792.573 646.001 794.106C696.586 806.74 750.379 812.941 802.401 818.936C815.93 820.495 829.918 822.108 843.674 823.812C877.022 827.994 915.677 833.073 952.422 840.433C990.858 848.133 1024.27 857.747 1054.57 869.825C1073.67 877.395 1089.49 885.451 1102.94 894.449C1119.9 905.797 1133.51 919.052 1143.42 933.847C1152.01 946.704 1159.08 961.888 1165.05 980.268C1170.32 996.497 1174.09 1013.12 1177.74 1029.19C1179.85 1038.5 1181.85 1047.3 1184.09 1055.86C1205.46 1137.61 1226.06 1223.97 1247.07 1319.89L1246.84 1319.89Z" fill="white" fill-opacity="0.5"/>
<path d="M1245.74 1316.82C1225.72 1220.72 1206.5 1134.5 1186.98 1053.24C1184.91 1044.64 1183.11 1035.76 1181.21 1026.36C1174.57 993.62 1167.72 959.771 1148.56 931.378C1130.65 904.875 1100.9 884.898 1057.63 870.307C997.197 849.824 935.244 842.874 869.651 835.517C861.483 834.601 853.04 833.654 844.654 832.686C841.368 832.31 838.078 831.936 834.791 831.562C772.359 824.457 707.801 817.112 647.047 799.421C640.905 797.633 634.796 795.745 628.89 793.807C595.958 782.988 565.839 769.712 539.374 754.346C509.739 737.14 484.389 717.126 464.034 694.864C444.058 673.015 428.144 648.294 416.734 621.386C405.675 595.304 398.859 567.222 396.476 537.915C396.37 536.576 396.271 535.214 396.179 533.866C394.793 513.195 395.237 492.52 395.663 472.524C395.836 464.427 396.014 456.052 396.069 447.818C396.295 416.602 394.555 390.783 390.585 366.563C390.057 363.345 389.474 360.078 388.85 356.849C377.495 298.11 350.716 238.615 311.401 184.793C264.197 120.284 205.337 69.832 145.665 42.738C84.3539 15.0095 3.53847 13.1824 -25.4704 64.417L-25.6855 64.2865C-18.6875 51.9288 -8.44925 42.1441 4.74895 35.2069C16.9275 28.8052 31.4294 24.9042 47.8524 23.6154C78.1863 21.2333 113.859 28.1333 145.729 42.5461C177.186 56.8297 208.207 77.3617 237.933 103.576C264.667 127.147 289.448 154.441 311.588 184.699C350.924 238.554 377.722 298.084 389.079 356.85C389.703 360.079 390.288 363.352 390.816 366.57C394.786 390.803 396.531 416.633 396.303 447.86C396.25 456.095 396.07 464.47 395.898 472.569C395.47 492.558 395.028 513.23 396.414 533.894C396.505 535.241 396.604 536.601 396.71 537.939C401.556 597.531 424.893 651.75 464.201 694.739C503.002 737.177 558.424 770.437 628.926 793.598C634.827 795.533 640.933 797.422 647.072 799.209C707.805 816.895 772.351 824.24 834.771 831.341C838.061 831.715 841.348 832.089 844.634 832.465C853.02 833.433 861.463 834.38 869.63 835.297C935.237 842.656 997.206 849.609 1057.67 870.101C1077.22 876.693 1093.49 884.095 1107.42 892.725C1124.85 903.528 1138.76 916.504 1148.76 931.291C1157.34 944.007 1164.24 959.119 1169.86 977.491C1174.82 993.699 1178.19 1010.3 1181.44 1026.36C1183.35 1035.76 1185.14 1044.64 1187.21 1053.24C1206.73 1134.5 1225.95 1220.72 1245.97 1316.83L1245.74 1316.82Z" fill="white" fill-opacity="0.5"/>
<path d="M1244.63 1313.76C1227.1 1224.99 1208.75 1136.45 1190.09 1050.61C1188.17 1041.9 1186.56 1032.86 1184.85 1023.28C1179.29 992.137 1172.99 956.837 1153.89 928.821C1135.68 902.134 1105.21 883.087 1060.75 870.587C1007.91 855.675 955.126 851.124 899.239 846.304C881.738 844.795 863.638 843.235 845.611 841.334C814.127 838.044 780.275 834.188 746.065 828.319C709.427 822.035 677.383 814.247 648.098 804.514C641.945 802.469 635.821 800.312 629.894 798.098C597.105 785.845 567.061 770.927 540.595 753.759C511.298 734.752 486.511 713.042 466.925 689.222C430.866 645.078 410.201 590.946 405.508 528.329C405.409 526.993 405.317 525.633 405.23 524.288C403.975 504.578 404.06 484.768 404.143 465.61C404.181 456.593 404.223 447.268 404.12 438.093C403.791 406.497 401.682 380.637 397.481 356.712C396.915 353.491 396.295 350.226 395.635 347C383.622 288.292 356.213 228.979 316.38 175.469C268.443 111.155 209.018 61.1496 149.052 34.6615C86.9789 7.32232 7.88645 5.97414 -23.1788 56.2951L-23.3892 56.1579C-15.9484 44.1045 -5.42285 34.5398 7.89385 27.7266C20.2318 21.4168 34.7858 17.5375 51.1537 16.2004C66.574 14.9402 83.0973 15.9599 100.264 19.2288C116.93 22.404 133.365 27.5295 149.112 34.465C180.741 48.4372 211.999 68.7006 242.017 94.6976C268.998 118.063 294.079 145.204 316.564 175.372C356.422 228.913 383.846 288.261 395.868 347C396.527 350.227 397.15 353.497 397.716 356.717C401.917 380.655 404.028 406.526 404.359 438.133C404.46 447.309 404.419 456.634 404.379 465.653C404.297 484.81 404.211 504.617 405.466 524.319C405.55 525.664 405.645 527.023 405.742 528.358C410.432 590.927 431.076 645.013 467.102 689.113C504.322 734.379 560.63 771.996 629.94 797.896C635.863 800.108 641.986 802.266 648.133 804.31C713.607 826.072 781.579 834.426 845.587 841.115C863.614 843.016 881.71 844.575 899.211 846.085C955.11 850.905 1007.91 855.457 1060.77 870.377C1105.3 882.896 1135.83 901.984 1154.08 928.732C1162.64 941.28 1169.35 956.281 1174.62 974.59C1179.27 990.735 1182.22 1007.29 1185.08 1023.29C1186.79 1032.87 1188.4 1041.91 1190.32 1050.61C1208.98 1136.46 1227.33 1224.99 1244.86 1313.76L1244.63 1313.76Z" fill="white" fill-opacity="0.5"/>
<path d="M1243.52 1310.69C1227.01 1222.21 1210.08 1133.82 1193.2 1047.98C1191.49 1039.33 1190.1 1030.31 1188.63 1020.75C1183.82 989.493 1178.37 954.062 1159.23 926.259C1140.7 899.382 1109.51 881.262 1063.86 870.861C1016.05 859.942 966.928 857.355 919.423 854.855C895.604 853.601 870.972 852.303 846.572 849.981C808.049 846.332 776.492 842.035 747.259 836.457C711.212 829.579 679.121 820.796 649.155 809.609C643.003 807.314 636.861 804.884 630.903 802.39C599.859 789.391 571.31 773.853 545.966 756.17C544.558 755.187 543.164 754.2 541.777 753.205C512.743 732.379 488.534 708.953 469.824 683.581C460.808 671.311 452.792 658.13 446.002 644.404C439.62 631.502 434.121 617.715 429.659 603.426C421.63 577.717 416.686 550.015 414.545 518.743C414.455 517.399 414.367 516.054 414.286 514.709C413.181 496.368 412.954 477.843 412.736 459.929C412.608 449.587 412.479 438.894 412.18 428.364C411.269 395.931 408.867 370.792 404.384 346.855C403.781 343.635 403.123 340.37 402.426 337.145C389.746 278.472 361.712 219.341 321.36 166.144C272.691 102.028 212.7 52.4648 152.439 26.5825C91.1507 0.299767 11.9362 -0.724367 -20.8829 48.1705L-21.0899 48.0285C-5.80339 25.2539 20.3218 11.6847 54.459 8.78761C69.8892 7.47821 86.3862 8.404 103.498 11.537C120.148 14.5863 136.633 19.5818 152.5 26.3861C184.299 40.0436 215.792 60.0401 246.103 85.8198C273.332 108.979 298.714 135.969 321.543 166.043C361.92 219.274 389.97 278.44 402.659 337.15C403.355 340.376 404.015 343.645 404.619 346.865C409.102 370.815 411.506 395.963 412.416 428.407C412.714 438.938 412.846 449.633 412.971 459.973C413.19 477.886 413.417 496.408 414.522 514.745C414.603 516.089 414.688 517.433 414.78 518.775C419.328 585.228 437.394 639.105 470.009 683.486C515.258 744.848 582.509 781.91 630.959 802.195C636.913 804.687 643.05 807.115 649.2 809.409C718.121 835.138 790.868 844.491 846.545 849.765C870.941 852.089 895.57 853.385 919.387 854.639C966.903 857.142 1016.03 859.727 1063.87 870.653C1084.29 875.306 1101.47 881.397 1116.37 889.274C1134.75 898.986 1149.23 911.402 1159.41 926.174C1167.99 938.624 1174.56 953.604 1179.49 971.967C1183.84 988.146 1186.4 1004.73 1188.86 1020.77C1190.33 1030.32 1191.72 1039.35 1193.43 1047.99C1210.31 1133.83 1227.24 1222.21 1243.76 1310.7L1243.52 1310.69Z" fill="white" fill-opacity="0.5"/>
<path d="M1242.42 1307.62L1196.32 1045.35C1194.81 1036.79 1193.65 1027.8 1192.42 1018.29C1188.36 986.894 1183.77 951.313 1164.56 923.705C1145.98 897.008 1113.15 879.325 1066.97 871.145C1022.58 863.281 977.56 862.603 934.021 861.948C905.641 861.521 876.296 861.078 847.53 858.638C761.071 851.303 692.557 834.796 631.913 806.69C606.756 795.03 583.275 781.611 561.854 766.663C555.361 762.132 549.062 757.463 542.958 752.659C514.174 730 490.542 704.862 472.721 677.947C456.205 653 444.225 625.694 436.105 594.47C429.62 569.537 425.64 542.431 423.583 509.166C422.496 491.61 422.001 473.811 421.522 456.599C420.436 417.647 419.314 377.37 411.291 337.011C398.982 275.108 369.605 212.799 326.337 156.819C276.936 92.9041 216.381 43.7823 155.826 18.5059C97.1982 -5.96627 17.6116 -9.66399 -18.5912 40.0484L-18.7948 39.9014C-2.61253 17.6814 23.8604 4.35961 57.7613 1.37561C88.4138 -1.32251 123.26 4.69131 155.883 18.3096C187.854 31.6557 219.583 51.3835 250.184 76.9445C277.663 99.8953 303.345 126.737 326.519 156.72C347.929 184.419 366.067 213.872 380.432 244.262C394.916 274.906 405.378 306.112 411.523 337.012C419.551 377.386 420.674 417.675 421.76 456.636C422.24 473.847 422.736 491.643 423.822 509.196C426.822 557.732 435.116 620.765 472.919 677.861C516.272 743.339 583.346 783.953 631.982 806.495C692.594 834.588 761.078 851.087 847.503 858.417C876.257 860.856 905.601 861.298 933.976 861.727C977.523 862.383 1022.56 863.062 1066.97 870.929C1113.23 879.123 1146.13 896.849 1164.75 923.615C1173.35 935.976 1179.77 950.942 1184.38 969.373C1188.43 985.596 1190.58 1002.23 1192.66 1018.3C1193.88 1027.82 1195.05 1036.8 1196.55 1045.36L1242.65 1307.64L1242.42 1307.62Z" fill="white" fill-opacity="0.5"/>
<path d="M1249.48 1294.86C1240.31 1224.39 1231.04 1165.94 1220.31 1110.9C1215.11 1084.17 1209.4 1057.45 1203.34 1031.48C1201.5 1023.62 1199.91 1015.52 1198.23 1006.93C1193.99 985.361 1189.61 963.055 1180.89 942.677C1176.21 931.726 1170.81 922.458 1164.39 914.345C1144.74 889.367 1111.99 873.959 1067.04 868.552C1043.79 865.74 1021.18 865.232 1002.14 865.105C981.976 864.971 961.326 865.929 941.355 866.854C912.651 868.186 882.97 869.562 853.303 867.83C835.235 866.799 817.573 864.819 800.804 861.945C767.256 856.194 733.313 847.06 699.92 834.796C679.323 827.168 659.415 818.374 640.752 808.659C624.673 800.278 609.13 791.072 594.553 781.292C572.736 766.657 552.805 750.5 535.315 733.265C516.719 714.939 500.752 695.259 487.86 674.77C476.364 656.5 467.018 637.076 459.29 615.385C444.878 574.982 438.491 535.436 434.537 505.498C432.624 490.749 431.03 475.956 429.487 461.651C425.048 420.454 420.854 381.542 409.516 341.577C400.189 309.097 386.159 276.894 367.811 245.855C353.711 222.003 336.602 198.603 316.961 176.306C312.281 170.996 307.429 165.706 302.542 160.588C281.496 138.562 256.168 116.109 227.265 93.8519C198.148 71.3801 171.208 54.444 144.908 42.0833C130.052 35.0776 114.712 29.6467 99.3104 25.9362C44.9359 12.838 -2.06653 21.7476 -26.4221 49.7712L-26.6669 49.5736C-20.1741 42.1029 -12.1004 35.9158 -2.66982 31.1797C6.2885 26.6816 16.529 23.4607 27.7666 21.6054C48.9974 18.1032 73.7431 19.5091 99.3263 25.6721C114.752 29.3873 130.116 34.8277 144.995 41.8444C171.322 54.2191 198.284 71.1679 227.425 93.6586C256.344 115.927 281.684 138.393 302.744 160.434C307.636 165.558 312.49 170.85 317.173 176.164C336.831 198.478 353.954 221.897 368.064 245.769C386.424 276.829 400.466 309.059 409.796 341.558C421.141 381.548 425.335 420.469 429.777 461.678C431.318 475.982 432.914 490.773 434.826 505.519C438.777 535.443 445.161 574.97 459.566 615.349C467.286 637.017 476.621 656.422 488.104 674.67C513.336 714.768 549.195 750.57 594.688 781.081C609.252 790.852 624.785 800.052 640.851 808.426C659.501 818.132 679.394 826.921 699.974 834.542C733.348 846.799 767.27 855.929 800.797 861.675C817.554 864.548 835.206 866.526 853.259 867.556C882.909 869.286 912.583 867.91 941.278 866.578C961.252 865.653 981.906 864.693 1002.08 864.829C1021.13 864.955 1043.75 865.466 1067.02 868.28C1087.03 870.687 1104.9 875.174 1120.14 881.617C1138.86 889.53 1153.83 900.499 1164.62 914.217C1171.05 922.355 1176.46 931.648 1181.16 942.625C1189.9 963.034 1194.28 985.354 1198.52 1006.94C1200.2 1015.52 1201.79 1023.63 1203.63 1031.48C1209.69 1057.46 1215.41 1084.18 1220.6 1110.91C1231.33 1165.95 1240.6 1224.41 1249.77 1294.89L1249.48 1294.86Z" fill="white" fill-opacity="0.5"/>
<path d="M1256.54 1282.1C1250.74 1212.89 1242.18 1152.4 1230.38 1097.17C1224.64 1070.2 1217.9 1043.44 1210.36 1017.61C1208.36 1010.76 1206.52 1003.8 1204.57 996.436C1198.72 974.384 1192.68 951.581 1182.18 931.393C1176.89 921.18 1171.02 912.544 1164.23 904.985C1138.23 876.04 1097.07 867.786 1067.11 865.956C1045.91 864.633 1025.17 865.395 1004.02 866.366C985.507 867.216 967.219 869.264 947.859 871.432C919.123 874.652 889.409 877.98 859.08 877.021C841.052 876.495 823.25 874.496 806.169 871.077C774.35 864.712 741.875 854.348 706.885 839.397C687.304 831.029 668.026 821.349 649.588 810.623C634.041 801.559 619.058 791.743 605.058 781.439C584.225 766.117 565.158 749.284 548.38 731.406C530.76 712.629 515.491 692.503 502.997 671.588C492.049 653.265 482.858 633.595 474.898 611.457C460.421 571.279 451.575 531.764 445.489 501.829C443.237 490.747 441.118 479.701 439.07 469.015C430.912 426.463 423.208 386.269 407.744 346.145C396.187 316.158 380.36 286.577 360.708 258.228C345.838 236.778 328.463 216.357 307.593 195.798C302.775 191.055 297.798 186.338 292.804 181.778C270.854 161.767 245.91 142.585 215.584 119.586C193.755 102.962 164.756 81.8097 133.989 65.6549C119.44 57.9721 104.483 51.8247 89.5343 47.3778C36.8994 31.7253 -9.37543 36.2539 -34.2555 59.4928L-34.5316 59.2392C-27.9349 53.0761 -19.8501 48.1584 -10.506 44.6165C-1.60088 41.2432 8.50249 39.1006 19.5249 38.2425C40.4694 36.6158 64.6919 39.6662 89.5738 47.0668C104.551 51.5213 119.536 57.681 134.11 65.3763C164.907 81.5449 193.928 102.715 215.771 119.348C246.107 142.354 271.059 161.542 293.025 181.567C298.022 186.131 303.003 190.851 307.827 195.599C328.716 216.178 346.109 236.619 360.995 258.092C380.668 286.47 396.508 316.075 408.077 346.093C423.552 386.246 431.261 426.454 439.421 469.021C441.468 479.704 443.586 490.75 445.84 501.83C451.927 531.756 460.768 571.255 475.235 611.412C483.185 633.526 492.366 653.174 503.301 671.476C527.869 712.601 562.169 749.518 605.242 781.198C619.231 791.491 634.198 801.299 649.731 810.353C668.152 821.069 687.413 830.741 706.976 839.1C741.937 854.04 774.385 864.395 806.176 870.756C823.236 874.169 841.014 876.167 859.022 876.691C889.325 877.648 919.027 874.321 947.751 871.105C967.118 868.936 985.409 866.887 1003.93 866.038C1025.09 865.065 1045.84 864.304 1067.07 865.627C1086.49 866.812 1104.09 870.202 1119.4 875.7C1137.96 882.366 1153.13 892.16 1164.49 904.808C1171.3 912.395 1177.19 921.061 1182.5 931.304C1193.02 951.528 1199.07 974.351 1204.91 996.422C1206.87 1003.78 1208.71 1010.74 1210.71 1017.59C1218.25 1043.42 1224.99 1070.2 1230.73 1097.17C1242.53 1152.42 1251.09 1212.92 1256.9 1282.14L1256.54 1282.1Z" fill="white" fill-opacity="0.5"/>
<path d="M1263.6 1269.33C1261.05 1200.43 1253.48 1139.62 1240.44 1083.43C1234.15 1056.23 1226.4 1029.42 1217.39 1003.74C1215.46 998.25 1213.54 992.51 1211.68 986.961C1204.01 964.036 1196.08 940.333 1183.47 920.113C1177.57 910.597 1171.23 902.587 1164.07 895.629C1136.61 868.92 1096.23 863.339 1067.19 863.359C1047.53 863.336 1028.15 865.334 1009.41 867.267L1005.9 867.629C988.888 869.376 971.916 872.469 953.945 875.744C925.329 880.96 895.741 886.352 864.857 886.211C846.844 886.19 828.902 884.172 811.53 880.209C781.242 873.301 750.2 861.791 713.845 843.993C695.046 834.789 676.399 824.222 658.421 812.583C643.407 802.834 628.986 792.405 615.558 781.581C574.896 748.823 542.117 710.745 518.129 668.402C507.76 650.098 498.722 630.187 490.506 607.529C476.572 569.226 466.037 532.497 456.442 498.162C455.155 493.559 453.889 488.995 452.631 484.466C439.585 437.487 427.264 393.113 405.974 350.722C392.075 323.046 374.454 296.09 353.603 270.603C338.295 251.892 320.179 233.799 298.226 215.293C293.276 211.126 288.176 206.98 283.066 202.971C270.203 192.898 256.098 182.878 241.163 172.268C229.168 163.747 216.765 154.936 203.898 145.321C179.096 126.681 150.986 105.557 123.062 89.2279C108.654 80.8032 94.0823 73.9379 79.7497 68.8225C28.8837 50.6702 -16.6679 50.8197 -42.1008 69.2225L-42.3949 68.9027C-35.6902 64.05 -27.5964 60.4003 -18.3398 58.0542C-9.48817 55.8104 0.478222 54.7415 11.2813 54.8776C31.9431 55.1387 55.6444 59.8398 79.82 68.4673C94.1851 73.5931 108.787 80.4722 123.223 88.9139C151.174 105.26 179.298 126.396 204.11 145.043C216.971 154.65 229.372 163.463 241.363 171.982C256.304 182.595 270.413 192.619 283.288 202.702C288.401 206.715 293.507 210.865 298.46 215.036C320.442 233.564 338.578 251.679 353.908 270.417C374.784 295.933 392.424 322.919 406.338 350.625C427.648 393.055 439.975 437.45 453.026 484.449C454.283 488.978 455.552 493.542 456.837 498.145C466.429 532.474 476.96 569.192 490.89 607.483C499.099 630.116 508.126 650.007 518.484 668.289C542.439 710.577 575.177 748.605 615.786 781.32C629.198 792.132 643.605 802.55 658.603 812.288C676.562 823.914 695.191 834.471 713.969 843.666C750.288 861.446 781.293 872.942 811.542 879.842C828.877 883.796 846.784 885.81 864.767 885.831C895.612 885.972 925.182 880.582 953.781 875.369C971.76 872.092 988.742 868.998 1005.77 867.25L1009.28 866.888C1028.03 864.955 1047.42 862.955 1067.1 862.978C1096.23 862.957 1136.75 868.567 1164.34 895.4C1171.52 902.39 1177.89 910.429 1183.82 919.982C1196.45 940.245 1204.39 963.975 1212.07 986.924C1213.93 992.472 1215.85 998.212 1217.77 1003.7C1226.79 1029.39 1234.55 1056.22 1240.83 1083.43C1253.88 1139.65 1261.46 1200.48 1264 1269.4L1263.6 1269.33Z" fill="white" fill-opacity="0.5"/>
<path d="M1270.66 1256.56C1271.38 1188.93 1264.6 1126.06 1250.5 1069.7C1243.67 1042.26 1234.9 1015.41 1224.41 989.877C1222.9 986.19 1221.37 982.39 1219.88 978.714C1210.08 954.431 1199.95 929.319 1184.78 908.843C1178.29 900.024 1171.47 892.646 1163.92 886.281C1134.99 861.871 1095.39 858.933 1067.27 860.765C1049.84 861.858 1032.8 864.711 1016.33 867.47C1013.48 867.949 1010.63 868.424 1007.78 868.891C992.152 871.459 976.385 875.51 959.694 879.798C931.317 887.087 901.975 894.624 870.633 895.406C852.227 895.864 834.649 893.882 816.888 889.346C779.74 879.857 747.468 863.42 720.8 848.595C702.763 838.566 684.746 827.114 667.249 814.549C652.776 804.12 638.916 793.077 626.055 781.729C587.912 748.095 556.692 708.897 533.262 665.224C523.512 647.054 514.632 626.9 506.111 603.608C497.484 580.108 489.694 557.853 482.159 536.328C477.04 521.699 472.203 507.881 467.395 494.508C449.223 443.954 431.925 398.585 404.208 355.309C387.972 329.961 368.558 305.627 346.503 282.985C330.696 266.756 312.379 251.443 288.864 234.793C283.787 231.206 278.562 227.63 273.334 224.168C265.385 218.92 257.013 213.704 248.151 208.185C231.145 197.591 211.867 185.583 192.21 171.058C184.726 165.525 177.147 159.8 169.817 154.261C150.963 140.016 131.468 125.287 112.132 112.799C97.9313 103.63 83.7413 96.047 69.9602 90.2642C20.8982 69.6804 -23.9293 65.4537 -49.9555 78.9557L-50.2483 78.5637C-43.4337 75.0275 -35.332 72.6476 -26.1689 71.4883C-17.3687 70.3753 -7.54041 70.3817 3.03831 71.5061C23.4229 73.6735 46.6009 80.0239 70.0697 89.8705C83.8842 95.6668 98.1064 103.265 112.338 112.456C131.696 124.956 151.198 139.693 170.062 153.945C177.39 159.483 184.969 165.208 192.451 170.739C212.089 185.251 231.352 197.251 248.35 207.838C257.216 213.36 265.59 218.578 273.548 223.832C278.781 227.299 284.011 230.877 289.094 234.468C312.643 251.14 330.985 266.478 346.819 282.733C368.901 305.403 388.342 329.768 404.598 355.15C417.119 374.697 428.519 396.35 439.453 421.343C449.242 443.717 457.879 466.751 467.837 494.453C472.644 507.829 477.481 521.647 482.602 536.277C490.136 557.798 497.926 580.054 506.55 603.549C515.063 626.818 523.933 646.951 533.671 665.1C557.068 708.713 588.244 747.856 626.334 781.444C639.18 792.778 653.022 803.807 667.479 814.224C684.955 826.775 702.952 838.216 720.968 848.23C747.603 863.039 779.832 879.454 816.915 888.926C834.627 893.449 852.159 895.427 870.516 894.968C901.805 894.188 931.124 886.658 959.478 879.374C976.18 875.084 991.955 871.031 1007.6 868.461C1010.45 867.994 1013.29 867.517 1016.14 867.04C1032.63 864.278 1049.68 861.423 1067.13 860.329C1085.43 859.137 1102.52 860.323 1117.92 863.855C1136.17 868.038 1151.74 875.484 1164.19 885.987C1171.77 892.382 1178.62 899.796 1185.14 908.652C1200.35 929.182 1210.5 954.325 1220.31 978.638C1221.79 982.315 1223.33 986.115 1224.84 989.799C1235.33 1015.35 1244.11 1042.23 1250.94 1069.69C1258.43 1099.61 1263.9 1131.57 1267.21 1164.69C1270.14 1193.96 1271.45 1224.9 1271.12 1256.65L1270.66 1256.56Z" fill="white" fill-opacity="0.5"/>
<path d="M1277.73 1243.79C1281.69 1176.46 1275.91 1113.27 1260.56 1055.97C1253.19 1028.29 1243.4 1001.4 1231.45 976.016C1230.88 974.808 1230.31 973.601 1229.74 972.39C1217.33 945.983 1204.49 918.678 1186.09 897.579C1178.96 889.404 1171.66 882.652 1163.78 876.938C1133.38 854.898 1094.56 854.569 1067.36 858.173C1051.39 860.242 1035.92 863.93 1020.96 867.496C1017.26 868.379 1013.43 869.29 1009.68 870.159C995.381 873.466 980.797 878.393 965.356 883.613C937.27 893.105 908.23 902.92 876.419 904.602C858.015 905.576 840.297 903.574 822.252 898.484C786.702 888.455 755.827 870.789 727.757 853.195C710.45 842.345 693.064 830.003 676.08 816.512C662.152 805.404 648.856 793.75 636.556 781.874C600.989 747.554 571.327 707.237 548.4 662.045C539.218 643.947 530.741 624.133 521.725 599.69C504.546 553.298 491.172 519.733 478.362 490.861C452.883 433.438 430.183 394.274 402.462 359.91C383.903 336.903 362.694 315.193 339.423 295.378C323.277 281.631 304.803 268.961 279.521 254.303C274.337 251.304 268.989 248.3 263.621 245.375C258.546 242.62 253.342 239.89 247.833 236.998C227.49 226.322 204.431 214.221 180.533 196.799C167.937 187.617 155.386 177.785 143.249 168.277C129.455 157.472 115.193 146.299 101.205 136.373C87.1808 126.421 73.3723 118.12 60.1726 111.71C12.9605 88.7776 -31.1492 80.1752 -57.8181 88.6979L-58.0797 88.2304C-51.1522 86.0152 -43.0427 84.905 -33.9771 84.9296C-25.2254 84.9521 -15.5405 86.0325 -5.18793 88.139C14.9229 92.2297 37.5817 100.232 60.3347 111.284C73.5696 117.714 87.4091 126.032 101.467 136.007C115.466 145.942 129.737 157.121 143.536 167.932C155.669 177.436 168.213 187.264 180.8 196.439C204.655 213.829 227.689 225.918 248.009 236.583C253.522 239.475 258.728 242.209 263.807 244.964C269.181 247.893 274.533 250.9 279.722 253.9C305.042 268.582 323.548 281.272 339.728 295.05C363.032 314.893 384.271 336.634 402.856 359.673C430.616 394.084 453.34 433.289 478.842 490.762C491.656 519.645 505.035 553.22 522.218 599.624C531.228 624.049 539.695 643.842 548.867 661.92C571.763 707.05 601.38 747.309 636.895 781.577C649.178 793.437 662.461 805.076 676.368 816.17C693.332 829.644 710.696 841.971 727.981 852.808C756.008 870.375 786.83 888.013 822.298 898.019C840.276 903.092 857.932 905.085 876.272 904.115C908.014 902.435 937.025 892.631 965.08 883.149C980.531 877.928 995.125 872.995 1009.45 869.683C1013.2 868.816 1017.02 867.905 1020.72 867.022C1035.69 863.452 1051.18 859.762 1067.17 857.69C1084.93 855.337 1101.76 855.422 1117.2 857.941C1135.29 860.892 1151.05 867.168 1164.04 876.58C1171.97 882.326 1179.3 889.113 1186.47 897.326C1204.93 918.497 1217.78 945.84 1230.21 972.285C1230.78 973.496 1231.35 974.706 1231.92 975.911C1243.88 1001.32 1253.69 1028.25 1261.07 1055.95C1276.43 1113.31 1282.21 1176.55 1278.25 1243.92L1277.73 1243.79Z" fill="white" fill-opacity="0.5"/>
<path d="M738.12 860.172C736.965 859.366 735.827 858.57 734.711 857.784C718.105 846.113 701.347 832.884 684.907 818.465C671.53 806.682 658.795 794.416 647.054 782.012C630.274 764.295 614.656 744.764 600.629 723.958C587.083 703.866 574.604 681.965 563.537 658.86C552.693 636.221 543.838 613.25 537.335 595.765C522.081 554.911 505.928 518.389 489.326 487.212C462.437 436.719 434.283 397.729 400.719 364.507C380.47 344.466 357.233 325.132 333.451 308.536C333.082 308.279 332.716 308.023 332.346 307.768C311.876 293.566 290.371 283.051 270.184 273.806C264.925 271.406 259.451 268.972 253.911 266.575C250.872 265.267 247.816 263.973 244.584 262.604C221.78 252.954 195.934 242.013 168.853 222.533C152.361 210.669 136.303 197.422 120.775 184.611C110.749 176.338 100.382 167.786 90.2767 159.938C76.3851 149.15 62.9643 140.135 50.3811 133.145C5.07243 107.968 -38.3206 94.9912 -65.6987 98.4323L-65.8971 97.892C-51.8548 96.128 -34.1968 98.4389 -13.4126 104.758C6.43621 110.795 28.5723 120.455 50.5976 132.694C63.2128 139.705 76.6709 148.74 90.5932 159.554C100.709 167.41 111.081 175.968 121.111 184.243C136.629 197.048 152.676 210.287 169.147 222.134C196.158 241.565 221.96 252.485 244.725 262.121C247.961 263.49 251.016 264.784 254.058 266.093C259.602 268.492 265.081 270.928 270.344 273.331C290.566 282.593 312.107 293.126 332.628 307.36C356.836 324.153 380.511 343.802 401.105 364.187C418.426 381.334 434.026 399.666 448.792 420.23C463.012 440.036 476.44 461.897 489.84 487.064C506.455 518.265 522.62 554.814 537.883 595.695C544.38 613.167 553.228 636.122 564.062 658.736C586.518 705.619 614.576 746.993 647.455 781.709C659.18 794.098 671.898 806.347 685.256 818.114C701.675 832.514 718.409 845.726 734.993 857.379C760.944 875.615 791.632 895.992 827.679 907.104C845.924 912.728 863.7 914.738 882.023 913.253C914.202 910.644 942.834 898.453 970.526 886.665C984.771 880.601 998.225 874.873 1011.28 870.898C1015.46 869.625 1019.73 868.281 1023.85 866.98C1037.78 862.585 1052.17 858.043 1067.2 855.043C1084.43 851.547 1101.01 850.529 1116.47 852.016C1134.4 853.741 1150.36 858.836 1163.88 867.161C1172.23 872.299 1180.05 878.457 1187.78 885.99C1208.45 906.126 1223.8 933.441 1238.99 962.012C1252.24 986.923 1263.37 1014.66 1271.19 1042.21C1279.9 1072.77 1285.41 1105.33 1287.55 1138.98C1289.46 1168.96 1288.73 1199.98 1285.37 1231.18L1284.78 1231.02C1292 1164.01 1287.24 1100.5 1270.62 1042.24C1262.81 1014.72 1251.7 987.035 1238.47 962.164C1223.3 933.642 1207.98 906.38 1187.39 886.318C1179.71 878.827 1171.93 872.703 1163.64 867.597C1138.78 852.303 1104.61 848.033 1067.44 855.578C1052.44 858.573 1038.05 863.112 1024.14 867.5C1020.01 868.803 1015.75 870.147 1011.57 871.421C998.533 875.387 985.089 881.111 970.86 887.17C957.272 892.954 943.222 898.936 928.479 903.823C911.764 909.364 896.627 912.627 882.197 913.798C863.792 915.29 845.937 913.271 827.606 907.621C811.439 902.638 795.286 895.529 778.222 885.892C763.777 877.723 750.003 868.464 738.12 860.172Z" fill="white" fill-opacity="0.5"/>
<path d="M770.561 884.031C760.064 876.706 750.328 869.171 741.658 862.371C725.718 849.869 709.591 835.753 693.728 820.416C680.908 807.965 668.734 795.089 657.545 782.144C626.892 746.716 601.092 705.345 578.667 655.67C568.886 634.007 560.594 612.256 552.942 591.839C537.794 551.587 520.08 515.16 500.291 483.564C471.187 437.095 438.997 400.726 398.985 369.107C376.187 351.091 350.7 334.165 325.278 320.157C303.999 308.431 281.783 300.464 260.85 293.306C255.609 291.521 250.008 289.659 244.208 287.772C242.756 287.302 241.291 286.832 239.806 286.354C215.411 278.519 187.808 269.653 158.644 249.302C158.152 248.958 157.663 248.615 157.17 248.264C137.55 234.336 118.97 218.038 100.999 202.272C93.8751 196.022 86.5068 189.56 79.344 183.492C65.3515 171.643 52.6748 162.18 40.5846 154.567C-3.38977 126.877 -45.009 109.954 -73.6009 108.147L-73.6944 107.548C-59.5602 108.443 -41.5542 113.22 -21.6283 121.362C-2.02901 129.37 19.5801 140.689 40.864 154.092C52.9883 161.727 65.6979 171.212 79.7211 183.088C86.8921 189.161 94.2613 195.627 101.389 201.877C119.343 217.626 137.906 233.909 157.489 247.811C187.091 268.829 215.146 277.837 239.894 285.785C241.377 286.262 242.845 286.733 244.297 287.201C250.103 289.089 255.705 290.953 260.951 292.74C281.92 299.909 304.175 307.893 325.512 319.65C350.974 333.682 376.503 350.634 399.339 368.679C419.167 384.348 436.862 401.021 453.434 419.65C470.502 438.836 486.006 459.67 500.833 483.345C520.646 514.982 538.382 551.454 553.548 591.747C561.196 612.157 569.482 633.895 579.256 655.537C601.65 705.145 627.412 746.455 658.015 781.826C669.188 794.751 681.346 807.61 694.147 820.043C709.988 835.36 726.091 849.457 742.009 861.939C768.794 882.944 797.886 904.434 833.064 916.176C851.575 922.354 869.472 924.383 887.775 922.378C920.383 918.808 949.84 903.457 975.831 889.913C988.907 883.098 1001.26 876.662 1013.11 872.1C1017.39 870.454 1021.76 868.714 1025.98 867.031C1039.18 861.763 1052.83 856.316 1067.24 852.384C1083.95 847.759 1100.28 845.637 1115.75 846.076C1133.52 846.582 1149.66 850.501 1163.72 857.726C1172.52 862.241 1180.81 867.773 1189.09 874.632C1212.22 893.8 1230.14 921.267 1246.06 948.094C1260.76 972.866 1272.95 1000.65 1281.31 1028.45C1290.64 1059.33 1296.17 1092.19 1297.73 1126.11C1299.12 1156.44 1297.36 1187.5 1292.49 1218.43L1291.85 1218.23C1302.2 1152.48 1298.34 1086.87 1280.69 1028.49C1272.35 1000.75 1260.18 973.012 1245.51 948.29C1229.63 921.526 1211.76 894.129 1188.73 875.041C1180.5 868.221 1172.25 862.724 1163.51 858.237C1137.55 844.897 1103.46 843.023 1067.54 852.961C1053.16 856.884 1039.53 862.327 1026.34 867.589C1022.12 869.274 1017.75 871.014 1013.47 872.662C1001.64 877.213 989.301 883.643 976.237 890.45C950.204 904.013 920.7 919.389 887.985 922.972C869.58 924.987 851.583 922.947 832.967 916.735C816.814 911.343 800.768 903.551 783.911 892.906C779.346 890.037 774.891 887.052 770.561 884.031Z" fill="white" fill-opacity="0.5"/>
<path d="M790.044 900.265C789.894 900.16 789.746 900.056 789.596 899.952C774.781 889.57 761.224 877.961 748.606 866.958C733.294 853.608 717.801 838.605 702.552 822.366C690.292 809.253 678.68 795.765 668.04 782.279C639.818 746.54 616.228 705.299 593.802 652.485C585.723 633.468 578.356 613.918 571.228 595.014C570.338 592.648 569.444 590.283 568.551 587.918C553.249 547.566 533.974 511.231 511.264 479.925C480.164 437.058 442.874 402.316 397.261 373.713C372.251 358.031 344.918 343.798 318.22 332.552C297.153 323.681 276.431 318.571 251.527 312.812C246.475 311.651 241.066 310.43 234.51 308.973L234.144 308.893C221.475 306.108 207.117 302.95 192.177 297.742C175.017 291.76 159.745 283.986 145.487 274.003C123.261 258.427 102.847 239.281 83.1086 220.764C78.2723 216.227 73.2691 211.535 68.4057 207.055C54.4559 194.21 42.1491 184.051 30.7812 175.999C-11.0769 146.35 -52.0113 125.161 -81.5224 117.862L-81.4814 117.233C-67.0255 120.808 -49.1682 127.983 -29.8406 137.982C-10.4766 147.999 10.6075 160.978 31.1292 175.513C42.53 183.588 54.8686 193.772 68.8479 206.645C73.7154 211.128 78.7187 215.82 83.557 220.359C103.273 238.852 123.66 257.975 145.832 273.513C145.931 273.582 146.032 273.652 146.131 273.721C177.891 295.884 209.083 302.744 234.164 308.259L234.532 308.34C241.092 309.798 246.5 311.019 251.554 312.181C276.5 317.95 297.259 323.068 318.391 331.968C345.136 343.231 372.513 357.488 397.566 373.198C419.886 387.195 439.676 402.208 458.069 419.101C477.889 437.305 495.474 457.11 511.824 479.649C534.578 511.015 553.887 547.41 569.214 587.828C570.107 590.193 570.999 592.56 571.89 594.925C579.014 613.822 586.38 633.365 594.45 652.368C616.847 705.114 640.401 746.297 668.576 781.976C679.201 795.444 690.797 808.912 703.039 822.007C718.266 838.223 733.738 853.204 749.025 866.532C776.406 890.409 803.85 912.868 838.446 925.279C857.22 932.013 875.237 934.06 893.522 931.532C926.554 926.968 955.477 908.886 980.998 892.932C992.945 885.462 1004.23 878.406 1014.94 873.335C1019.07 871.384 1023.27 869.326 1027.34 867.335C1040.06 861.109 1053.21 854.673 1067.26 849.755C1083.5 844.01 1099.56 840.783 1115.02 840.161C1132.63 839.455 1148.96 842.199 1163.55 848.319C1172.6 852.114 1181.21 856.89 1189.83 862.91C1190.02 863.04 1190.21 863.171 1190.4 863.305C1217.13 882.13 1237.97 911.082 1253.13 934.204C1269.28 958.835 1282.53 986.677 1291.43 1014.72C1301.38 1045.92 1306.92 1079.07 1307.89 1113.26C1308.76 1143.95 1305.98 1175.05 1299.61 1205.71L1298.91 1205.46C1308.39 1159.84 1314.66 1089.72 1290.75 1014.78C1281.87 986.799 1268.66 959.022 1252.55 934.449C1237.43 911.394 1216.66 882.528 1190.05 863.795C1181.29 857.621 1172.57 852.759 1163.39 848.907C1136.35 837.569 1102.34 838.09 1067.63 850.373C1053.61 855.279 1040.47 861.708 1027.77 867.927C1023.7 869.92 1019.49 871.978 1015.36 873.93C1004.68 878.988 993.406 886.035 981.473 893.497C955.907 909.48 926.929 927.597 893.769 932.179C875.361 934.724 857.223 932.662 838.322 925.882C822.304 920.133 806.504 911.751 790.044 900.265Z" fill="white" fill-opacity="0.5"/>
<path d="M804.91 914.069C801.715 911.839 798.507 909.478 795.278 906.982C781.144 896.054 768.421 883.982 755.551 871.542C740.631 857.121 726.18 841.673 711.373 824.315C699.68 810.548 688.63 796.451 678.533 782.411C652.903 746.813 631.439 705.759 608.937 649.299C603.348 635.278 597.994 620.927 592.818 607.047C589.999 599.492 587.087 591.68 584.163 583.996C568.607 543.267 547.773 507.03 522.241 476.288C488.507 435.67 447.066 403.624 395.548 378.318C368.329 364.948 339.152 353.408 311.172 344.944C288.696 338.146 266.893 335.41 243.809 332.513L242.213 332.313C238.604 331.865 234.953 331.417 231.257 330.962C229.127 330.701 226.984 330.438 224.822 330.172C211.323 328.539 196.877 326.582 181.749 322.278C164.184 317.28 148.505 309.909 133.81 299.742C109.348 282.813 87.6121 260.937 66.5974 239.779C63.5989 236.758 60.4948 233.635 57.4728 230.617C43.3061 216.469 31.7117 205.925 20.9814 197.428C-18.6164 166.077 -58.8634 140.612 -89.444 127.564L-89.256 126.93C-58.5951 140.013 -18.2632 165.527 21.4032 196.934C32.1633 205.453 43.7872 216.025 57.9814 230.2C61.0043 233.22 64.1084 236.344 67.1089 239.366C87.867 260.265 109.325 281.867 133.398 298.666C133.657 298.847 133.917 299.028 134.179 299.209C165.403 320.812 194.844 325.85 224.762 329.472C226.925 329.739 229.068 330.002 231.197 330.262C234.894 330.716 238.542 331.164 242.154 331.612L243.75 331.812C266.873 334.714 288.714 337.454 311.263 344.275C339.294 352.752 368.522 364.313 395.788 377.706C447.437 403.076 488.987 435.209 522.813 475.938C548.407 506.757 569.29 543.076 584.882 583.896C587.805 591.582 590.72 599.394 593.537 606.95C598.711 620.825 604.063 635.173 609.65 649.185C632.125 705.579 653.558 746.576 679.142 782.113C689.227 796.131 700.259 810.209 711.936 823.956C726.721 841.289 741.151 856.714 756.049 871.113C778.664 892.971 806.807 920.176 843.838 934.365C862.876 941.66 881.01 943.723 899.276 940.671C932.736 935.082 961.053 914.142 986.038 895.67C996.892 887.644 1007.14 880.064 1016.78 874.559C1020.53 872.413 1024.36 870.161 1028.07 867.981C1040.51 860.672 1053.37 853.116 1067.29 847.114C1083.07 840.255 1098.88 835.92 1114.29 834.232C1131.75 832.318 1148.27 833.89 1163.39 838.901C1173.09 842.117 1182.35 846.389 1191.7 851.962C1204.22 859.424 1216.27 869.199 1228.55 881.836C1238.93 892.531 1249.28 905.111 1260.2 920.297C1277.81 944.789 1292.1 972.687 1301.55 1000.97C1312.12 1032.49 1317.68 1065.94 1318.06 1100.41C1318.41 1131.44 1314.59 1162.58 1306.73 1192.98L1305.98 1192.68C1322.58 1128.51 1320.75 1060.45 1300.82 1001.05C1291.4 972.834 1277.14 945.015 1259.59 920.596C1236.07 887.876 1214.4 866.25 1191.39 852.534C1182.1 846.998 1172.9 842.756 1163.27 839.561C1127.31 827.638 1091.47 837.443 1067.73 847.767C1053.84 853.753 1040.99 861.301 1028.57 868.601C1024.86 870.781 1021.03 873.035 1017.27 875.182C1007.67 880.672 997.429 888.243 986.589 896.259C961.551 914.771 933.172 935.754 899.561 941.368C881.15 944.444 862.871 942.365 843.681 935.012C830.674 930.028 817.903 923.135 804.91 914.069Z" fill="white" fill-opacity="0.5"/>
<path d="M817.341 926.675C795.57 911.482 777.745 892.425 762.495 876.122C748.147 860.785 734.311 844.475 720.192 826.261C709.069 811.848 698.581 797.139 689.023 782.541C660.359 738.798 640.864 691.119 624.069 646.111C620.64 636.922 617.241 627.544 613.955 618.477C609.394 605.887 604.676 592.868 599.773 580.074C583.913 538.838 561.522 502.696 533.225 472.653C496.618 433.791 451.025 404.438 393.839 382.918C364.396 371.837 333.375 362.99 304.129 357.334C281.574 352.969 260.266 352.462 237.709 351.926C236.11 351.887 234.507 351.85 232.898 351.809L232.025 351.788C226.539 351.661 220.868 351.527 215.136 351.366C201.384 351.009 186.53 350.199 171.109 346.739C153.209 342.722 137.189 335.769 122.13 325.479C95.6953 307.42 73.0362 282.875 51.1253 259.14C49.5894 257.476 48.0605 255.82 46.5364 254.174C32.0732 238.542 21.1671 227.648 11.1791 218.851C-25.9419 186.161 -65.5057 156.419 -97.3688 137.25L-97.0316 136.636C-65.1156 155.833 -25.4933 185.619 11.6766 218.353C21.6932 227.175 32.6227 238.093 47.1122 253.753C48.6363 255.398 50.1652 257.055 51.702 258.722C73.5714 282.411 96.1894 306.905 122.52 324.899C155.224 347.243 187.396 349.883 214.984 350.602C220.716 350.763 226.387 350.896 231.871 351.026L232.745 351.046C234.355 351.086 235.957 351.124 237.555 351.163C260.152 351.7 281.495 352.208 304.127 356.587C333.426 362.254 364.505 371.119 393.999 382.219C421.11 392.422 445.095 404.126 467.321 418C492.114 433.476 514.477 451.72 533.792 472.226C562.18 502.363 584.638 538.611 600.544 579.961C605.45 592.763 610.169 605.785 614.731 618.378C618.017 627.445 621.413 636.818 624.841 646.004C641.62 690.965 661.089 738.589 689.702 782.252C699.247 796.83 709.719 811.518 720.826 825.909C734.924 844.096 748.738 860.382 763.065 875.696C785.062 899.211 812.437 928.477 849.218 943.45C868.519 951.307 886.77 953.386 905.017 949.809C938.91 943.16 966.548 919.242 990.933 898.138C1000.73 889.659 1009.98 881.65 1018.6 875.781C1021.78 873.61 1025.04 871.344 1028.2 869.152C1040.53 860.579 1053.28 851.714 1067.31 844.472C1082.65 836.496 1098.2 831.052 1113.55 828.293C1130.86 825.178 1147.57 825.577 1163.2 829.478C1173.35 832.012 1183.09 835.655 1192.99 840.616C1206.31 847.3 1219.69 856.725 1232.76 868.632C1244.2 879.058 1255.81 891.759 1267.26 906.384C1286.31 930.735 1301.67 958.688 1311.66 987.223C1322.86 1019.06 1328.43 1052.81 1328.22 1087.54C1328.04 1118.92 1323.2 1150.11 1313.84 1180.24L1313.05 1179.9C1332.87 1116.05 1332.1 1047.66 1310.88 987.313C1300.92 958.87 1285.62 931.009 1266.63 906.741C1242.01 875.284 1217.83 853.867 1192.72 841.271C1182.9 836.347 1173.23 832.73 1163.15 830.213C1125.96 820.931 1090.78 833.215 1067.82 845.157C1053.83 852.379 1041.09 861.233 1028.78 869.795C1025.62 871.987 1022.36 874.253 1019.17 876.427C1010.59 882.277 1001.35 890.275 991.56 898.744C979.828 908.896 966.533 920.404 952.247 929.922C935.879 940.827 920.537 947.576 905.346 950.557C896.561 952.28 887.565 952.686 878.605 951.764C868.969 950.771 859.019 948.207 849.03 944.14C837.6 939.489 827.075 933.467 817.341 926.675Z" fill="white" fill-opacity="0.5"/>
<path d="M828.183 938.554C820.986 933.532 813.833 927.712 806.644 921.042C792.485 907.904 780.242 893.451 769.437 880.701C755.82 864.629 742.218 846.965 729.011 828.203C718.463 813.159 708.537 797.839 699.514 782.666C673.603 739.137 656.87 693.624 639.201 642.92C637.631 638.414 636.044 633.828 634.511 629.392C628.468 611.927 622.222 593.868 615.382 576.151C599.189 534.33 575.242 498.286 544.206 469.019C505.058 432.1 453.891 404.676 392.13 387.515C360.438 378.709 327.573 372.553 297.088 369.717C274.134 367.581 252.921 369.145 230.462 370.801C228.18 370.97 225.89 371.137 223.588 371.304C217.856 371.723 211.69 372.163 205.453 372.558C192.36 373.411 176.774 373.917 160.473 371.196C142.225 368.152 125.861 361.617 110.453 351.218C82.2434 332.183 58.9695 305.01 36.4612 278.731L35.6039 277.731C24.5823 264.866 12.8076 251.422 1.38067 240.274C-33.451 206.295 -71.3319 173.145 -105.281 146.934L-104.806 146.354C-70.8211 172.593 -32.9055 205.772 1.95667 239.782C13.4161 250.963 25.2121 264.429 36.2509 277.313L37.1081 278.313C59.5682 304.534 82.797 331.649 110.868 350.592C143.287 372.469 175.371 373.686 205.213 371.74C211.448 371.346 217.61 370.904 223.341 370.487C225.642 370.321 227.934 370.152 230.215 369.985C252.712 368.326 273.963 366.76 296.992 368.902C327.536 371.743 360.463 377.91 392.213 386.733C421.189 394.786 448.019 405.124 471.952 417.46C499.297 431.556 523.798 448.732 544.774 468.512C575.929 497.89 599.965 534.065 616.212 576.029C623.056 593.761 629.306 611.827 635.351 629.301C636.885 633.736 638.473 638.322 640.043 642.828C657.694 693.483 674.409 738.947 700.273 782.399C709.284 797.549 719.195 812.847 729.728 827.87C742.916 846.605 756.495 864.241 770.093 880.289C791.406 905.446 817.933 936.753 854.613 952.545C874.178 960.968 892.545 963.065 910.768 958.955C945.103 951.212 973.159 923.006 995.703 900.341C1004.48 891.513 1012.78 883.174 1020.43 877.017C1022.84 875.075 1025.31 873.065 1027.7 871.12C1040.11 861.013 1052.95 850.564 1067.34 841.844C1089.68 828.228 1124.41 813.399 1163.03 820.071C1173.69 821.914 1183.91 824.928 1194.28 829.284C1221.46 840.609 1248.39 861.874 1274.32 892.484C1294.83 916.692 1311.24 944.702 1321.78 973.484C1333.6 1005.64 1339.19 1039.69 1338.39 1074.7C1338.03 1090.75 1336.29 1106.96 1333.24 1122.88C1330.33 1138.09 1326.2 1153.11 1320.96 1167.52L1320.12 1167.12C1343.18 1103.6 1343.47 1034.87 1320.95 973.588C1310.45 944.913 1294.1 917.011 1273.67 892.894C1247.86 862.426 1221.08 841.27 1194.07 830.016C1183.78 825.691 1173.63 822.701 1163.05 820.872C1124.7 814.243 1090.16 829.005 1067.93 842.554C1053.57 851.25 1040.75 861.687 1028.36 871.778C1025.97 873.723 1023.5 875.736 1021.08 877.679C1013.46 883.816 1005.18 892.141 996.409 900.958C985.065 912.363 972.208 925.289 958.099 936.112C941.887 948.548 926.526 956.281 911.141 959.75C902.364 961.73 893.338 962.266 884.319 961.346C874.602 960.355 864.531 957.639 854.391 953.272C845.489 949.442 836.801 944.568 828.183 938.554Z" fill="white" fill-opacity="0.5"/>
<path d="M846.819 960.857C836.991 953.999 827.461 945.468 818.01 935.098C804.64 920.426 793.313 904.178 783.321 889.847C770.692 871.734 758.355 852.297 746.647 832.08C737.248 815.802 728.45 799.259 720.492 782.912C700.893 742.665 688.761 701.649 675.916 658.223C673.817 651.124 671.644 643.783 669.465 636.536C661.799 611.066 654.976 589.715 646.599 568.306C629.694 525.192 602.64 489.342 566.183 461.748C520.375 427.075 460.664 405.187 388.713 396.692C352.969 392.473 315.428 391.682 283.004 394.466C258.577 396.564 236.725 402.154 213.591 408.072C210.726 408.805 207.849 409.541 204.961 410.271C199.813 411.577 193.012 413.286 186.082 414.922C156.886 421.849 122.291 425.815 87.0893 402.688C85.9932 401.964 84.9032 401.223 83.8244 400.47C56.8633 381.656 35.263 353.958 13.7191 324.828L12.3771 323.005C1.73514 308.534 -8.3188 294.866 -18.2421 283.098C-55.6388 238.753 -92.8596 197.375 -121.109 166.281L-120.401 165.779C-92.1452 196.882 -54.9133 238.27 -17.5035 282.632C-7.55296 294.431 2.51082 308.115 13.1678 322.604L14.5078 324.426C36.8408 354.623 59.2311 383.282 87.5431 401.972C122.355 424.842 156.669 420.897 185.647 414.022C192.573 412.388 199.368 410.679 204.515 409.375C207.404 408.643 210.277 407.908 213.143 407.175C236.314 401.248 258.2 395.648 282.705 393.544C315.195 390.752 352.812 391.545 388.627 395.772C421.868 399.696 453.017 406.634 481.21 416.392C513.558 427.587 542.325 442.625 566.711 461.081C603.356 488.816 630.549 524.845 647.532 568.161C655.921 589.602 662.751 610.975 670.425 636.468C672.606 643.717 674.778 651.059 676.879 658.159C689.711 701.542 701.831 742.518 721.394 782.686C729.339 799.012 738.124 815.529 747.51 831.783C759.199 851.973 771.518 871.38 784.129 889.465C803.923 917.857 828.558 953.19 865.384 970.721C885.514 980.303 904.115 982.434 922.247 977.235C957.529 967.249 983.737 932.132 1004.8 903.915C1011.67 894.709 1018.16 886.012 1024.07 879.478L1024.2 879.329C1037.44 864.701 1051.12 849.576 1067.38 836.572C1081.52 825.208 1096.31 816.433 1111.32 810.484C1128.24 803.779 1145.51 800.669 1162.65 801.24C1174.11 801.621 1185.3 803.374 1196.84 806.6C1228.07 815.266 1259.75 835.341 1288.43 864.657C1299.98 876.456 1310.44 889.423 1319.53 903.201C1328.67 917.058 1336.23 931.453 1342.01 945.982C1355.08 978.78 1360.7 1013.43 1358.72 1048.98C1356.94 1080.93 1348.8 1113.12 1335.19 1142.06L1334.25 1141.55C1363.39 1079.61 1365.88 1008.38 1341.08 946.129C1329.49 916.995 1311.06 889.007 1287.76 865.2C1259.23 836.05 1227.76 816.096 1196.75 807.491C1185.3 804.29 1174.2 802.552 1162.82 802.171C1130.83 801.107 1098.08 813.266 1068.12 837.33C1051.91 850.301 1038.24 865.405 1025.02 880.012L1024.89 880.161C1019 886.67 1012.52 895.354 1005.66 904.547C984.531 932.849 958.244 968.072 922.714 978.128C913.972 980.636 904.891 981.441 895.729 980.524C885.849 979.534 875.541 976.508 865.084 971.533C858.858 968.567 852.784 965.019 846.819 960.857Z" fill="white" fill-opacity="0.5"/>
<path d="M71.7855 425.984C59.7295 417.571 47.9054 406.54 35.7522 392.384C23.6766 378.318 12.7708 362.923 2.78136 348.381C0.976429 345.743 -0.811117 343.12 -2.58676 340.514C-11.4252 327.543 -19.7738 315.291 -28.0456 304.513C-61.0322 261.542 -92.9839 221.313 -123.887 182.409L-129.006 175.963L-128.2 175.5L-123.08 181.947C-92.1776 220.855 -60.2197 261.089 -27.2271 304.069C-18.9322 314.875 -10.5726 327.142 -1.72439 340.129C0.0491951 342.733 1.83671 345.357 3.64072 347.992C24.1465 377.842 46.613 408.581 75.888 427.668C111.914 451.073 148.248 443.972 175.873 435.172C182.944 432.926 189.868 430.601 195.11 428.827C198.002 427.851 200.882 426.869 203.754 425.89C227.571 417.774 250.067 410.107 275.57 405.874C309.231 400.29 348.748 398.309 386.841 400.301C422.183 402.149 455.501 407.374 485.873 415.834C520.711 425.537 551.6 439.512 577.683 457.369C617.01 484.126 645.786 520.084 663.2 564.231C672.843 588.717 679.946 612.883 685.625 633.295C688.714 644.403 691.698 655.661 694.584 666.549C704.799 705.092 715.364 744.947 731.96 782.838C739.372 799.766 747.598 816.896 756.407 833.748C767.321 854.584 779.01 874.876 791.152 894.062C810.132 924.051 833.751 961.372 870.777 979.814C891.156 989.965 909.871 992.112 927.993 986.379C963.757 975.162 988.926 936.393 1009.15 905.241C1015.13 896.029 1020.77 887.326 1025.9 880.72C1037.44 865.826 1051.12 848.702 1067.4 833.946C1081.19 821.429 1095.71 811.539 1110.57 804.552C1127.38 796.648 1144.84 792.37 1162.46 791.834C1174.14 791.478 1186.14 792.635 1198.13 795.268C1215.25 799.008 1232.57 805.928 1249.59 815.84C1265.54 825.122 1280.98 836.868 1295.49 850.749C1307.73 862.457 1318.81 875.399 1328.43 889.22C1338.11 903.126 1346.09 917.6 1352.13 932.237C1359.1 949.101 1364.04 966.717 1366.81 984.595C1369.43 1001.53 1370.13 1018.87 1368.89 1036.13C1366.57 1068.42 1357.37 1100.65 1342.3 1129.34L1341.33 1128.77C1373.69 1067.16 1377.27 995.591 1351.15 932.407C1339.19 903.453 1319.19 874.668 1294.81 851.349C1264.67 822.518 1231.23 803.455 1198.1 796.221C1186.21 793.608 1174.3 792.462 1162.72 792.814C1129.52 793.823 1097.72 807.918 1068.22 834.713C1051.98 849.427 1038.32 866.524 1026.8 881.395C1021.7 887.977 1016.06 896.666 1010.09 905.867C1000.11 921.235 988.801 938.655 975.408 953.777C959.866 971.324 944.527 982.294 928.515 987.316C919.777 990.08 910.667 991.019 901.442 990.105C891.476 989.119 881.046 985.94 870.442 980.657C865.092 977.993 860.021 974.939 855.205 971.578C826.369 951.455 806.608 920.23 790.268 894.412C778.109 875.197 766.402 854.875 755.474 834.01C746.651 817.134 738.415 799.979 730.992 783.027C714.361 745.058 703.786 705.162 693.56 666.582C690.674 655.697 687.692 644.442 684.605 633.341C678.935 612.955 671.842 588.823 662.216 564.382C644.897 520.472 616.289 484.724 577.185 458.113C515.894 416.152 439.939 404.043 387.011 401.277C348.994 399.289 309.559 401.264 275.968 406.839C250.541 411.059 228.079 418.713 204.299 426.816C201.426 427.795 198.545 428.775 195.652 429.753C190.407 431.527 183.478 433.854 176.401 436.103C164.805 439.798 147.231 444.693 128.583 444.541C119.527 444.467 110.706 443.22 102.363 440.835C93.0609 438.175 83.9925 434 75.4161 428.427C74.1997 427.639 72.9898 426.824 71.7855 425.984Z" fill="white" fill-opacity="0.5"/>
<path d="M59.7414 451.491C47.6711 443.068 35.9743 431.912 24.1028 417.519C11.8111 402.618 0.897234 386.111 -8.15509 371.928C-10.9345 367.568 -13.6897 363.19 -16.3549 358.955C-23.8053 347.118 -30.8424 335.935 -37.85 325.925C-63.0133 289.974 -88.1609 254.471 -112.482 220.134C-120.527 208.776 -128.844 197.033 -136.9 185.644L-136.002 185.216C-127.946 196.606 -119.628 208.349 -111.583 219.706C-87.2625 254.043 -62.1118 289.551 -36.9476 325.505C-29.9222 335.542 -22.875 346.737 -15.4169 358.589C-12.7537 362.822 -9.99736 367.198 -7.22206 371.556C11.5557 400.966 34.1119 433.966 64.2298 453.359C101.23 477.137 138.105 467.43 166.099 456.32C173.273 453.475 180.346 450.529 185.706 448.279C188.458 447.125 191.201 445.968 193.938 444.813C218.55 434.426 241.795 424.616 268.436 418.207C303.086 409.873 344.503 405.124 385.054 404.832C441.447 404.541 522.545 412.776 588.649 453.661C630.731 479.602 661.086 515.483 678.864 560.305C686.849 580.448 693.619 601.98 700.819 630.128C704.457 644.351 707.826 658.813 711.084 672.796C719.563 709.178 728.326 746.796 742.521 782.997C749.396 800.536 757.059 818.275 765.297 835.721C775.279 856.836 786.34 878.015 798.169 898.668C816.393 930.315 839.071 969.702 876.16 988.914C896.46 999.499 915.827 1001.72 933.728 995.533C970.001 983.034 995.057 938.657 1013.35 906.254C1018.48 897.16 1023.33 888.571 1027.71 881.971C1037.45 867.3 1050.76 848.287 1067.42 831.329C1096.27 801.928 1128.18 785.477 1162.27 782.439C1174.24 781.341 1186.74 781.85 1199.41 783.947C1217.44 786.922 1235.73 793.223 1253.77 802.678C1270.77 811.587 1287.18 823.082 1302.54 836.848C1315.48 848.503 1327.18 861.427 1337.32 875.26C1347.56 889.23 1355.94 903.777 1362.24 918.499C1369.53 935.515 1374.63 953.291 1377.39 971.335C1380.02 988.436 1380.57 1005.91 1379.05 1023.29C1376.18 1055.91 1365.94 1088.18 1349.41 1116.62L1348.4 1115.99C1384 1054.73 1388.67 982.812 1361.21 918.694C1348.77 889.614 1327.69 860.784 1301.86 837.516C1269.94 808.926 1234.53 790.756 1199.45 784.969C1186.88 782.887 1174.49 782.385 1162.61 783.473C1128.75 786.491 1097.03 802.854 1068.32 832.112C1051.7 849.023 1038.42 868 1028.7 882.642C1024.34 889.221 1019.5 897.798 1014.37 906.879C1004.91 923.628 994.191 942.613 981.094 959.311C965.841 978.752 950.537 990.923 934.303 996.516C925.558 999.541 916.419 1000.62 907.136 999.712C897.071 998.733 886.524 995.396 875.785 989.798C859.102 981.155 843.926 967.87 829.388 949.182C816.751 932.937 806.366 914.905 797.205 898.997C785.357 878.314 774.283 857.106 764.286 835.96C756.035 818.489 748.361 800.725 741.476 783.161C727.25 746.886 718.476 709.226 709.99 672.807C706.734 658.829 703.364 644.373 699.729 630.162C692.542 602.064 685.783 580.572 677.818 560.476C660.148 515.914 629.989 480.258 588.175 454.482C522.353 413.775 441.518 405.574 385.295 405.865C344.825 406.155 303.494 410.894 268.918 419.211C242.351 425.6 219.139 435.398 194.565 445.77C191.827 446.926 189.084 448.084 186.332 449.237C180.968 451.489 173.889 454.439 166.708 457.285C138.466 468.496 101.239 478.274 63.73 454.167C62.3978 453.308 61.0652 452.415 59.7414 451.491Z" fill="white" fill-opacity="0.5"/>
<path d="M47.7736 477.054C14.7928 454.039 -8.56498 413.773 -29.2705 378.076C-35.6338 367.108 -41.6433 356.746 -47.6572 347.335L-144.795 195.325L-143.813 194.931L-46.6753 346.941C-40.6444 356.377 -34.628 366.75 -28.2569 377.734C-6.75086 414.81 17.6265 456.835 52.5696 479.051C90.5096 503.176 127.947 490.878 156.322 477.471C165.603 473.086 174.829 468.472 183.752 464.011C208.157 451.81 233.391 439.193 261.299 430.536C283.458 423.663 308.958 418.031 335.038 414.252C363.649 410.105 392.55 408.15 420.931 408.439C452.223 408.76 482.126 411.829 509.807 417.56C540.425 423.901 568.244 433.505 592.499 446.108C641.087 471.354 675.415 508.451 694.524 556.367C710.406 596.186 718.69 637.501 726.701 677.456C733.675 712.235 740.886 748.195 753.08 783.143C767.167 823.509 784.697 863.923 805.188 903.26C822.453 936.405 843.938 977.656 881.552 998.002C913.318 1015.19 941.266 1011.39 966.991 986.399C988.873 965.141 1004.7 932.854 1017.42 906.912C1021.75 898.071 1025.84 889.721 1029.54 883.21C1049.89 847.312 1071.31 820.903 1095.03 802.474C1109.82 790.976 1125.67 782.583 1142.13 777.528C1160.52 771.881 1180.22 770.226 1200.69 772.608C1218.4 774.67 1236.42 779.768 1254.26 787.762C1271.24 795.372 1287.69 805.43 1303.15 817.657C1333.56 841.703 1358.14 872.631 1372.35 904.741C1379.96 921.906 1385.21 939.845 1387.98 958.056C1390.61 975.316 1391.02 992.937 1389.21 1010.43C1385.8 1043.38 1374.49 1075.7 1356.52 1103.89L1355.47 1103.2C1393.75 1043.17 1399.66 969.058 1371.27 904.958C1341.13 836.887 1269.43 781.678 1200.79 773.688C1132.79 765.773 1077.12 801.811 1030.6 883.863C1026.92 890.353 1022.83 898.694 1018.51 907.524C1005.76 933.521 989.901 965.878 967.919 987.232C955.946 998.863 943.195 1006.03 930.022 1008.53C922.613 1009.93 914.88 1009.91 907.038 1008.46C898.692 1006.91 889.976 1003.7 881.129 998.915C877.513 996.959 873.972 994.773 870.507 992.355C857.881 983.545 846.204 971.618 835.06 956.188C822.505 938.804 812.323 919.256 804.141 903.55C783.624 864.158 766.067 823.689 751.96 783.266C739.737 748.241 732.52 712.24 725.539 677.424C717.538 637.52 709.264 596.256 693.422 556.538C674.439 508.946 640.349 472.101 592.095 447.029C494.487 396.313 352.492 403.467 261.866 431.575C234.034 440.207 208.833 452.806 184.461 464.99C175.533 469.454 166.302 474.071 157.013 478.46C138.174 487.36 122.378 492.124 107.305 493.449C97.8972 494.274 88.719 493.696 80.026 491.729C70.3605 489.542 60.9463 485.564 52.0443 479.905C50.6085 478.988 49.1818 478.037 47.7736 477.054Z" fill="white" fill-opacity="0.5"/>
</g>
</svg>
