<svg width="1456" height="536" viewBox="0 0 1456 536" fill="none" xmlns="http://www.w3.org/2000/svg">
<path d="M-60.3251 6.83886C-158.371 5.50592 -204.725 21.306 -282 59.8482V697.669C-173.836 490.593 453.961 420.653 608.246 598.491C762.532 776.328 1518 697.669 1518 697.669L1498.49 59.8482C1498.49 59.8482 991.301 239.398 829.921 123.118C668.542 6.83887 175.537 0 175.537 0L-60.3251 6.83886Z" fill="white" stroke="white"/>
<path d="M-76.3251 12.0875C-174.371 10.7061 -220.725 27.0807 -298 67.0245V728.039C-189.836 513.433 437.961 440.949 592.246 625.254C746.532 809.559 1502 728.039 1502 728.039L1482.49 67.0245C1482.49 67.0245 975.301 253.103 813.921 132.595C652.542 12.0876 159.537 5 159.537 5L-76.3251 12.0875Z" fill="#132F66"/>
</svg>
