<svg width="1362" height="1001" viewBox="0 0 1362 1001" fill="none" xmlns="http://www.w3.org/2000/svg">
<g opacity="0.5">
<path d="M352.19 662.978C346.148 660.608 340.416 657.924 335.061 654.954C323.83 648.724 314.154 641.183 306.302 632.541C297.862 623.254 291.446 612.593 287.229 600.856C278.756 577.265 279.321 553.216 279.868 529.957C279.974 525.39 280.085 520.667 280.124 516.059C280.379 484.641 276.504 455.514 268.283 427.013C251.881 370.159 219.338 314.362 174.168 265.654C121.928 209.326 58.7327 166.682 -3.78021 145.581C-40.5225 133.179 -94.6718 131.074 -127.077 151.046C-146.308 162.899 -154.646 181.155 -151.185 203.837L-151.428 203.832C-153.242 191.937 -151.877 181.26 -147.369 172.1C-143.234 163.698 -136.462 156.554 -127.24 150.87C-112.572 141.83 -92.2194 136.701 -68.3821 136.038C-46.3555 135.427 -23.3929 138.747 -3.72054 145.387C28.9939 156.432 61.7898 173.27 93.7548 195.436C122.73 215.53 149.848 239.116 174.353 265.54C219.55 314.276 252.113 370.104 268.523 426.991C276.748 455.511 280.624 484.654 280.371 516.089C280.334 520.699 280.223 525.423 280.114 529.99C279.567 553.23 279.002 577.263 287.465 600.82C295.648 623.604 311.701 641.759 335.175 654.779C367.683 672.811 413.092 679.585 456.641 672.897C519.399 663.26 571.823 633.963 622.522 605.632C631.409 600.666 640.597 595.531 649.622 590.632C673.053 577.91 704.351 561.791 738.674 549.957C773.757 537.861 806.933 531.878 840.1 531.663C860.402 531.531 880.854 534.101 900.89 539.3C919.396 544.101 938.151 551.306 956.636 560.713C988.343 576.849 1020.31 599.832 1054.35 630.973C1121.39 692.294 1185.8 760.07 1245.79 832.421C1302.8 901.187 1356.35 974.695 1404.92 1050.9L1404.71 1050.97C1304.01 893.009 1186.08 751.744 1054.18 631.1C979.668 562.94 911.655 531.408 840.141 531.87C767.386 532.338 705.652 560.475 649.776 590.811C640.754 595.708 631.566 600.844 622.679 605.81C571.965 634.151 519.524 663.457 456.723 673.101C436.429 676.218 414.898 676.412 394.46 673.662C383.663 672.209 373.252 669.945 363.513 666.931C359.629 665.736 355.852 664.415 352.19 662.978Z" fill="white" fill-opacity="0.5"/>
<path d="M362.182 654.879C346.776 648.835 333.422 640.903 322.476 631.294C310.27 620.579 301.121 607.805 295.279 593.33C294.763 592.048 294.266 590.737 293.802 589.431C285.463 565.98 285.579 542.07 285.695 518.948C285.716 514.274 285.741 509.441 285.693 504.723C285.407 476.629 281.992 450.628 275.248 425.235C274.417 422.108 273.525 418.952 272.592 415.852C255.55 359.18 222.438 303.705 176.836 255.424C123.924 199.443 60.2806 157.363 -2.37048 136.936C-39.0005 125.019 -93.0367 123.271 -125.447 142.99C-144.855 154.798 -153.637 172.922 -150.85 195.402L-151.094 195.393C-152.555 183.61 -150.903 173.025 -146.18 163.936C-141.843 155.589 -134.924 148.482 -125.61 142.814C-110.853 133.834 -90.5423 128.675 -66.8791 127.892C-45.008 127.168 -22.0811 130.311 -2.31855 136.742C30.4868 147.438 63.4492 163.962 95.6518 185.852C124.82 205.681 152.195 229.051 177.015 255.31C222.644 303.619 255.773 359.126 272.827 415.83C273.759 418.932 274.653 422.091 275.483 425.22C282.232 450.63 285.649 476.645 285.935 504.753C285.985 509.472 285.96 514.305 285.938 518.981C285.825 542.09 285.707 565.982 294.035 589.4C294.498 590.702 294.995 592.013 295.51 593.292C307.579 623.212 332.443 643.212 362.254 654.907C362.418 654.972 362.579 655.035 362.743 655.099C362.557 655.024 362.369 654.952 362.182 654.879ZM368.592 657.244C396.751 666.984 428.674 669.729 458.153 666.748C521.787 660.205 576.367 632.955 629.151 606.603C631.325 605.517 633.497 604.433 635.669 603.35C640.44 600.973 646.092 598.161 651.84 595.345C677.625 582.722 708.469 568.364 741.728 557.598C777.116 546.142 810.256 540.339 843.041 539.856C863.182 539.568 883.487 541.764 903.392 546.384C921.833 550.663 940.544 557.169 958.999 565.716C990.882 580.483 1023.08 601.68 1057.42 630.518C1090.92 658.615 1117.84 683.257 1142.16 708.068C1176.6 743.236 1207.94 780.481 1234.06 812.276C1294.72 886.319 1351.6 965.69 1403.13 1048.18L1402.91 1048.26C1351.39 965.774 1294.52 886.41 1233.86 812.376C1207.75 780.585 1176.42 743.346 1141.99 708.188C1117.67 683.383 1090.75 658.748 1057.27 630.658C982.444 567.835 914.384 539.047 843.082 540.066C769.069 541.152 705.634 569.265 651.986 595.531C646.235 598.345 640.586 601.157 635.815 603.536C633.643 604.617 631.47 605.702 629.296 606.789C576.495 633.149 521.896 660.409 458.217 666.957C442.438 668.552 426.363 668.43 410.435 666.591C395.61 664.875 381.564 661.736 368.592 657.244Z" fill="white" fill-opacity="0.5"/>
<path d="M372.687 647.257C370.833 646.53 369.004 645.776 367.202 644.993C352.023 638.414 338.881 630.016 328.145 620.03C316.403 609.108 307.549 596.282 301.834 581.905C301.327 580.625 300.836 579.314 300.377 578.009C292.174 554.711 291.848 530.947 291.535 507.97C291.469 503.18 291.401 498.227 291.259 493.39C290.458 465.189 286.664 439.237 279.66 414.048C278.792 410.933 277.863 407.786 276.895 404.694C259.212 348.206 225.531 293.053 179.497 245.2C125.915 189.567 61.8249 148.047 -0.966637 128.295C-36.3355 117.211 -89.8565 114.557 -123.787 134.917C-143.39 146.681 -152.633 164.682 -150.519 186.973L-150.763 186.957C-151.872 175.278 -149.925 164.783 -144.983 155.761C-140.439 147.463 -133.361 140.392 -123.947 134.743C-109.099 125.833 -88.838 120.649 -65.3527 119.75C-43.6415 118.918 -20.7565 121.885 -0.915454 128.103C31.9823 138.453 65.112 154.661 97.55 176.274C126.913 195.84 154.544 218.991 179.677 245.085C225.737 292.969 259.435 348.152 277.13 404.672C278.098 407.766 279.028 410.914 279.895 414.033C286.902 439.236 290.697 465.204 291.499 493.42C291.639 498.258 291.708 503.212 291.773 508.001C292.089 530.967 292.414 554.713 300.605 577.983C301.064 579.288 301.552 580.595 302.06 581.871C325.286 640.289 397.953 663.503 459.664 660.597C524.562 657.327 581.767 632.019 637.089 607.545L637.656 607.293C643.016 604.919 648.557 602.467 654.059 600.057C712.121 574.641 774.768 549.689 845.985 548.048C865.972 547.602 886.132 549.426 905.899 553.466C924.286 557.225 942.949 563.029 961.368 570.719C993.483 584.125 1025.91 603.536 1060.5 630.063C1096.87 657.898 1123.47 680.805 1146.75 704.338C1179.9 737.903 1209.95 775.672 1236.47 808.996C1295.41 883.427 1350.88 962.987 1401.33 1045.46L1401.12 1045.53C1350.67 963.066 1295.21 883.514 1236.27 809.09C1209.76 775.773 1179.71 738.01 1146.57 704.455C1123.3 680.93 1096.71 658.031 1060.35 630.204C985.372 572.705 917.27 546.664 846.029 548.252C774.858 549.892 712.237 574.833 654.198 600.24C648.695 602.65 643.153 605.104 637.795 607.476L637.227 607.728C609.658 619.923 581.152 632.535 551.878 642.305C518.981 653.283 488.834 659.333 459.714 660.799C429.289 662.231 398.639 657.438 372.687 647.257Z" fill="white" fill-opacity="0.5"/>
<path d="M1399.33 1042.81C1349.95 960.357 1295.9 880.618 1238.69 805.807C1236.26 802.652 1233.83 799.486 1231.39 796.31C1206.57 763.996 1180.91 730.582 1151.16 700.725C1122.29 671.802 1090.62 648.619 1063.45 629.756C988.493 577.567 920.347 554.272 848.985 556.441C775.698 558.748 709.561 584.368 656.42 604.955C653.23 606.191 650.044 607.432 646.852 608.673C644.497 609.59 642.139 610.506 639.782 611.421C609.516 623.164 582.11 633.527 553.211 641.456C520.196 650.514 490.107 654.829 461.218 654.647C434.145 654.478 407.14 649.413 383.769 640.247C379.51 638.576 375.378 636.772 371.381 634.833C356.791 627.756 344.151 618.992 333.814 608.787C322.533 597.652 313.979 584.764 308.383 570.48C307.885 569.2 307.401 567.89 306.947 566.586C298.887 543.448 298.123 519.845 297.385 497.021C297.226 492.105 297.062 487.019 296.825 482.053C295.503 453.736 291.33 427.83 284.074 402.856C283.17 399.748 282.203 396.612 281.201 393.53C262.874 337.225 228.627 282.395 182.165 234.968C127.911 179.683 63.3761 138.729 0.446169 119.646C-42.6005 106.666 -92.9834 109.616 -122.076 126.816C-141.897 138.535 -151.612 156.42 -150.178 178.535L-150.423 178.513C-151.174 166.934 -148.933 156.52 -143.763 147.56C-139.002 139.31 -131.76 132.272 -122.236 126.64C-107.3 117.807 -87.0902 112.604 -63.7935 111.593C-42.2468 110.659 -19.4161 113.448 0.495013 119.453C33.486 129.456 66.7799 145.348 99.4531 166.684C129.009 185.987 156.9 208.922 182.346 234.85C228.838 282.306 263.102 337.166 281.44 393.505C282.444 396.59 283.41 399.729 284.313 402.836C291.575 427.825 295.748 453.744 297.073 482.075C297.308 487.043 297.474 492.127 297.632 497.045C298.369 519.856 299.134 543.445 307.184 566.554C307.638 567.857 308.12 569.164 308.617 570.44C332.684 631.883 405.847 654.09 461.184 654.438C527.207 654.852 586.946 631.677 639.655 611.229C642.013 610.313 644.368 609.396 646.725 608.482C649.914 607.24 653.103 605.999 656.293 604.764C686.626 593.013 716.455 581.731 747.858 572.872C783.97 562.683 817.036 557.242 848.942 556.236C868.784 555.632 888.794 557.081 908.417 560.546C926.758 563.782 945.374 568.888 963.75 575.72C996.157 587.768 1028.82 605.396 1063.59 629.605C1090.77 648.475 1122.45 671.668 1151.34 700.608C1181.1 730.477 1206.77 763.899 1231.59 796.22C1234.03 799.395 1236.46 802.562 1238.89 805.717C1296.11 880.534 1350.16 960.282 1399.55 1042.74L1399.33 1042.81Z" fill="white" fill-opacity="0.5"/>
<path d="M1397.54 1040.08C1348.31 956.081 1295.67 876.153 1241.1 802.522C1237.84 798.117 1234.5 793.589 1231.28 789.211C1208.2 757.856 1184.33 725.434 1155.75 696.993C1127.19 668.646 1094.63 646.868 1066.54 629.304C991.831 582.406 923.639 561.855 851.937 564.629C783.51 567.368 722.656 587.982 663.806 607.915L657.344 610.103C652.241 611.832 646.964 613.618 641.768 615.363C582.957 635.065 525.013 652.422 462.722 648.49C447.606 647.536 432.65 645.117 418.262 641.303C402.813 637.206 388.445 631.597 375.556 624.631C361.557 617.064 349.421 607.944 339.485 597.526C328.673 586.188 320.413 573.242 314.94 559.052C314.448 557.769 313.972 556.46 313.524 555.16C305.606 532.197 304.412 508.769 303.258 486.111C303.001 481.056 302.733 475.826 302.396 470.718C300.544 442.279 295.997 416.421 288.492 391.667C287.554 388.574 286.551 385.445 285.511 382.37C266.543 326.249 231.73 271.742 184.834 224.739C129.906 169.806 64.9245 129.412 1.8524 111.001C-40.9768 98.5867 -91.2197 101.75 -120.326 118.697C-140.383 130.372 -150.59 148.147 -149.845 170.101L-150.091 170.076C-150.482 158.588 -147.939 148.25 -142.535 139.349C-137.552 131.144 -130.135 124.136 -120.489 118.521C-105.462 109.774 -85.3128 104.559 -62.2162 103.44C-40.8401 102.404 -18.0712 105.021 1.89586 110.808C34.9793 120.465 68.4381 136.039 101.349 157.1C131.099 176.14 159.246 198.856 185.008 224.62C231.931 271.649 266.764 326.189 285.743 382.342C286.782 385.42 287.786 388.551 288.725 391.645C296.235 416.412 300.785 442.283 302.637 470.737C302.973 475.846 303.24 481.077 303.498 486.132C304.652 508.777 305.844 532.194 313.755 555.131C314.201 556.426 314.678 557.733 315.167 559.015C338.475 619.437 406.659 644.746 462.698 648.283C524.938 652.213 582.859 634.861 641.644 615.168C646.84 613.424 652.117 611.638 657.221 609.909L663.683 607.721C692.571 597.937 722.44 587.817 753.724 579.776C789.156 570.669 821.265 565.647 851.884 564.42C871.589 563.657 891.454 564.734 910.924 567.621C929.23 570.335 947.8 574.741 966.118 580.715C998.896 591.405 1031.78 607.246 1066.66 629.142C1094.76 646.715 1127.34 668.502 1155.92 696.872C1184.52 725.326 1208.39 757.757 1231.48 789.12C1234.7 793.498 1238.04 798.024 1241.3 802.431C1295.88 876.069 1348.52 956.003 1397.76 1040.01L1397.54 1040.08Z" fill="white" fill-opacity="0.5"/>
<path d="M1395.75 1037.36C1347.37 952.974 1296.15 872.858 1243.51 799.239C1239.56 793.706 1235.52 787.984 1231.62 782.451C1210.11 751.954 1187.87 720.418 1160.34 693.264C1131.84 665.235 1098.49 644.976 1069.63 628.855C995.44 587.216 927.203 569.411 854.886 572.819C791.736 575.895 734.243 592.81 678.641 609.166C672.79 610.888 666.74 612.666 660.852 614.38C653.938 616.392 648.663 617.913 643.75 619.307C617.441 626.766 586.353 635.043 555.244 639.867C522.278 644.978 492.505 645.786 464.221 642.338C449.348 640.524 434.76 637.338 420.861 632.864C405.937 628.06 392.096 621.858 379.725 614.428C366.323 606.378 354.693 596.904 345.153 586.267C334.808 574.733 326.849 561.731 321.493 547.626C321.012 546.35 320.542 545.04 320.098 543.738C312.328 520.966 310.713 497.726 309.148 475.25C308.784 470.038 308.41 464.648 307.965 459.382C305.58 430.811 300.654 405.002 292.906 380.477C291.932 377.393 290.892 374.275 289.817 371.207C270.208 315.271 234.826 261.086 187.499 214.508C131.902 159.926 66.4725 120.097 3.26207 102.355C-32.7348 92.3354 -84.3539 90.9849 -118.528 110.55C-138.845 122.183 -149.56 139.858 -149.51 161.664L-149.754 161.633C-149.781 150.23 -146.929 139.964 -141.279 131.116C-136.064 122.951 -128.464 115.971 -118.684 110.373C-103.57 101.72 -83.4867 96.5007 -60.6002 95.2783C-39.3969 94.1464 -16.703 96.5907 3.30625 102.159C36.4822 111.471 70.1082 126.729 103.252 147.513C133.195 166.289 161.599 188.788 187.673 214.387C235.028 260.991 270.43 315.207 290.05 371.177C291.126 374.244 292.166 377.367 293.14 380.452C300.891 404.99 305.819 430.812 308.207 459.397C308.653 464.667 309.028 470.056 309.391 475.269C310.953 497.732 312.571 520.96 320.331 543.707C320.775 545.008 321.245 546.314 321.726 547.589C340.961 598.252 394.23 633.596 464.219 642.129C527.601 649.858 587.61 634.993 643.643 619.106C648.556 617.712 653.829 616.191 660.742 614.178C666.63 612.464 672.681 610.686 678.531 608.964C705.904 600.912 734.207 592.585 763.536 585.897C796.701 578.333 826.568 573.986 854.838 572.61C874.42 571.687 894.135 572.39 913.44 574.702C931.725 576.891 950.248 580.598 968.495 585.715C1001.72 595.037 1034.84 609.092 1069.74 628.683C1098.62 644.814 1131.99 665.085 1160.51 693.138C1188.06 720.309 1210.31 751.853 1231.83 782.36C1235.73 787.893 1239.76 793.615 1243.72 799.148C1296.36 872.774 1347.59 952.897 1395.97 1037.29L1395.75 1037.36Z" fill="white" fill-opacity="0.5"/>
<path d="M1393.96 1034.64C1346.44 949.865 1296.63 869.559 1245.93 795.954C1241.61 789.692 1237.22 783.173 1232.96 776.868C1212.71 746.833 1191.77 715.778 1164.92 689.533C1136.33 661.669 1102.27 642.996 1072.72 628.404C1000.39 592.482 930.103 576.978 857.836 581.007C800.254 584.317 746.663 597.941 694.835 611.117C684.366 613.778 673.543 616.531 663.065 619.092C656.654 620.66 650.986 622.022 645.73 623.252C621.295 628.957 589.041 635.909 556.251 639.068C523.304 642.24 493.689 641.297 465.716 636.183C435.206 630.606 406.91 619.552 383.887 604.22C371.086 595.694 359.959 585.866 350.814 575.006C340.941 563.281 333.28 550.225 328.041 536.203C327.567 534.927 327.104 533.619 326.666 532.318C319.051 509.757 317.019 486.725 315.055 464.454C314.58 459.066 314.09 453.496 313.527 448.05C310.601 419.34 305.299 393.577 297.316 369.292C296.306 366.217 295.23 363.109 294.119 360.051C273.868 304.298 237.921 250.434 190.162 204.285C133.895 150.057 68.0178 110.791 4.66665 93.7158C-38.3055 82.2434 -87.0726 85.7282 -116.681 102.386C-137.284 113.977 -148.522 131.561 -149.177 153.236L-149.421 153.198C-149.08 141.872 -145.913 131.668 -140.011 122.873C-134.556 114.743 -126.759 107.79 -116.837 102.206C-101.638 93.6548 -81.6259 88.4379 -58.9631 87.1191C-37.9425 85.8963 -15.329 88.1673 4.70688 93.517C37.9753 102.483 71.7678 117.427 105.148 137.931C135.285 156.445 163.947 178.727 190.335 204.16C238.121 250.337 274.089 304.23 294.353 360.018C295.464 363.076 296.539 366.187 297.551 369.264C305.536 393.562 310.841 419.338 313.771 448.062C314.334 453.508 314.823 459.08 315.298 464.467C317.261 486.727 319.291 509.748 326.899 532.287C327.338 533.588 327.8 534.891 328.273 536.167C347.02 586.361 398.406 623.673 465.731 635.981C527.107 647.2 588.467 636.396 645.63 623.052C650.884 621.821 656.554 620.462 662.962 618.893C673.438 616.331 684.263 613.58 694.73 610.919C746.569 597.741 800.17 584.112 857.779 580.802C877.254 579.716 896.824 580.048 915.944 581.785C934.23 583.449 952.707 586.455 970.86 590.721C1004.62 598.654 1037.97 610.925 1072.82 628.23C1102.38 642.832 1136.47 661.519 1165.09 689.413C1191.96 715.677 1212.91 746.744 1233.17 776.79C1237.42 783.095 1241.82 789.613 1246.13 795.874C1296.84 869.484 1346.66 949.797 1394.18 1034.57L1393.96 1034.64Z" fill="white" fill-opacity="0.5"/>
<path d="M1392.17 1031.91C1345.52 946.752 1297.13 866.26 1248.34 792.67C1243.86 785.908 1239.29 778.82 1234.88 771.966C1215.71 742.168 1195.88 711.354 1169.51 685.802C1140.73 658.004 1105.99 640.96 1075.81 627.952C1004.75 597.122 934.414 584.443 860.785 589.195C809.111 592.625 760.031 603.369 712.566 613.757C696.246 617.33 680.829 620.704 665.28 623.803C658.955 625.066 653.209 626.177 647.713 627.194C612.257 633.744 583.516 637.262 557.262 638.262C524.326 639.518 494.872 636.825 467.217 630.027C456.489 627.389 446.066 624.083 436.094 620.171C418.416 613.236 402.146 604.398 388.052 594.007C362.547 575.201 344.561 551.908 334.595 524.774C334.128 523.49 333.672 522.185 333.241 520.891C325.786 498.562 323.351 475.767 320.997 453.721C320.4 448.135 319.785 442.362 319.097 436.712C315.623 407.851 309.941 382.136 301.734 358.1C300.687 355.035 299.575 351.936 298.428 348.887C277.537 293.319 241.021 239.777 192.83 194.053C135.893 140.179 69.5714 101.475 6.07959 85.0683C-37.2433 73.9883 -84.6797 77.566 -114.766 94.1858C-135.681 105.737 -147.46 123.239 -148.837 144.799L-149.082 144.756C-148.362 133.498 -144.873 123.353 -138.708 114.603C-133.001 106.503 -125 99.574 -114.92 94.0075C-99.6409 85.567 -79.7112 80.3606 -57.2821 78.9501C-36.4481 77.6391 -13.9333 79.7427 6.11677 84.8705C39.4776 93.4907 73.4374 108.118 107.05 128.345C137.382 146.598 166.299 168.663 193.003 193.928C241.221 239.679 277.757 293.251 298.663 348.853C299.809 351.903 300.921 355.002 301.969 358.07C310.182 382.119 315.867 407.848 319.342 436.72C320.03 442.37 320.647 448.146 321.241 453.731C323.594 475.766 326.027 498.552 333.476 520.861C333.908 522.153 334.362 523.457 334.83 524.74C353.438 575.411 401.704 613.714 467.25 629.826C529.646 645.163 593.444 636.998 647.627 626.988C653.12 625.97 658.865 624.861 665.191 623.599C680.737 620.499 696.153 617.126 712.473 613.553C759.945 603.161 809.036 592.418 860.73 588.987C880.128 587.735 899.549 587.693 918.458 588.863C936.772 589.996 955.202 592.302 973.235 595.718C1007.63 602.234 1041.21 612.718 1075.9 627.768C1106.1 640.786 1140.87 657.846 1169.68 685.676C1196.08 711.248 1215.91 742.076 1235.09 771.885C1239.5 778.74 1244.06 785.827 1248.55 792.587C1297.34 866.182 1345.73 946.682 1392.39 1031.85L1392.17 1031.91Z" fill="white" fill-opacity="0.5"/>
<path d="M1390.38 1029.19C1343.96 942.433 1298.29 863.993 1250.75 789.386C1246.21 782.267 1241.82 775.09 1237.16 767.49C1218.95 737.782 1200.13 707.065 1174.1 682.072C1144.88 654.111 1107.88 638.221 1078.9 627.503C1009.66 601.686 939.279 591.835 863.734 597.387C818.374 600.807 774.491 609.068 732.052 617.059C709.747 621.258 688.682 625.223 667.493 628.517C661.202 629.497 655.379 630.354 649.694 631.139C614.462 635.977 585.413 637.983 558.27 637.454C525.326 636.812 496.032 632.369 468.715 623.871C454.68 619.504 441.198 614.001 428.644 607.514C415.353 600.645 403.097 592.663 392.217 583.792C368.102 564.128 350.92 540.43 341.148 513.351C340.689 512.068 340.241 510.763 339.814 509.471C332.527 487.408 329.703 464.876 326.971 443.087C326.242 437.273 325.489 431.261 324.665 425.381C320.633 396.361 314.576 370.694 306.147 346.914C305.062 343.858 303.914 340.768 302.735 337.731C281.203 282.346 244.121 229.127 195.499 183.829C150.587 142.106 100.097 109.722 49.8765 90.0198C35.6791 84.45 21.5142 79.8972 7.4906 76.4277C-35.4797 65.913 -82.693 69.6576 -112.795 85.9666C-134.042 97.4798 -146.389 114.909 -148.501 136.369L-148.746 136.32C-147.645 125.122 -143.823 115.028 -137.386 106.32C-131.42 98.2467 -123.198 91.3379 -112.951 85.7855C-97.5946 77.4652 -77.7555 72.277 -55.5731 70.7804C-34.6342 69.3668 -12.8154 71.251 7.52002 76.2289C40.9733 84.5035 75.0996 98.8164 108.949 118.765C139.473 136.752 168.651 158.6 195.668 183.7C244.317 229.024 281.422 282.274 302.969 337.692C304.15 340.73 305.299 343.822 306.384 346.881C314.816 370.672 320.876 396.351 324.911 425.385C325.735 431.266 326.491 437.279 327.219 443.094C329.949 464.874 332.772 487.396 340.052 509.442C340.479 510.732 340.927 512.037 341.385 513.317C359.66 563.954 406.088 604.175 468.77 623.676C532.198 643.407 598.739 637.917 649.624 630.931C655.309 630.147 661.131 629.289 667.42 628.31C688.605 625.019 709.669 621.052 731.971 616.853C774.416 608.862 818.305 600.597 863.682 597.177C902.576 594.319 939.187 595.479 975.612 600.722C1010.74 605.778 1044.55 614.477 1078.98 627.313C1098.64 634.585 1114.3 641.492 1128.26 649.046C1146.28 658.8 1161.33 669.561 1174.28 681.947C1200.33 706.962 1219.16 737.695 1237.38 767.417C1242.03 775.016 1246.43 782.193 1250.97 789.31C1298.5 863.919 1344.18 942.365 1390.61 1029.13L1390.38 1029.19Z" fill="white" fill-opacity="0.5"/>
<path d="M1388.59 1026.46C1343.06 939.307 1298.76 860.685 1253.16 786.1C1248.65 778.721 1244.29 771.23 1239.67 763.3C1222.36 733.587 1204.46 702.861 1178.68 678.339C1149.15 650.332 1111.5 636.217 1082 627.048C1015.3 606.137 944.87 599.113 866.685 605.571C828.133 608.83 790.225 614.996 753.565 620.96C724.584 625.673 697.212 630.127 669.71 633.223C663.494 633.926 657.425 634.549 651.677 635.075C617.039 638.232 586.817 638.741 559.282 636.634C526.312 634.111 497.178 627.922 470.216 617.709C456.498 612.512 443.382 606.233 431.242 599.048C418.516 591.515 406.789 582.942 396.385 573.565C373.678 553.097 357.297 528.992 347.702 501.918C347.253 500.641 346.81 499.336 346.389 498.04C339.281 476.281 336.084 454.056 332.99 432.562C332.115 426.481 331.21 420.191 330.234 414.038C325.637 384.848 319.202 359.23 310.563 335.718C309.442 332.671 308.259 329.591 307.044 326.563C284.87 271.362 247.219 218.465 198.166 173.592C139.89 120.431 72.6714 82.8512 8.89971 67.7766C-33.6803 57.8205 -80.6492 61.719 -110.757 77.706C-132.367 89.1819 -145.302 106.548 -148.167 127.929L-148.41 127.875C-146.917 116.729 -142.753 106.679 -136.031 98.0057C-129.79 89.9547 -121.34 83.0624 -110.91 77.5239C-95.4857 69.3333 -75.7457 64.1706 -53.823 62.5935C-33.0881 61.102 -11.3895 62.8253 8.92987 67.576C42.4773 75.5076 76.7692 89.5014 110.851 109.172C141.569 126.901 171.002 148.531 198.333 173.462C247.417 218.361 285.087 271.289 307.273 326.522C308.49 329.551 309.675 332.634 310.796 335.682C319.44 359.208 325.876 384.836 330.476 414.038C331.454 420.192 332.358 426.482 333.234 432.566C336.326 454.05 339.522 476.266 346.624 498.01C347.047 499.305 347.49 500.609 347.936 501.883C366.23 553.495 409.68 594.565 470.286 617.517C519.461 636.144 577.079 641.655 651.614 634.863C657.359 634.336 663.426 633.714 669.642 633.012C697.137 629.915 724.507 625.464 753.483 620.749C790.149 614.785 828.062 608.617 866.626 605.359C906.046 602.102 942.469 602.22 977.981 605.717C1013.96 609.26 1048 616.171 1082.05 626.848C1111.59 636.025 1149.28 650.16 1178.86 678.21C1204.66 702.76 1222.57 733.501 1239.89 763.228C1244.5 771.157 1248.87 778.646 1253.38 786.022C1298.98 860.611 1343.28 939.238 1388.81 1026.4L1388.59 1026.46Z" fill="white" fill-opacity="0.5"/>
<path d="M1386.8 1023.74C1342.17 936.184 1299.25 857.377 1255.58 782.818C1251.14 775.249 1246.87 767.514 1242.34 759.325C1225.88 729.536 1208.86 698.732 1183.27 674.611C1153.39 646.525 1115.11 634.199 1085.09 626.598C1021.05 610.216 952.585 606.138 869.637 613.761C838.504 616.68 807.464 621.102 777.447 625.379C740.989 630.572 706.552 635.48 671.926 637.935C665.686 638.38 659.54 638.746 653.659 639.018C619.036 640.614 588.496 639.568 560.296 635.818C544.5 633.717 529.272 630.711 515.036 626.883C499.851 622.799 485.276 617.641 471.716 611.554C444.205 599.201 420.263 582.98 400.557 563.344C379.274 542.137 363.697 517.628 354.26 490.494C353.819 489.212 353.384 487.908 352.964 486.619C346.052 465.215 342.501 443.349 339.068 422.205C338.027 415.804 336.954 409.186 335.804 402.705C330.631 373.334 323.819 347.764 314.979 324.531C313.822 321.491 312.6 318.42 311.351 315.404C288.537 260.386 250.32 207.812 200.834 163.367C141.889 110.564 74.2256 73.5478 10.31 59.1356C-58.1873 43.8571 -138.124 62.5907 -147.829 119.498L-148.072 119.437C-145.645 105.202 -138.955 92.8638 -128.188 82.7623C-118.355 73.5368 -105.333 66.3331 -89.4838 61.3542C-74.7474 56.7241 -58.2581 54.2042 -40.4769 53.8628C-23.5654 53.5386 -5.99347 55.2909 10.3355 58.9331C43.9753 66.5191 78.4338 80.1984 112.751 99.5924C143.663 117.06 173.353 138.474 200.998 163.239C250.51 207.711 288.75 260.315 311.579 315.365C312.83 318.384 314.052 321.455 315.211 324.497C324.055 347.74 330.87 373.324 336.046 402.708C337.195 409.188 338.269 415.806 339.309 422.21C342.741 443.347 346.291 465.204 353.2 486.596C353.617 487.884 354.05 489.186 354.491 490.467C372.631 542.615 414.294 585.552 471.803 611.375C520.49 633.233 579.958 642.209 653.608 638.813C659.486 638.54 665.629 638.175 671.868 637.731C706.486 635.276 740.918 630.369 777.37 625.175C807.391 620.898 838.434 616.474 869.572 613.555C952.554 605.928 1021.05 610.01 1085.13 626.399C1105.3 631.507 1121.51 636.97 1136.15 643.598C1154.88 652.069 1170.34 662.171 1183.44 674.483C1209.06 698.632 1226.09 729.454 1242.56 759.26C1247.09 767.447 1251.36 775.181 1255.79 782.747C1299.47 857.312 1342.39 936.122 1387.02 1023.68L1386.8 1023.74Z" fill="white" fill-opacity="0.5"/>
<path d="M1385.01 1021.02C1341.29 933.054 1299.74 854.064 1257.99 779.533C1253.67 771.821 1249.52 763.892 1245.13 755.494C1229.48 725.577 1213.3 694.64 1187.86 670.878C1157.25 642.372 1116.32 631.695 1088.19 626.144C1011.9 610.918 936.39 615.478 872.589 621.951C849.642 624.317 826.516 627.286 804.148 630.156C759.278 635.915 716.898 641.354 674.144 642.649C667.855 642.84 661.633 642.946 655.645 642.964C620.953 643.042 590.097 640.438 561.315 635.001C528.687 628.837 499.049 618.879 473.22 605.399C446.686 591.55 423.642 573.961 404.733 553.12C384.898 531.262 370.123 506.349 360.815 479.071C360.384 477.792 359.954 476.488 359.541 475.197C352.841 454.221 348.968 432.79 345.22 412.064C343.993 405.272 342.722 398.25 341.375 391.372C335.539 361.397 328.553 336.604 319.398 313.344C318.205 310.314 316.949 307.255 315.662 304.246C292.201 249.412 253.415 197.16 203.499 153.139C143.884 100.695 75.7744 64.2394 11.7172 50.4904C-57.2901 35.8316 -135.71 54.4799 -147.495 111.065L-147.735 110.999C-144.811 96.9603 -137.792 84.7664 -126.875 74.7562C-116.87 65.5855 -103.792 58.3908 -88.0011 53.376C-73.2758 48.6986 -56.8341 46.0936 -39.129 45.63C-22.2711 45.1882 -4.67921 46.8003 11.7427 50.288C45.4774 57.5292 80.1 70.8932 114.651 90.0076C145.757 107.215 175.705 128.411 203.664 153.008C253.61 197.054 292.417 249.336 315.887 304.201C317.173 307.212 318.431 310.274 319.626 313.305C328.788 336.576 335.774 361.382 341.614 391.369C342.961 398.247 344.231 405.27 345.458 412.062C349.206 432.783 353.079 454.206 359.772 475.172C360.185 476.463 360.613 477.764 361.045 479.043C379.139 532.07 419.012 576.882 473.32 605.226C522.028 630.647 581.653 642.921 655.605 642.755C661.59 642.738 667.812 642.634 674.096 642.441C716.839 641.146 759.213 635.709 804.075 629.95C826.443 627.08 849.573 624.109 872.523 621.742C915.424 617.392 950.444 615.481 982.724 615.727C1020.72 616.018 1055.23 619.359 1088.2 625.94C1108.32 629.911 1125.3 634.794 1140.11 640.873C1159.17 648.7 1174.85 658.472 1188.03 670.751C1213.5 694.544 1229.69 725.499 1245.35 755.434C1249.74 763.83 1253.89 771.759 1258.21 779.466C1299.96 854.001 1341.51 932.994 1385.23 1020.96L1385.01 1021.02Z" fill="white" fill-opacity="0.5"/>
<path d="M1383.22 1018.29C1340.42 929.921 1300.24 850.748 1260.4 776.246C1256.23 768.434 1252.23 760.345 1248 751.781C1233.14 721.696 1217.78 690.586 1192.45 667.147C1161.43 638.518 1119.86 629.775 1091.28 625.691C1020.76 615.471 951.852 621.66 875.542 630.139C861.77 631.69 847.792 633.384 834.272 635.024C782.277 641.328 728.514 647.846 676.36 647.359C670.023 647.302 663.719 647.148 657.626 646.904C623.276 645.513 591.215 641.231 562.332 634.176C529.611 626.185 500.136 614.43 474.717 599.24C449.184 583.981 427.041 565.022 408.902 542.89C390.547 520.492 376.57 495.175 367.361 467.644C366.938 466.366 366.516 465.063 366.107 463.774C359.652 443.322 355.49 422.427 351.466 402.22C350.016 394.939 348.516 387.412 346.935 380.039C340.493 349.854 333.142 325.107 323.803 302.157C322.577 299.144 321.283 296.091 319.959 293.087C295.866 238.434 256.516 186.505 206.164 142.91C145.881 90.8265 77.3268 54.9347 13.1241 41.8453C-53.9471 28.3001 -132.916 44.9994 -147.162 102.63L-147.401 102.557C-143.979 88.7141 -136.631 76.6663 -125.564 66.7472C-115.388 57.6286 -102.252 50.4457 -86.5227 45.3941C-57.5021 36.0765 -21.1749 34.7089 13.1449 41.641C46.9713 48.5384 81.7612 61.586 116.548 80.4218C147.847 97.37 178.051 118.347 206.324 142.775C256.705 186.395 296.077 238.356 320.188 293.037C321.514 296.044 322.808 299.097 324.036 302.113C333.379 325.075 340.733 349.833 347.177 380.028C348.757 387.403 350.259 394.932 351.709 402.213C355.733 422.414 359.893 443.305 366.344 463.747C366.75 465.035 367.173 466.336 367.597 467.614C386.02 522.697 423.102 568.154 474.833 599.073C522.735 627.702 584.224 643.724 657.595 646.694C663.686 646.938 669.984 647.091 676.318 647.149C728.454 647.636 782.21 641.119 834.195 634.816C847.715 633.176 861.693 631.482 875.467 629.931C908.871 626.219 947.645 622.142 985.093 620.729C1024.26 619.252 1059 620.808 1091.28 625.486C1111.61 628.393 1128.88 632.536 1144.05 638.15C1163.19 645.229 1179.53 654.942 1192.61 667.019C1203.96 677.519 1214.38 690.634 1224.47 707.115C1233.38 721.668 1240.92 736.949 1248.22 751.725C1252.45 760.287 1256.44 768.375 1260.62 776.185C1300.46 850.689 1340.64 929.865 1383.44 1018.24L1383.22 1018.29Z" fill="white" fill-opacity="0.5"/>
<path d="M1381.43 1015.57C1339.55 926.786 1300.75 847.429 1262.81 772.963C1258.8 765.078 1254.98 756.861 1250.93 748.163C1236.85 717.877 1222.28 686.56 1197.04 663.418C1173.43 641.825 1139.85 629.337 1094.37 625.24C1030.82 619.418 968.958 627.109 903.458 635.254C895.301 636.268 886.87 637.317 878.49 638.331C875.207 638.732 871.92 639.136 868.637 639.539C806.269 647.192 741.779 655.106 678.574 652.073C672.184 651.768 665.803 651.356 659.609 650.849C625.061 648.01 592.677 642.124 563.357 633.356C530.527 623.536 501.208 609.987 476.222 593.086C451.701 576.499 430.46 556.171 413.089 532.666C396.251 509.883 383.074 484.166 373.921 456.222C373.505 454.946 373.091 453.644 372.688 452.355C366.518 432.577 362.128 412.369 357.878 392.825C356.159 384.91 354.378 376.725 352.511 368.706C345.45 338.298 337.736 313.597 328.226 290.97C326.963 287.964 325.634 284.924 324.274 281.929C299.532 227.459 259.615 175.851 208.831 132.682C147.882 80.9623 78.879 45.6303 14.5331 33.2015C-51.5544 20.5379 -130.567 37.6104 -146.826 94.1979L-147.066 94.1212C-143.143 80.4722 -135.469 68.5694 -124.253 58.7451C-113.904 49.6796 -100.711 42.5038 -85.042 37.42C-56.1003 28.0286 -19.8017 26.4179 14.5501 33C48.4713 39.5527 83.4261 52.283 118.446 70.8412C149.94 87.5267 180.404 108.289 208.991 132.548C259.803 175.742 299.746 227.38 324.497 281.877C325.857 284.872 327.189 287.917 328.452 290.924C337.965 313.562 345.687 338.273 352.749 368.692C354.618 376.712 356.395 384.898 358.117 392.814C362.364 412.352 366.756 432.556 372.923 452.327C373.326 453.616 373.738 454.915 374.154 456.192C392.765 513.009 428.105 560.29 476.355 592.926C523.985 625.143 585.635 644.559 659.595 650.637C665.785 651.143 672.162 651.555 678.549 651.861C741.733 654.895 806.211 646.982 868.566 639.328C871.852 638.925 875.136 638.522 878.418 638.121C886.799 637.106 895.23 636.058 903.386 635.045C968.9 626.9 1030.78 619.206 1094.36 625.031C1114.9 626.881 1132.45 630.284 1148.01 635.428C1167.48 641.867 1184.03 651.242 1197.2 663.288C1208.51 673.653 1218.75 686.738 1228.5 703.291C1237.11 717.895 1244.25 733.257 1251.16 748.113C1255.2 756.809 1259.02 765.023 1263.04 772.905C1300.98 847.374 1339.78 926.733 1381.66 1015.52L1381.43 1015.57Z" fill="white" fill-opacity="0.5"/>
<path d="M1379.64 1012.84C1341.88 930.612 1303.39 848.799 1265.23 769.678C1261.33 761.656 1257.65 753.236 1253.75 744.325C1241.09 715.335 1226.73 682.478 1201.62 659.688C1177.69 637.987 1143.61 626.571 1097.46 624.786C1042.61 622.608 990.215 630.494 934.745 638.843C917.375 641.457 899.411 644.162 881.438 646.518C850.054 650.662 816.237 654.808 781.602 657.08C744.508 659.514 711.531 659.415 680.784 656.781C674.324 656.227 667.866 655.559 661.586 654.788C626.844 650.52 594.149 643.021 564.408 632.5C531.486 620.85 502.319 605.52 477.718 586.925C432.357 552.409 399.637 504.59 380.468 444.794C380.06 443.518 379.653 442.217 379.255 440.93C373.437 422.056 368.9 402.773 364.512 384.124C362.446 375.346 360.312 366.269 358.072 357.371C350.383 326.723 342.3 302.069 332.635 279.783C331.334 276.783 329.969 273.752 328.574 270.769C303.2 216.483 262.713 165.198 211.498 122.455C149.882 71.0954 80.4332 36.3289 15.9426 24.5578C-50.7947 12.4504 -128.02 29.5868 -146.492 85.7655L-146.728 85.6812C-142.304 72.2247 -134.3 60.4689 -122.939 50.7377C-112.413 41.7241 -99.1656 34.5573 -83.5611 29.4395C-68.86 24.6174 -52.5546 21.7551 -35.0986 20.9299C-18.1516 20.1303 -0.974812 21.2813 15.9556 24.3527C49.9709 30.5624 85.093 42.9764 120.347 61.255C152.033 77.6835 182.753 98.226 211.654 122.317C262.9 165.085 303.41 216.4 328.801 270.714C330.195 273.699 331.563 276.733 332.865 279.733C342.533 302.031 350.62 326.696 358.313 357.354C360.552 366.254 362.687 375.331 364.752 384.111C369.14 402.758 373.676 422.039 379.491 440.905C379.887 442.193 380.296 443.493 380.702 444.768C399.857 504.517 432.546 552.297 477.864 586.778C524.615 622.114 588.145 645.561 661.583 654.581C667.859 655.35 674.316 656.02 680.771 656.574C749.515 662.465 817.56 654.735 881.363 646.31C899.336 643.954 917.297 641.25 934.667 638.636C990.149 630.286 1042.55 622.398 1097.43 624.577C1143.66 626.364 1177.79 637.806 1201.79 659.557C1213.03 669.764 1223.06 682.785 1232.46 699.36C1240.74 713.976 1247.47 729.382 1253.98 744.279C1257.88 753.191 1261.56 761.607 1265.45 769.625C1303.62 848.748 1342.11 930.562 1379.87 1012.8L1379.64 1012.84Z" fill="white" fill-opacity="0.5"/>
<path d="M1377.85 1010.12C1341.15 927.929 1304.07 845.927 1267.64 766.393C1263.96 758.384 1260.5 749.931 1256.84 740.98C1244.88 711.706 1231.31 678.524 1206.21 655.954C1181.93 634.138 1147.37 623.794 1100.55 624.327C1051.52 624.86 1003.15 633.801 956.368 642.45C932.912 646.786 908.657 651.269 884.389 654.703C846.077 660.139 814.388 663.32 784.66 664.715C748.004 666.434 714.749 665.378 683 661.489C676.482 660.692 669.944 659.761 663.568 658.726C630.349 653.326 598.963 644.875 570.193 633.591C568.594 632.964 567.01 632.329 565.429 631.685C532.337 618.206 503.333 601.072 479.22 580.763C467.591 570.935 456.723 559.987 446.919 548.223C437.703 537.166 429.14 525.041 421.468 512.187C407.665 489.06 396.396 463.276 387.02 433.365C386.618 432.079 386.22 430.792 385.828 429.503C380.475 411.925 375.933 393.964 371.543 376.595C369.007 366.568 366.387 356.2 363.64 346.03C355.189 314.704 346.99 290.819 337.048 268.587C335.711 265.597 334.31 262.576 332.879 259.603C306.864 205.504 265.812 154.543 214.165 112.225C151.884 61.2287 81.9877 27.0249 17.3523 15.9116C-48.3759 4.64852 -125.644 22.1285 -146.154 77.3295L-146.389 77.2396C-136.836 51.5278 -114.596 32.2394 -82.0759 21.4602C-67.3767 16.588 -51.1188 13.6405 -33.7482 12.696C-16.8464 11.7778 0.349684 12.7905 17.3653 15.7064C51.4731 21.5705 86.7617 33.67 122.249 51.6691C154.129 67.8386 185.106 88.1646 214.32 112.084C265.999 154.43 307.075 205.422 333.107 259.552C334.537 262.527 335.941 265.552 337.279 268.543C347.224 290.787 355.428 314.68 363.88 346.017C366.626 356.188 369.248 366.558 371.782 376.583C376.173 393.951 380.713 411.909 386.065 429.482C386.457 430.771 386.853 432.057 387.256 433.342C407.178 496.901 437.311 545.078 479.378 580.628C537.692 629.743 611.732 650.098 663.577 658.523C669.948 659.557 676.482 660.487 682.997 661.284C756.018 670.228 828.941 662.356 884.312 654.499C908.577 651.068 932.83 646.584 956.282 642.249C1003.07 633.6 1051.45 624.654 1100.51 624.122C1121.46 623.883 1139.58 625.8 1155.91 629.983C1176.05 635.141 1193.03 643.836 1206.37 655.827C1217.62 665.934 1227.5 678.968 1236.58 695.673C1244.58 710.391 1250.93 725.922 1257.07 740.944C1260.73 749.891 1264.18 758.342 1267.87 766.347C1304.3 845.881 1341.37 927.882 1378.08 1010.07L1377.85 1010.12Z" fill="white" fill-opacity="0.5"/>
<path d="M1376.06 1007.4L1270.05 763.111C1266.59 755.133 1263.37 746.664 1259.95 737.701C1248.69 708.12 1235.92 674.592 1210.8 652.226C1186.51 630.599 1150.46 621.061 1103.65 623.877C1058.64 626.584 1014.71 636.425 972.217 645.942C944.52 652.146 915.881 658.56 887.339 662.896C801.554 675.93 731.08 675.858 665.553 662.672C638.37 657.201 612.408 649.629 588.091 640.089C580.72 637.197 573.505 634.127 566.45 630.878C533.174 615.558 504.331 596.625 480.724 574.609C458.845 554.202 440.826 530.444 425.648 501.975C413.526 479.242 403.334 453.812 393.575 421.944C388.423 405.126 383.791 387.934 379.31 371.308C369.169 333.684 358.684 294.778 341.469 257.404C315.061 200.079 271.961 146.34 216.83 101.997C153.885 51.3664 83.542 17.7235 18.7617 7.26787C-43.9565 -2.85516 -122.211 12.1118 -145.82 68.8969L-146.052 68.8015C-135.499 43.4199 -112.863 24.2911 -80.5933 13.4824C-51.4156 3.7094 -16.1275 1.4298 18.7717 7.06365C52.9735 12.5848 88.4294 24.368 124.148 42.0866C156.222 57.9954 187.456 78.1067 216.984 101.858C244.264 123.799 268.772 148.209 289.828 174.411C311.06 200.832 328.512 228.737 341.694 257.351C358.918 294.739 369.407 333.655 379.55 371.288C384.031 387.912 388.664 405.102 393.814 421.918C408.052 468.415 430.819 527.775 480.896 574.479C538.326 628.04 613.023 651.889 665.575 662.466C731.068 675.647 801.511 675.718 887.262 662.688C915.792 658.354 944.429 651.939 972.122 645.738C1014.62 636.219 1058.57 626.376 1103.59 623.668C1150.49 620.846 1186.61 630.41 1210.96 652.094C1222.21 662.108 1231.94 675.165 1240.72 692.013C1248.45 706.843 1254.42 722.512 1260.19 737.664C1263.6 746.627 1266.83 755.091 1270.28 763.066L1376.29 1007.35L1376.06 1007.4Z" fill="white" fill-opacity="0.5"/>
<path d="M1379.95 993.339C1354.59 926.954 1331.95 872.272 1308.68 821.256C1297.39 796.478 1285.6 771.826 1273.65 747.982C1270.03 740.77 1266.59 733.258 1262.95 725.305C1253.8 705.316 1244.34 684.646 1231.1 666.866C1224 657.309 1216.59 649.556 1208.46 643.163C1183.52 623.457 1148.08 616.113 1103.11 621.34C1079.84 624.028 1057.74 628.806 1039.19 633.125C1019.55 637.697 999.698 643.445 980.493 649.002C952.891 656.992 924.35 665.253 895.097 670.489C877.287 673.701 859.65 675.895 842.674 677.011C808.709 679.243 773.572 678.278 738.24 674.141C716.432 671.527 695.022 667.619 674.608 662.525C657.017 658.126 639.756 652.798 623.3 646.688C598.671 637.545 575.521 626.482 554.494 613.802C532.137 600.319 512.02 584.906 494.704 567.989C479.264 552.904 465.645 536.195 453.071 516.905C429.633 480.978 414.199 444.013 403.372 415.822C398.071 401.926 393.07 387.913 388.234 374.362C374.309 335.337 361.155 298.477 340.808 262.258C324.162 232.849 303.008 204.807 277.927 178.904C258.653 158.998 236.558 140.234 212.258 123.132C206.469 119.061 200.516 115.048 194.571 111.211C168.967 94.7016 139.101 78.7748 105.805 63.8732C72.2496 48.8123 42.1024 38.6269 13.6446 32.7412C-2.43596 29.3939 -18.6195 27.6906 -34.4618 27.6747C-90.3916 27.6199 -134.02 47.2466 -151.167 80.1779L-151.451 80.0428C-146.88 71.2639 -140.472 63.3643 -132.406 56.5592C-124.744 50.0958 -115.537 44.5752 -105.042 40.1501C-85.214 31.7926 -60.823 27.3881 -34.5079 27.4141C-18.6409 27.429 -2.43182 29.1359 13.6736 32.4887C42.1609 38.3816 72.3321 48.5744 105.915 63.6481C139.23 78.557 169.111 94.4939 194.731 111.015C200.683 114.856 206.638 118.87 212.431 122.945C236.751 140.059 258.864 158.838 278.153 178.761C303.251 204.681 324.423 232.748 341.076 262.174C361.435 298.415 374.591 335.284 388.522 374.321C393.357 387.871 398.358 401.882 403.657 415.775C414.478 443.953 429.906 480.9 453.332 516.805C465.892 536.075 479.496 552.768 494.919 567.835C528.807 600.942 572.027 627.393 623.382 646.452C639.823 652.556 657.073 657.879 674.649 662.275C695.049 667.364 716.444 671.27 738.234 673.881C773.546 678.016 808.661 678.982 842.604 676.75C859.569 675.635 877.195 673.441 894.99 670.232C924.226 664.999 952.761 656.74 980.354 648.752C999.562 643.194 1019.42 637.443 1039.07 632.871C1057.63 628.549 1079.74 623.771 1103.02 621.08C1123.04 618.753 1141.47 618.948 1157.79 621.658C1177.84 624.988 1194.95 632.164 1208.64 642.986C1216.8 649.399 1224.23 657.173 1231.35 666.753C1244.62 684.56 1254.08 705.242 1263.24 725.245C1266.88 733.196 1270.31 740.707 1273.93 747.914C1285.89 771.761 1297.67 796.417 1308.96 821.199C1332.23 872.22 1354.88 926.906 1380.24 993.297L1379.95 993.339Z" fill="white" fill-opacity="0.5"/>
<path d="M1383.84 979.279C1362.05 913.339 1339.62 856.512 1315.26 805.552C1303.39 780.671 1290.6 756.213 1277.24 732.856C1273.7 726.659 1270.29 720.325 1266.67 713.619C1255.84 693.538 1244.65 672.774 1229.73 655.592C1222.2 646.895 1214.48 639.866 1206.11 634.1C1174.08 612.015 1132.13 613.59 1102.57 618.798C1081.64 622.457 1061.65 628.036 1041.31 633.913C1023.51 639.057 1006.21 645.314 987.886 651.937C960.693 661.77 932.575 671.937 902.858 678.079C885.205 681.773 867.428 683.98 850.02 684.64C817.595 685.871 783.598 683.368 746.086 676.99C725.093 673.419 704.089 668.503 683.658 662.374C666.425 657.186 649.567 651.135 633.549 644.381C609.718 634.341 587.25 622.419 566.765 608.947C545.252 594.798 525.709 578.788 508.681 561.364C493.762 546.1 480.237 529.116 467.333 509.445C443.884 473.752 426.066 437.39 413.166 409.7C408.39 399.449 403.754 389.202 399.27 379.289C381.412 339.813 364.546 302.524 340.15 267.114C321.917 240.649 299.628 215.575 273.906 192.592C254.443 175.202 232.784 159.396 207.694 144.272C201.903 140.784 195.964 137.357 190.043 134.088C164.031 119.749 135.301 106.913 100.447 91.6219C75.3436 80.5482 42.2101 66.7428 8.5239 58.2095C-7.41586 54.132 -23.3934 51.6426 -38.9673 50.805C-93.8013 47.8607 -137.744 63.0575 -156.517 91.4584L-156.845 91.2763C-151.868 83.7445 -145.153 77.0768 -136.892 71.4531C-129.02 66.0958 -119.695 61.6559 -109.177 58.2506C-89.1891 51.7837 -64.9232 49.1003 -39.0015 50.4934C-23.3982 51.3318 -7.39041 53.8266 8.57652 57.9105C42.2953 66.4501 75.4537 80.2674 100.574 91.3475C135.439 106.643 164.178 119.482 190.209 133.831C196.133 137.104 202.077 140.532 207.875 144.024C232.989 159.163 254.669 174.984 274.153 192.393C299.902 215.399 322.21 240.493 340.462 266.985C364.875 302.421 381.75 339.722 399.613 379.213C404.095 389.123 408.731 399.371 413.507 409.619C426.406 437.3 444.216 473.648 467.65 509.323C480.539 528.973 494.049 545.938 508.951 561.185C542.433 595.445 584.398 623.343 633.672 644.103C649.676 650.849 666.518 656.896 683.734 662.078C704.146 668.201 725.132 673.115 746.105 676.68C783.586 683.054 817.554 685.555 849.952 684.326C867.338 683.666 885.092 681.462 902.725 677.771C932.416 671.635 960.522 661.471 987.704 651.645C1006.03 645.018 1023.34 638.76 1041.15 633.614C1061.5 627.732 1081.5 622.153 1102.45 618.489C1121.61 615.111 1139.52 614.302 1155.69 616.077C1175.29 618.231 1192.33 624.217 1206.32 633.867C1214.72 639.655 1222.47 646.708 1230.02 655.431C1244.96 672.644 1256.17 693.427 1267 713.525C1270.62 720.227 1274.03 726.561 1277.57 732.754C1290.94 756.119 1303.73 780.585 1315.6 805.474C1339.97 856.446 1362.4 913.284 1384.19 979.238L1383.84 979.279Z" fill="white" fill-opacity="0.5"/>
<path d="M1387.72 965.217C1369.18 898.814 1347.63 841.45 1321.84 789.85C1309.39 764.864 1295.59 740.602 1280.84 717.731C1277.69 712.842 1274.48 707.709 1271.38 702.746C1258.57 682.243 1245.33 661.043 1228.36 644.321C1220.4 636.444 1212.36 630.136 1203.78 625.038C1170.85 605.47 1130.28 609.462 1102.04 616.255C1082.92 620.817 1064.54 627.28 1046.77 633.531L1043.44 634.702C1027.3 640.369 1011.52 647.335 994.81 654.711C968.199 666.457 940.685 678.602 910.62 685.668C893.098 689.85 875.181 692.071 857.364 692.27C826.3 692.616 793.429 688.665 753.926 679.836C733.499 675.271 712.902 669.345 692.705 662.219C675.831 656.241 659.375 649.464 643.793 642.07C596.612 619.7 555.856 590.317 522.654 554.737C508.301 539.356 494.869 522.102 481.594 501.985C459.111 467.988 440.3 434.73 422.961 403.58C420.636 399.404 418.34 395.261 416.061 391.15C392.417 348.51 370.086 308.234 339.496 271.977C319.526 248.306 296.103 226.204 269.883 206.283C250.633 191.659 228.797 178.29 203.133 165.415C197.347 162.517 191.421 159.674 185.517 156.968C170.66 150.173 154.606 143.719 137.609 136.886C123.957 131.397 109.841 125.722 95.0864 119.373C66.6209 107.032 34.3588 93.047 3.39658 83.6812C-12.5789 78.8494 -28.3499 75.572 -43.4802 73.9407C-97.1771 68.1529 -141.438 78.9226 -161.877 102.75L-162.237 102.507C-156.849 96.2247 -149.83 90.788 -141.376 86.3476C-133.292 82.1011 -123.85 78.7371 -113.313 76.3498C-93.1599 71.7846 -69.0158 70.828 -43.4947 73.5788C-28.3303 75.2128 -12.5268 78.4965 3.47984 83.3384C34.4732 92.7143 66.7509 106.708 95.2281 119.053C109.974 125.396 124.089 131.073 137.737 136.56C154.741 143.396 170.799 149.853 185.67 156.654C191.578 159.365 197.511 162.209 203.301 165.11C228.997 177.999 250.859 191.385 270.136 206.031C296.387 225.975 319.835 248.102 339.828 271.798C370.446 308.087 392.788 348.383 416.441 391.042C418.72 395.152 421.018 399.294 423.341 403.471C440.676 434.616 459.48 467.865 481.957 501.851C495.219 521.945 508.636 539.182 522.972 554.544C556.13 590.079 596.834 619.422 643.953 641.763C659.518 649.148 675.957 655.919 692.812 661.89C712.988 669.007 733.566 674.928 753.97 679.489C793.434 688.308 826.266 692.255 857.29 691.91C875.069 691.711 892.952 689.494 910.443 685.32C940.471 678.262 967.968 666.124 994.563 654.385C1011.28 647.005 1027.07 640.036 1043.22 634.365L1046.55 633.194C1064.33 626.94 1082.72 620.473 1101.86 615.906C1130.19 609.09 1170.9 605.095 1203.98 624.753C1212.6 629.875 1220.67 636.206 1228.66 644.114C1245.67 660.871 1258.93 682.094 1271.75 702.62C1274.85 707.582 1278.05 712.715 1281.2 717.601C1295.96 740.483 1309.76 764.759 1322.22 789.758C1348.02 841.38 1369.58 898.763 1388.13 965.188L1387.72 965.217Z" fill="white" fill-opacity="0.5"/>
<path d="M1391.61 951.153C1376.53 885.218 1355.27 825.664 1328.42 774.15C1315.39 749.062 1300.59 724.994 1284.44 702.613C1282.11 699.38 1279.73 696.042 1277.43 692.814C1262.24 671.487 1246.52 649.431 1227 633.058C1218.63 625.996 1210.27 620.412 1201.45 615.982C1167.62 598.994 1128.44 605.372 1101.52 613.714C1084.82 618.841 1068.92 625.589 1053.54 632.116C1050.88 633.246 1048.22 634.372 1045.56 635.49C1030.96 641.633 1016.58 649.249 1001.35 657.312C975.451 671.019 948.676 685.191 918.381 693.262C900.59 698.001 883.034 700.173 864.705 699.905C826.368 699.342 791.153 690.885 761.762 682.689C741.884 677.144 721.693 670.21 701.748 662.072C685.242 655.307 669.188 647.801 654.035 639.766C609.099 615.955 569.597 585.12 536.628 548.117C522.909 532.722 509.573 515.195 495.854 494.533C481.984 473.693 469.218 453.869 456.871 434.695C448.481 421.664 440.554 409.355 432.76 397.472C403.298 352.551 375.895 312.467 338.849 276.849C317.149 255.987 292.594 236.853 265.866 219.979C246.71 207.885 225.327 197.266 198.577 186.56C192.804 184.256 186.889 181.998 180.998 179.85C172.044 176.601 162.686 173.481 152.781 170.181C133.773 163.847 112.226 156.666 89.7239 147.126C81.1556 143.492 72.4499 139.692 64.0303 136.016C42.3743 126.561 19.9815 116.785 -1.73398 109.152C-17.6816 103.548 -33.2489 99.4832 -47.9987 97.0742C-100.509 88.5013 -145.085 94.8467 -167.245 114.046L-167.621 113.734C-161.819 108.706 -154.496 104.502 -145.856 101.237C-137.558 98.1023 -127.999 95.8162 -117.45 94.4422C-97.1221 91.7954 -73.1022 92.5646 -47.9841 96.6658C-33.1987 99.0802 -17.5965 103.152 -1.61378 108.77C20.1258 116.41 42.5273 126.192 64.1949 135.651C72.6121 139.327 81.3178 143.126 89.8839 146.759C112.365 156.291 133.895 163.468 152.893 169.798C162.803 173.1 172.163 176.221 181.127 179.473C187.025 181.624 192.944 183.884 198.725 186.191C225.513 196.91 246.926 207.547 266.115 219.66C292.875 236.555 317.464 255.714 339.191 276.604C355.925 292.692 372.062 311.088 388.524 332.841C403.261 352.315 417.032 372.7 433.177 397.316C440.97 409.201 448.897 421.51 457.29 434.542C469.635 453.713 482.401 473.537 496.267 494.373C509.972 515.015 523.294 532.524 536.996 547.901C569.92 584.854 609.366 615.646 654.239 639.423C669.375 647.449 685.408 654.945 701.895 661.703C721.817 669.832 741.986 676.759 761.841 682.295C791.195 690.483 826.363 698.928 864.633 699.49C882.911 699.758 900.422 697.591 918.165 692.864C948.409 684.808 975.163 670.646 1001.04 656.95C1016.28 648.883 1030.67 641.263 1045.29 635.114C1047.95 633.996 1050.6 632.869 1053.26 631.74C1068.65 625.209 1084.56 618.457 1101.28 613.322C1118.79 607.896 1135.69 605.063 1151.49 604.904C1170.22 604.714 1187.09 608.325 1201.64 615.635C1210.5 620.086 1218.9 625.697 1227.3 632.788C1246.88 649.205 1262.61 671.287 1277.83 692.641C1280.13 695.87 1282.5 699.208 1284.83 702.437C1300.99 724.836 1315.8 748.926 1328.85 774.033C1343.11 801.386 1355.89 831.192 1366.83 862.621C1376.5 890.399 1385 920.18 1392.08 951.134L1391.61 951.153Z" fill="white" fill-opacity="0.5"/>
<path d="M1395.5 937.086C1383.65 870.696 1363.3 810.594 1335.01 758.449C1321.39 733.258 1305.58 709.387 1288.04 687.494C1287.21 686.452 1286.38 685.41 1285.54 684.365C1267.31 661.583 1248.46 638.025 1225.64 621.799C1216.81 615.512 1208.13 610.649 1199.14 606.931C1164.43 592.59 1126.61 601.322 1101 611.172C1085.95 616.909 1071.77 624.103 1058.05 631.061C1054.66 632.782 1051.15 634.56 1047.7 636.281C1034.57 642.831 1021.54 651.025 1007.74 659.701C982.644 675.482 956.693 691.8 926.152 700.856C908.483 706.095 890.787 708.281 872.052 707.54C835.144 706.079 801 696.102 769.601 685.539C750.24 679.025 730.454 671.079 710.793 661.921C694.658 654.368 679.01 646.137 664.28 637.458C621.689 612.38 583.442 580.093 550.607 541.494C537.457 526.038 524.592 508.747 510.124 487.081C482.598 445.975 461.765 416.455 442.574 391.368C404.405 341.471 373.196 308.681 338.224 281.731C314.811 263.688 289.124 247.523 261.872 233.682C242.965 224.08 222.046 216.068 194.042 207.711C188.302 206.004 182.4 204.33 176.499 202.738C170.921 201.243 165.224 199.802 159.192 198.275C136.92 192.638 111.675 186.249 84.3726 174.881C69.9818 168.89 55.4844 162.256 41.4646 155.842C25.5309 148.552 9.05585 141.014 -6.86109 134.624C-22.8201 128.217 -38.1839 123.366 -52.5145 120.211C-103.773 108.923 -148.673 110.846 -172.618 125.354L-172.982 124.96C-166.762 121.191 -159.135 118.22 -150.314 116.129C-141.798 114.11 -132.128 112.901 -121.57 112.535C-101.06 111.822 -77.1594 114.319 -52.4561 119.76C-38.0866 122.925 -22.6887 127.786 -6.69228 134.207C9.23869 140.603 25.7231 148.145 41.6631 155.439C55.6782 161.852 70.1686 168.483 84.5477 174.469C111.802 185.815 137.02 192.198 159.267 197.83C165.302 199.356 171.002 200.801 176.584 202.295C182.492 203.89 188.398 205.565 194.144 207.272C222.19 215.644 243.146 223.668 262.093 233.292C289.382 247.152 315.106 263.34 338.553 281.409C373.572 308.396 404.813 341.219 443.017 391.16C462.215 416.257 483.056 445.785 510.588 486.902C525.046 508.552 537.897 525.824 551.032 541.264C583.823 579.809 622.013 612.05 664.54 637.09C679.251 645.758 694.882 653.978 710.993 661.521C730.632 670.668 750.392 678.604 769.728 685.111C801.08 695.657 835.165 705.62 871.989 707.077C890.654 707.817 908.288 705.636 925.896 700.416C956.37 691.379 982.295 675.079 1007.36 659.315C1021.17 650.634 1034.21 642.433 1047.37 635.873C1050.81 634.154 1054.32 632.376 1057.71 630.655C1071.44 623.691 1085.63 616.492 1100.7 610.746C1117.42 604.317 1133.81 600.474 1149.41 599.322C1167.69 597.972 1184.48 600.398 1199.31 606.522C1208.36 610.26 1217.07 615.149 1225.95 621.465C1248.84 637.747 1267.72 661.337 1285.98 684.153C1286.81 685.197 1287.65 686.242 1288.48 687.281C1306.04 709.199 1321.86 733.099 1335.5 758.317C1363.81 810.508 1384.18 870.657 1396.04 937.094L1395.5 937.086Z" fill="white" fill-opacity="0.5"/>
<path d="M781.305 689.908C779.994 689.393 778.702 688.884 777.433 688.38C758.563 680.904 739.181 671.949 719.832 661.762C704.075 653.423 688.831 644.467 674.521 635.143C654.071 621.829 634.329 606.479 615.836 589.518C597.977 573.14 580.734 554.753 564.584 534.867C548.758 515.382 534.79 495.109 524.388 479.624C500.026 443.454 475.8 411.707 452.385 385.262C414.46 342.433 377.988 311.085 337.602 286.608C313.237 271.842 286.131 258.462 259.134 247.87C258.716 247.706 258.3 247.543 257.881 247.381C234.663 238.345 211.299 233.136 189.511 228.854C183.838 227.747 177.947 226.657 172.001 225.618C168.741 225.055 165.468 224.51 162.005 223.932C137.58 219.867 109.894 215.256 79.0168 202.63C60.2121 194.939 41.5079 185.803 23.4197 176.967C11.7406 171.261 -0.335077 165.362 -11.992 160.088C-28.0166 152.837 -43.1697 147.202 -57.0363 143.339C-106.968 129.424 -152.191 126.926 -178.011 136.658L-178.33 136.179C-165.086 131.188 -147.376 129.317 -125.691 130.614C-104.982 131.855 -81.2035 136.085 -56.9309 142.85C-43.0285 146.725 -27.8342 152.373 -11.7737 159.641C-0.105069 164.92 11.9769 170.823 23.6607 176.531C41.7372 185.363 60.4296 194.495 79.2094 202.173C110.008 214.768 137.645 219.369 162.03 223.429C165.496 224.005 168.768 224.551 172.031 225.115C177.982 226.155 183.878 227.245 189.556 228.355C211.381 232.645 234.785 237.863 258.059 246.919C285.516 257.602 313.122 271.187 337.902 286.207C358.745 298.841 378.191 313.029 397.345 329.582C415.793 345.524 433.95 363.651 452.85 384.998C476.284 411.463 500.527 443.234 524.905 479.427C535.297 494.903 549.255 515.161 565.065 534.624C597.836 574.977 634.771 608.665 674.84 634.755C689.131 644.067 704.356 653.012 720.09 661.339C739.414 671.512 758.768 680.457 777.613 687.921C807.101 699.601 841.696 712.259 879.34 714.656C898.394 715.87 916.148 713.679 933.619 707.961C964.303 697.918 989.301 679.386 1013.48 661.463C1025.92 652.245 1037.66 643.536 1049.43 636.626C1053.2 634.412 1057.04 632.111 1060.74 629.884C1073.26 622.363 1086.2 614.587 1100.12 608.165C1116.05 600.748 1131.93 595.891 1147.32 593.73C1165.16 591.225 1181.86 592.459 1196.96 597.399C1206.27 600.448 1215.31 604.613 1224.58 610.135C1249.38 624.896 1270.68 647.877 1292.11 672.116C1310.81 693.251 1328.1 717.621 1342.13 742.594C1357.73 770.277 1370.68 800.654 1380.61 832.878C1389.46 861.586 1395.98 891.923 1399.99 923.048L1399.38 923.024C1390.77 856.182 1371.33 795.531 1341.58 742.755C1327.58 717.819 1310.31 693.486 1291.64 672.385C1270.24 648.188 1248.99 625.251 1224.29 610.544C1215.06 605.052 1206.08 600.911 1196.82 597.881C1169.08 588.807 1134.86 592.623 1100.47 608.63C1086.58 615.041 1073.65 622.81 1061.14 630.323C1057.44 632.552 1053.6 634.854 1049.83 637.068C1038.08 643.965 1026.35 652.666 1013.92 661.877C1002.06 670.67 989.792 679.765 976.595 687.956C961.634 697.242 947.675 703.945 933.916 708.45C916.367 714.194 898.533 716.394 879.39 715.176C862.507 714.101 845.141 710.956 826.3 705.564C810.348 700.99 794.794 695.2 781.305 689.908Z" fill="white" fill-opacity="0.5"/>
<path d="M818.416 705.542C806.5 700.867 795.275 695.811 785.259 691.221C766.842 682.781 747.867 672.816 728.865 661.602C713.495 652.484 698.653 642.803 684.753 632.825C646.683 605.523 611.944 571.31 578.552 528.236C563.989 509.452 550.852 490.235 538.649 472.165C514.53 436.557 488.809 405.266 462.196 379.157C423.056 340.758 383.271 312.9 336.988 291.485C310.617 279.284 281.885 268.769 253.897 261.077C230.47 254.637 207.009 252.072 184.983 249.993C179.47 249.48 173.59 248.976 167.509 248.494C165.989 248.376 164.454 248.26 162.898 248.142C137.349 246.212 108.439 244.029 75.3328 231.041C74.7742 230.822 74.2188 230.602 73.6577 230.375C51.3304 221.408 29.4607 209.893 8.30895 198.754C-0.0765621 194.338 -8.74881 189.772 -17.1293 185.543C-33.4997 177.284 -48.0337 171.039 -61.5662 166.455C-110.786 149.785 -155.204 143.037 -183.429 147.948L-183.66 147.387C-169.707 144.961 -151.083 145.407 -129.808 148.676C-108.881 151.893 -85.2284 157.859 -61.4053 165.928C-47.8347 170.525 -33.2633 176.784 -16.857 185.061C-8.46713 189.295 0.206732 193.863 8.59531 198.278C29.7274 209.405 51.5769 220.91 73.8621 229.861C107.55 243.395 136.932 245.611 162.851 247.567C164.404 247.685 165.942 247.801 167.463 247.917C173.549 248.4 179.432 248.905 184.95 249.42C207.012 251.5 230.516 254.073 254.006 260.529C282.039 268.235 310.818 278.766 337.232 290.987C360.169 301.598 381.264 313.685 401.724 327.935C422.796 342.611 442.732 359.254 462.671 378.818C489.317 404.961 515.071 436.291 539.216 471.935C551.414 489.999 564.542 509.204 579.093 527.97C612.441 570.986 647.127 605.148 685.136 632.406C699.015 642.368 713.837 652.037 729.185 661.141C748.161 672.341 767.109 682.294 785.499 690.718C816.444 704.897 849.746 719.009 886.692 722.223C906.134 723.912 924.01 721.711 941.341 715.492C972.217 704.415 997.281 682.617 1019.4 663.385C1030.52 653.708 1041.03 644.568 1051.5 637.367C1055.27 634.769 1059.11 632.059 1062.82 629.438C1074.43 621.236 1086.44 612.755 1099.53 605.571C1114.71 597.175 1130.08 591.305 1145.23 588.123C1162.63 584.47 1179.24 584.516 1194.6 588.261C1204.2 590.601 1213.56 594.046 1223.21 598.784C1250.18 612.029 1274.01 634.558 1295.75 656.933C1315.82 677.593 1334.15 701.77 1348.76 726.854C1365.04 754.702 1378.07 785.365 1387.5 817.987C1395.93 847.159 1401.47 877.775 1403.95 908.987L1403.28 908.936C1398 842.592 1378.95 779.692 1348.17 727.038C1333.59 702.002 1315.29 677.87 1295.26 657.252C1273.57 634.93 1249.8 612.457 1222.95 599.267C1213.36 594.555 1204.06 591.134 1194.52 588.807C1166.15 581.892 1132.57 588.02 1099.96 606.062C1086.89 613.23 1074.9 621.703 1063.3 629.897C1059.59 632.519 1055.75 635.23 1051.97 637.831C1041.53 645.015 1031.03 654.146 1019.92 663.812C997.765 683.073 972.661 704.907 941.684 716.021C924.256 722.274 906.28 724.487 886.729 722.789C869.764 721.313 852.342 717.478 833.468 711.058C828.36 709.333 823.331 707.47 818.416 705.542Z" fill="white" fill-opacity="0.5"/>
<path d="M841.148 716.783C840.978 716.716 840.81 716.65 840.639 716.583C823.812 709.943 807.921 701.816 793.084 694.06C775.081 684.65 756.516 673.674 737.9 661.44C722.92 651.548 708.482 641.14 694.99 630.508C659.21 602.337 626.653 567.735 592.527 521.609C580.235 505 568.512 487.708 557.171 470.987C555.753 468.895 554.333 466.803 552.912 464.712C528.621 429.042 501.403 398.205 472.018 373.059C431.777 338.628 387.412 313.541 336.387 296.366C308.408 286.95 278.51 279.485 249.924 274.776C227.37 271.063 206.027 270.928 180.467 271.135C175.283 271.185 169.74 271.259 163.024 271.371L162.649 271.379C149.681 271.626 134.982 271.904 119.239 270.324C101.157 268.509 84.4928 264.512 68.3004 258.13C43.0546 248.167 18.738 234.31 -4.77535 220.908C-10.5363 217.624 -16.496 214.229 -22.2703 211.006C-38.8313 201.769 -53.1681 194.761 -66.1005 189.582C-113.719 170.514 -158.467 159.457 -188.866 159.243L-188.973 158.621C-174.082 158.725 -155.044 161.538 -133.917 166.753C-112.751 171.978 -89.2212 179.681 -65.8754 189.029C-52.9056 194.222 -38.5321 201.247 -21.9359 210.504C-16.1569 213.729 -10.1973 217.124 -4.43393 220.409C19.0512 233.794 43.3365 247.634 68.5216 257.573C68.6338 257.617 68.7483 257.661 68.8605 257.705C104.914 271.85 136.846 271.244 162.521 270.758L162.898 270.751C169.617 270.638 175.16 270.564 180.346 270.515C205.95 270.307 227.33 270.442 249.955 274.168C278.589 278.883 308.537 286.361 336.563 295.794C361.532 304.199 384.278 314.183 406.103 326.32C429.622 339.398 451.341 354.556 472.498 372.66C501.94 397.853 529.205 428.741 553.536 464.47C554.957 466.561 556.376 468.654 557.794 470.747C569.129 487.461 580.85 504.747 593.13 521.343C627.211 567.411 659.721 601.964 695.44 630.088C708.914 640.706 723.331 651.098 738.289 660.977C756.88 673.194 775.418 684.154 793.393 693.548C825.587 710.38 857.513 725.819 894.049 729.818C913.876 731.987 931.873 729.776 949.065 723.053C980.122 710.91 1004.03 686.581 1025.12 665.115C1035 655.065 1044.33 645.571 1053.56 638.141C1057.12 635.282 1060.73 632.3 1064.22 629.415C1075.14 620.394 1086.43 611.067 1098.94 603.009C1113.39 593.636 1128.26 586.75 1143.14 582.541C1160.1 577.746 1176.62 576.605 1192.24 579.153C1201.93 580.734 1211.4 583.371 1221.2 587.213C1221.41 587.296 1221.62 587.379 1221.84 587.466C1252.23 599.535 1279.24 622.83 1299.38 641.777C1320.83 661.962 1340.2 685.947 1355.4 711.14C1372.35 739.155 1385.47 770.102 1394.39 803.126C1402.4 832.76 1406.94 863.656 1407.9 894.957L1407.17 894.877C1405.74 848.302 1395.48 778.656 1354.76 711.353C1339.59 686.217 1320.27 662.289 1298.87 642.152C1278.79 623.258 1251.86 600.032 1221.62 588.023C1211.66 584.062 1202.04 581.368 1192.21 579.765C1163.28 575.045 1130.33 583.483 1099.44 603.524C1086.95 611.564 1075.68 620.88 1064.77 629.891C1061.28 632.778 1057.67 635.761 1054.11 638.622C1044.9 646.033 1035.58 655.514 1025.72 665.554C1004.59 687.059 980.633 711.435 949.455 723.625C932.149 730.393 914.03 732.619 894.069 730.433C877.152 728.58 859.833 724.113 841.148 716.783Z" fill="white" fill-opacity="0.5"/>
<path d="M858.824 726.739C855.197 725.316 851.527 723.769 847.804 722.094C831.512 714.765 816.324 705.993 800.907 696.898C783.035 686.355 765.38 674.704 746.932 661.278C732.351 650.618 718.318 639.486 705.224 628.189C671.999 599.55 641.551 564.635 606.501 514.981C597.796 502.65 589.243 489.943 580.972 477.654C576.468 470.965 571.815 464.047 567.179 457.257C542.552 421.279 513.841 390.901 481.843 366.962C439.566 335.332 391.794 313.836 335.794 301.244C306.208 294.591 275.143 290.174 245.962 288.47C222.52 287.101 200.68 289.526 177.557 292.094L175.958 292.271C172.344 292.677 168.689 293.093 164.989 293.513C162.858 293.756 160.712 294 158.548 294.245C145.04 295.806 130.536 297.272 114.821 296.615C96.5755 295.852 79.6095 292.342 62.9483 285.883C35.2122 275.126 8.97377 258.923 -16.3964 243.249C-20.0166 241.011 -23.7637 238.698 -27.4061 236.469C-44.482 226.015 -58.2159 218.466 -70.632 212.706C-116.45 191.455 -161.526 176.08 -194.307 170.524L-194.272 169.864C-161.405 175.434 -116.235 190.838 -70.3372 212.127C-57.8868 217.902 -44.1177 225.471 -27.0089 235.944C-23.3649 238.176 -19.6179 240.49 -15.9953 242.728C9.06478 258.21 34.9698 274.211 62.2966 284.932C62.5911 285.047 62.8856 285.163 63.1831 285.277C98.5837 299.002 128.388 297.035 158.326 293.579C160.491 293.334 162.636 293.09 164.768 292.846C168.468 292.425 172.121 292.01 175.738 291.603L177.336 291.426C200.498 288.854 222.375 286.425 245.894 287.798C275.129 289.503 306.247 293.928 335.885 300.593C392.026 313.217 439.926 334.772 482.318 366.488C514.395 390.487 543.173 420.935 567.855 456.992C572.49 463.784 577.146 470.701 581.649 477.392C589.916 489.677 598.467 502.381 607.168 514.704C642.176 564.3 672.581 599.167 705.747 627.757C718.823 639.037 732.835 650.153 747.396 660.797C765.816 674.203 783.446 685.838 801.292 696.364C828.38 712.345 862.093 732.236 901.412 737.396C921.626 740.05 939.741 737.826 956.792 730.598C988.025 717.359 1010.68 690.392 1030.66 666.602C1039.35 656.266 1047.55 646.504 1055.63 638.903C1058.78 635.942 1061.98 632.857 1065.08 629.873C1075.47 619.865 1086.21 609.518 1098.36 600.433C1112.09 590.084 1126.46 582.181 1141.05 576.945C1157.58 571.012 1174.01 568.687 1189.88 570.035C1200.06 570.899 1210.06 572.894 1220.46 576.132C1234.38 580.468 1248.38 587.161 1263.26 596.588C1275.85 604.566 1288.85 614.383 1303.01 626.605C1325.84 646.315 1346.25 670.108 1362.04 695.413C1379.67 723.593 1392.87 754.829 1401.28 788.251C1408.86 818.347 1412.41 849.522 1411.86 880.913L1411.06 880.798C1412.23 814.525 1394.58 748.771 1361.34 695.652C1345.6 670.416 1325.25 646.69 1302.48 627.038C1271.98 600.707 1245.87 584.731 1220.29 576.761C1209.97 573.544 1200.03 571.563 1189.92 570.703C1152.17 567.496 1119.6 585.391 1098.93 600.966C1086.82 610.028 1076.09 620.363 1065.71 630.359C1062.61 633.344 1059.41 636.431 1056.26 639.394C1048.2 646.972 1040.01 656.724 1031.34 667.046C1011.31 690.888 988.606 717.911 957.231 731.21C940.045 738.495 921.786 740.736 901.409 738.062C887.599 736.249 873.573 732.525 858.824 726.739Z" fill="white" fill-opacity="0.5"/>
<path d="M873.852 736.098C849.138 726.403 827.36 712.029 808.728 699.732C791.199 688.165 773.939 675.531 755.962 661.112C741.784 649.692 728.155 637.835 715.456 625.868C677.379 590.018 647.301 548.2 620.472 508.351C614.994 500.215 609.502 491.889 604.192 483.839C596.82 472.659 589.196 461.1 581.444 449.802C556.403 413.403 526.2 383.48 491.677 360.866C447.015 331.614 395.833 313.704 335.205 306.115C303.99 302.208 271.761 300.84 242.003 302.161C219.051 303.177 198.213 307.654 176.153 312.393C174.589 312.728 173.022 313.066 171.448 313.402L170.594 313.586C165.23 314.741 159.684 315.934 154.073 317.114C140.616 319.974 125.982 322.651 110.18 322.883C91.8371 323.152 74.6375 320.127 57.5933 313.634C27.6756 302.238 -0.0833492 283.655 -26.9258 265.685C-28.8074 264.426 -30.6805 263.172 -32.5463 261.927C-50.2566 250.099 -63.4029 242.049 -75.1672 235.825C-118.889 212.694 -164.299 193 -199.754 181.792L-199.569 181.115C-164.056 192.34 -118.579 212.063 -74.7995 235.224C-63.0016 241.466 -49.8272 249.534 -32.0847 261.383C-30.2189 262.627 -28.3458 263.881 -26.4626 265.144C0.328863 283.079 28.036 301.622 57.837 312.978C94.8512 327.079 126.751 322.142 153.746 316.407C159.357 315.227 164.903 314.033 170.266 312.88L171.121 312.696C172.696 312.359 174.262 312.023 175.825 311.688C197.924 306.94 218.798 302.456 241.826 301.435C271.639 300.112 303.928 301.484 335.198 305.398C363.941 308.996 389.994 314.784 414.843 323.091C442.562 332.358 468.564 344.882 492.129 360.318C526.762 383.003 557.055 413.013 582.167 449.513C589.924 460.817 597.55 472.379 604.924 483.561C610.233 491.612 615.722 499.934 621.199 508.067C648.001 547.874 678.041 589.644 716.048 625.429C728.73 637.378 742.339 649.219 756.497 660.623C774.447 675.02 791.679 687.634 809.182 699.185C836.057 716.921 869.504 738.995 908.762 744.976C929.364 748.115 947.597 745.88 964.506 738.145C995.913 723.775 1017.21 694.07 1036 667.86C1043.55 657.33 1050.68 647.383 1057.69 639.667C1060.28 636.813 1062.92 633.849 1065.48 630.982C1075.47 619.77 1085.8 608.175 1097.76 597.86C1110.81 586.528 1124.67 577.605 1138.94 571.343C1155.06 564.275 1171.39 560.767 1187.5 560.914C1197.97 561.011 1208.29 562.281 1219.06 564.798C1233.58 568.19 1248.79 574.235 1264.28 582.764C1277.84 590.234 1292.08 599.878 1306.63 611.43C1330.84 630.664 1352.29 654.265 1368.66 679.683C1386.97 708.03 1400.26 739.551 1408.16 773.374C1415.3 803.93 1417.87 835.388 1415.8 866.87L1414.95 866.719C1419.33 800.01 1402.63 733.681 1367.92 679.951C1351.6 654.616 1330.22 631.093 1306.1 611.923C1274.82 587.077 1246.32 571.889 1218.96 565.497C1208.26 562.998 1198.01 561.737 1187.63 561.64C1149.29 561.29 1117.95 581.439 1098.41 598.407C1086.49 608.695 1076.17 620.274 1066.19 631.472C1063.63 634.339 1060.99 637.304 1058.4 640.162C1051.41 647.853 1044.29 657.785 1036.75 668.303C1027.71 680.912 1017.47 695.203 1005.79 707.79C992.422 722.212 979.077 732.354 965 738.796C956.859 742.52 948.206 745.014 939.278 746.206C929.677 747.488 919.403 747.316 908.741 745.691C896.541 743.834 884.902 740.433 873.852 736.098Z" fill="white" fill-opacity="0.5"/>
<path d="M887.166 745.121C878.996 741.916 870.683 737.926 862.137 733.116C845.304 723.643 830.027 712.444 816.547 702.566C799.556 690.113 782.209 676.109 764.991 660.944C751.225 648.776 737.999 636.193 725.687 623.543C690.337 587.259 663.45 546.903 634.443 501.719C631.865 497.703 629.252 493.614 626.726 489.658C616.777 474.084 606.491 457.98 595.708 442.347C570.207 405.456 538.514 375.992 501.507 354.77C454.828 328.001 398.676 313.268 334.616 310.985C301.744 309.813 268.35 311.493 238.044 315.845C215.225 319.122 194.962 325.59 173.509 332.439C171.329 333.135 169.141 333.832 166.941 334.531C161.465 336.275 155.571 338.141 149.599 339.98C137.065 343.863 122.027 347.991 105.542 349.147C87.0866 350.443 69.6503 347.905 52.2412 341.386C20.3704 329.456 -8.59939 308.461 -36.6161 288.157L-37.683 287.384C-51.4012 277.445 -65.9868 267.118 -79.6988 258.943C-121.495 234.025 -166.063 210.624 -205.189 193.054L-204.863 192.379C-165.695 209.968 -121.086 233.389 -79.2534 258.33C-65.5023 266.529 -50.8909 276.872 -37.1514 286.827L-36.0846 287.599C-8.12832 307.858 20.7841 328.807 52.4992 340.681C89.1263 354.393 120.609 348.093 149.175 339.241C155.146 337.404 161.035 335.536 166.51 333.794C168.709 333.096 170.898 332.397 173.077 331.703C194.567 324.843 214.867 318.363 237.761 315.075C268.124 310.713 301.582 309.031 334.514 310.205C364.569 311.277 393.07 315.073 419.22 321.486C449.099 328.815 476.931 339.803 501.942 354.145C539.089 375.447 570.899 405.018 596.486 442.034C607.277 457.681 617.569 473.791 627.523 489.374C630.049 493.328 632.662 497.417 635.24 501.433C664.219 546.574 691.077 586.886 726.362 623.107C738.658 635.737 751.864 648.302 765.61 660.453C782.804 675.595 800.122 689.578 817.088 702.012C843.681 721.504 876.778 745.761 916.13 752.562C937.119 756.189 955.469 753.944 972.231 745.697C1003.81 730.16 1024.52 696.188 1041.15 668.89C1047.63 658.257 1053.75 648.214 1059.76 640.442C1061.65 637.991 1063.58 635.46 1065.45 633.012C1075.16 620.29 1085.21 607.135 1097.17 595.298C1115.72 576.848 1146.03 554.326 1185.14 551.808C1195.94 551.113 1206.58 551.659 1217.68 553.477C1246.75 558.15 1277.9 572.548 1310.26 596.265C1335.85 615.022 1358.34 638.431 1375.3 663.962C1394.29 692.475 1407.67 724.284 1415.06 758.509C1418.45 774.207 1420.54 790.376 1421.29 806.566C1422 822.032 1421.49 837.599 1419.76 852.838L1418.85 852.646C1426.45 785.502 1410.71 718.598 1374.51 664.257C1357.62 638.821 1335.21 615.502 1309.72 596.816C1277.51 573.208 1246.53 558.883 1217.65 554.238C1206.63 552.433 1196.06 551.891 1185.35 552.581C1146.51 555.08 1116.36 577.491 1097.91 595.851C1085.97 607.657 1075.95 620.795 1066.25 633.499C1064.38 635.948 1062.44 638.481 1060.55 640.933C1054.56 648.679 1048.45 658.707 1041.98 669.325C1033.61 683.062 1024.12 698.63 1012.93 712.445C1000.06 728.32 986.931 739.422 972.779 746.384C964.706 750.356 956.054 752.983 947.069 754.192C937.389 755.495 926.963 755.202 916.083 753.32C906.534 751.673 896.949 748.959 887.166 745.121Z" fill="white" fill-opacity="0.5"/>
<path d="M910.49 762.463C899.333 758.086 888.076 752.013 876.467 744.133C860.044 732.984 845.239 719.827 832.18 708.221C815.676 693.554 799.145 677.53 783.045 660.601C770.109 646.964 757.695 632.93 746.143 618.89C717.697 584.324 696.333 547.269 673.714 508.036C670.017 501.623 666.192 494.992 662.383 488.452C648.988 465.473 637.373 446.302 624.233 427.437C597.74 389.455 563.069 360.904 521.183 342.574C468.55 319.542 405.381 312.184 333.434 320.705C297.692 324.94 261.001 332.926 230.12 343.196C206.857 350.934 186.912 361.466 165.796 372.617C163.18 373.998 160.555 375.384 157.916 376.768C153.215 379.238 147 382.487 140.643 385.694C113.868 399.24 81.1518 411.165 41.5271 396.886C40.2925 396.438 39.0597 395.972 37.8351 395.491C7.22941 383.484 -20.2354 361.588 -47.9794 338.286L-49.7097 336.826C-63.4333 325.237 -76.3979 314.29 -88.7921 305.162C-135.501 270.762 -181.346 239.206 -216.068 215.559L-215.496 214.906C-180.766 238.561 -134.908 270.123 -88.1826 304.537C-75.7546 313.689 -62.7766 324.649 -49.0342 336.252L-47.3063 337.711C-18.5461 361.867 9.91098 384.513 41.8014 396.084C80.987 410.204 113.435 398.364 140.01 384.92C146.364 381.716 152.573 378.469 157.274 376C159.912 374.615 162.535 373.23 165.151 371.849C186.3 360.681 206.277 350.131 229.614 342.369C260.557 332.076 297.322 324.074 333.135 319.831C366.374 315.893 398.283 315.375 427.974 318.288C462.041 321.63 493.522 329.543 521.54 341.803C563.643 360.226 598.489 388.919 625.108 427.078C638.266 445.972 649.892 465.163 663.3 488.162C667.112 494.702 670.936 501.335 674.636 507.75C697.232 546.943 718.575 583.963 746.967 618.46C758.502 632.482 770.897 646.495 783.814 660.111C799.891 677.018 816.396 693.017 832.877 707.662C858.747 730.654 890.944 759.267 930.844 767.725C952.653 772.348 971.238 770.081 987.658 760.796C1019.64 742.857 1036.93 702.595 1050.83 670.245C1055.36 659.69 1059.65 649.719 1063.87 641.987L1063.97 641.81C1073.42 624.499 1083.21 606.599 1095.98 590.163C1107.08 575.813 1119.41 563.831 1132.62 554.546C1147.51 544.078 1163.58 537.026 1180.38 533.584C1191.62 531.281 1202.9 530.377 1214.88 530.821C1247.27 531.964 1282.75 544.098 1317.49 565.915C1331.47 574.695 1344.66 584.865 1356.71 596.143C1368.84 607.485 1379.55 619.72 1388.55 632.501C1408.91 661.346 1422.46 693.733 1428.82 728.762C1434.54 760.248 1434.14 793.445 1427.65 824.762L1426.63 824.482C1440.51 757.454 1426.32 687.611 1387.68 632.861C1369.62 607.232 1345.17 584.316 1316.96 566.6C1282.42 544.907 1247.16 532.843 1215 531.709C1203.11 531.268 1191.92 532.166 1180.77 534.449C1149.41 540.877 1120.4 560.338 1096.87 590.727C1084.14 607.121 1074.37 624.996 1064.92 642.283L1064.83 642.46C1060.62 650.162 1056.34 660.118 1051.81 670.659C1037.87 703.108 1020.52 743.49 988.32 761.556C980.404 766.034 971.761 768.934 962.638 770.179C952.799 771.521 942.07 770.983 930.741 768.584C923.995 767.151 917.26 765.119 910.49 762.463Z" fill="white" fill-opacity="0.5"/>
<path d="M32.0788 423.109C18.3932 417.74 4.32237 409.771 -10.7974 398.84C-25.8206 387.979 -40.0164 375.552 -53.122 363.741C-55.4925 361.597 -57.8427 359.462 -60.1771 357.343C-71.797 346.791 -82.7729 336.824 -93.3304 328.273C-135.43 294.181 -175.883 262.513 -215.008 231.891L-221.49 226.816L-220.813 226.178L-214.331 231.253C-175.206 261.88 -134.746 293.55 -92.6383 327.65C-82.0517 336.223 -71.0616 346.202 -59.4282 356.767C-57.0961 358.886 -54.746 361.02 -52.3771 363.162C-25.4747 387.406 3.54158 412.057 36.4609 423.789C76.9528 438.147 110.628 422.767 135.438 407.766C141.791 403.933 147.982 400.057 152.666 397.11C155.25 395.486 157.821 393.86 160.386 392.237C181.653 378.79 201.74 366.088 225.552 356.023C256.983 342.742 294.948 331.599 332.455 324.652C367.253 318.205 400.871 315.515 432.379 316.658C468.519 317.968 501.815 324.353 531.344 335.634C575.827 352.48 612.196 380.735 639.426 419.602C654.515 441.164 667.059 463.007 677.341 481.532C682.936 491.612 688.463 501.864 693.81 511.778C712.733 546.876 732.301 583.167 757.278 616.143C768.434 630.875 780.428 645.614 792.924 659.947C808.397 677.662 824.497 694.669 840.779 710.494C866.23 735.228 897.902 766.011 938.208 775.309C960.393 780.426 979.092 778.149 995.377 768.348C1027.54 749.098 1042.97 705.529 1055.37 670.519C1059.04 660.167 1062.5 650.386 1065.94 642.768C1073.69 625.593 1082.99 605.75 1095.39 587.602C1105.87 572.216 1117.69 559.211 1130.51 548.951C1145.02 537.344 1161 529.111 1178.01 524.48C1189.28 521.411 1201.22 519.737 1213.49 519.501C1231.01 519.144 1249.46 521.835 1268.33 527.503C1286 532.811 1303.76 540.631 1321.11 550.744C1335.74 559.274 1349.54 569.274 1362.11 580.47C1374.77 591.735 1385.9 603.951 1395.19 616.774C1405.9 631.547 1414.81 647.526 1421.67 664.265C1428.17 680.126 1432.9 696.824 1435.72 713.895C1440.99 745.831 1439.57 779.318 1431.6 810.73L1430.52 810.403C1447.63 742.947 1434.41 672.517 1394.27 617.168C1375.9 591.801 1349.73 568.476 1320.58 551.487C1284.55 530.481 1247.58 519.743 1213.69 520.434C1201.51 520.668 1189.67 522.33 1178.48 525.374C1146.43 534.099 1118.8 555.221 1096.36 588.158C1084 606.256 1074.71 626.065 1066.97 643.213C1063.55 650.804 1060.09 660.569 1056.43 670.909C1050.31 688.18 1043.38 707.757 1033.88 725.586C1022.86 746.274 1010.5 760.519 996.103 769.137C988.252 773.863 979.612 776.9 970.427 778.164C960.507 779.529 949.623 778.871 938.079 776.207C932.255 774.864 926.611 773.077 921.145 770.932C888.41 758.09 861.912 732.335 840.001 711.04C823.696 695.191 807.571 678.16 792.078 660.42C779.563 646.066 767.552 631.306 756.381 616.552C731.352 583.51 711.764 547.181 692.821 512.049C687.476 502.138 681.951 491.889 676.36 481.814C666.092 463.312 653.566 441.5 638.505 419.979C611.422 381.319 575.265 353.23 531.033 336.474C461.645 309.965 384.961 315.906 332.848 325.561C295.416 332.495 257.529 343.613 226.165 356.869C202.423 366.903 182.366 379.585 161.131 393.011C158.567 394.633 155.993 396.258 153.408 397.884C148.721 400.832 142.527 404.711 136.169 408.549C125.754 414.846 109.807 423.705 91.6382 427.907C82.815 429.947 73.946 430.792 65.2769 430.418C55.6109 430.002 45.8189 428.057 36.1792 424.638C34.8125 424.156 33.446 423.645 32.0788 423.109Z" fill="white" fill-opacity="0.5"/>
<path d="M26.3162 450.721C12.6142 445.346 -1.36203 437.226 -16.2631 425.998C-31.6913 414.375 -46.1542 400.869 -58.2647 389.189C-61.9846 385.597 -65.6849 381.982 -69.2644 378.486C-79.27 368.713 -88.7214 359.48 -97.8704 351.38C-130.725 322.291 -163.46 293.632 -195.118 265.915C-205.59 256.747 -216.418 247.268 -226.908 238.071L-226.134 237.445C-215.644 246.642 -204.816 256.121 -194.344 265.289C-162.686 293.006 -129.947 321.669 -97.0909 350.762C-87.9182 358.883 -78.4543 368.126 -68.4376 377.911C-64.8604 381.407 -61.1594 385.02 -57.4442 388.61C-32.325 412.828 -2.69381 439.658 31.1164 451.491C72.6421 465.984 106.236 447.944 130.867 430.61C137.179 426.171 143.37 421.656 148.058 418.218C150.465 416.455 152.862 414.689 155.254 412.928C176.764 397.087 197.08 382.126 221.492 369.68C253.242 353.494 292.41 339.216 331.774 329.474C386.544 316.038 467.325 305.131 541.143 329.47C588.114 344.881 626.001 372.692 653.743 412.131C666.206 429.857 677.811 449.216 691.377 474.907C698.233 487.89 704.881 501.168 711.312 514.005C728.042 547.406 745.338 581.943 767.584 613.834C778.361 629.286 789.95 644.749 802.03 659.792C816.661 677.997 832.357 696.012 848.676 713.336C873.779 739.859 905.019 772.871 945.565 782.903C967.774 788.461 987.127 786.107 1003.09 775.911C1035.45 755.297 1049.46 706.3 1059.69 670.524C1062.56 660.484 1065.27 651.001 1068 643.561C1074.04 627.024 1082.55 605.43 1094.8 585.054C1115.99 549.735 1143.19 526.294 1175.63 515.389C1187.01 511.53 1199.28 509.11 1212.09 508.194C1230.32 506.881 1249.58 508.743 1269.33 513.729C1287.93 518.428 1306.57 525.779 1324.72 535.582C1340.02 543.898 1354.41 553.736 1367.5 564.823C1380.71 576.02 1392.26 588.21 1401.82 601.056C1412.87 615.903 1421.98 632 1428.88 648.901C1435.41 664.918 1440.03 681.785 1442.6 699.037C1447.43 731.425 1444.99 765.2 1435.55 796.71L1434.42 796.333C1454.75 728.451 1442.52 657.431 1400.86 601.486C1381.98 576.111 1354.76 552.992 1324.21 536.391C1286.51 516.033 1247.84 506.623 1212.37 509.178C1199.66 510.085 1187.5 512.487 1176.2 516.316C1143.98 527.148 1116.94 550.459 1095.85 585.605C1083.64 605.926 1075.15 627.478 1069.11 643.982C1066.4 651.397 1063.7 660.868 1060.83 670.895C1055.54 689.387 1049.54 710.349 1040.7 729.641C1030.4 752.103 1018.36 767.508 1003.88 776.734C996.08 781.715 987.444 784.893 978.205 786.178C968.19 787.573 957.155 786.788 945.407 783.849C927.168 779.335 909.312 769.957 890.816 755.175C874.739 742.326 860.435 727.212 847.816 713.88C831.471 696.531 815.755 678.491 801.102 660.26C789.004 645.195 777.398 629.711 766.606 614.238C744.312 582.281 726.996 547.706 710.25 514.271C703.824 501.437 697.175 488.166 690.326 475.195C676.783 449.548 665.198 430.225 652.765 412.542C625.189 373.33 587.545 345.692 540.873 330.379C467.372 306.147 386.854 317.026 332.249 330.422C292.963 340.143 253.877 354.391 222.194 370.544C197.85 382.953 177.564 397.895 156.087 413.712C153.694 415.475 151.297 417.241 148.89 419.004C144.199 422.445 138.003 426.964 131.684 431.407C106.836 448.896 72.9159 467.087 30.819 452.394C29.3232 451.869 27.8189 451.311 26.3162 450.721Z" fill="white" fill-opacity="0.5"/>
<path d="M20.6408 478.371C-16.7983 463.683 -48.9035 429.976 -77.3638 400.093C-86.1099 390.911 -94.3703 382.237 -102.414 374.487L-232.327 249.326L-231.464 248.714L-101.551 373.875C-93.4852 381.644 -85.2153 390.328 -76.4581 399.523C-46.8975 430.561 -13.3907 465.741 25.7704 479.195C68.2908 493.805 101.827 473.114 126.293 453.459C134.295 447.03 142.19 440.391 149.827 433.972C170.713 416.416 192.308 398.261 217.427 383.334C237.372 371.482 260.855 360.058 285.335 350.3C312.19 339.594 339.837 330.953 367.503 324.614C398.006 317.627 427.801 313.637 456.055 312.754C487.307 311.779 516.599 314.63 543.125 321.227C596.261 334.445 638.295 362.511 668.053 404.649C692.784 439.666 710.476 477.909 727.585 514.894C742.478 547.087 757.878 580.374 777.887 611.514C800.999 647.481 827.472 682.691 856.573 716.164C881.092 744.368 911.606 779.47 952.928 790.482C987.826 799.782 1014.12 789.575 1033.3 759.271C1049.62 733.496 1057.48 698.408 1063.8 670.216C1065.95 660.608 1067.99 651.533 1070.06 644.34C1081.48 604.685 1096.15 574.008 1114.91 550.556C1126.62 535.924 1140.07 524.066 1154.9 515.312C1171.46 505.531 1190.23 499.326 1210.7 496.869C1228.4 494.744 1247.11 495.497 1266.32 499.111C1284.61 502.551 1302.95 508.495 1320.83 516.778C1356.01 533.069 1387.13 557.411 1408.44 585.319C1419.84 600.238 1429.13 616.455 1436.07 633.518C1442.65 649.691 1447.17 666.728 1449.48 684.161C1453.85 716.999 1450.4 751.064 1439.49 782.668L1438.31 782.242C1461.53 714.937 1449.99 641.494 1407.44 585.783C1362.25 526.619 1279.65 489.656 1211.04 497.896C1143.08 506.058 1097.35 554.087 1071.25 644.727C1069.18 651.896 1067.15 660.96 1065 670.556C1058.67 698.809 1050.8 733.973 1034.4 759.865C1025.47 773.967 1014.74 783.908 1002.52 789.413C995.64 792.507 988.115 794.289 980.15 794.705C971.674 795.147 962.449 794.058 952.73 791.468C948.757 790.41 944.804 789.11 940.871 787.567C926.538 781.944 912.402 773.07 897.966 760.665C881.702 746.688 867.242 730.055 855.623 716.69C826.483 683.17 799.972 647.912 776.826 611.894C756.771 580.686 741.356 547.361 726.447 515.134C709.36 478.197 691.69 440 667.021 405.073C637.461 363.221 595.717 335.343 542.947 322.217C436.202 295.666 299.792 335.741 218.221 384.212C193.17 399.097 171.603 417.227 150.745 434.759C143.104 441.182 135.205 447.824 127.195 454.259C110.952 467.308 96.7028 475.625 82.3541 480.428C73.3984 483.425 64.3385 485.004 55.4265 485.119C45.5174 485.246 35.4351 483.574 25.4587 480.147C23.8487 479.591 22.2393 478.998 20.6408 478.371Z" fill="white" fill-opacity="0.5"/>
</g>
</svg>
