<svg width="1334" height="1813" viewBox="0 0 1334 1813" fill="none" xmlns="http://www.w3.org/2000/svg">
<g opacity="0.4">
<ellipse rx="7.76062" ry="8.16667" transform="matrix(-1 0 0 1 96.4532 1132.83)" fill="#E77E42"/>
<ellipse cx="1240.59" cy="159.833" rx="7.76062" ry="8.16667" fill="#1BEAFF"/>
<ellipse rx="7.76062" ry="8.16667" transform="matrix(-1 0 0 1 282.709 645.167)" fill="#E77E42"/>
<ellipse cx="1187.37" cy="1578.5" rx="7.76062" ry="8.16667" fill="#E77E42"/>
<ellipse cx="794.909" cy="141.166" rx="5.5433" ry="5.83333" fill="white"/>
<ellipse rx="5.5433" ry="5.83333" transform="matrix(-1 0 0 1 1178.51 596.167)" fill="white"/>
<ellipse cx="291.578" cy="1529.5" rx="5.5433" ry="5.83333" fill="white"/>
<ellipse cx="1098.68" cy="122.5" rx="5.5433" ry="5.83333" fill="white"/>
<ellipse rx="5.5433" ry="5.83333" transform="matrix(-1 0 0 1 513.31 549.5)" fill="white"/>
<ellipse cx="1165.2" cy="348.833" rx="5.5433" ry="5.83333" fill="white"/>
<ellipse rx="5.5433" ry="5.83333" transform="matrix(-1 0 0 1 47.6715 754.833)" fill="white"/>
<ellipse cx="998.903" cy="311.5" rx="7.76062" ry="8.16667" fill="#E77E42"/>
<ellipse rx="7.76062" ry="8.16667" transform="matrix(-1 0 0 1 568.742 1452.5)" fill="#E77E42"/>
<ellipse cx="76.4979" cy="376.833" rx="7.76062" ry="8.16667" fill="#1BEAFF"/>
<ellipse cx="63.1932" cy="1753.5" rx="7.76062" ry="8.16667" fill="#1BEAFF"/>
<ellipse cx="996.686" cy="502.833" rx="5.5433" ry="5.83333" fill="#1BEAFF"/>
<ellipse cx="503.331" cy="144.667" rx="2.21732" ry="2.33333" fill="white"/>
<ellipse rx="2.21732" ry="2.33333" transform="matrix(-1 0 0 1 1157.44 756)" fill="white"/>
<ellipse cx="312.642" cy="1689.33" rx="2.21732" ry="2.33333" fill="white"/>
<ellipse cx="966.753" cy="2.33333" rx="2.21732" ry="2.33333" fill="white"/>
<ellipse rx="2.21732" ry="2.33333" transform="matrix(-1 0 0 1 1319.31 935.667)" fill="white"/>
<ellipse cx="1161.88" cy="1673" rx="2.21732" ry="2.33333" fill="white"/>
<ellipse rx="2.21732" ry="2.33333" transform="matrix(-1 0 0 1 1299.35 819)" fill="white"/>
<ellipse rx="2.21732" ry="2.33333" transform="matrix(-1 0 0 1 1062.1 1360.33)" fill="white"/>
<ellipse cx="729.498" cy="518" rx="2.21732" ry="2.33333" fill="white"/>
<ellipse rx="2.21732" ry="2.33333" transform="matrix(-1 0 0 1 997.794 1451.33)" fill="white"/>
<ellipse cx="762.758" cy="492.333" rx="2.21732" ry="2.33333" fill="white"/>
<ellipse rx="2.21732" ry="2.33333" transform="matrix(-1 0 0 1 964.535 1425.67)" fill="white"/>
<ellipse cx="281.599" cy="296.333" rx="2.21732" ry="2.33333" fill="white"/>
<ellipse rx="2.21732" ry="2.33333" transform="matrix(-1 0 0 1 1286.05 1229.67)" fill="white"/>
<ellipse rx="2.21732" ry="2.33333" transform="matrix(-1 0 0 1 290.469 1194.67)" fill="white"/>
<ellipse rx="2.21732" ry="2.33333" transform="matrix(-1 0 0 1 2.21725 1320.67)" fill="white"/>
<ellipse rx="2.21732" ry="2.33333" transform="matrix(-1 0 0 1 740.585 602)" fill="white"/>
<ellipse cx="1042.14" cy="422.333" rx="2.21732" ry="2.33333" fill="white"/>
<ellipse rx="2.21732" ry="2.33333" transform="matrix(-1 0 0 1 556.547 1355.67)" fill="white"/>
<ellipse rx="2.21732" ry="2.33333" transform="matrix(-1 0 0 1 541.027 886.667)" fill="white"/>
<ellipse rx="2.21732" ry="2.33333" transform="matrix(-1 0 0 1 738.369 877.333)" fill="white"/>
<ellipse cx="988.925" cy="1810.67" rx="2.21732" ry="2.33333" fill="white"/>
<ellipse rx="2.21732" ry="2.33333" transform="matrix(-1 0 0 1 1088.7 882)" fill="white"/>
<ellipse rx="2.21732" ry="2.33333" transform="matrix(-1 0 0 1 1332.61 742)" fill="white"/>
<ellipse rx="2.21732" ry="2.33333" transform="matrix(-1 0 0 1 538.809 767.667)" fill="white"/>
<ellipse rx="2.21732" ry="2.33333" transform="matrix(-1 0 0 1 1015.53 772.333)" fill="white"/>
<ellipse cx="286.035" cy="105" rx="2.21732" ry="2.33333" fill="white"/>
<ellipse cx="281.599" cy="431.667" rx="2.21732" ry="2.33333" fill="white"/>
<ellipse rx="2.21732" ry="2.33333" transform="matrix(-1 0 0 1 1188.48 1365)" fill="white"/>
<ellipse rx="2.21732" ry="2.33333" transform="matrix(-1 0 0 1 1051.01 926.333)" fill="white"/>
<ellipse cx="310.425" cy="1810.67" rx="2.21732" ry="2.33333" fill="white"/>
<ellipse cx="303.773" cy="1638" rx="2.21732" ry="2.33333" fill="white"/>
<ellipse rx="2.21732" ry="2.33333" transform="matrix(-1 0 0 1 1228.4 641.667)" fill="white"/>
<ellipse cx="1006.66" cy="81.6666" rx="2.21732" ry="2.33333" fill="white"/>
<ellipse cx="1095.36" cy="231" rx="2.21732" ry="2.33333" fill="white"/>
<ellipse rx="2.21732" ry="2.33333" transform="matrix(-1 0 0 1 549.896 1180.67)" fill="white"/>
<ellipse rx="2.21732" ry="2.33333" transform="matrix(-1 0 0 1 516.636 658)" fill="white"/>
<ellipse cx="1082.05" cy="1591.33" rx="2.21732" ry="2.33333" fill="white"/>
<ellipse cx="1169.64" cy="463.167" rx="5.5433" ry="5.83333" fill="white"/>
<ellipse rx="5.5433" ry="5.83333" transform="matrix(-1 0 0 1 258.317 1387.17)" fill="white"/>
<ellipse cx="718.412" cy="235.667" rx="2.21732" ry="2.33333" fill="white"/>
<ellipse rx="2.21732" ry="2.33333" transform="matrix(-1 0 0 1 1008.88 1169)" fill="white"/>
<ellipse rx="2.21732" ry="2.33333" transform="matrix(-1 0 0 1 1000.01 625.333)" fill="white"/>
<ellipse cx="809.322" cy="333.666" rx="2.21732" ry="2.33333" fill="white"/>
<ellipse rx="2.21732" ry="2.33333" transform="matrix(-1 0 0 1 802.669 1267)" fill="white"/>
<ellipse rx="2.21732" ry="2.33333" transform="matrix(-1 0 0 1 815.973 760.667)" fill="white"/>
<ellipse cx="796.018" cy="1694" rx="2.21732" ry="2.33333" fill="white"/>
<ellipse cx="1279.39" cy="37.3333" rx="2.21732" ry="2.33333" fill="white"/>
<ellipse cx="1328.18" cy="203" rx="2.21732" ry="2.33333" fill="white"/>
<ellipse cx="1301.57" cy="1563.33" rx="2.21732" ry="2.33333" fill="white"/>
<ellipse rx="2.21732" ry="2.33333" transform="matrix(-1 0 0 1 1017.75 1092)" fill="white"/>
<ellipse cx="1172.96" cy="135.333" rx="2.21732" ry="2.33333" fill="white"/>
<ellipse rx="2.21732" ry="2.33333" transform="matrix(-1 0 0 1 106.431 522.667)" fill="white"/>
<ellipse cx="1248.35" cy="1806" rx="2.21732" ry="2.33333" fill="white"/>
<ellipse cx="1215.09" cy="382.667" rx="2.21732" ry="2.33333" fill="white"/>
<ellipse cx="587.589" cy="65.3333" rx="2.21732" ry="2.33333" fill="white"/>
<ellipse cx="565.417" cy="340.667" rx="2.21732" ry="2.33333" fill="white"/>
<ellipse rx="2.21732" ry="2.33333" transform="matrix(-1 0 0 1 1033.27 1274)" fill="white"/>
<ellipse cx="1144.14" cy="7.00008" rx="2.21732" ry="2.33333" fill="white"/>
<ellipse cx="1250.57" cy="301" rx="2.21732" ry="2.33333" fill="white"/>
<ellipse rx="2.21732" ry="2.33333" transform="matrix(-1 0 0 1 332.598 1295)" fill="white"/>
<ellipse rx="2.21732" ry="2.33333" transform="matrix(-1 0 0 1 104.214 728)" fill="white"/>
</g>
</svg>
