<svg width="1334" height="1288" viewBox="0 0 1334 1288" fill="none" xmlns="http://www.w3.org/2000/svg">
<g opacity="0.5">
<ellipse rx="7.76062" ry="5.8018" transform="matrix(-1 0 0 1 83.4532 804.792)" fill="#E77E42"/>
<ellipse cx="1227.59" cy="113.549" rx="7.76062" ry="5.8018" fill="#1BEAFF"/>
<ellipse rx="7.76062" ry="5.8018" transform="matrix(-1 0 0 1 269.708 458.342)" fill="#E77E42"/>
<ellipse cx="1174.37" cy="1121.41" rx="7.76062" ry="5.8018" fill="#E77E42"/>
<ellipse cx="781.909" cy="100.288" rx="5.5433" ry="4.14414" fill="white"/>
<ellipse rx="5.5433" ry="4.14414" transform="matrix(-1 0 0 1 1165.51 423.532)" fill="white"/>
<ellipse cx="278.577" cy="1086.59" rx="5.5433" ry="4.14414" fill="white"/>
<ellipse cx="1085.68" cy="87.0267" rx="5.5433" ry="4.14414" fill="white"/>
<ellipse rx="5.5433" ry="4.14414" transform="matrix(-1 0 0 1 500.309 390.378)" fill="white"/>
<ellipse cx="1152.2" cy="247.82" rx="5.5433" ry="4.14414" fill="white"/>
<ellipse rx="5.5433" ry="4.14414" transform="matrix(-1 0 0 1 34.6725 536.252)" fill="white"/>
<ellipse cx="985.903" cy="221.298" rx="7.76062" ry="5.8018" fill="#E77E42"/>
<ellipse rx="7.76062" ry="5.8018" transform="matrix(-1 0 0 1 555.742 1031.89)" fill="#E77E42"/>
<ellipse cx="63.4979" cy="267.711" rx="7.76062" ry="5.8018" fill="#1BEAFF"/>
<ellipse cx="50.1942" cy="1245.73" rx="7.76062" ry="5.8018" fill="#1BEAFF"/>
<ellipse cx="983.686" cy="357.225" rx="5.5433" ry="4.14414" fill="#1BEAFF"/>
<ellipse cx="490.332" cy="102.775" rx="2.21732" ry="1.65766" fill="white"/>
<ellipse rx="2.21732" ry="1.65766" transform="matrix(-1 0 0 1 1144.44 537.081)" fill="white"/>
<ellipse cx="299.642" cy="1200.14" rx="2.21732" ry="1.65766" fill="white"/>
<ellipse cx="953.752" cy="1.65766" rx="2.21732" ry="1.65766" fill="white"/>
<ellipse rx="2.21732" ry="1.65766" transform="matrix(-1 0 0 1 1306.31 664.721)" fill="white"/>
<ellipse cx="1148.88" cy="1188.54" rx="2.21732" ry="1.65766" fill="white"/>
<ellipse rx="2.21732" ry="1.65766" transform="matrix(-1 0 0 1 1286.35 581.837)" fill="white"/>
<ellipse rx="2.21732" ry="1.65766" transform="matrix(-1 0 0 1 1049.1 966.415)" fill="white"/>
<ellipse cx="716.499" cy="368" rx="2.21732" ry="1.65766" fill="white"/>
<ellipse rx="2.21732" ry="1.65766" transform="matrix(-1 0 0 1 984.794 1031.06)" fill="white"/>
<ellipse cx="749.758" cy="349.766" rx="2.21732" ry="1.65766" fill="white"/>
<ellipse rx="2.21732" ry="1.65766" transform="matrix(-1 0 0 1 951.535 1012.83)" fill="white"/>
<ellipse cx="268.6" cy="210.522" rx="2.21732" ry="1.65766" fill="white"/>
<ellipse rx="2.21732" ry="1.65766" transform="matrix(-1 0 0 1 1273.05 873.586)" fill="white"/>
<ellipse rx="2.21732" ry="1.65766" transform="matrix(-1 0 0 1 277.469 848.721)" fill="white"/>
<ellipse rx="2.21732" ry="1.65766" transform="matrix(-1 0 0 1 727.585 427.676)" fill="white"/>
<ellipse cx="1029.14" cy="300.036" rx="2.21732" ry="1.65766" fill="white"/>
<ellipse rx="2.21732" ry="1.65766" transform="matrix(-1 0 0 1 543.547 963.099)" fill="white"/>
<ellipse rx="2.21732" ry="1.65766" transform="matrix(-1 0 0 1 528.026 629.91)" fill="white"/>
<ellipse rx="2.21732" ry="1.65766" transform="matrix(-1 0 0 1 725.368 623.279)" fill="white"/>
<ellipse cx="975.925" cy="1286.34" rx="2.21732" ry="1.65766" fill="white"/>
<ellipse rx="2.21732" ry="1.65766" transform="matrix(-1 0 0 1 1075.7 626.595)" fill="white"/>
<ellipse rx="2.21732" ry="1.65766" transform="matrix(-1 0 0 1 1319.61 527.135)" fill="white"/>
<ellipse rx="2.21732" ry="1.65766" transform="matrix(-1 0 0 1 525.809 545.369)" fill="white"/>
<ellipse rx="2.21732" ry="1.65766" transform="matrix(-1 0 0 1 1002.53 548.685)" fill="white"/>
<ellipse cx="273.035" cy="74.5944" rx="2.21732" ry="1.65766" fill="white"/>
<ellipse cx="268.6" cy="306.667" rx="2.21732" ry="1.65766" fill="white"/>
<ellipse rx="2.21732" ry="1.65766" transform="matrix(-1 0 0 1 1175.48 969.73)" fill="white"/>
<ellipse rx="2.21732" ry="1.65766" transform="matrix(-1 0 0 1 1038.01 658.09)" fill="white"/>
<ellipse cx="297.425" cy="1286.34" rx="2.21732" ry="1.65766" fill="white"/>
<ellipse cx="290.773" cy="1163.68" rx="2.21732" ry="1.65766" fill="white"/>
<ellipse rx="2.21732" ry="1.65766" transform="matrix(-1 0 0 1 1215.4 455.856)" fill="white"/>
<ellipse cx="993.664" cy="58.0182" rx="2.21732" ry="1.65766" fill="white"/>
<ellipse cx="1082.36" cy="164.108" rx="2.21732" ry="1.65766" fill="white"/>
<ellipse rx="2.21732" ry="1.65766" transform="matrix(-1 0 0 1 536.896 838.775)" fill="white"/>
<ellipse rx="2.21732" ry="1.65766" transform="matrix(-1 0 0 1 503.635 467.459)" fill="white"/>
<ellipse cx="1069.05" cy="1130.52" rx="2.21732" ry="1.65766" fill="white"/>
<ellipse cx="1156.64" cy="329.045" rx="5.5433" ry="4.14414" fill="white"/>
<ellipse rx="5.5433" ry="4.14414" transform="matrix(-1 0 0 1 245.318 985.478)" fill="white"/>
<ellipse cx="705.412" cy="167.424" rx="2.21732" ry="1.65766" fill="white"/>
<ellipse rx="2.21732" ry="1.65766" transform="matrix(-1 0 0 1 995.881 830.486)" fill="white"/>
<ellipse rx="2.21732" ry="1.65766" transform="matrix(-1 0 0 1 987.012 444.252)" fill="white"/>
<ellipse cx="796.322" cy="237.045" rx="2.21732" ry="1.65766" fill="white"/>
<ellipse rx="2.21732" ry="1.65766" transform="matrix(-1 0 0 1 789.669 900.108)" fill="white"/>
<ellipse rx="2.21732" ry="1.65766" transform="matrix(-1 0 0 1 802.974 540.397)" fill="white"/>
<ellipse cx="783.018" cy="1203.46" rx="2.21732" ry="1.65766" fill="white"/>
<ellipse cx="1266.39" cy="26.5228" rx="2.21732" ry="1.65766" fill="white"/>
<ellipse cx="1315.18" cy="144.216" rx="2.21732" ry="1.65766" fill="white"/>
<ellipse cx="1288.57" cy="1110.63" rx="2.21732" ry="1.65766" fill="white"/>
<ellipse rx="2.21732" ry="1.65766" transform="matrix(-1 0 0 1 1004.75 775.784)" fill="white"/>
<ellipse cx="1159.96" cy="96.1443" rx="2.21732" ry="1.65766" fill="white"/>
<ellipse rx="2.21732" ry="1.65766" transform="matrix(-1 0 0 1 93.4311 371.315)" fill="white"/>
<ellipse cx="1235.35" cy="1283.03" rx="2.21732" ry="1.65766" fill="white"/>
<ellipse cx="1202.09" cy="271.856" rx="2.21732" ry="1.65766" fill="white"/>
<ellipse cx="574.59" cy="46.4146" rx="2.21732" ry="1.65766" fill="white"/>
<ellipse cx="552.417" cy="242.018" rx="2.21732" ry="1.65766" fill="white"/>
<ellipse rx="2.21732" ry="1.65766" transform="matrix(-1 0 0 1 1020.27 905.081)" fill="white"/>
<ellipse cx="1131.14" cy="4.97278" rx="2.21732" ry="1.65766" fill="white"/>
<ellipse cx="1237.57" cy="213.837" rx="2.21732" ry="1.65766" fill="white"/>
<ellipse rx="2.21732" ry="1.65766" transform="matrix(-1 0 0 1 319.598 920)" fill="white"/>
<ellipse rx="2.21732" ry="1.65766" transform="matrix(-1 0 0 1 91.2143 517.189)" fill="white"/>
</g>
</svg>
