<svg width="1334" height="1366" viewBox="0 0 1334 1366" fill="none" xmlns="http://www.w3.org/2000/svg">
<g opacity="0.3">
<ellipse rx="7.71487" ry="6.15315" transform="matrix(-1 0 0 1 91.8847 853.53)" fill="#E77E42"/>
<ellipse cx="1229.28" cy="120.426" rx="7.71487" ry="6.15315" fill="#1BEAFF"/>
<ellipse rx="7.71487" ry="6.15315" transform="matrix(-1 0 0 1 277.042 486.099)" fill="#E77E42"/>
<ellipse cx="1176.37" cy="1189.32" rx="7.71487" ry="6.15315" fill="#E77E42"/>
<ellipse cx="786.224" cy="106.362" rx="5.51062" ry="4.39511" fill="white"/>
<ellipse rx="5.51062" ry="4.39511" transform="matrix(-1 0 0 1 1167.56 449.18)" fill="white"/>
<ellipse cx="285.859" cy="1152.4" rx="5.51062" ry="4.39511" fill="white"/>
<ellipse cx="1088.21" cy="92.2975" rx="5.51062" ry="4.39511" fill="white"/>
<ellipse rx="5.51062" ry="4.39511" transform="matrix(-1 0 0 1 506.284 414.019)" fill="white"/>
<ellipse cx="1154.33" cy="262.827" rx="5.51062" ry="4.39511" fill="white"/>
<ellipse rx="5.51062" ry="4.39511" transform="matrix(-1 0 0 1 43.3907 568.727)" fill="white"/>
<ellipse cx="989.015" cy="234.699" rx="7.71487" ry="6.15315" fill="#E77E42"/>
<ellipse rx="7.71487" ry="6.15315" transform="matrix(-1 0 0 1 561.39 1094.38)" fill="#E77E42"/>
<ellipse cx="72.0469" cy="283.924" rx="7.71487" ry="6.15315" fill="#1BEAFF"/>
<ellipse cx="58.8203" cy="1321.17" rx="7.71487" ry="6.15315" fill="#1BEAFF"/>
<ellipse cx="986.81" cy="378.858" rx="5.51062" ry="4.39511" fill="#1BEAFF"/>
<ellipse cx="496.363" cy="108.999" rx="2.20425" ry="1.75804" fill="white"/>
<ellipse rx="2.20425" ry="1.75804" transform="matrix(-1 0 0 1 1146.62 569.606)" fill="white"/>
<ellipse cx="306.799" cy="1272.82" rx="2.20425" ry="1.75804" fill="white"/>
<ellipse cx="957.053" cy="1.75804" rx="2.20425" ry="1.75804" fill="white"/>
<ellipse rx="2.20425" ry="1.75804" transform="matrix(-1 0 0 1 1307.53 704.975)" fill="white"/>
<ellipse cx="1151.03" cy="1260.52" rx="2.20425" ry="1.75804" fill="white"/>
<ellipse rx="2.20425" ry="1.75804" transform="matrix(-1 0 0 1 1287.69 617.073)" fill="white"/>
<ellipse rx="2.20425" ry="1.75804" transform="matrix(-1 0 0 1 1051.83 1024.94)" fill="white"/>
<ellipse cx="721.197" cy="390.286" rx="2.20425" ry="1.75804" fill="white"/>
<ellipse rx="2.20425" ry="1.75804" transform="matrix(-1 0 0 1 987.912 1093.5)" fill="white"/>
<ellipse cx="754.262" cy="370.947" rx="2.20425" ry="1.75804" fill="white"/>
<ellipse rx="2.20425" ry="1.75804" transform="matrix(-1 0 0 1 954.848 1074.16)" fill="white"/>
<ellipse cx="275.939" cy="223.272" rx="2.20425" ry="1.75804" fill="white"/>
<ellipse rx="2.20425" ry="1.75804" transform="matrix(-1 0 0 1 1274.46 926.489)" fill="white"/>
<ellipse rx="2.20425" ry="1.75804" transform="matrix(-1 0 0 1 284.757 900.118)" fill="white"/>
<ellipse rx="2.20425" ry="1.75804" transform="matrix(-1 0 0 1 -1.79605 995.053)" fill="white"/>
<ellipse rx="2.20425" ry="1.75804" transform="matrix(-1 0 0 1 732.22 453.575)" fill="white"/>
<ellipse cx="1032" cy="318.206" rx="2.20425" ry="1.75804" fill="white"/>
<ellipse rx="2.20425" ry="1.75804" transform="matrix(-1 0 0 1 549.266 1021.42)" fill="white"/>
<ellipse rx="2.20425" ry="1.75804" transform="matrix(-1 0 0 1 533.837 668.057)" fill="white"/>
<ellipse rx="2.20425" ry="1.75804" transform="matrix(-1 0 0 1 730.015 661.024)" fill="white"/>
<ellipse cx="979.095" cy="1364.24" rx="2.20425" ry="1.75804" fill="white"/>
<ellipse rx="2.20425" ry="1.75804" transform="matrix(-1 0 0 1 1078.29 664.541)" fill="white"/>
<ellipse rx="2.20425" ry="1.75804" transform="matrix(-1 0 0 1 1320.75 559.058)" fill="white"/>
<ellipse rx="2.20425" ry="1.75804" transform="matrix(-1 0 0 1 531.633 578.396)" fill="white"/>
<ellipse rx="2.20425" ry="1.75804" transform="matrix(-1 0 0 1 1005.55 581.912)" fill="white"/>
<ellipse cx="280.349" cy="79.112" rx="2.20425" ry="1.75804" fill="white"/>
<ellipse cx="275.939" cy="325.238" rx="2.20425" ry="1.75804" fill="white"/>
<ellipse rx="2.20425" ry="1.75804" transform="matrix(-1 0 0 1 1177.48 1028.46)" fill="white"/>
<ellipse rx="2.20425" ry="1.75804" transform="matrix(-1 0 0 1 1040.81 697.943)" fill="white"/>
<ellipse cx="304.595" cy="1364.24" rx="2.20425" ry="1.75804" fill="white"/>
<ellipse cx="297.983" cy="1234.15" rx="2.20425" ry="1.75804" fill="white"/>
<ellipse rx="2.20425" ry="1.75804" transform="matrix(-1 0 0 1 1217.15 483.462)" fill="white"/>
<ellipse cx="996.729" cy="61.5315" rx="2.20425" ry="1.75804" fill="white"/>
<ellipse cx="1084.9" cy="174.046" rx="2.20425" ry="1.75804" fill="white"/>
<ellipse rx="2.20425" ry="1.75804" transform="matrix(-1 0 0 1 542.654 889.57)" fill="white"/>
<ellipse rx="2.20425" ry="1.75804" transform="matrix(-1 0 0 1 509.591 495.768)" fill="white"/>
<ellipse cx="1071.67" cy="1198.99" rx="2.20425" ry="1.75804" fill="white"/>
<ellipse cx="1158.74" cy="348.972" rx="5.51062" ry="4.39511" fill="white"/>
<ellipse rx="5.51062" ry="4.39511" transform="matrix(-1 0 0 1 252.794 1045.16)" fill="white"/>
<ellipse cx="710.176" cy="177.562" rx="2.20425" ry="1.75804" fill="white"/>
<ellipse rx="2.20425" ry="1.75804" transform="matrix(-1 0 0 1 998.933 880.78)" fill="white"/>
<ellipse rx="2.20425" ry="1.75804" transform="matrix(-1 0 0 1 990.116 471.156)" fill="white"/>
<ellipse cx="800.55" cy="251.4" rx="2.20425" ry="1.75804" fill="white"/>
<ellipse rx="2.20425" ry="1.75804" transform="matrix(-1 0 0 1 793.937 954.618)" fill="white"/>
<ellipse rx="2.20425" ry="1.75804" transform="matrix(-1 0 0 1 807.163 573.122)" fill="white"/>
<ellipse cx="787.325" cy="1276.34" rx="2.20425" ry="1.75804" fill="white"/>
<ellipse cx="1267.85" cy="28.1286" rx="2.20425" ry="1.75804" fill="white"/>
<ellipse cx="1316.34" cy="152.95" rx="2.20425" ry="1.75804" fill="white"/>
<ellipse cx="1289.89" cy="1177.89" rx="2.20425" ry="1.75804" fill="white"/>
<ellipse rx="2.20425" ry="1.75804" transform="matrix(-1 0 0 1 1007.75 822.765)" fill="white"/>
<ellipse cx="1162.05" cy="101.967" rx="2.20425" ry="1.75804" fill="white"/>
<ellipse rx="2.20425" ry="1.75804" transform="matrix(-1 0 0 1 101.804 393.802)" fill="white"/>
<ellipse cx="1236.99" cy="1360.73" rx="2.20425" ry="1.75804" fill="white"/>
<ellipse cx="1203.93" cy="288.319" rx="2.20425" ry="1.75804" fill="white"/>
<ellipse cx="580.125" cy="49.2252" rx="2.20425" ry="1.75804" fill="white"/>
<ellipse cx="558.083" cy="256.674" rx="2.20425" ry="1.75804" fill="white"/>
<ellipse rx="2.20425" ry="1.75804" transform="matrix(-1 0 0 1 1023.18 959.892)" fill="white"/>
<ellipse cx="1133.39" cy="5.27428" rx="2.20425" ry="1.75804" fill="white"/>
<ellipse cx="1239.2" cy="226.788" rx="2.20425" ry="1.75804" fill="white"/>
<ellipse rx="2.20425" ry="1.75804" transform="matrix(-1 0 0 1 326.638 975.714)" fill="white"/>
<ellipse rx="2.20425" ry="1.75804" transform="matrix(-1 0 0 1 99.5995 548.51)" fill="white"/>
</g>
</svg>
