<svg width="1326" height="1366" viewBox="0 0 1326 1366" fill="none" xmlns="http://www.w3.org/2000/svg">
<g opacity="0.3">
<ellipse rx="7.71487" ry="6.15315" transform="matrix(-1 0 0 1 95.8847 853.53)" fill="#E77E42"/>
<ellipse cx="1233.28" cy="120.426" rx="7.71487" ry="6.15315" fill="#1BEAFF"/>
<ellipse rx="7.71487" ry="6.15315" transform="matrix(-1 0 0 1 281.042 486.099)" fill="#E77E42"/>
<ellipse cx="1180.37" cy="1189.32" rx="7.71487" ry="6.15315" fill="#E77E42"/>
<ellipse cx="790.224" cy="106.362" rx="5.51062" ry="4.39511" fill="white"/>
<ellipse rx="5.51062" ry="4.39511" transform="matrix(-1 0 0 1 1171.56 449.18)" fill="white"/>
<ellipse cx="289.859" cy="1152.4" rx="5.51062" ry="4.39511" fill="white"/>
<ellipse cx="1092.21" cy="92.2974" rx="5.51062" ry="4.39511" fill="white"/>
<ellipse rx="5.51062" ry="4.39511" transform="matrix(-1 0 0 1 510.284 414.019)" fill="white"/>
<ellipse cx="1158.33" cy="262.828" rx="5.51062" ry="4.39511" fill="white"/>
<ellipse rx="5.51062" ry="4.39511" transform="matrix(-1 0 0 1 47.3907 568.727)" fill="white"/>
<ellipse cx="993.015" cy="234.699" rx="7.71487" ry="6.15315" fill="#E77E42"/>
<ellipse rx="7.71487" ry="6.15315" transform="matrix(-1 0 0 1 565.39 1094.38)" fill="#E77E42"/>
<ellipse cx="76.0469" cy="283.924" rx="7.71487" ry="6.15315" fill="#1BEAFF"/>
<ellipse cx="62.8203" cy="1321.17" rx="7.71487" ry="6.15315" fill="#1BEAFF"/>
<ellipse cx="990.81" cy="378.858" rx="5.51062" ry="4.39511" fill="#1BEAFF"/>
<ellipse cx="500.363" cy="108.999" rx="2.20425" ry="1.75804" fill="white"/>
<ellipse rx="2.20425" ry="1.75804" transform="matrix(-1 0 0 1 1150.62 569.606)" fill="white"/>
<ellipse cx="310.799" cy="1272.82" rx="2.20425" ry="1.75804" fill="white"/>
<ellipse cx="961.053" cy="1.75804" rx="2.20425" ry="1.75804" fill="white"/>
<ellipse rx="2.20425" ry="1.75804" transform="matrix(-1 0 0 1 1311.53 704.975)" fill="white"/>
<ellipse cx="1155.03" cy="1260.52" rx="2.20425" ry="1.75804" fill="white"/>
<ellipse rx="2.20425" ry="1.75804" transform="matrix(-1 0 0 1 1291.69 617.073)" fill="white"/>
<ellipse rx="2.20425" ry="1.75804" transform="matrix(-1 0 0 1 1055.83 1024.94)" fill="white"/>
<ellipse cx="725.197" cy="390.286" rx="2.20425" ry="1.75804" fill="white"/>
<ellipse rx="2.20425" ry="1.75804" transform="matrix(-1 0 0 1 991.912 1093.5)" fill="white"/>
<ellipse cx="758.262" cy="370.947" rx="2.20425" ry="1.75804" fill="white"/>
<ellipse rx="2.20425" ry="1.75804" transform="matrix(-1 0 0 1 958.848 1074.16)" fill="white"/>
<ellipse cx="279.939" cy="223.272" rx="2.20425" ry="1.75804" fill="white"/>
<ellipse rx="2.20425" ry="1.75804" transform="matrix(-1 0 0 1 1278.46 926.489)" fill="white"/>
<ellipse rx="2.20425" ry="1.75804" transform="matrix(-1 0 0 1 288.757 900.118)" fill="white"/>
<ellipse rx="2.20425" ry="1.75804" transform="matrix(-1 0 0 1 2.20395 995.053)" fill="white"/>
<ellipse rx="2.20425" ry="1.75804" transform="matrix(-1 0 0 1 736.22 453.575)" fill="white"/>
<ellipse cx="1036" cy="318.206" rx="2.20425" ry="1.75804" fill="white"/>
<ellipse rx="2.20425" ry="1.75804" transform="matrix(-1 0 0 1 553.266 1021.42)" fill="white"/>
<ellipse rx="2.20425" ry="1.75804" transform="matrix(-1 0 0 1 537.837 668.057)" fill="white"/>
<ellipse rx="2.20425" ry="1.75804" transform="matrix(-1 0 0 1 734.015 661.024)" fill="white"/>
<ellipse cx="983.095" cy="1364.24" rx="2.20425" ry="1.75804" fill="white"/>
<ellipse rx="2.20425" ry="1.75804" transform="matrix(-1 0 0 1 1082.29 664.541)" fill="white"/>
<ellipse rx="2.20425" ry="1.75804" transform="matrix(-1 0 0 1 1324.75 559.058)" fill="white"/>
<ellipse rx="2.20425" ry="1.75804" transform="matrix(-1 0 0 1 535.633 578.396)" fill="white"/>
<ellipse rx="2.20425" ry="1.75804" transform="matrix(-1 0 0 1 1009.55 581.912)" fill="white"/>
<ellipse cx="284.349" cy="79.1121" rx="2.20425" ry="1.75804" fill="white"/>
<ellipse cx="279.939" cy="325.238" rx="2.20425" ry="1.75804" fill="white"/>
<ellipse rx="2.20425" ry="1.75804" transform="matrix(-1 0 0 1 1181.48 1028.46)" fill="white"/>
<ellipse rx="2.20425" ry="1.75804" transform="matrix(-1 0 0 1 1044.81 697.943)" fill="white"/>
<ellipse cx="308.595" cy="1364.24" rx="2.20425" ry="1.75804" fill="white"/>
<ellipse cx="301.983" cy="1234.15" rx="2.20425" ry="1.75804" fill="white"/>
<ellipse rx="2.20425" ry="1.75804" transform="matrix(-1 0 0 1 1221.15 483.462)" fill="white"/>
<ellipse cx="1000.73" cy="61.5314" rx="2.20425" ry="1.75804" fill="white"/>
<ellipse cx="1088.9" cy="174.046" rx="2.20425" ry="1.75804" fill="white"/>
<ellipse rx="2.20425" ry="1.75804" transform="matrix(-1 0 0 1 546.654 889.57)" fill="white"/>
<ellipse rx="2.20425" ry="1.75804" transform="matrix(-1 0 0 1 513.591 495.768)" fill="white"/>
<ellipse cx="1075.67" cy="1198.99" rx="2.20425" ry="1.75804" fill="white"/>
<ellipse cx="1162.74" cy="348.972" rx="5.51062" ry="4.39511" fill="white"/>
<ellipse rx="5.51062" ry="4.39511" transform="matrix(-1 0 0 1 256.794 1045.16)" fill="white"/>
<ellipse cx="714.176" cy="177.562" rx="2.20425" ry="1.75804" fill="white"/>
<ellipse rx="2.20425" ry="1.75804" transform="matrix(-1 0 0 1 1002.93 880.78)" fill="white"/>
<ellipse rx="2.20425" ry="1.75804" transform="matrix(-1 0 0 1 994.116 471.156)" fill="white"/>
<ellipse cx="804.55" cy="251.4" rx="2.20425" ry="1.75804" fill="white"/>
<ellipse rx="2.20425" ry="1.75804" transform="matrix(-1 0 0 1 797.937 954.618)" fill="white"/>
<ellipse rx="2.20425" ry="1.75804" transform="matrix(-1 0 0 1 811.163 573.122)" fill="white"/>
<ellipse cx="791.325" cy="1276.34" rx="2.20425" ry="1.75804" fill="white"/>
<ellipse cx="1271.85" cy="28.1287" rx="2.20425" ry="1.75804" fill="white"/>
<ellipse cx="1320.34" cy="152.95" rx="2.20425" ry="1.75804" fill="white"/>
<ellipse cx="1293.89" cy="1177.89" rx="2.20425" ry="1.75804" fill="white"/>
<ellipse rx="2.20425" ry="1.75804" transform="matrix(-1 0 0 1 1011.75 822.765)" fill="white"/>
<ellipse cx="1166.05" cy="101.967" rx="2.20425" ry="1.75804" fill="white"/>
<ellipse rx="2.20425" ry="1.75804" transform="matrix(-1 0 0 1 105.804 393.802)" fill="white"/>
<ellipse cx="1240.99" cy="1360.73" rx="2.20425" ry="1.75804" fill="white"/>
<ellipse cx="1207.93" cy="288.319" rx="2.20425" ry="1.75804" fill="white"/>
<ellipse cx="584.125" cy="49.2252" rx="2.20425" ry="1.75804" fill="white"/>
<ellipse cx="562.083" cy="256.674" rx="2.20425" ry="1.75804" fill="white"/>
<ellipse rx="2.20425" ry="1.75804" transform="matrix(-1 0 0 1 1027.18 959.892)" fill="white"/>
<ellipse cx="1137.39" cy="5.27424" rx="2.20425" ry="1.75804" fill="white"/>
<ellipse cx="1243.2" cy="226.788" rx="2.20425" ry="1.75804" fill="white"/>
<ellipse rx="2.20425" ry="1.75804" transform="matrix(-1 0 0 1 330.638 975.714)" fill="white"/>
<ellipse rx="2.20425" ry="1.75804" transform="matrix(-1 0 0 1 103.599 548.51)" fill="white"/>
</g>
</svg>
