<svg width="50" height="50" viewBox="0 0 50 50" fill="none" xmlns="http://www.w3.org/2000/svg">
<circle cx="25" cy="25" r="25" fill="#1E347D"/>
<path d="M20.008 24.5987C20.008 23.3454 19.977 22.266 20.0371 21.192C20.048 20.9982 20.4154 20.6958 20.6465 20.6668C21.2772 20.6091 21.9115 20.5994 22.5438 20.6378C23.0513 20.6523 23.2441 20.4259 23.2368 19.9369C23.2259 19.1563 23.2241 18.3757 23.255 17.5951C23.3533 14.998 24.8649 13.3209 27.4589 13.0564C28.5849 12.9423 29.7346 13.0365 30.9916 13.0365C30.9916 14.2264 31.0207 15.2099 30.9661 16.1897C30.957 16.3708 30.6278 16.6533 30.4204 16.6787C29.8256 16.7475 29.2162 16.6932 28.6141 16.7149C27.9028 16.7403 27.4025 17.0409 27.308 17.8107C27.308 17.8396 27.2934 17.8686 27.2879 17.8976C26.7804 20.3299 27.0205 20.6288 29.449 20.6378C29.891 20.6378 30.3331 20.6795 30.9043 20.7085C30.7442 21.9002 30.6223 22.9941 30.4277 24.0771C30.3779 24.199 30.2994 24.3071 30.1986 24.3922C30.0979 24.4774 29.978 24.537 29.8492 24.5661C29.2802 24.6301 28.7062 24.638 28.1356 24.5897C27.4407 24.5426 27.1842 24.7708 27.197 25.5061C27.2388 27.9982 27.2134 30.4921 27.2097 32.9843C27.2097 33.3066 27.1824 33.629 27.1661 34.0003H23.235V31.6332C23.235 29.592 23.2096 27.5491 23.2478 25.5079C23.2605 24.7835 23.0058 24.5444 22.3036 24.5897C21.6015 24.635 20.8702 24.5987 20.008 24.5987Z" fill="white"/>
</svg>
