<svg width="908" height="1036" viewBox="0 0 908 1036" fill="none" xmlns="http://www.w3.org/2000/svg">
<g opacity="0.3">
<ellipse rx="5.26716" ry="4.66667" transform="matrix(-1 0 0 1 52.4633 647.333)" fill="#E77E42"/>
<ellipse cx="828.993" cy="91.3332" rx="5.26716" ry="4.66667" fill="#1BEAFF"/>
<ellipse rx="5.26716" ry="4.66667" transform="matrix(-1 0 0 1 178.875 368.667)" fill="#E77E42"/>
<ellipse cx="792.875" cy="902" rx="5.26716" ry="4.66667" fill="#E77E42"/>
<ellipse cx="526.507" cy="80.6668" rx="3.76225" ry="3.33333" fill="white"/>
<ellipse rx="3.76225" ry="3.33333" transform="matrix(-1 0 0 1 786.855 340.667)" fill="white"/>
<ellipse cx="184.895" cy="874" rx="3.76225" ry="3.33333" fill="white"/>
<ellipse cx="732.679" cy="69.9998" rx="3.76225" ry="3.33333" fill="white"/>
<ellipse rx="3.76225" ry="3.33333" transform="matrix(-1 0 0 1 335.385 314)" fill="white"/>
<ellipse cx="777.826" cy="199.333" rx="3.76225" ry="3.33333" fill="white"/>
<ellipse rx="3.76225" ry="3.33333" transform="matrix(-1 0 0 1 19.3554 431.333)" fill="white"/>
<ellipse cx="664.958" cy="178" rx="5.26716" ry="4.66667" fill="#E77E42"/>
<ellipse rx="5.26716" ry="4.66667" transform="matrix(-1 0 0 1 373.007 830)" fill="#E77E42"/>
<ellipse cx="38.919" cy="215.333" rx="5.26716" ry="4.66667" fill="#1BEAFF"/>
<ellipse cx="29.8897" cy="1002" rx="5.26716" ry="4.66667" fill="#1BEAFF"/>
<ellipse cx="663.453" cy="287.333" rx="3.76225" ry="3.33333" fill="#1BEAFF"/>
<ellipse cx="328.613" cy="82.6668" rx="1.5049" ry="1.33333" fill="white"/>
<ellipse rx="1.5049" ry="1.33333" transform="matrix(-1 0 0 1 772.559 432)" fill="white"/>
<ellipse cx="199.191" cy="965.333" rx="1.5049" ry="1.33333" fill="white"/>
<ellipse cx="643.137" cy="1.33333" rx="1.5049" ry="1.33333" fill="white"/>
<ellipse rx="1.5049" ry="1.33333" transform="matrix(-1 0 0 1 882.417 534.667)" fill="white"/>
<ellipse cx="775.569" cy="956" rx="1.5049" ry="1.33333" fill="white"/>
<ellipse rx="1.5049" ry="1.33333" transform="matrix(-1 0 0 1 868.873 468)" fill="white"/>
<ellipse rx="1.5049" ry="1.33333" transform="matrix(-1 0 0 1 707.848 777.333)" fill="white"/>
<ellipse cx="482.113" cy="296" rx="1.5049" ry="1.33333" fill="white"/>
<ellipse rx="1.5049" ry="1.33333" transform="matrix(-1 0 0 1 664.206 829.333)" fill="white"/>
<ellipse cx="504.686" cy="281.333" rx="1.5049" ry="1.33333" fill="white"/>
<ellipse rx="1.5049" ry="1.33333" transform="matrix(-1 0 0 1 641.632 814.667)" fill="white"/>
<ellipse cx="178.123" cy="169.333" rx="1.5049" ry="1.33333" fill="white"/>
<ellipse rx="1.5049" ry="1.33333" transform="matrix(-1 0 0 1 859.843 702.667)" fill="white"/>
<ellipse rx="1.5049" ry="1.33333" transform="matrix(-1 0 0 1 184.142 682.667)" fill="white"/>
<ellipse rx="1.5049" ry="1.33333" transform="matrix(-1 0 0 1 489.637 344)" fill="white"/>
<ellipse cx="694.304" cy="241.333" rx="1.5049" ry="1.33333" fill="white"/>
<ellipse rx="1.5049" ry="1.33333" transform="matrix(-1 0 0 1 364.73 774.667)" fill="white"/>
<ellipse rx="1.5049" ry="1.33333" transform="matrix(-1 0 0 1 354.196 506.667)" fill="white"/>
<ellipse rx="1.5049" ry="1.33333" transform="matrix(-1 0 0 1 488.132 501.333)" fill="white"/>
<ellipse cx="658.186" cy="1034.67" rx="1.5049" ry="1.33333" fill="white"/>
<ellipse rx="1.5049" ry="1.33333" transform="matrix(-1 0 0 1 725.907 504)" fill="white"/>
<ellipse rx="1.5049" ry="1.33333" transform="matrix(-1 0 0 1 891.446 424)" fill="white"/>
<ellipse rx="1.5049" ry="1.33333" transform="matrix(-1 0 0 1 906.495 400)" fill="white"/>
<ellipse rx="1.5049" ry="1.33333" transform="matrix(-1 0 0 1 352.691 438.667)" fill="white"/>
<ellipse rx="1.5049" ry="1.33333" transform="matrix(-1 0 0 1 676.245 441.333)" fill="white"/>
<ellipse cx="181.132" cy="59.9998" rx="1.5049" ry="1.33333" fill="white"/>
<ellipse cx="178.123" cy="246.667" rx="1.5049" ry="1.33333" fill="white"/>
<ellipse rx="1.5049" ry="1.33333" transform="matrix(-1 0 0 1 793.627 780)" fill="white"/>
<ellipse rx="1.5049" ry="1.33333" transform="matrix(-1 0 0 1 700.323 529.333)" fill="white"/>
<ellipse cx="197.686" cy="1034.67" rx="1.5049" ry="1.33333" fill="white"/>
<ellipse cx="193.172" cy="936" rx="1.5049" ry="1.33333" fill="white"/>
<ellipse rx="1.5049" ry="1.33333" transform="matrix(-1 0 0 1 820.716 366.667)" fill="white"/>
<ellipse cx="670.226" cy="46.6668" rx="1.5049" ry="1.33333" fill="white"/>
<ellipse cx="730.422" cy="132" rx="1.5049" ry="1.33333" fill="white"/>
<ellipse rx="1.5049" ry="1.33333" transform="matrix(-1 0 0 1 360.216 674.667)" fill="white"/>
<ellipse rx="1.5049" ry="1.33333" transform="matrix(-1 0 0 1 337.642 376)" fill="white"/>
<ellipse cx="721.392" cy="909.333" rx="1.5049" ry="1.33333" fill="white"/>
<ellipse cx="780.836" cy="264.667" rx="3.76225" ry="3.33333" fill="white"/>
<ellipse rx="3.76225" ry="3.33333" transform="matrix(-1 0 0 1 162.321 792.667)" fill="white"/>
<ellipse cx="474.588" cy="134.667" rx="1.5049" ry="1.33333" fill="white"/>
<ellipse rx="1.5049" ry="1.33333" transform="matrix(-1 0 0 1 671.73 668)" fill="white"/>
<ellipse rx="1.5049" ry="1.33333" transform="matrix(-1 0 0 1 665.711 357.333)" fill="white"/>
<ellipse cx="536.289" cy="190.667" rx="1.5049" ry="1.33333" fill="white"/>
<ellipse rx="1.5049" ry="1.33333" transform="matrix(-1 0 0 1 531.774 724)" fill="white"/>
<ellipse rx="1.5049" ry="1.33333" transform="matrix(-1 0 0 1 540.804 434.667)" fill="white"/>
<ellipse cx="527.26" cy="968" rx="1.5049" ry="1.33333" fill="white"/>
<ellipse cx="855.328" cy="21.3333" rx="1.5049" ry="1.33333" fill="white"/>
<ellipse cx="888.436" cy="116" rx="1.5049" ry="1.33333" fill="white"/>
<ellipse cx="870.377" cy="893.333" rx="1.5049" ry="1.33333" fill="white"/>
<ellipse rx="1.5049" ry="1.33333" transform="matrix(-1 0 0 1 677.75 624)" fill="white"/>
<ellipse cx="783.093" cy="77.3333" rx="1.5049" ry="1.33333" fill="white"/>
<ellipse rx="1.5049" ry="1.33333" transform="matrix(-1 0 0 1 59.2353 298.667)" fill="white"/>
<ellipse cx="834.26" cy="1032" rx="1.5049" ry="1.33333" fill="white"/>
<ellipse cx="811.686" cy="218.667" rx="1.5049" ry="1.33333" fill="white"/>
<ellipse cx="385.799" cy="37.3333" rx="1.5049" ry="1.33333" fill="white"/>
<ellipse cx="370.75" cy="194.667" rx="1.5049" ry="1.33333" fill="white"/>
<ellipse rx="1.5049" ry="1.33333" transform="matrix(-1 0 0 1 688.284 728)" fill="white"/>
<ellipse cx="763.529" cy="3.99984" rx="1.5049" ry="1.33333" fill="white"/>
<ellipse cx="835.765" cy="172" rx="1.5049" ry="1.33333" fill="white"/>
<ellipse rx="1.5049" ry="1.33333" transform="matrix(-1 0 0 1 212.735 740)" fill="white"/>
<ellipse rx="1.5049" ry="1.33333" transform="matrix(-1 0 0 1 57.7304 416)" fill="white"/>
</g>
</svg>
