<svg width="927" height="1296" viewBox="0 0 927 1296" fill="none" xmlns="http://www.w3.org/2000/svg">
<g opacity="0.5">
<mask id="mask0_23_330" style="mask-type:alpha" maskUnits="userSpaceOnUse" x="-91" y="49" width="962" height="1207">
<path d="M-39.352 135.534C-70.7973 140.648 -93.0108 169.1 -90.3448 200.847L-36.1934 845.683C-35.9089 849.071 -35.9081 852.477 -36.1911 855.865L-62.4063 1169.76C-65.232 1203.59 -39.8897 1233.22 -6.02749 1235.68L267.806 1255.52C274.876 1256.04 281.982 1255.31 288.803 1253.38L604.236 1164.25C618.814 1160.13 631.338 1150.73 639.37 1137.89L861.401 782.813C872.572 764.948 873.732 742.581 864.469 723.656L551.095 83.3912C539.277 59.2458 513.046 45.683 486.512 49.9989L-39.352 135.534Z" fill="#C4C4C4"/>
</mask>
<g mask="url(#mask0_23_330)">
<path d="M59.1566 856.382C184.696 865.087 294.206 762.348 303.61 626.735C313.014 491.122 218.732 374.251 93.1922 365.546C-32.3472 356.841 -141.858 459.58 -151.261 595.193C-160.665 730.806 -66.3828 847.676 59.1566 856.382Z" stroke="white" stroke-opacity="0.2" stroke-width="2"/>
<path d="M46.8588 1033.72C263.191 1048.72 451.81 871.687 468.005 638.134C484.2 404.581 321.821 203.21 105.488 188.209C-110.844 173.208 -299.463 350.24 -315.658 583.793C-331.853 817.346 -169.474 1018.72 46.8588 1033.72Z" stroke="white" stroke-opacity="0.15" stroke-width="2"/>
<path d="M33.9909 1219.3C345.339 1240.89 616.745 986.112 640.047 650.064C663.35 314.015 429.706 24.214 118.358 2.62446C-192.991 -18.9651 -464.396 235.814 -487.698 571.863C-511.001 907.912 -277.358 1197.71 33.9909 1219.3Z" stroke="white" stroke-opacity="0.1" stroke-width="2"/>
</g>
</g>
</svg>
